M48
;Layer_Color=9474304
;FILE_FORMAT=4:4
METRIC,LZ
;TYPE=PLATED
T1F00S00C0.4000
T2F00S00C0.5500
T3F00S00C0.6000
T4F00S00C0.7000
T5F00S00C0.7620
T6F00S00C0.8000
T7F00S00C0.9000
T8F00S00C1.0000
T9F00S00C1.1000
T10F00S00C1.2000
T11F00S00C1.4000
T12F00S00C1.4500
T13F00S00C3.1000
%
T01
X0120175Y0008425
X0121825Y0013025
X0123925Y0016825
X012705
X01239Y003058
X0119375Y002775
X00175322Y00176734
X00739293Y00527332
X0094378Y005875
X00959689Y00592586
X00989Y00558
X010975Y005575
X010945Y005975
X0115025Y0059925
X0113405Y00527813
X0107975Y005205
X0120575Y00565
T02
X01103Y00233
Y00258
X01153Y00268
Y00293
T03
X010805Y0005
X0113615Y00054687
X011605Y0005
X012005
X012405
X012805
X012605Y0001
X013005
X012205
X011805
X0113615Y00105995
X010805Y0013
X012205Y0017
X013205Y0021
X0131375Y002545
X01313861Y00268839
X013005Y0025
X0127875Y002845
X01278861Y00298839
X013005Y0033
X010205
X009605Y0029
X009205Y0021
Y0013
X009605
X009805Y0017
X008605
X008805Y0013
X008405
X008005
X007805Y0009
X007405
X007005
X007205Y0013
Y0021
X007605
X008405
X008605Y0033
X008805Y0037
X008005
X007605
X007205
X006805
X007005Y0033
X007405
X007805
X007205Y0029
X006805
X007005Y0025
Y0001
X007405
X006605
X006205
X008805Y0005
X009205
X009605
X005805Y0001
X005405
X005005
X004605
X004205
X003805
X003405
X003005
X002605
X002205
X003205Y0005
X003605
Y0013
X004005
X003805Y0025
X004205
X004805Y0029
Y0037
X006005
X005805Y0033
X006005Y0029
Y0021
Y0013
X005205Y0021
X002805
Y0029
X002605Y0033
X002805Y0037
X003805Y0033
X002205Y0017
X002005Y0021
X001805Y0025
X001605Y0029
X001805Y0033
X000405Y0037
Y0021
X000805
X000605Y0017
X001005
X001405
X001605Y0013
X000805
X000405
X000205Y0017
X000805Y0005
X001205
X001005Y0001
X001405
X001805
X000605
X000205Y0041
X000405Y0045
X000205Y0049
X000405Y0053
X000605Y0057
X001005
X001405
X001805
X002005Y0053
Y0045
X002805
X003205
X002605Y0041
X003805
X004805Y0045
X005205
X006005
X005805Y0041
X005005Y0057
X004605
X003405
X003005
X002405Y0053
X006805Y0045
X007205
X007605
X008005
X007805Y0041
X007405
X007005
X008605
X009005
X009405
X009605Y0045
X009205
X008805
X008205Y0049
X009405
X009205Y0053
X009805Y0057
X011005
X011805
X012005Y0053
X012405
X012805
X013205
X012405Y0045
X012205Y0041
X012605
X011405
X011005
X010605
X010205
X011005Y0049
T04
X00247Y0004225
X00247Y0008275
X0017525
X0017525Y0004225
T05
X00657336Y00271395
X0065928Y00344404
X00657336Y00373145
X00553086
X0055503Y00344404
X00553086Y00271395
X00447418
X00449363Y00344404
X00447418Y00373145
X0034225Y00373145
X00344195Y00344403
X0034225Y00271395
X0023725
X00239195Y00344403
X002375Y00373145
X00239445Y00446153
X00344195
X00449363Y00446154
X0055503
X0065928
T06
X00637465Y00127303
Y0015275
X00688265
Y00127303
Y00228902
X00637465
X00583565
X00532765
X00478865
X00428065
X00374165
X00323365
X00269465
X00218665
Y0015275
Y00127303
X00269465
Y0015275
X00323365
Y00127303
X00374165
Y0015275
X00428065
Y00127303
X00478865
Y0015275
X00532765
Y00127303
X00583565
Y0015275
X001465Y000805
X000215
Y00258
X00144Y002605
X00218165Y004859
X00268965
X00322865
X00373665
X00427565
X00478365
X00532265
X00583065
Y00562052
Y005875
X00532265
Y00562052
X00478365
Y005875
X00427565
Y00562052
X00373665
Y005875
X00322865
Y00562052
X00268965
Y005875
X00218165
Y00562052
X00636965
Y005875
X00687765
Y00562052
X007416Y00562052
Y005875
X007924
Y00562052
X00846125Y00562053
Y005875
X00896925
Y00562053
Y004859
X00846125
X007924Y004859
X007416
X00687765Y004859
X00636965
X01108053Y005068
X011335
Y00456
X01108053
X01209652
Y005068
T07
X0099944Y0057875
X0102484
X0105024
X0111475Y0057875
X0114015
X0116555
T08
X007465Y0017175
X00743Y00233
Y0026475
Y0029475
X008285Y00308
Y00278
X00861Y002655
Y00233
X008285Y00338
X009435
Y00308
X0082625Y0011225
X00335145Y00079194
Y00054194
Y00029194
T09
X0062285Y00046
Y000714
X0064825
X0067365
X0069905
X0072445
Y00046
X0069905
X0067365
X0064825
X0092063Y0017525
X0094603
X0094603Y003845
X0092063
T10
X010225Y0024875
X010485
X0104897Y003045
X0102297
X0099697
X009965Y0024875
X008415Y0005225
X007915
X0011025Y000805
X0005275
Y0025975
X0011025
T11
X0127235Y004566
Y005074
X0132315
Y004566
T12
X0129775Y00482
T13
X0133175Y00031
X0002975Y0003
X0003Y0059
X0133175
M30
