G04*
G04 #@! TF.GenerationSoftware,Altium Limited,Altium Designer,21.2.0 (30)*
G04*
G04 Layer_Physical_Order=2*
G04 Layer_Color=1930808*
%FSLAX44Y44*%
%MOMM*%
G71*
G04*
G04 #@! TF.SameCoordinates,E015A89B-0362-40ED-86BB-9C004C05C8A5*
G04*
G04*
G04 #@! TF.FilePolarity,Positive*
G04*
G01*
G75*
%ADD12C,0.2000*%
%ADD26R,1.0000X1.2500*%
%ADD28R,4.1500X2.4000*%
%ADD29R,1.2500X0.3000*%
%ADD30R,1.2500X1.0000*%
%ADD31C,0.3000*%
%ADD32C,0.6000*%
%ADD33C,0.4000*%
%ADD34C,10.0000*%
G04:AMPARAMS|DCode=35|XSize=1.8mm|YSize=2mm|CornerRadius=0.45mm|HoleSize=0mm|Usage=FLASHONLY|Rotation=270.000|XOffset=0mm|YOffset=0mm|HoleType=Round|Shape=RoundedRectangle|*
%AMROUNDEDRECTD35*
21,1,1.8000,1.1000,0,0,270.0*
21,1,0.9000,2.0000,0,0,270.0*
1,1,0.9000,-0.5500,-0.4500*
1,1,0.9000,-0.5500,0.4500*
1,1,0.9000,0.5500,0.4500*
1,1,0.9000,0.5500,-0.4500*
%
%ADD35ROUNDEDRECTD35*%
%ADD36C,2.0000*%
%ADD37R,2.0000X2.0000*%
%ADD38P,3.2472X8X202.5*%
%ADD39C,3.0000*%
%ADD40C,5.0000*%
%ADD41C,0.8000*%
%ADD42C,1.2000*%
%ADD43C,0.6000*%
%ADD44C,0.7000*%
%ADD45C,1.0000*%
%ADD46C,15.0000*%
%ADD47R,0.6000X1.0000*%
%ADD48O,0.6000X1.8500*%
G04:AMPARAMS|DCode=49|XSize=1.2mm|YSize=3mm|CornerRadius=0.3mm|HoleSize=0mm|Usage=FLASHONLY|Rotation=0.000|XOffset=0mm|YOffset=0mm|HoleType=Round|Shape=RoundedRectangle|*
%AMROUNDEDRECTD49*
21,1,1.2000,2.4000,0,0,0.0*
21,1,0.6000,3.0000,0,0,0.0*
1,1,0.6000,0.3000,-1.2000*
1,1,0.6000,-0.3000,-1.2000*
1,1,0.6000,-0.3000,1.2000*
1,1,0.6000,0.3000,1.2000*
%
%ADD49ROUNDEDRECTD49*%
%ADD50R,9.0000X4.0000*%
%ADD51R,1.0000X2.4000*%
%ADD52R,2.4000X1.4000*%
%ADD53C,0.8000*%
%ADD54C,1.0000*%
G36*
X1396941Y3059D02*
X148059Y3059D01*
Y215500D01*
X147826Y216670D01*
X147163Y217663D01*
X146171Y218326D01*
X145000Y218559D01*
X3059D01*
X3059Y641941D01*
X1396941D01*
X1396941Y3059D01*
D02*
G37*
%LPC*%
G36*
X1155750Y628250D02*
X1139250D01*
Y627057D01*
X1138130Y626459D01*
X1137841Y626652D01*
X1137750Y626670D01*
X1135500Y627118D01*
X1133159Y626652D01*
X1132823Y626427D01*
X1132620Y626292D01*
X1131500Y626890D01*
Y627135D01*
Y628250D01*
X1115000D01*
Y614250D01*
X1131500D01*
Y614865D01*
Y615109D01*
X1132620Y615708D01*
X1132823Y615573D01*
D01*
X1133159Y615348D01*
X1135500Y614883D01*
X1137750Y615330D01*
D01*
X1137841Y615348D01*
X1138130Y615541D01*
X1139250Y614943D01*
Y614699D01*
Y614250D01*
X1155750D01*
Y628250D01*
D02*
G37*
G36*
X1109290Y628790D02*
X1101770D01*
Y622520D01*
X1109290D01*
Y628790D01*
D02*
G37*
G36*
X1099230D02*
X1091710D01*
Y622520D01*
X1099230D01*
Y628790D01*
D02*
G37*
G36*
X1178790Y628790D02*
X1171270D01*
Y622520D01*
X1178790D01*
Y628790D01*
D02*
G37*
G36*
X1168730D02*
X1161210D01*
Y622520D01*
X1168730D01*
Y628790D01*
D02*
G37*
G36*
X578998Y622040D02*
X565728D01*
Y613770D01*
X578998D01*
Y622040D01*
D02*
G37*
G36*
X563188D02*
X549918D01*
Y613770D01*
X563188D01*
Y622040D01*
D02*
G37*
G36*
X1109290Y619980D02*
X1101770D01*
Y613710D01*
X1109290D01*
Y619980D01*
D02*
G37*
G36*
X1099230D02*
X1091710D01*
Y613710D01*
X1099230D01*
Y619980D01*
D02*
G37*
G36*
X1178790Y619980D02*
X1171270D01*
Y613710D01*
X1178790D01*
Y619980D01*
D02*
G37*
G36*
X1168730D02*
X1161210D01*
Y613710D01*
X1168730D01*
Y619980D01*
D02*
G37*
G36*
X578998Y611230D02*
X565728D01*
Y602960D01*
X578998D01*
Y611230D01*
D02*
G37*
G36*
X563188D02*
X549918D01*
Y602960D01*
X563188D01*
Y611230D01*
D02*
G37*
G36*
X760290Y602540D02*
X752770D01*
Y596270D01*
X760290D01*
Y602540D01*
D02*
G37*
G36*
X750230D02*
X742710D01*
Y596270D01*
X750230D01*
Y602540D01*
D02*
G37*
G36*
X736290Y602540D02*
X728770D01*
Y596270D01*
X736290D01*
Y602540D01*
D02*
G37*
G36*
X726230D02*
X718710D01*
Y596270D01*
X726230D01*
Y602540D01*
D02*
G37*
G36*
X1155750Y608250D02*
X1139250D01*
Y594250D01*
X1144447D01*
Y544690D01*
X1142005D01*
X1140309Y544467D01*
X1138727Y543812D01*
X1137370Y542770D01*
X1136328Y541412D01*
X1135673Y539831D01*
X1135449Y538134D01*
Y529134D01*
X1135673Y527437D01*
X1136328Y525856D01*
X1137370Y524498D01*
X1138727Y523456D01*
X1140309Y522801D01*
X1142005Y522578D01*
X1153005D01*
X1154702Y522801D01*
X1156283Y523456D01*
X1157641Y524498D01*
X1158683Y525856D01*
X1159338Y527437D01*
X1159561Y529134D01*
Y538134D01*
X1159338Y539831D01*
X1158683Y541412D01*
X1157641Y542770D01*
X1156283Y543812D01*
X1154702Y544467D01*
X1153005Y544690D01*
X1150564D01*
Y594250D01*
X1155750D01*
Y598191D01*
X1161750D01*
Y594250D01*
X1178250D01*
Y608250D01*
X1161750D01*
Y604309D01*
X1155750D01*
Y608250D01*
D02*
G37*
G36*
X736290Y593730D02*
X728770D01*
Y587460D01*
X736290D01*
Y593730D01*
D02*
G37*
G36*
X726230D02*
X718710D01*
Y587460D01*
X726230D01*
Y593730D01*
D02*
G37*
G36*
X760290Y593730D02*
X752770D01*
Y587460D01*
X760290D01*
Y593730D01*
D02*
G37*
G36*
X750230D02*
X742710D01*
Y587460D01*
X750230D01*
Y593730D01*
D02*
G37*
G36*
X712540Y587040D02*
X699270D01*
Y578770D01*
X712540D01*
Y587040D01*
D02*
G37*
G36*
X696730D02*
X683460D01*
Y578770D01*
X696730D01*
Y587040D01*
D02*
G37*
G36*
X712540Y576230D02*
X699270D01*
Y567960D01*
X712540D01*
Y576230D01*
D02*
G37*
G36*
X696730D02*
X683460D01*
Y567960D01*
X696730D01*
Y576230D01*
D02*
G37*
G36*
X700290Y558101D02*
X692770D01*
Y551831D01*
X700290D01*
Y558101D01*
D02*
G37*
G36*
X690230D02*
X682710D01*
Y551831D01*
X690230D01*
Y558101D01*
D02*
G37*
G36*
X663290Y560290D02*
X657020D01*
Y547020D01*
X663290D01*
Y560290D01*
D02*
G37*
G36*
X654480D02*
X648210D01*
Y547020D01*
X654480D01*
Y560290D01*
D02*
G37*
G36*
X700290Y549291D02*
X692770D01*
Y543021D01*
X700290D01*
Y549291D01*
D02*
G37*
G36*
X690230D02*
X682710D01*
Y543021D01*
X690230D01*
Y549291D01*
D02*
G37*
G36*
X1318005Y545235D02*
X1313775D01*
Y534904D01*
X1325106D01*
Y538134D01*
X1324864Y539972D01*
X1324155Y541684D01*
X1323026Y543155D01*
X1321556Y544283D01*
X1319843Y544993D01*
X1318005Y545235D01*
D02*
G37*
G36*
X1311235D02*
X1307005D01*
X1305167Y544993D01*
X1303455Y544283D01*
X1301984Y543155D01*
X1300856Y541684D01*
X1300146Y539972D01*
X1299904Y538134D01*
Y534904D01*
X1311235D01*
Y545235D01*
D02*
G37*
G36*
X578458Y586500D02*
X550458D01*
Y583617D01*
X255500D01*
X253159Y583152D01*
X251174Y581825D01*
X180674Y511326D01*
X179348Y509341D01*
X178883Y507000D01*
Y309062D01*
X177612Y308631D01*
X176633Y309907D01*
X174962Y311189D01*
X173016Y311995D01*
X170928Y312270D01*
X168839Y311995D01*
X166893Y311189D01*
X165222Y309907D01*
X163940Y308236D01*
X163134Y306290D01*
X162859Y304201D01*
X163134Y302113D01*
X163940Y300167D01*
X165220Y298498D01*
X165266Y298376D01*
X165378Y297908D01*
X165902Y289855D01*
Y275820D01*
X165772Y271876D01*
X165544Y269421D01*
X165410Y268587D01*
X165276Y268018D01*
X165215Y267852D01*
X164012Y266285D01*
X163206Y264338D01*
X162931Y262250D01*
X163206Y260162D01*
X164012Y258216D01*
X165294Y256544D01*
X166966Y255262D01*
X168912Y254456D01*
X171000Y254181D01*
X173088Y254456D01*
X175035Y255262D01*
X176706Y256544D01*
X177612Y257726D01*
X178883Y257295D01*
Y256917D01*
Y214784D01*
X153924Y189826D01*
X152598Y187841D01*
X152133Y185500D01*
Y40673D01*
X152598Y38332D01*
X153924Y36348D01*
X171565Y18707D01*
X173550Y17380D01*
X175891Y16915D01*
X297032D01*
X299373Y17380D01*
X301358Y18707D01*
X314076Y31424D01*
X315402Y33409D01*
X315868Y35750D01*
Y47170D01*
X316355Y47495D01*
X317460Y49149D01*
X317848Y51100D01*
Y75100D01*
X317460Y77051D01*
X316355Y78705D01*
X314701Y79810D01*
X312750Y80198D01*
X306750D01*
X304799Y79810D01*
X303145Y78705D01*
X302040Y77051D01*
X301652Y75100D01*
Y51100D01*
X302040Y49149D01*
X303145Y47495D01*
X303633Y47170D01*
Y38284D01*
X294499Y29150D01*
X254214D01*
X253688Y30420D01*
X259596Y36328D01*
X261834Y38566D01*
X261834Y38566D01*
X262718Y39889D01*
X263028Y41450D01*
Y46217D01*
X263901Y46390D01*
X265555Y47495D01*
X266660Y49149D01*
X267048Y51100D01*
Y75100D01*
X266660Y77051D01*
X265555Y78705D01*
X263901Y79810D01*
X261950Y80198D01*
X255950D01*
X253999Y79810D01*
X252345Y78705D01*
X251240Y77051D01*
X250852Y75100D01*
Y51100D01*
X251240Y49149D01*
X252345Y47495D01*
X253999Y46390D01*
X254872Y46217D01*
Y43139D01*
X248061Y36328D01*
X188939D01*
X178078Y47189D01*
Y179561D01*
X212884Y214366D01*
X212884Y214366D01*
X213768Y215689D01*
X214078Y217250D01*
Y239813D01*
X214164Y242412D01*
X214312Y244006D01*
X214394Y244516D01*
X214442Y244719D01*
X215654Y246533D01*
X216120Y248874D01*
X215654Y251215D01*
X214328Y253200D01*
X212343Y254526D01*
X210002Y254991D01*
X207661Y254526D01*
X205676Y253200D01*
X204350Y251215D01*
X203885Y248874D01*
X204350Y246533D01*
X205558Y244726D01*
X205584Y244614D01*
X205836Y240675D01*
X205922Y239328D01*
Y218939D01*
X171116Y184134D01*
X170232Y182811D01*
X169922Y181250D01*
X169922Y181250D01*
Y45500D01*
X169922Y45500D01*
X170232Y43939D01*
X171116Y42616D01*
X181672Y32061D01*
X183312Y30420D01*
X182786Y29150D01*
X178425D01*
X164368Y43208D01*
Y182966D01*
X189326Y207924D01*
X190652Y209909D01*
X191118Y212250D01*
Y504466D01*
X258034Y571382D01*
X550458D01*
Y568500D01*
X558341D01*
Y551042D01*
X558806Y548701D01*
X560132Y546716D01*
X565424Y541424D01*
X567409Y540098D01*
X569750Y539632D01*
X602750D01*
Y531750D01*
X616750D01*
Y559750D01*
X602750D01*
Y551868D01*
X572284D01*
X570576Y553576D01*
Y568500D01*
X578458D01*
Y586500D01*
D02*
G37*
G36*
X663290Y544480D02*
X657020D01*
Y531210D01*
X663290D01*
Y544480D01*
D02*
G37*
G36*
X654480D02*
X648210D01*
Y531210D01*
X654480D01*
Y544480D01*
D02*
G37*
G36*
X1325106Y532364D02*
X1313775D01*
Y522033D01*
X1318005D01*
X1319843Y522275D01*
X1321556Y522985D01*
X1323026Y524113D01*
X1324155Y525584D01*
X1324864Y527296D01*
X1325106Y529134D01*
Y532364D01*
D02*
G37*
G36*
X1311235D02*
X1299904D01*
Y529134D01*
X1300146Y527296D01*
X1300856Y525584D01*
X1301984Y524113D01*
X1303455Y522985D01*
X1305167Y522275D01*
X1307005Y522033D01*
X1311235D01*
Y532364D01*
D02*
G37*
G36*
X270755Y526249D02*
Y510019D01*
X286985D01*
X286771Y512188D01*
X285768Y515494D01*
X284139Y518541D01*
X281948Y521212D01*
X279277Y523404D01*
X276230Y525032D01*
X272923Y526035D01*
X270755Y526249D01*
D02*
G37*
G36*
X268215Y526249D02*
X266047Y526035D01*
X262740Y525032D01*
X259693Y523404D01*
X257022Y521212D01*
X254830Y518541D01*
X253202Y515494D01*
X252199Y512188D01*
X251985Y510019D01*
X268215D01*
Y526249D01*
D02*
G37*
G36*
X1153005Y520235D02*
X1148775D01*
Y509904D01*
X1160106D01*
Y513134D01*
X1159864Y514972D01*
X1159155Y516684D01*
X1158026Y518155D01*
X1156556Y519283D01*
X1154843Y519993D01*
X1153005Y520235D01*
D02*
G37*
G36*
X1146235D02*
X1142005D01*
X1140167Y519993D01*
X1138455Y519283D01*
X1136984Y518155D01*
X1135856Y516684D01*
X1135147Y514972D01*
X1134905Y513134D01*
Y509904D01*
X1146235D01*
Y520235D01*
D02*
G37*
G36*
X1160106Y507364D02*
X1148775D01*
Y497033D01*
X1153005D01*
X1154843Y497275D01*
X1156556Y497985D01*
X1158026Y499113D01*
X1159155Y500584D01*
X1159864Y502296D01*
X1160106Y504134D01*
Y507364D01*
D02*
G37*
G36*
X1146235D02*
X1134905D01*
Y504134D01*
X1135147Y502296D01*
X1135856Y500584D01*
X1136984Y499113D01*
X1138455Y497985D01*
X1140167Y497275D01*
X1142005Y497033D01*
X1146235D01*
Y507364D01*
D02*
G37*
G36*
X481015Y525749D02*
X464015D01*
X455515Y517249D01*
Y511808D01*
X445499D01*
X444328Y511575D01*
X443336Y510912D01*
X443336Y510912D01*
X432249Y499825D01*
X431402Y499046D01*
X429762Y497695D01*
X429083Y497212D01*
X428465Y496828D01*
X427939Y496556D01*
X427519Y496389D01*
X427246Y496319D01*
X427000Y496367D01*
X424659Y495902D01*
X422674Y494576D01*
X421348Y492591D01*
X420882Y490250D01*
X421348Y487909D01*
X422674Y485924D01*
X424659Y484598D01*
X427000Y484132D01*
X429341Y484598D01*
X431326Y485924D01*
X432652Y487909D01*
X433117Y490250D01*
X433069Y490496D01*
X433139Y490769D01*
X433306Y491189D01*
X433578Y491715D01*
X433962Y492333D01*
X434433Y492996D01*
X436612Y495536D01*
X446766Y505690D01*
X455515D01*
Y500249D01*
X464015Y491749D01*
X481015D01*
X489515Y500249D01*
Y517249D01*
X481015Y525749D01*
D02*
G37*
G36*
X286985Y507479D02*
X270755D01*
Y491249D01*
X272923Y491463D01*
X276230Y492466D01*
X279277Y494095D01*
X281948Y496286D01*
X284139Y498957D01*
X285768Y502004D01*
X286771Y505311D01*
X286985Y507479D01*
D02*
G37*
G36*
X268215D02*
X251985D01*
X252199Y505311D01*
X253202Y502004D01*
X254830Y498957D01*
X257022Y496286D01*
X259693Y494095D01*
X262740Y492466D01*
X266047Y491463D01*
X268215Y491249D01*
Y507479D01*
D02*
G37*
G36*
X543043Y495821D02*
X535523D01*
Y489551D01*
X543043D01*
Y495821D01*
D02*
G37*
G36*
X532983D02*
X525463D01*
Y489551D01*
X532983D01*
Y495821D01*
D02*
G37*
G36*
X630540Y500540D02*
X608520D01*
Y487270D01*
X630540D01*
Y500540D01*
D02*
G37*
G36*
X605980D02*
X583960D01*
Y487270D01*
X605980D01*
Y500540D01*
D02*
G37*
G36*
X543043Y487011D02*
X535523D01*
Y480741D01*
X543043D01*
Y487011D01*
D02*
G37*
G36*
X532983D02*
X525463D01*
Y480741D01*
X532983D01*
Y487011D01*
D02*
G37*
G36*
X951000Y539809D02*
X951000Y539809D01*
X758245D01*
X757075Y539576D01*
X756082Y538913D01*
X756082Y538913D01*
X695799Y478629D01*
D01*
X694609Y477439D01*
X693622Y478249D01*
X694047Y478884D01*
X694319Y480250D01*
Y480250D01*
Y523561D01*
X699750D01*
Y537561D01*
X683250D01*
Y523561D01*
X687181D01*
Y481728D01*
X684448Y478995D01*
X684155Y478702D01*
X682985Y479328D01*
X683173Y480273D01*
X682707Y482614D01*
X681381Y484599D01*
X679396Y485925D01*
X677055Y486390D01*
X674714Y485925D01*
X673079Y484832D01*
X673016Y484807D01*
X672667Y484714D01*
X672189Y484625D01*
X667306Y484319D01*
X645750D01*
X644384Y484047D01*
X643227Y483273D01*
X632040Y472087D01*
X631810Y471857D01*
X630540Y472383D01*
Y472708D01*
Y484730D01*
X608520D01*
Y471460D01*
X629617D01*
X630143Y470190D01*
X629913Y469960D01*
X620022Y460069D01*
X589040D01*
Y460230D01*
X580250D01*
X571460D01*
Y457460D01*
X572000D01*
Y455540D01*
X571460D01*
Y452770D01*
X580250D01*
X589040D01*
Y452931D01*
X621500D01*
X622866Y453203D01*
X624023Y453977D01*
X647228Y477181D01*
X659948D01*
X660073Y475911D01*
X658239Y475547D01*
X656468Y474363D01*
X656443Y474353D01*
X656091Y474252D01*
X655618Y474156D01*
X650709Y473819D01*
X647500D01*
X646134Y473547D01*
X644977Y472773D01*
X602272Y430069D01*
X596717D01*
X596465Y431339D01*
X597548Y431787D01*
X598914Y432836D01*
X599963Y434202D01*
X600622Y435793D01*
X600679Y436230D01*
X594250D01*
Y437500D01*
X592980D01*
Y443929D01*
X592543Y443872D01*
X590952Y443213D01*
X590540Y442897D01*
X590310Y442720D01*
X589040Y443347D01*
Y443637D01*
Y445230D01*
X580250D01*
X571460D01*
Y442770D01*
X580250D01*
Y440230D01*
X571460D01*
Y437770D01*
X580250D01*
Y435230D01*
X571460D01*
Y432770D01*
X580250D01*
Y430230D01*
X571460D01*
Y430069D01*
X567978D01*
X566589Y431457D01*
X566598Y431500D01*
X566210Y433451D01*
X565105Y435105D01*
X545605Y454605D01*
X543951Y455710D01*
X542000Y456098D01*
X539351D01*
Y461281D01*
X542503D01*
Y475281D01*
X526003D01*
Y461281D01*
X529155D01*
Y456098D01*
X292500D01*
X290549Y455710D01*
X288895Y454605D01*
X273395Y439105D01*
X272290Y437451D01*
X271902Y435500D01*
Y401288D01*
X269023D01*
Y387288D01*
X285523D01*
Y401288D01*
X282098D01*
Y433388D01*
X294612Y445902D01*
X539888D01*
X557895Y427895D01*
X559549Y426790D01*
X561500Y426402D01*
X561543Y426411D01*
X563977Y423977D01*
X565134Y423203D01*
X566500Y422931D01*
X572000D01*
Y414559D01*
X567767D01*
X552663Y429663D01*
X551671Y430326D01*
X550500Y430559D01*
X550500Y430559D01*
X538933D01*
X537867Y430582D01*
X536286Y430704D01*
X535688Y430787D01*
X535189Y430884D01*
X534819Y430983D01*
X534642Y431050D01*
X534605Y431105D01*
X532951Y432210D01*
X531000Y432598D01*
X529049Y432210D01*
X527395Y431105D01*
X526290Y429451D01*
X525902Y427500D01*
X526290Y425549D01*
X527395Y423895D01*
X529049Y422790D01*
X531000Y422402D01*
X531577Y422517D01*
X532475Y421619D01*
X532402Y421250D01*
X532421Y421155D01*
D01*
X532489Y420811D01*
X532790Y419299D01*
X533895Y417645D01*
X535549Y416540D01*
X536642Y416323D01*
X536500Y415098D01*
X535805Y414960D01*
D01*
X534549Y414710D01*
X532895Y413605D01*
X531790Y411951D01*
X531402Y410000D01*
X531751Y408244D01*
X531661Y407702D01*
X531313Y406862D01*
X530549Y406710D01*
X528895Y405605D01*
X527790Y403951D01*
X527402Y402000D01*
X527790Y400049D01*
X528895Y398395D01*
X530549Y397290D01*
X532500Y396902D01*
X532565Y396915D01*
X532738Y396836D01*
X533069Y396645D01*
X533439Y396395D01*
X535796Y394378D01*
D01*
X539230Y390945D01*
D01*
X539442Y390732D01*
X538956Y389559D01*
X533017D01*
X530023Y392553D01*
D01*
X529285Y393323D01*
X528254Y394528D01*
X527889Y395010D01*
X527605Y395431D01*
X527414Y395763D01*
X527335Y395935D01*
X527348Y396000D01*
X526960Y397951D01*
X525855Y399605D01*
X524201Y400710D01*
X522250Y401098D01*
X520299Y400710D01*
X518645Y399605D01*
X517540Y397951D01*
X517152Y396000D01*
X517540Y394049D01*
X518645Y392395D01*
X520299Y391290D01*
X522250Y390902D01*
X522315Y390915D01*
X522488Y390836D01*
X522819Y390645D01*
X523189Y390395D01*
X525546Y388378D01*
X528043Y385882D01*
X527834Y384294D01*
X527639Y384164D01*
X526595Y383466D01*
X525268Y381481D01*
X524803Y379140D01*
X525268Y376799D01*
X526595Y374814D01*
X528579Y373488D01*
X530920Y373022D01*
X530963Y373031D01*
X531064Y372999D01*
X531462Y372817D01*
X531976Y372523D01*
X532587Y372115D01*
X533255Y371615D01*
X535780Y369394D01*
X542261Y362913D01*
X544442Y360732D01*
X543956Y359559D01*
X536517D01*
X502163Y393913D01*
X501171Y394576D01*
X500000Y394809D01*
X500000Y394809D01*
X360750D01*
X359579Y394576D01*
X358587Y393913D01*
X327587Y362913D01*
X326924Y361921D01*
X326691Y360750D01*
X326691Y360750D01*
Y163017D01*
X307587Y143913D01*
X306924Y142921D01*
X306691Y141750D01*
X306691Y141750D01*
Y135586D01*
X304799Y135210D01*
X303145Y134105D01*
X302040Y132451D01*
X301652Y130500D01*
Y106500D01*
X302040Y104549D01*
X303145Y102895D01*
X304799Y101790D01*
X306750Y101402D01*
X312750D01*
X314701Y101790D01*
X316355Y102895D01*
X317460Y104549D01*
X317848Y106500D01*
Y130500D01*
X317460Y132451D01*
X316355Y134105D01*
X314701Y135210D01*
X312809Y135586D01*
Y140483D01*
X330591Y158265D01*
X330821Y158496D01*
X332091Y157969D01*
Y157644D01*
Y135586D01*
X330199Y135210D01*
X328545Y134105D01*
X327440Y132451D01*
X327052Y130500D01*
Y106500D01*
X327440Y104549D01*
X328545Y102895D01*
X330199Y101790D01*
X332150Y101402D01*
X338150D01*
X340101Y101790D01*
X341755Y102895D01*
X342860Y104549D01*
X343171Y106114D01*
X344441Y105989D01*
Y104810D01*
Y102017D01*
X332987Y90563D01*
X332324Y89571D01*
X332091Y88400D01*
X332091Y88400D01*
Y80186D01*
X330199Y79810D01*
X328545Y78705D01*
X327440Y77051D01*
X327052Y75100D01*
Y51100D01*
X327440Y49149D01*
X328545Y47495D01*
X330199Y46390D01*
X332150Y46002D01*
X338150D01*
X340101Y46390D01*
X341755Y47495D01*
X342860Y49149D01*
X343248Y51100D01*
Y75100D01*
X342860Y77051D01*
X341755Y78705D01*
X340101Y79810D01*
X338209Y80186D01*
Y87133D01*
X349663Y98587D01*
X350326Y99579D01*
X350559Y100750D01*
X350559Y100750D01*
Y338233D01*
X389017Y376691D01*
X472427D01*
X474753Y376545D01*
X475683Y376426D01*
X476491Y376275D01*
X476375Y374993D01*
X474659Y374652D01*
X472674Y373326D01*
X472535Y373117D01*
X472292Y372974D01*
X471878Y372795D01*
X471312Y372616D01*
X470605Y372450D01*
X469802Y372314D01*
X466465Y372059D01*
X395250D01*
X394080Y371826D01*
X393087Y371163D01*
X358387Y336463D01*
X357724Y335471D01*
X357491Y334300D01*
X357491Y334300D01*
Y135586D01*
X355599Y135210D01*
X353945Y134105D01*
X352840Y132451D01*
X352452Y130500D01*
Y106500D01*
X352840Y104549D01*
X353945Y102895D01*
X355599Y101790D01*
X357550Y101402D01*
X363550D01*
X365501Y101790D01*
X367155Y102895D01*
X367671Y103668D01*
X368941Y103283D01*
Y102869D01*
Y99767D01*
X358387Y89213D01*
X357724Y88221D01*
X357491Y87050D01*
X357491Y87050D01*
Y80186D01*
X355599Y79810D01*
X353945Y78705D01*
X352840Y77051D01*
X352452Y75100D01*
Y51100D01*
X352840Y49149D01*
X353945Y47495D01*
X355599Y46390D01*
X357550Y46002D01*
X363550D01*
X365501Y46390D01*
X367155Y47495D01*
X368260Y49149D01*
X368648Y51100D01*
Y75100D01*
X368260Y77051D01*
X367155Y78705D01*
X365501Y79810D01*
X363609Y80186D01*
Y85783D01*
X374163Y96337D01*
X374826Y97329D01*
X375059Y98500D01*
Y330233D01*
X402767Y357941D01*
X479417D01*
X481739Y357800D01*
X482682Y357683D01*
X483507Y357536D01*
X484189Y357366D01*
X484719Y357186D01*
X485091Y357013D01*
X485303Y356875D01*
X485422Y356761D01*
X485674Y356384D01*
X487659Y355057D01*
X490000Y354592D01*
X492341Y355057D01*
X494326Y356384D01*
X495652Y358368D01*
X496118Y360709D01*
X495652Y363050D01*
X494326Y365035D01*
X492341Y366361D01*
X490000Y366827D01*
X487659Y366361D01*
X485674Y365035D01*
X485623Y364958D01*
X485485Y364884D01*
X485070Y364723D01*
X484499Y364560D01*
X483780Y364410D01*
X482960Y364286D01*
X482866Y364280D01*
X482576Y364260D01*
X481867Y365485D01*
X482652Y366659D01*
X483118Y369000D01*
X482652Y371341D01*
X482250Y371943D01*
X483014Y373086D01*
X483055Y373077D01*
X485396Y373543D01*
X487381Y374869D01*
X488707Y376854D01*
X489173Y379195D01*
X489046Y379832D01*
X490216Y380458D01*
X490509Y380165D01*
X502323Y368351D01*
D01*
X503865Y366606D01*
X504443Y365860D01*
X504914Y365178D01*
X505266Y364585D01*
X505502Y364095D01*
X505629Y363728D01*
X505671Y363505D01*
X505669Y363242D01*
X505604Y362913D01*
X505562Y362703D01*
X506028Y360362D01*
X507354Y358377D01*
X509339Y357051D01*
X511680Y356586D01*
X514021Y357051D01*
X516006Y358377D01*
X517332Y360362D01*
X517797Y362703D01*
X517332Y365044D01*
X516006Y367029D01*
X514021Y368355D01*
X511680Y368821D01*
X511655Y368816D01*
X511573Y368842D01*
X511179Y369025D01*
X510667Y369321D01*
X510108Y369697D01*
X506844Y372482D01*
X491808Y387518D01*
X492294Y388691D01*
X498733D01*
X531041Y356384D01*
X531692Y355732D01*
X531206Y354559D01*
X503250D01*
X502079Y354326D01*
X501087Y353663D01*
X501087Y353663D01*
X460026Y312602D01*
X459363Y311610D01*
X459130Y310439D01*
X459130Y310439D01*
Y135586D01*
X457238Y135210D01*
X455584Y134105D01*
X454479Y132451D01*
X454091Y130500D01*
Y106500D01*
X454479Y104549D01*
X455584Y102895D01*
X457238Y101790D01*
X459189Y101402D01*
X465189D01*
X467140Y101790D01*
X468794Y102895D01*
X469899Y104549D01*
X470287Y106500D01*
Y130500D01*
X469899Y132451D01*
X468794Y134105D01*
X467140Y135210D01*
X465248Y135586D01*
Y309172D01*
X504517Y348441D01*
X529456D01*
X529942Y347268D01*
X529730Y347055D01*
D01*
X517364Y334689D01*
D01*
X517043Y334369D01*
X515901Y335022D01*
X516295Y337006D01*
X515829Y339347D01*
X514503Y341331D01*
X512519Y342658D01*
X510177Y343123D01*
X507836Y342658D01*
X505852Y341331D01*
X504526Y339347D01*
X504060Y337006D01*
X504077Y336919D01*
X504033Y336772D01*
X503854Y336366D01*
X503564Y335846D01*
X503162Y335232D01*
X502669Y334565D01*
X500458Y332034D01*
X473087Y304663D01*
X472424Y303671D01*
X472191Y302500D01*
X472191Y302500D01*
Y100767D01*
X460026Y88602D01*
X459363Y87610D01*
X459130Y86439D01*
X459130Y86439D01*
Y80186D01*
X457238Y79810D01*
X455584Y78705D01*
X454479Y77051D01*
X454091Y75100D01*
Y51100D01*
X454479Y49149D01*
X455584Y47495D01*
X457238Y46390D01*
X459189Y46002D01*
X465189D01*
X467140Y46390D01*
X468794Y47495D01*
X469899Y49149D01*
X470287Y51100D01*
Y75100D01*
X469899Y77051D01*
X468794Y78705D01*
X467140Y79810D01*
X465248Y80186D01*
Y85172D01*
X477413Y97337D01*
X477413Y97337D01*
X478076Y98329D01*
X478309Y99500D01*
Y104755D01*
Y105934D01*
X479579Y106059D01*
X479809Y104903D01*
X479879Y104549D01*
X480984Y102895D01*
X482638Y101790D01*
X484589Y101402D01*
X490589D01*
X492540Y101790D01*
X494194Y102895D01*
X495299Y104549D01*
X495687Y106500D01*
X496941Y106462D01*
Y105116D01*
Y96517D01*
X485426Y85002D01*
X484763Y84010D01*
X484530Y82839D01*
X484530Y82839D01*
Y80186D01*
X482638Y79810D01*
X480984Y78705D01*
X479879Y77051D01*
X479491Y75100D01*
Y51100D01*
X479879Y49149D01*
X480984Y47495D01*
X482638Y46390D01*
X484589Y46002D01*
X490589D01*
X492540Y46390D01*
X494194Y47495D01*
X495299Y49149D01*
X495687Y51100D01*
Y75100D01*
X495299Y77051D01*
X494194Y78705D01*
X492540Y79810D01*
X490834Y80149D01*
X490648Y80186D01*
Y81572D01*
X492037Y82961D01*
X502163Y93087D01*
X502163Y93087D01*
X502826Y94080D01*
X503059Y95250D01*
Y311733D01*
D01*
X517208Y325882D01*
X530752Y339426D01*
X531923Y338801D01*
X531842Y338395D01*
X531840Y338385D01*
X532305Y336044D01*
X533632Y334059D01*
X535616Y332733D01*
X537957Y332267D01*
X540299Y332733D01*
X542283Y334059D01*
X542322Y334117D01*
X542440Y334180D01*
X542853Y334337D01*
X543424Y334497D01*
X544144Y334644D01*
X544967Y334765D01*
X548321Y334987D01*
X548687D01*
X552567Y331107D01*
X551942Y329936D01*
X551536Y330017D01*
X551384Y330047D01*
X549043Y329582D01*
X547058Y328256D01*
X545732Y326271D01*
X545267Y323930D01*
X545732Y321589D01*
X546755Y320059D01*
D01*
X546908Y319829D01*
X546511Y318559D01*
X530165D01*
X527844Y318699D01*
X526900Y318816D01*
X526071Y318963D01*
X525386Y319131D01*
X524850Y319312D01*
X524472Y319486D01*
X524253Y319627D01*
X524154Y319720D01*
X523917Y320074D01*
X521933Y321400D01*
X519592Y321866D01*
X517251Y321400D01*
X515266Y320074D01*
X513940Y318089D01*
X513474Y315748D01*
X513940Y313407D01*
X515266Y311422D01*
X514591Y310402D01*
X512250Y310868D01*
X509909Y310402D01*
X507924Y309076D01*
X506598Y307091D01*
X506133Y304750D01*
X506598Y302409D01*
X507924Y300424D01*
X508133Y300285D01*
X508276Y300042D01*
X508455Y299627D01*
X508634Y299062D01*
X508800Y298355D01*
X508936Y297552D01*
X509191Y294215D01*
Y135439D01*
X508038Y135210D01*
X506384Y134105D01*
X505279Y132451D01*
X504891Y130500D01*
Y106500D01*
X505279Y104549D01*
X506384Y102895D01*
X508038Y101790D01*
X509989Y101402D01*
X515989D01*
X517940Y101790D01*
X519171Y102613D01*
X520441Y102051D01*
Y101669D01*
Y96517D01*
X510826Y86902D01*
X510163Y85910D01*
X509930Y84739D01*
X509930Y84739D01*
Y80186D01*
X508038Y79810D01*
X506384Y78705D01*
X505279Y77051D01*
X504891Y75100D01*
Y51100D01*
X505279Y49149D01*
X506384Y47495D01*
X508038Y46390D01*
X509989Y46002D01*
X515989D01*
X517940Y46390D01*
X519594Y47495D01*
X520699Y49149D01*
X521087Y51100D01*
Y75100D01*
X520699Y77051D01*
X519594Y78705D01*
X517940Y79810D01*
X516048Y80186D01*
Y83472D01*
D01*
X524977Y92401D01*
X526685Y92489D01*
X527058Y92116D01*
X535330Y83844D01*
Y80186D01*
X533438Y79810D01*
X531784Y78705D01*
X530679Y77051D01*
X530291Y75100D01*
Y51100D01*
X530679Y49149D01*
X531784Y47495D01*
X533438Y46390D01*
X535389Y46002D01*
X541389D01*
X543340Y46390D01*
X544994Y47495D01*
X546099Y49149D01*
X546487Y51100D01*
Y75100D01*
X546099Y77051D01*
X544994Y78705D01*
X543340Y79810D01*
X541448Y80186D01*
Y85111D01*
X541215Y86281D01*
X540552Y87274D01*
X540552Y87274D01*
X530559Y97267D01*
Y102047D01*
Y102443D01*
X531563Y102814D01*
X531829Y102865D01*
X533099Y102017D01*
X533438Y101790D01*
X535389Y101402D01*
X541389D01*
X543340Y101790D01*
X544994Y102895D01*
X546099Y104549D01*
X546487Y106500D01*
Y130500D01*
X546099Y132451D01*
X544994Y134105D01*
X543340Y135210D01*
X541448Y135586D01*
Y150122D01*
X575955Y184629D01*
X741416D01*
X741540Y184602D01*
X741560Y184579D01*
X740969Y183309D01*
X582250D01*
X582250Y183309D01*
X581079Y183076D01*
X580087Y182413D01*
X580087Y182413D01*
X549087Y151413D01*
X548424Y150421D01*
X548191Y149250D01*
X548191Y149250D01*
Y95500D01*
X548191Y95500D01*
X548424Y94330D01*
X549087Y93337D01*
X560730Y81694D01*
Y80186D01*
X558838Y79810D01*
X557184Y78705D01*
X556079Y77051D01*
X555691Y75100D01*
Y51100D01*
X556079Y49149D01*
X557184Y47495D01*
X558838Y46390D01*
X560789Y46002D01*
X566789D01*
X568740Y46390D01*
X570394Y47495D01*
X571499Y49149D01*
X571887Y51100D01*
Y75100D01*
X571499Y77051D01*
X570394Y78705D01*
X568740Y79810D01*
X566848Y80186D01*
Y82961D01*
X566848Y82961D01*
X566615Y84131D01*
X565952Y85124D01*
X565952Y85124D01*
X554309Y96767D01*
Y105761D01*
Y147983D01*
X583517Y177191D01*
X587706D01*
X588192Y176018D01*
X561626Y149452D01*
X560963Y148460D01*
X560730Y147289D01*
X560730Y147289D01*
Y135586D01*
X558838Y135210D01*
X557184Y134105D01*
X556079Y132451D01*
X555691Y130500D01*
Y106500D01*
X555809Y105909D01*
X556079Y104549D01*
X557184Y102895D01*
X558838Y101790D01*
X560789Y101402D01*
X566789D01*
X568740Y101790D01*
X570394Y102895D01*
X571499Y104549D01*
X571887Y106500D01*
Y130500D01*
X571499Y132451D01*
X570394Y134105D01*
X568740Y135210D01*
X566848Y135586D01*
Y146022D01*
X594017Y173191D01*
X767250D01*
X767250Y173191D01*
X768420Y173424D01*
X769413Y174087D01*
X773017Y177691D01*
X780566D01*
X781720Y177642D01*
X783831Y177437D01*
X784649Y177297D01*
X785352Y177130D01*
X785910Y176950D01*
X786315Y176772D01*
X786565Y176621D01*
X786572Y176615D01*
X786742Y176362D01*
X788727Y175036D01*
X791068Y174570D01*
X793409Y175036D01*
X795393Y176362D01*
X796720Y178346D01*
X797185Y180688D01*
X796720Y183029D01*
X795981Y184134D01*
X795609Y184691D01*
D01*
X795455Y184921D01*
X795718Y186082D01*
X795751Y186191D01*
X806233D01*
X812691Y179733D01*
Y170999D01*
X811762Y169609D01*
X811374Y167658D01*
Y155158D01*
X811762Y153207D01*
X812868Y151553D01*
X814521Y150448D01*
X816472Y150060D01*
X818423Y150448D01*
X820077Y151553D01*
X821182Y153207D01*
X821570Y155158D01*
Y167658D01*
X821182Y169609D01*
X820077Y171263D01*
X819532Y171627D01*
X818809Y172110D01*
D01*
Y181000D01*
X818576Y182171D01*
X817913Y183163D01*
X816942Y184134D01*
X809905Y191171D01*
X810159Y192118D01*
X810387Y192441D01*
X812983D01*
X826114Y179311D01*
Y171628D01*
X825567Y171263D01*
X824462Y169609D01*
X824074Y167658D01*
Y155158D01*
X824462Y153207D01*
X825567Y151553D01*
X827221Y150448D01*
X829172Y150060D01*
X831123Y150448D01*
X832777Y151553D01*
X833882Y153207D01*
X834270Y155158D01*
Y167658D01*
X833882Y169609D01*
X832777Y171263D01*
X832231Y171628D01*
Y180578D01*
X832231Y180578D01*
X831998Y181748D01*
X831335Y182741D01*
X831335Y182741D01*
X829544Y184532D01*
X817384Y196691D01*
D01*
X817155Y196921D01*
X817681Y198191D01*
X838750D01*
X838750Y198191D01*
X839921Y198424D01*
X840913Y199087D01*
X844035Y202209D01*
X844035Y202209D01*
X844698Y203202D01*
X844931Y204372D01*
X844931Y204372D01*
Y209188D01*
X845477Y209553D01*
X846582Y211207D01*
X846970Y213158D01*
Y225658D01*
X846582Y227609D01*
X845477Y229263D01*
X843823Y230368D01*
X841872Y230756D01*
X839921Y230368D01*
X838268Y229263D01*
X837162Y227609D01*
X836774Y225658D01*
Y213158D01*
X837162Y211207D01*
X838268Y209553D01*
X838814Y209188D01*
Y205639D01*
X837483Y204309D01*
X724561D01*
Y206022D01*
X728502D01*
Y222522D01*
X714502D01*
Y206022D01*
X718443D01*
Y204309D01*
X586517D01*
X580432Y210394D01*
X546309Y244517D01*
Y258734D01*
X546353Y260541D01*
X546538Y262666D01*
X546666Y263502D01*
X546819Y264220D01*
X546985Y264792D01*
X547150Y265208D01*
X547234Y265363D01*
X547326Y265424D01*
X548652Y267409D01*
X549118Y269750D01*
X548652Y272091D01*
X547326Y274076D01*
X545341Y275402D01*
X543000Y275868D01*
X540659Y275402D01*
X538674Y274076D01*
X537348Y272091D01*
X536883Y269750D01*
X537348Y267409D01*
X538674Y265424D01*
X539029Y265187D01*
X539123Y265087D01*
X539264Y264868D01*
X539438Y264490D01*
X539619Y263955D01*
X539787Y263270D01*
X539926Y262485D01*
X540191Y259153D01*
Y243250D01*
X540191Y243250D01*
X540424Y242080D01*
X541087Y241087D01*
X570868Y211306D01*
X570149Y210230D01*
X569327Y210570D01*
X567500Y210810D01*
X567466Y210806D01*
X567234Y210888D01*
X566782Y211120D01*
X566167Y211507D01*
X565462Y212016D01*
X561590Y215428D01*
X559384Y217634D01*
X558061Y218518D01*
X556500Y218828D01*
X556500Y218828D01*
X543156D01*
X540719Y218920D01*
X538318Y219149D01*
X537427Y219293D01*
X536719Y219454D01*
X536236Y219609D01*
X536013Y219715D01*
X535993Y219742D01*
X535806Y219885D01*
X535576Y220143D01*
X535398Y220443D01*
X535184Y220952D01*
X534969Y221662D01*
X534772Y222560D01*
X534609Y223597D01*
X534319Y227758D01*
Y275772D01*
X551478Y292931D01*
X552941D01*
Y241000D01*
X552941Y241000D01*
X553174Y239830D01*
X553837Y238837D01*
X580565Y212109D01*
X580565Y212109D01*
X581388Y211559D01*
D01*
X581558Y211446D01*
X582728Y211213D01*
X582729Y211213D01*
X694502D01*
Y206022D01*
X708502D01*
Y222522D01*
X694502D01*
Y217330D01*
X583995D01*
X559059Y242267D01*
Y292931D01*
X572000D01*
Y290540D01*
X571460D01*
Y287770D01*
X580250D01*
X589040D01*
Y290540D01*
X588500D01*
Y303441D01*
X590233D01*
X597337Y296337D01*
X597337Y296337D01*
X598330Y295674D01*
X599500Y295441D01*
X599500Y295441D01*
X619250D01*
X619250Y295441D01*
X620421Y295674D01*
X621413Y296337D01*
X628517Y303441D01*
X666631D01*
X668194Y303374D01*
X669578Y303225D01*
X670063Y303137D01*
X670439Y303043D01*
X670623Y302979D01*
X672205Y301923D01*
X674156Y301535D01*
X676107Y301923D01*
X677760Y303028D01*
X678866Y304682D01*
X679254Y306632D01*
X678866Y308583D01*
X677760Y310237D01*
X676107Y311342D01*
X674156Y311730D01*
X672205Y311342D01*
X670551Y310237D01*
X670437Y310067D01*
X670247Y309992D01*
X669893Y309893D01*
X669406Y309794D01*
X668833Y309712D01*
X666427Y309559D01*
X627250D01*
X627250Y309559D01*
X626079Y309326D01*
X625087Y308663D01*
X625087Y308663D01*
X617983Y301559D01*
X611824D01*
X611145Y302829D01*
X611299Y303059D01*
D01*
X611969Y304061D01*
X612435Y306402D01*
X611969Y308744D01*
X610643Y310728D01*
X610023Y311142D01*
X608658Y312054D01*
X608071Y312171D01*
X608196Y313441D01*
X678818D01*
X678818Y313441D01*
X679989Y313674D01*
X680981Y314337D01*
X682686Y316042D01*
X683456Y316779D01*
X684661Y317811D01*
X685143Y318175D01*
X685564Y318459D01*
X685895Y318651D01*
X686068Y318729D01*
X686133Y318716D01*
X688084Y319104D01*
X689737Y320210D01*
X690843Y321863D01*
X691231Y323814D01*
X690843Y325765D01*
X689737Y327419D01*
X688084Y328524D01*
X687322Y328676D01*
X686960Y329549D01*
X687348Y331500D01*
X687242Y332034D01*
X687012Y333191D01*
D01*
X686966Y333421D01*
X686925Y333650D01*
X687653Y334691D01*
X709427D01*
X709427Y334691D01*
X710598Y334924D01*
X711590Y335587D01*
X718900Y342897D01*
X719670Y343635D01*
X720875Y344666D01*
X721357Y345031D01*
X721778Y345315D01*
X722109Y345506D01*
X722282Y345585D01*
X722347Y345572D01*
X724298Y345960D01*
X725952Y347065D01*
X727057Y348719D01*
X727445Y350670D01*
X727057Y352621D01*
X725952Y354275D01*
X724298Y355380D01*
X722347Y355768D01*
X720396Y355380D01*
X718742Y354275D01*
X717637Y352621D01*
X717249Y350670D01*
X717262Y350605D01*
X717183Y350432D01*
X716992Y350101D01*
X716742Y349731D01*
X714725Y347373D01*
X708160Y340809D01*
X670260D01*
X669662Y341929D01*
X669792Y342125D01*
X670181Y344076D01*
X669792Y346027D01*
X668687Y347681D01*
X668403Y347870D01*
X668451Y348977D01*
X668655Y349230D01*
X669115Y349195D01*
X669143Y349153D01*
X669553Y348879D01*
X670797Y348048D01*
X672748Y347660D01*
X674699Y348048D01*
X676353Y349153D01*
X677458Y350807D01*
X677846Y352758D01*
X677458Y354709D01*
X676353Y356363D01*
X674699Y357468D01*
X674358Y357536D01*
X672932Y357819D01*
X672748Y357856D01*
X672669Y357840D01*
X671906Y358983D01*
X672284Y359549D01*
X672672Y361500D01*
X672284Y363451D01*
X671179Y365105D01*
X669525Y366210D01*
X667574Y366598D01*
X665623Y366210D01*
X665154Y365897D01*
X664003Y366618D01*
X663615Y368569D01*
X663029Y369447D01*
X662729Y373789D01*
Y384653D01*
X765017Y486941D01*
X860483D01*
X959191Y388233D01*
Y91517D01*
X953733Y86059D01*
X763017D01*
X755559Y93517D01*
Y138500D01*
X755326Y139671D01*
X754663Y140663D01*
X754663Y140663D01*
X728413Y166913D01*
X727421Y167576D01*
X726250Y167809D01*
X726250Y167809D01*
X605250D01*
X604080Y167576D01*
X603087Y166913D01*
X587026Y150852D01*
X586363Y149860D01*
X586130Y148689D01*
X586130Y148689D01*
Y135586D01*
X584238Y135210D01*
X582584Y134105D01*
X581479Y132451D01*
X581091Y130500D01*
Y106500D01*
X581479Y104549D01*
X582584Y102895D01*
X584238Y101790D01*
X586189Y101402D01*
X592189D01*
X594140Y101790D01*
X595794Y102895D01*
X596899Y104549D01*
X597287Y106500D01*
Y130500D01*
X596899Y132451D01*
X595794Y134105D01*
X594140Y135210D01*
X592248Y135586D01*
Y147422D01*
X606517Y161691D01*
X623964D01*
X624350Y160421D01*
X624337Y160413D01*
X624115Y160191D01*
X612426Y148502D01*
X611763Y147510D01*
X611530Y146339D01*
X611530Y146339D01*
Y135586D01*
X609638Y135210D01*
X607984Y134105D01*
X606879Y132451D01*
X606491Y130500D01*
Y106500D01*
X606879Y104549D01*
X607984Y102895D01*
X609638Y101790D01*
X611589Y101402D01*
X617589D01*
X619540Y101790D01*
X621194Y102895D01*
X622299Y104549D01*
X622687Y106500D01*
Y130500D01*
X622299Y132451D01*
X621194Y134105D01*
X619540Y135210D01*
X617648Y135586D01*
Y145072D01*
X627767Y155191D01*
X638183D01*
X638308Y153921D01*
X637829Y153826D01*
X637628Y153691D01*
D01*
X636837Y153163D01*
X636837Y153163D01*
X625087Y141413D01*
X624424Y140421D01*
X624191Y139250D01*
X624191Y139250D01*
Y97517D01*
X612426Y85752D01*
X611763Y84760D01*
X611530Y83589D01*
X611530Y83589D01*
Y80186D01*
X609638Y79810D01*
X607984Y78705D01*
X606879Y77051D01*
X606491Y75100D01*
Y51100D01*
X606879Y49149D01*
X607984Y47495D01*
X609638Y46390D01*
X611589Y46002D01*
X617589D01*
X619540Y46390D01*
X621194Y47495D01*
X622299Y49149D01*
X622687Y51100D01*
Y75100D01*
X622299Y77051D01*
X621194Y78705D01*
X619540Y79810D01*
X617648Y80186D01*
Y82322D01*
X629413Y94087D01*
X629413Y94087D01*
X630076Y95079D01*
X630309Y96250D01*
Y137983D01*
X640267Y147941D01*
X658089D01*
X658474Y146671D01*
X658087Y146413D01*
X658087Y146413D01*
X650837Y139163D01*
X650174Y138170D01*
X649941Y137000D01*
X649941Y137000D01*
Y96267D01*
X637837Y84163D01*
X637174Y83170D01*
X636941Y82000D01*
X636941Y82000D01*
Y80189D01*
X635038Y79810D01*
X633384Y78705D01*
X632279Y77051D01*
X632079Y76043D01*
X630809Y76168D01*
Y77345D01*
Y81733D01*
X642152Y93076D01*
X642152Y93076D01*
X642815Y94068D01*
X643048Y95239D01*
Y101414D01*
X644940Y101790D01*
X646594Y102895D01*
X647699Y104549D01*
X648087Y106500D01*
Y130500D01*
X647699Y132451D01*
X646594Y134105D01*
X644940Y135210D01*
X642989Y135598D01*
X636989D01*
X635038Y135210D01*
X633384Y134105D01*
X632279Y132451D01*
X631891Y130500D01*
Y106500D01*
X632279Y104549D01*
X633384Y102895D01*
X635038Y101790D01*
X636930Y101414D01*
Y96506D01*
X625587Y85163D01*
X624924Y84171D01*
X624691Y83000D01*
X624691Y83000D01*
Y27500D01*
X624691Y27500D01*
X624924Y26330D01*
X625587Y25337D01*
X635692Y15232D01*
X635206Y14059D01*
X611517D01*
X592248Y33328D01*
Y46014D01*
X594140Y46390D01*
X595794Y47495D01*
X596899Y49149D01*
X597287Y51100D01*
Y75100D01*
X596899Y77051D01*
X595794Y78705D01*
X594140Y79810D01*
X592189Y80198D01*
X586189D01*
X584238Y79810D01*
X582584Y78705D01*
X581479Y77051D01*
X581091Y75100D01*
Y51100D01*
X581479Y49149D01*
X582584Y47495D01*
X584238Y46390D01*
X586130Y46014D01*
Y32061D01*
X586130Y32061D01*
X586363Y30890D01*
X587026Y29898D01*
X608087Y8837D01*
X609080Y8174D01*
X610250Y7941D01*
X944250D01*
X944250Y7941D01*
X945421Y8174D01*
X946413Y8837D01*
X1008663Y71087D01*
X1008663Y71087D01*
X1009326Y72080D01*
X1009559Y73250D01*
Y481250D01*
X1009326Y482421D01*
X1008663Y483413D01*
X1008663Y483413D01*
X953163Y538913D01*
X952171Y539576D01*
X951000Y539809D01*
D02*
G37*
G36*
X1318005Y494690D02*
X1307005D01*
X1305308Y494467D01*
X1303727Y493812D01*
X1302369Y492770D01*
X1301328Y491412D01*
X1300672Y489831D01*
X1300449Y488134D01*
Y479134D01*
X1300672Y477437D01*
X1301328Y475856D01*
X1302369Y474498D01*
X1303727Y473456D01*
X1305308Y472801D01*
X1307005Y472578D01*
X1318005D01*
X1319702Y472801D01*
X1321283Y473456D01*
X1322641Y474498D01*
X1323683Y475856D01*
X1324338Y477437D01*
X1324561Y479134D01*
Y480575D01*
X1345833D01*
Y477250D01*
X1362333D01*
Y491250D01*
X1345833D01*
Y486693D01*
X1324561D01*
Y488134D01*
X1324338Y489831D01*
X1323683Y491412D01*
X1322641Y492770D01*
X1321283Y493812D01*
X1319702Y494467D01*
X1318005Y494690D01*
D02*
G37*
G36*
X679750Y625750D02*
X585750D01*
Y581750D01*
X625690D01*
Y545750D01*
X625750Y545291D01*
Y531750D01*
X626632D01*
Y524534D01*
X625466Y523368D01*
X569034D01*
X545326Y547076D01*
X543341Y548402D01*
X541000Y548867D01*
X252250D01*
X249909Y548402D01*
X247924Y547076D01*
X225924Y525076D01*
X224598Y523091D01*
X224132Y520750D01*
Y204500D01*
X224598Y202159D01*
X225924Y200174D01*
X277882Y148216D01*
Y134197D01*
X277745Y134105D01*
X276640Y132451D01*
X276252Y130500D01*
Y106500D01*
X276640Y104549D01*
X277745Y102895D01*
X279399Y101790D01*
X281350Y101402D01*
X287350D01*
X289301Y101790D01*
X290955Y102895D01*
X292060Y104549D01*
X292448Y106500D01*
Y130500D01*
X292060Y132451D01*
X290955Y134105D01*
X290117Y134664D01*
Y150750D01*
X289652Y153091D01*
X288326Y155076D01*
X236367Y207034D01*
Y518216D01*
X254784Y536632D01*
X538466D01*
X562174Y512924D01*
X564159Y511598D01*
X566500Y511133D01*
X628000D01*
X630341Y511598D01*
X632326Y512924D01*
X637076Y517674D01*
X638402Y519659D01*
X638867Y522000D01*
Y531750D01*
X639750D01*
Y545291D01*
X639810Y545750D01*
Y581750D01*
X679750D01*
Y605440D01*
X684000D01*
Y603500D01*
X712000D01*
Y609672D01*
X719250D01*
Y608000D01*
X735750D01*
Y609672D01*
X743250D01*
Y608000D01*
X759750D01*
Y609672D01*
X952061D01*
X979716Y582016D01*
X981039Y581132D01*
X982600Y580822D01*
X984161Y581132D01*
X985222Y581841D01*
X1099833D01*
X1120941Y560733D01*
Y460250D01*
X1120941Y460250D01*
X1121174Y459080D01*
X1121837Y458087D01*
X1144087Y435837D01*
X1145079Y435174D01*
X1146250Y434941D01*
X1146250Y434941D01*
X1188233D01*
X1201541Y421633D01*
Y421570D01*
X1201530Y420811D01*
X1201285Y417187D01*
X1201083Y415747D01*
X1200829Y414514D01*
X1200536Y413521D01*
X1200226Y412779D01*
X1199934Y412296D01*
X1199709Y412051D01*
X1199333Y411807D01*
X1198548Y411482D01*
X1196041Y409558D01*
X1194118Y407052D01*
X1192909Y404133D01*
X1192702Y402564D01*
X1192496Y401000D01*
X1192700Y399454D01*
X1192909Y397867D01*
X1194118Y394948D01*
X1196041Y392441D01*
X1198548Y390518D01*
X1201467Y389309D01*
X1204600Y388896D01*
X1207733Y389309D01*
X1210652Y390518D01*
X1213158Y392441D01*
X1215082Y394948D01*
X1216291Y397867D01*
X1216544Y399785D01*
D01*
X1216584Y400096D01*
X1216660Y400666D01*
X1217940D01*
X1218016Y400096D01*
X1218056Y399785D01*
D01*
X1218309Y397867D01*
X1219518Y394948D01*
X1221441Y392441D01*
X1223948Y390518D01*
X1226867Y389309D01*
X1230000Y388896D01*
X1233133Y389309D01*
X1236052Y390518D01*
X1238559Y392441D01*
X1240482Y394948D01*
X1241691Y397867D01*
X1241944Y399785D01*
D01*
X1241984Y400096D01*
X1242060Y400666D01*
X1243340D01*
X1243416Y400096D01*
X1243456Y399785D01*
D01*
X1243709Y397867D01*
X1244918Y394948D01*
X1246842Y392441D01*
X1249348Y390518D01*
X1252267Y389309D01*
X1255400Y388896D01*
X1258533Y389309D01*
X1261452Y390518D01*
X1263959Y392441D01*
X1265882Y394948D01*
X1266733Y397002D01*
X1267091Y397867D01*
Y397867D01*
X1267187Y398597D01*
X1268468D01*
X1268583Y397726D01*
Y397726D01*
X1269846Y394676D01*
X1271856Y392056D01*
X1274476Y390046D01*
X1277526Y388783D01*
X1279530Y388519D01*
Y401000D01*
Y413481D01*
X1277526Y413217D01*
X1274476Y411954D01*
X1271856Y409944D01*
X1269846Y407324D01*
X1268668Y404480D01*
X1268583Y404274D01*
X1268468Y403403D01*
X1267187D01*
X1267091Y404133D01*
Y404133D01*
D01*
X1265882Y407052D01*
X1263959Y409558D01*
X1261452Y411482D01*
X1258533Y412691D01*
X1255400Y413104D01*
X1252267Y412691D01*
X1249348Y411482D01*
X1246842Y409558D01*
X1244918Y407052D01*
X1243709Y404133D01*
X1243456Y402216D01*
D01*
X1243416Y401904D01*
X1243340Y401335D01*
X1242060D01*
X1241984Y401904D01*
X1241944Y402216D01*
D01*
X1241691Y404133D01*
X1240482Y407052D01*
X1238559Y409558D01*
X1237854Y410099D01*
X1237829Y410136D01*
X1237824Y410140D01*
X1237820Y410145D01*
X1236910Y411043D01*
X1236171Y412047D01*
X1235483Y413302D01*
X1234862Y414816D01*
X1234320Y416590D01*
X1233866Y418622D01*
X1233512Y420883D01*
X1233320Y423335D01*
X1233450Y424104D01*
X1233616Y424813D01*
X1233795Y425378D01*
X1233974Y425792D01*
X1234117Y426035D01*
X1234326Y426174D01*
X1235652Y428159D01*
X1236117Y430500D01*
X1236068Y430746D01*
X1236138Y431019D01*
X1236306Y431439D01*
X1236578Y431965D01*
X1236962Y432583D01*
X1237433Y433246D01*
X1239612Y435786D01*
X1242267Y438441D01*
X1346233D01*
X1350654Y434020D01*
X1350131Y432750D01*
X1345833D01*
Y418750D01*
X1362333D01*
Y422691D01*
X1367500D01*
Y418750D01*
X1384000D01*
Y432750D01*
X1367500D01*
Y428809D01*
X1362333D01*
Y432750D01*
X1357142D01*
Y434917D01*
X1356909Y436087D01*
X1356246Y437080D01*
X1356246Y437080D01*
X1349663Y443663D01*
X1348671Y444326D01*
X1347500Y444559D01*
X1347500Y444559D01*
X1241000D01*
X1241000Y444559D01*
X1239829Y444326D01*
X1238837Y443663D01*
X1235249Y440075D01*
X1234402Y439296D01*
X1232762Y437945D01*
X1232083Y437462D01*
X1231465Y437078D01*
X1230939Y436806D01*
X1230519Y436638D01*
X1230246Y436568D01*
X1230000Y436618D01*
X1227659Y436152D01*
X1225674Y434826D01*
X1224348Y432841D01*
X1223882Y430500D01*
X1224348Y428159D01*
X1225674Y426174D01*
X1225883Y426035D01*
X1226026Y425792D01*
X1226205Y425378D01*
X1226384Y424812D01*
X1226550Y424105D01*
X1226686Y423302D01*
X1226708Y423017D01*
X1226492Y420907D01*
X1226134Y418622D01*
X1225680Y416590D01*
X1225138Y414816D01*
X1224517Y413302D01*
X1223829Y412047D01*
X1223090Y411043D01*
X1222180Y410145D01*
X1222176Y410140D01*
X1222171Y410136D01*
X1222146Y410099D01*
X1221441Y409558D01*
X1219518Y407052D01*
X1218309Y404133D01*
X1218056Y402216D01*
D01*
X1218016Y401904D01*
X1217940Y401335D01*
X1216660D01*
X1216584Y401904D01*
X1216544Y402216D01*
D01*
X1216291Y404133D01*
X1215082Y407052D01*
X1213158Y409558D01*
X1210652Y411482D01*
X1209867Y411807D01*
X1209491Y412051D01*
X1209266Y412296D01*
X1208974Y412779D01*
X1208664Y413520D01*
X1208371Y414514D01*
X1208117Y415747D01*
X1207915Y417187D01*
X1207670Y420811D01*
X1207659Y421570D01*
Y422900D01*
X1207659Y422900D01*
X1207426Y424071D01*
X1206763Y425063D01*
X1191663Y440163D01*
X1190670Y440826D01*
X1189500Y441059D01*
X1189500Y441059D01*
X1147517D01*
X1127059Y461517D01*
Y495244D01*
Y495613D01*
X1127382Y495841D01*
X1128329Y496095D01*
X1128559Y495865D01*
X1135273Y489152D01*
X1135372Y489037D01*
X1135523Y488842D01*
X1135539Y488817D01*
X1135449Y488134D01*
Y479134D01*
X1135673Y477437D01*
X1136328Y475856D01*
X1137370Y474498D01*
X1138727Y473456D01*
X1140309Y472801D01*
X1142005Y472578D01*
X1153005D01*
X1154702Y472801D01*
X1156283Y473456D01*
X1157641Y474498D01*
X1158683Y475856D01*
X1159338Y477437D01*
X1159561Y479134D01*
Y488134D01*
X1159338Y489831D01*
X1158683Y491412D01*
X1157641Y492770D01*
X1156283Y493812D01*
X1154702Y494467D01*
X1153005Y494690D01*
X1142005D01*
X1140309Y494467D01*
X1139107Y493969D01*
X1133309Y499767D01*
Y595500D01*
X1133076Y596670D01*
X1132413Y597663D01*
X1132413Y597663D01*
X1131500Y598576D01*
Y608250D01*
X1115000D01*
Y604309D01*
X1108750D01*
Y608250D01*
X1092250D01*
Y594250D01*
X1108750D01*
Y598192D01*
X1115000D01*
Y594250D01*
X1127174D01*
X1127191Y594233D01*
Y564887D01*
X1126868Y564659D01*
X1125921Y564405D01*
X1125691Y564635D01*
X1103263Y587063D01*
X1102271Y587726D01*
X1101100Y587959D01*
X1101100Y587959D01*
X985309D01*
X956634Y616634D01*
X955311Y617518D01*
X953750Y617828D01*
X953750Y617828D01*
X759750D01*
Y622000D01*
X743250D01*
Y618059D01*
X735750D01*
Y622000D01*
X719250D01*
Y618059D01*
X712000D01*
Y621500D01*
X684000D01*
Y619560D01*
X679750D01*
Y625750D01*
D02*
G37*
G36*
X605980Y484730D02*
X583960D01*
Y471460D01*
X605980D01*
Y484730D01*
D02*
G37*
G36*
X589040Y465540D02*
X581520D01*
Y462770D01*
X589040D01*
Y465540D01*
D02*
G37*
G36*
X578980D02*
X571460D01*
Y462770D01*
X578980D01*
Y465540D01*
D02*
G37*
G36*
X423260Y470966D02*
X420919Y470501D01*
X418934Y469175D01*
X417608Y467190D01*
X417142Y464849D01*
X417608Y462508D01*
X418934Y460523D01*
X420919Y459197D01*
X423260Y458731D01*
X425601Y459197D01*
X427586Y460523D01*
X427725Y460732D01*
X427967Y460875D01*
X428382Y461054D01*
X428947Y461233D01*
X429655Y461399D01*
X430458Y461535D01*
X433795Y461790D01*
X447468D01*
X448619Y461742D01*
X450733Y461538D01*
X451554Y461398D01*
X452261Y461232D01*
X452824Y461053D01*
X453237Y460874D01*
X453482Y460728D01*
X453629Y460508D01*
X455614Y459182D01*
X457955Y458716D01*
X460296Y459182D01*
X462281Y460508D01*
X463607Y462493D01*
X464073Y464834D01*
X463607Y467175D01*
X462281Y469159D01*
X460296Y470485D01*
X457955Y470951D01*
X455614Y470485D01*
X453629Y469159D01*
X453497Y468962D01*
X453259Y468821D01*
X452841Y468643D01*
X452275Y468463D01*
X451565Y468298D01*
X450762Y468162D01*
X447425Y467908D01*
X433742D01*
X432592Y467956D01*
X430478Y468160D01*
X429655Y468299D01*
X428947Y468465D01*
X428382Y468644D01*
X427967Y468823D01*
X427725Y468966D01*
X427586Y469175D01*
X425601Y470501D01*
X423260Y470966D01*
D02*
G37*
G36*
X1362333Y471250D02*
X1345833D01*
Y457250D01*
X1362333D01*
Y471250D01*
D02*
G37*
G36*
X589040Y450230D02*
X580250D01*
X571460D01*
Y447770D01*
X580250D01*
X589040D01*
Y450230D01*
D02*
G37*
G36*
X469397Y442471D02*
X467056Y442005D01*
X465071Y440679D01*
X464932Y440470D01*
X464689Y440327D01*
X464274Y440148D01*
X463709Y439969D01*
X463002Y439803D01*
X462199Y439667D01*
X458862Y439412D01*
X396409D01*
X395258Y439460D01*
X393144Y439664D01*
X392321Y439803D01*
X391614Y439969D01*
X391049Y440148D01*
X390634Y440327D01*
X390391Y440470D01*
X390252Y440679D01*
X388267Y442005D01*
X385926Y442471D01*
X383585Y442005D01*
X381600Y440679D01*
X380274Y438694D01*
X379809Y436353D01*
X380274Y434012D01*
X381600Y432027D01*
X383585Y430701D01*
X385926Y430235D01*
X388267Y430701D01*
X390252Y432027D01*
X390391Y432236D01*
X390634Y432379D01*
X391049Y432558D01*
X391614Y432738D01*
X392321Y432903D01*
X393124Y433039D01*
X396461Y433294D01*
X458914D01*
X460065Y433246D01*
X462179Y433042D01*
X463002Y432903D01*
X463709Y432738D01*
X464274Y432558D01*
X464689Y432379D01*
X464932Y432236D01*
X465071Y432027D01*
X467056Y430701D01*
X469397Y430235D01*
X471738Y430701D01*
X473723Y432027D01*
X475049Y434012D01*
X475514Y436353D01*
X475049Y438694D01*
X473723Y440679D01*
X471738Y442005D01*
X469397Y442471D01*
D02*
G37*
G36*
X595520Y443929D02*
Y438770D01*
X600679D01*
X600622Y439207D01*
X599963Y440798D01*
X598914Y442164D01*
X597548Y443213D01*
X595957Y443872D01*
X595520Y443929D01*
D02*
G37*
G36*
X723780Y438676D02*
Y433517D01*
X728940D01*
X728882Y433955D01*
X728223Y435546D01*
X727175Y436912D01*
X725809Y437960D01*
X724218Y438619D01*
X723780Y438676D01*
D02*
G37*
G36*
X721240D02*
X720803Y438619D01*
X719212Y437960D01*
X717846Y436912D01*
X716798Y435546D01*
X716139Y433955D01*
X716081Y433517D01*
X721240D01*
Y438676D01*
D02*
G37*
G36*
X1340667Y432750D02*
X1324167D01*
Y428809D01*
X1319000D01*
Y432750D01*
X1302500D01*
Y430053D01*
X1302250Y428809D01*
X1301079Y428576D01*
X1300087Y427913D01*
X1296587Y424413D01*
X1295924Y423420D01*
X1295691Y422250D01*
X1295691Y422250D01*
Y385767D01*
X1289733Y379809D01*
X1187767D01*
X1182259Y385317D01*
Y389000D01*
X1191200D01*
Y399356D01*
Y402645D01*
Y413000D01*
X1167200D01*
Y389000D01*
X1176141D01*
Y384050D01*
X1176141Y384050D01*
X1176374Y382879D01*
X1177037Y381887D01*
X1184337Y374587D01*
X1184337Y374587D01*
X1185329Y373924D01*
X1186500Y373691D01*
X1291000D01*
X1291000Y373691D01*
X1292171Y373924D01*
X1293163Y374587D01*
X1300913Y382337D01*
X1301576Y383330D01*
X1301809Y384500D01*
X1301809Y384500D01*
Y396772D01*
Y397002D01*
X1301960Y398210D01*
D01*
D01*
X1302015D01*
X1303079Y398210D01*
X1309480D01*
Y405750D01*
X1310750D01*
D01*
X1309480D01*
Y413290D01*
X1301960Y413290D01*
D01*
D01*
X1301809Y414497D01*
Y414727D01*
Y417536D01*
Y417766D01*
X1302500Y418750D01*
X1319000D01*
Y422691D01*
X1324167D01*
Y418750D01*
X1340667D01*
Y432750D01*
D02*
G37*
G36*
X728940Y430977D02*
X723780D01*
Y425818D01*
X724218Y425876D01*
X725809Y426535D01*
X727175Y427583D01*
X728223Y428949D01*
X728882Y430540D01*
X728940Y430977D01*
D02*
G37*
G36*
X721240D02*
X716081D01*
X716139Y430540D01*
X716798Y428949D01*
X717846Y427583D01*
X719212Y426535D01*
X720803Y425876D01*
X721240Y425818D01*
Y430977D01*
D02*
G37*
G36*
X456596Y428026D02*
X454255Y427560D01*
X452270Y426234D01*
X452060Y425919D01*
X451996Y425861D01*
X451764Y425716D01*
X451376Y425540D01*
X450831Y425360D01*
X450139Y425192D01*
X449350Y425054D01*
X446016Y424792D01*
X408400D01*
X407250Y424840D01*
X405135Y425044D01*
X404313Y425183D01*
X403605Y425349D01*
X403040Y425528D01*
X402625Y425707D01*
X402383Y425850D01*
X402243Y426059D01*
X400259Y427385D01*
X397918Y427851D01*
X395577Y427385D01*
X393592Y426059D01*
X392266Y424074D01*
X391800Y421733D01*
X392266Y419392D01*
X393592Y417407D01*
X395577Y416081D01*
X397918Y415616D01*
X400259Y416081D01*
X402243Y417407D01*
X402383Y417616D01*
X402625Y417760D01*
X403040Y417938D01*
X403605Y418117D01*
X404313Y418283D01*
X405116Y418419D01*
X408452Y418674D01*
X445523D01*
X447349Y418628D01*
X449465Y418437D01*
X450297Y418304D01*
X451013Y418147D01*
X451586Y417976D01*
X452005Y417805D01*
X452190Y417702D01*
X452270Y417582D01*
X454255Y416256D01*
X456596Y415790D01*
X458937Y416256D01*
X460922Y417582D01*
X462248Y419567D01*
X462713Y421908D01*
X462248Y424249D01*
X460922Y426234D01*
X458937Y427560D01*
X456596Y428026D01*
D02*
G37*
G36*
X1362333Y412750D02*
X1345833D01*
Y408904D01*
X1344386Y408809D01*
X1340667D01*
Y412750D01*
X1324167D01*
Y398750D01*
X1340667D01*
Y402691D01*
X1343852D01*
X1345833Y402564D01*
Y398750D01*
X1362333D01*
Y412750D01*
D02*
G37*
G36*
X1384540Y413290D02*
X1377020D01*
Y407020D01*
X1384540D01*
Y413290D01*
D02*
G37*
G36*
X1312020D02*
Y407020D01*
X1319540D01*
Y413290D01*
X1312020D01*
D02*
G37*
G36*
X1374480D02*
X1366960D01*
Y407020D01*
X1374480D01*
Y413290D01*
D02*
G37*
G36*
X1282070Y413481D02*
Y402270D01*
X1293281D01*
X1293017Y404274D01*
X1291754Y407324D01*
X1289744Y409944D01*
X1287124Y411954D01*
X1284074Y413217D01*
X1282070Y413481D01*
D02*
G37*
G36*
X1384540Y404480D02*
X1377020D01*
Y398210D01*
X1384540D01*
Y404480D01*
D02*
G37*
G36*
X1374480D02*
X1366960D01*
Y398210D01*
X1374480D01*
Y404480D01*
D02*
G37*
G36*
X1319540D02*
X1312020D01*
Y398210D01*
X1319540D01*
Y404480D01*
D02*
G37*
G36*
X1293281Y399730D02*
X1282070D01*
Y388519D01*
X1284074Y388783D01*
X1287124Y390046D01*
X1289744Y392056D01*
X1291754Y394676D01*
X1293017Y397726D01*
X1293281Y399730D01*
D02*
G37*
G36*
X285523Y381288D02*
X269023D01*
Y367288D01*
X272133D01*
Y344739D01*
X272231Y344247D01*
Y337739D01*
X282231D01*
Y344247D01*
X282329Y344739D01*
Y367288D01*
X285523D01*
Y381288D01*
D02*
G37*
G36*
X423068Y329139D02*
X420727Y328674D01*
X418742Y327347D01*
X418000Y326237D01*
X416472D01*
X416334Y326444D01*
X415730Y327347D01*
X413746Y328674D01*
X411404Y329139D01*
X409063Y328674D01*
X407079Y327347D01*
X405753Y325363D01*
X405287Y323022D01*
X405753Y320681D01*
X407079Y318696D01*
X407207Y318610D01*
X407315Y318418D01*
X407487Y317998D01*
X407659Y317425D01*
X407818Y316709D01*
X407949Y315897D01*
X408191Y312553D01*
Y135566D01*
X406399Y135210D01*
X404745Y134105D01*
X403640Y132451D01*
X403252Y130500D01*
Y106500D01*
X403640Y104549D01*
X404745Y102895D01*
X406399Y101790D01*
X408350Y101402D01*
X414350D01*
X416301Y101790D01*
X417955Y102895D01*
X418352Y103489D01*
X418691Y103997D01*
X418921Y104342D01*
X419858Y104254D01*
X420191Y104130D01*
Y103542D01*
Y99517D01*
X409187Y88513D01*
X408524Y87521D01*
X408291Y86350D01*
X408291Y86350D01*
Y80186D01*
X406399Y79810D01*
X404745Y78705D01*
X403640Y77051D01*
X403252Y75100D01*
Y51100D01*
X403640Y49149D01*
X404745Y47495D01*
X406399Y46390D01*
X408350Y46002D01*
X414350D01*
X416301Y46390D01*
X417955Y47495D01*
X419060Y49149D01*
X419448Y51100D01*
Y75100D01*
X419060Y77051D01*
X417955Y78705D01*
X416301Y79810D01*
X414409Y80186D01*
Y85083D01*
X425413Y96087D01*
X425413Y96087D01*
X426076Y97079D01*
X426309Y98250D01*
X426309Y98250D01*
Y311955D01*
D01*
X426354Y313778D01*
X426545Y315896D01*
X426677Y316728D01*
X426834Y317444D01*
X427005Y318017D01*
X427175Y318436D01*
X427276Y318617D01*
X427393Y318696D01*
X428720Y320681D01*
X429185Y323022D01*
X428720Y325363D01*
X427393Y327347D01*
X425409Y328674D01*
X423068Y329139D01*
D02*
G37*
G36*
X397905D02*
X395564Y328674D01*
X393579Y327347D01*
X392599Y325882D01*
X391160D01*
X390993Y326132D01*
X390180Y327347D01*
X388196Y328674D01*
X385855Y329139D01*
X383513Y328674D01*
X381529Y327347D01*
X380203Y325363D01*
X379737Y323022D01*
X380203Y320681D01*
X381529Y318696D01*
X381800Y318515D01*
X381821Y318491D01*
X381971Y318246D01*
X382148Y317845D01*
X382328Y317291D01*
X382495Y316592D01*
X382632Y315796D01*
X382891Y312461D01*
Y135586D01*
X380999Y135210D01*
X379345Y134105D01*
X378240Y132451D01*
X377852Y130500D01*
Y106500D01*
X378240Y104549D01*
X379345Y102895D01*
X380999Y101790D01*
X382950Y101402D01*
X388950D01*
X390901Y101790D01*
X392555Y102895D01*
X392952Y103489D01*
X393441Y104222D01*
X393660Y104549D01*
X393671Y104606D01*
X394941Y104481D01*
Y103887D01*
Y100267D01*
X383787Y89113D01*
X383124Y88121D01*
X382891Y86950D01*
X382891Y86950D01*
Y80186D01*
X380999Y79810D01*
X379345Y78705D01*
X378240Y77051D01*
X377852Y75100D01*
Y51100D01*
X378240Y49149D01*
X379345Y47495D01*
X380999Y46390D01*
X382950Y46002D01*
X388950D01*
X390901Y46390D01*
X392555Y47495D01*
X393660Y49149D01*
X394048Y51100D01*
Y75100D01*
X393660Y77051D01*
X392555Y78705D01*
X390901Y79810D01*
X389009Y80186D01*
Y85683D01*
X400163Y96837D01*
X400163Y96837D01*
X400826Y97830D01*
X401059Y99000D01*
X401059Y99000D01*
Y312578D01*
D01*
X401106Y313721D01*
X401305Y315842D01*
X401441Y316670D01*
X401604Y317385D01*
X401781Y317958D01*
X401957Y318381D01*
X402081Y318596D01*
X402230Y318696D01*
X403557Y320681D01*
X404022Y323022D01*
X403557Y325363D01*
X402230Y327347D01*
X400246Y328674D01*
X397905Y329139D01*
D02*
G37*
G36*
X272731Y327739D02*
X262731D01*
Y321232D01*
X262633Y320739D01*
Y303520D01*
X260773D01*
Y301326D01*
X260619Y301175D01*
X259503Y300461D01*
X259273Y300478D01*
D01*
X257403Y300617D01*
X256589Y300723D01*
X256056Y300827D01*
X256054Y300828D01*
X255956Y300956D01*
X254284Y302238D01*
X252338Y303044D01*
X250250Y303319D01*
X248162Y303044D01*
X246215Y302238D01*
X244544Y300956D01*
X243262Y299284D01*
X242456Y297338D01*
X242181Y295250D01*
X242456Y293162D01*
X243262Y291215D01*
X244544Y289544D01*
X246215Y288262D01*
X248162Y287456D01*
X250250Y287181D01*
X252338Y287456D01*
X254284Y288262D01*
X255956Y289544D01*
X256027Y289637D01*
X259681Y289861D01*
X259848Y289871D01*
X260773Y289001D01*
Y288833D01*
Y287020D01*
X274773D01*
Y303520D01*
X272829D01*
Y320739D01*
X272731Y321232D01*
Y327739D01*
D02*
G37*
G36*
X655000Y298868D02*
X652659Y298402D01*
X650674Y297076D01*
X649348Y295091D01*
X648883Y292750D01*
X649348Y290409D01*
X650674Y288424D01*
X650883Y288285D01*
X651027Y288042D01*
X651205Y287628D01*
X651384Y287062D01*
X651550Y286355D01*
X651686Y285552D01*
X651941Y282215D01*
Y274205D01*
X651561Y273825D01*
X650714Y273046D01*
X649075Y271695D01*
X648395Y271212D01*
X647777Y270828D01*
X647251Y270556D01*
X646831Y270389D01*
X646559Y270319D01*
X646312Y270368D01*
X643971Y269902D01*
X641986Y268576D01*
X640660Y266591D01*
X640195Y264250D01*
X640660Y261909D01*
X641986Y259924D01*
X643971Y258598D01*
X646312Y258132D01*
X648653Y258598D01*
X650638Y259924D01*
X651964Y261909D01*
X652430Y264250D01*
X652381Y264496D01*
X652451Y264769D01*
X652618Y265189D01*
X652890Y265715D01*
X653274Y266333D01*
X653745Y266996D01*
X655924Y269536D01*
X657163Y270775D01*
X657163Y270775D01*
X657826Y271767D01*
X658059Y272938D01*
X658059Y272938D01*
Y282267D01*
X658107Y283418D01*
X658311Y285532D01*
X658450Y286355D01*
X658616Y287062D01*
X658795Y287627D01*
X658974Y288042D01*
X659117Y288285D01*
X659326Y288424D01*
X660652Y290409D01*
X661117Y292750D01*
X660652Y295091D01*
X659326Y297076D01*
X657341Y298402D01*
X655000Y298868D01*
D02*
G37*
G36*
X589040Y285230D02*
X580250D01*
X571460D01*
Y282460D01*
X572000D01*
Y273000D01*
Y263000D01*
X588500D01*
Y273000D01*
Y282460D01*
X589040D01*
Y285230D01*
D02*
G37*
G36*
X291731Y327739D02*
X281731D01*
Y321232D01*
X281633Y320739D01*
Y303520D01*
X280773D01*
Y287020D01*
X283695D01*
Y263132D01*
X280773D01*
Y246632D01*
X294773D01*
Y263132D01*
X291852D01*
Y287020D01*
X294773D01*
Y303520D01*
X291829D01*
Y320739D01*
X291731Y321232D01*
Y327739D01*
D02*
G37*
G36*
X803250Y482559D02*
X773250D01*
X772079Y482326D01*
X771087Y481663D01*
X770424Y480670D01*
X770191Y479500D01*
Y249500D01*
X770424Y248329D01*
X771087Y247337D01*
X772079Y246674D01*
X773250Y246441D01*
X803250D01*
X804420Y246674D01*
X805413Y247337D01*
X806076Y248329D01*
X806309Y249500D01*
Y479500D01*
X806076Y480670D01*
X805413Y481663D01*
X804420Y482326D01*
X803250Y482559D01*
D02*
G37*
G36*
X630540Y256540D02*
X608520D01*
Y243270D01*
X630540D01*
Y256540D01*
D02*
G37*
G36*
X605980D02*
X583960D01*
Y243270D01*
X605980D01*
Y256540D01*
D02*
G37*
G36*
X274773Y263132D02*
X260773D01*
Y246632D01*
X262771D01*
Y244867D01*
X262685Y242268D01*
X262537Y240675D01*
X262455Y240165D01*
X262407Y239960D01*
X261197Y238150D01*
X260731Y235809D01*
X261197Y233468D01*
X262523Y231483D01*
X264508Y230157D01*
X266849Y229691D01*
X269190Y230157D01*
X271175Y231483D01*
X272501Y233468D01*
X272966Y235809D01*
X272501Y238150D01*
X271291Y239960D01*
X271265Y240070D01*
X270927Y245356D01*
Y246632D01*
X274773D01*
Y263132D01*
D02*
G37*
G36*
X630540Y240730D02*
X608520D01*
Y227460D01*
X630540D01*
Y240730D01*
D02*
G37*
G36*
X605980D02*
X583960D01*
Y227460D01*
X605980D01*
Y240730D01*
D02*
G37*
G36*
X75235Y524893D02*
X72894Y524427D01*
X70909Y523101D01*
X69583Y521116D01*
X69117Y518775D01*
X69583Y516434D01*
X70793Y514624D01*
D01*
X70819Y514514D01*
X71157Y509228D01*
Y323765D01*
X71157Y323765D01*
X71467Y322204D01*
X72351Y320881D01*
X153772Y239461D01*
X155428Y237673D01*
X156965Y235815D01*
X157493Y235082D01*
X157880Y234468D01*
X158112Y234016D01*
X158194Y233784D01*
X158190Y233750D01*
X158430Y231923D01*
X159136Y230220D01*
X160258Y228758D01*
X161720Y227635D01*
X163423Y226930D01*
X165250Y226690D01*
X167077Y226930D01*
X168780Y227635D01*
X170243Y228758D01*
X171364Y230220D01*
X172070Y231923D01*
X172310Y233750D01*
X172070Y235577D01*
X171364Y237280D01*
X170243Y238742D01*
X168780Y239865D01*
X167077Y240570D01*
X165250Y240810D01*
X165216Y240806D01*
X164984Y240888D01*
X164532Y241120D01*
X163918Y241507D01*
X163212Y242016D01*
X161789Y243270D01*
X159340Y245428D01*
D01*
X79313Y325454D01*
Y509717D01*
X79399Y512316D01*
X79547Y513909D01*
X79629Y514419D01*
X79677Y514624D01*
X79677D01*
X80887Y516434D01*
X81353Y518775D01*
X80887Y521116D01*
X79561Y523101D01*
X77576Y524427D01*
X75235Y524893D01*
D02*
G37*
G36*
X829172Y230756D02*
X827221Y230368D01*
X825567Y229263D01*
X824462Y227609D01*
X824074Y225658D01*
Y213158D01*
X824462Y211207D01*
X825567Y209553D01*
X827221Y208448D01*
X829172Y208060D01*
X831123Y208448D01*
X832777Y209553D01*
X833882Y211207D01*
X834270Y213158D01*
Y225658D01*
X833882Y227609D01*
X832777Y229263D01*
X831123Y230368D01*
X829172Y230756D01*
D02*
G37*
G36*
X816472D02*
X814521Y230368D01*
X812868Y229263D01*
X811762Y227609D01*
X811374Y225658D01*
Y213158D01*
X811762Y211207D01*
X812868Y209553D01*
X814521Y208448D01*
X816472Y208060D01*
X818423Y208448D01*
X820077Y209553D01*
X821182Y211207D01*
X821570Y213158D01*
Y225658D01*
X821182Y227609D01*
X820077Y229263D01*
X818423Y230368D01*
X816472Y230756D01*
D02*
G37*
G36*
X803772D02*
X801821Y230368D01*
X800167Y229263D01*
X799062Y227609D01*
X798674Y225658D01*
Y213158D01*
X799062Y211207D01*
X800167Y209553D01*
X801821Y208448D01*
X803772Y208060D01*
X805723Y208448D01*
X807377Y209553D01*
X808482Y211207D01*
X808870Y213158D01*
Y225658D01*
X808482Y227609D01*
X807377Y229263D01*
X805723Y230368D01*
X803772Y230756D01*
D02*
G37*
G36*
X791072D02*
X789121Y230368D01*
X787467Y229263D01*
X786362Y227609D01*
X785974Y225658D01*
Y213158D01*
X786362Y211207D01*
X787467Y209553D01*
X789121Y208448D01*
X791072Y208060D01*
X793023Y208448D01*
X794677Y209553D01*
X795782Y211207D01*
X796170Y213158D01*
Y225658D01*
X795782Y227609D01*
X794677Y229263D01*
X793023Y230368D01*
X791072Y230756D01*
D02*
G37*
G36*
X778372D02*
X776421Y230368D01*
X774768Y229263D01*
X773662Y227609D01*
X773274Y225658D01*
Y213158D01*
X773662Y211207D01*
X774768Y209553D01*
X776421Y208448D01*
X778372Y208060D01*
X780323Y208448D01*
X781977Y209553D01*
X783082Y211207D01*
X783470Y213158D01*
Y225658D01*
X783082Y227609D01*
X781977Y229263D01*
X780323Y230368D01*
X778372Y230756D01*
D02*
G37*
G36*
X867272D02*
X865321Y230368D01*
X863668Y229263D01*
X862562Y227609D01*
X862174Y225658D01*
Y213158D01*
X862562Y211207D01*
X863668Y209553D01*
X864214Y209188D01*
Y200908D01*
X863076Y200347D01*
X862989Y200337D01*
X862714Y200612D01*
X857631Y205695D01*
Y209188D01*
X858177Y209553D01*
X859282Y211207D01*
X859670Y213158D01*
Y225658D01*
X859282Y227609D01*
X858177Y229263D01*
X856523Y230368D01*
X854572Y230756D01*
X852621Y230368D01*
X850967Y229263D01*
X849862Y227609D01*
X849474Y225658D01*
Y213158D01*
X849862Y211207D01*
X850967Y209553D01*
X851514Y209188D01*
Y204428D01*
X851514Y204428D01*
X851746Y203257D01*
X852409Y202265D01*
X884180Y170495D01*
Y138759D01*
X878988D01*
Y134818D01*
X874100D01*
Y138759D01*
X857600D01*
Y124759D01*
X874100D01*
Y128701D01*
X878988D01*
Y124759D01*
X895488D01*
Y138759D01*
X890297D01*
Y171006D01*
Y171331D01*
X891435Y171893D01*
X891522Y171903D01*
X905568Y157856D01*
Y138759D01*
X900377D01*
Y124759D01*
X916877D01*
Y128701D01*
X921765D01*
Y124759D01*
X938265D01*
Y138759D01*
X921765D01*
Y134818D01*
X916877D01*
Y138759D01*
X911686D01*
Y159123D01*
X911686Y159123D01*
X911453Y160294D01*
X910790Y161286D01*
X870331Y201745D01*
Y209188D01*
X870877Y209553D01*
X871982Y211207D01*
X872370Y213158D01*
Y225658D01*
X871982Y227609D01*
X870877Y229263D01*
X869223Y230368D01*
X867272Y230756D01*
D02*
G37*
G36*
X791072Y172756D02*
X789121Y172368D01*
X787467Y171263D01*
X786362Y169609D01*
X785974Y167658D01*
Y164467D01*
X783470D01*
Y167658D01*
X783082Y169609D01*
X781977Y171263D01*
X780323Y172368D01*
X778372Y172756D01*
X776421Y172368D01*
X774768Y171263D01*
X773662Y169609D01*
X773274Y167658D01*
Y155158D01*
X773662Y153207D01*
X774294Y152262D01*
D01*
Y151929D01*
X774212Y149365D01*
X774068Y147767D01*
X773989Y147252D01*
X773931Y146998D01*
X772793Y145296D01*
X772328Y142955D01*
X772793Y140614D01*
X774119Y138629D01*
X776104Y137303D01*
X777082Y137109D01*
X787036Y127155D01*
X788690Y126049D01*
X790641Y125661D01*
X803300D01*
Y122509D01*
X817299D01*
Y139009D01*
X803300D01*
Y135857D01*
X792753D01*
X784292Y144318D01*
X784097Y145296D01*
X782809Y147224D01*
X782798Y147271D01*
X782720Y148460D01*
X782468Y152289D01*
X783082Y153207D01*
X783470Y155158D01*
Y158349D01*
X785974D01*
Y155158D01*
X786362Y153207D01*
X787467Y151553D01*
X789121Y150448D01*
X791072Y150060D01*
X793023Y150448D01*
X794677Y151553D01*
X795782Y153207D01*
X796170Y155158D01*
Y167658D01*
X795782Y169609D01*
X794677Y171263D01*
X793023Y172368D01*
X791072Y172756D01*
D02*
G37*
G36*
X868542Y173054D02*
Y162678D01*
X872921D01*
Y167658D01*
X872491Y169820D01*
X871266Y171652D01*
X869434Y172877D01*
X868542Y173054D01*
D02*
G37*
G36*
X805042D02*
Y162678D01*
X809421D01*
Y167658D01*
X808991Y169820D01*
X807766Y171652D01*
X805934Y172877D01*
X805042Y173054D01*
D02*
G37*
G36*
X802502Y173054D02*
X801611Y172877D01*
X799778Y171652D01*
X798554Y169820D01*
X798124Y167658D01*
Y162678D01*
X802502D01*
Y173054D01*
D02*
G37*
G36*
X866002D02*
X865111Y172877D01*
X863278Y171652D01*
X862054Y169820D01*
X861624Y167658D01*
Y162678D01*
X866002D01*
Y173054D01*
D02*
G37*
G36*
X854523Y193805D02*
X852182Y193339D01*
X850197Y192013D01*
X848871Y190029D01*
X848406Y187687D01*
X848871Y185346D01*
X850197Y183362D01*
X850444Y183197D01*
X850596Y182944D01*
X850774Y182537D01*
X850953Y181978D01*
X851120Y181274D01*
X851256Y180475D01*
X851514Y177139D01*
Y171628D01*
X850967Y171263D01*
X849862Y169609D01*
X849474Y167658D01*
Y155158D01*
X849862Y153207D01*
X850967Y151553D01*
X852621Y150448D01*
X854572Y150060D01*
X856523Y150448D01*
X858177Y151553D01*
X859282Y153207D01*
X859670Y155158D01*
Y167658D01*
X859282Y169609D01*
X858177Y171263D01*
X857631Y171628D01*
Y177221D01*
X857679Y178368D01*
X857881Y180485D01*
X858019Y181310D01*
X858184Y182023D01*
X858363Y182594D01*
X858542Y183016D01*
X858677Y183247D01*
X858849Y183362D01*
X860175Y185346D01*
X860641Y187687D01*
X860175Y190029D01*
X858849Y192013D01*
X856864Y193339D01*
X854523Y193805D01*
D02*
G37*
G36*
X841943Y186805D02*
X839602Y186339D01*
X837617Y185013D01*
X836291Y183029D01*
X835826Y180688D01*
X836291Y178346D01*
X837617Y176362D01*
X837800Y176240D01*
X837937Y176006D01*
X838115Y175586D01*
X838295Y175016D01*
X838460Y174305D01*
X838595Y173500D01*
X838741Y171579D01*
X838268Y171263D01*
X837162Y169609D01*
X836774Y167658D01*
Y155158D01*
X837162Y153207D01*
X838268Y151553D01*
X839921Y150448D01*
X841872Y150060D01*
X843823Y150448D01*
X845477Y151553D01*
X846582Y153207D01*
X846970Y155158D01*
Y167658D01*
X846582Y169609D01*
X845477Y171263D01*
X845036Y171558D01*
X845220Y173459D01*
X845360Y174279D01*
X845526Y174984D01*
X845705Y175545D01*
X845883Y175954D01*
X846033Y176204D01*
X846269Y176362D01*
X847595Y178346D01*
X848061Y180688D01*
X847595Y183029D01*
X846269Y185013D01*
X844284Y186339D01*
X841943Y186805D01*
D02*
G37*
G36*
X866002Y160138D02*
X861624D01*
Y155158D01*
X862054Y152997D01*
X863278Y151164D01*
X865111Y149939D01*
X866002Y149762D01*
Y160138D01*
D02*
G37*
G36*
X802502D02*
X798124D01*
Y155158D01*
X798554Y152997D01*
X799778Y151164D01*
X801611Y149939D01*
X802502Y149762D01*
Y160138D01*
D02*
G37*
G36*
X872921D02*
X868542D01*
Y149762D01*
X869434Y149939D01*
X871266Y151164D01*
X872491Y152997D01*
X872921Y155158D01*
Y160138D01*
D02*
G37*
G36*
X809421D02*
X805042D01*
Y149762D01*
X805934Y149939D01*
X807766Y151164D01*
X808991Y152997D01*
X809421Y155158D01*
Y160138D01*
D02*
G37*
G36*
X198500Y192310D02*
X196673Y192070D01*
X194970Y191364D01*
X193508Y190242D01*
X192386Y188780D01*
X191680Y187077D01*
X191440Y185250D01*
X191680Y183423D01*
X192386Y181720D01*
X193508Y180258D01*
X194970Y179135D01*
X196673Y178430D01*
X198500Y178190D01*
X198534Y178194D01*
X198766Y178112D01*
X199218Y177880D01*
X199832Y177493D01*
X200538Y176984D01*
X204410Y173572D01*
X216922Y161061D01*
Y134120D01*
X215652Y133735D01*
X215422Y134079D01*
D01*
X215144Y134494D01*
X213312Y135718D01*
X211150Y136149D01*
X209420D01*
Y118500D01*
Y100851D01*
X211150D01*
X213312Y101281D01*
X215144Y102506D01*
X215652Y103265D01*
X216922Y102880D01*
Y102466D01*
Y96689D01*
X205266Y85034D01*
X204382Y83711D01*
X204072Y82150D01*
X204072Y82150D01*
Y79984D01*
X203199Y79810D01*
X201545Y78705D01*
X200440Y77051D01*
X200052Y75100D01*
Y51100D01*
X200440Y49149D01*
X201545Y47495D01*
X203199Y46390D01*
X205150Y46002D01*
X211150D01*
X213101Y46390D01*
X214755Y47495D01*
X215860Y49149D01*
X216248Y51100D01*
Y75100D01*
X215860Y77051D01*
X214755Y78705D01*
X213264Y79701D01*
X213030Y80306D01*
X212910Y81143D01*
X223884Y92116D01*
X223884Y92116D01*
X224768Y93439D01*
X225078Y95000D01*
X225078Y95000D01*
Y102017D01*
Y102431D01*
X226348Y102816D01*
X226556Y102506D01*
X226556D01*
X228388Y101281D01*
X230550Y100851D01*
X232280D01*
Y118500D01*
Y136149D01*
X230550D01*
X228388Y135718D01*
X226556Y134494D01*
D01*
X226556D01*
X226348Y134184D01*
X225078Y134569D01*
Y134983D01*
Y162750D01*
X225078Y162750D01*
X224768Y164311D01*
X223884Y165634D01*
X223884Y165634D01*
X218519Y170999D01*
X209978Y179539D01*
X208322Y181327D01*
X206785Y183185D01*
X206257Y183918D01*
X205870Y184532D01*
X205639Y184984D01*
X205556Y185216D01*
X205560Y185250D01*
X205320Y187077D01*
X204615Y188780D01*
X203493Y190242D01*
X202030Y191364D01*
X200327Y192070D01*
X198500Y192310D01*
D02*
G37*
G36*
X837840Y139549D02*
X831570D01*
Y132029D01*
X837840D01*
Y139549D01*
D02*
G37*
G36*
X829030D02*
X822760D01*
Y132029D01*
X829030D01*
Y139549D01*
D02*
G37*
G36*
X449156Y345137D02*
X446815Y344672D01*
X444830Y343346D01*
X443504Y341361D01*
X443038Y339020D01*
X443504Y336679D01*
X444830Y334694D01*
X445039Y334555D01*
X445182Y334312D01*
X445361Y333897D01*
X445540Y333332D01*
X445706Y332625D01*
X445842Y331822D01*
X446097Y328485D01*
Y130550D01*
X444848Y130500D01*
X444460Y132451D01*
X443355Y134105D01*
X441701Y135210D01*
X439809Y135586D01*
Y312457D01*
X439949Y314777D01*
X440065Y315724D01*
X440211Y316554D01*
X440379Y317244D01*
X440559Y317784D01*
X440734Y318168D01*
X440878Y318394D01*
X440951Y318474D01*
X441284Y318696D01*
X442610Y320681D01*
X443075Y323022D01*
X442610Y325363D01*
X441284Y327347D01*
X439299Y328674D01*
X436958Y329139D01*
X434617Y328674D01*
X432632Y327347D01*
X431306Y325363D01*
X430840Y323022D01*
X431306Y320681D01*
X432632Y318696D01*
X432740Y318624D01*
X432835Y318452D01*
X433003Y318034D01*
X433171Y317462D01*
X433327Y316745D01*
X433455Y315930D01*
X433691Y312582D01*
Y135586D01*
X431799Y135210D01*
X430145Y134105D01*
X429040Y132451D01*
X428652Y130500D01*
Y106500D01*
X429040Y104549D01*
X430145Y102895D01*
X431799Y101790D01*
X433750Y101402D01*
X439750D01*
X441701Y101790D01*
X443355Y102895D01*
X444460Y104549D01*
X444541Y104958D01*
X444597Y105239D01*
X444848Y106500D01*
X446097Y106450D01*
Y105091D01*
Y99673D01*
X434587Y88163D01*
X433924Y87170D01*
X433691Y86000D01*
X433691Y86000D01*
Y80186D01*
X431799Y79810D01*
X430145Y78705D01*
X429040Y77051D01*
X428652Y75100D01*
Y51100D01*
X429040Y49149D01*
X430145Y47495D01*
X431799Y46390D01*
X433750Y46002D01*
X439750D01*
X441701Y46390D01*
X443355Y47495D01*
X444460Y49149D01*
X444848Y51100D01*
Y75100D01*
X444460Y77051D01*
X443355Y78705D01*
X441701Y79810D01*
X439809Y80186D01*
Y84733D01*
D01*
X451319Y96243D01*
X451319Y96243D01*
X451982Y97235D01*
X452215Y98406D01*
X452215Y98406D01*
Y328537D01*
D01*
X452263Y329688D01*
X452467Y331802D01*
X452606Y332625D01*
X452771Y333332D01*
X452951Y333897D01*
X453130Y334312D01*
X453273Y334555D01*
X453482Y334694D01*
X454808Y336679D01*
X455273Y339020D01*
X454808Y341361D01*
X453482Y343346D01*
X451497Y344672D01*
X449156Y345137D01*
D02*
G37*
G36*
X837840Y129489D02*
X831570D01*
Y121969D01*
X837840D01*
Y129489D01*
D02*
G37*
G36*
X829030D02*
X822760D01*
Y121969D01*
X829030D01*
Y129489D01*
D02*
G37*
G36*
X261950Y136149D02*
X260220D01*
Y119770D01*
X267598D01*
Y130500D01*
X267169Y132662D01*
X265944Y134494D01*
X264112Y135718D01*
X261950Y136149D01*
D02*
G37*
G36*
X257680D02*
X255950D01*
X253788Y135718D01*
X251956Y134494D01*
X250732Y132662D01*
X250301Y130500D01*
Y119770D01*
X257680D01*
Y136149D01*
D02*
G37*
G36*
X236550D02*
X234820D01*
Y119770D01*
X242199D01*
Y130500D01*
X241769Y132662D01*
X240544Y134494D01*
X238712Y135718D01*
X236550Y136149D01*
D02*
G37*
G36*
X206880D02*
X205150D01*
X202988Y135718D01*
X201156Y134494D01*
X199932Y132662D01*
X199501Y130500D01*
Y119770D01*
X206880D01*
Y136149D01*
D02*
G37*
G36*
X916877Y118759D02*
X900377D01*
Y114818D01*
X895488D01*
Y118759D01*
X878988D01*
Y104759D01*
X882796D01*
X883646Y103489D01*
X883634Y103438D01*
X883578Y103259D01*
X883455Y102873D01*
X883276Y102458D01*
X883133Y102215D01*
X882924Y102076D01*
X881598Y100091D01*
X881133Y97750D01*
X881598Y95409D01*
X882924Y93424D01*
X884909Y92098D01*
X887250Y91632D01*
X889591Y92098D01*
X891576Y93424D01*
X892902Y95409D01*
X893367Y97750D01*
X892902Y100091D01*
X891576Y102076D01*
X891367Y102215D01*
X891224Y102458D01*
X891045Y102872D01*
X891030Y102921D01*
X890922Y103259D01*
D01*
X890866Y103438D01*
X890854Y103489D01*
X891704Y104759D01*
X895488D01*
Y108700D01*
X900377D01*
Y104759D01*
X916877D01*
Y118759D01*
D02*
G37*
G36*
X874100D02*
X857600D01*
Y114299D01*
X812740D01*
X811590Y114348D01*
X809475Y114551D01*
X808653Y114691D01*
X807945Y114856D01*
X807380Y115035D01*
X806965Y115214D01*
X806723Y115357D01*
X806583Y115566D01*
X804599Y116892D01*
X802258Y117358D01*
X799917Y116892D01*
X797932Y115566D01*
X796606Y113582D01*
X796140Y111241D01*
X796606Y108899D01*
X797932Y106915D01*
X799917Y105589D01*
X802258Y105123D01*
X804599Y105589D01*
X806583Y106915D01*
X806723Y107124D01*
X806965Y107267D01*
X807380Y107445D01*
X807945Y107625D01*
X808653Y107790D01*
X809456Y107926D01*
X812793Y108182D01*
X857600D01*
Y104759D01*
X874100D01*
Y118759D01*
D02*
G37*
G36*
X938265D02*
X921765D01*
Y104759D01*
X938265D01*
Y106300D01*
Y106535D01*
X939535Y107650D01*
X939711Y107643D01*
X939765Y107638D01*
X941825Y107439D01*
X942648Y107300D01*
X943356Y107134D01*
X943921Y106955D01*
X944336Y106776D01*
X944578Y106633D01*
X944718Y106424D01*
X946702Y105098D01*
X949043Y104632D01*
X951385Y105098D01*
X953369Y106424D01*
X954695Y108409D01*
X955161Y110750D01*
X954695Y113091D01*
X953369Y115076D01*
X951385Y116402D01*
X949043Y116867D01*
X946702Y116402D01*
X944718Y115076D01*
X944578Y114867D01*
X944336Y114723D01*
X943921Y114545D01*
X943356Y114365D01*
X942648Y114200D01*
X941845Y114064D01*
X939535Y113887D01*
X938265Y115001D01*
Y115239D01*
Y118759D01*
D02*
G37*
G36*
X267598Y117230D02*
X260220D01*
Y100851D01*
X261950D01*
X264112Y101281D01*
X265944Y102506D01*
X267169Y104338D01*
X267598Y106500D01*
Y117230D01*
D02*
G37*
G36*
X257680D02*
X250301D01*
Y106500D01*
X250732Y104338D01*
X251956Y102506D01*
X253788Y101281D01*
X255950Y100851D01*
X257680D01*
Y117230D01*
D02*
G37*
G36*
X242199D02*
X234820D01*
Y100851D01*
X236550D01*
X238712Y101281D01*
X240544Y102506D01*
X241769Y104338D01*
X242199Y106500D01*
Y117230D01*
D02*
G37*
G36*
X206880D02*
X199501D01*
Y106500D01*
X199932Y104338D01*
X201156Y102506D01*
X202988Y101281D01*
X205150Y100851D01*
X206880D01*
Y117230D01*
D02*
G37*
G36*
X233500Y96819D02*
X231412Y96544D01*
X229466Y95738D01*
X227794Y94456D01*
X226512Y92785D01*
X225706Y90838D01*
X225431Y88750D01*
X225706Y86662D01*
X226512Y84715D01*
X227794Y83044D01*
X229155Y82000D01*
D01*
X229398Y81814D01*
X229420Y81519D01*
X229228Y80486D01*
X228856Y80412D01*
X228388Y80319D01*
X226556Y79094D01*
X225331Y77262D01*
X224902Y75100D01*
Y64370D01*
X242199D01*
Y75100D01*
X241769Y77262D01*
X240544Y79094D01*
X238712Y80319D01*
X237804Y80499D01*
X237600Y81453D01*
X237623Y81830D01*
X239206Y83044D01*
X239267Y83125D01*
X239433Y83257D01*
X239849Y83478D01*
X240516Y83728D01*
X241419Y83970D01*
X242480Y84176D01*
X248862Y84672D01*
X278311D01*
X280272Y82711D01*
Y79984D01*
X279399Y79810D01*
X277745Y78705D01*
X276640Y77051D01*
X276252Y75100D01*
Y51100D01*
X276640Y49149D01*
X277745Y47495D01*
X279399Y46390D01*
X281350Y46002D01*
X287350D01*
X289301Y46390D01*
X290955Y47495D01*
X292060Y49149D01*
X292448Y51100D01*
Y75100D01*
X292060Y77051D01*
X290955Y78705D01*
X289301Y79810D01*
X288428Y79984D01*
Y84400D01*
X288118Y85961D01*
X287234Y87284D01*
X287234Y87284D01*
X282884Y91634D01*
X281561Y92518D01*
X280000Y92828D01*
X280000Y92828D01*
X249344D01*
X247134Y92875D01*
X243853Y93130D01*
X242541Y93312D01*
X241419Y93530D01*
X240516Y93772D01*
X239849Y94022D01*
X239433Y94243D01*
X239267Y94375D01*
X239206Y94456D01*
X237535Y95738D01*
X235588Y96544D01*
X233500Y96819D01*
D02*
G37*
G36*
X242199Y61830D02*
X234820D01*
Y45451D01*
X236550D01*
X238712Y45882D01*
X240544Y47106D01*
X241769Y48938D01*
X242199Y51100D01*
Y61830D01*
D02*
G37*
G36*
X232280D02*
X224902D01*
Y51100D01*
X225331Y48938D01*
X226556Y47106D01*
X228388Y45882D01*
X230550Y45451D01*
X232280D01*
Y61830D01*
D02*
G37*
%LPD*%
G36*
X1138665Y623578D02*
X1139175Y623299D01*
X1139798Y623053D01*
X1140533Y622840D01*
X1141380Y622660D01*
X1142340Y622513D01*
X1144595Y622316D01*
X1147299Y622250D01*
X1147429Y620250D01*
X1146028Y620232D01*
X1142505Y619952D01*
X1141558Y619784D01*
X1140725Y619579D01*
X1140005Y619336D01*
X1139398Y619056D01*
X1138905Y618739D01*
X1138526Y618384D01*
X1135500Y621260D01*
X1132474Y618384D01*
X1132094Y618739D01*
X1131601Y619056D01*
X1130995Y619336D01*
X1130275Y619579D01*
X1129442Y619784D01*
X1128494Y619952D01*
X1124972Y620232D01*
X1123571Y620250D01*
X1123700Y622250D01*
X1126405Y622316D01*
X1128660Y622513D01*
X1129619Y622660D01*
X1130467Y622840D01*
X1131202Y623053D01*
X1131824Y623299D01*
X1132335Y623578D01*
X1132734Y623889D01*
X1135500Y621260D01*
X1138266Y623889D01*
X1138665Y623578D01*
D02*
G37*
G36*
X1148515Y544256D02*
X1148545Y543911D01*
X1148595Y543606D01*
X1148665Y543343D01*
X1148755Y543119D01*
X1148865Y542937D01*
X1148995Y542794D01*
X1149145Y542693D01*
X1149315Y542632D01*
X1149505Y542612D01*
X1145505D01*
X1145695Y542632D01*
X1145865Y542693D01*
X1146015Y542794D01*
X1146145Y542937D01*
X1146255Y543119D01*
X1146345Y543343D01*
X1146415Y543606D01*
X1146465Y543911D01*
X1146495Y544256D01*
X1146505Y544642D01*
X1148505D01*
X1148515Y544256D01*
D02*
G37*
G36*
X174955Y299625D02*
X174755Y299072D01*
X174578Y298307D01*
X174424Y297332D01*
X174189Y294748D01*
X174012Y289289D01*
X174000Y287047D01*
X168000Y286964D01*
X167988Y289205D01*
X167402Y298214D01*
X167219Y298976D01*
X167012Y299527D01*
X166780Y299866D01*
X175179Y299967D01*
X174955Y299625D01*
D02*
G37*
G36*
X174012Y277205D02*
X174588Y268191D01*
X174768Y267428D01*
X174972Y266876D01*
X175200Y266535D01*
X166800D01*
X167028Y266876D01*
X167232Y267428D01*
X167412Y268191D01*
X167568Y269165D01*
X167808Y271747D01*
X167988Y277205D01*
X168000Y279446D01*
X174000D01*
X174012Y277205D01*
D02*
G37*
G36*
X212801Y246016D02*
X212649Y245789D01*
X212512Y245421D01*
X212392Y244912D01*
X212288Y244262D01*
X212128Y242541D01*
X212008Y238903D01*
X212000Y237409D01*
X208000Y237411D01*
X207992Y238905D01*
X207608Y244915D01*
X207488Y245424D01*
X207353Y245791D01*
X207201Y246019D01*
X212801Y246016D01*
D02*
G37*
G36*
X457576Y506749D02*
X457556Y506939D01*
X457495Y507109D01*
X457393Y507259D01*
X457251Y507389D01*
X457068Y507499D01*
X456845Y507589D01*
X456581Y507659D01*
X456276Y507709D01*
X455931Y507739D01*
X455546Y507749D01*
Y509749D01*
X455931Y509759D01*
X456276Y509789D01*
X456581Y509839D01*
X456845Y509909D01*
X457068Y509999D01*
X457251Y510109D01*
X457393Y510239D01*
X457495Y510389D01*
X457556Y510559D01*
X457576Y510749D01*
Y506749D01*
D02*
G37*
G36*
X436103Y497938D02*
X435129Y496939D01*
X432825Y494253D01*
X432263Y493462D01*
X431804Y492724D01*
X431449Y492037D01*
X431196Y491402D01*
X431046Y490820D01*
X431000Y490290D01*
X427040Y494250D01*
X427570Y494296D01*
X428153Y494446D01*
X428787Y494698D01*
X429473Y495054D01*
X430212Y495513D01*
X431003Y496075D01*
X432742Y497508D01*
X433689Y498378D01*
X434688Y499353D01*
X436103Y497938D01*
D02*
G37*
G36*
X941794Y532637D02*
X944554Y530280D01*
X945097Y529922D01*
X945581Y529657D01*
X946006Y529484D01*
X946373Y529403D01*
X946680Y529415D01*
X943585Y526320D01*
X943597Y526627D01*
X943516Y526994D01*
X943343Y527419D01*
X943078Y527903D01*
X942720Y528446D01*
X942270Y529047D01*
X941091Y530427D01*
X939543Y532043D01*
X940957Y533457D01*
X941794Y532637D01*
D02*
G37*
G36*
X928826Y528846D02*
X931124Y526830D01*
X931425Y526634D01*
X931673Y526507D01*
X931867Y526450D01*
X932009Y526462D01*
X929789Y524241D01*
X929800Y524383D01*
X929743Y524577D01*
X929616Y524825D01*
X929420Y525126D01*
X929155Y525479D01*
X928418Y526346D01*
X926793Y528043D01*
X928207Y529457D01*
X928826Y528846D01*
D02*
G37*
G36*
X1001606Y481818D02*
X1000871Y480782D01*
X998530Y481248D01*
X996189Y480782D01*
X995079Y480040D01*
X993809Y480719D01*
Y482250D01*
X993809Y482250D01*
X993576Y483420D01*
X992913Y484413D01*
X961163Y516163D01*
X960171Y516826D01*
X959000Y517059D01*
X959000Y517059D01*
X938068D01*
X937683Y518329D01*
X937826Y518424D01*
X939152Y520409D01*
X939618Y522750D01*
X939152Y525091D01*
X937826Y527076D01*
X935841Y528402D01*
X935744Y528421D01*
X935869Y529691D01*
X938972D01*
X939578Y529059D01*
X940676Y527773D01*
X941051Y527272D01*
X941330Y526849D01*
X941499Y526541D01*
X941548Y526420D01*
X941547Y526399D01*
X941553Y526360D01*
X941383Y525500D01*
X941848Y523159D01*
X943174Y521174D01*
X945159Y519848D01*
X947500Y519383D01*
X949841Y519848D01*
X951826Y521174D01*
X953152Y523159D01*
X953617Y525500D01*
X953152Y527841D01*
X951826Y529826D01*
X949841Y531152D01*
X947500Y531618D01*
X946640Y531446D01*
X946601Y531453D01*
X946580Y531452D01*
X946459Y531501D01*
X946151Y531670D01*
X945782Y531913D01*
X945095Y532500D01*
X945535Y533691D01*
X949733D01*
X1001606Y481818D01*
D02*
G37*
G36*
X926903Y524978D02*
X927561Y524206D01*
X927649Y524089D01*
X927383Y522750D01*
X927848Y520409D01*
X929174Y518424D01*
X929317Y518329D01*
X928932Y517059D01*
X755853D01*
X755367Y518232D01*
X762826Y525691D01*
X926221D01*
X926903Y524978D01*
D02*
G37*
G36*
X908667Y502138D02*
X911047Y500067D01*
X911264Y499946D01*
X911431Y499889D01*
X911546Y499896D01*
X909488Y497839D01*
X909496Y497954D01*
X909439Y498120D01*
X909318Y498338D01*
X909133Y498606D01*
X908884Y498926D01*
X908193Y499719D01*
X906677Y501293D01*
X908092Y502707D01*
X908667Y502138D01*
D02*
G37*
G36*
X958882Y488043D02*
X958256Y486872D01*
X957683Y486986D01*
X955342Y486521D01*
X953357Y485194D01*
X952031Y483210D01*
X951565Y480869D01*
X952031Y478527D01*
X953357Y476543D01*
X955342Y475217D01*
X957683Y474751D01*
X957929Y474800D01*
X958202Y474730D01*
X958622Y474563D01*
X959148Y474290D01*
X959766Y473907D01*
X960429Y473435D01*
X962969Y471257D01*
X979191Y455034D01*
Y448044D01*
X978018Y447558D01*
X942544Y483031D01*
X941003Y484779D01*
X940430Y485521D01*
X939965Y486199D01*
X939622Y486784D01*
X939396Y487263D01*
X939279Y487614D01*
X939245Y487816D01*
X939255Y488114D01*
X939251Y488135D01*
X939379Y488779D01*
X938913Y491120D01*
X937587Y493105D01*
X935603Y494431D01*
X933261Y494896D01*
X930920Y494431D01*
X928936Y493105D01*
X927610Y491120D01*
X927144Y488779D01*
X927610Y486438D01*
X928936Y484453D01*
X930920Y483127D01*
X933139Y482686D01*
X933253Y482647D01*
X933637Y482461D01*
X934143Y482159D01*
X934701Y481774D01*
X937954Y478970D01*
X975191Y441733D01*
Y424122D01*
X974018Y423636D01*
X899886Y497768D01*
X900372Y498941D01*
X906111D01*
X906689Y498341D01*
X907309Y497629D01*
X907311Y497626D01*
X907034Y496233D01*
X907500Y493892D01*
X908826Y491907D01*
X910811Y490581D01*
X913152Y490115D01*
X915493Y490581D01*
X917477Y491907D01*
X918804Y493892D01*
X919269Y496233D01*
X918804Y498574D01*
X917477Y500559D01*
X915812Y501671D01*
X916195Y502941D01*
X943983D01*
X958882Y488043D01*
D02*
G37*
G36*
X937200Y487678D02*
X937295Y487118D01*
X937500Y486503D01*
X937816Y485832D01*
X938243Y485104D01*
X938781Y484320D01*
X939430Y483480D01*
X941060Y481631D01*
X942041Y480623D01*
X940421Y479415D01*
X939399Y480417D01*
X935949Y483391D01*
X935245Y483876D01*
X934605Y484258D01*
X934029Y484536D01*
X933517Y484712D01*
X933068Y484783D01*
X937216Y488180D01*
X937200Y487678D01*
D02*
G37*
G36*
X673885Y477834D02*
X673602Y478103D01*
X673188Y478344D01*
X672645Y478556D01*
X671971Y478740D01*
X671166Y478896D01*
X670231Y479023D01*
X667970Y479193D01*
X665188Y479250D01*
X665578Y482250D01*
X667055Y482260D01*
X672440Y482598D01*
X673117Y482723D01*
X673660Y482868D01*
X674070Y483032D01*
X674346Y483216D01*
X673885Y477834D01*
D02*
G37*
G36*
X969418Y483272D02*
X972103Y480967D01*
X972894Y480404D01*
X973633Y479944D01*
X974320Y479586D01*
X974955Y479332D01*
X975538Y479179D01*
X976070Y479130D01*
X972085Y475195D01*
X972042Y475724D01*
X971895Y476306D01*
X971644Y476939D01*
X971290Y477625D01*
X970833Y478364D01*
X970272Y479155D01*
X968841Y480893D01*
X967970Y481841D01*
X966995Y482841D01*
X968419Y484246D01*
X969418Y483272D01*
D02*
G37*
G36*
X961729Y480299D02*
X961879Y479716D01*
X962131Y479082D01*
X962487Y478395D01*
X962946Y477656D01*
X963508Y476865D01*
X964940Y475127D01*
X965811Y474180D01*
X966785Y473180D01*
X965371Y471766D01*
X964372Y472740D01*
X961686Y475044D01*
X960895Y475606D01*
X960156Y476064D01*
X959470Y476420D01*
X958835Y476673D01*
X958253Y476822D01*
X957723Y476869D01*
X961683Y480829D01*
X961729Y480299D01*
D02*
G37*
G36*
X899546Y477930D02*
X899696Y477348D01*
X899949Y476713D01*
X900304Y476026D01*
X900763Y475288D01*
X901325Y474497D01*
X902757Y472758D01*
X903628Y471811D01*
X904603Y470812D01*
X903188Y469397D01*
X902189Y470372D01*
X899503Y472675D01*
X898712Y473237D01*
X897973Y473696D01*
X897287Y474052D01*
X896653Y474304D01*
X896070Y474454D01*
X895540Y474500D01*
X899500Y478460D01*
X899546Y477930D01*
D02*
G37*
G36*
X657486Y467360D02*
X657193Y467624D01*
X656772Y467860D01*
X656221Y468069D01*
X655541Y468249D01*
X654731Y468402D01*
X653793Y468527D01*
X651528Y468694D01*
X648747Y468750D01*
X649036Y471750D01*
X650506Y471761D01*
X655891Y472131D01*
X656574Y472269D01*
X657127Y472428D01*
X657549Y472607D01*
X657840Y472809D01*
X657486Y467360D01*
D02*
G37*
G36*
X663754Y472448D02*
X664198Y472227D01*
X664768Y472032D01*
X665464Y471863D01*
X666286Y471720D01*
X668309Y471512D01*
X670835Y471408D01*
X672288Y471395D01*
Y468395D01*
X670835Y468382D01*
X666286Y468070D01*
X665464Y467927D01*
X664768Y467758D01*
X664198Y467563D01*
X663754Y467342D01*
X663436Y467095D01*
Y472695D01*
X663754Y472448D01*
D02*
G37*
G36*
X683206Y466036D02*
X680337Y463168D01*
X679843Y462428D01*
X631974Y414559D01*
X625544D01*
X625058Y415732D01*
X645751Y436425D01*
X646598Y437204D01*
X648238Y438555D01*
X648917Y439038D01*
X649535Y439422D01*
X650061Y439694D01*
X650481Y439861D01*
X650754Y439931D01*
X651000Y439883D01*
X653341Y440348D01*
X655326Y441674D01*
X656652Y443659D01*
X657117Y446000D01*
X656652Y448341D01*
X655326Y450326D01*
X653341Y451652D01*
X651000Y452118D01*
X649187Y451757D01*
X648191Y452716D01*
X648175Y452752D01*
X648216Y452879D01*
X648285Y452922D01*
X648811Y453194D01*
X649231Y453362D01*
X649504Y453432D01*
X649750Y453382D01*
X652091Y453848D01*
X654076Y455174D01*
X655402Y457159D01*
X655867Y459500D01*
X655402Y461841D01*
X654076Y463826D01*
X652091Y465152D01*
X650854Y465398D01*
X650991Y466665D01*
X651433Y466657D01*
X653583Y466498D01*
X654407Y466388D01*
X655089Y466260D01*
X655596Y466125D01*
X655907Y466007D01*
X655994Y465958D01*
X656254Y465569D01*
X658239Y464243D01*
X660580Y463777D01*
X662921Y464243D01*
X664905Y465569D01*
X664974Y465671D01*
X664986Y465677D01*
X665340Y465798D01*
X665880Y465929D01*
X666531Y466043D01*
X670667Y466326D01*
X680395D01*
X681760Y466598D01*
X682396Y467023D01*
X683206Y466036D01*
D02*
G37*
G36*
X1000988Y471866D02*
X1000682Y471348D01*
X1000412Y470721D01*
X1000178Y469984D01*
X999980Y469137D01*
X999818Y468181D01*
X999602Y465938D01*
X999548Y464653D01*
X999530Y463257D01*
X997530D01*
X997512Y464653D01*
X997242Y468181D01*
X997080Y469137D01*
X996882Y469984D01*
X996648Y470721D01*
X996378Y471348D01*
X996072Y471866D01*
X995730Y472273D01*
X1001330D01*
X1000988Y471866D01*
D02*
G37*
G36*
X649710Y455500D02*
X649180Y455454D01*
X648598Y455304D01*
X647963Y455051D01*
X647277Y454696D01*
X646538Y454237D01*
X645747Y453675D01*
X644008Y452243D01*
X643061Y451371D01*
X642062Y450397D01*
X640647Y451812D01*
X641621Y452811D01*
X643925Y455497D01*
X644487Y456288D01*
X644946Y457026D01*
X645302Y457713D01*
X645554Y458348D01*
X645704Y458930D01*
X645750Y459460D01*
X649710Y455500D01*
D02*
G37*
G36*
X650960Y442000D02*
X650430Y441954D01*
X649847Y441804D01*
X649213Y441552D01*
X648527Y441196D01*
X647788Y440737D01*
X646997Y440175D01*
X645258Y438742D01*
X644311Y437872D01*
X643312Y436897D01*
X641897Y438312D01*
X642871Y439311D01*
X645175Y441997D01*
X645737Y442788D01*
X646196Y443526D01*
X646552Y444213D01*
X646804Y444847D01*
X646954Y445430D01*
X647000Y445960D01*
X650960Y442000D01*
D02*
G37*
G36*
X533403Y429391D02*
X533755Y429204D01*
X534197Y429039D01*
X534730Y428896D01*
X535353Y428775D01*
X536067Y428676D01*
X537766Y428544D01*
X539828Y428500D01*
Y426500D01*
X538752Y426489D01*
X535353Y426225D01*
X534730Y426104D01*
X534197Y425961D01*
X533755Y425796D01*
X533403Y425609D01*
X533142Y425400D01*
Y429600D01*
X533403Y429391D01*
D02*
G37*
G36*
X646415Y449937D02*
X645348Y448341D01*
X644883Y446000D01*
X644931Y445754D01*
X644862Y445481D01*
X644694Y445061D01*
X644422Y444535D01*
X644038Y443917D01*
X643567Y443254D01*
X641388Y440714D01*
X620233Y419559D01*
X615794D01*
X615308Y420732D01*
X644501Y449925D01*
X645348Y450704D01*
X645463Y450798D01*
X646415Y449937D01*
D02*
G37*
G36*
X971191Y417812D02*
Y408794D01*
X970018Y408308D01*
X905075Y473251D01*
X904296Y474098D01*
X902945Y475738D01*
X902462Y476417D01*
X902078Y477035D01*
X901806Y477561D01*
X901638Y477981D01*
X901569Y478254D01*
X901618Y478500D01*
X901152Y480841D01*
X899826Y482826D01*
X897841Y484152D01*
X895500Y484618D01*
X893159Y484152D01*
X891174Y482826D01*
X889848Y480841D01*
X889382Y478500D01*
X889848Y476159D01*
X891174Y474174D01*
X893159Y472848D01*
X895500Y472383D01*
X895747Y472431D01*
X896019Y472361D01*
X896439Y472194D01*
X896965Y471922D01*
X897583Y471538D01*
X898246Y471067D01*
X900786Y468888D01*
X967191Y402483D01*
Y397794D01*
X966018Y397308D01*
X869558Y493768D01*
X870044Y494941D01*
X894061D01*
X971191Y417812D01*
D02*
G37*
G36*
X546819Y414863D02*
X546934Y414483D01*
X547128Y414054D01*
X547402Y413576D01*
X547756Y413050D01*
X548190Y412475D01*
X549297Y411180D01*
X550724Y409690D01*
X549297Y408289D01*
X548528Y409042D01*
X545938Y411261D01*
X545412Y411617D01*
X544934Y411895D01*
X544504Y412092D01*
X544123Y412211D01*
X543790Y412250D01*
X546785Y415195D01*
X546819Y414863D01*
D02*
G37*
G36*
X539537Y409638D02*
X539653Y409257D01*
X539849Y408828D01*
X540124Y408350D01*
X540480Y407823D01*
X540914Y407249D01*
X542023Y405954D01*
X543450Y404464D01*
X542035Y403050D01*
X541267Y403803D01*
X538676Y406020D01*
X538150Y406376D01*
X537672Y406651D01*
X537243Y406847D01*
X536862Y406963D01*
X536530Y407000D01*
X539500Y409970D01*
X539537Y409638D01*
D02*
G37*
G36*
X535537Y401638D02*
X535653Y401257D01*
X535849Y400828D01*
X536124Y400350D01*
X536480Y399823D01*
X536914Y399249D01*
X538023Y397954D01*
X539450Y396465D01*
X538036Y395050D01*
X537267Y395803D01*
X534677Y398020D01*
X534150Y398376D01*
X533672Y398651D01*
X533243Y398847D01*
X532862Y398963D01*
X532530Y399000D01*
X535500Y401970D01*
X535537Y401638D01*
D02*
G37*
G36*
X525287Y395638D02*
X525403Y395257D01*
X525599Y394828D01*
X525874Y394350D01*
X526230Y393824D01*
X526664Y393249D01*
X527773Y391954D01*
X529200Y390465D01*
X527785Y389050D01*
X527017Y389804D01*
X524426Y392020D01*
X523900Y392376D01*
X523422Y392651D01*
X522993Y392847D01*
X522612Y392963D01*
X522280Y393000D01*
X525250Y395970D01*
X525287Y395638D01*
D02*
G37*
G36*
X544248Y382792D02*
X544504Y382730D01*
X544869Y382677D01*
X545928Y382590D01*
X549356Y382504D01*
X550486Y382500D01*
X551250Y380500D01*
X550163Y380487D01*
X547514Y380298D01*
X546834Y380184D01*
X546258Y380044D01*
X545783Y379880D01*
X545410Y379690D01*
X545139Y379475D01*
X544970Y379234D01*
X544102Y382860D01*
X544248Y382792D01*
D02*
G37*
G36*
X479838Y376818D02*
X479493Y377185D01*
X479031Y377514D01*
X478450Y377803D01*
X477752Y378055D01*
X476935Y378267D01*
X476000Y378441D01*
X474947Y378576D01*
X472487Y378731D01*
X471080Y378750D01*
X471370Y380750D01*
X472800Y380764D01*
X477343Y381101D01*
X478183Y381256D01*
X478906Y381439D01*
X479510Y381650D01*
X479997Y381889D01*
X480366Y382156D01*
X479838Y376818D01*
D02*
G37*
G36*
X554707Y375793D02*
X552284Y373119D01*
X550619Y374784D01*
X550677Y374795D01*
X550783Y374858D01*
X550934Y374972D01*
X551377Y375354D01*
X553293Y377207D01*
X554707Y375793D01*
D02*
G37*
G36*
X534898Y378192D02*
X535008Y377626D01*
X535226Y377004D01*
X535554Y376328D01*
X535990Y375596D01*
X536534Y374810D01*
X537188Y373968D01*
X538821Y372121D01*
X539800Y371114D01*
X538241Y369845D01*
X537226Y370838D01*
X534542Y373199D01*
X533766Y373780D01*
X533050Y374258D01*
X532394Y374633D01*
X531797Y374906D01*
X531260Y375075D01*
X530783Y375142D01*
X534896Y378704D01*
X534898Y378192D01*
D02*
G37*
G36*
X660670Y375044D02*
X660676Y373924D01*
X661015Y369007D01*
X661106Y368721D01*
X661209Y368540D01*
X657421Y369226D01*
X657658Y369418D01*
X657871Y369709D01*
X658058Y370099D01*
X658221Y370588D01*
X658358Y371177D01*
X658470Y371865D01*
X658620Y373539D01*
X658670Y375609D01*
X660670Y375044D01*
D02*
G37*
G36*
X474143Y366200D02*
X473736Y366542D01*
X473218Y366848D01*
X472591Y367118D01*
X471854Y367352D01*
X471007Y367550D01*
X470051Y367712D01*
X467808Y367928D01*
X466522Y367982D01*
X465127Y368000D01*
Y370000D01*
X466522Y370018D01*
X470051Y370288D01*
X471007Y370450D01*
X471854Y370648D01*
X472591Y370882D01*
X473218Y371152D01*
X473736Y371458D01*
X474143Y371800D01*
Y366200D01*
D02*
G37*
G36*
X656813Y364468D02*
X656555Y364664D01*
X656206Y364840D01*
X655765Y364994D01*
X655233Y365129D01*
X654610Y365242D01*
X653089Y365407D01*
X651202Y365490D01*
X650121Y365500D01*
X650037Y367500D01*
X651115Y367511D01*
X653797Y367681D01*
X654508Y367783D01*
X655126Y367908D01*
X655653Y368055D01*
X656087Y368225D01*
X656430Y368417D01*
X656681Y368632D01*
X656813Y364468D01*
D02*
G37*
G36*
X467668Y365893D02*
X469782Y365689D01*
X470605Y365550D01*
X471312Y365384D01*
X471488Y365329D01*
X471291Y364059D01*
X401500D01*
X401500Y364059D01*
X400330Y363826D01*
X399337Y363163D01*
X399337Y363163D01*
X369837Y333663D01*
X369174Y332671D01*
X368941Y331500D01*
X368941Y331500D01*
Y133717D01*
X367671Y133332D01*
X367155Y134105D01*
X365501Y135210D01*
X363609Y135586D01*
Y333033D01*
X396517Y365941D01*
X466517D01*
X467668Y365893D01*
D02*
G37*
G36*
X505415Y371021D02*
X508873Y368071D01*
X509586Y367591D01*
X510238Y367214D01*
X510830Y366940D01*
X511360Y366768D01*
X511831Y366700D01*
X507708Y363179D01*
X507711Y363689D01*
X507605Y364254D01*
X507390Y364874D01*
X507065Y365549D01*
X506632Y366280D01*
X506089Y367066D01*
X505436Y367907D01*
X503804Y369755D01*
X502824Y370762D01*
X504399Y372015D01*
X505415Y371021D01*
D02*
G37*
G36*
X486947Y358124D02*
X486573Y358481D01*
X486084Y358800D01*
X485481Y359081D01*
X484763Y359325D01*
X483932Y359531D01*
X482987Y359700D01*
X481927Y359831D01*
X479465Y359981D01*
X478063Y360000D01*
X478214Y362000D01*
X479625Y362016D01*
X483181Y362257D01*
X484141Y362402D01*
X484987Y362579D01*
X485721Y362788D01*
X486341Y363029D01*
X486849Y363302D01*
X487244Y363608D01*
X486947Y358124D01*
D02*
G37*
G36*
X666031Y358927D02*
X665998Y358912D01*
X665922Y358854D01*
X665803Y358751D01*
X664209Y357205D01*
X663796Y356793D01*
X662381Y358207D01*
X664717Y360583D01*
X666031Y358927D01*
D02*
G37*
G36*
X369442Y387518D02*
X334079Y352155D01*
X332809Y352681D01*
Y359483D01*
X362017Y388691D01*
X368956D01*
X369442Y387518D01*
D02*
G37*
G36*
X670443Y350838D02*
X670203Y351059D01*
X669869Y351256D01*
X669443Y351430D01*
X668923Y351581D01*
X668309Y351709D01*
X667603Y351814D01*
X665910Y351954D01*
X663845Y352000D01*
X664017Y354000D01*
X665106Y354009D01*
X668524Y354234D01*
X669144Y354338D01*
X669670Y354459D01*
X670103Y354600D01*
X670442Y354759D01*
X670687Y354938D01*
X670443Y350838D01*
D02*
G37*
G36*
X722317Y347670D02*
X721984Y347633D01*
X721604Y347517D01*
X721174Y347321D01*
X720697Y347045D01*
X720170Y346690D01*
X719595Y346255D01*
X718300Y345147D01*
X716811Y343720D01*
X715397Y345134D01*
X716150Y345903D01*
X718367Y348493D01*
X718722Y349020D01*
X718998Y349497D01*
X719194Y349927D01*
X719310Y350308D01*
X719347Y350640D01*
X722317Y347670D01*
D02*
G37*
G36*
X662822Y342104D02*
X662576Y342322D01*
X662237Y342516D01*
X661806Y342688D01*
X661282Y342837D01*
X660666Y342963D01*
X659958Y343067D01*
X658263Y343204D01*
X656199Y343250D01*
X656322Y345250D01*
X657406Y345260D01*
X660819Y345497D01*
X661441Y345606D01*
X661970Y345735D01*
X662408Y345883D01*
X662752Y346051D01*
X663005Y346239D01*
X662822Y342104D01*
D02*
G37*
G36*
X541410Y340574D02*
X541894Y340253D01*
X542493Y339970D01*
X543207Y339725D01*
X544036Y339517D01*
X544980Y339348D01*
X546038Y339216D01*
X548499Y339065D01*
X549902Y339046D01*
X549727Y337046D01*
X548312Y337030D01*
X544750Y336794D01*
X543791Y336653D01*
X542945Y336480D01*
X542214Y336276D01*
X541596Y336040D01*
X541092Y335773D01*
X540702Y335475D01*
X541041Y340933D01*
X541410Y340574D01*
D02*
G37*
G36*
X512815Y330140D02*
X512494Y329819D01*
D01*
X497837Y315163D01*
X497174Y314170D01*
X496941Y313000D01*
X496941Y313000D01*
Y130538D01*
X495687Y130500D01*
X495441Y131736D01*
D01*
X495299Y132451D01*
X494194Y134105D01*
X492540Y135210D01*
X490589Y135598D01*
X490471D01*
Y142251D01*
X490520Y143401D01*
X490723Y145515D01*
X490863Y146338D01*
X491028Y147046D01*
X491208Y147611D01*
X491386Y148026D01*
X491530Y148268D01*
X491738Y148407D01*
X493064Y150392D01*
X493530Y152733D01*
X493064Y155074D01*
X491738Y157059D01*
X489754Y158385D01*
X487413Y158851D01*
X485071Y158385D01*
X483087Y157059D01*
X481761Y155074D01*
X481295Y152733D01*
X481761Y150392D01*
X483087Y148407D01*
X483296Y148268D01*
X483439Y148026D01*
X483618Y147611D01*
X483797Y147046D01*
X483963Y146338D01*
X484099Y145535D01*
X484354Y142198D01*
Y135551D01*
X482638Y135210D01*
X480984Y134105D01*
X479879Y132451D01*
X479579Y130941D01*
X478309Y131066D01*
Y132245D01*
Y301233D01*
D01*
X504645Y327569D01*
X506388Y329112D01*
X507136Y329695D01*
X507823Y330174D01*
X508425Y330536D01*
X508927Y330783D01*
X509311Y330922D01*
X509557Y330974D01*
X509728Y330978D01*
X510177Y330888D01*
X512161Y331283D01*
X512815Y330140D01*
D02*
G37*
G36*
X611733Y328585D02*
X611326Y328927D01*
X610808Y329233D01*
X610181Y329503D01*
X609444Y329737D01*
X608597Y329935D01*
X607641Y330097D01*
X605398Y330313D01*
X604113Y330367D01*
X602717Y330385D01*
Y332385D01*
X604113Y332403D01*
X607641Y332673D01*
X608597Y332835D01*
X609444Y333033D01*
X610181Y333267D01*
X610808Y333537D01*
X611326Y333843D01*
X611733Y334185D01*
Y328585D01*
D02*
G37*
G36*
X509839Y333020D02*
X509323Y333008D01*
X508752Y332888D01*
X508127Y332662D01*
X507447Y332327D01*
X506714Y331886D01*
X505926Y331337D01*
X505084Y330681D01*
X503237Y329046D01*
X502232Y328068D01*
X500927Y329591D01*
X501914Y330601D01*
X504259Y333286D01*
X504836Y334067D01*
X505310Y334790D01*
X505681Y335456D01*
X505950Y336064D01*
X506115Y336615D01*
X506179Y337109D01*
X509839Y333020D01*
D02*
G37*
G36*
X637337Y335587D02*
X637337Y335587D01*
X638330Y334924D01*
X639500Y334691D01*
X639500Y334691D01*
X676847D01*
X677575Y333650D01*
X677534Y333421D01*
X677152Y331500D01*
X677165Y331435D01*
X677086Y331263D01*
X676895Y330931D01*
X676645Y330561D01*
X674628Y328204D01*
X670983Y324559D01*
X617874D01*
X617419Y326059D01*
X618916Y327059D01*
X620242Y329044D01*
X620708Y331385D01*
X620242Y333726D01*
X618916Y335711D01*
X616931Y337037D01*
X614590Y337502D01*
X612249Y337037D01*
X610264Y335711D01*
X610125Y335502D01*
X609882Y335358D01*
X609468Y335180D01*
X608902Y335000D01*
X608195Y334835D01*
X607392Y334699D01*
X604055Y334444D01*
X603132D01*
X598705Y338870D01*
X597713Y339534D01*
X596543Y339766D01*
X596542Y339766D01*
X589040D01*
Y340230D01*
X580250D01*
Y342770D01*
X589040D01*
Y343441D01*
X629483D01*
X637337Y335587D01*
D02*
G37*
G36*
X682220Y328500D02*
X681888Y328463D01*
X681507Y328347D01*
X681078Y328151D01*
X680600Y327876D01*
X680073Y327520D01*
X679499Y327086D01*
X678204Y325977D01*
X676714Y324550D01*
X675300Y325965D01*
X676053Y326733D01*
X678270Y329324D01*
X678626Y329850D01*
X678901Y330328D01*
X679097Y330757D01*
X679213Y331138D01*
X679250Y331470D01*
X682220Y328500D01*
D02*
G37*
G36*
X686103Y320814D02*
X685770Y320778D01*
X685390Y320661D01*
X684960Y320465D01*
X684482Y320190D01*
X683956Y319835D01*
X683381Y319400D01*
X682086Y318291D01*
X680597Y316864D01*
X679183Y318279D01*
X679936Y319048D01*
X682153Y321638D01*
X682508Y322164D01*
X682784Y322642D01*
X682980Y323071D01*
X683096Y323452D01*
X683133Y323784D01*
X686103Y320814D01*
D02*
G37*
G36*
X555312Y322880D02*
X555399Y322485D01*
X555581Y322032D01*
X555859Y321520D01*
X556231Y320948D01*
X556699Y320318D01*
X557920Y318881D01*
X559521Y317207D01*
X558107Y315793D01*
X557241Y316641D01*
X554996Y318615D01*
X554366Y319083D01*
X553794Y319455D01*
X553282Y319733D01*
X552829Y319915D01*
X552434Y320002D01*
X552099Y319994D01*
X555320Y323215D01*
X555312Y322880D01*
D02*
G37*
G36*
X522996Y318011D02*
X523489Y317694D01*
X524096Y317414D01*
X524816Y317172D01*
X525649Y316966D01*
X526597Y316798D01*
X527657Y316668D01*
X530119Y316519D01*
X531520Y316500D01*
X531392Y314500D01*
X529984Y314484D01*
X526433Y314237D01*
X525473Y314090D01*
X524626Y313909D01*
X523891Y313696D01*
X523268Y313450D01*
X522757Y313171D01*
X522359Y312859D01*
X522616Y318365D01*
X522996Y318011D01*
D02*
G37*
G36*
X559837Y304337D02*
X559837Y304337D01*
X560830Y303674D01*
X562000Y303441D01*
X562000Y303441D01*
X572000D01*
Y300069D01*
X550000D01*
X548634Y299797D01*
X547477Y299023D01*
X528227Y279773D01*
X527453Y278616D01*
X527181Y277250D01*
Y228093D01*
X527139Y226111D01*
X526926Y223398D01*
X526776Y222317D01*
X526597Y221392D01*
X526399Y220652D01*
X526199Y220110D01*
X526028Y219780D01*
X525787Y219466D01*
X525771Y219434D01*
X524885Y218280D01*
X524180Y216577D01*
X523940Y214750D01*
X524180Y212923D01*
X524885Y211220D01*
X526008Y209757D01*
X527470Y208636D01*
X529173Y207930D01*
X531000Y207690D01*
X532827Y207930D01*
X534530Y208636D01*
X535993Y209757D01*
X536013Y209785D01*
X536236Y209891D01*
X536719Y210047D01*
X537427Y210207D01*
X538287Y210346D01*
X543437Y210672D01*
X554811D01*
X556022Y209461D01*
X557678Y207673D01*
X559215Y205815D01*
X559743Y205082D01*
X560130Y204468D01*
X560362Y204016D01*
X560444Y203784D01*
X560440Y203750D01*
X560680Y201923D01*
X561385Y200220D01*
X562508Y198757D01*
X563970Y197635D01*
X565258Y197102D01*
X565709Y195757D01*
X527732Y157780D01*
X526559Y158266D01*
Y167250D01*
X526326Y168421D01*
X525663Y169413D01*
X525663Y169413D01*
X520059Y175017D01*
Y283977D01*
X520650Y284547D01*
X521353Y285160D01*
X522750Y284883D01*
X525091Y285348D01*
X527076Y286674D01*
X528402Y288659D01*
X528867Y291000D01*
X528402Y293341D01*
X527076Y295326D01*
X525091Y296652D01*
X522750Y297118D01*
X520409Y296652D01*
X518424Y295326D01*
X517098Y293341D01*
X516632Y291000D01*
X516708Y290619D01*
X516579Y290509D01*
X515309Y291096D01*
Y294267D01*
X515357Y295418D01*
X515561Y297532D01*
X515700Y298355D01*
X515866Y299062D01*
X516045Y299627D01*
X516224Y300042D01*
X516367Y300285D01*
X516576Y300424D01*
X517902Y302409D01*
X518368Y304750D01*
X517902Y307091D01*
X516576Y309076D01*
X517251Y310096D01*
X519592Y309631D01*
X521933Y310096D01*
X523917Y311422D01*
X523979Y311515D01*
X524134Y311600D01*
X524551Y311764D01*
X525123Y311930D01*
X525841Y312083D01*
X526659Y312209D01*
X530009Y312441D01*
X551733D01*
X559837Y304337D01*
D02*
G37*
G36*
X604409Y309918D02*
X602822Y308349D01*
X602810Y308392D01*
X602750Y308480D01*
X602642Y308613D01*
X602030Y309279D01*
X600543Y310793D01*
X601957Y312207D01*
X604409Y309918D01*
D02*
G37*
G36*
X672067Y304479D02*
X671811Y304673D01*
X671463Y304846D01*
X671023Y305000D01*
X670491Y305132D01*
X669868Y305245D01*
X668347Y305408D01*
X666459Y305490D01*
X665378Y305500D01*
X665284Y307500D01*
X666362Y307511D01*
X669044Y307682D01*
X669753Y307784D01*
X670371Y307909D01*
X670897Y308057D01*
X671331Y308227D01*
X671673Y308420D01*
X671923Y308636D01*
X672067Y304479D01*
D02*
G37*
G36*
X514708Y301486D02*
X514402Y300968D01*
X514132Y300341D01*
X513898Y299604D01*
X513700Y298757D01*
X513538Y297801D01*
X513322Y295558D01*
X513268Y294272D01*
X513250Y292877D01*
X511250D01*
X511232Y294272D01*
X510962Y297801D01*
X510800Y298757D01*
X510602Y299604D01*
X510368Y300341D01*
X510098Y300968D01*
X509792Y301486D01*
X509450Y301893D01*
X515050D01*
X514708Y301486D01*
D02*
G37*
G36*
X521135Y287340D02*
X521022Y287347D01*
X520858Y287290D01*
X520643Y287170D01*
X520377Y286985D01*
X520060Y286737D01*
X519272Y286051D01*
X517707Y284543D01*
X516293Y285957D01*
X516859Y286530D01*
X518920Y288893D01*
X519040Y289108D01*
X519097Y289272D01*
X519090Y289385D01*
X521135Y287340D01*
D02*
G37*
G36*
X545578Y266585D02*
X545299Y266075D01*
X545053Y265452D01*
X544840Y264717D01*
X544660Y263869D01*
X544512Y262910D01*
X544315Y260655D01*
X544250Y257950D01*
X542250Y257821D01*
X542231Y259222D01*
X541951Y262745D01*
X541783Y263692D01*
X541578Y264525D01*
X541336Y265245D01*
X541056Y265852D01*
X540738Y266345D01*
X540384Y266724D01*
X545889Y266984D01*
X545578Y266585D01*
D02*
G37*
G36*
X532271Y227812D02*
X532581Y223367D01*
X532767Y222183D01*
X532994Y221147D01*
X533263Y220260D01*
X533573Y219522D01*
X533924Y218932D01*
X534317Y218491D01*
X527403Y218223D01*
X527754Y218680D01*
X528068Y219284D01*
X528345Y220035D01*
X528585Y220935D01*
X528788Y221982D01*
X528955Y223177D01*
X529176Y226010D01*
X529250Y229434D01*
X532250Y229591D01*
X532271Y227812D01*
D02*
G37*
G36*
X534945Y217965D02*
X535482Y217710D01*
X536179Y217485D01*
X537038Y217290D01*
X538059Y217125D01*
X540584Y216885D01*
X543755Y216765D01*
X545583Y216750D01*
Y212750D01*
X543755Y212735D01*
X538059Y212375D01*
X537038Y212210D01*
X536179Y212015D01*
X535482Y211790D01*
X534945Y211535D01*
X534571Y211250D01*
Y218250D01*
X534945Y217965D01*
D02*
G37*
G36*
X559906Y214194D02*
X564188Y210421D01*
X565026Y209816D01*
X565772Y209346D01*
X566424Y209012D01*
X566983Y208813D01*
X567450Y208750D01*
X562500Y203800D01*
X562437Y204266D01*
X562238Y204826D01*
X561904Y205478D01*
X561434Y206224D01*
X560829Y207062D01*
X559213Y209017D01*
X557056Y211344D01*
X555774Y212647D01*
X558603Y215476D01*
X559906Y214194D01*
D02*
G37*
G36*
X744754Y191171D02*
X744512Y190979D01*
X741465Y190746D01*
X574688D01*
X574688Y190746D01*
X573517Y190513D01*
X572525Y189850D01*
X536226Y153552D01*
X535563Y152560D01*
X535330Y151389D01*
X535330Y151389D01*
Y135586D01*
X533438Y135210D01*
X531829Y134135D01*
X531563Y134186D01*
X530559Y134557D01*
Y151955D01*
X571045Y192441D01*
X744311D01*
X744754Y191171D01*
D02*
G37*
G36*
X749143Y184888D02*
X748736Y185229D01*
X748218Y185536D01*
X747591Y185805D01*
X746854Y186040D01*
X746007Y186238D01*
X745051Y186399D01*
X742808Y186616D01*
X741523Y186670D01*
X740127Y186688D01*
Y188687D01*
X741523Y188706D01*
X745051Y188976D01*
X746007Y189137D01*
X746854Y189335D01*
X747591Y189569D01*
X748218Y189839D01*
X748736Y190145D01*
X749143Y190487D01*
Y184888D01*
D02*
G37*
G36*
X788168Y177932D02*
X787767Y178278D01*
X787256Y178587D01*
X786634Y178859D01*
X785901Y179096D01*
X785057Y179296D01*
X784103Y179459D01*
X781862Y179677D01*
X780576Y179732D01*
X779179Y179750D01*
X779211Y181750D01*
X780605Y181768D01*
X784134Y182035D01*
X785093Y182195D01*
X785943Y182391D01*
X786684Y182623D01*
X787317Y182890D01*
X787840Y183193D01*
X788255Y183532D01*
X788168Y177932D01*
D02*
G37*
G36*
X489871Y149469D02*
X489565Y148951D01*
X489295Y148324D01*
X489061Y147587D01*
X488863Y146740D01*
X488701Y145784D01*
X488485Y143541D01*
X488431Y142256D01*
X488413Y140860D01*
X486413D01*
X486395Y142256D01*
X486125Y145784D01*
X485963Y146740D01*
X485765Y147587D01*
X485531Y148324D01*
X485261Y148951D01*
X484955Y149469D01*
X484613Y149877D01*
X490213D01*
X489871Y149469D01*
D02*
G37*
G36*
X520441Y165983D02*
Y134949D01*
X519171Y134387D01*
X517940Y135210D01*
X515989Y135598D01*
X515309D01*
Y169456D01*
X516482Y169942D01*
X520441Y165983D01*
D02*
G37*
G36*
X387058Y382671D02*
X386580Y382576D01*
X385587Y381913D01*
X345337Y341663D01*
X344674Y340671D01*
X344441Y339500D01*
X344441Y339500D01*
Y131011D01*
X343171Y130886D01*
X342860Y132451D01*
X341755Y134105D01*
X340101Y135210D01*
X338209Y135586D01*
Y347633D01*
X374517Y383941D01*
X386933D01*
X387058Y382671D01*
D02*
G37*
G36*
X739768Y128228D02*
X740038Y124699D01*
X740200Y123743D01*
X740398Y122896D01*
X740632Y122159D01*
X740902Y121532D01*
X741208Y121014D01*
X741550Y120607D01*
X735950D01*
X736292Y121014D01*
X736598Y121532D01*
X736868Y122159D01*
X737102Y122896D01*
X737300Y123743D01*
X737462Y124699D01*
X737678Y126942D01*
X737732Y128228D01*
X737750Y129623D01*
X739750D01*
X739768Y128228D01*
D02*
G37*
G36*
X749441Y137233D02*
Y92250D01*
X749441Y92250D01*
X749674Y91080D01*
X750337Y90087D01*
X759587Y80837D01*
X759587Y80837D01*
X760579Y80174D01*
X761750Y79941D01*
X955000D01*
X955000Y79941D01*
X956171Y80174D01*
X956834Y80617D01*
X957644Y79631D01*
X955822Y77809D01*
X745017D01*
X730809Y92017D01*
Y138500D01*
X730576Y139671D01*
X729913Y140663D01*
X729913Y140663D01*
X717413Y153163D01*
X716421Y153826D01*
X715942Y153921D01*
X716067Y155191D01*
X717733D01*
X735691Y137233D01*
Y128233D01*
X735643Y127082D01*
X735439Y124968D01*
X735300Y124145D01*
X735134Y123438D01*
X734955Y122873D01*
X734776Y122458D01*
X734633Y122215D01*
X734424Y122076D01*
X733098Y120091D01*
X732633Y117750D01*
X733098Y115409D01*
X734424Y113424D01*
X736409Y112098D01*
X738750Y111632D01*
X741091Y112098D01*
X743076Y113424D01*
X744402Y115409D01*
X744867Y117750D01*
X744402Y120091D01*
X743076Y122076D01*
X742867Y122215D01*
X742723Y122458D01*
X742545Y122873D01*
X742366Y123438D01*
X742200Y124145D01*
X742064Y124948D01*
X741809Y128285D01*
Y138500D01*
X741576Y139671D01*
X740913Y140663D01*
X721163Y160413D01*
X721151Y160421D01*
X721536Y161691D01*
X724983D01*
X749441Y137233D01*
D02*
G37*
G36*
X1003441Y469327D02*
Y74818D01*
X1002859Y74361D01*
X1001589Y74963D01*
Y464647D01*
X1001637Y465798D01*
X1001841Y467912D01*
X1001980Y468735D01*
X1002145Y469442D01*
X1002171Y469523D01*
X1003441Y469327D01*
D02*
G37*
G36*
X995249Y467491D02*
X995471Y464595D01*
Y72885D01*
X995079Y72594D01*
X993809Y73233D01*
Y467192D01*
X995079Y467680D01*
X995249Y467491D01*
D02*
G37*
G36*
X793828Y56767D02*
X794318Y56448D01*
X794922Y56167D01*
X795641Y55924D01*
X796473Y55718D01*
X797419Y55550D01*
X798479Y55419D01*
X800940Y55269D01*
X802342Y55250D01*
X802199Y53250D01*
X800789Y53234D01*
X797234Y52991D01*
X796275Y52845D01*
X795428Y52667D01*
X794694Y52457D01*
X794073Y52214D01*
X793564Y51939D01*
X793168Y51631D01*
X793452Y57122D01*
X793828Y56767D01*
D02*
G37*
G36*
X657679Y104549D02*
X658784Y102895D01*
X660438Y101790D01*
X662330Y101414D01*
Y93906D01*
X650837Y82413D01*
X650174Y81420D01*
X649941Y80250D01*
X649941Y80250D01*
Y31000D01*
X649941Y31000D01*
X650174Y29829D01*
X650837Y28837D01*
X660346Y19329D01*
X659819Y18059D01*
X641517D01*
X630809Y28767D01*
Y50032D01*
X632079Y50157D01*
X632279Y49149D01*
X633384Y47495D01*
X635038Y46390D01*
X636989Y46002D01*
X642989D01*
X644940Y46390D01*
X646594Y47495D01*
X647699Y49149D01*
X648087Y51100D01*
Y75100D01*
X647699Y77051D01*
X646594Y78705D01*
X644940Y79810D01*
X644099Y79977D01*
X643681Y81355D01*
X655163Y92837D01*
X655826Y93829D01*
X656059Y95000D01*
Y106186D01*
X657329Y106311D01*
X657679Y104549D01*
D02*
G37*
G36*
X718191Y133483D02*
Y89750D01*
X718191Y89750D01*
X718424Y88580D01*
X719087Y87587D01*
X740587Y66087D01*
X740587Y66087D01*
X741580Y65424D01*
X742750Y65191D01*
X952858D01*
X953344Y64018D01*
X946635Y57309D01*
X800988Y57309D01*
X798666Y57450D01*
X797723Y57567D01*
X796897Y57714D01*
X796214Y57883D01*
X795682Y58063D01*
X795308Y58237D01*
X795094Y58376D01*
X794981Y58483D01*
X794734Y58852D01*
X792749Y60178D01*
X790408Y60644D01*
X788067Y60178D01*
X786083Y58852D01*
X784756Y56868D01*
X784291Y54527D01*
X784756Y52186D01*
X786083Y50201D01*
X788067Y48875D01*
X790408Y48409D01*
X792749Y48875D01*
X794734Y50201D01*
X794789Y50283D01*
X794932Y50360D01*
X795347Y50523D01*
X795920Y50687D01*
X796638Y50838D01*
X797457Y50962D01*
X800808Y51191D01*
X947902Y51191D01*
X947902Y51191D01*
X949073Y51424D01*
X950065Y52087D01*
X972844Y74866D01*
X973642Y75664D01*
X974929Y75173D01*
X975021Y74381D01*
X941949Y41309D01*
X745517D01*
X721563Y65263D01*
X720571Y65926D01*
X719400Y66159D01*
X719400Y66159D01*
X698887D01*
Y75100D01*
X698499Y77051D01*
X697394Y78705D01*
X695740Y79810D01*
X693789Y80198D01*
X687789D01*
X685838Y79810D01*
X684184Y78705D01*
X683079Y77051D01*
X682809Y75691D01*
X682691Y75100D01*
Y51100D01*
X683079Y49149D01*
X684184Y47495D01*
X685838Y46390D01*
X687789Y46002D01*
X693789D01*
X695740Y46390D01*
X697394Y47495D01*
X698499Y49149D01*
X698887Y51100D01*
Y60041D01*
X718133D01*
X741095Y37079D01*
X740569Y35809D01*
X685767D01*
X681309Y40267D01*
Y75839D01*
Y81733D01*
X692952Y93376D01*
X692952Y93376D01*
X693615Y94369D01*
X693848Y95539D01*
X693848Y95539D01*
Y101414D01*
X695740Y101790D01*
X697394Y102895D01*
X698499Y104549D01*
X698887Y106500D01*
Y130500D01*
X698499Y132451D01*
X697394Y134105D01*
X695740Y135210D01*
X693789Y135598D01*
X687789D01*
X685838Y135210D01*
X684184Y134105D01*
X683079Y132451D01*
X682691Y130500D01*
Y106500D01*
X683079Y104549D01*
X684184Y102895D01*
X685838Y101790D01*
X687730Y101414D01*
Y96806D01*
X676087Y85163D01*
X675424Y84171D01*
X675191Y83000D01*
X675191Y83000D01*
Y39000D01*
X675191Y39000D01*
X675424Y37829D01*
X676087Y36837D01*
X682337Y30587D01*
X682337Y30587D01*
X682724Y30329D01*
X682338Y29059D01*
X674517D01*
X668448Y35128D01*
Y46014D01*
X670340Y46390D01*
X671994Y47495D01*
X673099Y49149D01*
X673487Y51100D01*
Y75100D01*
X673099Y77051D01*
X671994Y78705D01*
X670340Y79810D01*
X668389Y80198D01*
X662389D01*
X660438Y79810D01*
X658784Y78705D01*
X657679Y77051D01*
X657559Y76445D01*
X657329Y75289D01*
X656059Y75414D01*
Y76593D01*
Y78983D01*
X667552Y90476D01*
X667552Y90476D01*
X668215Y91468D01*
X668448Y92639D01*
X668448Y92639D01*
Y101414D01*
X670340Y101790D01*
X671994Y102895D01*
X673099Y104549D01*
X673487Y106500D01*
Y130500D01*
X673099Y132451D01*
X671994Y134105D01*
X670340Y135210D01*
X668389Y135598D01*
X662389D01*
X660438Y135210D01*
X658784Y134105D01*
X657679Y132451D01*
X657559Y131845D01*
X657329Y130689D01*
X656059Y130814D01*
Y131993D01*
Y135733D01*
X661517Y141191D01*
X710483D01*
X718191Y133483D01*
D02*
G37*
G36*
X1322503Y485444D02*
X1322564Y485274D01*
X1322666Y485124D01*
X1322808Y484994D01*
X1322990Y484884D01*
X1323214Y484794D01*
X1323478Y484724D01*
X1323782Y484674D01*
X1324128Y484644D01*
X1324513Y484634D01*
Y482634D01*
X1324128Y482624D01*
X1323782Y482594D01*
X1323478Y482544D01*
X1323214Y482474D01*
X1322990Y482384D01*
X1322808Y482274D01*
X1322666Y482144D01*
X1322564Y481994D01*
X1322503Y481824D01*
X1322483Y481634D01*
Y485634D01*
X1322503Y485444D01*
D02*
G37*
G36*
X1137748Y492431D02*
X1138337Y491954D01*
X1138596Y491794D01*
X1138831Y491686D01*
X1139042Y491629D01*
X1139230Y491625D01*
X1139394Y491672D01*
X1139534Y491771D01*
X1139650Y491922D01*
X1137561Y488386D01*
X1137642Y488570D01*
X1137678Y488770D01*
X1137669Y488987D01*
X1137615Y489221D01*
X1137516Y489473D01*
X1137372Y489741D01*
X1137184Y490027D01*
X1136951Y490330D01*
X1136672Y490650D01*
X1136349Y490987D01*
X1137418Y492747D01*
X1137748Y492431D01*
D02*
G37*
G36*
X1239102Y438188D02*
X1238128Y437189D01*
X1235825Y434503D01*
X1235263Y433712D01*
X1234804Y432974D01*
X1234448Y432287D01*
X1234196Y431652D01*
X1234046Y431070D01*
X1234000Y430540D01*
X1230040Y434500D01*
X1230570Y434546D01*
X1231152Y434696D01*
X1231787Y434949D01*
X1232474Y435304D01*
X1233212Y435763D01*
X1234003Y436325D01*
X1235741Y437757D01*
X1236689Y438629D01*
X1237688Y439603D01*
X1239102Y438188D01*
D02*
G37*
G36*
X1205632Y420727D02*
X1205885Y416977D01*
X1206106Y415398D01*
X1206391Y414019D01*
X1206739Y412837D01*
X1207151Y411853D01*
X1207626Y411068D01*
X1208164Y410480D01*
X1208765Y410091D01*
X1200435D01*
X1201036Y410480D01*
X1201574Y411068D01*
X1202049Y411853D01*
X1202461Y412837D01*
X1202809Y414019D01*
X1203094Y415398D01*
X1203315Y416977D01*
X1203568Y420727D01*
X1203600Y422900D01*
X1205600D01*
X1205632Y420727D01*
D02*
G37*
G36*
X1231028Y427643D02*
X1232800Y427644D01*
X1232458Y427236D01*
X1232152Y426718D01*
X1231882Y426091D01*
X1231648Y425354D01*
X1231450Y424507D01*
X1231288Y423551D01*
X1231271Y423375D01*
X1231485Y420645D01*
X1231862Y418241D01*
X1232347Y416069D01*
X1232940Y414130D01*
X1233640Y412423D01*
X1234448Y410948D01*
X1235364Y409705D01*
X1236387Y408694D01*
X1223613D01*
X1224636Y409705D01*
X1225552Y410948D01*
X1226360Y412423D01*
X1227060Y414130D01*
X1227653Y416069D01*
X1228138Y418241D01*
X1228515Y420645D01*
X1228755Y422991D01*
X1228712Y423551D01*
X1228550Y424507D01*
X1228352Y425354D01*
X1228118Y426091D01*
X1227848Y426718D01*
X1227542Y427236D01*
X1227200Y427643D01*
X1228942Y427643D01*
X1229000Y429250D01*
X1231000D01*
X1231028Y427643D01*
D02*
G37*
G36*
X426524Y467307D02*
X427042Y467001D01*
X427669Y466731D01*
X428406Y466497D01*
X429253Y466299D01*
X430209Y466137D01*
X432452Y465921D01*
X433737Y465867D01*
X435133Y465849D01*
Y463849D01*
X433737Y463831D01*
X430209Y463561D01*
X429253Y463399D01*
X428406Y463201D01*
X427669Y462967D01*
X427042Y462697D01*
X426524Y462391D01*
X426116Y462049D01*
Y467649D01*
X426524Y467307D01*
D02*
G37*
G36*
X455088Y462045D02*
X454682Y462387D01*
X454166Y462694D01*
X453540Y462965D01*
X452804Y463199D01*
X451958Y463398D01*
X451002Y463560D01*
X448760Y463777D01*
X447474Y463831D01*
X446078Y463849D01*
X446086Y465849D01*
X447481Y465867D01*
X451010Y466136D01*
X451967Y466298D01*
X452814Y466495D01*
X453552Y466729D01*
X454181Y466998D01*
X454700Y467303D01*
X455109Y467645D01*
X455088Y462045D01*
D02*
G37*
G36*
X466540Y433553D02*
X466133Y433895D01*
X465615Y434201D01*
X464988Y434471D01*
X464251Y434705D01*
X463404Y434903D01*
X462448Y435065D01*
X460205Y435281D01*
X458919Y435335D01*
X457524Y435353D01*
Y437353D01*
X458919Y437371D01*
X462448Y437641D01*
X463404Y437803D01*
X464251Y438001D01*
X464988Y438235D01*
X465615Y438505D01*
X466133Y438811D01*
X466540Y439153D01*
Y433553D01*
D02*
G37*
G36*
X389190Y438811D02*
X389708Y438505D01*
X390335Y438235D01*
X391072Y438001D01*
X391919Y437803D01*
X392875Y437641D01*
X395118Y437425D01*
X396404Y437371D01*
X397799Y437353D01*
Y435353D01*
X396404Y435335D01*
X392875Y435065D01*
X391919Y434903D01*
X391072Y434705D01*
X390335Y434471D01*
X389708Y434201D01*
X389190Y433895D01*
X388783Y433553D01*
Y439153D01*
X389190Y438811D01*
D02*
G37*
G36*
X1181010Y391011D02*
X1180840Y390951D01*
X1180690Y390850D01*
X1180560Y390710D01*
X1180450Y390531D01*
X1180360Y390311D01*
X1180290Y390051D01*
X1180240Y389751D01*
X1180210Y389411D01*
X1180200Y389030D01*
X1178200D01*
X1178190Y389411D01*
X1178160Y389751D01*
X1178110Y390051D01*
X1178040Y390311D01*
X1177950Y390531D01*
X1177840Y390710D01*
X1177710Y390850D01*
X1177560Y390951D01*
X1177390Y391011D01*
X1177200Y391031D01*
X1181200D01*
X1181010Y391011D01*
D02*
G37*
G36*
X453811Y419037D02*
X453406Y419359D01*
X452890Y419647D01*
X452263Y419902D01*
X451525Y420122D01*
X450677Y420309D01*
X449717Y420462D01*
X447466Y420665D01*
X444772Y420733D01*
X444682Y422733D01*
X446081Y422752D01*
X449606Y423029D01*
X450556Y423195D01*
X451393Y423398D01*
X452118Y423638D01*
X452731Y423915D01*
X453232Y424229D01*
X453619Y424580D01*
X453811Y419037D01*
D02*
G37*
G36*
X401182Y424191D02*
X401699Y423885D01*
X402327Y423615D01*
X403064Y423381D01*
X403910Y423183D01*
X404867Y423021D01*
X407109Y422805D01*
X408395Y422751D01*
X409791Y422733D01*
Y420733D01*
X408395Y420715D01*
X404867Y420445D01*
X403910Y420283D01*
X403064Y420085D01*
X402327Y419851D01*
X401699Y419581D01*
X401182Y419275D01*
X400774Y418933D01*
Y424533D01*
X401182Y424191D01*
D02*
G37*
G36*
X1351169Y402785D02*
X1350847Y403158D01*
X1350405Y403493D01*
X1349841Y403787D01*
X1349156Y404043D01*
X1348351Y404259D01*
X1347424Y404436D01*
X1346376Y404573D01*
X1343918Y404730D01*
X1342508Y404750D01*
X1342903Y406750D01*
X1344347Y406763D01*
X1348906Y407064D01*
X1349741Y407203D01*
X1350454Y407366D01*
X1351045Y407555D01*
X1351515Y407769D01*
X1351863Y408007D01*
X1351169Y402785D01*
D02*
G37*
G36*
X414092Y320059D02*
X413742Y319669D01*
X413429Y319166D01*
X413153Y318552D01*
X412913Y317825D01*
X412710Y316987D01*
X412545Y316036D01*
X412324Y313798D01*
X412268Y312511D01*
X412250Y311112D01*
X410250Y311192D01*
X410233Y312593D01*
X409976Y316133D01*
X409822Y317092D01*
X409634Y317941D01*
X409411Y318679D01*
X409154Y319307D01*
X408863Y319825D01*
X408538Y320232D01*
X414092Y320059D01*
D02*
G37*
G36*
X425620Y319834D02*
X425332Y319319D01*
X425079Y318692D01*
X424859Y317955D01*
X424673Y317106D01*
X424520Y316147D01*
X424318Y313896D01*
X424250Y311200D01*
X422250Y311106D01*
X422231Y312506D01*
X421954Y316030D01*
X421788Y316980D01*
X421584Y317817D01*
X421344Y318542D01*
X421067Y319154D01*
X420752Y319653D01*
X420401Y320041D01*
X425941Y320239D01*
X425620Y319834D01*
D02*
G37*
G36*
X418742Y318696D02*
X419060Y318483D01*
X419122Y318416D01*
X419267Y318186D01*
X419442Y317798D01*
X419623Y317254D01*
X419790Y316563D01*
X419929Y315773D01*
X420191Y312440D01*
Y132870D01*
X419858Y132746D01*
X418921Y132658D01*
X417955Y134105D01*
X416301Y135210D01*
X414350Y135598D01*
X414309D01*
Y312495D01*
X414359Y313654D01*
X414567Y315760D01*
X414708Y316572D01*
X414876Y317266D01*
X415056Y317812D01*
X415232Y318204D01*
X415379Y318440D01*
X415427Y318493D01*
X415730Y318696D01*
X416472Y319807D01*
X418000D01*
X418742Y318696D01*
D02*
G37*
G36*
X400423Y319806D02*
X400125Y319284D01*
X399861Y318653D01*
X399633Y317913D01*
X399439Y317063D01*
X399281Y316104D01*
X399070Y313858D01*
X399018Y312571D01*
X399000Y311175D01*
X397000Y311125D01*
X396982Y312523D01*
X396708Y316049D01*
X396543Y317002D01*
X396343Y317844D01*
X396105Y318575D01*
X395831Y319194D01*
X395521Y319702D01*
X395173Y320099D01*
X400757Y320218D01*
X400423Y319806D01*
D02*
G37*
G36*
X388373D02*
X388075Y319284D01*
X387811Y318653D01*
X387583Y317913D01*
X387389Y317063D01*
X387231Y316104D01*
X387020Y313858D01*
X386968Y312571D01*
X386950Y311175D01*
X384950Y311125D01*
X384932Y312523D01*
X384658Y316049D01*
X384493Y317002D01*
X384292Y317844D01*
X384055Y318575D01*
X383781Y319194D01*
X383471Y319702D01*
X383124Y320099D01*
X388707Y320218D01*
X388373Y319806D01*
D02*
G37*
G36*
X393579Y318696D02*
X393850Y318515D01*
X393871Y318491D01*
X394021Y318246D01*
X394198Y317845D01*
X394378Y317291D01*
X394545Y316592D01*
X394682Y315796D01*
X394941Y312461D01*
Y132519D01*
X393671Y132394D01*
X393660Y132451D01*
X392555Y134105D01*
X390901Y135210D01*
X389009Y135586D01*
Y312578D01*
X389056Y313721D01*
X389255Y315842D01*
X389391Y316670D01*
X389554Y317385D01*
X389730Y317958D01*
X389907Y318381D01*
X390031Y318596D01*
X390180Y318696D01*
X391160Y320162D01*
X392599D01*
X393579Y318696D01*
D02*
G37*
G36*
X255051Y299008D02*
X255545Y298849D01*
X256260Y298709D01*
X257196Y298587D01*
X259729Y298400D01*
X267446Y298250D01*
Y292250D01*
X265186Y292241D01*
X255545Y291651D01*
X255051Y291492D01*
X254778Y291314D01*
Y299186D01*
X255051Y299008D01*
D02*
G37*
G36*
X657458Y289486D02*
X657152Y288968D01*
X656882Y288341D01*
X656648Y287604D01*
X656450Y286757D01*
X656288Y285801D01*
X656072Y283558D01*
X656018Y282272D01*
X656000Y280877D01*
X654000D01*
X653982Y282272D01*
X653712Y285801D01*
X653550Y286757D01*
X653352Y287604D01*
X653118Y288341D01*
X652848Y288968D01*
X652542Y289486D01*
X652200Y289893D01*
X657800D01*
X657458Y289486D01*
D02*
G37*
G36*
X655415Y271938D02*
X654441Y270939D01*
X652137Y268253D01*
X651575Y267462D01*
X651116Y266723D01*
X650761Y266037D01*
X650508Y265402D01*
X650359Y264820D01*
X650312Y264290D01*
X646352Y268250D01*
X646882Y268296D01*
X647465Y268446D01*
X648099Y268699D01*
X648786Y269054D01*
X649525Y269513D01*
X650315Y270075D01*
X652054Y271507D01*
X653001Y272379D01*
X654001Y273353D01*
X655415Y271938D01*
D02*
G37*
G36*
X268857Y245778D02*
X269241Y239769D01*
X269361Y239260D01*
X269497Y238892D01*
X269649Y238665D01*
X264049D01*
X264201Y238892D01*
X264337Y239260D01*
X264457Y239769D01*
X264561Y240419D01*
X264721Y242140D01*
X264841Y245778D01*
X264849Y247273D01*
X268849D01*
X268857Y245778D01*
D02*
G37*
G36*
X77883Y515692D02*
X77747Y515323D01*
X77627Y514815D01*
X77523Y514165D01*
X77363Y512444D01*
X77243Y508806D01*
X77235Y507311D01*
X73235D01*
X73227Y508806D01*
X72843Y514815D01*
X72723Y515323D01*
X72587Y515692D01*
X72435Y515919D01*
X78035D01*
X77883Y515692D01*
D02*
G37*
G36*
X157656Y244194D02*
X161938Y240421D01*
X162776Y239816D01*
X163522Y239346D01*
X164174Y239012D01*
X164734Y238813D01*
X165200Y238750D01*
X160250Y233800D01*
X160187Y234266D01*
X159988Y234826D01*
X159654Y235478D01*
X159184Y236224D01*
X158579Y237062D01*
X156963Y239017D01*
X154806Y241344D01*
X153524Y242647D01*
X156353Y245476D01*
X157656Y244194D01*
D02*
G37*
G36*
X780380Y152966D02*
X780774Y146962D01*
X780897Y146454D01*
X781037Y146088D01*
X781193Y145862D01*
X775598Y145765D01*
X775745Y145992D01*
X775877Y146360D01*
X775993Y146869D01*
X776094Y147519D01*
X776248Y149242D01*
X776365Y152881D01*
X776372Y154376D01*
X780372Y154460D01*
X780380Y152966D01*
D02*
G37*
G36*
X857019Y184452D02*
X856715Y183930D01*
X856447Y183299D01*
X856215Y182558D01*
X856019Y181709D01*
X855858Y180751D01*
X855644Y178507D01*
X855590Y177222D01*
X855572Y175828D01*
X853572Y175802D01*
X853554Y177199D01*
X853282Y180726D01*
X853119Y181681D01*
X852919Y182525D01*
X852683Y183259D01*
X852411Y183882D01*
X852103Y184394D01*
X851758Y184797D01*
X857358Y184866D01*
X857019Y184452D01*
D02*
G37*
G36*
X844718Y177806D02*
X844374Y177402D01*
X844066Y176889D01*
X843795Y176264D01*
X843559Y175529D01*
X843360Y174685D01*
X843197Y173729D01*
X842980Y171488D01*
X842926Y170202D01*
X842908Y168806D01*
X840908Y168824D01*
X840890Y170219D01*
X840621Y173747D01*
X840460Y174705D01*
X840263Y175553D01*
X840031Y176293D01*
X839762Y176923D01*
X839458Y177444D01*
X839118Y177856D01*
X844718Y177806D01*
D02*
G37*
G36*
X203563Y184734D02*
X203762Y184174D01*
X204096Y183522D01*
X204566Y182776D01*
X205171Y181938D01*
X206787Y179983D01*
X208944Y177656D01*
X210226Y176353D01*
X207397Y173524D01*
X206094Y174806D01*
X201812Y178579D01*
X200974Y179184D01*
X200228Y179654D01*
X199576Y179988D01*
X199016Y180187D01*
X198550Y180250D01*
X203500Y185200D01*
X203563Y184734D01*
D02*
G37*
G36*
X451614Y335756D02*
X451308Y335238D01*
X451038Y334611D01*
X450804Y333874D01*
X450606Y333027D01*
X450444Y332071D01*
X450228Y329828D01*
X450174Y328542D01*
X450156Y327147D01*
X448156D01*
X448138Y328542D01*
X447868Y332071D01*
X447706Y333027D01*
X447508Y333874D01*
X447274Y334611D01*
X447004Y335238D01*
X446698Y335756D01*
X446356Y336163D01*
X451956D01*
X451614Y335756D01*
D02*
G37*
G36*
X439606Y320023D02*
X439253Y319639D01*
X438938Y319142D01*
X438659Y318532D01*
X438418Y317809D01*
X438214Y316973D01*
X438047Y316025D01*
X437917Y314963D01*
X437769Y312501D01*
X437750Y311101D01*
X435750Y311208D01*
X435733Y312613D01*
X435483Y316160D01*
X435332Y317119D01*
X435148Y317967D01*
X434931Y318704D01*
X434680Y319329D01*
X434396Y319843D01*
X434079Y320245D01*
X439606Y320023D01*
D02*
G37*
G36*
X888268Y108228D02*
X888538Y104699D01*
X888700Y103743D01*
X888898Y102896D01*
X889132Y102159D01*
X889402Y101532D01*
X889708Y101014D01*
X890050Y100607D01*
X884450D01*
X884792Y101014D01*
X885098Y101532D01*
X885368Y102159D01*
X885602Y102896D01*
X885800Y103743D01*
X885962Y104699D01*
X886178Y106942D01*
X886232Y108228D01*
X886250Y109623D01*
X888250D01*
X888268Y108228D01*
D02*
G37*
G36*
X805522Y113699D02*
X806040Y113392D01*
X806667Y113123D01*
X807404Y112888D01*
X808251Y112690D01*
X809207Y112528D01*
X811449Y112312D01*
X812735Y112259D01*
X814131Y112240D01*
Y110240D01*
X812735Y110223D01*
X809207Y109952D01*
X808251Y109790D01*
X807404Y109593D01*
X806667Y109359D01*
X806040Y109088D01*
X805522Y108783D01*
X805114Y108441D01*
Y114040D01*
X805522Y113699D01*
D02*
G37*
G36*
X946187Y107950D02*
X945779Y108292D01*
X945262Y108598D01*
X944634Y108868D01*
X943897Y109102D01*
X943051Y109300D01*
X942094Y109462D01*
X939852Y109678D01*
X938566Y109732D01*
X937170Y109750D01*
Y111750D01*
X938566Y111768D01*
X942094Y112038D01*
X943051Y112200D01*
X943897Y112398D01*
X944634Y112632D01*
X945262Y112902D01*
X945779Y113208D01*
X946187Y113550D01*
Y107950D01*
D02*
G37*
G36*
X238307Y92532D02*
X239010Y92158D01*
X239894Y91828D01*
X240959Y91542D01*
X242206Y91300D01*
X243634Y91102D01*
X247033Y90838D01*
X251157Y90750D01*
Y86750D01*
X249004Y86728D01*
X242206Y86200D01*
X240959Y85958D01*
X239894Y85672D01*
X239010Y85342D01*
X238307Y84968D01*
X237785Y84550D01*
Y92950D01*
X238307Y92532D01*
D02*
G37*
D12*
X611750Y421500D02*
X649750Y459500D01*
X309750Y118500D02*
Y141750D01*
X329750Y161750D01*
Y360750D01*
X360750Y391750D01*
X1123250Y621250D02*
X1147500D01*
X517000Y285250D02*
X522750Y291000D01*
X517000Y173750D02*
Y285250D01*
X512250Y119239D02*
Y304750D01*
Y119239D02*
X512989Y118500D01*
X387750Y379750D02*
X482500D01*
X483055Y379195D01*
X709427Y337750D02*
X722347Y350670D01*
X639500Y337750D02*
X709427D01*
X566500Y321500D02*
X672250D01*
X682250Y331500D01*
X630750Y346500D02*
X639500Y337750D01*
X580250Y346500D02*
X630750D01*
X614590Y331385D02*
X614892Y331687D01*
X596543Y336707D02*
X601865Y331385D01*
X580458Y336707D02*
X596543D01*
X580250Y336500D02*
X580458Y336707D01*
X601865Y331385D02*
X614590D01*
X580250Y421500D02*
X611750D01*
X580250Y416500D02*
X621500D01*
X651000Y446000D01*
X627250Y306500D02*
X674250D01*
X619250Y298500D02*
X627250Y306500D01*
X599500Y298500D02*
X619250D01*
X580250Y306500D02*
X591500D01*
X599500Y298500D01*
X678818Y316500D02*
X686133Y323814D01*
X558814Y316500D02*
X678818D01*
X646312Y264250D02*
X655000Y272938D01*
Y292750D01*
X663089Y357500D02*
X667088Y361500D01*
X667574D01*
X650750Y357500D02*
X663089D01*
X580250Y351500D02*
X644093D01*
X651343Y344250D01*
X665000D01*
X648250Y353000D02*
X672000D01*
X644750Y356500D02*
X648250Y353000D01*
X580250Y356500D02*
X644750D01*
X763750Y490000D02*
X861750D01*
X659670Y385920D02*
X763750Y490000D01*
X659670Y367384D02*
Y385920D01*
X658905Y366618D02*
X659670Y367384D01*
X580250Y366500D02*
X658750D01*
X580250Y361500D02*
X646750D01*
X650750Y357500D01*
X563000Y368250D02*
X566250Y371500D01*
X530500Y379000D02*
X548000Y361500D01*
X580250D01*
Y376500D02*
X637839D01*
X549500Y372000D02*
X554000Y376500D01*
X580250D01*
X544332Y381500D02*
X637182D01*
X543332Y380500D02*
X544332Y381500D01*
X542250Y380500D02*
X543332D01*
X531750Y386500D02*
X636525D01*
X522250Y396000D02*
X531750Y386500D01*
X543000Y391500D02*
X635868D01*
X532500Y402000D02*
X543000Y391500D01*
X543786Y415214D02*
X550958Y408042D01*
X550000Y396500D02*
X580250D01*
X536500Y410000D02*
X550000Y396500D01*
X543786Y415214D02*
Y415250D01*
X550958Y408042D02*
X555958D01*
X562500Y401500D01*
X548750Y421250D02*
X563000Y407000D01*
X537500Y421250D02*
X548750D01*
X550500Y427500D02*
X566500Y411500D01*
X531000Y427500D02*
X550500D01*
X959000Y514000D02*
X990750Y482250D01*
X580250Y396500D02*
X635211D01*
X990750Y68814D02*
Y482250D01*
X580250Y411500D02*
X633241D01*
X566500D02*
X580250D01*
X566250Y371500D02*
X580250D01*
X562500Y401500D02*
X580250D01*
X634554D01*
X563000Y407000D02*
X579750D01*
X580250Y406500D01*
X633898D01*
X998530Y70937D02*
Y474615D01*
X942593Y15000D02*
X998530Y70937D01*
X944250Y11000D02*
X1006500Y73250D01*
X951000Y536750D02*
X1006500Y481250D01*
Y73250D02*
Y481250D01*
X942436Y20500D02*
X990750Y68814D01*
X974250Y80598D02*
Y419078D01*
X947902Y54250D02*
X974250Y80598D01*
X895328Y498000D02*
X974250Y419078D01*
X970250Y82255D02*
Y403750D01*
X956245Y68250D02*
X970250Y82255D01*
X943216Y38250D02*
X978250Y73284D01*
X966250Y83912D02*
Y392750D01*
X957088Y74750D02*
X966250Y83912D01*
X865000Y494000D02*
X966250Y392750D01*
X942280Y26000D02*
X986250Y69970D01*
X958052Y480500D02*
X982250Y456301D01*
X943373Y32750D02*
X982250Y71627D01*
X861750Y490000D02*
X962250Y389500D01*
X955000Y83000D02*
X962250Y90250D01*
X986250Y479000D02*
X986250Y479000D01*
X955250Y510000D02*
X986250Y479000D01*
X933261Y487989D02*
X978250Y443000D01*
X957250Y480500D02*
X958052D01*
X982250Y71627D02*
Y456301D01*
X986250Y69970D02*
Y479000D01*
X895500Y478500D02*
X970250Y403750D01*
X962250Y90250D02*
Y389500D01*
X978250Y73284D02*
Y443000D01*
X752466Y514000D02*
X959000D01*
X755779Y506000D02*
X945250D01*
X975000Y476250D01*
X754123Y510000D02*
X955250D01*
X698500Y454378D02*
X754123Y510000D01*
X759902Y532750D02*
X940250D01*
X947500Y525500D01*
X761559Y528750D02*
X927500D01*
X933500Y522750D01*
X690500Y457691D02*
X761559Y528750D01*
X682500Y461005D02*
X758245Y536750D01*
X951000D01*
X686500Y459348D02*
X759902Y532750D01*
X757682Y502000D02*
X907384D01*
X912635Y496750D01*
X706500Y450818D02*
X757682Y502000D01*
X912635Y496750D02*
X912750D01*
X759339Y498000D02*
X895328D01*
X710500Y449162D02*
X759339Y498000D01*
X714500Y447505D02*
X760995Y494000D01*
X694500Y456034D02*
X752466Y514000D01*
X702500Y452721D02*
X755779Y506000D01*
X760995Y494000D02*
X865000D01*
X933261Y487989D02*
Y488779D01*
X761750Y83000D02*
X955000D01*
X752500Y92250D02*
X761750Y83000D01*
X752500Y92250D02*
Y138500D01*
X605250Y164750D02*
X726250D01*
X752500Y138500D01*
X626500Y158250D02*
X719000D01*
X738750Y117750D02*
Y138500D01*
X719000Y158250D02*
X738750Y138500D01*
X589189Y148689D02*
X605250Y164750D01*
X589189Y118500D02*
Y148689D01*
X727750Y90750D02*
X743750Y74750D01*
X957088D01*
X727750Y90750D02*
Y138500D01*
X721250Y89750D02*
Y134750D01*
Y89750D02*
X742750Y68250D01*
X956245D01*
X715250Y151000D02*
X727750Y138500D01*
X639000Y151000D02*
X715250D01*
X711750Y144250D02*
X721250Y134750D01*
X660250Y144250D02*
X711750D01*
X592750Y176250D02*
X767250D01*
X760750Y180250D02*
X769750Y189250D01*
X767250Y176250D02*
X771750Y180750D01*
X563789Y147289D02*
X592750Y176250D01*
X551250Y149250D02*
X582250Y180250D01*
X760750D01*
X538389Y151389D02*
X574688Y187687D01*
X752000D01*
X867272Y200478D02*
Y219408D01*
X610250Y11000D02*
X944250D01*
X744250Y38250D02*
X943216D01*
X640250Y15000D02*
X942593D01*
X663500Y20500D02*
X942436D01*
X792000Y54250D02*
X947902Y54250D01*
X673250Y26000D02*
X942280D01*
X684500Y32750D02*
X943373D01*
X589189Y32061D02*
X610250Y11000D01*
X589189Y32061D02*
Y63100D01*
X690500Y457446D02*
Y457691D01*
X686500Y459103D02*
Y459348D01*
X714500Y447505D02*
Y447505D01*
X694500Y455789D02*
Y456034D01*
X682500Y460760D02*
Y461005D01*
X710500Y449162D02*
Y449162D01*
X698500Y454132D02*
Y454378D01*
X702500Y452475D02*
Y452721D01*
X706500Y450818D02*
Y450818D01*
X887250Y97750D02*
Y111748D01*
X887238Y111759D02*
X887250Y111748D01*
X931025Y110750D02*
X949043D01*
X930015Y111759D02*
X931025Y110750D01*
X865331Y111241D02*
X865850Y111759D01*
X802258Y111241D02*
X865331D01*
X582728Y214272D02*
X701502D01*
X556000Y241000D02*
X582728Y214272D01*
X556000Y241000D02*
Y296250D01*
X543250Y243250D02*
Y269500D01*
X585250Y201250D02*
X721500D01*
X543250Y243250D02*
X585250Y201250D01*
X543000Y269750D02*
X543250Y269500D01*
X556000Y296250D02*
X556250Y296500D01*
X721500Y201250D02*
X838750D01*
X721500D02*
X721502Y201252D01*
Y214272D01*
X887238Y111759D02*
X908627D01*
Y131759D02*
X930015D01*
X908627D02*
Y159123D01*
X867272Y200478D02*
X908627Y159123D01*
X865850Y131759D02*
X887238D01*
X854572Y204428D02*
X887238Y171762D01*
Y131759D02*
Y171762D01*
X854572Y204428D02*
Y219408D01*
X838750Y201250D02*
X841872Y204372D01*
Y219408D01*
X778250Y143750D02*
X778372Y143872D01*
X854572Y161408D02*
Y190106D01*
X771750Y180750D02*
X791005D01*
X841872Y161408D02*
X841908Y161443D01*
Y180652D02*
X841943Y180688D01*
X791005Y180750D02*
X791068Y180688D01*
X841908Y161443D02*
Y180652D01*
X769750Y189250D02*
X807500D01*
X814250Y195500D02*
X829172Y180578D01*
X527500Y153222D02*
X569778Y195500D01*
X814250D01*
X815750Y162130D02*
Y181000D01*
X807500Y189250D02*
X815750Y181000D01*
Y162130D02*
X816472Y161408D01*
X563789Y118500D02*
Y147289D01*
X829172Y161408D02*
Y180578D01*
X614589Y146339D02*
X626500Y158250D01*
X614589Y118500D02*
Y146339D01*
X982600Y584900D02*
X1101100D01*
X500000Y391750D02*
X535250Y356500D01*
X360750Y391750D02*
X500000D01*
X335150Y348900D02*
X373250Y387000D01*
X488000D01*
X512000Y363000D01*
X1124000Y460250D02*
Y562000D01*
X1101100Y584900D02*
X1124000Y562000D01*
X568198Y341500D02*
X580250D01*
X565509Y338810D02*
X568198Y341500D01*
X564027Y338810D02*
X565509D01*
X699250Y613750D02*
X700500Y615000D01*
X698000Y612500D02*
X699250Y613750D01*
X385926Y436353D02*
X469397D01*
X397918Y421733D02*
X454517D01*
X398000Y99000D02*
Y324000D01*
X423260Y464849D02*
X457401D01*
X423250Y98250D02*
Y325250D01*
X427000Y490250D02*
X445499Y508749D01*
X472515D01*
X411250Y117000D02*
Y325250D01*
X1102333Y601250D02*
X1124500D01*
X1312505Y483634D02*
X1354083D01*
X1146990Y601250D02*
X1168406D01*
X1145489D02*
X1147505Y599234D01*
X347500Y339500D02*
X387750Y379750D01*
X436750Y86000D02*
X449156Y98406D01*
Y339020D01*
X347500Y100750D02*
Y339500D01*
X436750Y118500D02*
Y324500D01*
X538297Y338046D02*
X549954D01*
X566500Y321500D01*
X537957Y338385D02*
X538297Y338046D01*
X535250Y356500D02*
X580250D01*
X551384Y323930D02*
X558814Y316500D01*
X395250Y369000D02*
X477000D01*
X475250Y302500D02*
X509756Y337006D01*
X510177D01*
X475250Y99500D02*
Y302500D01*
X553000Y315500D02*
X562000Y306500D01*
X520650Y315500D02*
X553000D01*
X500000Y95250D02*
Y313000D01*
X533500Y346500D02*
X577250D01*
X500000Y313000D02*
X533500Y346500D01*
X462189Y118500D02*
Y310439D01*
X503250Y351500D02*
X580250D01*
X462189Y310439D02*
X503250Y351500D01*
X562000Y306500D02*
X580250D01*
X605500Y307250D02*
X605750D01*
X601250Y311500D02*
X605500Y307250D01*
X580250Y311500D02*
X601250D01*
X637182Y381500D02*
X706500Y450818D01*
X635868Y391500D02*
X698500Y454132D01*
X634554Y401500D02*
X690500Y457446D01*
X635211Y396500D02*
X694500Y455789D01*
X633241Y411500D02*
X682500Y460760D01*
X637839Y376500D02*
X710500Y449162D01*
X636525Y386500D02*
X702500Y452475D01*
X638495Y371500D02*
X714500Y447505D01*
X633898Y406500D02*
X686500Y459103D01*
X580250Y371500D02*
X638495D01*
X360550Y334300D02*
X395250Y369000D01*
X372000Y331500D02*
X401500Y361000D01*
X488636D01*
X360550Y118500D02*
Y334300D01*
X462189Y86439D02*
X475250Y99500D01*
X487413Y118676D02*
Y152733D01*
Y118676D02*
X487589Y118500D01*
Y82839D02*
X500000Y95250D01*
X517000Y173750D02*
X523500Y167250D01*
X372000Y98500D02*
Y331500D01*
X580250Y291500D02*
Y296500D01*
X639989Y95239D02*
Y118500D01*
X627750Y83000D02*
X639989Y95239D01*
X627750Y27500D02*
Y83000D01*
X653000Y95000D02*
Y137000D01*
X640000Y82000D02*
X653000Y95000D01*
X640000Y63111D02*
Y82000D01*
X665389Y92639D02*
Y118500D01*
X653000Y80250D02*
X665389Y92639D01*
X653000Y31000D02*
Y80250D01*
X627250Y96250D02*
Y139250D01*
X614589Y83589D02*
X627250Y96250D01*
X614589Y63100D02*
Y83589D01*
X627250Y139250D02*
X639000Y151000D01*
X627750Y27500D02*
X640250Y15000D01*
X653000Y137000D02*
X660250Y144250D01*
X639989Y63100D02*
X640000Y63111D01*
X690789Y95539D02*
Y118500D01*
X678250Y83000D02*
X690789Y95539D01*
X678250Y39000D02*
Y83000D01*
Y39000D02*
X684500Y32750D01*
X665389Y33861D02*
X673250Y26000D01*
X665389Y33861D02*
Y63100D01*
X653000Y31000D02*
X663500Y20500D01*
X719400Y63100D02*
X744250Y38250D01*
X690789Y63100D02*
X719400D01*
X523500Y95250D02*
Y167250D01*
X512989Y84739D02*
X523500Y95250D01*
X512989Y63100D02*
Y84739D01*
X538389Y63100D02*
Y85111D01*
X527500Y96000D02*
X538389Y85111D01*
X527500Y96000D02*
Y153222D01*
X563789Y63100D02*
Y82961D01*
X551250Y95500D02*
X563789Y82961D01*
X551250Y95500D02*
Y149250D01*
X538389Y118500D02*
Y151389D01*
X487589Y63100D02*
Y82839D01*
X462189Y63100D02*
Y86439D01*
X411350Y86350D02*
X423250Y98250D01*
X411350Y63100D02*
Y86350D01*
X436750Y63100D02*
Y86000D01*
X385950Y63100D02*
Y86950D01*
X398000Y99000D01*
X335150Y63100D02*
Y88400D01*
X347500Y100750D01*
X385950Y118500D02*
Y321200D01*
X360550Y87050D02*
X372000Y98500D01*
X360550Y63100D02*
Y87050D01*
X335150Y118500D02*
Y348900D01*
X727500Y615000D02*
X751500D01*
X751500Y615000D01*
X700500Y615000D02*
X727500D01*
X632750Y603750D02*
X641500Y612500D01*
X1204600Y401000D02*
Y422900D01*
X1189500Y438000D02*
X1204600Y422900D01*
X1146250Y438000D02*
X1189500D01*
X1124000Y460250D02*
X1146250Y438000D01*
X1124500Y601250D02*
X1130250Y595500D01*
Y498500D02*
Y595500D01*
Y498500D02*
X1145116Y483634D01*
X1147505D01*
X1147500Y621250D02*
X1147500Y621250D01*
X1230000Y430500D02*
X1241000Y441500D01*
X1347500D01*
X1354083Y434917D01*
Y425750D02*
Y434917D01*
X1302250Y425750D02*
X1310750D01*
X1298750Y422250D02*
X1302250Y425750D01*
X1298750Y384500D02*
Y422250D01*
X1291000Y376750D02*
X1298750Y384500D01*
X1186500Y376750D02*
X1291000D01*
X1179200Y384050D02*
X1186500Y376750D01*
X1179200Y384050D02*
Y401000D01*
X1310750Y425750D02*
X1332417D01*
X1354083D02*
X1375750D01*
X1332417Y405750D02*
X1354083D01*
X1147505Y533634D02*
Y599234D01*
X1230000Y401000D02*
Y429250D01*
X778372Y161408D02*
X791072D01*
D26*
X810300Y130759D02*
D03*
X830300D02*
D03*
X267773Y254882D02*
D03*
X287773D02*
D03*
X267773Y295270D02*
D03*
X287773D02*
D03*
X701502Y214272D02*
D03*
X721502D02*
D03*
D28*
X607250Y486000D02*
D03*
Y242000D02*
D03*
D29*
X580250Y461500D02*
D03*
Y456500D02*
D03*
Y451500D02*
D03*
Y446500D02*
D03*
Y441500D02*
D03*
Y436500D02*
D03*
Y431500D02*
D03*
Y426500D02*
D03*
Y421500D02*
D03*
Y416500D02*
D03*
Y411500D02*
D03*
Y406500D02*
D03*
Y401500D02*
D03*
Y396500D02*
D03*
Y391500D02*
D03*
Y386500D02*
D03*
Y381500D02*
D03*
Y376500D02*
D03*
Y371500D02*
D03*
Y366500D02*
D03*
Y361500D02*
D03*
Y356500D02*
D03*
Y351500D02*
D03*
Y346500D02*
D03*
Y341500D02*
D03*
Y336500D02*
D03*
Y331500D02*
D03*
Y326500D02*
D03*
Y321500D02*
D03*
Y316500D02*
D03*
Y311500D02*
D03*
Y306500D02*
D03*
Y301500D02*
D03*
Y296500D02*
D03*
Y291500D02*
D03*
Y286500D02*
D03*
Y281500D02*
D03*
Y276500D02*
D03*
Y271500D02*
D03*
Y266500D02*
D03*
D30*
X1123250Y621250D02*
D03*
Y601250D02*
D03*
X1310750Y425750D02*
D03*
Y405750D02*
D03*
X1354083Y484250D02*
D03*
Y464250D02*
D03*
X1332417Y405750D02*
D03*
Y425750D02*
D03*
X751500Y595000D02*
D03*
Y615000D02*
D03*
X534253Y488281D02*
D03*
Y468281D02*
D03*
X865850Y111759D02*
D03*
Y131759D02*
D03*
X930015Y111759D02*
D03*
Y131759D02*
D03*
X277273Y394288D02*
D03*
Y374288D02*
D03*
X691500Y530561D02*
D03*
Y550561D02*
D03*
X887238Y111759D02*
D03*
Y131759D02*
D03*
X908627Y111759D02*
D03*
Y131759D02*
D03*
X727500Y615000D02*
D03*
Y595000D02*
D03*
X1354083Y405750D02*
D03*
Y425750D02*
D03*
X1375750Y405750D02*
D03*
Y425750D02*
D03*
X1100500Y621250D02*
D03*
Y601250D02*
D03*
X1147500Y621250D02*
D03*
Y601250D02*
D03*
X1170000Y621250D02*
D03*
Y601250D02*
D03*
D31*
X680395Y469895D02*
X690750Y480250D01*
Y529811D02*
X691500Y530561D01*
X690750Y480250D02*
Y529811D01*
X660580Y469895D02*
X680395D01*
X534253Y451247D02*
X534500Y451000D01*
X647500Y470250D02*
X659000D01*
X580250Y426500D02*
X603750D01*
X647500Y470250D01*
X580250Y456500D02*
X621500D01*
X645750Y480750D02*
X676578D01*
X621500Y456500D02*
X645750Y480750D01*
X267583Y295164D02*
X267731Y295312D01*
X561500Y431500D02*
X566500Y426500D01*
X580250D01*
X676578Y480750D02*
X677055Y480273D01*
X556250Y296500D02*
X580250D01*
X550000D02*
X556250D01*
X530750Y215000D02*
X531000Y214750D01*
X530750Y277250D02*
X550000Y296500D01*
X530750Y215000D02*
Y277250D01*
D32*
X534500Y451000D02*
X542000D01*
X292500D02*
X534500D01*
X534253Y451247D02*
Y468281D01*
X790641Y130759D02*
X810300D01*
X778445Y142955D02*
X790641Y130759D01*
X267497Y295250D02*
X267583Y295164D01*
X250250Y295250D02*
X267497D01*
X277000Y435500D02*
X292500Y451000D01*
X277000Y393162D02*
Y435500D01*
X171000Y262250D02*
Y304129D01*
X286731Y296312D02*
X287773Y295270D01*
X286731Y296312D02*
Y320739D01*
X542000Y451000D02*
X561500Y431500D01*
X277231Y344739D02*
Y373745D01*
X277773Y374288D01*
X267731Y295312D02*
Y320739D01*
D33*
X170928Y304201D02*
X171000Y304129D01*
X210000Y217250D02*
Y247250D01*
X266849Y235809D02*
Y253958D01*
X174000Y181250D02*
X210000Y217250D01*
X266849Y253958D02*
X267773Y254882D01*
X287773D02*
Y295270D01*
X174000Y45500D02*
Y181250D01*
Y45500D02*
X187250Y32250D01*
X249750D02*
X258950Y41450D01*
X187250Y32250D02*
X249750D01*
X258950Y41450D02*
Y63100D01*
X75235Y323765D02*
X165250Y233750D01*
X75235Y323765D02*
Y518775D01*
X778372Y143872D02*
Y161408D01*
X699250Y613750D02*
X953750D01*
X982600Y584900D01*
X556500Y214750D02*
X567500Y203750D01*
X280000Y88750D02*
X284350Y84400D01*
X236250Y88750D02*
X280000D01*
X199500Y184250D02*
X221000Y162750D01*
Y95000D02*
Y162750D01*
X208150Y82150D02*
X221000Y95000D01*
X208150Y63100D02*
Y82150D01*
X284350Y63100D02*
Y84400D01*
X531000Y214750D02*
X556500D01*
D34*
X1231755Y508634D02*
D03*
D35*
X1312505Y483634D02*
D03*
Y533634D02*
D03*
X1147505Y483634D02*
D03*
Y508634D02*
D03*
Y533634D02*
D03*
D36*
X1280800Y401000D02*
D03*
X1255400D02*
D03*
X1204600D02*
D03*
X1230000D02*
D03*
D37*
X1179200D02*
D03*
D38*
X472515Y508749D02*
D03*
D39*
X269485D02*
D03*
D40*
X1371727Y31260D02*
D03*
Y617000D02*
D03*
X28500D02*
D03*
D41*
X722510Y432247D02*
D03*
X594250Y437500D02*
D03*
X660580Y469895D02*
D03*
X649750Y459500D02*
D03*
X210002Y248874D02*
D03*
X266849Y235809D02*
D03*
X75235Y518775D02*
D03*
X677055Y480273D02*
D03*
X522750Y291000D02*
D03*
X512250Y304750D02*
D03*
X483055Y379195D02*
D03*
X614590Y331385D02*
D03*
X651000Y446000D02*
D03*
X655000Y292750D02*
D03*
X998530Y475130D02*
D03*
X976085D02*
D03*
X947500Y525500D02*
D03*
X933500Y522750D02*
D03*
X933261Y488779D02*
D03*
X957683Y480869D02*
D03*
X913152Y496233D02*
D03*
X738750Y117750D02*
D03*
X895500Y478500D02*
D03*
X887250Y97750D02*
D03*
X949043Y110750D02*
D03*
X802258Y111241D02*
D03*
X790408Y54527D02*
D03*
X543000Y269750D02*
D03*
X778445Y142955D02*
D03*
X791068Y180688D02*
D03*
X841943D02*
D03*
X854523Y187687D02*
D03*
X752000D02*
D03*
X646312Y264250D02*
D03*
X469397Y436353D02*
D03*
X385926D02*
D03*
X456596Y421908D02*
D03*
X397918Y421733D02*
D03*
X457955Y464834D02*
D03*
X423260Y464849D02*
D03*
X427000Y490250D02*
D03*
X530920Y379140D02*
D03*
X449156Y339020D02*
D03*
X385855Y323022D02*
D03*
X397905D02*
D03*
X411404D02*
D03*
X423068D02*
D03*
X564027Y338810D02*
D03*
X537957Y338385D02*
D03*
X511680Y362703D02*
D03*
X436958Y323022D02*
D03*
X551384Y323930D02*
D03*
X477000Y369000D02*
D03*
X519592Y315748D02*
D03*
X510177Y337006D02*
D03*
X606317Y306402D02*
D03*
X487413Y152733D02*
D03*
X490000Y360709D02*
D03*
X1135500Y621000D02*
D03*
X1354250Y463750D02*
D03*
X1354500Y405000D02*
D03*
X1230000Y430500D02*
D03*
D42*
X250250Y295250D02*
D03*
X170928Y304201D02*
D03*
X233500Y88750D02*
D03*
X171000Y262250D02*
D03*
D43*
X726856Y330226D02*
D03*
X644750Y327500D02*
D03*
X682250Y331500D02*
D03*
X722347Y350670D02*
D03*
X674156Y306632D02*
D03*
X686133Y323814D02*
D03*
X667574Y361500D02*
D03*
X665083Y344076D02*
D03*
X672748Y352758D02*
D03*
X658905Y366618D02*
D03*
X562954Y367610D02*
D03*
X549500Y372000D02*
D03*
X542250Y380500D02*
D03*
X522250Y396000D02*
D03*
X532500Y402000D02*
D03*
X536500Y410000D02*
D03*
X543786Y415250D02*
D03*
X537500Y421250D02*
D03*
X531000Y427500D02*
D03*
D44*
X1350000Y590000D02*
D03*
X1370000Y550000D02*
D03*
Y470000D02*
D03*
Y390000D02*
D03*
X1310000Y590000D02*
D03*
X1330000Y550000D02*
D03*
Y470000D02*
D03*
Y390000D02*
D03*
X1310000Y30000D02*
D03*
X1270000Y590000D02*
D03*
Y430000D02*
D03*
Y30000D02*
D03*
X1230000Y590000D02*
D03*
Y30000D02*
D03*
X1190000Y590000D02*
D03*
Y30000D02*
D03*
X1150000D02*
D03*
X1110000Y590000D02*
D03*
Y510000D02*
D03*
X1130000Y390000D02*
D03*
X1110000Y30000D02*
D03*
X1090000Y550000D02*
D03*
X1070000Y510000D02*
D03*
X1090000Y470000D02*
D03*
Y390000D02*
D03*
X1050000Y550000D02*
D03*
X1030000Y510000D02*
D03*
Y430000D02*
D03*
X1050000Y390000D02*
D03*
X950000Y590000D02*
D03*
Y350000D02*
D03*
Y270000D02*
D03*
Y190000D02*
D03*
X910000Y590000D02*
D03*
Y430000D02*
D03*
X930000Y390000D02*
D03*
X910000Y350000D02*
D03*
X930000Y310000D02*
D03*
X910000Y270000D02*
D03*
X930000Y230000D02*
D03*
X910000Y190000D02*
D03*
X930000Y150000D02*
D03*
X870000Y590000D02*
D03*
Y430000D02*
D03*
X890000Y390000D02*
D03*
X870000Y350000D02*
D03*
X890000Y310000D02*
D03*
X870000Y270000D02*
D03*
X890000Y230000D02*
D03*
X830000Y590000D02*
D03*
X850000Y470000D02*
D03*
X830000Y430000D02*
D03*
X850000Y390000D02*
D03*
X830000Y350000D02*
D03*
X850000Y310000D02*
D03*
X830000Y270000D02*
D03*
X790000Y590000D02*
D03*
X810000Y470000D02*
D03*
Y390000D02*
D03*
Y310000D02*
D03*
X790000Y110000D02*
D03*
X750000Y430000D02*
D03*
Y350000D02*
D03*
Y270000D02*
D03*
X770000Y230000D02*
D03*
X710000Y590000D02*
D03*
Y510000D02*
D03*
Y110000D02*
D03*
X730000Y70000D02*
D03*
X670000Y510000D02*
D03*
X690000Y230000D02*
D03*
X650000D02*
D03*
X550000Y590000D02*
D03*
X570000Y470000D02*
D03*
X510000Y590000D02*
D03*
Y510000D02*
D03*
X470000Y590000D02*
D03*
X490000Y230000D02*
D03*
X430000Y590000D02*
D03*
Y510000D02*
D03*
Y350000D02*
D03*
Y190000D02*
D03*
X390000Y590000D02*
D03*
Y510000D02*
D03*
X350000Y590000D02*
D03*
Y510000D02*
D03*
X370000Y470000D02*
D03*
X350000Y430000D02*
D03*
X310000Y590000D02*
D03*
Y510000D02*
D03*
X330000Y470000D02*
D03*
X310000Y430000D02*
D03*
X330000Y390000D02*
D03*
X270000Y590000D02*
D03*
Y110000D02*
D03*
X230000Y590000D02*
D03*
Y190000D02*
D03*
X250000Y150000D02*
D03*
X190000Y590000D02*
D03*
X210000Y150000D02*
D03*
X190000Y110000D02*
D03*
X150000Y590000D02*
D03*
Y510000D02*
D03*
Y430000D02*
D03*
Y350000D02*
D03*
Y270000D02*
D03*
X110000Y590000D02*
D03*
X130000Y470000D02*
D03*
X110000Y350000D02*
D03*
X130000Y310000D02*
D03*
X70000Y590000D02*
D03*
X90000Y470000D02*
D03*
Y390000D02*
D03*
Y230000D02*
D03*
X50000Y470000D02*
D03*
X30000Y350000D02*
D03*
X50000Y310000D02*
D03*
D45*
X567500Y203750D02*
D03*
X165250Y233750D02*
D03*
X198500Y185250D02*
D03*
X531000Y214750D02*
D03*
D46*
X1231685Y227257D02*
D03*
D47*
X286731Y320739D02*
D03*
X267731D02*
D03*
X277231Y344739D02*
D03*
D48*
X867272Y161408D02*
D03*
X854572D02*
D03*
X841872D02*
D03*
X829172D02*
D03*
X816472D02*
D03*
X803772D02*
D03*
X791072D02*
D03*
X778372D02*
D03*
X867272Y219408D02*
D03*
X854572D02*
D03*
X841872D02*
D03*
X829172D02*
D03*
X816472D02*
D03*
X803772D02*
D03*
X791072D02*
D03*
X778372D02*
D03*
D49*
X462189Y63100D02*
D03*
X487589D02*
D03*
X512989D02*
D03*
X538389D02*
D03*
X563789D02*
D03*
X589189D02*
D03*
X614589D02*
D03*
X639989D02*
D03*
X665389D02*
D03*
X690789D02*
D03*
Y118500D02*
D03*
X665389D02*
D03*
X639989D02*
D03*
X614589D02*
D03*
X589189D02*
D03*
X563789D02*
D03*
X538389D02*
D03*
X512989D02*
D03*
X487589D02*
D03*
X462189D02*
D03*
X208150Y63100D02*
D03*
X233550D02*
D03*
X258950D02*
D03*
X284350D02*
D03*
X309750D02*
D03*
X335150D02*
D03*
X360550D02*
D03*
X385950D02*
D03*
X411350D02*
D03*
X436750D02*
D03*
Y118500D02*
D03*
X411350D02*
D03*
X385950D02*
D03*
X360550D02*
D03*
X335150D02*
D03*
X309750D02*
D03*
X284350D02*
D03*
X258950D02*
D03*
X233550D02*
D03*
X208150D02*
D03*
D50*
X632750Y603750D02*
D03*
D51*
X609750Y545750D02*
D03*
X632750D02*
D03*
X655750D02*
D03*
D52*
X564458Y577500D02*
D03*
Y612500D02*
D03*
X698000Y612500D02*
D03*
Y577500D02*
D03*
D53*
X158250Y40673D02*
X175891Y23032D01*
X158250Y40673D02*
Y185500D01*
X185000Y212250D01*
Y507000D01*
X255500Y577500D01*
X230250Y204500D02*
Y520750D01*
X252250Y542750D02*
X541000D01*
X230250Y520750D02*
X252250Y542750D01*
X230250Y204500D02*
X284000Y150750D01*
X632750Y522000D02*
Y545750D01*
X628000Y517250D02*
X632750Y522000D01*
X541000Y542750D02*
X566500Y517250D01*
X628000D01*
X175891Y23032D02*
X297032D01*
X309750Y35750D01*
Y63100D01*
X284000Y125500D02*
Y150750D01*
X255500Y577500D02*
X564458D01*
Y551042D02*
X569750Y545750D01*
X609750D01*
X564458Y551042D02*
Y577500D01*
D54*
X632750Y545750D02*
Y603750D01*
X641500Y612500D02*
X698000D01*
M02*
