G04*
G04 #@! TF.GenerationSoftware,Altium Limited,Altium Designer,21.0.6 (86)*
G04*
G04 Layer_Color=8388736*
%FSLAX25Y25*%
%MOIN*%
G70*
G04*
G04 #@! TF.SameCoordinates,573F4C1C-41E7-4716-BA84-A8DF11FC348D*
G04*
G04*
G04 #@! TF.FilePolarity,Negative*
G04*
G01*
G75*
%ADD13R,0.05721X0.04737*%
%ADD14R,0.04737X0.05721*%
%ADD15R,0.12611X0.08674*%
%ADD16C,0.08674*%
%ADD17R,0.08674X0.08674*%
%ADD18P,0.13650X8X202.5*%
%ADD19C,0.12611*%
%ADD20C,0.07493*%
%ADD21O,0.07493X0.06312*%
%ADD22O,0.07493X0.06706*%
%ADD23R,0.07493X0.07493*%
G04:AMPARAMS|DCode=24|XSize=78.87mil|YSize=86.74mil|CornerRadius=21.72mil|HoleSize=0mil|Usage=FLASHONLY|Rotation=270.000|XOffset=0mil|YOffset=0mil|HoleType=Round|Shape=RoundedRectangle|*
%AMROUNDEDRECTD24*
21,1,0.07887,0.04331,0,0,270.0*
21,1,0.03543,0.08674,0,0,270.0*
1,1,0.04343,-0.02165,-0.01772*
1,1,0.04343,-0.02165,0.01772*
1,1,0.04343,0.02165,0.01772*
1,1,0.04343,0.02165,-0.01772*
%
%ADD24ROUNDEDRECTD24*%
%ADD25C,0.40170*%
%ADD26C,0.20485*%
%ADD27C,0.13398*%
%ADD28C,0.59855*%
D13*
X340354Y16628D02*
D03*
Y8754D02*
D03*
X223622Y16628D02*
D03*
Y8754D02*
D03*
X75492Y16628D02*
D03*
Y8754D02*
D03*
X312402Y16628D02*
D03*
Y8754D02*
D03*
D14*
X40557Y123425D02*
D03*
X48431D02*
D03*
X40557Y177953D02*
D03*
X48431D02*
D03*
D15*
X45669Y95588D02*
D03*
Y111927D02*
D03*
X13386Y95588D02*
D03*
Y111927D02*
D03*
X354724Y25886D02*
D03*
Y9547D02*
D03*
X387008Y25886D02*
D03*
Y9547D02*
D03*
X266465Y25886D02*
D03*
Y9547D02*
D03*
X298748Y25886D02*
D03*
Y9547D02*
D03*
X178205Y25886D02*
D03*
Y9547D02*
D03*
X210489Y25886D02*
D03*
Y9547D02*
D03*
X89946Y25886D02*
D03*
Y9547D02*
D03*
X122229Y25886D02*
D03*
Y9547D02*
D03*
X45669Y150058D02*
D03*
Y166396D02*
D03*
X13386Y150058D02*
D03*
Y166396D02*
D03*
D16*
X504252Y157874D02*
D03*
X494252D02*
D03*
X474252D02*
D03*
X484252D02*
D03*
X16535Y221555D02*
D03*
Y203839D02*
D03*
X42126Y221555D02*
D03*
Y203839D02*
D03*
X209055Y75098D02*
D03*
Y96161D02*
D03*
X116043Y93799D02*
D03*
D17*
X464252Y157874D02*
D03*
D18*
X186030Y200295D02*
D03*
D19*
X106096D02*
D03*
D20*
X402854Y60276D02*
D03*
X412854D02*
D03*
Y70276D02*
D03*
X402854D02*
D03*
X412854Y80276D02*
D03*
X402854D02*
D03*
X412854Y90276D02*
D03*
X402854D02*
D03*
X412854Y100276D02*
D03*
X402854D02*
D03*
X412854Y110276D02*
D03*
X402854D02*
D03*
X412854Y120276D02*
D03*
X402854D02*
D03*
X412854Y130276D02*
D03*
X402854D02*
D03*
X412854Y190276D02*
D03*
X402854D02*
D03*
X412854Y200276D02*
D03*
X402854Y220276D02*
D03*
X412854Y230276D02*
D03*
D21*
Y140276D02*
D03*
X402854D02*
D03*
X412854Y150276D02*
D03*
X402854D02*
D03*
X412854Y170276D02*
D03*
X402854D02*
D03*
X412854Y180276D02*
D03*
X402854D02*
D03*
Y200276D02*
D03*
X412854Y210276D02*
D03*
X402854D02*
D03*
X412854Y220276D02*
D03*
D22*
Y160276D02*
D03*
X402854D02*
D03*
D23*
Y230276D02*
D03*
D24*
X451774Y210092D02*
D03*
Y200250D02*
D03*
Y190407D02*
D03*
X516734Y210092D02*
D03*
Y190407D02*
D03*
D25*
X484943Y200250D02*
D03*
D26*
X540050Y12307D02*
D03*
Y242913D02*
D03*
X11220D02*
D03*
D27*
X70153Y244276D02*
D03*
Y45776D02*
D03*
X408343D02*
D03*
Y244276D02*
D03*
D28*
X484915Y89472D02*
D03*
M02*
