G04*
G04 #@! TF.GenerationSoftware,Altium Limited,Altium Designer,21.0.6 (86)*
G04*
G04 Layer_Physical_Order=1*
G04 Layer_Color=255*
%FSLAX25Y25*%
%MOIN*%
G70*
G04*
G04 #@! TF.SameCoordinates,573F4C1C-41E7-4716-BA84-A8DF11FC348D*
G04*
G04*
G04 #@! TF.FilePolarity,Positive*
G04*
G01*
G75*
%ADD11C,0.00787*%
%ADD29R,0.04921X0.03937*%
%ADD30R,0.03937X0.04921*%
%ADD31R,0.11811X0.07874*%
%ADD32C,0.01575*%
%ADD33C,0.02362*%
%ADD34C,0.07874*%
%ADD35R,0.07874X0.07874*%
%ADD36P,0.12784X8X202.5*%
%ADD37C,0.11811*%
%ADD38C,0.06693*%
%ADD39O,0.06693X0.05512*%
%ADD40O,0.06693X0.05906*%
%ADD41R,0.06693X0.06693*%
G04:AMPARAMS|DCode=42|XSize=70.87mil|YSize=78.74mil|CornerRadius=17.72mil|HoleSize=0mil|Usage=FLASHONLY|Rotation=270.000|XOffset=0mil|YOffset=0mil|HoleType=Round|Shape=RoundedRectangle|*
%AMROUNDEDRECTD42*
21,1,0.07087,0.04331,0,0,270.0*
21,1,0.03543,0.07874,0,0,270.0*
1,1,0.03543,-0.02165,-0.01772*
1,1,0.03543,-0.02165,0.01772*
1,1,0.03543,0.02165,0.01772*
1,1,0.03543,0.02165,-0.01772*
%
%ADD42ROUNDEDRECTD42*%
%ADD43C,0.39370*%
%ADD44C,0.19685*%
%ADD45C,0.02756*%
%ADD46C,0.03150*%
%ADD47C,0.03937*%
%ADD48C,0.12598*%
%ADD49C,0.59055*%
G36*
X549977Y1204D02*
X58291Y1204D01*
Y84842D01*
X58199Y85303D01*
X57938Y85694D01*
X57547Y85955D01*
X57087Y86047D01*
X1204D01*
X1204Y252733D01*
X549977D01*
X549977Y1204D01*
D02*
G37*
%LPC*%
G36*
X70153Y251396D02*
X68764Y251260D01*
X67428Y250854D01*
X66197Y250196D01*
X65118Y249311D01*
X64233Y248232D01*
X63575Y247001D01*
X63169Y245665D01*
X63033Y244276D01*
X63169Y242886D01*
X63575Y241550D01*
X64233Y240319D01*
X65118Y239240D01*
X66197Y238355D01*
X67428Y237697D01*
X68764Y237292D01*
X70153Y237155D01*
X71543Y237292D01*
X72879Y237697D01*
X74110Y238355D01*
X75189Y239240D01*
X76074Y240319D01*
X76732Y241550D01*
X77138Y242886D01*
X77274Y244276D01*
X77138Y245665D01*
X76732Y247001D01*
X76074Y248232D01*
X75189Y249311D01*
X74110Y250196D01*
X72879Y250854D01*
X71543Y251260D01*
X70153Y251396D01*
D02*
G37*
G36*
X398917Y225417D02*
X398917Y225417D01*
X354206D01*
X354206Y225417D01*
X353746Y225325D01*
X353355Y225064D01*
X353355Y225064D01*
X345935Y217644D01*
X345601Y217337D01*
X344956Y216806D01*
X344688Y216616D01*
X344445Y216464D01*
X344238Y216357D01*
X344073Y216291D01*
X343965Y216264D01*
X343868Y216283D01*
X342947Y216100D01*
X342165Y215578D01*
X341643Y214796D01*
X341460Y213875D01*
X341643Y212953D01*
X342165Y212172D01*
X342947Y211649D01*
X343868Y211466D01*
X344790Y211649D01*
X345571Y212172D01*
X346094Y212953D01*
X346277Y213875D01*
X346257Y213971D01*
X346285Y214079D01*
X346351Y214244D01*
X346458Y214451D01*
X346609Y214694D01*
X346795Y214956D01*
X347653Y215956D01*
X354705Y223008D01*
X398416D01*
X398603Y222814D01*
X398987Y222369D01*
X399111Y222207D01*
X399153Y222143D01*
X398827Y221355D01*
X398685Y220276D01*
X398827Y219196D01*
X399243Y218191D01*
X399906Y217327D01*
X400138Y217149D01*
X400256Y217059D01*
X400086Y216559D01*
X393609D01*
X389336Y220832D01*
X388945Y221093D01*
X388484Y221185D01*
X388484Y221184D01*
X359944D01*
X359944Y221185D01*
X359483Y221093D01*
X359093Y220832D01*
X356409Y218148D01*
X356076Y217842D01*
X355430Y217310D01*
X355163Y217120D01*
X354920Y216969D01*
X354712Y216861D01*
X354547Y216796D01*
X354440Y216768D01*
X354343Y216787D01*
X353421Y216604D01*
X352640Y216082D01*
X352117Y215301D01*
X351934Y214379D01*
X352117Y213457D01*
X352640Y212676D01*
X353421Y212154D01*
X354343Y211970D01*
X355264Y212154D01*
X356046Y212676D01*
X356568Y213457D01*
X356751Y214379D01*
X356732Y214476D01*
X356759Y214583D01*
X356825Y214749D01*
X356933Y214956D01*
X357084Y215199D01*
X357269Y215460D01*
X358127Y216460D01*
X360443Y218776D01*
X363219D01*
X363370Y218276D01*
X363218Y218174D01*
X363218Y218174D01*
X362902Y217858D01*
X362717Y217680D01*
X362306Y217318D01*
X362152Y217196D01*
X362028Y217109D01*
X362006Y217096D01*
X361529Y217190D01*
X360607Y217007D01*
X359826Y216485D01*
X359304Y215704D01*
X359120Y214782D01*
X359304Y213860D01*
X359826Y213079D01*
X360607Y212557D01*
X361529Y212373D01*
X362451Y212557D01*
X363232Y213079D01*
X363754Y213860D01*
X363937Y214782D01*
X363843Y215259D01*
X363856Y215281D01*
X363931Y215387D01*
X364574Y216119D01*
X385918D01*
X387741Y214296D01*
X387494Y213836D01*
X387335Y213867D01*
X387215Y213891D01*
X387215Y213891D01*
X374328D01*
X373876Y213910D01*
X373043Y213990D01*
X372719Y214045D01*
X372441Y214110D01*
X372218Y214181D01*
X372055Y214251D01*
X371959Y214308D01*
X371904Y214390D01*
X371123Y214912D01*
X370201Y215095D01*
X369280Y214912D01*
X368498Y214390D01*
X367976Y213609D01*
X367793Y212687D01*
X367976Y211765D01*
X368498Y210984D01*
X369280Y210462D01*
X370201Y210278D01*
X371123Y210462D01*
X371904Y210984D01*
X371959Y211066D01*
X372055Y211122D01*
X372218Y211193D01*
X372441Y211263D01*
X372719Y211329D01*
X373035Y211382D01*
X374349Y211483D01*
X384106D01*
X384258Y210983D01*
X384130Y210898D01*
X383608Y210116D01*
X383425Y209194D01*
X383608Y208273D01*
X384130Y207491D01*
X384680Y207124D01*
X384574Y206594D01*
X384448Y206569D01*
X383933Y206466D01*
X383151Y205944D01*
X382629Y205163D01*
X382446Y204241D01*
X382629Y203319D01*
X383151Y202538D01*
X383933Y202016D01*
X384855Y201833D01*
X384951Y201852D01*
X385059Y201824D01*
X385224Y201759D01*
X385431Y201651D01*
X385675Y201500D01*
X385936Y201315D01*
X386936Y200457D01*
X387968Y199424D01*
X388359Y199163D01*
X388820Y199071D01*
X388820Y199071D01*
X398927D01*
X399169Y198489D01*
X399737Y197748D01*
X400477Y197180D01*
X401339Y196824D01*
X402264Y196702D01*
X403445D01*
X404370Y196824D01*
X405232Y197180D01*
X405972Y197748D01*
X406540Y198489D01*
X406897Y199351D01*
X407019Y200276D01*
X406897Y201201D01*
X406540Y202063D01*
X405972Y202803D01*
X405935Y202831D01*
X405817Y202922D01*
X405987Y203422D01*
X408005D01*
X408036Y203391D01*
X408588Y202779D01*
X408794Y202521D01*
X408954Y202297D01*
X409063Y202121D01*
X409106Y202029D01*
X408827Y201355D01*
X408685Y200276D01*
X408827Y199196D01*
X409243Y198191D01*
X409906Y197327D01*
X410770Y196665D01*
X411775Y196248D01*
X412854Y196106D01*
X413934Y196248D01*
X414939Y196665D01*
X415803Y197327D01*
X416465Y198191D01*
X416882Y199196D01*
X417024Y200276D01*
X416882Y201355D01*
X416465Y202360D01*
X415803Y203224D01*
X414939Y203887D01*
X413934Y204303D01*
X412854Y204445D01*
X411775Y204303D01*
X411100Y204024D01*
X411009Y204067D01*
X410833Y204175D01*
X410623Y204326D01*
X409728Y205105D01*
X409355Y205477D01*
X409337Y205665D01*
X410742Y207071D01*
X411339Y206823D01*
X412264Y206702D01*
X413445D01*
X414370Y206823D01*
X415232Y207181D01*
X415972Y207749D01*
X416540Y208489D01*
X416897Y209351D01*
X417019Y210276D01*
X416897Y211201D01*
X416540Y212063D01*
X416147Y212575D01*
X416077Y212666D01*
X416267Y213166D01*
X429418D01*
X429418Y213166D01*
X429879Y213258D01*
X430270Y213519D01*
X430901Y214150D01*
X431700D01*
X432153Y214131D01*
X432985Y214051D01*
X433309Y213996D01*
X433588Y213931D01*
X433810Y213860D01*
X433973Y213790D01*
X434069Y213734D01*
X434124Y213651D01*
X434905Y213129D01*
X435827Y212946D01*
X436749Y213129D01*
X437530Y213651D01*
X438052Y214433D01*
X438235Y215354D01*
X438052Y216276D01*
X437530Y217057D01*
X436749Y217580D01*
X435827Y217763D01*
X434905Y217580D01*
X434124Y217057D01*
X434069Y216975D01*
X433973Y216919D01*
X433810Y216848D01*
X433588Y216778D01*
X433309Y216713D01*
X432993Y216659D01*
X431679Y216559D01*
X430403D01*
X430403Y216559D01*
X429942Y216467D01*
X429551Y216206D01*
X428920Y215574D01*
X410790D01*
X410507Y215518D01*
X410260Y215979D01*
X411134Y216853D01*
X411169Y216883D01*
X411179Y216890D01*
X411339Y216824D01*
X412264Y216702D01*
X413445D01*
X414370Y216824D01*
X415232Y217180D01*
X415972Y217748D01*
X416540Y218489D01*
X416897Y219351D01*
X417019Y220276D01*
X416897Y221201D01*
X416540Y222062D01*
X415972Y222803D01*
X415232Y223371D01*
X414370Y223728D01*
X413445Y223850D01*
X412264D01*
X411339Y223728D01*
X410477Y223371D01*
X409737Y222803D01*
X409169Y222062D01*
X408812Y221201D01*
X408690Y220276D01*
X408812Y219351D01*
X409169Y218489D01*
X409254Y218378D01*
X407434Y216559D01*
X405622D01*
X405452Y217059D01*
X405624Y217190D01*
X405803Y217327D01*
X406465Y218191D01*
X406882Y219196D01*
X407024Y220276D01*
X406882Y221355D01*
X406465Y222360D01*
X405803Y223224D01*
X404939Y223886D01*
X403933Y224303D01*
X402854Y224445D01*
X401775Y224303D01*
X400987Y223977D01*
X400945Y224005D01*
X400085Y224748D01*
X399769Y225064D01*
X399378Y225325D01*
X398917Y225417D01*
D02*
G37*
G36*
X42626Y226469D02*
Y222055D01*
X47040D01*
X46936Y222844D01*
X46439Y224045D01*
X45647Y225076D01*
X44616Y225868D01*
X43415Y226365D01*
X42626Y226469D01*
D02*
G37*
G36*
X17035Y226469D02*
Y222055D01*
X21449D01*
X21345Y222844D01*
X20848Y224045D01*
X20056Y225076D01*
X19025Y225868D01*
X17824Y226365D01*
X17035Y226469D01*
D02*
G37*
G36*
X16035Y226469D02*
X15247Y226365D01*
X14046Y225868D01*
X13014Y225076D01*
X12223Y224045D01*
X11726Y222844D01*
X11622Y222055D01*
X16035D01*
Y226469D01*
D02*
G37*
G36*
X41626D02*
X40837Y226365D01*
X39636Y225868D01*
X38605Y225076D01*
X37813Y224045D01*
X37316Y222844D01*
X37212Y222055D01*
X41626D01*
Y226469D01*
D02*
G37*
G36*
X317132Y221769D02*
X317132Y221769D01*
X171057D01*
X171057Y221769D01*
X170596Y221678D01*
X170206Y221417D01*
X170206Y221417D01*
X161119Y212330D01*
X160858Y211939D01*
X160766Y211478D01*
X160766Y211478D01*
Y131301D01*
X160747Y130848D01*
X160667Y130016D01*
X160612Y129692D01*
X160547Y129413D01*
X160476Y129191D01*
X160406Y129027D01*
X160350Y128932D01*
X160267Y128877D01*
X159745Y128096D01*
X159626Y127498D01*
X159562Y127174D01*
X159745Y126252D01*
X160267Y125471D01*
X161049Y124949D01*
X161970Y124765D01*
X162892Y124949D01*
X163673Y125471D01*
X163911Y125827D01*
X163965Y125908D01*
X164567D01*
X164859Y125471D01*
X165640Y124949D01*
X166562Y124765D01*
X167484Y124949D01*
X168265Y125471D01*
X168787Y126252D01*
X168971Y127174D01*
X168787Y128096D01*
X168265Y128877D01*
X168183Y128932D01*
X168126Y129027D01*
X168056Y129191D01*
X167985Y129413D01*
X167920Y129692D01*
X167867Y130008D01*
X167766Y131322D01*
Y178863D01*
X167786Y179320D01*
X167868Y180149D01*
X167924Y180467D01*
X167991Y180739D01*
X168061Y180953D01*
X168131Y181105D01*
X168187Y181195D01*
X168213Y181223D01*
X168341Y181308D01*
X168863Y182090D01*
X169046Y183011D01*
X168863Y183933D01*
X168341Y184714D01*
X167559Y185237D01*
X166638Y185420D01*
X165716Y185237D01*
X164935Y184714D01*
X164413Y183933D01*
X164229Y183011D01*
X164413Y182090D01*
X164935Y181308D01*
X164980Y181278D01*
X165018Y181209D01*
X165085Y181044D01*
X165152Y180818D01*
X165213Y180536D01*
X165264Y180216D01*
X165358Y178898D01*
Y131301D01*
X165339Y130848D01*
X165259Y130016D01*
X165204Y129692D01*
X165139Y129413D01*
X165068Y129191D01*
X164998Y129027D01*
X164941Y128932D01*
X164859Y128877D01*
X164567Y128440D01*
X163965D01*
X163911Y128521D01*
X163820Y128657D01*
X163673Y128877D01*
X163591Y128932D01*
X163535Y129027D01*
X163464Y129191D01*
X163394Y129413D01*
X163329Y129692D01*
X163275Y130008D01*
X163174Y131322D01*
Y210979D01*
X171556Y219361D01*
X178225D01*
X178416Y218899D01*
X178333Y218815D01*
X176177Y216659D01*
X173952Y214434D01*
X173691Y214043D01*
X173599Y213583D01*
X173599Y213583D01*
Y189706D01*
X173445Y189650D01*
X173099Y189623D01*
X172890Y189935D01*
X172890D01*
D01*
X172890Y189935D01*
X171880Y190945D01*
X171573Y191279D01*
X171041Y191924D01*
X170851Y192192D01*
X170700Y192435D01*
X170593Y192642D01*
X170527Y192807D01*
X170499Y192915D01*
X170519Y193012D01*
X170335Y193933D01*
X169813Y194715D01*
X169032Y195237D01*
X168110Y195420D01*
X167189Y195237D01*
X166407Y194715D01*
X165885Y193933D01*
X165702Y193012D01*
X165885Y192090D01*
X166407Y191309D01*
X167189Y190787D01*
X168110Y190603D01*
X168207Y190623D01*
X168315Y190595D01*
X168480Y190529D01*
X168687Y190422D01*
X168930Y190271D01*
X169192Y190085D01*
X170191Y189228D01*
X170835Y188584D01*
Y131304D01*
X170816Y130850D01*
X170735Y130018D01*
X170680Y129695D01*
X170615Y129417D01*
X170544Y129195D01*
X170474Y129033D01*
X170416Y128936D01*
X170328Y128877D01*
X169806Y128096D01*
X169622Y127174D01*
X169806Y126252D01*
X170328Y125471D01*
X171109Y124949D01*
X172031Y124765D01*
X172952Y124949D01*
X173734Y125471D01*
X174256Y126252D01*
X174439Y127174D01*
X174256Y128096D01*
X173734Y128877D01*
X173658Y128928D01*
X173603Y129021D01*
X173532Y129186D01*
X173462Y129409D01*
X173397Y129689D01*
X173343Y130005D01*
X173243Y131319D01*
Y141692D01*
Y141924D01*
X173397Y141979D01*
X173743Y142007D01*
X173952Y141695D01*
X175629Y140018D01*
Y137599D01*
X175610Y137147D01*
X175530Y136314D01*
X175475Y135990D01*
X175410Y135712D01*
X175339Y135489D01*
X175269Y135326D01*
X175212Y135230D01*
X175130Y135176D01*
X174608Y134394D01*
X174425Y133472D01*
X174608Y132551D01*
X175130Y131769D01*
X175911Y131247D01*
X176833Y131064D01*
X177755Y131247D01*
X178536Y131769D01*
X179058Y132551D01*
X179242Y133472D01*
X179058Y134394D01*
X178536Y135176D01*
X178454Y135230D01*
X178397Y135326D01*
X178327Y135489D01*
X178256Y135712D01*
X178191Y135990D01*
X178138Y136306D01*
X178037Y137620D01*
Y140517D01*
X177946Y140978D01*
X177685Y141368D01*
X177684Y141368D01*
X176007Y143045D01*
Y147995D01*
Y148012D01*
X176471Y148315D01*
X176507Y148310D01*
X177006Y147565D01*
X177787Y147043D01*
X178709Y146859D01*
X179630Y147043D01*
X180412Y147565D01*
X180467Y147647D01*
X180562Y147703D01*
X180725Y147774D01*
X180948Y147844D01*
X181226Y147909D01*
X181542Y147963D01*
X182856Y148064D01*
X187140D01*
X187189Y147564D01*
X186874Y147501D01*
X186832Y147473D01*
D01*
X186394Y147180D01*
X186092Y146979D01*
X185570Y146197D01*
X185387Y145276D01*
X185570Y144354D01*
X186092Y143572D01*
X186174Y143518D01*
X186231Y143422D01*
X186301Y143259D01*
X186372Y143036D01*
X186437Y142758D01*
X186490Y142442D01*
X186591Y141128D01*
Y131890D01*
X186591Y131890D01*
X186683Y131429D01*
X186944Y131038D01*
X194523Y123459D01*
X194914Y123198D01*
X195375Y123106D01*
X200437D01*
X200889Y123087D01*
X201722Y123007D01*
X202046Y122952D01*
X202324Y122887D01*
X202547Y122816D01*
X202710Y122746D01*
X202806Y122689D01*
X202861Y122607D01*
X203642Y122085D01*
X204564Y121902D01*
X205485Y122085D01*
X206267Y122607D01*
X206789Y123389D01*
X206972Y124310D01*
X206789Y125232D01*
X206391Y125827D01*
X206628Y126327D01*
X212953D01*
X213406Y126308D01*
X214239Y126228D01*
X214563Y126173D01*
X214841Y126108D01*
X215064Y126037D01*
X215227Y125967D01*
X215322Y125911D01*
X215377Y125828D01*
X216159Y125306D01*
X217080Y125123D01*
X218002Y125306D01*
X218783Y125828D01*
X219306Y126610D01*
X219489Y127531D01*
X219306Y128453D01*
X219160Y128672D01*
X219099Y128762D01*
X219366Y129262D01*
X237838D01*
X238290Y129243D01*
X239123Y129163D01*
X239447Y129108D01*
X239725Y129043D01*
X239948Y128972D01*
X240111Y128902D01*
X240207Y128846D01*
X240262Y128763D01*
X241043Y128241D01*
X241965Y128058D01*
X242886Y128241D01*
X243668Y128763D01*
X244190Y129545D01*
X244373Y130466D01*
X244190Y131388D01*
X243668Y132169D01*
X243095Y132552D01*
D01*
X242994Y132620D01*
X242988Y132646D01*
X243004Y133042D01*
X243038Y133146D01*
X243162Y133175D01*
X243212Y133183D01*
X243478Y133228D01*
X244792Y133329D01*
X253992D01*
X256967Y130354D01*
X257273Y130020D01*
X257805Y129375D01*
X257995Y129108D01*
X258146Y128864D01*
X258254Y128657D01*
X258319Y128492D01*
X258347Y128384D01*
X258328Y128287D01*
X258511Y127366D01*
X259033Y126584D01*
X259814Y126062D01*
X260736Y125879D01*
X261272Y125986D01*
X261519Y125525D01*
X257288Y121294D01*
X256912Y120918D01*
X256240Y120247D01*
X252356Y116362D01*
X221070D01*
X218632Y118800D01*
X218325Y119133D01*
X217793Y119779D01*
X217603Y120046D01*
X217452Y120289D01*
X217345Y120496D01*
X217279Y120662D01*
X217251Y120769D01*
X217271Y120866D01*
X217087Y121788D01*
X216565Y122569D01*
X215784Y123091D01*
X214862Y123275D01*
X213941Y123091D01*
X213159Y122569D01*
X212637Y121788D01*
X212454Y120866D01*
X212637Y119945D01*
X213159Y119163D01*
X213941Y118641D01*
X214862Y118458D01*
X214959Y118477D01*
X215067Y118449D01*
X215232Y118384D01*
X215439Y118276D01*
X215682Y118125D01*
X215943Y117940D01*
X216943Y117082D01*
X219719Y114306D01*
X219719Y114306D01*
X220110Y114045D01*
X220571Y113953D01*
X252783D01*
X252910Y113785D01*
X253012Y113475D01*
X252921Y113384D01*
D01*
X251470Y111933D01*
X214869D01*
X212333Y114469D01*
X212026Y114802D01*
X211494Y115448D01*
X211304Y115715D01*
X211153Y115959D01*
X211046Y116166D01*
X210980Y116331D01*
X210952Y116438D01*
X210971Y116535D01*
X210788Y117457D01*
X210266Y118238D01*
X209485Y118761D01*
X208563Y118944D01*
X207641Y118761D01*
X206860Y118238D01*
X206338Y117457D01*
X206154Y116535D01*
X206338Y115614D01*
X206860Y114832D01*
X207641Y114310D01*
X208563Y114127D01*
X208660Y114146D01*
X208767Y114119D01*
X208933Y114053D01*
X209140Y113946D01*
X209383Y113795D01*
X209644Y113609D01*
X210644Y112751D01*
X213325Y110070D01*
X213118Y109570D01*
X93609D01*
X74925Y128255D01*
Y163189D01*
X74833Y163650D01*
X74572Y164041D01*
X70832Y167781D01*
X70441Y168042D01*
X69980Y168133D01*
X69980Y168133D01*
X52362D01*
Y171121D01*
X50438D01*
Y174705D01*
X51187D01*
Y181201D01*
X45676D01*
Y174705D01*
X46424D01*
Y171121D01*
X38976D01*
Y168403D01*
X20079D01*
Y171121D01*
X6693D01*
Y161672D01*
X20079D01*
Y164389D01*
X38976D01*
Y161672D01*
X52362D01*
Y165725D01*
X69481D01*
X72516Y162690D01*
Y127756D01*
X72516Y127756D01*
X72608Y127295D01*
X72869Y126904D01*
X74682Y125091D01*
X74491Y124629D01*
X51187D01*
Y126673D01*
X45676D01*
Y120177D01*
X46481D01*
X46522Y117829D01*
X46485Y116651D01*
X38976D01*
Y113934D01*
X20079D01*
Y116651D01*
X6693D01*
Y107202D01*
X20079D01*
Y109920D01*
X38976D01*
Y107202D01*
X52362D01*
Y116651D01*
X50861D01*
X50513Y117010D01*
X50536Y117752D01*
X50531Y117783D01*
X50537Y117815D01*
Y117815D01*
X50533Y117833D01*
X50537Y117850D01*
X50502Y119820D01*
X50853Y120177D01*
X51187D01*
Y122221D01*
X75325D01*
X91606Y105940D01*
X91997Y105679D01*
X92458Y105587D01*
X250784D01*
X250804Y105087D01*
X250264Y105043D01*
X227362D01*
X227362Y105043D01*
X226901Y104951D01*
X226511Y104690D01*
X226511Y104690D01*
X215585Y93765D01*
X215324Y93374D01*
X215233Y92913D01*
X215233Y92913D01*
Y64771D01*
X211798Y61335D01*
X196022D01*
X195569Y61354D01*
X194736Y61435D01*
X194413Y61489D01*
X194134Y61555D01*
X193912Y61625D01*
X193748Y61696D01*
X193653Y61752D01*
X193598Y61834D01*
X192816Y62356D01*
X191895Y62540D01*
X190973Y62356D01*
X190192Y61834D01*
X189670Y61053D01*
X189486Y60131D01*
X189670Y59210D01*
X190192Y58428D01*
X190973Y57906D01*
X191895Y57723D01*
X192816Y57906D01*
X193598Y58428D01*
X193653Y58510D01*
X193748Y58567D01*
X193912Y58637D01*
X194134Y58708D01*
X194413Y58773D01*
X194729Y58826D01*
X196042Y58927D01*
X212297D01*
X212297Y58927D01*
X212757Y59019D01*
X213148Y59280D01*
X216262Y62394D01*
D01*
X216346Y62477D01*
X216808Y62286D01*
Y48333D01*
X208950Y40476D01*
X171752D01*
X171291Y40384D01*
X170900Y40123D01*
X170900Y40123D01*
X160763Y29985D01*
X160502Y29595D01*
X160410Y29134D01*
X160410Y29134D01*
Y14574D01*
X156588Y10751D01*
X128922D01*
Y14272D01*
X115536D01*
Y11554D01*
X96639D01*
Y14272D01*
X83253D01*
Y10761D01*
X78740D01*
Y11509D01*
X72244D01*
Y5998D01*
X78740D01*
Y6746D01*
X83253D01*
Y4823D01*
X96639D01*
Y7540D01*
X115536D01*
Y4823D01*
X128922D01*
Y8343D01*
X157087D01*
X157087Y8343D01*
X157547Y8435D01*
X157938Y8696D01*
X162466Y13223D01*
X162466Y13223D01*
X162727Y13614D01*
X162818Y14075D01*
Y28635D01*
X172251Y38067D01*
X209449D01*
X209449Y38067D01*
X209910Y38159D01*
X210300Y38420D01*
X217837Y45957D01*
D01*
X217920Y46040D01*
X218382Y45849D01*
Y11046D01*
X218074Y10985D01*
X217739Y10761D01*
X217181D01*
Y10909D01*
Y14272D01*
X203796D01*
Y11554D01*
X184898D01*
Y14272D01*
X171512D01*
Y4823D01*
X184898D01*
Y7540D01*
X203796D01*
Y4823D01*
X217181D01*
Y6626D01*
Y6746D01*
X217757D01*
X218074Y6535D01*
X218996Y6351D01*
X219783Y6508D01*
X219874Y6526D01*
X219946Y6517D01*
X220374Y6238D01*
Y5998D01*
X226870D01*
Y11509D01*
X220791D01*
Y13872D01*
X226684D01*
X226684Y13872D01*
X226785D01*
X227025Y13787D01*
X227277Y13647D01*
X227495Y13322D01*
X229498Y11319D01*
X229805Y10985D01*
X230337Y10340D01*
X230527Y10072D01*
X230678Y9829D01*
X230785Y9622D01*
X230851Y9456D01*
X230878Y9349D01*
X230859Y9252D01*
X231043Y8330D01*
X231565Y7549D01*
X232346Y7027D01*
X233268Y6843D01*
X234189Y7027D01*
X234971Y7549D01*
X235026Y7631D01*
X235121Y7688D01*
X235284Y7758D01*
X235507Y7829D01*
X235786Y7894D01*
X236102Y7947D01*
X237415Y8048D01*
X259772D01*
Y4823D01*
X273158D01*
Y7540D01*
X292055D01*
Y4823D01*
X305441D01*
Y6746D01*
X309154D01*
Y5998D01*
X315650D01*
Y11509D01*
X309154D01*
Y10761D01*
X305441D01*
Y14272D01*
X292055D01*
Y11554D01*
X273158D01*
Y14272D01*
X259772D01*
Y10456D01*
X242693D01*
X242547Y10956D01*
X242663Y11031D01*
X242905Y11047D01*
X243692Y11099D01*
X244193D01*
X244193Y11099D01*
X244654Y11191D01*
X245044Y11452D01*
X250203Y16611D01*
X304527D01*
X304528Y16611D01*
X304988Y16702D01*
X305379Y16963D01*
X308373Y19957D01*
X315460D01*
X315912Y19938D01*
X316745Y19858D01*
X317069Y19803D01*
X317347Y19738D01*
X317570Y19667D01*
X317733Y19597D01*
X317829Y19541D01*
X317884Y19458D01*
X318665Y18936D01*
X319587Y18753D01*
X319943Y18824D01*
D01*
X320508Y18936D01*
X321290Y19458D01*
X321812Y20240D01*
X321995Y21161D01*
X321812Y22083D01*
X321290Y22864D01*
X320508Y23387D01*
X319587Y23570D01*
X318665Y23387D01*
X317884Y22864D01*
X317829Y22782D01*
X317733Y22726D01*
X317570Y22656D01*
X317347Y22585D01*
X317069Y22520D01*
X316753Y22466D01*
X315439Y22366D01*
X307874D01*
X307874Y22366D01*
X307413Y22274D01*
X307023Y22013D01*
X306244Y21235D01*
X306154Y21144D01*
X305654Y21351D01*
Y21479D01*
Y25386D01*
X299248D01*
Y20949D01*
X305251D01*
X305458Y20449D01*
X304029Y19019D01*
X249705D01*
X249705Y19019D01*
X249244Y18927D01*
X248853Y18666D01*
X248853Y18666D01*
X243698Y13511D01*
X243295Y13520D01*
X242580Y13580D01*
X242313Y13621D01*
X242095Y13668D01*
X241938Y13715D01*
X241851Y13753D01*
X241839Y13760D01*
X241804Y13796D01*
X241664Y14006D01*
X240882Y14528D01*
X239961Y14712D01*
X239039Y14528D01*
X238258Y14006D01*
X237736Y13225D01*
X237552Y12303D01*
X237736Y11382D01*
X238020Y10956D01*
X237752Y10456D01*
X237395D01*
X236942Y10475D01*
X236109Y10555D01*
X235786Y10610D01*
X235507Y10675D01*
X235284Y10746D01*
X235121Y10816D01*
X235026Y10873D01*
X234971Y10955D01*
X234189Y11477D01*
X233268Y11660D01*
X233171Y11641D01*
X233063Y11669D01*
X232898Y11734D01*
X232691Y11842D01*
X232448Y11993D01*
X232187Y12178D01*
X231187Y13036D01*
X229551Y14672D01*
Y26286D01*
D01*
Y26449D01*
X230051Y26601D01*
X230285Y26250D01*
X231066Y25728D01*
X231988Y25544D01*
X232910Y25728D01*
X233691Y26250D01*
X234213Y27031D01*
X234397Y27953D01*
X234377Y28050D01*
X234405Y28157D01*
X234471Y28322D01*
X234578Y28530D01*
X234729Y28773D01*
X234915Y29034D01*
X235772Y30034D01*
X246955Y41217D01*
X282290D01*
X282743Y41198D01*
X283576Y41118D01*
X283899Y41063D01*
X284178Y40998D01*
X284401Y40927D01*
X284564Y40857D01*
X284659Y40800D01*
X284714Y40718D01*
X285496Y40196D01*
X286417Y40013D01*
X287339Y40196D01*
X288120Y40718D01*
X288643Y41500D01*
X288826Y42421D01*
X288643Y43343D01*
X288120Y44124D01*
X287339Y44646D01*
X286417Y44830D01*
X285496Y44646D01*
X284714Y44124D01*
X284659Y44042D01*
X284564Y43986D01*
X284401Y43915D01*
X284178Y43845D01*
X283899Y43780D01*
X283583Y43726D01*
X282270Y43626D01*
X246457D01*
X246457Y43626D01*
X245996Y43534D01*
X245605Y43273D01*
X234055Y31722D01*
X233721Y31416D01*
X233076Y30884D01*
X232808Y30694D01*
X232565Y30543D01*
X232358Y30435D01*
X232192Y30369D01*
X232085Y30342D01*
X231988Y30361D01*
X231066Y30178D01*
X230285Y29656D01*
X230141Y29441D01*
D01*
X230051Y29305D01*
X229551Y29457D01*
Y29620D01*
Y80107D01*
X229831Y80375D01*
X230135Y80634D01*
X230182Y80669D01*
X230709Y80564D01*
X231630Y80747D01*
X232412Y81269D01*
X232934Y82051D01*
X233117Y82972D01*
X232934Y83894D01*
X232412Y84676D01*
X231630Y85198D01*
X230709Y85381D01*
X229787Y85198D01*
X229006Y84676D01*
X228484Y83894D01*
X228300Y82972D01*
X228403Y82457D01*
X227778Y81744D01*
X227495Y81462D01*
X227234Y81071D01*
X227142Y80610D01*
X227142Y80610D01*
Y19771D01*
X226870Y19384D01*
D01*
D01*
X226851D01*
X226642Y19384D01*
X225228D01*
Y75749D01*
X225230Y75941D01*
X225283Y77030D01*
X225369Y77838D01*
X225417Y78110D01*
X225466Y78298D01*
X225495Y78371D01*
X225534Y78431D01*
X225540Y78446D01*
X225833Y78827D01*
X226110Y79497D01*
X226205Y80216D01*
X226110Y80936D01*
X225833Y81606D01*
X225391Y82182D01*
X225380Y82190D01*
X225338Y82278D01*
X225277Y82468D01*
X225214Y82747D01*
X225159Y83085D01*
X225031Y85113D01*
Y86540D01*
X226452Y87961D01*
X241559D01*
X242292Y87229D01*
Y62402D01*
X242292Y62402D01*
X242414Y61787D01*
X242762Y61266D01*
X255450Y48579D01*
X255450Y48579D01*
X255971Y48230D01*
X256585Y48108D01*
X256585Y48108D01*
X303081D01*
X304104Y48074D01*
X304731Y48016D01*
X304912Y47987D01*
X305042Y45955D01*
Y43845D01*
X305042Y43845D01*
X305164Y43230D01*
X305512Y42709D01*
X310971Y37251D01*
X311492Y36902D01*
X312106Y36780D01*
X312106Y36780D01*
X324182D01*
Y20153D01*
X322262Y18233D01*
X315650D01*
Y19384D01*
X309154D01*
Y13872D01*
X315650D01*
Y15022D01*
X322927D01*
X322927Y15022D01*
X323541Y15144D01*
X324062Y15492D01*
X326923Y18353D01*
X326923Y18353D01*
X327271Y18874D01*
X327393Y19488D01*
X327393Y19488D01*
Y36780D01*
X338749D01*
Y19384D01*
X337106D01*
Y13872D01*
X343602D01*
Y19384D01*
X341960D01*
Y38386D01*
X341838Y39000D01*
X341490Y39521D01*
X340969Y39869D01*
X340354Y39992D01*
X312771D01*
X308253Y44510D01*
Y46148D01*
X308287Y47171D01*
X308345Y47798D01*
X308377Y47999D01*
X308396Y48079D01*
X308873Y48792D01*
X309056Y49714D01*
X308873Y50636D01*
X308350Y51417D01*
X307569Y51939D01*
X306647Y52122D01*
X305726Y51939D01*
X305013Y51463D01*
X304970Y51453D01*
X302889Y51320D01*
X257250D01*
X245503Y63067D01*
Y87894D01*
X245381Y88508D01*
X245033Y89029D01*
X245033Y89029D01*
X243360Y90702D01*
X242839Y91050D01*
X242224Y91173D01*
X242224Y91173D01*
X225787D01*
X225787Y91173D01*
X225173Y91050D01*
X224652Y90702D01*
X224652Y90702D01*
X222290Y88340D01*
X221942Y87819D01*
X221819Y87205D01*
X221819Y87205D01*
Y85002D01*
X221783Y84043D01*
X221693Y83098D01*
X221637Y82747D01*
X221573Y82468D01*
X221538Y82359D01*
X221291Y82178D01*
X220791Y82428D01*
Y82785D01*
Y89855D01*
X225400Y94465D01*
X252159D01*
X277987Y68637D01*
X277987Y68637D01*
X278378Y68376D01*
X278839Y68284D01*
X278839Y68284D01*
X307731D01*
X308615Y68249D01*
X309367Y68174D01*
X309646Y68128D01*
X309870Y68077D01*
X310025Y68027D01*
X310103Y67992D01*
X310182Y67938D01*
X310191Y67934D01*
X310753Y67558D01*
X311675Y67375D01*
X312596Y67558D01*
X313378Y68080D01*
X313900Y68862D01*
X314083Y69784D01*
X313900Y70705D01*
X313378Y71487D01*
X312596Y72009D01*
X311675Y72192D01*
X310753Y72009D01*
X309972Y71487D01*
X309779Y71198D01*
X309755Y71179D01*
X309684Y71098D01*
X309632Y71058D01*
X309513Y70996D01*
X309326Y70926D01*
X309074Y70858D01*
X309064Y70856D01*
X308765Y71308D01*
X308774Y71322D01*
X308958Y72244D01*
X308774Y73166D01*
X308252Y73947D01*
X307471Y74469D01*
X306549Y74653D01*
X305627Y74469D01*
X304846Y73947D01*
X304717Y73754D01*
X304717Y73753D01*
X304633Y73667D01*
X304564Y73618D01*
X304430Y73552D01*
X304231Y73482D01*
X303970Y73414D01*
X303669Y73359D01*
X302360Y73251D01*
X279239D01*
X254296Y98194D01*
X253906Y98455D01*
X253445Y98547D01*
X253445Y98547D01*
X224427D01*
X224235Y99009D01*
X227861Y102634D01*
X250200D01*
X250888Y102620D01*
X251321Y102594D01*
X252072Y102508D01*
X252348Y102456D01*
X252573Y102397D01*
X252732Y102340D01*
X252757Y102328D01*
X253532Y101810D01*
X254454Y101627D01*
X255375Y101810D01*
X256157Y102332D01*
X256679Y103114D01*
X256862Y104035D01*
X256679Y104957D01*
X256606Y105066D01*
D01*
X256553Y105146D01*
X256788Y105587D01*
X279521D01*
X299739Y85369D01*
X299739Y85369D01*
X300130Y85108D01*
X300591Y85016D01*
X322282D01*
X322981Y85000D01*
X323823Y84931D01*
X324154Y84883D01*
X324438Y84826D01*
X324663Y84765D01*
X324825Y84704D01*
X324865Y84683D01*
X324877Y84665D01*
X325658Y84143D01*
X326580Y83960D01*
X327501Y84143D01*
X328283Y84665D01*
X328805Y85447D01*
X328988Y86368D01*
X328805Y87290D01*
X328283Y88072D01*
X327501Y88594D01*
X326580Y88777D01*
X325658Y88594D01*
X324877Y88072D01*
X324765Y87905D01*
X324703Y87843D01*
X324625Y87791D01*
X324484Y87724D01*
X324279Y87653D01*
X324014Y87586D01*
X323709Y87531D01*
X322398Y87425D01*
X301967D01*
X301918Y87925D01*
X302585Y88057D01*
X303366Y88579D01*
X303889Y89361D01*
X304072Y90283D01*
X303889Y91204D01*
X303366Y91986D01*
X302585Y92508D01*
X301663Y92691D01*
X301465Y92651D01*
X301375Y92652D01*
X301284Y92670D01*
X301136Y92722D01*
X300942Y92816D01*
X300707Y92956D01*
X300452Y93133D01*
X299451Y93985D01*
X284218Y109218D01*
X283827Y109479D01*
X283366Y109570D01*
X283366Y109570D01*
X253221D01*
X253014Y110070D01*
X256896Y113953D01*
X268765Y125822D01*
X268765Y125822D01*
X269026Y126212D01*
X269118Y126673D01*
X269118Y126673D01*
Y181194D01*
X271521Y183597D01*
X271782Y183988D01*
X271873Y184449D01*
Y188590D01*
X271873Y188590D01*
X271782Y189051D01*
X271521Y189442D01*
X269552Y191410D01*
X269162Y191672D01*
X268701Y191763D01*
X268701Y191763D01*
X262016D01*
X261555Y191672D01*
X261164Y191410D01*
X261164Y191410D01*
X259461Y189707D01*
X259200Y189316D01*
X259108Y188856D01*
X259108Y188856D01*
Y188415D01*
X259103Y188151D01*
X259099Y188087D01*
X258939Y188055D01*
X258157Y187533D01*
X257635Y186752D01*
X257452Y185830D01*
X257635Y184908D01*
X258157Y184127D01*
X258939Y183605D01*
X259860Y183422D01*
X260782Y183605D01*
X261563Y184127D01*
X262085Y184908D01*
X262269Y185830D01*
X262085Y186752D01*
X261577Y187512D01*
X261534Y188374D01*
X262514Y189355D01*
X268202D01*
X269465Y188092D01*
Y184948D01*
X268410Y183893D01*
X268160Y183643D01*
X267617Y183711D01*
X267574Y183764D01*
X267620Y184007D01*
X267648Y184025D01*
X267771Y184209D01*
D01*
X268170Y184807D01*
X268353Y185728D01*
X268170Y186650D01*
X267648Y187431D01*
X266867Y187953D01*
X265945Y188137D01*
X265023Y187953D01*
X264242Y187431D01*
X263720Y186650D01*
X263537Y185728D01*
X263720Y184807D01*
X264242Y184025D01*
X264324Y183970D01*
X264381Y183875D01*
X264451Y183712D01*
X264522Y183489D01*
X264587Y183211D01*
X264640Y182895D01*
X264741Y181581D01*
Y128747D01*
X264434Y128440D01*
X263614Y127620D01*
X263499Y127505D01*
X263038Y127751D01*
X263145Y128287D01*
X262961Y129209D01*
X262439Y129990D01*
X261658Y130513D01*
X260736Y130696D01*
X260639Y130677D01*
X260532Y130704D01*
X260367Y130770D01*
X260159Y130877D01*
X259916Y131028D01*
X259655Y131214D01*
X258655Y132072D01*
X255342Y135385D01*
X254951Y135646D01*
X254491Y135737D01*
X254490Y135737D01*
X244771D01*
X244319Y135756D01*
X243486Y135836D01*
X243162Y135891D01*
X242884Y135956D01*
X242661Y136027D01*
X242498Y136097D01*
X242402Y136154D01*
X242348Y136236D01*
X241566Y136758D01*
X240644Y136942D01*
X239723Y136758D01*
X238941Y136236D01*
X238419Y135455D01*
X238236Y134533D01*
X238419Y133611D01*
X238941Y132830D01*
X239615Y132380D01*
X239621Y132353D01*
X239605Y131957D01*
X239571Y131854D01*
X239447Y131825D01*
X239397Y131816D01*
X239131Y131771D01*
X237817Y131671D01*
X224539D01*
X224340Y132171D01*
X224566Y132718D01*
X224589Y132890D01*
X219527D01*
X219549Y132718D01*
X219689Y132380D01*
X219776Y132171D01*
X219576Y131671D01*
X214129D01*
X213893Y132112D01*
X214019Y132301D01*
X214203Y133222D01*
X214019Y134144D01*
X213497Y134925D01*
X213467Y134945D01*
X213438Y134999D01*
X213375Y135163D01*
X213311Y135388D01*
X213252Y135671D01*
X213203Y135994D01*
X213114Y137313D01*
Y138287D01*
X213114Y138287D01*
X213022Y138748D01*
X212761Y139139D01*
X212761Y139139D01*
X208252Y143648D01*
X207861Y143909D01*
X207400Y144001D01*
X207400Y144001D01*
X205576D01*
X205123Y144020D01*
X204290Y144100D01*
X203967Y144155D01*
X203688Y144220D01*
X203466Y144291D01*
X203302Y144361D01*
X203207Y144417D01*
X203152Y144500D01*
X202370Y145022D01*
X201449Y145205D01*
X200527Y145022D01*
X199746Y144500D01*
X199224Y143718D01*
X199040Y142797D01*
X199224Y141875D01*
X199746Y141094D01*
X200527Y140571D01*
X201449Y140388D01*
X202370Y140571D01*
X203152Y141094D01*
X203207Y141176D01*
X203302Y141232D01*
X203466Y141302D01*
X203688Y141373D01*
X203967Y141438D01*
X204283Y141492D01*
X205596Y141592D01*
X206902D01*
X210705Y137789D01*
Y137389D01*
X210649Y136475D01*
X210603Y136104D01*
X210545Y135779D01*
X210479Y135511D01*
X210408Y135302D01*
X210340Y135156D01*
X210285Y135072D01*
X210240Y135025D01*
X210091Y134925D01*
X209569Y134144D01*
X209386Y133222D01*
X209569Y132301D01*
X209642Y132192D01*
D01*
X209695Y132112D01*
X209460Y131671D01*
X203569D01*
X203504Y131736D01*
X203155Y132122D01*
X203266Y132679D01*
X203082Y133601D01*
X202560Y134382D01*
X201779Y134905D01*
X200857Y135088D01*
X199936Y134905D01*
X199154Y134382D01*
X198632Y133601D01*
X198449Y132679D01*
X198632Y131758D01*
X199154Y130976D01*
X199936Y130454D01*
X200857Y130271D01*
X201392Y130377D01*
X201950Y129884D01*
X202219Y129615D01*
X202609Y129354D01*
X202749Y129326D01*
X203070Y129262D01*
X212654D01*
X212820Y128762D01*
X212784Y128736D01*
X198755D01*
X194118Y133373D01*
Y137884D01*
X194137Y138337D01*
X194217Y139170D01*
X194272Y139494D01*
X194337Y139772D01*
X194407Y139995D01*
X194478Y140158D01*
X194534Y140253D01*
X194616Y140308D01*
X195139Y141090D01*
X195322Y142011D01*
X195139Y142933D01*
X194616Y143715D01*
X193835Y144237D01*
X192913Y144420D01*
X191992Y144237D01*
X191210Y143715D01*
X190688Y142933D01*
X190505Y142011D01*
X190688Y141090D01*
X191210Y140308D01*
X191293Y140253D01*
X191349Y140158D01*
X191419Y139995D01*
X191490Y139772D01*
X191555Y139494D01*
X191609Y139178D01*
X191709Y137864D01*
Y132874D01*
X191709Y132874D01*
X191801Y132413D01*
X192062Y132023D01*
X197405Y126680D01*
X197405Y126680D01*
X197795Y126419D01*
X198256Y126327D01*
X202493D01*
X202500Y126314D01*
X202600Y125827D01*
X202547Y125804D01*
X202324Y125734D01*
X202046Y125669D01*
X201730Y125615D01*
X200416Y125514D01*
X195874D01*
X188999Y132389D01*
Y141149D01*
X189018Y141601D01*
X189099Y142434D01*
X189154Y142758D01*
X189219Y143036D01*
X189289Y143259D01*
X189360Y143422D01*
X189416Y143518D01*
X189498Y143572D01*
X190020Y144354D01*
X190204Y145276D01*
X190020Y146197D01*
X189498Y146979D01*
X188759Y147473D01*
X188717Y147501D01*
X188402Y147564D01*
X188451Y148064D01*
X204897D01*
X205349Y148044D01*
X206182Y147964D01*
X206506Y147909D01*
X206785Y147844D01*
X207007Y147774D01*
X207170Y147703D01*
X207266Y147647D01*
X207321Y147565D01*
X208102Y147043D01*
X209024Y146859D01*
X209945Y147043D01*
X210727Y147565D01*
X211249Y148346D01*
X211432Y149268D01*
X211249Y150189D01*
X210727Y150971D01*
X209945Y151493D01*
X209024Y151676D01*
X208102Y151493D01*
X207321Y150971D01*
X207266Y150889D01*
X207170Y150832D01*
X207007Y150762D01*
X206785Y150691D01*
X206506Y150626D01*
X206190Y150573D01*
X204876Y150472D01*
X182836D01*
X182383Y150491D01*
X181550Y150571D01*
X181226Y150626D01*
X180948Y150691D01*
X180725Y150762D01*
X180562Y150832D01*
X180467Y150889D01*
X180412Y150971D01*
X179630Y151493D01*
X178709Y151676D01*
X177787Y151493D01*
X177006Y150971D01*
X176507Y150225D01*
X176471Y150221D01*
X176007Y150523D01*
Y150540D01*
Y213084D01*
X180710Y217786D01*
X231571D01*
X231763Y217324D01*
X198648Y184210D01*
X184424D01*
X183972Y184229D01*
X183139Y184309D01*
X182815Y184364D01*
X182536Y184429D01*
X182314Y184500D01*
X182151Y184570D01*
X182055Y184626D01*
X182000Y184708D01*
X181219Y185231D01*
X180297Y185414D01*
X179376Y185231D01*
X178594Y184708D01*
X178072Y183927D01*
X177889Y183005D01*
X178072Y182084D01*
X178594Y181302D01*
X179376Y180780D01*
X180297Y180597D01*
X181219Y180780D01*
X182000Y181302D01*
X182055Y181385D01*
X182151Y181441D01*
X182314Y181511D01*
X182536Y181582D01*
X182815Y181647D01*
X183131Y181701D01*
X184445Y181801D01*
X199147D01*
X199147Y181801D01*
X199608Y181893D01*
X199999Y182154D01*
X233865Y216020D01*
X235711D01*
X235902Y215558D01*
X193341Y172997D01*
X188929D01*
X188476Y173016D01*
X187644Y173096D01*
X187320Y173151D01*
X187041Y173216D01*
X186819Y173287D01*
X186655Y173357D01*
X186560Y173413D01*
X186505Y173496D01*
X185724Y174018D01*
X184802Y174201D01*
X183880Y174018D01*
X183099Y173496D01*
X182577Y172714D01*
X182394Y171792D01*
X182577Y170871D01*
X183099Y170089D01*
X183880Y169567D01*
X184802Y169384D01*
X185724Y169567D01*
X186505Y170089D01*
X186560Y170172D01*
X186655Y170228D01*
X186819Y170299D01*
X187041Y170369D01*
X187320Y170434D01*
X187636Y170488D01*
X188950Y170588D01*
X193840D01*
X193840Y170588D01*
X194301Y170680D01*
X194691Y170941D01*
X238196Y214445D01*
X239353D01*
X239544Y213983D01*
X192870Y167310D01*
X183889D01*
X183436Y167329D01*
X182604Y167409D01*
X182280Y167464D01*
X182001Y167529D01*
X181779Y167600D01*
X181615Y167670D01*
X181520Y167726D01*
X181465Y167808D01*
X180684Y168331D01*
X179762Y168514D01*
X178840Y168331D01*
X178059Y167808D01*
X177537Y167027D01*
X177354Y166105D01*
X177537Y165184D01*
X178059Y164402D01*
X178840Y163880D01*
X179762Y163697D01*
X180684Y163880D01*
X181465Y164402D01*
X181520Y164485D01*
X181615Y164541D01*
X181779Y164611D01*
X182001Y164682D01*
X182280Y164747D01*
X182596Y164801D01*
X183910Y164901D01*
X193369D01*
X193369Y164901D01*
X193830Y164993D01*
X194221Y165254D01*
X241837Y212871D01*
X313182D01*
X381924Y144129D01*
X382315Y143868D01*
X382776Y143776D01*
X382776Y143776D01*
X400205D01*
X400354Y143276D01*
X399737Y142803D01*
X399169Y142062D01*
X398812Y141201D01*
X398690Y140276D01*
X398812Y139351D01*
X399169Y138489D01*
X399737Y137749D01*
X400477Y137180D01*
X401339Y136823D01*
X402264Y136702D01*
X403445D01*
X404370Y136823D01*
X405232Y137180D01*
X405972Y137749D01*
X406540Y138489D01*
X406897Y139351D01*
X407019Y140276D01*
X406897Y141201D01*
X406540Y142062D01*
X405972Y142803D01*
X405355Y143276D01*
X405504Y143776D01*
X410205D01*
X410354Y143276D01*
X409737Y142803D01*
X409169Y142062D01*
X408812Y141201D01*
X408690Y140276D01*
X408812Y139351D01*
X409169Y138489D01*
X409737Y137749D01*
X410477Y137180D01*
X411339Y136823D01*
X412264Y136702D01*
X413445D01*
X414370Y136823D01*
X415232Y137180D01*
X415972Y137749D01*
X416540Y138489D01*
X416897Y139351D01*
X417019Y140276D01*
X416897Y141201D01*
X416540Y142062D01*
X415972Y142803D01*
X415355Y143276D01*
X415504Y143776D01*
X437008D01*
X437008Y143776D01*
X437469Y143868D01*
X437859Y144129D01*
X450400Y156670D01*
X459528D01*
Y153150D01*
X468976D01*
Y157227D01*
Y158521D01*
Y162598D01*
X459528D01*
Y159078D01*
X449902D01*
X449902Y159078D01*
X449441Y158987D01*
X449050Y158726D01*
X436509Y146185D01*
X383274D01*
X362031Y167428D01*
X362222Y167890D01*
X375387D01*
X389306Y153971D01*
X389306Y153971D01*
X389697Y153710D01*
X390158Y153619D01*
X390158Y153619D01*
X399979D01*
X400148Y153119D01*
X399737Y152803D01*
X399169Y152062D01*
X398812Y151201D01*
X398690Y150276D01*
X398812Y149351D01*
X399169Y148489D01*
X399737Y147748D01*
X400477Y147180D01*
X401339Y146824D01*
X402264Y146702D01*
X403445D01*
X404370Y146824D01*
X405232Y147180D01*
X405972Y147748D01*
X406540Y148489D01*
X406897Y149351D01*
X407019Y150276D01*
X406897Y151201D01*
X406540Y152062D01*
X405972Y152803D01*
X405560Y153119D01*
X405730Y153619D01*
X409979D01*
X410148Y153119D01*
X409737Y152803D01*
X409169Y152062D01*
X408812Y151201D01*
X408690Y150276D01*
X408812Y149351D01*
X409169Y148489D01*
X409737Y147748D01*
X410477Y147180D01*
X411339Y146824D01*
X412264Y146702D01*
X413445D01*
X414002Y146775D01*
X414370Y146824D01*
X415232Y147180D01*
X415972Y147748D01*
X416540Y148489D01*
X416897Y149351D01*
X417019Y150276D01*
X416897Y151201D01*
X416540Y152062D01*
X415972Y152803D01*
X415678Y153028D01*
X415560Y153119D01*
X415730Y153619D01*
X441240D01*
X441240Y153619D01*
X441701Y153710D01*
X442092Y153971D01*
X451877Y163756D01*
X499606D01*
X499606Y163756D01*
X500067Y163848D01*
X500458Y164109D01*
X517586Y181237D01*
X517586Y181237D01*
X517847Y181628D01*
X517939Y182089D01*
X517939Y182089D01*
Y186054D01*
X518900D01*
X519568Y186142D01*
X520190Y186400D01*
X520725Y186810D01*
X521135Y187345D01*
X521393Y187967D01*
X521481Y188635D01*
Y192179D01*
X521393Y192847D01*
X521135Y193469D01*
X520725Y194004D01*
X520190Y194414D01*
X519568Y194672D01*
X518900Y194760D01*
X514569D01*
X513901Y194672D01*
X513278Y194414D01*
X512744Y194004D01*
X512334Y193469D01*
X512076Y192847D01*
X511988Y192179D01*
Y188635D01*
X512076Y187967D01*
X512334Y187345D01*
X512744Y186810D01*
X513278Y186400D01*
X513901Y186142D01*
X514569Y186054D01*
X515530D01*
Y182588D01*
X499108Y166165D01*
X451378D01*
X450917Y166073D01*
X450526Y165812D01*
X450526Y165812D01*
X440741Y156027D01*
X413462D01*
X413430Y156527D01*
X414117Y156618D01*
D01*
X414224Y156632D01*
X415134Y157009D01*
X415915Y157608D01*
X416515Y158389D01*
X416892Y159299D01*
X417020Y160276D01*
X416892Y161252D01*
X416515Y162162D01*
X415915Y162943D01*
X415134Y163543D01*
X414224Y163919D01*
X413248Y164048D01*
X412461D01*
X411484Y163919D01*
X411084Y163753D01*
X411055Y163778D01*
X410539Y164294D01*
D01*
X410456Y164377D01*
X410647Y164839D01*
X447047D01*
X447047Y164839D01*
X447508Y164931D01*
X447899Y165192D01*
X450892Y168185D01*
X479915D01*
X480626Y168168D01*
X481463Y168095D01*
X481792Y168045D01*
X482075Y167985D01*
X482300Y167919D01*
X482464Y167854D01*
X482525Y167821D01*
X482549Y167785D01*
X483330Y167263D01*
X484252Y167080D01*
X485174Y167263D01*
X485955Y167785D01*
X486477Y168567D01*
X486660Y169488D01*
X486477Y170410D01*
X485955Y171191D01*
X485174Y171713D01*
X484252Y171897D01*
X483330Y171713D01*
X482549Y171191D01*
X482455Y171051D01*
X482416Y171014D01*
X482330Y170959D01*
X482181Y170890D01*
X481970Y170819D01*
X481701Y170753D01*
X481392Y170698D01*
X480080Y170594D01*
X450394D01*
X449933Y170502D01*
X449542Y170241D01*
X449542Y170241D01*
X448171Y168870D01*
X446548Y167248D01*
X416097D01*
X415936Y167721D01*
X415972Y167748D01*
X416540Y168489D01*
X416781Y169071D01*
X441234D01*
X441945Y169054D01*
X442782Y168981D01*
X443111Y168930D01*
X443394Y168870D01*
X443619Y168805D01*
X443783Y168740D01*
X443844Y168707D01*
X443868Y168671D01*
X444649Y168149D01*
X445571Y167965D01*
X446493Y168149D01*
X447274Y168671D01*
X447796Y169452D01*
X447979Y170374D01*
X447796Y171296D01*
X447274Y172077D01*
X446493Y172599D01*
X445571Y172783D01*
X444649Y172599D01*
X443868Y172077D01*
X443774Y171937D01*
X443735Y171900D01*
X443649Y171845D01*
X443500Y171776D01*
X443289Y171705D01*
X443019Y171639D01*
X442711Y171584D01*
X441399Y171480D01*
X416781D01*
X416540Y172063D01*
X415972Y172803D01*
X415961Y172811D01*
D01*
X415842Y172902D01*
X416012Y173402D01*
X416161D01*
X445866D01*
X445866Y173402D01*
X446327Y173494D01*
X446718Y173755D01*
X452625Y179662D01*
X452886Y180053D01*
X452978Y180514D01*
Y186054D01*
X453939D01*
X454607Y186142D01*
X455230Y186400D01*
X455764Y186810D01*
X456174Y187345D01*
X456432Y187967D01*
X456520Y188635D01*
Y192179D01*
X456432Y192847D01*
X456174Y193469D01*
X455764Y194004D01*
X455230Y194414D01*
X454607Y194672D01*
X453939Y194760D01*
X449608D01*
X448940Y194672D01*
X448318Y194414D01*
X447783Y194004D01*
X447373Y193469D01*
X447115Y192847D01*
X447027Y192179D01*
Y188635D01*
X447115Y187967D01*
X447373Y187345D01*
X447783Y186810D01*
X448318Y186400D01*
X448940Y186142D01*
X449608Y186054D01*
X450569D01*
Y181013D01*
X445367Y175811D01*
X439407D01*
X439289D01*
X439098Y176272D01*
X440210Y177385D01*
X443174Y180349D01*
X443174Y180349D01*
X443435Y180740D01*
X443527Y181201D01*
Y206293D01*
X446122Y208888D01*
X447027D01*
Y208320D01*
X447115Y207652D01*
X447373Y207030D01*
X447783Y206495D01*
X448318Y206085D01*
X448940Y205827D01*
X449608Y205739D01*
X453939D01*
X454607Y205827D01*
X455230Y206085D01*
X455764Y206495D01*
X456174Y207030D01*
X456432Y207652D01*
X456520Y208320D01*
Y211864D01*
X456432Y212532D01*
X456174Y213154D01*
X455764Y213689D01*
X455230Y214099D01*
X454607Y214357D01*
X453939Y214445D01*
X449608D01*
X448940Y214357D01*
X448318Y214099D01*
X447783Y213689D01*
X447373Y213154D01*
X447115Y212532D01*
X447027Y211864D01*
Y211296D01*
X445624D01*
X445624Y211296D01*
X445163Y211205D01*
X444772Y210944D01*
X444772Y210944D01*
X441471Y207643D01*
X441210Y207252D01*
X441119Y206791D01*
X441119Y206791D01*
Y181700D01*
X436804Y177385D01*
X416267D01*
X416077Y177885D01*
X416540Y178489D01*
X416897Y179351D01*
X417019Y180276D01*
X416897Y181201D01*
X416540Y182062D01*
X415972Y182803D01*
X415232Y183371D01*
X414370Y183728D01*
X413445Y183850D01*
X412264D01*
X411339Y183728D01*
X411179Y183661D01*
X411169Y183668D01*
X411134Y183699D01*
X408647Y186186D01*
X408256Y186447D01*
X407795Y186539D01*
X407795Y186539D01*
X405596D01*
X405427Y187039D01*
X405803Y187327D01*
X406465Y188191D01*
X406882Y189196D01*
X407024Y190276D01*
X406882Y191355D01*
X406465Y192360D01*
X405803Y193224D01*
X404939Y193886D01*
X403933Y194303D01*
X402854Y194445D01*
X401775Y194303D01*
X400770Y193886D01*
X399906Y193224D01*
X399243Y192360D01*
X398827Y191355D01*
X398685Y190276D01*
X398827Y189196D01*
X399243Y188191D01*
X399906Y187327D01*
X400282Y187039D01*
X400112Y186539D01*
X390579D01*
X379766Y197352D01*
X379459Y197685D01*
X378927Y198331D01*
X378737Y198598D01*
X378586Y198842D01*
X378479Y199049D01*
X378413Y199214D01*
X378385Y199321D01*
X378405Y199418D01*
X378221Y200340D01*
X377699Y201121D01*
X376918Y201643D01*
X375996Y201827D01*
X375075Y201643D01*
X374293Y201121D01*
X373771Y200340D01*
X373588Y199418D01*
X373771Y198497D01*
X374293Y197715D01*
X375075Y197193D01*
X375996Y197010D01*
X376093Y197029D01*
X376201Y197002D01*
X376366Y196936D01*
X376573Y196828D01*
X376816Y196677D01*
X377077Y196492D01*
X378077Y195634D01*
X382891Y190820D01*
X382727Y190277D01*
X382209Y190174D01*
X381428Y189652D01*
X380906Y188871D01*
X380723Y187949D01*
X380742Y187852D01*
X380714Y187745D01*
X380649Y187580D01*
X380541Y187373D01*
X380390Y187129D01*
X380205Y186868D01*
X379347Y185868D01*
X378941Y185462D01*
X378710Y185466D01*
X378144Y185504D01*
X377941Y185529D01*
X377784Y185557D01*
X377731Y185571D01*
X377472Y185959D01*
X376690Y186481D01*
X375769Y186665D01*
X374847Y186481D01*
X374066Y185959D01*
X373544Y185178D01*
X373360Y184256D01*
X373544Y183335D01*
X374066Y182553D01*
X374847Y182031D01*
X375769Y181848D01*
X376690Y182031D01*
X377472Y182553D01*
X377731Y182942D01*
X377784Y182956D01*
X377919Y182980D01*
X379000Y183052D01*
X379438D01*
X379438Y183052D01*
X379899Y183144D01*
X380290Y183405D01*
X381065Y184180D01*
X381398Y184486D01*
X382044Y185018D01*
X382311Y185208D01*
X382554Y185360D01*
X382762Y185467D01*
X382927Y185533D01*
X383034Y185560D01*
X383131Y185541D01*
X384053Y185724D01*
X384834Y186246D01*
X385356Y187028D01*
X385438Y187438D01*
X385459Y187545D01*
X386002Y187710D01*
X386079Y187633D01*
X388291Y185420D01*
X389228Y184483D01*
X389228Y184483D01*
X389619Y184222D01*
X390080Y184130D01*
X390080Y184130D01*
X401005D01*
X401104Y183630D01*
X400477Y183371D01*
X399737Y182803D01*
X399169Y182062D01*
X398812Y181201D01*
X398690Y180276D01*
X398812Y179351D01*
X399169Y178489D01*
X399632Y177885D01*
X399442Y177385D01*
X399274Y177385D01*
D01*
X362015D01*
X317983Y221417D01*
X317593Y221678D01*
X317132Y221769D01*
D02*
G37*
G36*
X16035Y221055D02*
X11622D01*
X11726Y220266D01*
X12223Y219065D01*
X13014Y218034D01*
X14046Y217243D01*
X15247Y216745D01*
X16035Y216641D01*
Y221055D01*
D02*
G37*
G36*
X47040D02*
X42626D01*
Y216641D01*
X43415Y216745D01*
X44616Y217243D01*
X45647Y218034D01*
X46439Y219065D01*
X46936Y220266D01*
X47040Y221055D01*
D02*
G37*
G36*
X41626D02*
X37212D01*
X37316Y220266D01*
X37813Y219065D01*
X38605Y218034D01*
X39636Y217243D01*
X40837Y216745D01*
X41626Y216641D01*
Y221055D01*
D02*
G37*
G36*
X21449D02*
X17035D01*
Y216641D01*
X17824Y216745D01*
X19025Y217243D01*
X20056Y218034D01*
X20848Y219065D01*
X21345Y220266D01*
X21449Y221055D01*
D02*
G37*
G36*
X518900Y214659D02*
X517234D01*
Y210592D01*
X521695D01*
Y211864D01*
X521600Y212587D01*
X521321Y213262D01*
X520877Y213841D01*
X520297Y214285D01*
X519623Y214564D01*
X518900Y214659D01*
D02*
G37*
G36*
X516234D02*
X514569D01*
X513845Y214564D01*
X513171Y214285D01*
X512592Y213841D01*
X512148Y213262D01*
X511869Y212587D01*
X511773Y211864D01*
Y210592D01*
X516234D01*
Y214659D01*
D02*
G37*
G36*
X521695Y209592D02*
X517234D01*
Y205525D01*
X518900D01*
X519623Y205620D01*
X520297Y205899D01*
X520877Y206344D01*
X521321Y206923D01*
X521600Y207597D01*
X521695Y208320D01*
Y209592D01*
D02*
G37*
G36*
X516234D02*
X511773D01*
Y208320D01*
X511869Y207597D01*
X512148Y206923D01*
X512592Y206344D01*
X513171Y205899D01*
X513845Y205620D01*
X514569Y205525D01*
X516234D01*
Y209592D01*
D02*
G37*
G36*
X106597Y207185D02*
Y200795D01*
X112986D01*
X112902Y201649D01*
X112507Y202950D01*
X111866Y204150D01*
X111003Y205202D01*
X109951Y206064D01*
X108752Y206706D01*
X107450Y207101D01*
X106597Y207185D01*
D02*
G37*
G36*
X105596Y207185D02*
X104743Y207101D01*
X103441Y206706D01*
X102241Y206064D01*
X101190Y205202D01*
X100327Y204150D01*
X99686Y202950D01*
X99291Y201649D01*
X99207Y200795D01*
X105596D01*
Y207185D01*
D02*
G37*
G36*
X453939Y204817D02*
X452274D01*
Y200750D01*
X456735D01*
Y202021D01*
X456639Y202745D01*
X456360Y203419D01*
X455916Y203998D01*
X455337Y204442D01*
X454663Y204722D01*
X453939Y204817D01*
D02*
G37*
G36*
X451274D02*
X449608D01*
X448885Y204722D01*
X448211Y204442D01*
X447632Y203998D01*
X447187Y203419D01*
X446908Y202745D01*
X446813Y202021D01*
Y200750D01*
X451274D01*
Y204817D01*
D02*
G37*
G36*
X42126Y208604D02*
X40893Y208441D01*
X39743Y207965D01*
X38756Y207208D01*
X37999Y206221D01*
X37523Y205072D01*
X37361Y203839D01*
X37523Y202605D01*
X37999Y201456D01*
X38756Y200469D01*
X39743Y199712D01*
X40893Y199236D01*
X42126Y199073D01*
X43359Y199236D01*
X44509Y199712D01*
X45496Y200469D01*
X46253Y201456D01*
X46729Y202605D01*
X46891Y203839D01*
X46729Y205072D01*
X46253Y206221D01*
X45496Y207208D01*
X44509Y207965D01*
X43359Y208441D01*
X42126Y208604D01*
D02*
G37*
G36*
X16535D02*
X15302Y208441D01*
X14153Y207965D01*
X13166Y207208D01*
X12409Y206221D01*
X11933Y205072D01*
X11770Y203839D01*
X11933Y202605D01*
X12409Y201456D01*
X13166Y200469D01*
X14153Y199712D01*
X15302Y199236D01*
X16535Y199073D01*
X17769Y199236D01*
X18918Y199712D01*
X19905Y200469D01*
X20662Y201456D01*
X21138Y202605D01*
X21301Y203839D01*
X21138Y205072D01*
X20662Y206221D01*
X19905Y207208D01*
X18918Y207965D01*
X17769Y208441D01*
X16535Y208604D01*
D02*
G37*
G36*
X456735Y199750D02*
X452274D01*
Y195682D01*
X453939D01*
X454663Y195778D01*
X455337Y196057D01*
X455916Y196501D01*
X456360Y197080D01*
X456639Y197754D01*
X456735Y198478D01*
Y199750D01*
D02*
G37*
G36*
X451274D02*
X446813D01*
Y198478D01*
X446908Y197754D01*
X447187Y197080D01*
X447632Y196501D01*
X448211Y196057D01*
X448885Y195778D01*
X449608Y195682D01*
X451274D01*
Y199750D01*
D02*
G37*
G36*
X189376Y206988D02*
X182683D01*
X179337Y203641D01*
Y196949D01*
X182683Y193602D01*
X189376D01*
X192722Y196949D01*
Y203641D01*
X189376Y206988D01*
D02*
G37*
G36*
X112986Y199795D02*
X106597D01*
Y193405D01*
X107450Y193489D01*
X108752Y193884D01*
X109951Y194525D01*
X111003Y195388D01*
X111866Y196440D01*
X112507Y197640D01*
X112902Y198941D01*
X112986Y199795D01*
D02*
G37*
G36*
X105596D02*
X99207D01*
X99291Y198941D01*
X99686Y197640D01*
X100327Y196440D01*
X101190Y195388D01*
X102241Y194525D01*
X103441Y193884D01*
X104743Y193489D01*
X105596Y193405D01*
Y199795D01*
D02*
G37*
G36*
X412854Y194445D02*
X411775Y194303D01*
X410770Y193886D01*
X409906Y193224D01*
X409243Y192360D01*
X408827Y191355D01*
X408685Y190276D01*
X408827Y189196D01*
X409243Y188191D01*
X409906Y187327D01*
X410770Y186665D01*
X411775Y186248D01*
X412854Y186106D01*
X413934Y186248D01*
X414939Y186665D01*
X415803Y187327D01*
X416465Y188191D01*
X416882Y189196D01*
X417024Y190276D01*
X416882Y191355D01*
X416465Y192360D01*
X415803Y193224D01*
X414939Y193886D01*
X413934Y194303D01*
X412854Y194445D01*
D02*
G37*
G36*
X503752Y162788D02*
X502963Y162684D01*
X501762Y162187D01*
X500731Y161395D01*
X499939Y160364D01*
X499442Y159163D01*
X499397Y158820D01*
X498893D01*
X498855Y159107D01*
Y159107D01*
D01*
X498379Y160257D01*
X497621Y161243D01*
X496635Y162001D01*
X495485Y162477D01*
X494252Y162639D01*
X493019Y162477D01*
X491869Y162001D01*
X490882Y161243D01*
X490125Y160257D01*
X489649Y159107D01*
X489550Y158353D01*
D01*
X489534Y158230D01*
X489504Y158006D01*
X489000D01*
X488970Y158230D01*
X488954Y158353D01*
D01*
X488855Y159107D01*
X488379Y160257D01*
X487621Y161243D01*
X486635Y162001D01*
X485485Y162477D01*
X484252Y162639D01*
X483019Y162477D01*
X481869Y162001D01*
X480883Y161243D01*
X480125Y160257D01*
X479649Y159107D01*
X479550Y158353D01*
D01*
X479534Y158230D01*
X479504Y158006D01*
X479000D01*
X478970Y158230D01*
X478954Y158353D01*
D01*
X478855Y159107D01*
X478379Y160257D01*
X477622Y161243D01*
X476635Y162001D01*
X475485Y162477D01*
X474252Y162639D01*
X473019Y162477D01*
X471869Y162001D01*
X470883Y161243D01*
X470125Y160257D01*
X469649Y159107D01*
X469567Y158483D01*
X469487Y157874D01*
X469567Y157265D01*
X469645Y156670D01*
X469649Y156641D01*
X470125Y155491D01*
X470883Y154505D01*
X471869Y153747D01*
X473019Y153271D01*
X474252Y153109D01*
X475485Y153271D01*
X476635Y153747D01*
X477622Y154505D01*
X478379Y155491D01*
X478855Y156641D01*
X478954Y157396D01*
D01*
X478970Y157518D01*
X479000Y157742D01*
X479504D01*
X479534Y157518D01*
X479550Y157396D01*
D01*
X479649Y156641D01*
X480125Y155491D01*
X480883Y154505D01*
X481869Y153747D01*
X483019Y153271D01*
X484252Y153109D01*
X485485Y153271D01*
X486635Y153747D01*
X487621Y154505D01*
X488379Y155491D01*
X488855Y156641D01*
X488954Y157396D01*
D01*
X488970Y157518D01*
X489000Y157742D01*
X489504D01*
X489534Y157518D01*
X489550Y157396D01*
D01*
X489649Y156641D01*
X490125Y155491D01*
X490882Y154505D01*
X491869Y153747D01*
X493019Y153271D01*
X494252Y153109D01*
X495485Y153271D01*
X496635Y153747D01*
X497621Y154505D01*
X498379Y155491D01*
X498855Y156641D01*
Y156641D01*
X498893Y156928D01*
X499397D01*
X499442Y156585D01*
X499939Y155384D01*
X500731Y154353D01*
X501762Y153562D01*
X502963Y153064D01*
X503752Y152960D01*
Y157874D01*
Y162788D01*
D02*
G37*
G36*
X504752D02*
Y158374D01*
X509166D01*
X509062Y159163D01*
X508564Y160364D01*
X507773Y161395D01*
X506742Y162187D01*
X505541Y162684D01*
X504752Y162788D01*
D02*
G37*
G36*
X408343Y251396D02*
X406953Y251260D01*
X405618Y250854D01*
X404386Y250196D01*
X403307Y249311D01*
X402422Y248232D01*
X401764Y247001D01*
X401358Y245665D01*
X401222Y244276D01*
X401358Y242886D01*
X401764Y241550D01*
X402422Y240319D01*
X403307Y239240D01*
X404386Y238355D01*
X405390Y237818D01*
X405288Y237412D01*
X405321Y237288D01*
X405283Y237228D01*
X89075D01*
X88614Y237136D01*
X88223Y236875D01*
X88223Y236875D01*
X39601Y188253D01*
X39340Y187862D01*
X39248Y187402D01*
X39248Y187401D01*
Y182080D01*
X39230Y181627D01*
X39188Y181201D01*
X37801D01*
Y174705D01*
X43313D01*
Y181201D01*
X41726D01*
X41657Y182100D01*
Y186903D01*
X89574Y234819D01*
X398503D01*
X398721Y234409D01*
D01*
D01*
Y234401D01*
X398721Y234319D01*
Y226142D01*
X406988D01*
Y234319D01*
X406988Y234400D01*
Y234409D01*
D01*
D01*
X407206Y234819D01*
X411867D01*
X411899Y234319D01*
X411775Y234303D01*
X410770Y233887D01*
X409906Y233224D01*
X409243Y232360D01*
X408827Y231355D01*
X408685Y230276D01*
X408827Y229196D01*
X409243Y228191D01*
X409906Y227327D01*
X410770Y226665D01*
X411775Y226248D01*
X412854Y226106D01*
X413934Y226248D01*
X414939Y226665D01*
X415803Y227327D01*
X416465Y228191D01*
X416882Y229196D01*
X417024Y230276D01*
X416882Y231355D01*
X416465Y232360D01*
X415803Y233224D01*
X414939Y233887D01*
X414113Y234229D01*
X413934Y234303D01*
X413809Y234319D01*
X413842Y234819D01*
X438583D01*
X438583Y234819D01*
X439044Y234911D01*
X439434Y235172D01*
X444981Y240719D01*
X445314Y241025D01*
X445960Y241557D01*
X446227Y241747D01*
X446470Y241898D01*
X446678Y242006D01*
X446843Y242072D01*
X446950Y242099D01*
X447047Y242080D01*
X447969Y242263D01*
X448750Y242785D01*
X448805Y242867D01*
X448901Y242924D01*
X449064Y242994D01*
X449286Y243065D01*
X449565Y243130D01*
X449881Y243183D01*
X451195Y243284D01*
X511509D01*
X531965Y222828D01*
Y186706D01*
X531946Y186253D01*
X531866Y185420D01*
X531811Y185097D01*
X531746Y184818D01*
X531675Y184596D01*
X531605Y184432D01*
X531548Y184337D01*
X531466Y184282D01*
X530944Y183500D01*
X530761Y182579D01*
X530944Y181657D01*
X531466Y180876D01*
X531606Y180782D01*
X531643Y180743D01*
X531698Y180657D01*
X531767Y180508D01*
X531838Y180297D01*
X531904Y180027D01*
X531959Y179719D01*
X532063Y178407D01*
Y163576D01*
X532044Y163123D01*
X531964Y162291D01*
X531909Y161967D01*
X531844Y161688D01*
X531774Y161466D01*
X531703Y161302D01*
X531647Y161207D01*
X531565Y161152D01*
X531042Y160371D01*
X530859Y159449D01*
X531042Y158527D01*
X531565Y157746D01*
X532346Y157224D01*
X533268Y157040D01*
X534189Y157224D01*
X534971Y157746D01*
X535493Y158527D01*
X535676Y159449D01*
X535493Y160371D01*
X534971Y161152D01*
X534889Y161207D01*
X534832Y161302D01*
X534762Y161466D01*
X534691Y161688D01*
X534626Y161967D01*
X534573Y162283D01*
X534472Y163596D01*
Y178242D01*
X534489Y178953D01*
X534562Y179790D01*
X534613Y180119D01*
X534673Y180401D01*
X534738Y180627D01*
X534803Y180791D01*
X534836Y180851D01*
X534872Y180876D01*
X535394Y181657D01*
X535578Y182579D01*
X535394Y183500D01*
X534872Y184282D01*
X534790Y184337D01*
X534734Y184432D01*
X534663Y184596D01*
X534593Y184818D01*
X534527Y185097D01*
X534474Y185413D01*
X534374Y186726D01*
Y223327D01*
X534282Y223788D01*
X534021Y224178D01*
X534021Y224178D01*
X512859Y245340D01*
X512469Y245601D01*
X512008Y245692D01*
X512008Y245692D01*
X451174D01*
X450721Y245711D01*
X449889Y245792D01*
X449565Y245847D01*
X449286Y245912D01*
X449064Y245982D01*
X448901Y246053D01*
X448805Y246109D01*
X448750Y246191D01*
X447969Y246713D01*
X447047Y246897D01*
X446126Y246713D01*
X445344Y246191D01*
X444822Y245410D01*
X444639Y244488D01*
X444658Y244391D01*
X444630Y244284D01*
X444565Y244119D01*
X444457Y243911D01*
X444306Y243668D01*
X444121Y243407D01*
X443263Y242407D01*
X438084Y237228D01*
X411403D01*
X411364Y237288D01*
X411397Y237412D01*
X411295Y237818D01*
X412299Y238355D01*
X413378Y239240D01*
X414263Y240319D01*
X414921Y241550D01*
X415327Y242886D01*
X415463Y244276D01*
X415327Y245665D01*
X414921Y247001D01*
X414263Y248232D01*
X413378Y249311D01*
X412299Y250196D01*
X411068Y250854D01*
X409732Y251260D01*
X408343Y251396D01*
D02*
G37*
G36*
X509166Y157374D02*
X504752D01*
Y152960D01*
X505541Y153064D01*
X506742Y153562D01*
X507773Y154353D01*
X508564Y155384D01*
X509062Y156585D01*
X509166Y157374D01*
D02*
G37*
G36*
X370184Y166919D02*
X369262Y166736D01*
X368481Y166214D01*
X367959Y165432D01*
X367775Y164511D01*
X367959Y163589D01*
X368481Y162808D01*
X369262Y162286D01*
X370184Y162102D01*
X371105Y162286D01*
X371887Y162808D01*
X372001Y162979D01*
X372027Y163004D01*
X372065Y163028D01*
X372173Y163074D01*
X372349Y163128D01*
X372586Y163181D01*
X372864Y163224D01*
X374051Y163306D01*
X374065D01*
X380089Y157283D01*
X380395Y156950D01*
X380927Y156304D01*
X381117Y156037D01*
X381268Y155793D01*
X381376Y155586D01*
X381441Y155421D01*
X381469Y155314D01*
X381450Y155217D01*
X381633Y154295D01*
X382155Y153514D01*
X382937Y152991D01*
X383858Y152808D01*
X384780Y152991D01*
X385561Y153514D01*
X386083Y154295D01*
X386267Y155217D01*
X386083Y156138D01*
X385561Y156920D01*
X384780Y157442D01*
X383858Y157625D01*
X383761Y157606D01*
X383654Y157633D01*
X383489Y157699D01*
X383281Y157806D01*
X383038Y157957D01*
X382777Y158143D01*
X381777Y159001D01*
X375416Y165362D01*
X375025Y165623D01*
X374564Y165715D01*
X374564Y165715D01*
X374251D01*
X373625Y165730D01*
X372871Y165796D01*
X372586Y165841D01*
X372349Y165893D01*
X372173Y165947D01*
X372065Y165994D01*
X372027Y166017D01*
X372001Y166043D01*
X371887Y166214D01*
X371105Y166736D01*
X370184Y166919D01*
D02*
G37*
G36*
X52575Y154995D02*
X46169D01*
Y150558D01*
X52575D01*
Y154995D01*
D02*
G37*
G36*
X45169D02*
X38764D01*
Y150558D01*
X45169D01*
Y154995D01*
D02*
G37*
G36*
X20291D02*
X13886D01*
Y150558D01*
X20291D01*
Y154995D01*
D02*
G37*
G36*
X12886D02*
X6480D01*
Y150558D01*
X12886D01*
Y154995D01*
D02*
G37*
G36*
X52575Y149558D02*
X46169D01*
Y145121D01*
X52575D01*
Y149558D01*
D02*
G37*
G36*
X45169D02*
X38764D01*
Y145121D01*
X45169D01*
Y149558D01*
D02*
G37*
G36*
X20291D02*
X13886D01*
Y145121D01*
X20291D01*
Y149558D01*
D02*
G37*
G36*
X12886D02*
X6480D01*
Y145121D01*
X12886D01*
Y149558D01*
D02*
G37*
G36*
X363779Y142599D02*
X362858Y142416D01*
X362076Y141894D01*
X361554Y141113D01*
X361371Y140191D01*
X361554Y139269D01*
X362076Y138488D01*
X362858Y137966D01*
X363779Y137783D01*
X364701Y137966D01*
X365483Y138488D01*
X365521Y138546D01*
X365604Y138593D01*
X365771Y138662D01*
X365996Y138732D01*
X366278Y138795D01*
X366596Y138848D01*
X367911Y138945D01*
X373030D01*
X373483Y138926D01*
X374315Y138846D01*
X374639Y138792D01*
X374918Y138726D01*
X375140Y138656D01*
X375303Y138585D01*
X375399Y138529D01*
X375454Y138447D01*
X376235Y137925D01*
X377157Y137741D01*
X378078Y137925D01*
X378860Y138447D01*
X379382Y139228D01*
X379565Y140150D01*
X379382Y141071D01*
X378860Y141853D01*
X378078Y142375D01*
X377157Y142558D01*
X376235Y142375D01*
X375454Y141853D01*
X375399Y141771D01*
X375303Y141714D01*
X375140Y141644D01*
X374918Y141573D01*
X374639Y141508D01*
X374323Y141455D01*
X373009Y141354D01*
X367919D01*
X367463Y141373D01*
X366633Y141455D01*
X366312Y141510D01*
X366037Y141576D01*
X365820Y141647D01*
X365662Y141717D01*
X365566Y141775D01*
X365555Y141785D01*
X365483Y141894D01*
X364701Y142416D01*
X363779Y142599D01*
D02*
G37*
G36*
X222558Y135921D02*
Y133890D01*
X224589D01*
X224566Y134062D01*
X224307Y134688D01*
X223894Y135226D01*
X223356Y135639D01*
X222730Y135898D01*
X222558Y135921D01*
D02*
G37*
G36*
X221558D02*
X221386Y135898D01*
X220759Y135639D01*
X220221Y135226D01*
X219809Y134688D01*
X219549Y134062D01*
X219527Y133890D01*
X221558D01*
Y135921D01*
D02*
G37*
G36*
X412854Y134445D02*
X411775Y134303D01*
X410770Y133887D01*
X409906Y133224D01*
X409243Y132360D01*
X408827Y131355D01*
X408685Y130276D01*
X408827Y129196D01*
X409243Y128191D01*
X409906Y127327D01*
X410770Y126665D01*
X411775Y126248D01*
X412854Y126106D01*
X413934Y126248D01*
X414939Y126665D01*
X415803Y127327D01*
X416465Y128191D01*
X416882Y129196D01*
X417024Y130276D01*
X416882Y131355D01*
X416465Y132360D01*
X415803Y133224D01*
X414939Y133887D01*
X413934Y134303D01*
X412854Y134445D01*
D02*
G37*
G36*
X402854D02*
X401775Y134303D01*
X400770Y133887D01*
X399906Y133224D01*
X399243Y132360D01*
X398827Y131355D01*
X398685Y130276D01*
X398827Y129196D01*
X399243Y128191D01*
X399906Y127327D01*
X400770Y126665D01*
X401775Y126248D01*
X402854Y126106D01*
X403933Y126248D01*
X404939Y126665D01*
X405803Y127327D01*
X406465Y128191D01*
X406882Y129196D01*
X407024Y130276D01*
X406882Y131355D01*
X406465Y132360D01*
X405803Y133224D01*
X404939Y133887D01*
X403933Y134303D01*
X402854Y134445D01*
D02*
G37*
G36*
X151939Y174201D02*
X151018Y174018D01*
X150236Y173496D01*
X149714Y172714D01*
X149531Y171792D01*
X149714Y170871D01*
X150236Y170089D01*
X150299Y170048D01*
X150350Y169959D01*
X150420Y169792D01*
X150490Y169567D01*
X150555Y169286D01*
X150608Y168968D01*
X150707Y167654D01*
Y131301D01*
X150688Y130848D01*
X150608Y130016D01*
X150553Y129692D01*
X150488Y129413D01*
X150417Y129191D01*
X150347Y129027D01*
X150291Y128932D01*
X150208Y128877D01*
X149686Y128096D01*
X149503Y127174D01*
X149686Y126252D01*
X150208Y125471D01*
X150990Y124949D01*
X151911Y124765D01*
X152833Y124949D01*
X153614Y125471D01*
X153792Y125737D01*
X154000Y126048D01*
X154567D01*
X154952Y125471D01*
X155734Y124949D01*
X156655Y124765D01*
X157577Y124949D01*
X158358Y125471D01*
X158880Y126252D01*
X159064Y127174D01*
X158880Y128096D01*
X158358Y128877D01*
X158276Y128932D01*
X158220Y129027D01*
X158149Y129191D01*
X158079Y129413D01*
X158014Y129692D01*
X157960Y130008D01*
X157860Y131322D01*
Y161908D01*
X157879Y162361D01*
X157959Y163193D01*
X158014Y163517D01*
X158079Y163795D01*
X158150Y164017D01*
X158220Y164180D01*
X158277Y164276D01*
X158364Y164334D01*
X158886Y165115D01*
X159069Y166037D01*
X158886Y166958D01*
X158364Y167740D01*
X157582Y168262D01*
X156660Y168445D01*
X155739Y168262D01*
X154957Y167740D01*
X154435Y166958D01*
X154252Y166037D01*
X154435Y165115D01*
X154957Y164334D01*
X155036Y164281D01*
X155091Y164187D01*
X155162Y164023D01*
X155232Y163800D01*
X155297Y163521D01*
X155351Y163204D01*
X155451Y161891D01*
Y131301D01*
X155432Y130848D01*
X155352Y130016D01*
X155297Y129692D01*
X155232Y129413D01*
X155161Y129191D01*
X155091Y129027D01*
X155034Y128932D01*
X154952Y128877D01*
X154567Y128300D01*
X154000D01*
X153934Y128398D01*
X153614Y128877D01*
X153532Y128932D01*
X153476Y129027D01*
X153405Y129191D01*
X153335Y129413D01*
X153270Y129692D01*
X153216Y130008D01*
X153115Y131322D01*
Y167657D01*
X153135Y168112D01*
X153216Y168943D01*
X153271Y169264D01*
X153337Y169541D01*
X153408Y169760D01*
X153477Y169919D01*
X153537Y170017D01*
X153541Y170022D01*
X153642Y170089D01*
X154165Y170871D01*
X154348Y171792D01*
X154165Y172714D01*
X153642Y173496D01*
X152861Y174018D01*
X151939Y174201D01*
D02*
G37*
G36*
X254514Y125053D02*
X253592Y124869D01*
X252811Y124347D01*
X252289Y123566D01*
X252105Y122644D01*
X252183Y122253D01*
X251828Y121835D01*
X242834D01*
X242382Y121854D01*
X241549Y121934D01*
X241225Y121989D01*
X240947Y122054D01*
X240724Y122125D01*
X240561Y122195D01*
X240465Y122252D01*
X240411Y122334D01*
X239629Y122856D01*
X238707Y123039D01*
X237786Y122856D01*
X237004Y122334D01*
X236482Y121553D01*
X236299Y120631D01*
X236482Y119709D01*
X237004Y118928D01*
X237786Y118406D01*
X238707Y118222D01*
X239629Y118406D01*
X240411Y118928D01*
X240465Y119010D01*
X240561Y119067D01*
X240724Y119137D01*
X240947Y119207D01*
X241225Y119273D01*
X241541Y119326D01*
X242855Y119427D01*
X252501D01*
X252501Y119427D01*
X252961Y119518D01*
X253352Y119779D01*
X253768Y120196D01*
X253929Y120352D01*
X254514Y120236D01*
X255436Y120419D01*
X255864Y120705D01*
X256217Y120941D01*
X256739Y121723D01*
X256922Y122644D01*
X256739Y123566D01*
X256217Y124347D01*
X255436Y124869D01*
X254514Y125053D01*
D02*
G37*
G36*
X43313Y126673D02*
X37802D01*
Y120177D01*
X43313D01*
Y126673D01*
D02*
G37*
G36*
X412854Y124445D02*
X411775Y124303D01*
X410770Y123887D01*
X409906Y123224D01*
X409243Y122360D01*
X408827Y121355D01*
X408685Y120276D01*
X408827Y119196D01*
X409243Y118191D01*
X409906Y117327D01*
X410770Y116665D01*
X411775Y116248D01*
X412854Y116106D01*
X413934Y116248D01*
X414939Y116665D01*
X415803Y117327D01*
X416465Y118191D01*
X416882Y119196D01*
X417024Y120276D01*
X416882Y121355D01*
X416465Y122360D01*
X415803Y123224D01*
X414939Y123887D01*
X413934Y124303D01*
X412854Y124445D01*
D02*
G37*
G36*
X402854D02*
X401775Y124303D01*
X400770Y123887D01*
X399906Y123224D01*
X399243Y122360D01*
X398827Y121355D01*
X398685Y120276D01*
X398827Y119196D01*
X399243Y118191D01*
X399906Y117327D01*
X400770Y116665D01*
X401775Y116248D01*
X402854Y116106D01*
X403933Y116248D01*
X404939Y116665D01*
X405803Y117327D01*
X406465Y118191D01*
X406882Y119196D01*
X407024Y120276D01*
X406882Y121355D01*
X406465Y122360D01*
X405803Y123224D01*
X404939Y123887D01*
X403933Y124303D01*
X402854Y124445D01*
D02*
G37*
G36*
X412854Y114445D02*
X411775Y114303D01*
X410770Y113886D01*
X409906Y113224D01*
X409243Y112360D01*
X408827Y111355D01*
X408685Y110276D01*
X408827Y109196D01*
X409243Y108191D01*
X409906Y107327D01*
X410770Y106665D01*
X411775Y106248D01*
X412854Y106106D01*
X413934Y106248D01*
X414939Y106665D01*
X415803Y107327D01*
X416465Y108191D01*
X416882Y109196D01*
X417024Y110276D01*
X416882Y111355D01*
X416465Y112360D01*
X415803Y113224D01*
X414939Y113886D01*
X413934Y114303D01*
X412854Y114445D01*
D02*
G37*
G36*
X402854D02*
X401775Y114303D01*
X400770Y113886D01*
X399906Y113224D01*
X399243Y112360D01*
X398827Y111355D01*
X398685Y110276D01*
X398827Y109196D01*
X399243Y108191D01*
X399906Y107327D01*
X400770Y106665D01*
X401775Y106248D01*
X402854Y106106D01*
X403933Y106248D01*
X404939Y106665D01*
X405803Y107327D01*
X406465Y108191D01*
X406882Y109196D01*
X407024Y110276D01*
X406882Y111355D01*
X406465Y112360D01*
X405803Y113224D01*
X404939Y113886D01*
X403933Y114303D01*
X402854Y114445D01*
D02*
G37*
G36*
X316240Y189582D02*
X304429D01*
X304122Y189521D01*
X303861Y189347D01*
X303687Y189087D01*
X303626Y188779D01*
Y98228D01*
X303687Y97921D01*
X303861Y97661D01*
X304122Y97487D01*
X304429Y97426D01*
X316240D01*
X316547Y97487D01*
X316808Y97661D01*
X316982Y97921D01*
X317043Y98228D01*
Y188779D01*
X316982Y189087D01*
X316808Y189347D01*
X316547Y189521D01*
X316240Y189582D01*
D02*
G37*
G36*
X412854Y104445D02*
X411775Y104303D01*
X410770Y103886D01*
X409906Y103224D01*
X409243Y102360D01*
X408827Y101355D01*
X408685Y100276D01*
X408827Y99196D01*
X409243Y98191D01*
X409906Y97327D01*
X410770Y96665D01*
X411775Y96248D01*
X412854Y96106D01*
X413934Y96248D01*
X414939Y96665D01*
X415803Y97327D01*
X416465Y98191D01*
X416882Y99196D01*
X417024Y100276D01*
X416882Y101355D01*
X416465Y102360D01*
X415803Y103224D01*
X414939Y103886D01*
X413934Y104303D01*
X412854Y104445D01*
D02*
G37*
G36*
X402854D02*
X401775Y104303D01*
X400770Y103886D01*
X399906Y103224D01*
X399243Y102360D01*
X398827Y101355D01*
X398685Y100276D01*
X398827Y99196D01*
X399243Y98191D01*
X399906Y97327D01*
X400770Y96665D01*
X401775Y96248D01*
X402854Y96106D01*
X403933Y96248D01*
X404939Y96665D01*
X405803Y97327D01*
X406465Y98191D01*
X406882Y99196D01*
X407024Y100276D01*
X406882Y101355D01*
X406465Y102360D01*
X405803Y103224D01*
X404939Y103886D01*
X403933Y104303D01*
X402854Y104445D01*
D02*
G37*
G36*
X52575Y100525D02*
X46169D01*
Y96088D01*
X52575D01*
Y100525D01*
D02*
G37*
G36*
X45169D02*
X38764D01*
Y96088D01*
X45169D01*
Y100525D01*
D02*
G37*
G36*
X20291D02*
X13886D01*
Y96088D01*
X20291D01*
Y100525D01*
D02*
G37*
G36*
X12886D02*
X6480D01*
Y96088D01*
X12886D01*
Y100525D01*
D02*
G37*
G36*
X52575Y95088D02*
X46169D01*
Y90651D01*
X52575D01*
Y95088D01*
D02*
G37*
G36*
X45169D02*
X38764D01*
Y90651D01*
X45169D01*
Y95088D01*
D02*
G37*
G36*
X20291D02*
X13886D01*
Y90651D01*
X20291D01*
Y95088D01*
D02*
G37*
G36*
X12886D02*
X6480D01*
Y90651D01*
X12886D01*
Y95088D01*
D02*
G37*
G36*
X412854Y94445D02*
X411775Y94303D01*
X410770Y93887D01*
X409906Y93224D01*
X409243Y92360D01*
X408827Y91355D01*
X408685Y90276D01*
X408827Y89196D01*
X409243Y88191D01*
X409906Y87327D01*
X410770Y86665D01*
X411775Y86248D01*
X412854Y86106D01*
X413934Y86248D01*
X414939Y86665D01*
X415803Y87327D01*
X416465Y88191D01*
X416882Y89196D01*
X417024Y90276D01*
X416882Y91355D01*
X416465Y92360D01*
X415803Y93224D01*
X414939Y93887D01*
X413934Y94303D01*
X412854Y94445D01*
D02*
G37*
G36*
X402854D02*
X401775Y94303D01*
X400770Y93887D01*
X399906Y93224D01*
X399243Y92360D01*
X398827Y91355D01*
X398685Y90276D01*
X398827Y89196D01*
X399243Y88191D01*
X399906Y87327D01*
X400770Y86665D01*
X401775Y86248D01*
X402854Y86106D01*
X403933Y86248D01*
X404939Y86665D01*
X405803Y87327D01*
X406465Y88191D01*
X406882Y89196D01*
X407024Y90276D01*
X406882Y91355D01*
X406465Y92360D01*
X405803Y93224D01*
X404939Y93887D01*
X403933Y94303D01*
X402854Y94445D01*
D02*
G37*
G36*
X67323Y106028D02*
X66603Y105933D01*
X65933Y105655D01*
X65357Y105214D01*
X64916Y104638D01*
X64638Y103967D01*
X64543Y103248D01*
X64638Y102529D01*
X64916Y101858D01*
X65357Y101283D01*
X65933Y100841D01*
X66603Y100563D01*
X67165Y100489D01*
X67170Y100487D01*
X67266Y100472D01*
X67356Y100437D01*
X67533Y100343D01*
X67748Y100204D01*
X69590Y98612D01*
X84615Y83587D01*
Y41019D01*
X74357Y30761D01*
X74009Y30240D01*
X73887Y29626D01*
X73887Y29626D01*
Y19384D01*
X72244D01*
Y13872D01*
X78740D01*
Y19384D01*
X77098D01*
Y28961D01*
X86319Y38182D01*
X88081Y36420D01*
X88966Y35496D01*
X89374Y35016D01*
X89498Y34852D01*
X89556Y34762D01*
X89704Y34019D01*
X90226Y33238D01*
X91007Y32716D01*
X91929Y32533D01*
X92851Y32716D01*
X93632Y33238D01*
X94154Y34019D01*
X94338Y34941D01*
X94154Y35863D01*
X93632Y36644D01*
X92851Y37166D01*
X91929Y37349D01*
X91902Y37344D01*
X91893Y37349D01*
X90320Y38723D01*
X87826Y41216D01*
Y82843D01*
X107124D01*
X108083Y82807D01*
X109028Y82717D01*
X109379Y82660D01*
X109658Y82597D01*
X109848Y82536D01*
X109936Y82494D01*
X109944Y82483D01*
X110520Y82042D01*
X111190Y81764D01*
X111909Y81669D01*
X112629Y81764D01*
X113299Y82042D01*
X113875Y82483D01*
X114151Y82843D01*
X203989D01*
X205293Y82812D01*
X206239Y82731D01*
X206593Y82679D01*
X206874Y82622D01*
X207064Y82566D01*
X207149Y82529D01*
X207223Y82476D01*
X207232Y82472D01*
X207665Y82140D01*
X208336Y81862D01*
X209055Y81768D01*
X209774Y81862D01*
X210445Y82140D01*
X211021Y82582D01*
X211462Y83157D01*
X211740Y83828D01*
X211835Y84547D01*
X211740Y85267D01*
X211462Y85937D01*
X211021Y86513D01*
X211010Y86521D01*
X210968Y86609D01*
X210907Y86799D01*
X210844Y87077D01*
X210789Y87416D01*
X210776Y87612D01*
X210813Y88181D01*
X210940Y89163D01*
X211102Y90041D01*
X211296Y90805D01*
X211519Y91452D01*
X211765Y91982D01*
X212025Y92393D01*
X212281Y92682D01*
X212425Y92792D01*
X213182Y93779D01*
X213658Y94928D01*
X213820Y96161D01*
X213658Y97395D01*
X213182Y98544D01*
X212425Y99531D01*
X211438Y100288D01*
X210288Y100764D01*
X209055Y100927D01*
X207822Y100764D01*
X206673Y100288D01*
X205686Y99531D01*
X204928Y98544D01*
X204452Y97395D01*
X204290Y96161D01*
X204452Y94928D01*
X204928Y93779D01*
X205686Y92792D01*
X205829Y92682D01*
X206085Y92393D01*
X206346Y91982D01*
X206591Y91452D01*
X206814Y90805D01*
X207008Y90041D01*
X207167Y89180D01*
X207317Y87390D01*
X207267Y87077D01*
X207203Y86799D01*
X207142Y86609D01*
X207100Y86521D01*
X207090Y86513D01*
X207037Y86444D01*
X206997Y86411D01*
X206921Y86372D01*
X206740Y86310D01*
X206469Y86245D01*
X206138Y86189D01*
X204107Y86054D01*
X118052D01*
X117696Y86554D01*
X117704Y86645D01*
X117805Y87836D01*
X117897Y88419D01*
X118005Y88902D01*
X118122Y89268D01*
X118235Y89510D01*
X118315Y89622D01*
X118328Y89632D01*
X118426Y89672D01*
X119413Y90430D01*
X120170Y91417D01*
X120646Y92566D01*
X120808Y93799D01*
X120646Y95033D01*
X120170Y96182D01*
X119413Y97169D01*
X118426Y97926D01*
X117277Y98402D01*
X116043Y98564D01*
X114810Y98402D01*
X113661Y97926D01*
X112674Y97169D01*
X111916Y96182D01*
X111441Y95033D01*
X111278Y93799D01*
X111441Y92566D01*
X111916Y91417D01*
X112674Y90430D01*
X113661Y89672D01*
X113759Y89632D01*
X113771Y89622D01*
X113851Y89510D01*
X113964Y89268D01*
X114082Y88902D01*
X114190Y88419D01*
X114280Y87843D01*
X114364Y86599D01*
X113875Y86414D01*
X113779Y86488D01*
D01*
X113299Y86856D01*
X112629Y87134D01*
X111909Y87229D01*
X111190Y87134D01*
X110520Y86856D01*
X109944Y86414D01*
X109936Y86404D01*
X109848Y86362D01*
X109658Y86301D01*
X109379Y86237D01*
X109041Y86183D01*
X107013Y86054D01*
X86689D01*
X71822Y100921D01*
X71163Y101633D01*
X70564Y102364D01*
X70360Y102650D01*
X70212Y102889D01*
X70126Y103062D01*
X70098Y103147D01*
X70094Y103184D01*
X70103Y103248D01*
X70008Y103967D01*
X69730Y104638D01*
X69288Y105214D01*
X68713Y105655D01*
X68042Y105933D01*
X67323Y106028D01*
D02*
G37*
G36*
X412854Y84445D02*
X411775Y84303D01*
X410770Y83886D01*
X409906Y83224D01*
X409243Y82360D01*
X408827Y81355D01*
X408685Y80276D01*
X408827Y79196D01*
X409243Y78191D01*
X409906Y77327D01*
X410770Y76665D01*
X411775Y76248D01*
X412854Y76106D01*
X413934Y76248D01*
X414939Y76665D01*
X415803Y77327D01*
X416465Y78191D01*
X416882Y79196D01*
X417024Y80276D01*
X416882Y81355D01*
X416465Y82360D01*
X415803Y83224D01*
X414939Y83886D01*
X413934Y84303D01*
X412854Y84445D01*
D02*
G37*
G36*
X402854D02*
X401775Y84303D01*
X400770Y83886D01*
X399906Y83224D01*
X399243Y82360D01*
X398827Y81355D01*
X398685Y80276D01*
X398827Y79196D01*
X399243Y78191D01*
X399906Y77327D01*
X400770Y76665D01*
X401775Y76248D01*
X402854Y76106D01*
X403933Y76248D01*
X404939Y76665D01*
X405803Y77327D01*
X406465Y78191D01*
X406882Y79196D01*
X407024Y80276D01*
X406882Y81355D01*
X406465Y82360D01*
X405803Y83224D01*
X404939Y83886D01*
X403933Y84303D01*
X402854Y84445D01*
D02*
G37*
G36*
X209555Y80012D02*
Y75598D01*
X213969D01*
X213865Y76387D01*
X213368Y77588D01*
X212576Y78620D01*
X211545Y79411D01*
X210344Y79908D01*
X209555Y80012D01*
D02*
G37*
G36*
X208555D02*
X207766Y79908D01*
X206565Y79411D01*
X205534Y78620D01*
X204743Y77588D01*
X204245Y76387D01*
X204141Y75598D01*
X208555D01*
Y80012D01*
D02*
G37*
G36*
X213969Y74598D02*
X209555D01*
Y70185D01*
X210344Y70288D01*
X211545Y70786D01*
X212576Y71577D01*
X213368Y72609D01*
X213865Y73810D01*
X213969Y74598D01*
D02*
G37*
G36*
X208555D02*
X204141D01*
X204245Y73810D01*
X204743Y72609D01*
X205534Y71577D01*
X206565Y70786D01*
X207766Y70288D01*
X208555Y70185D01*
Y74598D01*
D02*
G37*
G36*
X65059Y94807D02*
X64340Y94713D01*
X63669Y94435D01*
X63094Y93993D01*
X62652Y93417D01*
X62374Y92747D01*
X62279Y92028D01*
X62374Y91308D01*
X62652Y90638D01*
X63094Y90062D01*
X63162Y90009D01*
X63195Y89969D01*
X63234Y89893D01*
X63296Y89713D01*
X63361Y89442D01*
X63418Y89110D01*
X63552Y87080D01*
Y85925D01*
X63552Y85925D01*
X63674Y85311D01*
X64022Y84790D01*
X73630Y75182D01*
X74283Y74478D01*
X74888Y73746D01*
X75096Y73458D01*
X75248Y73216D01*
X75339Y73038D01*
X75372Y72947D01*
X75370Y72933D01*
X75465Y72214D01*
X75742Y71543D01*
X76184Y70968D01*
X76760Y70526D01*
X77430Y70248D01*
X78150Y70153D01*
X78869Y70248D01*
X79539Y70526D01*
X80115Y70968D01*
X80557Y71543D01*
X80835Y72214D01*
X80929Y72933D01*
X80835Y73652D01*
X80557Y74323D01*
X80115Y74899D01*
X79539Y75340D01*
X78869Y75618D01*
X78150Y75713D01*
X78136Y75711D01*
X78045Y75744D01*
X77867Y75835D01*
X77625Y75987D01*
X77347Y76187D01*
X75823Y77531D01*
X66763Y86590D01*
Y86961D01*
X66795Y88265D01*
X66875Y89212D01*
X66927Y89566D01*
X66984Y89846D01*
X67040Y90037D01*
X67077Y90121D01*
X67130Y90196D01*
X67134Y90205D01*
X67466Y90638D01*
X67744Y91308D01*
X67839Y92028D01*
X67744Y92747D01*
X67466Y93417D01*
X67025Y93993D01*
X66449Y94435D01*
X65778Y94713D01*
X65059Y94807D01*
D02*
G37*
G36*
X412854Y74445D02*
X411775Y74303D01*
X410770Y73887D01*
X409906Y73224D01*
X409243Y72360D01*
X408827Y71355D01*
X408685Y70276D01*
X408827Y69196D01*
X409243Y68191D01*
X409906Y67327D01*
X410770Y66665D01*
X411775Y66248D01*
X412854Y66106D01*
X413934Y66248D01*
X414939Y66665D01*
X415803Y67327D01*
X416465Y68191D01*
X416882Y69196D01*
X417024Y70276D01*
X416882Y71355D01*
X416465Y72360D01*
X415803Y73224D01*
X414939Y73887D01*
X413934Y74303D01*
X412854Y74445D01*
D02*
G37*
G36*
X402854D02*
X401775Y74303D01*
X400770Y73887D01*
X399906Y73224D01*
X399243Y72360D01*
X398827Y71355D01*
X398685Y70276D01*
X398827Y69196D01*
X399243Y68191D01*
X399906Y67327D01*
X400770Y66665D01*
X401775Y66248D01*
X402854Y66106D01*
X403933Y66248D01*
X404939Y66665D01*
X405803Y67327D01*
X406465Y68191D01*
X406882Y69196D01*
X407024Y70276D01*
X406882Y71355D01*
X406465Y72360D01*
X405803Y73224D01*
X404939Y73887D01*
X403933Y74303D01*
X402854Y74445D01*
D02*
G37*
G36*
X266534Y72232D02*
X265613Y72048D01*
X264831Y71526D01*
X264309Y70745D01*
X264126Y69823D01*
X264309Y68901D01*
X264831Y68120D01*
X265613Y67598D01*
X266534Y67414D01*
X266631Y67434D01*
X266739Y67406D01*
X266904Y67340D01*
X267111Y67233D01*
X267354Y67082D01*
X267616Y66897D01*
X268615Y66039D01*
X272120Y62534D01*
X272511Y62273D01*
X272972Y62182D01*
X327321D01*
X327776Y62162D01*
X328606Y62081D01*
X328928Y62026D01*
X329204Y61960D01*
X329423Y61889D01*
X329582Y61820D01*
X329679Y61760D01*
X329685Y61755D01*
X329754Y61652D01*
X330535Y61130D01*
X331457Y60947D01*
X332379Y61130D01*
X333160Y61652D01*
X333682Y62434D01*
X333865Y63356D01*
X333682Y64277D01*
X333160Y65059D01*
X332379Y65581D01*
X331457Y65764D01*
X330535Y65581D01*
X329754Y65059D01*
X329713Y64997D01*
X329625Y64947D01*
X329458Y64876D01*
X329233Y64806D01*
X328952Y64742D01*
X328634Y64689D01*
X327319Y64590D01*
X273470D01*
X270304Y67756D01*
X269997Y68090D01*
X269465Y68735D01*
X269275Y69003D01*
X269124Y69246D01*
X269017Y69453D01*
X268951Y69619D01*
X268923Y69726D01*
X268943Y69823D01*
X268759Y70745D01*
X268237Y71526D01*
X267456Y72048D01*
X266534Y72232D01*
D02*
G37*
G36*
X413354Y64594D02*
Y60776D01*
X417172D01*
X417089Y61410D01*
X416651Y62468D01*
X415954Y63376D01*
X415046Y64072D01*
X413989Y64510D01*
X413354Y64594D01*
D02*
G37*
G36*
X412354D02*
X411720Y64510D01*
X410662Y64072D01*
X409754Y63376D01*
X409058Y62468D01*
X408620Y61410D01*
X408536Y60776D01*
X412354D01*
Y64594D01*
D02*
G37*
G36*
X403354D02*
Y60776D01*
X407172D01*
X407089Y61410D01*
X406651Y62468D01*
X405954Y63376D01*
X405046Y64072D01*
X403989Y64510D01*
X403354Y64594D01*
D02*
G37*
G36*
X402354D02*
X401720Y64510D01*
X400662Y64072D01*
X399754Y63376D01*
X399058Y62468D01*
X398620Y61410D01*
X398536Y60776D01*
X402354D01*
Y64594D01*
D02*
G37*
G36*
X417172Y59776D02*
X413354D01*
Y55958D01*
X413989Y56041D01*
X415046Y56479D01*
X415954Y57176D01*
X416651Y58084D01*
X417089Y59141D01*
X417172Y59776D01*
D02*
G37*
G36*
X412354D02*
X408536D01*
X408620Y59141D01*
X409058Y58084D01*
X409754Y57176D01*
X410662Y56479D01*
X411720Y56041D01*
X412354Y55958D01*
Y59776D01*
D02*
G37*
G36*
X407172D02*
X403354D01*
Y55958D01*
X403989Y56041D01*
X405046Y56479D01*
X405954Y57176D01*
X406651Y58084D01*
X407089Y59141D01*
X407172Y59776D01*
D02*
G37*
G36*
X402354D02*
X398536D01*
X398620Y59141D01*
X399058Y58084D01*
X399754Y57176D01*
X400662Y56479D01*
X401720Y56041D01*
X402354Y55958D01*
Y59776D01*
D02*
G37*
G36*
X408343Y52896D02*
X406953Y52760D01*
X405618Y52354D01*
X404386Y51696D01*
X403307Y50811D01*
X402422Y49732D01*
X401764Y48501D01*
X401358Y47165D01*
X401222Y45776D01*
X401358Y44386D01*
X401764Y43051D01*
X402422Y41819D01*
X403307Y40740D01*
X404386Y39855D01*
X405618Y39197D01*
X406953Y38791D01*
X408343Y38655D01*
X409732Y38791D01*
X411068Y39197D01*
X412299Y39855D01*
X413378Y40740D01*
X414263Y41819D01*
X414921Y43051D01*
X415327Y44386D01*
X415463Y45776D01*
X415327Y47165D01*
X414921Y48501D01*
X414263Y49732D01*
X413378Y50811D01*
X412299Y51696D01*
X411068Y52354D01*
X409732Y52760D01*
X408343Y52896D01*
D02*
G37*
G36*
X70153D02*
X68764Y52760D01*
X67428Y52354D01*
X66197Y51696D01*
X65118Y50811D01*
X64233Y49732D01*
X63575Y48501D01*
X63169Y47165D01*
X63033Y45776D01*
X63169Y44386D01*
X63575Y43051D01*
X64233Y41819D01*
X65118Y40740D01*
X66197Y39855D01*
X67428Y39197D01*
X68764Y38791D01*
X70153Y38655D01*
X71543Y38791D01*
X72879Y39197D01*
X74110Y39855D01*
X75189Y40740D01*
X76074Y41819D01*
X76732Y43051D01*
X77138Y44386D01*
X77274Y45776D01*
X77138Y47165D01*
X76732Y48501D01*
X76074Y49732D01*
X75189Y50811D01*
X74110Y51696D01*
X72879Y52354D01*
X71543Y52760D01*
X70153Y52896D01*
D02*
G37*
G36*
X217394Y30823D02*
X210989D01*
Y26386D01*
X217394D01*
Y30823D01*
D02*
G37*
G36*
X305654D02*
X299248D01*
Y26386D01*
X305654D01*
Y30823D01*
D02*
G37*
G36*
X393913D02*
X387508D01*
Y26386D01*
X393913D01*
Y30823D01*
D02*
G37*
G36*
X129134D02*
X122729D01*
Y26386D01*
X129134D01*
Y30823D01*
D02*
G37*
G36*
X96851D02*
X90446D01*
Y26386D01*
X96851D01*
Y30823D01*
D02*
G37*
G36*
X185111D02*
X178705D01*
Y26386D01*
X185111D01*
Y30823D01*
D02*
G37*
G36*
X273370D02*
X266965D01*
Y26386D01*
X273370D01*
Y30823D01*
D02*
G37*
G36*
X361630D02*
X355224D01*
Y26386D01*
X361630D01*
Y30823D01*
D02*
G37*
G36*
X354224D02*
X347819D01*
Y26386D01*
X354224D01*
Y30823D01*
D02*
G37*
G36*
X265965D02*
X259559D01*
Y26386D01*
X265965D01*
Y30823D01*
D02*
G37*
G36*
X177705D02*
X171300D01*
Y26386D01*
X177705D01*
Y30823D01*
D02*
G37*
G36*
X121729D02*
X115323D01*
Y26386D01*
X121729D01*
Y30823D01*
D02*
G37*
G36*
X89446D02*
X83040D01*
Y26386D01*
X89446D01*
Y30823D01*
D02*
G37*
G36*
X386508D02*
X380102D01*
Y26386D01*
X386508D01*
Y30823D01*
D02*
G37*
G36*
X298248D02*
X291843D01*
Y26386D01*
X298248D01*
Y30823D01*
D02*
G37*
G36*
X209989D02*
X203583D01*
Y26386D01*
X209989D01*
Y30823D01*
D02*
G37*
G36*
X393913Y25386D02*
X387508D01*
Y20949D01*
X393913D01*
Y25386D01*
D02*
G37*
G36*
X386508D02*
X380102D01*
Y20949D01*
X386508D01*
Y25386D01*
D02*
G37*
G36*
X361630D02*
X355224D01*
Y20949D01*
X361630D01*
Y25386D01*
D02*
G37*
G36*
X354224D02*
X347819D01*
Y20949D01*
X354224D01*
Y25386D01*
D02*
G37*
G36*
X298248D02*
X291843D01*
Y20949D01*
X298248D01*
Y25386D01*
D02*
G37*
G36*
X273370D02*
X266965D01*
Y20949D01*
X273370D01*
Y25386D01*
D02*
G37*
G36*
X265965D02*
X259559D01*
Y20949D01*
X265965D01*
Y25386D01*
D02*
G37*
G36*
X217394D02*
X210989D01*
Y20949D01*
X217394D01*
Y25386D01*
D02*
G37*
G36*
X209989D02*
X203583D01*
Y20949D01*
X209989D01*
Y25386D01*
D02*
G37*
G36*
X185111D02*
X178705D01*
Y20949D01*
X185111D01*
Y25386D01*
D02*
G37*
G36*
X177705D02*
X171300D01*
Y20949D01*
X177705D01*
Y25386D01*
D02*
G37*
G36*
X129134D02*
X122729D01*
Y20949D01*
X129134D01*
Y25386D01*
D02*
G37*
G36*
X121729D02*
X115323D01*
Y20949D01*
X121729D01*
Y25386D01*
D02*
G37*
G36*
X96851D02*
X90446D01*
Y20949D01*
X96851D01*
Y25386D01*
D02*
G37*
G36*
X89446D02*
X83040D01*
Y20949D01*
X89446D01*
Y25386D01*
D02*
G37*
G36*
X333071Y32822D02*
X332149Y32638D01*
X331368Y32116D01*
X330846Y31335D01*
X330662Y30413D01*
X330846Y29492D01*
X331368Y28710D01*
X331404Y28686D01*
X331437Y28625D01*
X331502Y28461D01*
X331567Y28236D01*
X331627Y27953D01*
X331677Y27632D01*
X331768Y26313D01*
Y11917D01*
X331768Y11917D01*
X331860Y11456D01*
X332121Y11066D01*
X335285Y7902D01*
X335675Y7641D01*
X336136Y7549D01*
X337106D01*
Y5998D01*
X343602D01*
Y6746D01*
X348031D01*
Y4823D01*
X361417D01*
Y7540D01*
X380315D01*
Y4823D01*
X393701D01*
Y14272D01*
X380315D01*
Y11554D01*
X361417D01*
Y14272D01*
X348031D01*
Y10761D01*
X343602D01*
Y11509D01*
X337106D01*
Y10027D01*
X336606Y9986D01*
X336516Y10077D01*
D01*
X334177Y12416D01*
Y26250D01*
X334232Y27164D01*
X334278Y27536D01*
X334336Y27862D01*
X334402Y28132D01*
X334473Y28343D01*
X334542Y28491D01*
X334597Y28577D01*
X334634Y28617D01*
X334774Y28710D01*
X335296Y29492D01*
X335479Y30413D01*
X335296Y31335D01*
X334774Y32116D01*
X333993Y32638D01*
X333071Y32822D01*
D02*
G37*
%LPD*%
G36*
X399498Y224195D02*
X400458Y223365D01*
X400636Y223246D01*
X400790Y223163D01*
X400919Y223115D01*
X401023Y223103D01*
X401102Y223127D01*
X400003Y222027D01*
X400027Y222107D01*
X400015Y222211D01*
X399967Y222340D01*
X399884Y222494D01*
X399765Y222672D01*
X399611Y222875D01*
X399196Y223355D01*
X398639Y223934D01*
X399196Y224491D01*
X399498Y224195D01*
D02*
G37*
G36*
X411375Y217690D02*
X411308Y217728D01*
X411235Y217748D01*
X411156Y217751D01*
X411070Y217737D01*
X410979Y217706D01*
X410881Y217657D01*
X410777Y217592D01*
X410666Y217509D01*
X410550Y217409D01*
X410427Y217292D01*
X409776Y217754D01*
X409893Y217877D01*
X409991Y217991D01*
X410070Y218098D01*
X410130Y218197D01*
X410171Y218288D01*
X410192Y218370D01*
X410195Y218445D01*
X410178Y218512D01*
X410143Y218570D01*
X410088Y218621D01*
X411375Y217690D01*
D02*
G37*
G36*
X364348Y217044D02*
X364077Y216769D01*
X363300Y215885D01*
X363183Y215720D01*
X363097Y215576D01*
X363041Y215455D01*
X363017Y215355D01*
X363024Y215278D01*
X362024Y216277D01*
X362102Y216270D01*
X362201Y216295D01*
X362323Y216350D01*
X362467Y216436D01*
X362632Y216553D01*
X362820Y216701D01*
X363262Y217089D01*
X363791Y217601D01*
X364348Y217044D01*
D02*
G37*
G36*
X357926Y217406D02*
X357543Y217012D01*
X356636Y215955D01*
X356415Y215644D01*
X356234Y215353D01*
X356094Y215082D01*
X355995Y214833D01*
X355936Y214603D01*
X355917Y214395D01*
X354358Y215954D01*
X354567Y215972D01*
X354796Y216031D01*
X355046Y216130D01*
X355316Y216270D01*
X355607Y216451D01*
X355919Y216672D01*
X356603Y217236D01*
X356976Y217579D01*
X357370Y217963D01*
X357926Y217406D01*
D02*
G37*
G36*
X434702Y214252D02*
X434542Y214387D01*
X434338Y214507D01*
X434091Y214613D01*
X433801Y214705D01*
X433467Y214784D01*
X433091Y214847D01*
X432208Y214932D01*
X431702Y214953D01*
X431152Y214961D01*
Y215748D01*
X431702Y215755D01*
X433091Y215861D01*
X433467Y215925D01*
X433801Y216003D01*
X434091Y216095D01*
X434338Y216202D01*
X434542Y216322D01*
X434702Y216457D01*
Y214252D01*
D02*
G37*
G36*
X347452Y216901D02*
X347069Y216508D01*
X346162Y215451D01*
X345940Y215139D01*
X345760Y214848D01*
X345620Y214578D01*
X345520Y214328D01*
X345461Y214099D01*
X345443Y213890D01*
X343884Y215449D01*
X344093Y215468D01*
X344322Y215526D01*
X344572Y215626D01*
X344842Y215766D01*
X345133Y215947D01*
X345444Y216168D01*
X346129Y216732D01*
X346502Y217075D01*
X346895Y217458D01*
X347452Y216901D01*
D02*
G37*
G36*
X371487Y213655D02*
X371690Y213534D01*
X371937Y213428D01*
X372228Y213336D01*
X372561Y213258D01*
X372937Y213194D01*
X373820Y213109D01*
X374326Y213088D01*
X374876Y213081D01*
Y212293D01*
X374326Y212286D01*
X372937Y212180D01*
X372561Y212116D01*
X372228Y212038D01*
X371937Y211946D01*
X371690Y211840D01*
X371487Y211719D01*
X371326Y211584D01*
Y213789D01*
X371487Y213655D01*
D02*
G37*
G36*
X392259Y214503D02*
X392259Y214503D01*
X392649Y214242D01*
X393110Y214150D01*
X401052D01*
X401152Y213650D01*
X400477Y213371D01*
X399737Y212803D01*
X399169Y212063D01*
X398927Y211480D01*
X393963D01*
X387269Y218174D01*
X387117Y218276D01*
X387268Y218776D01*
X387985D01*
X392259Y214503D01*
D02*
G37*
G36*
X405787Y211669D02*
X405832Y211603D01*
X405893Y211545D01*
X405970Y211495D01*
X406062Y211452D01*
X406171Y211417D01*
X406296Y211390D01*
X406437Y211371D01*
X406594Y211359D01*
X406767Y211355D01*
X406961Y210568D01*
X406793Y210564D01*
X406646Y210552D01*
X406518Y210532D01*
X406410Y210505D01*
X406322Y210470D01*
X406254Y210426D01*
X406206Y210375D01*
X406178Y210317D01*
X406169Y210250D01*
X406180Y210175D01*
X405758Y211743D01*
X405787Y211669D01*
D02*
G37*
G36*
X399647Y209492D02*
X399638Y209566D01*
X399611Y209632D01*
X399567Y209691D01*
X399504Y209741D01*
X399425Y209784D01*
X399327Y209820D01*
X399211Y209847D01*
X399078Y209866D01*
X398927Y209878D01*
X398758Y209882D01*
Y210669D01*
X398927Y210673D01*
X399078Y210685D01*
X399211Y210704D01*
X399327Y210732D01*
X399425Y210767D01*
X399504Y210810D01*
X399567Y210860D01*
X399611Y210919D01*
X399638Y210985D01*
X399647Y211059D01*
Y209492D01*
D02*
G37*
G36*
X410955Y207878D02*
X410896Y207924D01*
X410831Y207952D01*
X410758Y207963D01*
X410679Y207955D01*
X410592Y207929D01*
X410498Y207885D01*
X410397Y207822D01*
X410289Y207742D01*
X410174Y207644D01*
X410052Y207527D01*
X409497Y208086D01*
X409614Y208208D01*
X409713Y208323D01*
X409794Y208432D01*
X409856Y208533D01*
X409901Y208627D01*
X409927Y208714D01*
X409935Y208794D01*
X409926Y208867D01*
X409898Y208933D01*
X409852Y208992D01*
X410955Y207878D01*
D02*
G37*
G36*
X387426Y208970D02*
X387485Y208741D01*
X387585Y208491D01*
X387725Y208221D01*
X387906Y207930D01*
X388127Y207618D01*
X388691Y206934D01*
X389034Y206561D01*
X389417Y206168D01*
X388860Y205611D01*
X388467Y205994D01*
X387409Y206901D01*
X387098Y207122D01*
X386807Y207303D01*
X386537Y207443D01*
X386287Y207543D01*
X386058Y207601D01*
X385849Y207620D01*
X387408Y209179D01*
X387426Y208970D01*
D02*
G37*
G36*
X409160Y204535D02*
X410124Y203696D01*
X410389Y203506D01*
X410625Y203361D01*
X410833Y203261D01*
X411013Y203207D01*
X411164Y203197D01*
X411287Y203232D01*
X409898Y201843D01*
X409933Y201966D01*
X409923Y202117D01*
X409868Y202297D01*
X409769Y202505D01*
X409624Y202741D01*
X409434Y203006D01*
X409199Y203299D01*
X408595Y203970D01*
X408225Y204348D01*
X408782Y204904D01*
X409160Y204535D01*
D02*
G37*
G36*
X387915Y205410D02*
X389550Y203774D01*
X389550Y203774D01*
X389941Y203513D01*
X390402Y203422D01*
X390402Y203422D01*
X399722D01*
X399892Y202922D01*
X399737Y202803D01*
X399169Y202063D01*
X398927Y201480D01*
X389319D01*
X388624Y202175D01*
X388317Y202508D01*
X387785Y203153D01*
X387596Y203421D01*
X387444Y203664D01*
X387337Y203871D01*
X387271Y204037D01*
X387244Y204144D01*
X387263Y204241D01*
X387080Y205163D01*
X386602Y205877D01*
X386980Y206212D01*
X387915Y205410D01*
D02*
G37*
G36*
X386448Y204017D02*
X386506Y203787D01*
X386606Y203538D01*
X386746Y203267D01*
X386927Y202976D01*
X387148Y202665D01*
X387712Y201981D01*
X388055Y201608D01*
X388438Y201214D01*
X387881Y200657D01*
X387488Y201041D01*
X386431Y201948D01*
X386119Y202169D01*
X385828Y202350D01*
X385558Y202490D01*
X385308Y202589D01*
X385079Y202648D01*
X384870Y202666D01*
X386429Y204225D01*
X386448Y204017D01*
D02*
G37*
G36*
X399647Y199492D02*
X399638Y199566D01*
X399611Y199632D01*
X399567Y199691D01*
X399504Y199741D01*
X399425Y199784D01*
X399327Y199820D01*
X399211Y199847D01*
X399078Y199866D01*
X398927Y199878D01*
X398758Y199882D01*
Y200669D01*
X398927Y200673D01*
X399078Y200685D01*
X399211Y200704D01*
X399327Y200732D01*
X399425Y200767D01*
X399504Y200810D01*
X399567Y200861D01*
X399611Y200919D01*
X399638Y200985D01*
X399647Y201060D01*
Y199492D01*
D02*
G37*
G36*
X447846Y209305D02*
X447838Y209380D01*
X447814Y209447D01*
X447774Y209506D01*
X447718Y209557D01*
X447646Y209600D01*
X447558Y209635D01*
X447454Y209663D01*
X447334Y209683D01*
X447198Y209695D01*
X447046Y209698D01*
Y210486D01*
X447198Y210490D01*
X447334Y210502D01*
X447454Y210521D01*
X447558Y210549D01*
X447646Y210584D01*
X447718Y210628D01*
X447774Y210679D01*
X447814Y210738D01*
X447838Y210805D01*
X447846Y210879D01*
Y209305D01*
D02*
G37*
G36*
X377589Y199194D02*
X377648Y198965D01*
X377748Y198715D01*
X377888Y198444D01*
X378068Y198154D01*
X378289Y197842D01*
X378854Y197158D01*
X379196Y196785D01*
X379580Y196391D01*
X379023Y195835D01*
X378630Y196218D01*
X377572Y197125D01*
X377261Y197346D01*
X376970Y197527D01*
X376700Y197667D01*
X376450Y197766D01*
X376221Y197825D01*
X376012Y197844D01*
X377571Y199402D01*
X377589Y199194D01*
D02*
G37*
G36*
X169703Y192787D02*
X169762Y192558D01*
X169862Y192308D01*
X170002Y192038D01*
X170182Y191747D01*
X170403Y191436D01*
X170967Y190751D01*
X171310Y190378D01*
X171694Y189985D01*
X171137Y189428D01*
X170744Y189812D01*
X169686Y190719D01*
X169375Y190940D01*
X169084Y191120D01*
X168814Y191260D01*
X168564Y191360D01*
X168335Y191419D01*
X168126Y191437D01*
X169685Y192996D01*
X169703Y192787D01*
D02*
G37*
G36*
X260794Y187098D02*
X259777Y187403D01*
X259804Y187418D01*
X259828Y187463D01*
X259849Y187537D01*
X259868Y187639D01*
X259883Y187770D01*
X259906Y188118D01*
X259918Y188856D01*
X260706D01*
X260794Y187098D01*
D02*
G37*
G36*
X517447Y186865D02*
X517380Y186841D01*
X517321Y186801D01*
X517270Y186745D01*
X517227Y186673D01*
X517191Y186585D01*
X517164Y186481D01*
X517144Y186361D01*
X517132Y186225D01*
X517128Y186073D01*
X516341D01*
X516337Y186225D01*
X516325Y186361D01*
X516305Y186481D01*
X516278Y186585D01*
X516242Y186673D01*
X516199Y186745D01*
X516148Y186801D01*
X516089Y186841D01*
X516022Y186865D01*
X515947Y186873D01*
X517522D01*
X517447Y186865D01*
D02*
G37*
G36*
X452486D02*
X452419Y186841D01*
X452360Y186801D01*
X452309Y186745D01*
X452266Y186673D01*
X452231Y186585D01*
X452203Y186481D01*
X452183Y186361D01*
X452171Y186225D01*
X452168Y186073D01*
X451380D01*
X451376Y186225D01*
X451364Y186361D01*
X451345Y186481D01*
X451317Y186585D01*
X451282Y186673D01*
X451238Y186745D01*
X451187Y186801D01*
X451128Y186841D01*
X451061Y186865D01*
X450986Y186873D01*
X452561D01*
X452486Y186865D01*
D02*
G37*
G36*
X383115Y186375D02*
X382907Y186356D01*
X382677Y186298D01*
X382428Y186198D01*
X382157Y186058D01*
X381867Y185877D01*
X381555Y185656D01*
X380871Y185092D01*
X380498Y184749D01*
X380104Y184366D01*
X379547Y184923D01*
X379931Y185316D01*
X380838Y186373D01*
X381059Y186685D01*
X381240Y186976D01*
X381380Y187246D01*
X381479Y187496D01*
X381538Y187725D01*
X381556Y187934D01*
X383115Y186375D01*
D02*
G37*
G36*
X377217Y184925D02*
X377311Y184867D01*
X377442Y184816D01*
X377612Y184772D01*
X377821Y184735D01*
X378067Y184704D01*
X378676Y184664D01*
X379438Y184650D01*
Y183863D01*
X379038Y183859D01*
X377821Y183778D01*
X377612Y183740D01*
X377442Y183696D01*
X377311Y183645D01*
X377217Y183588D01*
X377162Y183523D01*
Y184989D01*
X377217Y184925D01*
D02*
G37*
G36*
X410550Y183142D02*
X410666Y183042D01*
X410777Y182959D01*
X410881Y182894D01*
X410979Y182845D01*
X411070Y182814D01*
X411156Y182800D01*
X411235Y182803D01*
X411308Y182823D01*
X411375Y182861D01*
X410088Y181930D01*
X410143Y181981D01*
X410178Y182040D01*
X410195Y182106D01*
X410192Y182181D01*
X410171Y182264D01*
X410130Y182354D01*
X410070Y182453D01*
X409991Y182560D01*
X409893Y182674D01*
X409776Y182797D01*
X410427Y183259D01*
X410550Y183142D01*
D02*
G37*
G36*
X181582Y183973D02*
X181786Y183853D01*
X182033Y183746D01*
X182323Y183654D01*
X182657Y183576D01*
X183033Y183512D01*
X183916Y183427D01*
X184422Y183406D01*
X184972Y183399D01*
Y182612D01*
X184422Y182605D01*
X183033Y182498D01*
X182657Y182434D01*
X182323Y182357D01*
X182033Y182264D01*
X181786Y182158D01*
X181582Y182038D01*
X181422Y181903D01*
Y184108D01*
X181582Y183973D01*
D02*
G37*
G36*
X266913Y184443D02*
X266792Y184239D01*
X266686Y183993D01*
X266594Y183702D01*
X266516Y183369D01*
X266452Y182992D01*
X266367Y182110D01*
X266346Y181603D01*
X266339Y181054D01*
X265551D01*
X265544Y181603D01*
X265438Y182992D01*
X265374Y183369D01*
X265296Y183702D01*
X265204Y183993D01*
X265098Y184239D01*
X264977Y184443D01*
X264843Y184604D01*
X267047D01*
X266913Y184443D01*
D02*
G37*
G36*
X167685Y181835D02*
X167546Y181683D01*
X167422Y181487D01*
X167313Y181246D01*
X167218Y180961D01*
X167138Y180632D01*
X167072Y180258D01*
X166985Y179377D01*
X166963Y178871D01*
X166956Y178319D01*
X166168Y178358D01*
X166162Y178911D01*
X166062Y180307D01*
X166003Y180684D01*
X165930Y181018D01*
X165844Y181309D01*
X165744Y181555D01*
X165632Y181758D01*
X165506Y181917D01*
X167685Y181835D01*
D02*
G37*
G36*
X186087Y172760D02*
X186291Y172640D01*
X186538Y172534D01*
X186828Y172441D01*
X187161Y172363D01*
X187538Y172300D01*
X188421Y172215D01*
X188927Y172193D01*
X189476Y172186D01*
Y171399D01*
X188927Y171392D01*
X187538Y171285D01*
X187161Y171222D01*
X186828Y171144D01*
X186538Y171052D01*
X186291Y170945D01*
X186087Y170825D01*
X185927Y170690D01*
Y172895D01*
X186087Y172760D01*
D02*
G37*
G36*
X416071Y170985D02*
X416097Y170919D01*
X416142Y170861D01*
X416204Y170810D01*
X416284Y170767D01*
X416382Y170732D01*
X416497Y170704D01*
X416631Y170685D01*
X416782Y170673D01*
X416951Y170669D01*
Y169882D01*
X416782Y169878D01*
X416631Y169866D01*
X416497Y169847D01*
X416382Y169819D01*
X416284Y169784D01*
X416204Y169741D01*
X416142Y169691D01*
X416097Y169632D01*
X416071Y169566D01*
X416062Y169492D01*
Y171060D01*
X416071Y170985D01*
D02*
G37*
G36*
X444482Y169237D02*
X444325Y169359D01*
X444124Y169469D01*
X443879Y169566D01*
X443589Y169650D01*
X443256Y169721D01*
X442878Y169779D01*
X441990Y169856D01*
X440925Y169882D01*
X440874Y170669D01*
X441426Y170677D01*
X442813Y170787D01*
X443186Y170853D01*
X443514Y170934D01*
X443797Y171029D01*
X444036Y171140D01*
X444230Y171264D01*
X444380Y171404D01*
X444482Y169237D01*
D02*
G37*
G36*
X483163Y168351D02*
X483006Y168473D01*
X482805Y168583D01*
X482560Y168680D01*
X482270Y168764D01*
X481937Y168835D01*
X481559Y168893D01*
X480671Y168970D01*
X479606Y168996D01*
X479556Y169783D01*
X480107Y169791D01*
X481494Y169901D01*
X481867Y169967D01*
X482195Y170048D01*
X482478Y170143D01*
X482717Y170254D01*
X482911Y170378D01*
X483061Y170518D01*
X483163Y168351D01*
D02*
G37*
G36*
X399696Y173402D02*
X399866Y172902D01*
X399737Y172803D01*
X399169Y172063D01*
X398812Y171201D01*
X398690Y170276D01*
X398812Y169351D01*
X399169Y168489D01*
X399737Y167748D01*
X399772Y167721D01*
X399612Y167248D01*
X390263D01*
X384570Y172940D01*
X384761Y173402D01*
X399696D01*
D02*
G37*
G36*
X388028Y166076D02*
X387837Y165614D01*
X385996D01*
X385740Y165881D01*
X385294Y166405D01*
X385141Y166611D01*
X385027Y166786D01*
X384956Y166917D01*
X384929Y166985D01*
X384929Y167013D01*
X384928Y167024D01*
X384987Y167323D01*
X384804Y168245D01*
X384282Y169026D01*
X383500Y169548D01*
X382579Y169731D01*
X381657Y169548D01*
X380876Y169026D01*
X380354Y168245D01*
X380170Y167323D01*
X380196Y167195D01*
X379735Y166948D01*
X376737Y169946D01*
X376347Y170207D01*
X375886Y170299D01*
X375886Y170299D01*
X361719D01*
X360653Y171365D01*
X360844Y171827D01*
X382277D01*
X388028Y166076D01*
D02*
G37*
G36*
X181047Y167073D02*
X181251Y166953D01*
X181498Y166847D01*
X181788Y166754D01*
X182122Y166676D01*
X182498Y166613D01*
X183381Y166527D01*
X183887Y166506D01*
X184437Y166499D01*
Y165712D01*
X183887Y165705D01*
X182498Y165598D01*
X182122Y165535D01*
X181788Y165457D01*
X181498Y165365D01*
X181251Y165258D01*
X181047Y165138D01*
X180887Y165003D01*
Y167208D01*
X181047Y167073D01*
D02*
G37*
G36*
X382888Y164972D02*
X382917Y164973D01*
X382985Y164945D01*
X383115Y164875D01*
X383291Y164760D01*
X383491Y164611D01*
X384293Y163906D01*
X384641Y163558D01*
X384641Y163558D01*
X385031Y163297D01*
X385492Y163205D01*
X385492Y163205D01*
X399364D01*
X399611Y162705D01*
X399194Y162162D01*
X398817Y161252D01*
X398688Y160276D01*
X398817Y159299D01*
X399194Y158389D01*
X399793Y157608D01*
X400574Y157009D01*
X401484Y156632D01*
X402279Y156527D01*
X402246Y156027D01*
X390656D01*
X382204Y164479D01*
X382451Y164940D01*
X382579Y164914D01*
X382878Y164974D01*
X382888Y164972D01*
D02*
G37*
G36*
X384123Y166904D02*
X384157Y166751D01*
X384228Y166574D01*
X384337Y166375D01*
X384483Y166151D01*
X384666Y165905D01*
X385143Y165343D01*
X385771Y164688D01*
X385214Y164131D01*
X384875Y164463D01*
X383996Y165236D01*
X383750Y165419D01*
X383527Y165565D01*
X383327Y165673D01*
X383151Y165744D01*
X382997Y165778D01*
X382867Y165775D01*
X384127Y167034D01*
X384123Y166904D01*
D02*
G37*
G36*
X410471Y163221D02*
X410586Y163122D01*
X410695Y163041D01*
X410797Y162978D01*
X410893Y162932D01*
X410982Y162903D01*
X411065Y162892D01*
X411141Y162898D01*
X411212Y162922D01*
X411275Y162963D01*
X410056Y161962D01*
X410108Y162016D01*
X410141Y162077D01*
X410156Y162145D01*
X410152Y162221D01*
X410130Y162305D01*
X410089Y162396D01*
X410030Y162494D01*
X409952Y162599D01*
X409856Y162712D01*
X409741Y162832D01*
X410350Y163336D01*
X410471Y163221D01*
D02*
G37*
G36*
X460339Y157087D02*
X460331Y157161D01*
X460307Y157228D01*
X460267Y157287D01*
X460211Y157339D01*
X460139Y157382D01*
X460051Y157417D01*
X459947Y157445D01*
X459827Y157465D01*
X459691Y157476D01*
X459540Y157480D01*
Y158268D01*
X459691Y158272D01*
X459827Y158283D01*
X459947Y158303D01*
X460051Y158331D01*
X460139Y158366D01*
X460211Y158409D01*
X460267Y158461D01*
X460307Y158520D01*
X460331Y158587D01*
X460339Y158661D01*
Y157087D01*
D02*
G37*
G36*
X207899Y148165D02*
X207738Y148300D01*
X207535Y148421D01*
X207288Y148527D01*
X206998Y148619D01*
X206664Y148697D01*
X206288Y148761D01*
X205405Y148846D01*
X204899Y148867D01*
X204349Y148874D01*
Y149661D01*
X204899Y149669D01*
X206288Y149775D01*
X206664Y149839D01*
X206998Y149917D01*
X207288Y150009D01*
X207535Y150115D01*
X207738Y150235D01*
X207899Y150370D01*
Y148165D01*
D02*
G37*
G36*
X179994Y150235D02*
X180198Y150115D01*
X180444Y150009D01*
X180735Y149917D01*
X181068Y149839D01*
X181445Y149775D01*
X182327Y149690D01*
X182834Y149669D01*
X183383Y149661D01*
Y148874D01*
X182834Y148867D01*
X181445Y148761D01*
X181068Y148697D01*
X180735Y148619D01*
X180444Y148527D01*
X180198Y148421D01*
X179994Y148300D01*
X179833Y148165D01*
Y150370D01*
X179994Y150235D01*
D02*
G37*
G36*
X202734Y143764D02*
X202938Y143644D01*
X203185Y143537D01*
X203475Y143445D01*
X203808Y143367D01*
X204185Y143304D01*
X205067Y143219D01*
X205574Y143197D01*
X206123Y143190D01*
Y142403D01*
X205574Y142396D01*
X204185Y142289D01*
X203808Y142226D01*
X203475Y142148D01*
X203185Y142056D01*
X202938Y141949D01*
X202734Y141829D01*
X202573Y141694D01*
Y143899D01*
X202734Y143764D01*
D02*
G37*
G36*
X188763Y143990D02*
X188643Y143787D01*
X188536Y143540D01*
X188444Y143250D01*
X188366Y142916D01*
X188302Y142540D01*
X188217Y141657D01*
X188196Y141151D01*
X188189Y140601D01*
X187402D01*
X187394Y141151D01*
X187288Y142540D01*
X187224Y142916D01*
X187146Y143250D01*
X187054Y143540D01*
X186948Y143787D01*
X186828Y143990D01*
X186693Y144151D01*
X188898D01*
X188763Y143990D01*
D02*
G37*
G36*
X193881Y140726D02*
X193761Y140523D01*
X193654Y140276D01*
X193562Y139986D01*
X193484Y139652D01*
X193421Y139276D01*
X193335Y138393D01*
X193314Y137887D01*
X193307Y137337D01*
X192520D01*
X192513Y137887D01*
X192406Y139276D01*
X192342Y139652D01*
X192265Y139986D01*
X192172Y140276D01*
X192066Y140523D01*
X191946Y140726D01*
X191811Y140887D01*
X194016D01*
X193881Y140726D01*
D02*
G37*
G36*
X177234Y137597D02*
X177340Y136208D01*
X177404Y135832D01*
X177482Y135498D01*
X177574Y135208D01*
X177680Y134961D01*
X177801Y134758D01*
X177935Y134597D01*
X175731D01*
X175865Y134758D01*
X175986Y134961D01*
X176092Y135208D01*
X176184Y135498D01*
X176262Y135832D01*
X176326Y136208D01*
X176411Y137091D01*
X176432Y137597D01*
X176439Y138147D01*
X177227D01*
X177234Y137597D01*
D02*
G37*
G36*
X212303Y137862D02*
X212310Y137307D01*
X212404Y135907D01*
X212461Y135529D01*
X212531Y135196D01*
X212613Y134907D01*
X212708Y134662D01*
X212815Y134463D01*
X212936Y134307D01*
X210777Y134425D01*
X210917Y134572D01*
X211043Y134765D01*
X211154Y135002D01*
X211250Y135284D01*
X211331Y135611D01*
X211398Y135984D01*
X211449Y136401D01*
X211508Y137370D01*
X211516Y137922D01*
X212303Y137862D01*
D02*
G37*
G36*
X241930Y135501D02*
X242133Y135380D01*
X242380Y135274D01*
X242670Y135182D01*
X243004Y135104D01*
X243380Y135040D01*
X244263Y134955D01*
X244769Y134934D01*
X245319Y134927D01*
Y134139D01*
X244769Y134132D01*
X243380Y134026D01*
X243004Y133962D01*
X242670Y133884D01*
X242380Y133792D01*
X242133Y133686D01*
X241930Y133565D01*
X241769Y133431D01*
Y135635D01*
X241930Y135501D01*
D02*
G37*
G36*
X202286Y131980D02*
X202308Y131922D01*
X202354Y131843D01*
X202425Y131745D01*
X202519Y131628D01*
X202945Y131157D01*
X203349Y130745D01*
X202792Y130188D01*
X202576Y130402D01*
X201693Y131182D01*
X201615Y131229D01*
X201556Y131251D01*
X201518Y131250D01*
X202287Y132019D01*
X202286Y131980D01*
D02*
G37*
G36*
X240840Y129364D02*
X240679Y129499D01*
X240476Y129619D01*
X240229Y129726D01*
X239939Y129818D01*
X239605Y129896D01*
X239229Y129959D01*
X238346Y130044D01*
X237840Y130066D01*
X237290Y130073D01*
Y130860D01*
X237840Y130867D01*
X239229Y130974D01*
X239605Y131037D01*
X239939Y131115D01*
X240229Y131207D01*
X240476Y131314D01*
X240679Y131434D01*
X240840Y131569D01*
Y129364D01*
D02*
G37*
G36*
X258103Y131488D02*
X259160Y130581D01*
X259471Y130359D01*
X259762Y130179D01*
X260033Y130039D01*
X260282Y129939D01*
X260512Y129880D01*
X260720Y129862D01*
X259161Y128303D01*
X259143Y128512D01*
X259084Y128741D01*
X258985Y128991D01*
X258845Y129261D01*
X258664Y129552D01*
X258443Y129864D01*
X257879Y130548D01*
X257536Y130921D01*
X257152Y131314D01*
X257709Y131871D01*
X258103Y131488D01*
D02*
G37*
G36*
X166963Y131299D02*
X167069Y129910D01*
X167133Y129533D01*
X167211Y129200D01*
X167303Y128910D01*
X167409Y128663D01*
X167530Y128459D01*
X167665Y128298D01*
X165460D01*
X165594Y128459D01*
X165715Y128663D01*
X165821Y128910D01*
X165913Y129200D01*
X165991Y129533D01*
X166055Y129910D01*
X166140Y130793D01*
X166161Y131299D01*
X166168Y131848D01*
X166956D01*
X166963Y131299D01*
D02*
G37*
G36*
X162371D02*
X162477Y129910D01*
X162541Y129533D01*
X162619Y129200D01*
X162711Y128910D01*
X162818Y128663D01*
X162938Y128459D01*
X163073Y128298D01*
X160868D01*
X161003Y128459D01*
X161123Y128663D01*
X161229Y128910D01*
X161321Y129200D01*
X161399Y129533D01*
X161463Y129910D01*
X161548Y130793D01*
X161569Y131299D01*
X161577Y131848D01*
X162364D01*
X162371Y131299D01*
D02*
G37*
G36*
X172433Y131846D02*
X172440Y131297D01*
X172546Y129908D01*
X172609Y129531D01*
X172687Y129197D01*
X172779Y128906D01*
X172885Y128659D01*
X173005Y128454D01*
X173139Y128293D01*
X170934Y128304D01*
X171069Y128464D01*
X171190Y128667D01*
X171297Y128913D01*
X171389Y129203D01*
X171467Y129536D01*
X171531Y129912D01*
X171617Y130795D01*
X171638Y131301D01*
X171645Y131850D01*
X172433Y131846D01*
D02*
G37*
G36*
X215956Y126429D02*
X215795Y126564D01*
X215592Y126684D01*
X215345Y126790D01*
X215054Y126883D01*
X214721Y126961D01*
X214344Y127024D01*
X213462Y127109D01*
X212955Y127131D01*
X212406Y127138D01*
Y127925D01*
X212955Y127932D01*
X214344Y128039D01*
X214721Y128102D01*
X215054Y128180D01*
X215345Y128272D01*
X215592Y128379D01*
X215795Y128499D01*
X215956Y128634D01*
Y126429D01*
D02*
G37*
G36*
X203439Y123208D02*
X203278Y123343D01*
X203075Y123463D01*
X202828Y123569D01*
X202538Y123661D01*
X202204Y123739D01*
X201828Y123803D01*
X200945Y123888D01*
X200439Y123909D01*
X199889Y123917D01*
Y124704D01*
X200439Y124711D01*
X201828Y124817D01*
X202204Y124881D01*
X202538Y124959D01*
X202828Y125051D01*
X203075Y125157D01*
X203278Y125278D01*
X203439Y125413D01*
Y123208D01*
D02*
G37*
G36*
X216455Y120642D02*
X216514Y120412D01*
X216614Y120163D01*
X216754Y119892D01*
X216934Y119602D01*
X217155Y119290D01*
X217720Y118606D01*
X218062Y118233D01*
X218446Y117839D01*
X217889Y117282D01*
X217496Y117666D01*
X216438Y118573D01*
X216127Y118794D01*
X215836Y118975D01*
X215566Y119115D01*
X215316Y119214D01*
X215087Y119273D01*
X214878Y119291D01*
X216437Y120850D01*
X216455Y120642D01*
D02*
G37*
G36*
X210156Y116311D02*
X210215Y116082D01*
X210314Y115832D01*
X210454Y115562D01*
X210635Y115271D01*
X210856Y114959D01*
X211420Y114275D01*
X211763Y113902D01*
X212147Y113508D01*
X211590Y112952D01*
X211196Y113335D01*
X210139Y114242D01*
X209828Y114463D01*
X209537Y114644D01*
X209266Y114784D01*
X209017Y114883D01*
X208787Y114942D01*
X208579Y114961D01*
X210138Y116520D01*
X210156Y116311D01*
D02*
G37*
G36*
X253389Y102875D02*
X253242Y102983D01*
X253048Y103080D01*
X252809Y103165D01*
X252524Y103240D01*
X252192Y103302D01*
X251391Y103394D01*
X250921Y103422D01*
X249844Y103445D01*
X249742Y104232D01*
X250295Y104240D01*
X251679Y104353D01*
X252048Y104421D01*
X252371Y104505D01*
X252647Y104603D01*
X252878Y104716D01*
X253062Y104845D01*
X253200Y104989D01*
X253389Y102875D01*
D02*
G37*
G36*
X298904Y93396D02*
X299962Y92496D01*
X300272Y92281D01*
X300560Y92109D01*
X300827Y91980D01*
X301072Y91893D01*
X301295Y91850D01*
X301497Y91848D01*
X300089Y90230D01*
X300063Y90419D01*
X299997Y90631D01*
X299889Y90867D01*
X299742Y91126D01*
X299554Y91408D01*
X299325Y91713D01*
X298747Y92395D01*
X298006Y93169D01*
X298507Y93782D01*
X298904Y93396D01*
D02*
G37*
G36*
X297668Y92361D02*
X298150Y91857D01*
X298697Y91212D01*
X298898Y90944D01*
X299058Y90703D01*
X299174Y90501D01*
X299245Y90344D01*
X299259Y90302D01*
X299255Y90283D01*
X299333Y89888D01*
X298872Y89642D01*
X281814Y106700D01*
X282006Y107162D01*
X282867D01*
X297668Y92361D01*
D02*
G37*
G36*
X325503Y85219D02*
X325351Y85335D01*
X325153Y85438D01*
X324911Y85529D01*
X324623Y85608D01*
X324291Y85675D01*
X323913Y85730D01*
X323022Y85803D01*
X321951Y85827D01*
X321875Y86614D01*
X322427Y86622D01*
X323813Y86734D01*
X324184Y86801D01*
X324509Y86883D01*
X324789Y86980D01*
X325024Y87092D01*
X325213Y87218D01*
X325356Y87360D01*
X325503Y85219D01*
D02*
G37*
G36*
X224219Y85238D02*
X224360Y82996D01*
X224425Y82594D01*
X224502Y82256D01*
X224590Y81981D01*
X224691Y81770D01*
X224803Y81622D01*
X222047D01*
X222160Y81770D01*
X222260Y81981D01*
X222348Y82256D01*
X222425Y82594D01*
X222490Y82996D01*
X222585Y83990D01*
X222632Y85238D01*
X222638Y85958D01*
X224213D01*
X224219Y85238D01*
D02*
G37*
G36*
X230121Y81511D02*
X230066Y81516D01*
X229989Y81493D01*
X229892Y81443D01*
X229773Y81366D01*
X229634Y81262D01*
X229293Y80971D01*
X228625Y80332D01*
X228068Y80889D01*
X228309Y81132D01*
X229102Y82037D01*
X229180Y82156D01*
X229229Y82253D01*
X229252Y82329D01*
X229247Y82385D01*
X230121Y81511D01*
D02*
G37*
G36*
X224778Y78743D02*
X224701Y78546D01*
X224632Y78282D01*
X224573Y77952D01*
X224482Y77092D01*
X224428Y75966D01*
X224410Y74575D01*
X222835Y74402D01*
X222828Y75122D01*
X222675Y77354D01*
X222604Y77750D01*
X222521Y78080D01*
X222425Y78345D01*
X222316Y78545D01*
X222195Y78680D01*
X224864Y78874D01*
X224778Y78743D01*
D02*
G37*
G36*
X305485Y71083D02*
X305337Y71192D01*
X305144Y71289D01*
X304905Y71374D01*
X304619Y71448D01*
X304288Y71511D01*
X303486Y71602D01*
X303017Y71631D01*
X301940Y71653D01*
X301837Y72441D01*
X302391Y72448D01*
X303774Y72562D01*
X304143Y72630D01*
X304466Y72713D01*
X304743Y72812D01*
X304973Y72925D01*
X305157Y73053D01*
X305295Y73197D01*
X305485Y71083D01*
D02*
G37*
G36*
X310636Y68599D02*
X310499Y68694D01*
X310315Y68778D01*
X310082Y68852D01*
X309801Y68916D01*
X309472Y68971D01*
X308671Y69050D01*
X307678Y69090D01*
X307109Y69095D01*
X306953Y69882D01*
X307509Y69890D01*
X308889Y70006D01*
X309254Y70075D01*
X309571Y70160D01*
X309840Y70261D01*
X310062Y70377D01*
X310237Y70508D01*
X310363Y70655D01*
X310636Y68599D01*
D02*
G37*
G36*
X193180Y61099D02*
X193384Y60978D01*
X193631Y60872D01*
X193921Y60780D01*
X194254Y60702D01*
X194631Y60638D01*
X195513Y60553D01*
X196020Y60532D01*
X196569Y60525D01*
Y59737D01*
X196020Y59730D01*
X194631Y59624D01*
X194254Y59560D01*
X193921Y59482D01*
X193631Y59390D01*
X193384Y59284D01*
X193180Y59163D01*
X193019Y59029D01*
Y61234D01*
X193180Y61099D01*
D02*
G37*
G36*
X305523Y48612D02*
X305433Y48671D01*
X305288Y48725D01*
X305088Y48772D01*
X304832Y48813D01*
X304155Y48876D01*
X302722Y48923D01*
X302134Y48926D01*
Y50501D01*
X302722Y50504D01*
X305088Y50656D01*
X305288Y50703D01*
X305433Y50757D01*
X305523Y50816D01*
Y48612D01*
D02*
G37*
G36*
X307690Y48500D02*
X307636Y48355D01*
X307589Y48155D01*
X307548Y47899D01*
X307485Y47221D01*
X307438Y45789D01*
X307435Y45200D01*
X305860D01*
X305857Y45789D01*
X305706Y48155D01*
X305658Y48355D01*
X305605Y48500D01*
X305545Y48589D01*
X307750D01*
X307690Y48500D01*
D02*
G37*
G36*
X285293Y41319D02*
X285132Y41453D01*
X284928Y41574D01*
X284682Y41680D01*
X284391Y41772D01*
X284058Y41850D01*
X283681Y41914D01*
X282799Y41999D01*
X282292Y42020D01*
X281743Y42028D01*
Y42815D01*
X282292Y42822D01*
X283681Y42928D01*
X284058Y42992D01*
X284391Y43070D01*
X284682Y43162D01*
X284928Y43268D01*
X285132Y43389D01*
X285293Y43524D01*
Y41319D01*
D02*
G37*
G36*
X235572Y30980D02*
X235188Y30586D01*
X234281Y29529D01*
X234060Y29217D01*
X233880Y28927D01*
X233740Y28656D01*
X233640Y28407D01*
X233581Y28177D01*
X233563Y27968D01*
X232004Y29528D01*
X232213Y29546D01*
X232442Y29605D01*
X232692Y29704D01*
X232962Y29844D01*
X233253Y30025D01*
X233564Y30246D01*
X234249Y30810D01*
X234622Y31153D01*
X235015Y31536D01*
X235572Y30980D01*
D02*
G37*
G36*
X318462Y20059D02*
X318301Y20194D01*
X318098Y20314D01*
X317851Y20421D01*
X317561Y20513D01*
X317227Y20591D01*
X316851Y20654D01*
X315968Y20739D01*
X315462Y20761D01*
X314912Y20768D01*
Y21555D01*
X315462Y21562D01*
X316851Y21668D01*
X317227Y21732D01*
X317561Y21810D01*
X317851Y21902D01*
X318098Y22009D01*
X318301Y22129D01*
X318462Y22264D01*
Y20059D01*
D02*
G37*
G36*
X221460Y78251D02*
X221596Y78146D01*
X221598Y78143D01*
X221656Y78078D01*
X221691Y78015D01*
X221752Y77844D01*
X221819Y77581D01*
X221877Y77256D01*
X222016Y75226D01*
Y19384D01*
X220791D01*
Y78301D01*
X221291Y78471D01*
X221460Y78251D01*
D02*
G37*
G36*
X241332Y13131D02*
X241476Y13040D01*
X241663Y12960D01*
X241894Y12890D01*
X242168Y12831D01*
X242486Y12783D01*
X243252Y12718D01*
X244193Y12697D01*
Y11909D01*
X243701Y11904D01*
X242486Y11824D01*
X242168Y11775D01*
X241894Y11716D01*
X241663Y11647D01*
X241476Y11566D01*
X241332Y11475D01*
X241231Y11373D01*
Y13233D01*
X241332Y13131D01*
D02*
G37*
G36*
X230634Y12452D02*
X231692Y11545D01*
X232003Y11324D01*
X232294Y11143D01*
X232564Y11003D01*
X232814Y10904D01*
X233043Y10845D01*
X233252Y10827D01*
X231693Y9268D01*
X231675Y9476D01*
X231616Y9706D01*
X231516Y9956D01*
X231376Y10226D01*
X231196Y10517D01*
X230975Y10828D01*
X230410Y11512D01*
X230067Y11885D01*
X229684Y12279D01*
X230241Y12836D01*
X230634Y12452D01*
D02*
G37*
G36*
X234553Y10220D02*
X234757Y10099D01*
X235004Y9993D01*
X235294Y9901D01*
X235627Y9823D01*
X236004Y9759D01*
X236887Y9674D01*
X237393Y9653D01*
X237942Y9646D01*
Y8858D01*
X237393Y8851D01*
X236004Y8745D01*
X235627Y8681D01*
X235294Y8603D01*
X235004Y8511D01*
X234757Y8405D01*
X234553Y8284D01*
X234392Y8150D01*
Y10354D01*
X234553Y10220D01*
D02*
G37*
G36*
X448332Y245456D02*
X448536Y245335D01*
X448783Y245229D01*
X449073Y245137D01*
X449407Y245059D01*
X449783Y244995D01*
X450666Y244910D01*
X451172Y244889D01*
X451722Y244882D01*
Y244094D01*
X451172Y244087D01*
X449783Y243981D01*
X449407Y243917D01*
X449073Y243839D01*
X448783Y243747D01*
X448536Y243641D01*
X448332Y243520D01*
X448172Y243386D01*
Y245590D01*
X448332Y245456D01*
D02*
G37*
G36*
X447031Y242914D02*
X446823Y242895D01*
X446594Y242836D01*
X446344Y242737D01*
X446073Y242597D01*
X445783Y242416D01*
X445471Y242195D01*
X444787Y241631D01*
X444414Y241288D01*
X444020Y240904D01*
X443464Y241461D01*
X443847Y241855D01*
X444754Y242912D01*
X444975Y243224D01*
X445156Y243514D01*
X445296Y243785D01*
X445395Y244035D01*
X445454Y244264D01*
X445472Y244472D01*
X447031Y242914D01*
D02*
G37*
G36*
X533570Y186704D02*
X533676Y185315D01*
X533740Y184938D01*
X533818Y184605D01*
X533910Y184315D01*
X534017Y184068D01*
X534137Y183864D01*
X534272Y183703D01*
X532067D01*
X532201Y183864D01*
X532322Y184068D01*
X532428Y184315D01*
X532520Y184605D01*
X532598Y184938D01*
X532662Y185315D01*
X532747Y186197D01*
X532768Y186704D01*
X532776Y187253D01*
X533563D01*
X533570Y186704D01*
D02*
G37*
G36*
X40854Y182078D02*
X40960Y180689D01*
X41024Y180312D01*
X41102Y179979D01*
X41194Y179689D01*
X41300Y179442D01*
X41421Y179238D01*
X41555Y179077D01*
X39350D01*
X39485Y179238D01*
X39606Y179442D01*
X39712Y179689D01*
X39804Y179979D01*
X39882Y180312D01*
X39946Y180689D01*
X40031Y181571D01*
X40052Y182078D01*
X40059Y182627D01*
X40846D01*
X40854Y182078D01*
D02*
G37*
G36*
X534184Y181333D02*
X534074Y181132D01*
X533978Y180886D01*
X533894Y180597D01*
X533823Y180263D01*
X533765Y179886D01*
X533687Y178998D01*
X533661Y177933D01*
X532874Y177882D01*
X532867Y178434D01*
X532757Y179821D01*
X532690Y180194D01*
X532610Y180522D01*
X532514Y180805D01*
X532404Y181044D01*
X532279Y181238D01*
X532139Y181387D01*
X534307Y181490D01*
X534184Y181333D01*
D02*
G37*
G36*
X533669Y163574D02*
X533775Y162185D01*
X533839Y161808D01*
X533917Y161475D01*
X534009Y161185D01*
X534115Y160938D01*
X534235Y160734D01*
X534370Y160573D01*
X532165D01*
X532300Y160734D01*
X532420Y160938D01*
X532527Y161185D01*
X532619Y161475D01*
X532697Y161808D01*
X532761Y162185D01*
X532846Y163068D01*
X532867Y163574D01*
X532874Y164123D01*
X533661D01*
X533669Y163574D01*
D02*
G37*
G36*
X371531Y165381D02*
X371691Y165281D01*
X371895Y165193D01*
X372144Y165116D01*
X372437Y165051D01*
X372774Y164999D01*
X373581Y164928D01*
X374564Y164904D01*
Y164117D01*
X374050Y164111D01*
X372774Y164023D01*
X372437Y163970D01*
X372144Y163905D01*
X371895Y163829D01*
X371691Y163741D01*
X371531Y163641D01*
X371415Y163529D01*
Y165493D01*
X371531Y165381D01*
D02*
G37*
G36*
X381225Y158417D02*
X382282Y157510D01*
X382594Y157289D01*
X382884Y157108D01*
X383155Y156968D01*
X383405Y156868D01*
X383634Y156810D01*
X383842Y156791D01*
X382283Y155232D01*
X382265Y155441D01*
X382206Y155670D01*
X382107Y155920D01*
X381967Y156190D01*
X381786Y156481D01*
X381565Y156793D01*
X381001Y157477D01*
X380658Y157850D01*
X380275Y158244D01*
X380831Y158800D01*
X381225Y158417D01*
D02*
G37*
G36*
X365089Y141127D02*
X365288Y141004D01*
X365532Y140896D01*
X365819Y140803D01*
X366150Y140724D01*
X366525Y140659D01*
X367407Y140572D01*
X367914Y140551D01*
X368464Y140543D01*
X368443Y139756D01*
X367893Y139749D01*
X366501Y139646D01*
X366124Y139584D01*
X365789Y139508D01*
X365498Y139418D01*
X365250Y139315D01*
X365045Y139198D01*
X364883Y139067D01*
X364933Y141263D01*
X365089Y141127D01*
D02*
G37*
G36*
X376032Y139047D02*
X375872Y139182D01*
X375668Y139303D01*
X375421Y139409D01*
X375131Y139501D01*
X374797Y139579D01*
X374421Y139643D01*
X373538Y139728D01*
X373032Y139749D01*
X372482Y139756D01*
Y140543D01*
X373032Y140551D01*
X374421Y140657D01*
X374797Y140721D01*
X375131Y140799D01*
X375421Y140891D01*
X375668Y140997D01*
X375872Y141118D01*
X376032Y141252D01*
Y139047D01*
D02*
G37*
G36*
X153022Y170648D02*
X152885Y170491D01*
X152763Y170290D01*
X152656Y170045D01*
X152563Y169757D01*
X152484Y169425D01*
X152420Y169050D01*
X152334Y168168D01*
X152312Y167661D01*
X152305Y167111D01*
X151518Y167126D01*
X151511Y167675D01*
X151406Y169064D01*
X151343Y169442D01*
X151266Y169777D01*
X151175Y170068D01*
X151070Y170317D01*
X150951Y170523D01*
X150819Y170686D01*
X153022Y170648D01*
D02*
G37*
G36*
X157759Y164908D02*
X157624Y164748D01*
X157503Y164545D01*
X157397Y164299D01*
X157305Y164009D01*
X157227Y163676D01*
X157163Y163299D01*
X157078Y162417D01*
X157056Y161910D01*
X157049Y161361D01*
X156262Y161364D01*
X156255Y161913D01*
X156149Y163302D01*
X156085Y163679D01*
X156007Y164012D01*
X155915Y164303D01*
X155809Y164550D01*
X155689Y164754D01*
X155554Y164916D01*
X157759Y164908D01*
D02*
G37*
G36*
X157056Y131299D02*
X157162Y129910D01*
X157226Y129533D01*
X157304Y129200D01*
X157396Y128910D01*
X157503Y128663D01*
X157623Y128459D01*
X157758Y128298D01*
X155553D01*
X155688Y128459D01*
X155808Y128663D01*
X155914Y128910D01*
X156007Y129200D01*
X156085Y129533D01*
X156148Y129910D01*
X156233Y130793D01*
X156255Y131299D01*
X156262Y131848D01*
X157049D01*
X157056Y131299D01*
D02*
G37*
G36*
X152312D02*
X152418Y129910D01*
X152482Y129533D01*
X152560Y129200D01*
X152652Y128910D01*
X152759Y128663D01*
X152879Y128459D01*
X153014Y128298D01*
X150809D01*
X150944Y128459D01*
X151064Y128663D01*
X151170Y128910D01*
X151262Y129200D01*
X151340Y129533D01*
X151404Y129910D01*
X151489Y130793D01*
X151511Y131299D01*
X151518Y131848D01*
X152305D01*
X152312Y131299D01*
D02*
G37*
G36*
X253761Y121261D02*
X253742Y121257D01*
X253706Y121233D01*
X253653Y121190D01*
X253492Y121047D01*
X252779Y120352D01*
X252222Y120909D01*
X253131Y121891D01*
X253761Y121261D01*
D02*
G37*
G36*
X239993Y121599D02*
X240196Y121478D01*
X240443Y121372D01*
X240734Y121280D01*
X241067Y121202D01*
X241443Y121138D01*
X242326Y121053D01*
X242832Y121032D01*
X243382Y121025D01*
Y120237D01*
X242832Y120230D01*
X241443Y120124D01*
X241067Y120060D01*
X240734Y119982D01*
X240443Y119890D01*
X240196Y119784D01*
X239993Y119663D01*
X239832Y119528D01*
Y121733D01*
X239993Y121599D01*
D02*
G37*
G36*
X69309Y102975D02*
X69382Y102755D01*
X69510Y102499D01*
X69691Y102206D01*
X69926Y101876D01*
X70558Y101106D01*
X71406Y100189D01*
X71910Y99676D01*
X70754Y98605D01*
X70240Y99111D01*
X68231Y100847D01*
X67941Y101035D01*
X67690Y101170D01*
X67475Y101251D01*
X67298Y101280D01*
X69289Y103159D01*
X69309Y102975D01*
D02*
G37*
G36*
X211381Y92877D02*
X211058Y92367D01*
X210773Y91753D01*
X210526Y91035D01*
X210317Y90213D01*
X210146Y89287D01*
X210014Y88258D01*
X209972Y87612D01*
X209990Y87326D01*
X210055Y86924D01*
X210132Y86586D01*
X210221Y86312D01*
X210321Y86101D01*
X210433Y85953D01*
X209866D01*
X209861Y85888D01*
X209842Y84547D01*
X208268D01*
X208249Y85888D01*
X208243Y85953D01*
X207677D01*
X207789Y86101D01*
X207890Y86312D01*
X207978Y86586D01*
X208055Y86924D01*
X208120Y87326D01*
X208124Y87371D01*
X207964Y89287D01*
X207793Y90213D01*
X207584Y91035D01*
X207337Y91753D01*
X207052Y92367D01*
X206729Y92877D01*
X206368Y93284D01*
X211742D01*
X211381Y92877D01*
D02*
G37*
G36*
X117728Y90180D02*
X117539Y89918D01*
X117373Y89562D01*
X117229Y89112D01*
X117107Y88569D01*
X117008Y87933D01*
X116875Y86378D01*
X116831Y84449D01*
X115256D01*
X115245Y85460D01*
X115079Y87933D01*
X114979Y88569D01*
X114857Y89112D01*
X114713Y89562D01*
X114547Y89918D01*
X114359Y90180D01*
X114149Y90348D01*
X117938D01*
X117728Y90180D01*
D02*
G37*
G36*
X207688Y83131D02*
X207546Y83232D01*
X207339Y83322D01*
X207068Y83402D01*
X206732Y83471D01*
X206331Y83529D01*
X205337Y83614D01*
X203360Y83661D01*
X203274Y85236D01*
X203994Y85242D01*
X206232Y85391D01*
X206630Y85458D01*
X206965Y85539D01*
X207235Y85631D01*
X207441Y85736D01*
X207582Y85853D01*
X207688Y83131D01*
D02*
G37*
G36*
X110504Y83071D02*
X110356Y83183D01*
X110145Y83284D01*
X109870Y83372D01*
X109532Y83449D01*
X109130Y83514D01*
X108136Y83608D01*
X106888Y83656D01*
X106168Y83661D01*
Y85236D01*
X106888Y85242D01*
X109130Y85384D01*
X109532Y85449D01*
X109870Y85526D01*
X110145Y85614D01*
X110356Y85715D01*
X110504Y85827D01*
Y83071D01*
D02*
G37*
G36*
X89637Y38253D02*
X91420Y36697D01*
X91596Y36592D01*
X91737Y36531D01*
X91844Y36513D01*
X90355Y34917D01*
X90332Y35013D01*
X90265Y35146D01*
X90155Y35314D01*
X90001Y35518D01*
X89562Y36034D01*
X88162Y37496D01*
X89218Y38667D01*
X89637Y38253D01*
D02*
G37*
G36*
X66374Y90518D02*
X66284Y90311D01*
X66205Y90040D01*
X66136Y89704D01*
X66077Y89304D01*
X65993Y88309D01*
X65945Y86333D01*
X64370Y86247D01*
X64364Y86967D01*
X64216Y89204D01*
X64148Y89603D01*
X64068Y89937D01*
X63975Y90207D01*
X63870Y90413D01*
X63753Y90555D01*
X66475Y90660D01*
X66374Y90518D01*
D02*
G37*
G36*
X75160Y77045D02*
X76846Y75559D01*
X77176Y75321D01*
X77469Y75136D01*
X77726Y75005D01*
X77946Y74927D01*
X78130Y74901D01*
X76181Y72953D01*
X76156Y73136D01*
X76078Y73357D01*
X75946Y73614D01*
X75761Y73907D01*
X75523Y74237D01*
X74887Y75007D01*
X74038Y75923D01*
X73533Y76436D01*
X74647Y77549D01*
X75160Y77045D01*
D02*
G37*
G36*
X268127Y69599D02*
X268186Y69369D01*
X268286Y69120D01*
X268426Y68849D01*
X268606Y68558D01*
X268827Y68247D01*
X269392Y67563D01*
X269735Y67190D01*
X270118Y66796D01*
X269561Y66239D01*
X269168Y66623D01*
X268110Y67530D01*
X267799Y67751D01*
X267508Y67932D01*
X267238Y68072D01*
X266988Y68171D01*
X266759Y68230D01*
X266550Y68248D01*
X268109Y69807D01*
X268127Y69599D01*
D02*
G37*
G36*
X330311Y62275D02*
X330154Y62411D01*
X329953Y62533D01*
X329709Y62641D01*
X329421Y62734D01*
X329089Y62813D01*
X328714Y62877D01*
X327832Y62963D01*
X327325Y62985D01*
X326775Y62992D01*
X326791Y63779D01*
X327340Y63787D01*
X328730Y63891D01*
X329107Y63954D01*
X329442Y64031D01*
X329734Y64121D01*
X329982Y64226D01*
X330188Y64344D01*
X330351Y64477D01*
X330311Y62275D01*
D02*
G37*
G36*
X334101Y29222D02*
X333961Y29073D01*
X333836Y28879D01*
X333726Y28640D01*
X333631Y28356D01*
X333550Y28028D01*
X333484Y27655D01*
X333432Y27238D01*
X333373Y26269D01*
X333366Y25717D01*
X332579Y25768D01*
X332572Y26322D01*
X332475Y27720D01*
X332417Y28098D01*
X332346Y28432D01*
X332262Y28721D01*
X332166Y28966D01*
X332056Y29167D01*
X331933Y29324D01*
X334101Y29222D01*
D02*
G37*
D11*
X272972Y63386D02*
X331496D01*
X266534Y69823D02*
X272972Y63386D01*
X332972Y11917D02*
Y30709D01*
X283366Y108366D02*
X301556Y90176D01*
X93110Y108366D02*
X283366D01*
X40453Y177953D02*
Y187402D01*
X311379Y69488D02*
X311675Y69784D01*
X278839Y69488D02*
X311379D01*
X252658Y95669D02*
X278839Y69488D01*
X278740Y72047D02*
X306352D01*
X306549Y72244D01*
X253445Y97342D02*
X278740Y72047D01*
X300591Y86221D02*
X325140D01*
X280020Y106791D02*
X300591Y86221D01*
X92458Y106791D02*
X280020D01*
X227362Y103839D02*
X254257D01*
X254454Y104035D01*
X73721Y127756D02*
X93110Y108366D01*
X75824Y123425D02*
X92458Y106791D01*
X73721Y127756D02*
Y163189D01*
X48431Y123425D02*
X75824D01*
X224902Y95669D02*
X252658D01*
X233366Y217224D02*
X315453D01*
X180297Y183005D02*
X199147D01*
X233366Y217224D01*
X237697Y215650D02*
X314665D01*
X193840Y171792D02*
X237697Y215650D01*
X184802Y171792D02*
X193840D01*
X151911Y127174D02*
Y171006D01*
X193369Y166105D02*
X241339Y214075D01*
X313681D01*
X179762Y166105D02*
X193369D01*
X156655Y127174D02*
Y165982D01*
X174803Y142546D02*
Y213583D01*
X180211Y218990D02*
X316344D01*
X174803Y213583D02*
X180211Y218990D01*
X161970Y127174D02*
Y211478D01*
X171057Y220565D02*
X317132D01*
X161970Y211478D02*
X171057Y220565D01*
X313681Y214075D02*
X382776Y144980D01*
X316344Y218990D02*
X360728Y174606D01*
X317132Y220565D02*
X361516Y176181D01*
X315453Y217224D02*
X359646Y173031D01*
X314665Y215650D02*
X361221Y169095D01*
X166562Y127174D02*
Y182946D01*
X172039Y128043D02*
Y189083D01*
X168110Y193012D02*
X172039Y189083D01*
X171949Y127953D02*
X172039Y128043D01*
X176833Y133472D02*
Y140517D01*
X174803Y142546D02*
X176833Y140517D01*
X360728Y174606D02*
X445866Y174606D01*
X361516Y176181D02*
X437303Y176181D01*
X382776Y144980D02*
X437008D01*
X359646Y173031D02*
X382776D01*
X361221Y169095D02*
X375886D01*
X382776Y173031D02*
X389764Y166043D01*
X178709Y149268D02*
X209024D01*
X211910Y133338D02*
Y138287D01*
X211794Y133222D02*
X211910Y133338D01*
X201449Y142797D02*
X207400D01*
X211910Y138287D01*
X203070Y130466D02*
X241965D01*
X200857Y132679D02*
X203070Y130466D01*
X240644Y134533D02*
X254491D01*
X260736Y128287D01*
X198256Y127531D02*
X217080D01*
X363821Y140150D02*
X377157D01*
X363779Y140191D02*
X363821Y140150D01*
X195375Y124310D02*
X204564D01*
X187795Y131890D02*
Y145276D01*
Y131890D02*
X195375Y124310D01*
X192913Y132874D02*
X198256Y127531D01*
X238707Y120631D02*
X252501D01*
X254514Y122644D01*
X220571Y115157D02*
X252854D01*
X265945Y128248D02*
Y185728D01*
X252854Y115157D02*
X265945Y128248D01*
X214862Y120866D02*
X220571Y115157D01*
X214370Y110728D02*
X251969D01*
X267913Y126673D02*
Y181693D01*
X251969Y110728D02*
X267913Y126673D01*
X208563Y116535D02*
X214370Y110728D01*
X192913Y132874D02*
Y142011D01*
X191895Y60131D02*
X212297D01*
X260312Y186282D02*
Y188856D01*
X262016Y190559D01*
X268701D01*
X259860Y185830D02*
X260312Y186282D01*
X268701Y190559D02*
X270669Y188590D01*
Y184449D02*
Y188590D01*
X267913Y181693D02*
X270669Y184449D01*
X216437Y92913D02*
X227362Y103839D01*
X223093Y97342D02*
X253445D01*
X216437Y64272D02*
Y92913D01*
X218012Y47835D02*
Y92261D01*
X223093Y97342D01*
X219587Y90354D02*
X224902Y95669D01*
X219587Y10402D02*
Y90354D01*
X219448Y10264D02*
X219587Y10402D01*
X218996Y8760D02*
X219448Y9212D01*
Y10264D01*
X228346Y14173D02*
X233268Y9252D01*
X228346Y80610D02*
X230709Y82972D01*
X228346Y14173D02*
Y80610D01*
X209449Y39272D02*
X218012Y47835D01*
X212297Y60131D02*
X216437Y64272D01*
X374564Y164511D02*
X383858Y155217D01*
X370184Y164511D02*
X374564D01*
X343868Y213875D02*
X354206Y224213D01*
X382579Y167323D02*
X382579D01*
X385492Y164409D01*
X375769Y184256D02*
X379438D01*
X383131Y187949D01*
X390080Y185335D02*
X407795D01*
X375996Y199418D02*
X390080Y185335D01*
X407795D02*
X412854Y180276D01*
X445866Y174606D02*
X451774Y180514D01*
X437303Y176181D02*
X442323Y181201D01*
X354343Y214379D02*
X359944Y219980D01*
X388484D02*
X393110Y215354D01*
X359944Y219980D02*
X388484D01*
X403540Y210962D02*
X407382D01*
X410790Y214370D02*
X429418D01*
X407382Y210962D02*
X410790Y214370D01*
X402854Y210276D02*
X403540Y210962D01*
X407933Y215354D02*
X412854Y220276D01*
X393110Y215354D02*
X407933D01*
X430403D02*
X435827D01*
X429418Y214370D02*
X430403Y215354D01*
X398917Y224213D02*
X402854Y220276D01*
X354206Y224213D02*
X398917D01*
X393465Y210276D02*
X402854D01*
X361529Y214782D02*
X364070Y217323D01*
X386417D02*
X393465Y210276D01*
X364070Y217323D02*
X386417D01*
X370201Y212687D02*
X387215D01*
X393701Y206201D01*
X408169D01*
X408504Y204626D02*
X412854Y200276D01*
X390402Y204626D02*
X408504D01*
X385834Y209194D02*
X390402Y204626D01*
X408169Y206201D02*
X412244Y210276D01*
X412854D01*
X388820Y200276D02*
X402854D01*
X384855Y204241D02*
X388820Y200276D01*
X40453Y187402D02*
X89075Y236024D01*
X438583D02*
X447047Y244488D01*
X89075Y236024D02*
X438583D01*
X231988Y27953D02*
X246457Y42421D01*
X286417D01*
X239961Y12303D02*
X244193D01*
X249705Y17815D01*
X233268Y9252D02*
X263779D01*
X264272Y8760D01*
X450394Y169390D02*
X484154D01*
X447047Y166043D02*
X450394Y169390D01*
X389764Y166043D02*
X447047D01*
X499606Y164961D02*
X516734Y182089D01*
X451378Y164961D02*
X499606D01*
X441240Y154823D02*
X451378Y164961D01*
X46752Y166929D02*
X69980D01*
X73721Y163189D01*
X533169Y182579D02*
Y223327D01*
X512008Y244488D02*
X533169Y223327D01*
X447047Y244488D02*
X512008D01*
X533169Y182579D02*
X533268Y182480D01*
Y159449D02*
Y182480D01*
X307874Y21161D02*
X319587D01*
X304528Y17815D02*
X307874Y21161D01*
X385492Y164409D02*
X408720D01*
X412854Y160276D01*
X390158Y154823D02*
X441240D01*
X375886Y169095D02*
X390158Y154823D01*
X451774Y180514D02*
Y190407D01*
X442323Y181201D02*
Y206791D01*
X412854Y170276D02*
X445472D01*
X445571Y170374D01*
X445624Y210092D02*
X451774D01*
X442323Y206791D02*
X445624Y210092D01*
X437008Y144980D02*
X449902Y157874D01*
X464252D01*
X516734Y182089D02*
Y190407D01*
X48425Y118110D02*
X48529Y117817D01*
Y117817D02*
Y117817D01*
Y117817D02*
X48530Y117815D01*
X48669Y117421D01*
X48425Y173031D02*
X48431D01*
X171752Y39272D02*
X209449D01*
X161614Y29134D02*
X171752Y39272D01*
X161614Y14075D02*
Y29134D01*
X157087Y9547D02*
X161614Y14075D01*
X122229Y9547D02*
X157087D01*
X249705Y17815D02*
X304528D01*
X332972Y11917D02*
X336136Y8754D01*
X340354D01*
D29*
Y16628D02*
D03*
Y8754D02*
D03*
X223622Y16628D02*
D03*
Y8754D02*
D03*
X75492Y16628D02*
D03*
Y8754D02*
D03*
X312402Y16628D02*
D03*
Y8754D02*
D03*
D30*
X40557Y123425D02*
D03*
X48431D02*
D03*
X40557Y177953D02*
D03*
X48431D02*
D03*
D31*
X45669Y95588D02*
D03*
Y111927D02*
D03*
X13386Y95588D02*
D03*
Y111927D02*
D03*
X354724Y25886D02*
D03*
Y9547D02*
D03*
X387008Y25886D02*
D03*
Y9547D02*
D03*
X266465Y25886D02*
D03*
Y9547D02*
D03*
X298748Y25886D02*
D03*
Y9547D02*
D03*
X178205Y25886D02*
D03*
Y9547D02*
D03*
X210489Y25886D02*
D03*
Y9547D02*
D03*
X89946Y25886D02*
D03*
Y9547D02*
D03*
X122229Y25886D02*
D03*
Y9547D02*
D03*
X45669Y150058D02*
D03*
Y166396D02*
D03*
X13386Y150058D02*
D03*
Y166396D02*
D03*
D32*
X325295Y38386D02*
X340354D01*
Y16628D02*
Y38386D01*
X223425Y80216D02*
Y87205D01*
X225787Y89567D02*
X242224D01*
X223425Y87205D02*
X225787Y89567D01*
X223622Y16628D02*
Y80216D01*
X256585Y49714D02*
X306647D01*
X243898Y62402D02*
X256585Y49714D01*
X243898Y62402D02*
Y87894D01*
X242224Y89567D02*
X243898Y87894D01*
X312106Y38386D02*
X325295D01*
X306647Y43845D02*
X312106Y38386D01*
X306647Y43845D02*
Y49714D01*
X325787Y19488D02*
Y37660D01*
X209055Y84547D02*
Y96161D01*
X86417Y40354D02*
X91831Y34941D01*
X91929D01*
X86221Y40354D02*
X86417D01*
X86221D02*
Y84252D01*
X86417Y84449D01*
X65158Y85925D02*
Y91634D01*
Y85925D02*
X78150Y72933D01*
X75492Y29626D02*
X86221Y40354D01*
X116043Y84449D02*
X208760D01*
X111909D02*
X116043D01*
Y93799D01*
X75492Y16628D02*
Y29626D01*
X86417Y84449D02*
X111909D01*
X67520Y102953D02*
X86221Y84252D01*
X322927Y16628D02*
X325787Y19488D01*
X312402Y16628D02*
X322927D01*
D33*
X45669Y166396D02*
X48431Y169158D01*
X211282Y8754D02*
X219448D01*
X223622D01*
X48431Y169158D02*
Y173031D01*
Y177953D01*
X75492Y8754D02*
X87198D01*
X48530Y117815D02*
Y117815D01*
X48431Y123425D02*
X48530Y117815D01*
X48431Y114689D02*
X48530Y117815D01*
X48530Y117815D01*
X45669Y111927D02*
X48431Y114689D01*
X13386Y111927D02*
X45669D01*
X13386Y166396D02*
X45669D01*
X353931Y8754D02*
X354724Y9547D01*
X340354Y8754D02*
X353931D01*
X354724Y9547D02*
X387008D01*
X298748D02*
X299542Y8754D01*
X312402D01*
X266465Y9547D02*
X298748D01*
X210489D02*
X211282Y8754D01*
X178205Y9547D02*
X210489D01*
X89946D02*
X121260D01*
X87198Y8754D02*
X87992Y9547D01*
D34*
X504252Y157874D02*
D03*
X494252D02*
D03*
X474252D02*
D03*
X484252D02*
D03*
X16535Y221555D02*
D03*
Y203839D02*
D03*
X42126Y221555D02*
D03*
Y203839D02*
D03*
X209055Y75098D02*
D03*
Y96161D02*
D03*
X116043Y93799D02*
D03*
D35*
X464252Y157874D02*
D03*
D36*
X186030Y200295D02*
D03*
D37*
X106096D02*
D03*
D38*
X402854Y60276D02*
D03*
X412854D02*
D03*
Y70276D02*
D03*
X402854D02*
D03*
X412854Y80276D02*
D03*
X402854D02*
D03*
X412854Y90276D02*
D03*
X402854D02*
D03*
X412854Y100276D02*
D03*
X402854D02*
D03*
X412854Y110276D02*
D03*
X402854D02*
D03*
X412854Y120276D02*
D03*
X402854D02*
D03*
X412854Y130276D02*
D03*
X402854D02*
D03*
X412854Y190276D02*
D03*
X402854D02*
D03*
X412854Y200276D02*
D03*
X402854Y220276D02*
D03*
X412854Y230276D02*
D03*
D39*
Y140276D02*
D03*
X402854D02*
D03*
X412854Y150276D02*
D03*
X402854D02*
D03*
X412854Y170276D02*
D03*
X402854D02*
D03*
X412854Y180276D02*
D03*
X402854D02*
D03*
Y200276D02*
D03*
X412854Y210276D02*
D03*
X402854D02*
D03*
X412854Y220276D02*
D03*
D40*
Y160276D02*
D03*
X402854D02*
D03*
D41*
Y230276D02*
D03*
D42*
X451774Y210092D02*
D03*
Y200250D02*
D03*
Y190407D02*
D03*
X516734Y210092D02*
D03*
Y190407D02*
D03*
D43*
X484943Y200250D02*
D03*
D44*
X540050Y12307D02*
D03*
Y242913D02*
D03*
X11220D02*
D03*
D45*
X541339Y196850D02*
D03*
X531496Y137795D02*
D03*
X541339Y118110D02*
D03*
X531496Y98425D02*
D03*
X541339Y78740D02*
D03*
X531496Y59055D02*
D03*
X541339Y39370D02*
D03*
X511811Y216535D02*
D03*
X521654Y196850D02*
D03*
X511811Y137795D02*
D03*
X521654Y118110D02*
D03*
Y78740D02*
D03*
X511811Y59055D02*
D03*
X521654Y39370D02*
D03*
X511811Y19685D02*
D03*
X501968Y236221D02*
D03*
X492126Y177165D02*
D03*
Y137795D02*
D03*
X501968Y118110D02*
D03*
Y39370D02*
D03*
X492126Y19685D02*
D03*
X482283Y236221D02*
D03*
X472441Y177165D02*
D03*
Y137795D02*
D03*
Y59055D02*
D03*
X482283Y39370D02*
D03*
X472441Y19685D02*
D03*
X462599Y196850D02*
D03*
X452756Y177165D02*
D03*
Y137795D02*
D03*
X462599Y118110D02*
D03*
X452756Y98425D02*
D03*
Y59055D02*
D03*
X462599Y39370D02*
D03*
X452756Y19685D02*
D03*
X433071D02*
D03*
X423228Y196850D02*
D03*
Y157480D02*
D03*
Y78740D02*
D03*
Y39370D02*
D03*
X393701Y98425D02*
D03*
Y59055D02*
D03*
X383858Y118110D02*
D03*
X374016Y98425D02*
D03*
X383858Y78740D02*
D03*
X374016Y59055D02*
D03*
X383858Y39370D02*
D03*
X354331Y137795D02*
D03*
X364173Y118110D02*
D03*
X354331Y98425D02*
D03*
X364173Y78740D02*
D03*
X354331Y59055D02*
D03*
X364173Y39370D02*
D03*
X334646Y177165D02*
D03*
X344488Y157480D02*
D03*
X334646Y137795D02*
D03*
X344488Y118110D02*
D03*
X334646Y98425D02*
D03*
X344488Y78740D02*
D03*
X324803Y157480D02*
D03*
Y118110D02*
D03*
X295276Y137795D02*
D03*
X305118Y39370D02*
D03*
X275591Y137795D02*
D03*
X285433Y118110D02*
D03*
X275591Y98425D02*
D03*
X265748Y118110D02*
D03*
Y39370D02*
D03*
X236221Y177165D02*
D03*
Y59055D02*
D03*
X216535Y177165D02*
D03*
Y98425D02*
D03*
X206693Y196850D02*
D03*
Y157480D02*
D03*
X196850Y19685D02*
D03*
X187008Y157480D02*
D03*
X167323Y196850D02*
D03*
X157480Y177165D02*
D03*
X137795Y216535D02*
D03*
X147638Y196850D02*
D03*
X137795Y177165D02*
D03*
X147638Y157480D02*
D03*
X118110Y216535D02*
D03*
Y177165D02*
D03*
X127953Y157480D02*
D03*
X118110Y137795D02*
D03*
X127953Y118110D02*
D03*
Y78740D02*
D03*
X118110Y59055D02*
D03*
X127953Y39370D02*
D03*
X98425Y216535D02*
D03*
Y177165D02*
D03*
Y137795D02*
D03*
Y98425D02*
D03*
Y59055D02*
D03*
X108268Y39370D02*
D03*
X78740Y216535D02*
D03*
Y177165D02*
D03*
Y137795D02*
D03*
Y98425D02*
D03*
Y59055D02*
D03*
X59055Y216535D02*
D03*
X68898Y196850D02*
D03*
X59055Y177165D02*
D03*
X68898Y157480D02*
D03*
X59055Y137795D02*
D03*
Y98425D02*
D03*
X49213Y236221D02*
D03*
Y157480D02*
D03*
X29528Y236221D02*
D03*
Y196850D02*
D03*
X19685Y177165D02*
D03*
X29528Y157480D02*
D03*
X19685Y137795D02*
D03*
X29528Y118110D02*
D03*
D46*
X331457Y63356D02*
D03*
X266534Y69823D02*
D03*
X301663Y90283D02*
D03*
X306647Y49714D02*
D03*
X311675Y69784D02*
D03*
X306549Y72244D02*
D03*
X326580Y86368D02*
D03*
X254454Y104035D02*
D03*
X184802Y171792D02*
D03*
X151939D02*
D03*
X179762Y166105D02*
D03*
X156660Y166037D02*
D03*
X180297Y183005D02*
D03*
X166638Y183011D02*
D03*
X168110Y193012D02*
D03*
X209024Y149268D02*
D03*
X178709D02*
D03*
X176833Y133472D02*
D03*
X151911Y127174D02*
D03*
X156655D02*
D03*
X161970D02*
D03*
X166562D02*
D03*
X222058Y133390D02*
D03*
X211794Y133222D02*
D03*
X201449Y142797D02*
D03*
X172031Y127174D02*
D03*
X240644Y134533D02*
D03*
X241965Y130466D02*
D03*
X217080Y127531D02*
D03*
X260736Y128287D02*
D03*
X363779Y140191D02*
D03*
X187795Y145276D02*
D03*
X204564Y124310D02*
D03*
X200857Y132679D02*
D03*
X254514Y122644D02*
D03*
X238707Y120631D02*
D03*
X191895Y60131D02*
D03*
X192913Y142011D02*
D03*
X265945Y185728D02*
D03*
X214862Y120866D02*
D03*
X208563Y116535D02*
D03*
X230709Y82972D02*
D03*
X377157Y140150D02*
D03*
X259860Y185830D02*
D03*
X370184Y164511D02*
D03*
X343868Y213875D02*
D03*
X382579Y167323D02*
D03*
X383131Y187949D02*
D03*
X375769Y184256D02*
D03*
X375996Y199418D02*
D03*
X354343Y214379D02*
D03*
X361529Y214782D02*
D03*
X370201Y212687D02*
D03*
X385834Y209194D02*
D03*
X384855Y204241D02*
D03*
X231988Y27953D02*
D03*
X239961Y12303D02*
D03*
X233268Y9252D02*
D03*
X91929Y34941D02*
D03*
X447047Y244488D02*
D03*
X533169Y182579D02*
D03*
X533268Y159449D02*
D03*
X319587Y21161D02*
D03*
X40453Y123425D02*
D03*
Y177953D02*
D03*
X383858Y155217D02*
D03*
X484252Y169488D02*
D03*
X286417Y42421D02*
D03*
X445571Y170374D02*
D03*
X333071Y30413D02*
D03*
X218996Y8760D02*
D03*
X435827Y215354D02*
D03*
D47*
X223425Y80216D02*
D03*
X65059Y92028D02*
D03*
X78150Y72933D02*
D03*
X209055Y84547D02*
D03*
X111909Y84449D02*
D03*
X67323Y103248D02*
D03*
D48*
X70153Y244276D02*
D03*
Y45776D02*
D03*
X408343D02*
D03*
Y244276D02*
D03*
D49*
X484915Y89472D02*
D03*
M02*
