G04*
G04 #@! TF.GenerationSoftware,Altium Limited,Altium Designer,21.0.6 (86)*
G04*
G04 Layer_Physical_Order=2*
G04 Layer_Color=1930808*
%FSLAX25Y25*%
%MOIN*%
G70*
G04*
G04 #@! TF.SameCoordinates,573F4C1C-41E7-4716-BA84-A8DF11FC348D*
G04*
G04*
G04 #@! TF.FilePolarity,Positive*
G04*
G01*
G75*
%ADD11C,0.00787*%
%ADD29R,0.04921X0.03937*%
%ADD32C,0.01575*%
%ADD34C,0.07874*%
%ADD35R,0.07874X0.07874*%
%ADD36P,0.12784X8X202.5*%
%ADD37C,0.11811*%
%ADD38C,0.06693*%
%ADD39O,0.06693X0.05512*%
%ADD40O,0.06693X0.05906*%
%ADD41R,0.06693X0.06693*%
G04:AMPARAMS|DCode=42|XSize=70.87mil|YSize=78.74mil|CornerRadius=17.72mil|HoleSize=0mil|Usage=FLASHONLY|Rotation=270.000|XOffset=0mil|YOffset=0mil|HoleType=Round|Shape=RoundedRectangle|*
%AMROUNDEDRECTD42*
21,1,0.07087,0.04331,0,0,270.0*
21,1,0.03543,0.07874,0,0,270.0*
1,1,0.03543,-0.02165,-0.01772*
1,1,0.03543,-0.02165,0.01772*
1,1,0.03543,0.02165,0.01772*
1,1,0.03543,0.02165,-0.01772*
%
%ADD42ROUNDEDRECTD42*%
%ADD43C,0.39370*%
%ADD44C,0.19685*%
%ADD45C,0.02756*%
%ADD46C,0.03150*%
%ADD47C,0.03937*%
%ADD48C,0.12598*%
%ADD49C,0.59055*%
%ADD50R,0.16339X0.09449*%
%ADD51R,0.04921X0.01181*%
%ADD52O,0.02362X0.07284*%
G04:AMPARAMS|DCode=53|XSize=47.24mil|YSize=118.11mil|CornerRadius=11.81mil|HoleSize=0mil|Usage=FLASHONLY|Rotation=0.000|XOffset=0mil|YOffset=0mil|HoleType=Round|Shape=RoundedRectangle|*
%AMROUNDEDRECTD53*
21,1,0.04724,0.09449,0,0,0.0*
21,1,0.02362,0.11811,0,0,0.0*
1,1,0.02362,0.01181,-0.04724*
1,1,0.02362,-0.01181,-0.04724*
1,1,0.02362,-0.01181,0.04724*
1,1,0.02362,0.01181,0.04724*
%
%ADD53ROUNDEDRECTD53*%
%ADD54R,0.35433X0.15748*%
%ADD55R,0.03937X0.09449*%
%ADD56R,0.09449X0.05512*%
%ADD57C,0.03150*%
%ADD58C,0.01181*%
%ADD59C,0.03937*%
G36*
X549977Y1204D02*
X58291Y1204D01*
Y16126D01*
Y16360D01*
X58791Y16409D01*
X58798Y16371D01*
X58881Y16247D01*
X59321Y15590D01*
X67545Y7365D01*
X68327Y6843D01*
X69248Y6659D01*
X116942D01*
X117864Y6843D01*
X118645Y7365D01*
X123652Y12372D01*
X124174Y13153D01*
X124357Y14075D01*
Y18571D01*
X124549Y18699D01*
X124984Y19350D01*
X125137Y20118D01*
Y29567D01*
X124984Y30335D01*
X124549Y30986D01*
X123898Y31421D01*
X123130Y31574D01*
X120768D01*
X120000Y31421D01*
X119349Y30986D01*
X118913Y30335D01*
X118761Y29567D01*
Y20118D01*
X118913Y19350D01*
X119349Y18699D01*
X119540Y18571D01*
Y15072D01*
X115944Y11476D01*
X70246D01*
X63432Y18290D01*
Y42064D01*
Y42257D01*
X63932Y42382D01*
X64023Y42212D01*
X64174Y41929D01*
X64233Y41819D01*
X65118Y40740D01*
X66197Y39855D01*
X67428Y39197D01*
X68764Y38791D01*
X70153Y38655D01*
X71543Y38791D01*
X72879Y39197D01*
X74110Y39855D01*
X75189Y40740D01*
X76074Y41819D01*
X76732Y43051D01*
X77138Y44386D01*
X77274Y45776D01*
X77138Y47165D01*
X76732Y48501D01*
X76074Y49732D01*
X75189Y50811D01*
X74110Y51696D01*
X72879Y52354D01*
X71543Y52760D01*
X70153Y52896D01*
X68764Y52760D01*
X67428Y52354D01*
X66197Y51696D01*
X65118Y50811D01*
X64233Y49732D01*
X64023Y49339D01*
X63932Y49169D01*
X63432Y49295D01*
Y49487D01*
Y70754D01*
X91861Y99183D01*
X92383Y99964D01*
X92566Y100886D01*
Y215932D01*
X101588Y224954D01*
X216716D01*
Y223819D01*
X219819D01*
Y216946D01*
X220003Y216024D01*
X220525Y215243D01*
X222608Y213159D01*
X223389Y212637D01*
X224311Y212454D01*
X237303D01*
Y209350D01*
X242815D01*
Y220374D01*
X237303D01*
Y217271D01*
X225309D01*
X224636Y217943D01*
Y223819D01*
X227739D01*
Y230905D01*
X216716D01*
Y229771D01*
X100590D01*
X99669Y229587D01*
X98887Y229065D01*
X88454Y218632D01*
X87932Y217851D01*
X87749Y216929D01*
Y101883D01*
X59321Y73455D01*
X58881Y72798D01*
D01*
X58798Y72674D01*
X58791Y72635D01*
X58291Y72685D01*
Y72918D01*
Y84842D01*
X58199Y85303D01*
X57938Y85694D01*
X57547Y85955D01*
X57087Y86047D01*
X1204D01*
X1204Y252733D01*
X549977D01*
X549977Y1204D01*
D02*
G37*
%LPC*%
G36*
X455020Y247343D02*
X448524D01*
Y246873D01*
X448083Y246637D01*
X447969Y246713D01*
X447933Y246721D01*
X447047Y246897D01*
X446126Y246713D01*
X445993Y246625D01*
X445913Y246572D01*
X445472Y246807D01*
Y246903D01*
Y247343D01*
X438976D01*
Y241831D01*
X445472D01*
Y242073D01*
Y242169D01*
X445913Y242405D01*
X445993Y242351D01*
D01*
X446126Y242263D01*
X447047Y242080D01*
X447933Y242256D01*
D01*
X447969Y242263D01*
X448083Y242339D01*
X448524Y242103D01*
Y241831D01*
X455020D01*
Y247343D01*
D02*
G37*
G36*
X436728Y247555D02*
X433768D01*
Y245087D01*
X436728D01*
Y247555D01*
D02*
G37*
G36*
X432768D02*
X429807D01*
Y245087D01*
X432768D01*
Y247555D01*
D02*
G37*
G36*
X464090Y247555D02*
X461130D01*
Y245087D01*
X464090D01*
Y247555D01*
D02*
G37*
G36*
X460130D02*
X457169D01*
Y245087D01*
X460130D01*
Y247555D01*
D02*
G37*
G36*
X227952Y244898D02*
X222728D01*
Y241642D01*
X227952D01*
Y244898D01*
D02*
G37*
G36*
X221728D02*
X216503D01*
Y241642D01*
X221728D01*
Y244898D01*
D02*
G37*
G36*
X436728Y244087D02*
X433768D01*
Y241618D01*
X436728D01*
Y244087D01*
D02*
G37*
G36*
X432768D02*
X429807D01*
Y241618D01*
X432768D01*
Y244087D01*
D02*
G37*
G36*
X464090Y244087D02*
X461130D01*
Y241618D01*
X464090D01*
Y244087D01*
D02*
G37*
G36*
X460130D02*
X457169D01*
Y241618D01*
X460130D01*
Y244087D01*
D02*
G37*
G36*
X227952Y240642D02*
X222728D01*
Y237386D01*
X227952D01*
Y240642D01*
D02*
G37*
G36*
X221728D02*
X216503D01*
Y237386D01*
X221728D01*
Y240642D01*
D02*
G37*
G36*
X408343Y251396D02*
X406953Y251260D01*
X405618Y250854D01*
X404386Y250196D01*
X403307Y249311D01*
X402422Y248232D01*
X401764Y247001D01*
X401358Y245665D01*
X401222Y244276D01*
X401358Y242886D01*
X401764Y241550D01*
X402422Y240319D01*
X403307Y239240D01*
X404386Y238355D01*
X405618Y237697D01*
X406953Y237292D01*
X408343Y237155D01*
X409732Y237292D01*
X411068Y237697D01*
X412299Y238355D01*
X413378Y239240D01*
X414263Y240319D01*
X414921Y241550D01*
X415327Y242886D01*
X415463Y244276D01*
X415327Y245665D01*
X414921Y247001D01*
X414263Y248232D01*
X413378Y249311D01*
X412299Y250196D01*
X411068Y250854D01*
X409732Y251260D01*
X408343Y251396D01*
D02*
G37*
G36*
X70153D02*
X68764Y251260D01*
X67428Y250854D01*
X66197Y250196D01*
X65118Y249311D01*
X64233Y248232D01*
X63575Y247001D01*
X63169Y245665D01*
X63033Y244276D01*
X63169Y242886D01*
X63575Y241550D01*
X64233Y240319D01*
X65118Y239240D01*
X66197Y238355D01*
X67428Y237697D01*
X68764Y237292D01*
X70153Y237155D01*
X71543Y237292D01*
X72879Y237697D01*
X74110Y238355D01*
X75189Y239240D01*
X76074Y240319D01*
X76732Y241550D01*
X77138Y242886D01*
X77274Y244276D01*
X77138Y245665D01*
X76732Y247001D01*
X76074Y248232D01*
X75189Y249311D01*
X74110Y250196D01*
X72879Y250854D01*
X71543Y251260D01*
X70153Y251396D01*
D02*
G37*
G36*
X299327Y237220D02*
X296366D01*
Y234752D01*
X299327D01*
Y237220D01*
D02*
G37*
G36*
X295366D02*
X292406D01*
Y234752D01*
X295366D01*
Y237220D01*
D02*
G37*
G36*
X289878Y237220D02*
X286917D01*
Y234752D01*
X289878D01*
Y237220D01*
D02*
G37*
G36*
X285917D02*
X282957D01*
Y234752D01*
X285917D01*
Y237220D01*
D02*
G37*
G36*
X455020Y239469D02*
X448524D01*
Y233957D01*
X450569D01*
Y214445D01*
X449608D01*
X448940Y214357D01*
X448318Y214099D01*
X447783Y213689D01*
X447373Y213154D01*
X447115Y212532D01*
X447027Y211864D01*
Y208320D01*
X447115Y207652D01*
X447373Y207030D01*
X447783Y206495D01*
X448318Y206085D01*
X448940Y205827D01*
X449608Y205739D01*
X453939D01*
X454607Y205827D01*
X455230Y206085D01*
X455764Y206495D01*
X456174Y207030D01*
X456432Y207652D01*
X456520Y208320D01*
Y211864D01*
X456432Y212532D01*
X456174Y213154D01*
X455764Y213689D01*
X455230Y214099D01*
X454607Y214357D01*
X453939Y214445D01*
X452978D01*
Y233957D01*
X455020D01*
Y235508D01*
X457382D01*
Y233957D01*
X463878D01*
Y239469D01*
X457382D01*
Y237917D01*
X455020D01*
Y239469D01*
D02*
G37*
G36*
X289878Y233752D02*
X286917D01*
Y231283D01*
X289878D01*
Y233752D01*
D02*
G37*
G36*
X285917D02*
X282957D01*
Y231283D01*
X285917D01*
Y233752D01*
D02*
G37*
G36*
X299327Y233752D02*
X296366D01*
Y231283D01*
X299327D01*
Y233752D01*
D02*
G37*
G36*
X295366D02*
X292406D01*
Y231283D01*
X295366D01*
Y233752D01*
D02*
G37*
G36*
X280528Y231118D02*
X275303D01*
Y227862D01*
X280528D01*
Y231118D01*
D02*
G37*
G36*
X274303D02*
X269079D01*
Y227862D01*
X274303D01*
Y231118D01*
D02*
G37*
G36*
X267618Y246358D02*
X230610D01*
Y229035D01*
X246335D01*
Y214862D01*
X246358Y214682D01*
Y209350D01*
X246706D01*
Y206509D01*
X246247Y206050D01*
X224029D01*
X214695Y215384D01*
X213914Y215906D01*
X212992Y216090D01*
X142421D01*
X141500Y215906D01*
X140718Y215384D01*
X105187Y179853D01*
X104665Y179071D01*
X104481Y178150D01*
Y64272D01*
X104665Y63350D01*
X105187Y62569D01*
X109403Y58353D01*
Y52833D01*
X109348Y52797D01*
X108913Y52146D01*
X108761Y51378D01*
Y41929D01*
X108913Y41161D01*
X109348Y40510D01*
X110000Y40075D01*
X110768Y39922D01*
X113130D01*
X113898Y40075D01*
X114549Y40510D01*
X114984Y41161D01*
X115137Y41929D01*
Y51378D01*
X114984Y52146D01*
X114549Y52797D01*
X114219Y53017D01*
Y59350D01*
X114036Y60272D01*
X113514Y61053D01*
X109298Y65269D01*
Y82355D01*
Y82503D01*
X109798Y82673D01*
X109944Y82483D01*
X110520Y82042D01*
X111190Y81764D01*
X111909Y81669D01*
X112629Y81764D01*
X113299Y82042D01*
X113875Y82483D01*
X114317Y83059D01*
X114594Y83729D01*
X114689Y84449D01*
X114594Y85168D01*
X114317Y85839D01*
X113875Y86414D01*
X113299Y86856D01*
X112629Y87134D01*
X111909Y87229D01*
X111190Y87134D01*
X110520Y86856D01*
X109944Y86414D01*
X109889Y86343D01*
X109798Y86225D01*
X109298Y86394D01*
Y86543D01*
Y177152D01*
X143419Y211273D01*
X211995D01*
X221328Y201939D01*
X222110Y201417D01*
X223031Y201233D01*
X247244D01*
X248166Y201417D01*
X248947Y201939D01*
X250817Y203809D01*
X251339Y204590D01*
X251523Y205512D01*
Y209350D01*
X251870D01*
Y214682D01*
X251894Y214862D01*
Y229035D01*
X267618D01*
Y238362D01*
X269291D01*
Y237598D01*
X280315D01*
Y240028D01*
X283169D01*
Y239370D01*
X289665D01*
Y240028D01*
X292618D01*
Y239370D01*
X299114D01*
Y240028D01*
X374827D01*
X385715Y229140D01*
X385715Y229140D01*
X386236Y228792D01*
X386850Y228670D01*
X398298D01*
X398416Y228660D01*
X398585Y228632D01*
X398705Y228600D01*
X398721Y228593D01*
Y226142D01*
X406172D01*
X406189Y226138D01*
X406190Y226138D01*
X406229Y226111D01*
X406233Y226106D01*
X406242Y226079D01*
X406502Y225784D01*
X406511Y225642D01*
X405692Y224918D01*
X405334Y224642D01*
X405014Y224424D01*
X404746Y224271D01*
X404539Y224181D01*
X404409Y224146D01*
X404370Y224144D01*
X404277Y224164D01*
X404268Y224164D01*
X403933Y224303D01*
X402854Y224445D01*
X401775Y224303D01*
X400770Y223886D01*
X399906Y223224D01*
X399243Y222360D01*
X398827Y221355D01*
X398685Y220276D01*
X398827Y219196D01*
X399243Y218191D01*
X399906Y217327D01*
X400770Y216665D01*
X401775Y216248D01*
X402854Y216106D01*
X403933Y216248D01*
X404939Y216665D01*
X405803Y217327D01*
X406465Y218191D01*
X406882Y219196D01*
X407024Y220276D01*
X406882Y221355D01*
X406743Y221689D01*
X406743Y221699D01*
X406722Y221791D01*
X406725Y221831D01*
X406760Y221960D01*
X406850Y222167D01*
X407003Y222435D01*
X407210Y222739D01*
X408263Y223980D01*
X408318Y224036D01*
X408373Y224091D01*
X410909D01*
X411009Y223591D01*
X410477Y223371D01*
X409737Y222803D01*
X409169Y222062D01*
X408812Y221201D01*
X408690Y220276D01*
X408812Y219351D01*
X409169Y218489D01*
X409737Y217748D01*
X410477Y217180D01*
X410790Y217051D01*
X411009Y216960D01*
X410909Y216460D01*
X410039D01*
X409579Y216369D01*
X409188Y216107D01*
X409188Y216107D01*
X407121Y214040D01*
X406860Y213650D01*
X406768Y213189D01*
X406768Y213189D01*
Y212586D01*
X406268Y212417D01*
X406178Y212535D01*
X405972Y212803D01*
X405232Y213371D01*
X404370Y213728D01*
X403445Y213849D01*
X402264D01*
X401339Y213728D01*
X400477Y213371D01*
X399737Y212803D01*
X399169Y212063D01*
X398812Y211201D01*
X398690Y210276D01*
X398812Y209351D01*
X399169Y208489D01*
X399737Y207749D01*
X400477Y207181D01*
X401339Y206823D01*
X402264Y206702D01*
X403445D01*
X404370Y206823D01*
X405232Y207181D01*
X405972Y207749D01*
X406178Y208016D01*
X406268Y208135D01*
X406768Y207965D01*
Y205322D01*
X404939Y203492D01*
X404370Y203728D01*
X403445Y203850D01*
X402264D01*
X401339Y203728D01*
X400477Y203371D01*
X399737Y202803D01*
X399169Y202063D01*
X398812Y201201D01*
X398690Y200276D01*
X398812Y199351D01*
X399169Y198489D01*
X399737Y197748D01*
X400477Y197180D01*
X400743Y197070D01*
X400961Y196980D01*
X400862Y196480D01*
X396660D01*
X392543Y200597D01*
Y211417D01*
X392543Y211417D01*
X392451Y211878D01*
X392190Y212269D01*
X392190Y212269D01*
X377229Y227229D01*
X376839Y227490D01*
X376378Y227582D01*
X376378Y227582D01*
X290453D01*
X290453Y227582D01*
X289992Y227490D01*
X289601Y227229D01*
X259009Y196637D01*
X258748Y196246D01*
X258656Y195785D01*
X258656Y195785D01*
Y189957D01*
X258637Y189504D01*
X258557Y188672D01*
X258502Y188348D01*
X258437Y188069D01*
X258366Y187847D01*
X258296Y187683D01*
X258239Y187588D01*
X258157Y187533D01*
X257635Y186752D01*
X257452Y185830D01*
X257471Y185733D01*
X257443Y185626D01*
X257378Y185460D01*
X257270Y185253D01*
X257119Y185010D01*
X256934Y184749D01*
X256076Y183749D01*
X239476Y167149D01*
X231693D01*
Y170472D01*
Y174197D01*
X231906D01*
Y175287D01*
X228445D01*
X224984D01*
Y174197D01*
X225197D01*
Y170472D01*
Y166535D01*
Y162598D01*
Y158661D01*
Y154724D01*
Y150787D01*
Y146850D01*
Y143527D01*
X216247D01*
X212717Y147057D01*
X212110Y147744D01*
X211881Y148038D01*
X211695Y148307D01*
X211555Y148542D01*
X211461Y148736D01*
X211410Y148882D01*
X211392Y148973D01*
X211392Y149066D01*
X211432Y149268D01*
X211249Y150189D01*
X210727Y150971D01*
X209945Y151493D01*
X209024Y151676D01*
X208102Y151493D01*
X207321Y150971D01*
X206799Y150189D01*
X206615Y149268D01*
X206799Y148346D01*
X207321Y147565D01*
X208102Y147043D01*
X209024Y146859D01*
X209041Y146863D01*
X209080Y146850D01*
X209237Y146778D01*
X209439Y146663D01*
X209680Y146502D01*
X209943Y146305D01*
X210937Y145431D01*
X213571Y142797D01*
X214347Y142020D01*
X214156Y141559D01*
X211227D01*
X197702Y155084D01*
X197311Y155345D01*
X196850Y155437D01*
X196850Y155437D01*
X142027D01*
X141567Y155345D01*
X141176Y155084D01*
X141176Y155084D01*
X121097Y135005D01*
X120836Y134614D01*
X120745Y134153D01*
X120745Y134153D01*
Y96101D01*
X120245Y96002D01*
X120170Y96182D01*
X119413Y97169D01*
X118426Y97926D01*
X117277Y98402D01*
X116043Y98564D01*
X114810Y98402D01*
X113661Y97926D01*
X112674Y97169D01*
X111916Y96182D01*
X111441Y95033D01*
X111278Y93799D01*
X111441Y92566D01*
X111916Y91417D01*
X112674Y90430D01*
X113661Y89672D01*
X114810Y89196D01*
X116043Y89034D01*
X117277Y89196D01*
X118426Y89672D01*
X119413Y90430D01*
X120037Y91243D01*
X120170Y91417D01*
X120245Y91597D01*
X120745Y91497D01*
Y53380D01*
X120000Y53232D01*
X119349Y52797D01*
X118913Y52146D01*
X118761Y51378D01*
Y41929D01*
X118913Y41161D01*
X119349Y40510D01*
X120000Y40075D01*
X120768Y39922D01*
X123130D01*
X123898Y40075D01*
X124549Y40510D01*
X124984Y41161D01*
X125137Y41929D01*
Y51378D01*
X124984Y52146D01*
X124549Y52797D01*
X123898Y53232D01*
X123153Y53380D01*
Y133655D01*
X142526Y153028D01*
X145258D01*
X145450Y152566D01*
X131097Y138214D01*
X130836Y137823D01*
X130745Y137362D01*
X130745Y137362D01*
Y53380D01*
X130000Y53232D01*
X129349Y52797D01*
X128913Y52146D01*
X128761Y51378D01*
Y41929D01*
X128913Y41161D01*
X129349Y40510D01*
X130000Y40075D01*
X130768Y39922D01*
X133130D01*
X133898Y40075D01*
X134549Y40510D01*
X134984Y41161D01*
X135016Y41322D01*
X135107Y41777D01*
X135607Y41728D01*
Y40164D01*
X131097Y35655D01*
X130836Y35264D01*
X130745Y34803D01*
X130745Y34803D01*
Y31569D01*
X130000Y31421D01*
X129349Y30986D01*
X128913Y30335D01*
X128761Y29567D01*
Y20118D01*
X128913Y19350D01*
X129349Y18699D01*
X130000Y18264D01*
X130768Y18111D01*
X133130D01*
X133898Y18264D01*
X134549Y18699D01*
X134984Y19350D01*
X135137Y20118D01*
Y29567D01*
X134984Y30335D01*
X134549Y30986D01*
X133898Y31421D01*
X133153Y31569D01*
Y34304D01*
X137663Y38814D01*
X137924Y39204D01*
X138015Y39665D01*
X138015Y39665D01*
Y133163D01*
X153156Y148304D01*
X174522D01*
X175437Y148246D01*
X175803Y148199D01*
X176119Y148139D01*
X176376Y148072D01*
X176570Y148002D01*
X176697Y147937D01*
X176759Y147892D01*
X176837Y147807D01*
X176849Y147798D01*
X177006Y147565D01*
X177787Y147043D01*
X178102Y146980D01*
X178053Y146480D01*
X155610D01*
X155149Y146388D01*
X154759Y146127D01*
X141097Y132466D01*
X140836Y132075D01*
X140745Y131614D01*
X140745Y131614D01*
Y53380D01*
X140000Y53232D01*
X139348Y52797D01*
X138913Y52146D01*
X138761Y51378D01*
Y41929D01*
X138913Y41161D01*
X139348Y40510D01*
X140000Y40075D01*
X140768Y39922D01*
X143130D01*
X143898Y40075D01*
X144549Y40510D01*
X144588Y40568D01*
X144752Y40814D01*
X145252Y40663D01*
Y39278D01*
X141097Y35123D01*
X140836Y34732D01*
X140745Y34272D01*
X140745Y34272D01*
Y31569D01*
X140000Y31421D01*
X139348Y30986D01*
X138913Y30335D01*
X138761Y29567D01*
Y20118D01*
X138913Y19350D01*
X139348Y18699D01*
X140000Y18264D01*
X140768Y18111D01*
X143130D01*
X143898Y18264D01*
X144549Y18699D01*
X144984Y19350D01*
X145137Y20118D01*
Y29567D01*
X144984Y30335D01*
X144549Y30986D01*
X143898Y31421D01*
X143153Y31569D01*
Y33773D01*
X147308Y37928D01*
X147569Y38319D01*
X147661Y38780D01*
Y130013D01*
X158570Y140922D01*
X188747D01*
X189661Y140866D01*
X190032Y140820D01*
X190357Y140762D01*
X190626Y140695D01*
X190834Y140624D01*
X190981Y140556D01*
X191064Y140502D01*
X191111Y140457D01*
X191210Y140308D01*
X191992Y139786D01*
X192913Y139603D01*
X193835Y139786D01*
X194616Y140308D01*
X195139Y141090D01*
X195322Y142011D01*
X195139Y142933D01*
X194616Y143715D01*
X193835Y144237D01*
X192913Y144420D01*
X191992Y144237D01*
X191210Y143715D01*
X191190Y143684D01*
X191136Y143655D01*
X190973Y143592D01*
X190747Y143528D01*
X190464Y143468D01*
X190142Y143420D01*
X190105Y143417D01*
X189991Y143410D01*
X189712Y143892D01*
X190020Y144354D01*
X190204Y145276D01*
X190020Y146197D01*
X189498Y146979D01*
X188717Y147501D01*
X187795Y147684D01*
X186874Y147501D01*
X186092Y146979D01*
X186037Y146896D01*
X185942Y146840D01*
X185778Y146770D01*
X185556Y146699D01*
X185277Y146634D01*
X184961Y146580D01*
X183648Y146480D01*
X179364D01*
X179315Y146980D01*
X179630Y147043D01*
X179750Y147123D01*
X180412Y147565D01*
X180934Y148346D01*
X181117Y149268D01*
X180934Y150189D01*
X180681Y150567D01*
X180621Y150658D01*
X180888Y151158D01*
X191627D01*
X197765Y145020D01*
X198372Y144333D01*
X198600Y144039D01*
X198785Y143771D01*
X198924Y143537D01*
X199016Y143344D01*
X199067Y143200D01*
X199083Y143112D01*
X199082Y143009D01*
X199040Y142797D01*
X199224Y141875D01*
X199746Y141094D01*
X200527Y140571D01*
X201449Y140388D01*
X202370Y140571D01*
X203152Y141094D01*
X203674Y141875D01*
X203857Y142797D01*
X203674Y143718D01*
X203152Y144500D01*
X202370Y145022D01*
X201449Y145205D01*
X201439Y145203D01*
X201407Y145213D01*
X201251Y145285D01*
X201050Y145402D01*
X200830Y145550D01*
X199545Y146646D01*
X193709Y152482D01*
X193625Y152566D01*
X193816Y153028D01*
X196352D01*
X209071Y140308D01*
X209328Y140052D01*
X209136Y139590D01*
X198130D01*
X197669Y139498D01*
X197278Y139237D01*
X197278Y139237D01*
X181113Y123072D01*
X180852Y122681D01*
X180760Y122220D01*
X180760Y122220D01*
Y53380D01*
X180015Y53232D01*
X179364Y52797D01*
X178929Y52146D01*
X178776Y51378D01*
Y41929D01*
X178929Y41161D01*
X179364Y40510D01*
X180015Y40075D01*
X180783Y39922D01*
X183145D01*
X183913Y40075D01*
X184564Y40510D01*
X185000Y41161D01*
X185152Y41929D01*
Y51378D01*
X185000Y52146D01*
X184564Y52797D01*
X183913Y53232D01*
X183168Y53380D01*
Y121721D01*
X198629Y137182D01*
X208447D01*
X208639Y136720D01*
X208555Y136636D01*
D01*
X203686Y131767D01*
D01*
X203560Y131641D01*
X203111Y131899D01*
X203266Y132679D01*
X203082Y133601D01*
X202560Y134382D01*
X201779Y134905D01*
X200857Y135088D01*
X199936Y134905D01*
X199154Y134382D01*
X198632Y133601D01*
X198449Y132679D01*
X198456Y132645D01*
X198438Y132588D01*
X198368Y132427D01*
X198254Y132223D01*
X198095Y131981D01*
X197901Y131718D01*
X197031Y130722D01*
X186255Y119946D01*
X185994Y119555D01*
X185902Y119095D01*
X185902Y119094D01*
Y39672D01*
X181113Y34883D01*
X180852Y34492D01*
X180760Y34031D01*
X180760Y34031D01*
Y31569D01*
X180015Y31421D01*
X179364Y30986D01*
X178929Y30335D01*
X178776Y29567D01*
Y20118D01*
X178929Y19350D01*
X179364Y18699D01*
X180015Y18264D01*
X180783Y18111D01*
X183145D01*
X183913Y18264D01*
X184564Y18699D01*
X185000Y19350D01*
X185152Y20118D01*
Y29567D01*
X185000Y30335D01*
X184564Y30986D01*
X183913Y31421D01*
X183168Y31569D01*
Y33532D01*
X187958Y38322D01*
X187958Y38322D01*
X188219Y38712D01*
X188311Y39173D01*
Y41242D01*
Y41706D01*
X188811Y41756D01*
X188901Y41300D01*
X188913Y41242D01*
X188929Y41161D01*
X189364Y40510D01*
X190015Y40075D01*
X190783Y39922D01*
X193145D01*
X193913Y40075D01*
X194564Y40510D01*
X195000Y41161D01*
X195056Y41443D01*
X195152Y41929D01*
X195646Y41914D01*
Y41384D01*
Y37999D01*
X191210Y33563D01*
X191113Y33465D01*
X190852Y33075D01*
X190760Y32614D01*
X190760Y32614D01*
Y31569D01*
X190015Y31421D01*
X189364Y30986D01*
X188929Y30335D01*
X188776Y29567D01*
Y20118D01*
X188929Y19350D01*
X189364Y18699D01*
X190015Y18264D01*
X190783Y18111D01*
X193145D01*
X193913Y18264D01*
X194564Y18699D01*
X195000Y19350D01*
X195152Y20118D01*
Y29567D01*
X195000Y30335D01*
X194564Y30986D01*
X193913Y31421D01*
X193242Y31555D01*
X193168Y31569D01*
Y32115D01*
X193715Y32662D01*
X197702Y36648D01*
X197702Y36648D01*
X197963Y37039D01*
X198055Y37500D01*
Y122730D01*
X208842Y133517D01*
X208958Y133632D01*
X209418Y133386D01*
X209386Y133222D01*
X209569Y132301D01*
X210091Y131519D01*
X210873Y130997D01*
X211794Y130814D01*
X212716Y130997D01*
X213497Y131519D01*
X213513Y131542D01*
X213559Y131567D01*
X213721Y131629D01*
X213947Y131692D01*
X214230Y131749D01*
X214554Y131797D01*
X215874Y131885D01*
X216019D01*
X217546Y130357D01*
X217300Y129896D01*
X217140Y129928D01*
X217080Y129940D01*
X216159Y129756D01*
X215377Y129234D01*
X214855Y128453D01*
X214672Y127531D01*
X214855Y126610D01*
X215258Y126007D01*
D01*
X215318Y125917D01*
X215162Y125417D01*
X208727D01*
X207812Y125472D01*
X207441Y125518D01*
X207115Y125576D01*
X206845Y125642D01*
X206634Y125713D01*
X206485Y125782D01*
X206399Y125837D01*
X206360Y125874D01*
X206267Y126013D01*
X205485Y126535D01*
X204564Y126719D01*
X203642Y126535D01*
X202861Y126013D01*
X202339Y125232D01*
X202155Y124310D01*
X202339Y123389D01*
X202861Y122607D01*
X203642Y122085D01*
X204564Y121902D01*
X205485Y122085D01*
X206267Y122607D01*
X206291Y122644D01*
X206352Y122677D01*
X206516Y122742D01*
X206741Y122807D01*
X207024Y122867D01*
X207346Y122917D01*
X208665Y123008D01*
X212985D01*
X213119Y122508D01*
X213104Y122487D01*
X213009Y122431D01*
X212845Y122360D01*
X212623Y122290D01*
X212344Y122224D01*
X212028Y122171D01*
X210715Y122070D01*
X207087D01*
X207087Y122070D01*
X206626Y121979D01*
X206235Y121718D01*
X206235Y121718D01*
X201113Y116595D01*
X200852Y116205D01*
X200760Y115744D01*
X200760Y115744D01*
Y53380D01*
X200015Y53232D01*
X199364Y52797D01*
X198929Y52146D01*
X198776Y51378D01*
Y41929D01*
X198929Y41161D01*
X199364Y40510D01*
X200015Y40075D01*
X200783Y39922D01*
X203145D01*
X203913Y40075D01*
X204067Y40178D01*
X204398Y40399D01*
X204898Y40178D01*
Y37999D01*
X201113Y34213D01*
X200852Y33823D01*
X200760Y33362D01*
X200760Y33362D01*
Y31569D01*
X200015Y31421D01*
X199364Y30986D01*
X198929Y30335D01*
X198776Y29567D01*
Y20118D01*
X198929Y19350D01*
X199364Y18699D01*
X200015Y18264D01*
X200783Y18111D01*
X203145D01*
X203913Y18264D01*
X204564Y18699D01*
X205000Y19350D01*
X205152Y20118D01*
Y29567D01*
X205000Y30335D01*
X204564Y30986D01*
X203913Y31421D01*
X203169Y31569D01*
Y32863D01*
X204459Y34154D01*
X206684Y36378D01*
X207356Y36413D01*
X210760Y33009D01*
Y31569D01*
X210015Y31421D01*
X209364Y30986D01*
X208929Y30335D01*
X208776Y29567D01*
Y20118D01*
X208929Y19350D01*
X209364Y18699D01*
X210015Y18264D01*
X210783Y18111D01*
X213145D01*
X213913Y18264D01*
X214564Y18699D01*
X215000Y19350D01*
X215152Y20118D01*
Y29567D01*
X215000Y30335D01*
X214564Y30986D01*
X213913Y31421D01*
X213168Y31569D01*
Y33508D01*
X213077Y33969D01*
X212816Y34360D01*
X212816Y34360D01*
X208881Y38294D01*
Y40176D01*
Y40332D01*
X209277Y40478D01*
X209381Y40498D01*
X210015Y40075D01*
X210783Y39922D01*
X213145D01*
X213913Y40075D01*
X214564Y40510D01*
X215000Y41161D01*
X215152Y41929D01*
Y51378D01*
X215000Y52146D01*
X214564Y52797D01*
X213913Y53232D01*
X213168Y53380D01*
Y59103D01*
X222743Y68678D01*
X262390D01*
X262847Y68658D01*
X263676Y68576D01*
X263996Y68520D01*
X264269Y68454D01*
X264485Y68384D01*
X264639Y68314D01*
X264732Y68256D01*
X264752Y68238D01*
X264831Y68120D01*
X265613Y67598D01*
X266534Y67414D01*
X267456Y67598D01*
X268237Y68120D01*
X268759Y68901D01*
X268943Y69823D01*
X268759Y70745D01*
X268237Y71526D01*
X267456Y72048D01*
X266534Y72232D01*
X265613Y72048D01*
X264831Y71526D01*
X264797Y71475D01*
X264721Y71432D01*
X264555Y71364D01*
X264330Y71296D01*
X264048Y71233D01*
X263728Y71182D01*
X262411Y71086D01*
X222244D01*
X222244Y71086D01*
X221783Y70995D01*
X221393Y70733D01*
X211113Y60453D01*
X210852Y60063D01*
X210760Y59602D01*
X210760Y59602D01*
Y53380D01*
X210015Y53232D01*
X209472Y52869D01*
D01*
X209381Y52809D01*
X209277Y52829D01*
X208881Y52975D01*
Y53131D01*
Y59825D01*
X224821Y75764D01*
X287126D01*
X296067Y66824D01*
X295875Y66362D01*
X223425D01*
X223425Y66362D01*
X222964Y66270D01*
X222574Y66009D01*
X222574Y66009D01*
X216176Y59611D01*
X215915Y59221D01*
X215823Y58760D01*
X215823Y58760D01*
Y37598D01*
X215823Y37598D01*
X215915Y37138D01*
X216176Y36747D01*
X220760Y32163D01*
Y31569D01*
X220015Y31421D01*
X219364Y30986D01*
X218929Y30335D01*
X218776Y29567D01*
Y20118D01*
X218929Y19350D01*
X219364Y18699D01*
X220015Y18264D01*
X220783Y18111D01*
X223145D01*
X223913Y18264D01*
X224565Y18699D01*
X225000Y19350D01*
X225075Y19731D01*
X225152Y20118D01*
Y29567D01*
X225075Y29954D01*
D01*
X225000Y30335D01*
X224565Y30986D01*
X223913Y31421D01*
X223168Y31569D01*
Y32662D01*
X223168Y32662D01*
X223077Y33123D01*
X222816Y33513D01*
X222816Y33513D01*
X222471Y33858D01*
X218232Y38097D01*
D01*
Y41638D01*
Y58261D01*
X223924Y63953D01*
X225625D01*
X225777Y63453D01*
X225625Y63352D01*
X225625Y63352D01*
X221113Y58839D01*
X220852Y58449D01*
X220760Y57988D01*
X220760Y57988D01*
Y53380D01*
X220015Y53232D01*
X219364Y52797D01*
X218929Y52146D01*
X218776Y51378D01*
Y41929D01*
X218822Y41696D01*
X218929Y41161D01*
X219364Y40510D01*
X220015Y40075D01*
X220783Y39922D01*
X223145D01*
X223913Y40075D01*
X224565Y40510D01*
X225000Y41161D01*
X225152Y41929D01*
Y51378D01*
X225000Y52146D01*
X224565Y52797D01*
X223913Y53232D01*
X223168Y53380D01*
Y57489D01*
X226975Y61296D01*
X294088D01*
X296729Y58655D01*
Y47736D01*
X296729Y47736D01*
X296820Y47275D01*
X297081Y46885D01*
X300231Y43735D01*
X300231Y43735D01*
X300622Y43474D01*
X301083Y43382D01*
X301083Y43382D01*
X322047D01*
X322047Y43382D01*
X322508Y43474D01*
X322899Y43735D01*
X327434Y48270D01*
X327434Y48270D01*
X327695Y48661D01*
X327787Y49122D01*
X327787Y49122D01*
Y51882D01*
X328002Y52026D01*
X328437Y52677D01*
X328590Y53445D01*
Y58366D01*
X328437Y59134D01*
X328002Y59785D01*
X327351Y60220D01*
X326583Y60373D01*
X325815Y60220D01*
X325164Y59785D01*
X324728Y59134D01*
X324576Y58366D01*
Y53445D01*
X324728Y52677D01*
X325164Y52026D01*
X325378Y51882D01*
Y49621D01*
X321548Y45791D01*
X301582D01*
X299137Y48235D01*
Y52621D01*
Y53085D01*
X299637Y53135D01*
X299728Y52679D01*
D01*
X299728Y52677D01*
X300164Y52026D01*
X300815Y51591D01*
X301583Y51438D01*
X302351Y51591D01*
X303002Y52026D01*
X303437Y52677D01*
X303590Y53445D01*
Y54701D01*
X304576D01*
Y53445D01*
X304728Y52677D01*
X305164Y52026D01*
X305190Y52008D01*
X305170Y51915D01*
X305102Y51689D01*
X305035Y51524D01*
X304993Y51450D01*
X304944Y51417D01*
X304422Y50636D01*
X304239Y49714D01*
X304422Y48792D01*
X304944Y48011D01*
X305726Y47489D01*
X306647Y47306D01*
X307569Y47489D01*
X308350Y48011D01*
X308873Y48792D01*
X309056Y49714D01*
X308873Y50636D01*
X308350Y51417D01*
X308229Y51498D01*
X308208Y51521D01*
X308151Y51613D01*
X308081Y51767D01*
X308010Y51982D01*
X308000Y52024D01*
X308002Y52026D01*
Y52026D01*
D01*
X308437Y52677D01*
X308590Y53445D01*
Y58366D01*
X308437Y59134D01*
X308002Y59785D01*
X307351Y60220D01*
X306583Y60373D01*
X305815Y60220D01*
X305164Y59785D01*
X304728Y59134D01*
X304576Y58366D01*
Y57110D01*
X303590D01*
Y58366D01*
X303437Y59134D01*
X303002Y59785D01*
X302351Y60220D01*
X301583Y60373D01*
X300815Y60220D01*
X300164Y59785D01*
X299728Y59134D01*
X299728Y59132D01*
X299637Y58676D01*
X299137Y58726D01*
Y59153D01*
X299046Y59614D01*
X298785Y60005D01*
X298785Y60005D01*
X295438Y63352D01*
X295286Y63453D01*
X295438Y63953D01*
X312395D01*
X315378Y60970D01*
Y59929D01*
X315163Y59785D01*
X314728Y59134D01*
X314576Y58366D01*
Y53445D01*
X314728Y52677D01*
X315163Y52026D01*
X315815Y51591D01*
X316583Y51438D01*
X317351Y51591D01*
X318002Y52026D01*
X318437Y52677D01*
X318590Y53445D01*
Y58366D01*
X318437Y59134D01*
X318002Y59785D01*
X317787Y59929D01*
Y61468D01*
X317695Y61929D01*
X317434Y62320D01*
X314393Y65361D01*
X314584Y65823D01*
X317907D01*
X320378Y63352D01*
Y59929D01*
X320163Y59785D01*
X319728Y59134D01*
X319576Y58366D01*
Y53445D01*
X319728Y52677D01*
X320163Y52026D01*
X320815Y51591D01*
X321583Y51438D01*
X322351Y51591D01*
X323002Y52026D01*
X323437Y52677D01*
X323590Y53445D01*
Y58366D01*
X323437Y59134D01*
X323002Y59785D01*
X322787Y59929D01*
Y63850D01*
X322695Y64311D01*
X322434Y64702D01*
X322434Y64702D01*
X319257Y67879D01*
X318866Y68140D01*
X318406Y68232D01*
X318406Y68232D01*
X314009D01*
X313773Y68673D01*
X313900Y68862D01*
X314083Y69784D01*
X313900Y70705D01*
X313378Y71487D01*
X313266Y71561D01*
X313254Y71575D01*
X313196Y71670D01*
X313126Y71826D01*
X313055Y72043D01*
X312989Y72318D01*
X312935Y72630D01*
X312833Y73943D01*
D01*
Y74747D01*
X313002Y74860D01*
X313437Y75511D01*
X313590Y76279D01*
Y81201D01*
X313437Y81969D01*
X313002Y82620D01*
X312351Y83055D01*
X311583Y83208D01*
X310815Y83055D01*
X310163Y82620D01*
X309728Y81969D01*
X309576Y81201D01*
Y76279D01*
X309728Y75511D01*
X310163Y74860D01*
X310424Y74686D01*
Y74158D01*
X310408Y73519D01*
X310406Y73435D01*
X310329Y72605D01*
X310275Y72278D01*
X310212Y71997D01*
X310143Y71772D01*
X310074Y71605D01*
X310027Y71524D01*
X309972Y71487D01*
X309450Y70705D01*
X309266Y69784D01*
X309450Y68862D01*
X309522Y68753D01*
D01*
X309576Y68673D01*
X309340Y68232D01*
X298065D01*
X288476Y77820D01*
X288086Y78081D01*
X287625Y78173D01*
X287625Y78173D01*
X225961D01*
X225714Y78673D01*
X225833Y78827D01*
X226110Y79497D01*
X226205Y80216D01*
X226110Y80936D01*
X225833Y81606D01*
X225391Y82182D01*
X224815Y82624D01*
X224145Y82902D01*
X223425Y82996D01*
X223412Y82994D01*
X223320Y83027D01*
X223143Y83118D01*
X222901Y83271D01*
X222623Y83471D01*
X221098Y84814D01*
X220230Y85683D01*
X219709Y86031D01*
X219094Y86153D01*
X219094Y86153D01*
X213841D01*
X212881Y86189D01*
X211936Y86279D01*
X211585Y86336D01*
X211307Y86399D01*
X211117Y86460D01*
X211029Y86502D01*
X211021Y86513D01*
X210445Y86954D01*
X209774Y87232D01*
X209055Y87327D01*
X208336Y87232D01*
X207665Y86954D01*
X207090Y86513D01*
X206648Y85937D01*
X206370Y85267D01*
X206275Y84547D01*
X206370Y83828D01*
X206648Y83157D01*
X207090Y82582D01*
X207665Y82140D01*
X208336Y81862D01*
X209055Y81768D01*
X209774Y81862D01*
X210445Y82140D01*
X211021Y82582D01*
X211029Y82592D01*
X211117Y82634D01*
X211307Y82696D01*
X211585Y82759D01*
X211924Y82813D01*
X213952Y82942D01*
X218429D01*
X218906Y82465D01*
X219558Y81761D01*
X220163Y81029D01*
X220371Y80741D01*
X220524Y80499D01*
X220615Y80321D01*
X220647Y80230D01*
X220645Y80216D01*
X220740Y79497D01*
X221018Y78827D01*
X221460Y78251D01*
X222035Y77809D01*
X222543Y77599D01*
X222720Y77070D01*
X222637Y76986D01*
D01*
X207852Y62202D01*
X207769Y62118D01*
X207307Y62309D01*
Y62428D01*
Y65847D01*
X207215Y66307D01*
X206954Y66698D01*
X206954Y66698D01*
X204748Y68904D01*
Y71684D01*
Y71825D01*
X205221Y71985D01*
X205307Y71873D01*
X205534Y71577D01*
X206565Y70786D01*
X207766Y70288D01*
X208555Y70185D01*
Y75098D01*
Y80012D01*
X207766Y79908D01*
X206565Y79411D01*
X205534Y78620D01*
X205221Y78212D01*
X204748Y78372D01*
Y78513D01*
Y93044D01*
Y93193D01*
X205248Y93363D01*
X205338Y93245D01*
X205686Y92792D01*
X206673Y92035D01*
X207822Y91559D01*
X209055Y91396D01*
X210288Y91559D01*
X211438Y92035D01*
X212425Y92792D01*
X213182Y93779D01*
X213658Y94928D01*
X213820Y96161D01*
X213658Y97395D01*
X213182Y98544D01*
X212425Y99531D01*
X212319Y99612D01*
X212042Y99930D01*
X211731Y100408D01*
X211445Y100989D01*
X211189Y101674D01*
X210967Y102463D01*
X210783Y103355D01*
X210639Y104340D01*
X210470Y106645D01*
X210460Y107229D01*
Y108670D01*
X215560Y113770D01*
X217117Y115327D01*
X225197D01*
Y114386D01*
X224984D01*
Y113295D01*
X228445D01*
X231906D01*
Y114386D01*
X231693D01*
Y119449D01*
Y119465D01*
X232277D01*
X234453Y117288D01*
X235271Y116471D01*
X235661Y116210D01*
X236122Y116119D01*
X236122Y116119D01*
X240391D01*
X240391Y116119D01*
X240852Y116210D01*
X241243Y116471D01*
X252664Y127893D01*
X253127Y127702D01*
Y127584D01*
Y126911D01*
X253112Y126224D01*
X253046Y125377D01*
X252999Y125045D01*
X252945Y124760D01*
X252886Y124535D01*
X252827Y124375D01*
X252815Y124350D01*
X252811Y124347D01*
X252289Y123566D01*
X252105Y122644D01*
X252289Y121723D01*
X252811Y120941D01*
X252873Y120900D01*
X252923Y120812D01*
X252993Y120646D01*
X253063Y120420D01*
X253128Y120139D01*
X253181Y119821D01*
X253279Y118507D01*
Y108172D01*
X253260Y107717D01*
X253179Y106886D01*
X253124Y106564D01*
X253058Y106288D01*
X252987Y106069D01*
X252918Y105911D01*
X252858Y105813D01*
X252853Y105807D01*
X252751Y105738D01*
X252228Y104957D01*
X252045Y104035D01*
X252228Y103114D01*
X252751Y102332D01*
X253532Y101810D01*
X254454Y101627D01*
X255375Y101810D01*
X256157Y102332D01*
X256679Y103114D01*
X256862Y104035D01*
X256679Y104957D01*
X256157Y105738D01*
X256095Y105780D01*
X256045Y105867D01*
X255974Y106034D01*
X255904Y106260D01*
X255840Y106541D01*
X255787Y106859D01*
X255688Y108173D01*
Y118508D01*
X255707Y118963D01*
X255788Y119794D01*
X255844Y120115D01*
X255909Y120391D01*
X255980Y120610D01*
X256050Y120769D01*
X256109Y120867D01*
X256114Y120872D01*
X256217Y120941D01*
X256739Y121723D01*
X256922Y122644D01*
X256739Y123566D01*
X256217Y124347D01*
X256031Y124472D01*
X255951Y124549D01*
X255902Y124621D01*
X255835Y124757D01*
X255765Y124958D01*
X255697Y125220D01*
X255642Y125522D01*
X255535Y126832D01*
Y128537D01*
X258807Y131809D01*
X258907Y131908D01*
X259389Y131684D01*
X259377Y131544D01*
X259336Y131071D01*
X259286Y130742D01*
X259226Y130459D01*
X259162Y130234D01*
X259098Y130070D01*
X259066Y130013D01*
X259033Y129990D01*
X258511Y129209D01*
X258328Y128287D01*
X258511Y127366D01*
X259033Y126584D01*
X259814Y126062D01*
X260736Y125879D01*
X261658Y126062D01*
X262439Y126584D01*
X262961Y127366D01*
X263145Y128287D01*
X262961Y129209D01*
X262439Y129990D01*
X262295Y130087D01*
X262254Y130130D01*
X262199Y130215D01*
X262131Y130362D01*
X262060Y130572D01*
X261994Y130841D01*
X261939Y131149D01*
X261834Y132461D01*
Y132609D01*
X298096Y168870D01*
X298096Y168870D01*
X298357Y169261D01*
X298448Y169722D01*
X298448Y169722D01*
Y188032D01*
X302618Y192201D01*
X330505D01*
X359819Y162887D01*
Y130217D01*
X359819Y130217D01*
X359911Y129756D01*
X360172Y129365D01*
X375133Y114404D01*
X375133Y114404D01*
X375523Y114143D01*
X375984Y114052D01*
X375984Y114052D01*
X400164D01*
X400333Y113552D01*
X399999Y113295D01*
X399906Y113224D01*
X399243Y112360D01*
X398827Y111355D01*
X398685Y110276D01*
X398827Y109196D01*
X399243Y108191D01*
X399906Y107327D01*
X400770Y106665D01*
X401775Y106248D01*
X402854Y106106D01*
X403933Y106248D01*
X404939Y106665D01*
X405803Y107327D01*
X406465Y108191D01*
X406882Y109196D01*
X407024Y110276D01*
X406882Y111355D01*
X406465Y112360D01*
X405803Y113224D01*
X405375Y113552D01*
X405545Y114052D01*
X410163D01*
X410333Y113552D01*
X409999Y113295D01*
X409906Y113224D01*
X409243Y112360D01*
X408827Y111355D01*
X408685Y110276D01*
X408827Y109196D01*
X409243Y108191D01*
X409906Y107327D01*
X410770Y106665D01*
X411775Y106248D01*
X412854Y106106D01*
X413934Y106248D01*
X414939Y106665D01*
X415803Y107327D01*
X416465Y108191D01*
X416488Y108246D01*
X416525Y108295D01*
X416659Y108407D01*
X416883Y108536D01*
X417202Y108665D01*
X417614Y108784D01*
X418116Y108887D01*
X418695Y108968D01*
X420133Y109067D01*
X420443Y109071D01*
X420957D01*
X420957Y109071D01*
X421418Y109163D01*
X421808Y109424D01*
X425115Y112731D01*
X425377Y113122D01*
X425468Y113583D01*
Y152114D01*
X425377Y152575D01*
X425115Y152965D01*
X425115Y152965D01*
X422013Y156068D01*
X421622Y156329D01*
X421161Y156421D01*
X421161Y156421D01*
X415022D01*
X414922Y156921D01*
X415134Y157009D01*
X415469Y157265D01*
X415915Y157608D01*
X416515Y158389D01*
X416892Y159299D01*
X417020Y160276D01*
X416892Y161252D01*
X416515Y162162D01*
X415915Y162943D01*
X415134Y163543D01*
X414224Y163919D01*
X413248Y164048D01*
X413258Y164544D01*
X418694D01*
X426453Y156785D01*
Y40523D01*
X413808Y27878D01*
X334427D01*
X334276Y28378D01*
X334774Y28710D01*
X334829Y28793D01*
X334924Y28849D01*
X335088Y28919D01*
X335310Y28990D01*
X335589Y29055D01*
X335905Y29109D01*
X337218Y29209D01*
X340256D01*
X340256Y29209D01*
X340717Y29301D01*
X341107Y29562D01*
X346029Y34483D01*
X346029Y34483D01*
X346290Y34874D01*
X346381Y35335D01*
X346381Y35335D01*
Y66634D01*
X346290Y67095D01*
X346029Y67485D01*
X346029Y67485D01*
X343174Y70340D01*
X342784Y70601D01*
X342323Y70692D01*
X342323Y70692D01*
X325499D01*
X322787Y73404D01*
Y74717D01*
X323002Y74860D01*
X323437Y75511D01*
X323590Y76279D01*
Y81201D01*
X323437Y81969D01*
X323002Y82620D01*
X322351Y83055D01*
X321583Y83208D01*
X320815Y83055D01*
X320163Y82620D01*
X319728Y81969D01*
X319576Y81201D01*
Y76279D01*
X319728Y75511D01*
X320163Y74860D01*
X320378Y74717D01*
Y72906D01*
X320378Y72905D01*
X320470Y72445D01*
X320731Y72054D01*
X324149Y68637D01*
X324149Y68637D01*
X324539Y68376D01*
X325000Y68284D01*
X341824D01*
X343973Y66135D01*
Y35833D01*
X339757Y31618D01*
X337198D01*
X336745Y31637D01*
X335912Y31717D01*
X335589Y31772D01*
X335310Y31837D01*
X335088Y31907D01*
X334924Y31978D01*
X334829Y32034D01*
X334774Y32116D01*
X333993Y32638D01*
X333071Y32822D01*
X332149Y32638D01*
X331368Y32116D01*
X330846Y31335D01*
X330662Y30413D01*
X330846Y29492D01*
X331368Y28710D01*
X331866Y28378D01*
X331714Y27878D01*
X299613D01*
X293724Y33766D01*
D01*
Y54626D01*
X293724Y54626D01*
X293632Y55087D01*
X293371Y55477D01*
X293371Y55477D01*
X288548Y60300D01*
X288158Y60561D01*
X287697Y60653D01*
X287697Y60653D01*
X251575D01*
X251114Y60561D01*
X250723Y60300D01*
X250723Y60300D01*
X246097Y55674D01*
X245836Y55284D01*
X245745Y54823D01*
X245745Y54823D01*
Y38392D01*
X241113Y33761D01*
X240852Y33370D01*
X240760Y32909D01*
X240760Y32909D01*
Y31569D01*
X240015Y31421D01*
X239364Y30986D01*
X238929Y30335D01*
X238803Y29701D01*
D01*
X238776Y29567D01*
Y20118D01*
X238803Y19984D01*
X238929Y19350D01*
X239364Y18699D01*
X240015Y18264D01*
X240783Y18111D01*
X243145D01*
X243913Y18264D01*
X244565Y18699D01*
X245000Y19350D01*
X245152Y20118D01*
Y29567D01*
X245000Y30335D01*
X244565Y30986D01*
X243913Y31421D01*
X243168Y31569D01*
Y32410D01*
X247800Y37042D01*
X247800Y37042D01*
X248061Y37433D01*
X248153Y37894D01*
Y54324D01*
X252074Y58245D01*
X259090D01*
X259242Y57745D01*
X259089Y57643D01*
X259089Y57643D01*
X256235Y54789D01*
X255974Y54398D01*
X255882Y53937D01*
X255882Y53937D01*
Y37900D01*
X251117Y33135D01*
X250856Y32744D01*
X250764Y32283D01*
X250764Y32283D01*
Y31570D01*
X250015Y31421D01*
X249364Y30986D01*
X248929Y30335D01*
X248850Y29938D01*
X248350Y29988D01*
Y30451D01*
Y32178D01*
X252816Y36644D01*
X252816Y36644D01*
X253077Y37035D01*
X253168Y37496D01*
Y39927D01*
X253913Y40075D01*
X254564Y40510D01*
X255000Y41161D01*
X255152Y41929D01*
Y51378D01*
X255000Y52146D01*
X254564Y52797D01*
X253913Y53232D01*
X253145Y53385D01*
X250783D01*
X250015Y53232D01*
X249364Y52797D01*
X248929Y52146D01*
X248776Y51378D01*
Y41929D01*
X248929Y41161D01*
X249364Y40510D01*
X250015Y40075D01*
X250760Y39927D01*
Y37995D01*
X246294Y33529D01*
X246033Y33138D01*
X245941Y32677D01*
X245941Y32677D01*
Y10827D01*
X245941Y10827D01*
X246033Y10366D01*
X246294Y9975D01*
X250727Y5543D01*
X250519Y5043D01*
X233767D01*
X232279Y6530D01*
X232525Y6991D01*
X232685Y6959D01*
D01*
X233268Y6843D01*
X234189Y7027D01*
X234971Y7549D01*
X235493Y8330D01*
X235676Y9252D01*
X235493Y10174D01*
X234971Y10955D01*
X234189Y11477D01*
X233268Y11660D01*
X232346Y11477D01*
X231565Y10955D01*
X231043Y10174D01*
X230859Y9252D01*
X231007Y8510D01*
X230546Y8263D01*
X230049Y8760D01*
X228074Y10735D01*
Y32966D01*
X232816Y37707D01*
X232816Y37707D01*
X233077Y38098D01*
X233169Y38559D01*
X233168Y38559D01*
Y39927D01*
X233913Y40075D01*
X234564Y40510D01*
X235000Y41161D01*
X235152Y41929D01*
Y51378D01*
X235000Y52146D01*
X234564Y52797D01*
X233913Y53232D01*
X233145Y53385D01*
X230783D01*
X230015Y53232D01*
X229364Y52797D01*
X228929Y52146D01*
X228776Y51378D01*
Y41929D01*
X228929Y41161D01*
X229364Y40510D01*
X230015Y40075D01*
X230760Y39927D01*
Y39057D01*
X226019Y34316D01*
X225758Y33925D01*
X225666Y33465D01*
X225666Y33465D01*
Y10236D01*
X225666Y10236D01*
X225758Y9775D01*
X226019Y9385D01*
X232416Y2987D01*
X232416Y2987D01*
X232807Y2726D01*
X233268Y2634D01*
X233268Y2634D01*
X411516D01*
X411516Y2634D01*
X411977Y2726D01*
X412367Y2987D01*
X442682Y33302D01*
X442682Y33302D01*
X442943Y33693D01*
X443035Y34154D01*
X443035Y34154D01*
Y166234D01*
X443441Y166639D01*
X443778Y166949D01*
X444422Y167477D01*
X444687Y167663D01*
X444927Y167808D01*
X445128Y167910D01*
X445285Y167969D01*
X445390Y167993D01*
X445424Y167995D01*
X445571Y167965D01*
X446493Y168149D01*
X447274Y168671D01*
X447796Y169452D01*
X447979Y170374D01*
X447796Y171296D01*
X447274Y172077D01*
X446493Y172599D01*
X445571Y172783D01*
X444649Y172599D01*
X443868Y172077D01*
X443346Y171296D01*
X443162Y170374D01*
X443173Y170318D01*
X443151Y170239D01*
X443082Y170075D01*
X442970Y169868D01*
X442814Y169624D01*
X442624Y169362D01*
X442051Y168700D01*
X441960Y168596D01*
X441460Y168782D01*
Y168921D01*
Y179722D01*
Y179850D01*
X441960Y180057D01*
X450428Y171589D01*
X450819Y171328D01*
X451279Y171237D01*
X451280Y171237D01*
X467808D01*
X473048Y165997D01*
Y165972D01*
X473043Y165674D01*
X472947Y164247D01*
X472867Y163680D01*
X472767Y163194D01*
X472652Y162803D01*
X472530Y162511D01*
X472415Y162321D01*
X472327Y162225D01*
X472178Y162129D01*
X471869Y162001D01*
X470883Y161243D01*
X470125Y160257D01*
X469649Y159107D01*
X469487Y157874D01*
X469567Y157265D01*
X469611Y156928D01*
X469649Y156641D01*
X470125Y155491D01*
X470883Y154505D01*
X471869Y153747D01*
X473019Y153271D01*
X474252Y153109D01*
X475485Y153271D01*
X476635Y153747D01*
X477622Y154505D01*
X478379Y155491D01*
X478855Y156641D01*
X478954Y157396D01*
D01*
X478970Y157518D01*
X479000Y157742D01*
X479504D01*
X479534Y157518D01*
X479550Y157396D01*
D01*
X479649Y156641D01*
X480125Y155491D01*
X480883Y154505D01*
X481869Y153747D01*
X483019Y153271D01*
X484252Y153109D01*
X485485Y153271D01*
X486635Y153747D01*
X487621Y154505D01*
X488379Y155491D01*
X488855Y156641D01*
X488954Y157396D01*
D01*
X488970Y157518D01*
X489000Y157742D01*
X489504D01*
X489534Y157518D01*
X489550Y157396D01*
D01*
X489649Y156641D01*
X490125Y155491D01*
X490882Y154505D01*
X491869Y153747D01*
X493019Y153271D01*
X494252Y153109D01*
X495485Y153271D01*
X496635Y153747D01*
X497621Y154505D01*
X498379Y155491D01*
X498855Y156641D01*
Y156641D01*
X498893Y156928D01*
X499397D01*
X499442Y156585D01*
X499939Y155384D01*
X500731Y154353D01*
X501762Y153562D01*
X502963Y153064D01*
X503752Y152960D01*
Y157874D01*
Y162788D01*
X502963Y162684D01*
X501762Y162187D01*
X500731Y161395D01*
X499939Y160364D01*
X499476Y159244D01*
X499442Y159163D01*
X499397Y158820D01*
X498893D01*
X498855Y159107D01*
Y159107D01*
D01*
X498379Y160257D01*
X497621Y161243D01*
X496635Y162001D01*
X495485Y162477D01*
X494252Y162639D01*
X493019Y162477D01*
X491869Y162001D01*
X490882Y161243D01*
X490125Y160257D01*
X489649Y159107D01*
X489550Y158353D01*
D01*
X489534Y158230D01*
X489504Y158006D01*
X489000D01*
X488970Y158230D01*
X488954Y158353D01*
D01*
X488855Y159107D01*
X488379Y160257D01*
X487621Y161243D01*
X487344Y161456D01*
X487334Y161471D01*
X487332Y161472D01*
X487331Y161475D01*
X486973Y161828D01*
X486681Y162223D01*
X486411Y162717D01*
X486166Y163314D01*
X485953Y164012D01*
X485774Y164812D01*
X485635Y165702D01*
X485559Y166667D01*
X485610Y166970D01*
X485675Y167249D01*
X485746Y167471D01*
X485816Y167635D01*
X485873Y167730D01*
X485955Y167785D01*
X486477Y168567D01*
X486660Y169488D01*
X486641Y169585D01*
X486669Y169693D01*
X486734Y169858D01*
X486842Y170065D01*
X486993Y170308D01*
X487178Y170569D01*
X488036Y171569D01*
X489081Y172615D01*
X530013D01*
X531754Y170874D01*
X531548Y170374D01*
X529856D01*
Y164862D01*
X536352D01*
Y166414D01*
X538386D01*
Y164862D01*
X544882D01*
Y170374D01*
X538386D01*
Y168822D01*
X536352D01*
Y170374D01*
X534308D01*
Y171227D01*
X534216Y171688D01*
X533955Y172079D01*
X533955Y172079D01*
X531363Y174670D01*
X530973Y174932D01*
X530512Y175023D01*
X530512Y175023D01*
X488583D01*
X488583Y175023D01*
X488122Y174932D01*
X487731Y174670D01*
X486318Y173258D01*
X485985Y172951D01*
X485339Y172419D01*
X485072Y172229D01*
X484829Y172078D01*
X484622Y171971D01*
X484456Y171905D01*
X484349Y171877D01*
X484252Y171897D01*
X483330Y171713D01*
X482549Y171191D01*
X482027Y170410D01*
X481844Y169488D01*
X482027Y168567D01*
X482549Y167785D01*
X482631Y167730D01*
X482688Y167635D01*
X482758Y167472D01*
X482829Y167249D01*
X482894Y166970D01*
X482947Y166654D01*
X482956Y166542D01*
X482871Y165711D01*
X482730Y164812D01*
X482551Y164012D01*
X482338Y163313D01*
X482093Y162717D01*
X481823Y162223D01*
X481531Y161828D01*
X481173Y161475D01*
X481172Y161472D01*
X481170Y161471D01*
X481160Y161456D01*
X480883Y161243D01*
X480125Y160257D01*
X479649Y159107D01*
X479550Y158353D01*
D01*
X479534Y158230D01*
X479504Y158006D01*
X479000D01*
X478970Y158230D01*
X478954Y158353D01*
D01*
X478855Y159107D01*
X478379Y160257D01*
X477622Y161243D01*
X476635Y162001D01*
X476326Y162129D01*
X476177Y162225D01*
X476089Y162321D01*
X475974Y162511D01*
X475852Y162803D01*
X475737Y163194D01*
X475636Y163680D01*
X475557Y164247D01*
X475461Y165674D01*
X475456Y165972D01*
Y166496D01*
X475456Y166496D01*
X475364Y166957D01*
X475104Y167348D01*
X469159Y173293D01*
X468768Y173554D01*
X468307Y173645D01*
X468307Y173645D01*
X451778D01*
X443724Y181700D01*
Y194978D01*
Y195123D01*
X443851Y195213D01*
X444224Y195313D01*
X446958Y192579D01*
X446997Y192534D01*
X447056Y192457D01*
X447063Y192448D01*
X447027Y192179D01*
Y188635D01*
X447115Y187967D01*
X447373Y187345D01*
X447783Y186810D01*
X448318Y186400D01*
X448940Y186142D01*
X449608Y186054D01*
X453939D01*
X454607Y186142D01*
X455230Y186400D01*
X455764Y186810D01*
X456174Y187345D01*
X456432Y187967D01*
X456520Y188635D01*
Y192179D01*
X456432Y192847D01*
X456174Y193469D01*
X455764Y194004D01*
X455230Y194414D01*
X454607Y194672D01*
X453939Y194760D01*
X449608D01*
X448940Y194672D01*
X448467Y194476D01*
X446185Y196759D01*
Y234449D01*
X446093Y234910D01*
X445832Y235300D01*
X445832Y235300D01*
X445472Y235660D01*
Y239469D01*
X438976D01*
Y237917D01*
X436516D01*
Y239469D01*
X430020D01*
Y233957D01*
X436516D01*
Y235508D01*
X438976D01*
Y233957D01*
X443769D01*
X443776Y233950D01*
Y222396D01*
X443649Y222307D01*
X443276Y222206D01*
X443186Y222297D01*
X434355Y231127D01*
X433965Y231388D01*
X433504Y231480D01*
X433504Y231480D01*
X422674D01*
X420792Y231549D01*
X419886Y231641D01*
X419054Y231771D01*
X418306Y231935D01*
X417642Y232131D01*
X417062Y232357D01*
X416567Y232610D01*
X416155Y232886D01*
X415869Y233138D01*
X415803Y233224D01*
X414939Y233887D01*
X413934Y234303D01*
X412854Y234445D01*
X411775Y234303D01*
X410770Y233887D01*
X410124Y233391D01*
X407712Y233267D01*
X407440Y233344D01*
X407196Y233448D01*
X407057Y233537D01*
X407008Y233589D01*
X407002Y233599D01*
X406988Y233693D01*
Y234409D01*
X406206D01*
X406189Y234413D01*
X406172Y234409D01*
X398721D01*
Y231958D01*
X398705Y231952D01*
X398585Y231920D01*
X398416Y231892D01*
X398298Y231881D01*
X387515D01*
X376627Y242769D01*
X376107Y243117D01*
X375492Y243239D01*
X375492Y243239D01*
X299114D01*
Y244882D01*
X292618D01*
Y243330D01*
X289665D01*
Y244882D01*
X283169D01*
Y243330D01*
X280315D01*
Y244685D01*
X269291D01*
Y243921D01*
X267618D01*
Y246358D01*
D02*
G37*
G36*
X280528Y226862D02*
X275303D01*
Y223606D01*
X280528D01*
Y226862D01*
D02*
G37*
G36*
X274303D02*
X269079D01*
Y223606D01*
X274303D01*
Y226862D01*
D02*
G37*
G36*
X42626Y226469D02*
Y222055D01*
X47040D01*
X46936Y222844D01*
X46439Y224045D01*
X45647Y225076D01*
X44616Y225868D01*
X43415Y226365D01*
X42626Y226469D01*
D02*
G37*
G36*
X17035Y226469D02*
Y222055D01*
X21449D01*
X21345Y222844D01*
X20848Y224045D01*
X20056Y225076D01*
X19025Y225868D01*
X17824Y226365D01*
X17035Y226469D01*
D02*
G37*
G36*
X16035Y226469D02*
X15247Y226365D01*
X14046Y225868D01*
X13014Y225076D01*
X12223Y224045D01*
X11726Y222844D01*
X11622Y222055D01*
X16035D01*
Y226469D01*
D02*
G37*
G36*
X41626D02*
X40837Y226365D01*
X39636Y225868D01*
X38605Y225076D01*
X37813Y224045D01*
X37316Y222844D01*
X37212Y222055D01*
X41626D01*
Y226469D01*
D02*
G37*
G36*
X16035Y221055D02*
X11622D01*
X11726Y220266D01*
X12223Y219065D01*
X13014Y218034D01*
X14046Y217243D01*
X15247Y216745D01*
X16035Y216641D01*
Y221055D01*
D02*
G37*
G36*
X47040D02*
X42626D01*
Y216641D01*
X43415Y216745D01*
X44616Y217243D01*
X45647Y218034D01*
X46439Y219065D01*
X46936Y220266D01*
X47040Y221055D01*
D02*
G37*
G36*
X41626D02*
X37212D01*
X37316Y220266D01*
X37813Y219065D01*
X38605Y218034D01*
X39636Y217243D01*
X40837Y216745D01*
X41626Y216641D01*
Y221055D01*
D02*
G37*
G36*
X21449D02*
X17035D01*
Y216641D01*
X17824Y216745D01*
X19025Y217243D01*
X20056Y218034D01*
X20848Y219065D01*
X21345Y220266D01*
X21449Y221055D01*
D02*
G37*
G36*
X261138Y220587D02*
X258669D01*
Y215362D01*
X261138D01*
Y220587D01*
D02*
G37*
G36*
X257669D02*
X255201D01*
Y215362D01*
X257669D01*
Y220587D01*
D02*
G37*
G36*
X518900Y214659D02*
X517234D01*
Y210592D01*
X521695D01*
Y211864D01*
X521600Y212587D01*
X521321Y213262D01*
X520877Y213841D01*
X520297Y214285D01*
X519623Y214564D01*
X518900Y214659D01*
D02*
G37*
G36*
X516234D02*
X514569D01*
X513845Y214564D01*
X513171Y214285D01*
X512592Y213841D01*
X512148Y213262D01*
X511869Y212587D01*
X511773Y211864D01*
Y210592D01*
X516234D01*
Y214659D01*
D02*
G37*
G36*
X261138Y214362D02*
X258669D01*
Y209138D01*
X261138D01*
Y214362D01*
D02*
G37*
G36*
X257669D02*
X255201D01*
Y209138D01*
X257669D01*
Y214362D01*
D02*
G37*
G36*
X521695Y209592D02*
X517234D01*
Y205525D01*
X518900D01*
X519623Y205620D01*
X520297Y205899D01*
X520877Y206344D01*
X521321Y206923D01*
X521600Y207597D01*
X521695Y208320D01*
Y209592D01*
D02*
G37*
G36*
X516234D02*
X511773D01*
Y208320D01*
X511869Y207597D01*
X512148Y206923D01*
X512592Y206344D01*
X513171Y205899D01*
X513845Y205620D01*
X514569Y205525D01*
X516234D01*
Y209592D01*
D02*
G37*
G36*
X42126Y208604D02*
X40893Y208441D01*
X39743Y207965D01*
X38756Y207208D01*
X38680Y207108D01*
X38402Y206870D01*
X37958Y206594D01*
X37401Y206336D01*
X36729Y206104D01*
X35945Y205902D01*
X35068Y205737D01*
X31702Y205448D01*
X31444Y205444D01*
X27217D01*
X26952Y205448D01*
X24607Y205603D01*
X23611Y205734D01*
X22716Y205902D01*
X21932Y206104D01*
X21260Y206336D01*
X20703Y206594D01*
X20260Y206870D01*
X19982Y207108D01*
X19905Y207208D01*
X18918Y207965D01*
X17769Y208441D01*
X16535Y208604D01*
X15302Y208441D01*
X14153Y207965D01*
X13166Y207208D01*
X12409Y206221D01*
X11933Y205072D01*
X11770Y203839D01*
X11933Y202605D01*
X12409Y201456D01*
X13166Y200469D01*
X14153Y199712D01*
X15302Y199236D01*
X16535Y199073D01*
X17769Y199236D01*
X18918Y199712D01*
X19905Y200469D01*
X19982Y200570D01*
X20259Y200807D01*
X20703Y201083D01*
X21260Y201341D01*
X21932Y201573D01*
X22716Y201775D01*
X23593Y201940D01*
X26960Y202229D01*
X27217Y202233D01*
X31444D01*
X31710Y202229D01*
X34054Y202075D01*
X35050Y201943D01*
X35945Y201775D01*
X36729Y201573D01*
X37401Y201341D01*
X37958Y201083D01*
X38402Y200807D01*
X38680Y200570D01*
X38756Y200469D01*
X39743Y199712D01*
X40893Y199236D01*
X42126Y199073D01*
X43359Y199236D01*
X44509Y199712D01*
X45496Y200469D01*
X45573Y200570D01*
X45850Y200807D01*
X46294Y201083D01*
X46851Y201341D01*
X47523Y201573D01*
X48307Y201775D01*
X49184Y201940D01*
X52550Y202229D01*
X52808Y202233D01*
X70989D01*
X80481Y192740D01*
Y109720D01*
X67307Y96547D01*
X66604Y95894D01*
X65872Y95289D01*
X65584Y95082D01*
X65342Y94929D01*
X65164Y94838D01*
X65073Y94806D01*
X65059Y94807D01*
X64340Y94713D01*
X63669Y94435D01*
X63094Y93993D01*
X62652Y93417D01*
X62374Y92747D01*
X62279Y92028D01*
X62374Y91308D01*
X62652Y90638D01*
X63094Y90062D01*
X63669Y89620D01*
X64340Y89343D01*
X65059Y89248D01*
X65778Y89343D01*
X66449Y89620D01*
X67025Y90062D01*
X67466Y90638D01*
X67744Y91308D01*
X67839Y92028D01*
X67837Y92041D01*
X67870Y92132D01*
X67961Y92310D01*
X68113Y92552D01*
X68313Y92830D01*
X69657Y94354D01*
X83222Y107920D01*
X83222Y107920D01*
X83570Y108441D01*
X83692Y109055D01*
X83692Y109055D01*
Y193405D01*
X83692Y193405D01*
X83570Y194020D01*
X83222Y194541D01*
X72789Y204974D01*
X72268Y205322D01*
X71654Y205444D01*
X71653Y205444D01*
X52808D01*
X52542Y205448D01*
X50198Y205603D01*
X49202Y205734D01*
X48307Y205902D01*
X47523Y206104D01*
X46851Y206336D01*
X46294Y206594D01*
X45850Y206870D01*
X45573Y207108D01*
X45496Y207208D01*
X44509Y207965D01*
X43359Y208441D01*
X42126Y208604D01*
D02*
G37*
G36*
X106597Y207185D02*
Y200795D01*
X112986D01*
X112902Y201649D01*
X112507Y202950D01*
X111866Y204150D01*
X111003Y205202D01*
X109951Y206064D01*
X108752Y206706D01*
X107450Y207101D01*
X106597Y207185D01*
D02*
G37*
G36*
X105596Y207185D02*
X104743Y207101D01*
X103441Y206706D01*
X102241Y206064D01*
X101190Y205202D01*
X100327Y204150D01*
X99686Y202950D01*
X99291Y201649D01*
X99207Y200795D01*
X105596D01*
Y207185D01*
D02*
G37*
G36*
X453939Y204817D02*
X452274D01*
Y200750D01*
X456735D01*
Y202021D01*
X456639Y202745D01*
X456360Y203419D01*
X455916Y203998D01*
X455337Y204442D01*
X454663Y204722D01*
X453939Y204817D01*
D02*
G37*
G36*
X451274D02*
X449608D01*
X448885Y204722D01*
X448211Y204442D01*
X447632Y203998D01*
X447187Y203419D01*
X446908Y202745D01*
X446813Y202021D01*
Y200750D01*
X451274D01*
Y204817D01*
D02*
G37*
G36*
X456735Y199750D02*
X452274D01*
Y195682D01*
X453939D01*
X454663Y195778D01*
X455337Y196057D01*
X455916Y196501D01*
X456360Y197080D01*
X456639Y197754D01*
X456735Y198478D01*
Y199750D01*
D02*
G37*
G36*
X451274D02*
X446813D01*
Y198478D01*
X446908Y197754D01*
X447187Y197080D01*
X447632Y196501D01*
X448211Y196057D01*
X448885Y195778D01*
X449608Y195682D01*
X451274D01*
Y199750D01*
D02*
G37*
G36*
X189376Y206988D02*
X182683D01*
X179337Y203641D01*
Y201499D01*
X175393D01*
X174933Y201408D01*
X174542Y201146D01*
X174542Y201146D01*
X170177Y196781D01*
X169843Y196475D01*
X169198Y195943D01*
X168930Y195753D01*
X168687Y195602D01*
X168480Y195494D01*
X168315Y195429D01*
X168207Y195401D01*
X168110Y195420D01*
X167189Y195237D01*
X166407Y194715D01*
X165885Y193933D01*
X165702Y193012D01*
X165885Y192090D01*
X166407Y191309D01*
X167189Y190787D01*
X168110Y190603D01*
X169032Y190787D01*
X169813Y191309D01*
X170335Y192090D01*
X170519Y193012D01*
X170499Y193109D01*
X170527Y193216D01*
X170593Y193381D01*
X170700Y193589D01*
X170851Y193832D01*
X171037Y194093D01*
X171894Y195093D01*
D01*
X175892Y199091D01*
X179337D01*
Y196949D01*
X182683Y193602D01*
X189376D01*
X192722Y196949D01*
Y203641D01*
X189376Y206988D01*
D02*
G37*
G36*
X112986Y199795D02*
X106597D01*
Y193405D01*
X107450Y193489D01*
X108752Y193884D01*
X109951Y194525D01*
X111003Y195388D01*
X111866Y196440D01*
X112507Y197640D01*
X112902Y198941D01*
X112986Y199795D01*
D02*
G37*
G36*
X105596D02*
X99207D01*
X99291Y198941D01*
X99686Y197640D01*
X100327Y196440D01*
X101190Y195388D01*
X102241Y194525D01*
X103441Y193884D01*
X104743Y193489D01*
X105596Y193405D01*
Y199795D01*
D02*
G37*
G36*
X248244Y197063D02*
X239575D01*
Y191839D01*
X248244D01*
Y197063D01*
D02*
G37*
G36*
X238575D02*
X229906D01*
Y191839D01*
X238575D01*
Y197063D01*
D02*
G37*
G36*
X518900Y194760D02*
X514569D01*
X513901Y194672D01*
X513278Y194414D01*
X512744Y194004D01*
X512334Y193469D01*
X512076Y192847D01*
X511988Y192179D01*
Y188635D01*
X512076Y187967D01*
X512334Y187345D01*
X512744Y186810D01*
X513278Y186400D01*
X513901Y186142D01*
X514569Y186054D01*
X518900D01*
X519568Y186142D01*
X520190Y186400D01*
X520725Y186810D01*
X521135Y187345D01*
X521393Y187967D01*
X521481Y188635D01*
Y189203D01*
X529856D01*
Y187894D01*
X536352D01*
Y193405D01*
X529856D01*
Y191611D01*
X521481D01*
Y192179D01*
X521393Y192847D01*
X521135Y193469D01*
X520725Y194004D01*
X520190Y194414D01*
X519568Y194672D01*
X518900Y194760D01*
D02*
G37*
G36*
X248244Y190839D02*
X239575D01*
Y185614D01*
X248244D01*
Y190839D01*
D02*
G37*
G36*
X238575D02*
X229906D01*
Y185614D01*
X238575D01*
Y190839D01*
D02*
G37*
G36*
X166638Y185420D02*
X165716Y185237D01*
X164935Y184714D01*
X164413Y183933D01*
X164229Y183011D01*
X164413Y182090D01*
X164935Y181308D01*
X165716Y180786D01*
X166638Y180603D01*
X167559Y180786D01*
X168341Y181308D01*
X168396Y181391D01*
X168491Y181447D01*
X168655Y181517D01*
X168877Y181588D01*
X169156Y181653D01*
X169472Y181707D01*
X170785Y181807D01*
X176169D01*
X176622Y181788D01*
X177454Y181708D01*
X177777Y181653D01*
X178055Y181588D01*
X178277Y181517D01*
X178440Y181447D01*
X178536Y181389D01*
X178594Y181302D01*
X179376Y180780D01*
X180297Y180597D01*
X181219Y180780D01*
X182000Y181302D01*
X182522Y182084D01*
X182706Y183005D01*
X182522Y183927D01*
X182000Y184708D01*
X181219Y185231D01*
X180297Y185414D01*
X179376Y185231D01*
X178594Y184708D01*
X178542Y184631D01*
X178448Y184575D01*
X178284Y184505D01*
X178061Y184434D01*
X177781Y184369D01*
X177465Y184316D01*
X176152Y184216D01*
X170765D01*
X170312Y184235D01*
X169479Y184315D01*
X169156Y184370D01*
X168877Y184435D01*
X168655Y184505D01*
X168491Y184576D01*
X168396Y184632D01*
X168341Y184714D01*
X167559Y185237D01*
X166638Y185420D01*
D02*
G37*
G36*
X536352Y185531D02*
X529856D01*
Y180020D01*
X536352D01*
Y185531D01*
D02*
G37*
G36*
X231693Y183071D02*
X225197D01*
Y180315D01*
Y177378D01*
X224984D01*
Y176287D01*
X228445D01*
X231906D01*
Y177378D01*
X231693D01*
Y183071D01*
D02*
G37*
G36*
X184802Y174201D02*
X183880Y174018D01*
X183099Y173496D01*
X183044Y173413D01*
X182949Y173357D01*
X182785Y173287D01*
X182563Y173216D01*
X182284Y173151D01*
X181968Y173097D01*
X180654Y172997D01*
X156066D01*
X155614Y173016D01*
X154781Y173096D01*
X154457Y173151D01*
X154179Y173216D01*
X153956Y173287D01*
X153793Y173357D01*
X153697Y173413D01*
X153642Y173496D01*
X152861Y174018D01*
X151939Y174201D01*
X151018Y174018D01*
X150236Y173496D01*
X149714Y172714D01*
X149531Y171792D01*
X149714Y170871D01*
X150236Y170089D01*
X151018Y169567D01*
X151939Y169384D01*
X152861Y169567D01*
X153642Y170089D01*
X153697Y170172D01*
X153793Y170228D01*
X153956Y170299D01*
X154179Y170369D01*
X154457Y170434D01*
X154773Y170488D01*
X156087Y170588D01*
X180675D01*
X181128Y170569D01*
X181960Y170489D01*
X182284Y170434D01*
X182563Y170369D01*
X182785Y170299D01*
X182949Y170228D01*
X183044Y170172D01*
X183099Y170089D01*
X183880Y169567D01*
X184802Y169384D01*
X185724Y169567D01*
X186505Y170089D01*
X187027Y170871D01*
X187210Y171792D01*
X187027Y172714D01*
X186505Y173496D01*
X185724Y174018D01*
X184802Y174201D01*
D02*
G37*
G36*
X527821Y170374D02*
X521325D01*
Y168822D01*
X519291D01*
Y170374D01*
X512795D01*
Y169312D01*
X512697Y168822D01*
X512236Y168731D01*
X511845Y168470D01*
X510467Y167092D01*
X510206Y166701D01*
X510115Y166240D01*
X510115Y166240D01*
Y151877D01*
X507769Y149531D01*
X467625D01*
X465456Y151700D01*
Y153150D01*
X468976D01*
Y157227D01*
Y158521D01*
Y162598D01*
X459528D01*
Y153150D01*
X463048D01*
Y151201D01*
X463048Y151201D01*
X463139Y150740D01*
X463400Y150349D01*
X466274Y147475D01*
X466274Y147475D01*
X466665Y147214D01*
X467126Y147123D01*
X508268D01*
X508268Y147123D01*
X508729Y147214D01*
X509119Y147475D01*
X512170Y150526D01*
X512431Y150917D01*
X512523Y151378D01*
X512523Y151378D01*
Y156210D01*
Y156300D01*
X512583Y156775D01*
D01*
D01*
X512604D01*
X513023Y156775D01*
X515543D01*
Y159744D01*
X516043D01*
D01*
X515543D01*
Y162713D01*
X512583Y162713D01*
D01*
D01*
X512523Y163188D01*
Y163278D01*
Y164384D01*
Y164475D01*
X512795Y164862D01*
X519291D01*
Y166414D01*
X521325D01*
Y164862D01*
X527821D01*
Y170374D01*
D02*
G37*
G36*
X179762Y168514D02*
X178840Y168331D01*
X178059Y167808D01*
X177976Y167685D01*
X177951Y167662D01*
X177860Y167605D01*
X177707Y167536D01*
X177493Y167465D01*
X177220Y167399D01*
X176909Y167344D01*
X175597Y167241D01*
X160787D01*
X160335Y167260D01*
X159502Y167340D01*
X159178Y167395D01*
X158900Y167460D01*
X158677Y167531D01*
X158514Y167601D01*
X158419Y167657D01*
X158364Y167740D01*
X157582Y168262D01*
X156660Y168445D01*
X155739Y168262D01*
X154957Y167740D01*
X154435Y166958D01*
X154252Y166037D01*
X154435Y165115D01*
X154957Y164334D01*
X155739Y163812D01*
X156660Y163628D01*
X157582Y163812D01*
X158364Y164334D01*
X158419Y164416D01*
X158514Y164472D01*
X158677Y164542D01*
X158900Y164613D01*
X159178Y164678D01*
X159494Y164732D01*
X160808Y164832D01*
X175403D01*
X176122Y164814D01*
X176955Y164739D01*
X177282Y164687D01*
X177564Y164625D01*
X177790Y164557D01*
X177955Y164490D01*
X178027Y164450D01*
X178059Y164402D01*
X178840Y163880D01*
X179762Y163697D01*
X180684Y163880D01*
X181465Y164402D01*
X181987Y165184D01*
X182171Y166105D01*
X181987Y167027D01*
X181465Y167808D01*
X180684Y168331D01*
X179762Y168514D01*
D02*
G37*
G36*
X536352Y162500D02*
X529856D01*
Y160986D01*
X529286Y160948D01*
X527821D01*
Y162500D01*
X521325D01*
Y156988D01*
X527821D01*
Y158540D01*
X529076D01*
X529856Y158490D01*
Y156988D01*
X536352D01*
Y162500D01*
D02*
G37*
G36*
X545094Y162713D02*
X542134D01*
Y160244D01*
X545094D01*
Y162713D01*
D02*
G37*
G36*
X516543D02*
Y160244D01*
X519504D01*
Y162713D01*
X516543D01*
D02*
G37*
G36*
X541134D02*
X538173D01*
Y160244D01*
X541134D01*
Y162713D01*
D02*
G37*
G36*
X504752Y162788D02*
Y158374D01*
X509166D01*
X509062Y159163D01*
X508564Y160364D01*
X507773Y161395D01*
X506742Y162187D01*
X505541Y162684D01*
X504752Y162788D01*
D02*
G37*
G36*
X545094Y159244D02*
X542134D01*
Y156775D01*
X545094D01*
Y159244D01*
D02*
G37*
G36*
X541134D02*
X538173D01*
Y156775D01*
X541134D01*
Y159244D01*
D02*
G37*
G36*
X519504D02*
X516543D01*
Y156775D01*
X519504D01*
Y159244D01*
D02*
G37*
G36*
X509166Y157374D02*
X504752D01*
Y152960D01*
X505541Y153064D01*
X506742Y153562D01*
X507773Y154353D01*
X508564Y155384D01*
X509062Y156585D01*
X509166Y157374D01*
D02*
G37*
G36*
X166562Y129582D02*
X165640Y129399D01*
X164859Y128877D01*
X164567Y128440D01*
X163965D01*
X163911Y128521D01*
X163673Y128877D01*
X162892Y129399D01*
X161970Y129582D01*
X161049Y129399D01*
X160267Y128877D01*
X159745Y128096D01*
X159637Y127552D01*
X159562Y127174D01*
X159745Y126252D01*
X160267Y125471D01*
X160318Y125437D01*
D01*
X160329Y125417D01*
X160360Y125361D01*
X160428Y125196D01*
X160496Y124971D01*
X160558Y124689D01*
X160610Y124369D01*
X160705Y123052D01*
Y53373D01*
X160000Y53232D01*
X159348Y52797D01*
X158913Y52146D01*
X158761Y51378D01*
Y41929D01*
X158913Y41161D01*
X159348Y40510D01*
X160000Y40075D01*
X160768Y39922D01*
X163130D01*
X163898Y40075D01*
X164549Y40510D01*
X164839Y40944D01*
X164930Y41079D01*
X165298Y41045D01*
X165430Y40996D01*
Y39180D01*
X161097Y34848D01*
X160836Y34457D01*
X160745Y33996D01*
X160745Y33996D01*
Y31569D01*
X160000Y31421D01*
X159348Y30986D01*
X158913Y30335D01*
X158761Y29567D01*
Y20118D01*
X158913Y19350D01*
X159348Y18699D01*
X160000Y18264D01*
X160768Y18111D01*
X163130D01*
X163898Y18264D01*
X164549Y18699D01*
X164984Y19350D01*
X165137Y20118D01*
Y29567D01*
X164984Y30335D01*
X164549Y30986D01*
X163898Y31421D01*
X163153Y31569D01*
Y33497D01*
X167485Y37830D01*
X167485Y37830D01*
X167746Y38220D01*
X167838Y38681D01*
X167838Y38681D01*
Y122817D01*
X167856Y123535D01*
X167931Y124368D01*
X167983Y124696D01*
X168045Y124978D01*
X168112Y125203D01*
X168179Y125368D01*
X168219Y125440D01*
X168265Y125471D01*
X168787Y126252D01*
X168971Y127174D01*
X168787Y128096D01*
X168265Y128877D01*
X167484Y129399D01*
X166562Y129582D01*
D02*
G37*
G36*
X156655D02*
X155734Y129399D01*
X154952Y128877D01*
X154567Y128300D01*
X154000D01*
X153934Y128398D01*
X153614Y128877D01*
X152833Y129399D01*
X151911Y129582D01*
X150990Y129399D01*
X150208Y128877D01*
X149686Y128096D01*
X149503Y127174D01*
X149686Y126252D01*
X150208Y125471D01*
X150315Y125399D01*
X150323Y125390D01*
X150382Y125294D01*
X150452Y125136D01*
X150523Y124918D01*
X150589Y124643D01*
X150643Y124329D01*
X150745Y123016D01*
Y53380D01*
X150000Y53232D01*
X149348Y52797D01*
X148913Y52146D01*
X148761Y51378D01*
Y41929D01*
X148913Y41161D01*
X149348Y40510D01*
X150000Y40075D01*
X150768Y39922D01*
X153130D01*
X153898Y40075D01*
X154549Y40510D01*
X154898Y41032D01*
X154984Y41161D01*
X154989Y41184D01*
X155489Y41134D01*
Y39475D01*
X151097Y35084D01*
X150836Y34693D01*
X150745Y34232D01*
X150745Y34232D01*
Y31569D01*
X150000Y31421D01*
X149348Y30986D01*
X148913Y30335D01*
X148761Y29567D01*
Y20118D01*
X148913Y19350D01*
X149348Y18699D01*
X150000Y18264D01*
X150768Y18111D01*
X153130D01*
X153898Y18264D01*
X154549Y18699D01*
X154984Y19350D01*
X155137Y20118D01*
Y29567D01*
X154984Y30335D01*
X154549Y30986D01*
X153898Y31421D01*
X153153Y31569D01*
Y33733D01*
X157544Y38125D01*
X157544Y38125D01*
X157806Y38515D01*
X157897Y38976D01*
X157897Y38976D01*
Y123062D01*
X157916Y123512D01*
X157994Y124347D01*
X158048Y124673D01*
X158112Y124955D01*
X158181Y125180D01*
X158251Y125347D01*
X158299Y125431D01*
X158358Y125471D01*
X158880Y126252D01*
X158883Y126267D01*
X159064Y127174D01*
X158880Y128096D01*
X158358Y128877D01*
X157577Y129399D01*
X156655Y129582D01*
D02*
G37*
G36*
X231906Y112295D02*
X228445D01*
X224984D01*
Y111205D01*
X225197D01*
Y107480D01*
Y103543D01*
X231693D01*
Y107480D01*
Y111205D01*
X231906D01*
Y112295D01*
D02*
G37*
G36*
X40453Y180361D02*
X39531Y180178D01*
X38750Y179656D01*
X38228Y178874D01*
X38044Y177953D01*
X38228Y177031D01*
X38750Y176250D01*
X38832Y176195D01*
X38888Y176099D01*
X38959Y175936D01*
X39029Y175714D01*
X39094Y175435D01*
X39148Y175119D01*
X39248Y173805D01*
Y127552D01*
X39230Y127099D01*
X39149Y126267D01*
X39094Y125943D01*
X39029Y125664D01*
X38959Y125442D01*
X38888Y125279D01*
X38832Y125183D01*
X38750Y125128D01*
X38228Y124347D01*
X38044Y123425D01*
X38228Y122503D01*
X38750Y121722D01*
X39531Y121200D01*
X40453Y121017D01*
X41374Y121200D01*
X42156Y121722D01*
X42211Y121804D01*
X42306Y121861D01*
X42469Y121931D01*
X42692Y122002D01*
X42971Y122067D01*
X43287Y122120D01*
X44600Y122221D01*
X59836D01*
X66119Y115938D01*
Y108591D01*
X66117Y108472D01*
X66041Y107323D01*
X65979Y106849D01*
X65899Y106425D01*
X65805Y106062D01*
X65701Y105761D01*
X65591Y105523D01*
X65482Y105348D01*
X65386Y105236D01*
X65357Y105214D01*
X64916Y104638D01*
X64638Y103967D01*
X64543Y103248D01*
X64638Y102529D01*
X64916Y101858D01*
X65357Y101283D01*
X65933Y100841D01*
X66603Y100563D01*
X67323Y100468D01*
X68042Y100563D01*
X68713Y100841D01*
X69288Y101283D01*
X69730Y101858D01*
X70008Y102529D01*
X70103Y103248D01*
X70008Y103967D01*
X69730Y104638D01*
X69288Y105214D01*
X69259Y105236D01*
X69163Y105348D01*
X69054Y105523D01*
X68945Y105761D01*
X68840Y106062D01*
X68747Y106426D01*
X68670Y106831D01*
X68529Y108480D01*
X68527Y108591D01*
Y116437D01*
X68527Y116437D01*
X68435Y116898D01*
X68174Y117288D01*
X68174Y117289D01*
X61186Y124277D01*
X60795Y124538D01*
X60335Y124629D01*
X60335Y124629D01*
X44580D01*
X44127Y124648D01*
X43294Y124729D01*
X42971Y124784D01*
X42692Y124849D01*
X42469Y124919D01*
X42306Y124990D01*
X42211Y125046D01*
X42156Y125128D01*
X42074Y125183D01*
X42017Y125279D01*
X41947Y125442D01*
X41876Y125664D01*
X41811Y125943D01*
X41758Y126259D01*
X41657Y127573D01*
Y173826D01*
X41676Y174279D01*
X41756Y175111D01*
X41811Y175435D01*
X41876Y175714D01*
X41947Y175936D01*
X42017Y176099D01*
X42074Y176195D01*
X42156Y176250D01*
X42678Y177031D01*
X42861Y177953D01*
X42678Y178874D01*
X42156Y179656D01*
X41374Y180178D01*
X40453Y180361D01*
D02*
G37*
G36*
X316240Y189582D02*
X304429D01*
X304122Y189521D01*
X303861Y189347D01*
X303687Y189087D01*
X303626Y188779D01*
Y98228D01*
X303687Y97921D01*
X303861Y97661D01*
X304122Y97487D01*
X304429Y97426D01*
X316240D01*
X316547Y97487D01*
X316808Y97661D01*
X316982Y97921D01*
X317043Y98228D01*
Y188779D01*
X316982Y189087D01*
X316808Y189347D01*
X316547Y189521D01*
X316240Y189582D01*
D02*
G37*
G36*
X313257Y96677D02*
X313257Y96677D01*
X287106D01*
X287106Y96677D01*
X286646Y96585D01*
X286255Y96324D01*
X274108Y84177D01*
X234836D01*
X234383Y84196D01*
X233550Y84276D01*
X233226Y84331D01*
X232948Y84396D01*
X232726Y84466D01*
X232562Y84537D01*
X232467Y84593D01*
X232412Y84676D01*
X231630Y85198D01*
X230709Y85381D01*
X229787Y85198D01*
X229006Y84676D01*
X228484Y83894D01*
X228300Y82972D01*
X228484Y82051D01*
X229006Y81269D01*
X229787Y80747D01*
X230709Y80564D01*
X231630Y80747D01*
X232412Y81269D01*
X232467Y81352D01*
X232562Y81408D01*
X232725Y81478D01*
X232948Y81549D01*
X233226Y81614D01*
X233542Y81668D01*
X234856Y81768D01*
X274606D01*
X274606Y81768D01*
X275067Y81860D01*
X275458Y82121D01*
X287605Y94268D01*
X312758D01*
X315378Y91647D01*
D01*
Y82764D01*
X315163Y82620D01*
X314728Y81969D01*
X314576Y81201D01*
Y76279D01*
X314728Y75511D01*
X315163Y74860D01*
X315815Y74425D01*
X316583Y74273D01*
X317351Y74425D01*
X318002Y74860D01*
X318437Y75511D01*
X318590Y76279D01*
Y81201D01*
X318437Y81969D01*
X318002Y82620D01*
X317787Y82764D01*
Y92146D01*
X317787Y92146D01*
X317695Y92607D01*
X317434Y92998D01*
X317434Y92998D01*
X314108Y96324D01*
X313717Y96585D01*
X313257Y96677D01*
D02*
G37*
G36*
X412854Y104445D02*
X411775Y104303D01*
X410770Y103886D01*
X409906Y103224D01*
X409243Y102360D01*
X408827Y101355D01*
X408685Y100276D01*
X408827Y99196D01*
X409243Y98191D01*
X409906Y97327D01*
X410770Y96665D01*
X411775Y96248D01*
X412854Y96106D01*
X413934Y96248D01*
X414939Y96665D01*
X415803Y97327D01*
X416465Y98191D01*
X416882Y99196D01*
X417024Y100276D01*
X416882Y101355D01*
X416465Y102360D01*
X415803Y103224D01*
X414939Y103886D01*
X413934Y104303D01*
X412854Y104445D01*
D02*
G37*
G36*
X402854D02*
X401775Y104303D01*
X400770Y103886D01*
X399906Y103224D01*
X399243Y102360D01*
X398827Y101355D01*
X398685Y100276D01*
X398827Y99196D01*
X399243Y98191D01*
X399906Y97327D01*
X400770Y96665D01*
X401775Y96248D01*
X402854Y96106D01*
X403933Y96248D01*
X404939Y96665D01*
X405803Y97327D01*
X406465Y98191D01*
X406882Y99196D01*
X407024Y100276D01*
X406882Y101355D01*
X406465Y102360D01*
X405803Y103224D01*
X404939Y103886D01*
X403933Y104303D01*
X402854Y104445D01*
D02*
G37*
G36*
X248244Y101000D02*
X239575D01*
Y95776D01*
X248244D01*
Y101000D01*
D02*
G37*
G36*
X238575D02*
X229906D01*
Y95776D01*
X238575D01*
Y101000D01*
D02*
G37*
G36*
X248244Y94776D02*
X239575D01*
Y89551D01*
X248244D01*
Y94776D01*
D02*
G37*
G36*
X238575D02*
X229906D01*
Y89551D01*
X238575D01*
Y94776D01*
D02*
G37*
G36*
X412854Y94445D02*
X411775Y94303D01*
X410770Y93887D01*
X409906Y93224D01*
X409243Y92360D01*
X408827Y91355D01*
X408685Y90276D01*
X408827Y89196D01*
X409243Y88191D01*
X409906Y87327D01*
X410770Y86665D01*
X411775Y86248D01*
X412854Y86106D01*
X413934Y86248D01*
X414939Y86665D01*
X415803Y87327D01*
X416465Y88191D01*
X416882Y89196D01*
X417024Y90276D01*
X416882Y91355D01*
X416465Y92360D01*
X415803Y93224D01*
X414939Y93887D01*
X413934Y94303D01*
X412854Y94445D01*
D02*
G37*
G36*
X402854D02*
X401775Y94303D01*
X400770Y93887D01*
X399906Y93224D01*
X399243Y92360D01*
X398827Y91355D01*
X398685Y90276D01*
X398827Y89196D01*
X399243Y88191D01*
X399906Y87327D01*
X400770Y86665D01*
X401775Y86248D01*
X402854Y86106D01*
X403933Y86248D01*
X404939Y86665D01*
X405803Y87327D01*
X406465Y88191D01*
X406882Y89196D01*
X407024Y90276D01*
X406882Y91355D01*
X406465Y92360D01*
X405803Y93224D01*
X404939Y93887D01*
X403933Y94303D01*
X402854Y94445D01*
D02*
G37*
G36*
X412854Y84445D02*
X411775Y84303D01*
X410770Y83886D01*
X409906Y83224D01*
X409243Y82360D01*
X408827Y81355D01*
X408685Y80276D01*
X408827Y79196D01*
X409243Y78191D01*
X409906Y77327D01*
X410770Y76665D01*
X411775Y76248D01*
X412854Y76106D01*
X413934Y76248D01*
X414939Y76665D01*
X415803Y77327D01*
X416465Y78191D01*
X416882Y79196D01*
X417024Y80276D01*
X416882Y81355D01*
X416465Y82360D01*
X415803Y83224D01*
X414939Y83886D01*
X413934Y84303D01*
X412854Y84445D01*
D02*
G37*
G36*
X402854D02*
X401775Y84303D01*
X400770Y83886D01*
X399906Y83224D01*
X399243Y82360D01*
X398827Y81355D01*
X398685Y80276D01*
X398827Y79196D01*
X399243Y78191D01*
X399906Y77327D01*
X400770Y76665D01*
X401775Y76248D01*
X402854Y76106D01*
X403933Y76248D01*
X404939Y76665D01*
X405803Y77327D01*
X406465Y78191D01*
X406882Y79196D01*
X407024Y80276D01*
X406882Y81355D01*
X406465Y82360D01*
X405803Y83224D01*
X404939Y83886D01*
X403933Y84303D01*
X402854Y84445D01*
D02*
G37*
G36*
X209555Y80012D02*
Y75598D01*
X213969D01*
X213865Y76387D01*
X213368Y77588D01*
X212576Y78620D01*
X211545Y79411D01*
X210344Y79908D01*
X209555Y80012D01*
D02*
G37*
G36*
X336583Y83208D02*
X335815Y83055D01*
X335163Y82620D01*
X334728Y81969D01*
X334576Y81201D01*
Y76279D01*
X334728Y75511D01*
X335163Y74860D01*
X335815Y74425D01*
X336583Y74273D01*
X337351Y74425D01*
X338002Y74860D01*
X338437Y75511D01*
X338590Y76279D01*
Y81201D01*
X338437Y81969D01*
X338002Y82620D01*
X337351Y83055D01*
X336583Y83208D01*
D02*
G37*
G36*
X331583D02*
X330815Y83055D01*
X330164Y82620D01*
X329728Y81969D01*
X329576Y81201D01*
Y76279D01*
X329728Y75511D01*
X330164Y74860D01*
X330815Y74425D01*
X331583Y74273D01*
X332351Y74425D01*
X333002Y74860D01*
X333437Y75511D01*
X333590Y76279D01*
Y81201D01*
X333437Y81969D01*
X333002Y82620D01*
X332351Y83055D01*
X331583Y83208D01*
D02*
G37*
G36*
X326580Y88777D02*
X325658Y88594D01*
X324877Y88072D01*
X324355Y87290D01*
X324171Y86368D01*
X324355Y85447D01*
X324877Y84665D01*
X324961Y84609D01*
X325018Y84513D01*
X325088Y84350D01*
X325159Y84128D01*
X325224Y83849D01*
X325278Y83534D01*
X325339Y82737D01*
X325164Y82620D01*
X324728Y81969D01*
X324576Y81201D01*
Y76279D01*
X324728Y75511D01*
X325164Y74860D01*
X325815Y74425D01*
X326583Y74273D01*
X327351Y74425D01*
X328002Y74860D01*
X328437Y75511D01*
X328590Y76279D01*
Y81201D01*
X328437Y81969D01*
X328002Y82620D01*
X327811Y82748D01*
X327817Y82813D01*
X327886Y83528D01*
X327941Y83851D01*
X328006Y84131D01*
X328077Y84353D01*
X328147Y84517D01*
X328203Y84612D01*
X328283Y84665D01*
X328805Y85447D01*
X328988Y86368D01*
X328805Y87290D01*
X328283Y88072D01*
X327501Y88594D01*
X326580Y88777D01*
D02*
G37*
G36*
X301663Y92691D02*
X300742Y92508D01*
X299960Y91986D01*
X299438Y91204D01*
X299255Y90283D01*
X299438Y89361D01*
X299960Y88579D01*
X300003Y88551D01*
X300041Y88483D01*
X300107Y88318D01*
X300173Y88093D01*
X300235Y87811D01*
X300285Y87490D01*
X300378Y86172D01*
Y82764D01*
X300164Y82620D01*
X299728Y81969D01*
X299576Y81201D01*
Y76279D01*
X299728Y75511D01*
X300164Y74860D01*
X300815Y74425D01*
X301583Y74273D01*
X302351Y74425D01*
X303002Y74860D01*
X303437Y75511D01*
X303590Y76279D01*
Y81201D01*
X303437Y81969D01*
X303002Y82620D01*
X302787Y82764D01*
Y86123D01*
X302842Y87037D01*
X302888Y87410D01*
X302945Y87737D01*
X303011Y88008D01*
X303082Y88221D01*
X303151Y88372D01*
X303208Y88462D01*
X303236Y88493D01*
X303366Y88579D01*
X303889Y89361D01*
X304072Y90283D01*
X303889Y91204D01*
X303366Y91986D01*
X302585Y92508D01*
X301663Y92691D01*
D02*
G37*
G36*
X213969Y74598D02*
X209555D01*
Y70185D01*
X210344Y70288D01*
X211545Y70786D01*
X212576Y71577D01*
X213368Y72609D01*
X213865Y73810D01*
X213969Y74598D01*
D02*
G37*
G36*
X306583Y83208D02*
X305815Y83055D01*
X305164Y82620D01*
X304728Y81969D01*
X304576Y81201D01*
Y76279D01*
X304728Y75511D01*
X305164Y74860D01*
X305216Y74825D01*
X305207Y74768D01*
X305141Y74491D01*
X305070Y74270D01*
X305000Y74110D01*
X304941Y74011D01*
X304846Y73947D01*
X304324Y73166D01*
X304141Y72244D01*
X304324Y71322D01*
X304846Y70541D01*
X305627Y70019D01*
X306549Y69836D01*
X307471Y70019D01*
X308252Y70541D01*
X308774Y71322D01*
X308958Y72244D01*
X308774Y73166D01*
X308252Y73947D01*
X308183Y73994D01*
X308129Y74085D01*
X308059Y74251D01*
X307988Y74476D01*
X307923Y74756D01*
X307915Y74803D01*
X308002Y74860D01*
X308437Y75511D01*
X308590Y76279D01*
Y81201D01*
X308437Y81969D01*
X308002Y82620D01*
X307351Y83055D01*
X306583Y83208D01*
D02*
G37*
G36*
X412854Y74445D02*
X411775Y74303D01*
X410770Y73887D01*
X409906Y73224D01*
X409243Y72360D01*
X408827Y71355D01*
X408685Y70276D01*
X408827Y69196D01*
X409243Y68191D01*
X409906Y67327D01*
X410770Y66665D01*
X411775Y66248D01*
X412854Y66106D01*
X413934Y66248D01*
X414939Y66665D01*
X415803Y67327D01*
X416465Y68191D01*
X416882Y69196D01*
X417024Y70276D01*
X416882Y71355D01*
X416465Y72360D01*
X415803Y73224D01*
X414939Y73887D01*
X413934Y74303D01*
X412854Y74445D01*
D02*
G37*
G36*
X402854D02*
X401775Y74303D01*
X400770Y73887D01*
X399906Y73224D01*
X399243Y72360D01*
X398827Y71355D01*
X398685Y70276D01*
X398827Y69196D01*
X399243Y68191D01*
X399906Y67327D01*
X400770Y66665D01*
X401775Y66248D01*
X402854Y66106D01*
X403933Y66248D01*
X404939Y66665D01*
X405803Y67327D01*
X406465Y68191D01*
X406882Y69196D01*
X407024Y70276D01*
X406882Y71355D01*
X406465Y72360D01*
X405803Y73224D01*
X404939Y73887D01*
X403933Y74303D01*
X402854Y74445D01*
D02*
G37*
G36*
X413354Y64594D02*
Y60776D01*
X417172D01*
X417089Y61410D01*
X416651Y62468D01*
X415954Y63376D01*
X415046Y64072D01*
X413989Y64510D01*
X413354Y64594D01*
D02*
G37*
G36*
X412354D02*
X411720Y64510D01*
X410662Y64072D01*
X409754Y63376D01*
X409058Y62468D01*
X408620Y61410D01*
X408536Y60776D01*
X412354D01*
Y64594D01*
D02*
G37*
G36*
X403354D02*
Y60776D01*
X407172D01*
X407089Y61410D01*
X406651Y62468D01*
X405954Y63376D01*
X405046Y64072D01*
X403989Y64510D01*
X403354Y64594D01*
D02*
G37*
G36*
X402354D02*
X401720Y64510D01*
X400662Y64072D01*
X399754Y63376D01*
X399058Y62468D01*
X398620Y61410D01*
X398536Y60776D01*
X402354D01*
Y64594D01*
D02*
G37*
G36*
X312083Y60491D02*
Y56406D01*
X313807D01*
Y58366D01*
X313637Y59217D01*
X313155Y59939D01*
X312434Y60421D01*
X312083Y60491D01*
D02*
G37*
G36*
X337083D02*
Y56406D01*
X338807D01*
Y58366D01*
X338637Y59217D01*
X338155Y59939D01*
X337434Y60421D01*
X337083Y60491D01*
D02*
G37*
G36*
X336083Y60491D02*
X335732Y60421D01*
X335010Y59939D01*
X334528Y59217D01*
X334359Y58366D01*
Y56406D01*
X336083D01*
Y60491D01*
D02*
G37*
G36*
X311083D02*
X310732Y60421D01*
X310010Y59939D01*
X309528Y59217D01*
X309359Y58366D01*
Y56406D01*
X311083D01*
Y60491D01*
D02*
G37*
G36*
X417172Y59776D02*
X413354D01*
Y55958D01*
X413989Y56041D01*
X415046Y56479D01*
X415954Y57176D01*
X416651Y58084D01*
X417089Y59141D01*
X417172Y59776D01*
D02*
G37*
G36*
X412354D02*
X408536D01*
X408620Y59141D01*
X409058Y58084D01*
X409754Y57176D01*
X410662Y56479D01*
X411720Y56041D01*
X412354Y55958D01*
Y59776D01*
D02*
G37*
G36*
X407172D02*
X403354D01*
Y55958D01*
X403989Y56041D01*
X405046Y56479D01*
X405954Y57176D01*
X406651Y58084D01*
X407089Y59141D01*
X407172Y59776D01*
D02*
G37*
G36*
X402354D02*
X398536D01*
X398620Y59141D01*
X399058Y58084D01*
X399754Y57176D01*
X400662Y56479D01*
X401720Y56041D01*
X402354Y55958D01*
Y59776D01*
D02*
G37*
G36*
X78150Y75713D02*
X77430Y75618D01*
X76760Y75340D01*
X76184Y74899D01*
X75742Y74323D01*
X75465Y73652D01*
X75370Y72933D01*
X75465Y72214D01*
X75742Y71543D01*
X76184Y70968D01*
X76760Y70526D01*
X77430Y70248D01*
X78150Y70153D01*
X78163Y70155D01*
X78254Y70123D01*
X78432Y70031D01*
X78674Y69879D01*
X78952Y69679D01*
X80476Y68335D01*
X85402Y63410D01*
Y52803D01*
X84902Y52651D01*
X84812Y52787D01*
D01*
X84702Y52950D01*
X83981Y53433D01*
X83130Y53602D01*
X82449D01*
Y46654D01*
Y39705D01*
X83130D01*
X83981Y39875D01*
X84702Y40357D01*
X84730Y40399D01*
X84902Y40656D01*
X85402Y40504D01*
Y38067D01*
X80813Y33478D01*
X80465Y32957D01*
X80343Y32342D01*
X80343Y32342D01*
Y31490D01*
X80000Y31421D01*
X79348Y30986D01*
X78913Y30335D01*
X78761Y29567D01*
Y20118D01*
X78913Y19350D01*
X79348Y18699D01*
X80000Y18264D01*
X80768Y18111D01*
X83130D01*
X83898Y18264D01*
X84549Y18699D01*
X84984Y19350D01*
X85137Y20118D01*
Y29567D01*
X84984Y30335D01*
X84549Y30986D01*
X84039Y31327D01*
X83962Y31378D01*
X83870Y31617D01*
X83823Y31946D01*
X83900Y32023D01*
D01*
X88143Y36266D01*
X88143Y36266D01*
X88491Y36787D01*
X88613Y37402D01*
X88613Y37402D01*
Y40164D01*
Y40327D01*
X89113Y40479D01*
X89195Y40357D01*
X89917Y39875D01*
X90768Y39705D01*
X91449D01*
Y46654D01*
Y53602D01*
X90768D01*
X89917Y53433D01*
X89195Y52950D01*
D01*
X89195D01*
X89113Y52828D01*
X88613Y52980D01*
Y53143D01*
Y64075D01*
X88613Y64075D01*
X88491Y64689D01*
X88143Y65210D01*
X88143Y65210D01*
X82669Y70685D01*
D01*
X82016Y71388D01*
X81411Y72120D01*
X81204Y72408D01*
X81051Y72650D01*
X80960Y72828D01*
X80927Y72920D01*
X80929Y72933D01*
X80835Y73652D01*
X80557Y74323D01*
X80115Y74899D01*
X79539Y75340D01*
X78869Y75618D01*
X78150Y75713D01*
D02*
G37*
G36*
X331457Y65764D02*
X330535Y65581D01*
X329754Y65059D01*
X329232Y64277D01*
X329048Y63356D01*
X329232Y62434D01*
X329754Y61652D01*
X329908Y61549D01*
X329959Y61497D01*
X330013Y61415D01*
X330081Y61271D01*
X330152Y61063D01*
X330218Y60796D01*
X330273Y60489D01*
X330321Y59891D01*
X330164Y59785D01*
X329728Y59134D01*
X329576Y58366D01*
Y53445D01*
X329728Y52677D01*
X330164Y52026D01*
X330815Y51591D01*
X331583Y51438D01*
X332351Y51591D01*
X333002Y52026D01*
X333437Y52677D01*
X333590Y53445D01*
Y58366D01*
X333437Y59134D01*
X333002Y59785D01*
X332817Y59909D01*
X332874Y60584D01*
X332923Y60914D01*
X332982Y61198D01*
X333045Y61423D01*
X333108Y61586D01*
X333134Y61635D01*
X333160Y61652D01*
X333682Y62434D01*
X333865Y63356D01*
X333682Y64277D01*
X333160Y65059D01*
X332379Y65581D01*
X331457Y65764D01*
D02*
G37*
G36*
X176833Y135881D02*
X175911Y135698D01*
X175130Y135176D01*
X174608Y134394D01*
X174425Y133472D01*
X174608Y132551D01*
X175130Y131769D01*
X175212Y131714D01*
X175269Y131619D01*
X175339Y131456D01*
X175410Y131233D01*
X175475Y130955D01*
X175528Y130639D01*
X175629Y129325D01*
Y51398D01*
X175137Y51378D01*
X174984Y52146D01*
X174549Y52797D01*
X173898Y53232D01*
X173153Y53380D01*
Y123014D01*
X173208Y123928D01*
X173254Y124301D01*
X173311Y124628D01*
X173378Y124899D01*
X173449Y125112D01*
X173518Y125263D01*
X173574Y125352D01*
X173603Y125383D01*
X173734Y125471D01*
X174256Y126252D01*
X174439Y127174D01*
X174256Y128096D01*
X173734Y128877D01*
X172952Y129399D01*
X172031Y129582D01*
X171109Y129399D01*
X170328Y128877D01*
X169806Y128096D01*
X169622Y127174D01*
X169806Y126252D01*
X170328Y125471D01*
X170370Y125443D01*
X170407Y125375D01*
X170473Y125210D01*
X170540Y124985D01*
X170601Y124703D01*
X170651Y124382D01*
X170745Y123064D01*
Y53380D01*
X170000Y53232D01*
X169349Y52797D01*
X168913Y52146D01*
X168761Y51378D01*
Y41929D01*
X168913Y41161D01*
X169349Y40510D01*
X170000Y40075D01*
X170768Y39922D01*
X173130D01*
X173898Y40075D01*
X174549Y40510D01*
X174984Y41161D01*
X175038Y41433D01*
X175137Y41929D01*
X175629Y41909D01*
Y39241D01*
X171097Y34710D01*
X170836Y34319D01*
X170745Y33858D01*
X170745Y33858D01*
Y31569D01*
X170000Y31421D01*
X169349Y30986D01*
X168913Y30335D01*
X168761Y29567D01*
Y20118D01*
X168913Y19350D01*
X169349Y18699D01*
X170000Y18264D01*
X170768Y18111D01*
X173130D01*
X173898Y18264D01*
X174549Y18699D01*
X174984Y19350D01*
X175137Y20118D01*
Y29567D01*
X174984Y30335D01*
X174549Y30986D01*
X173898Y31421D01*
X173153Y31569D01*
Y33359D01*
X177684Y37891D01*
X177685Y37891D01*
X177946Y38282D01*
X178037Y38743D01*
X178037Y38743D01*
Y129345D01*
X178056Y129798D01*
X178137Y130631D01*
X178191Y130955D01*
X178256Y131233D01*
X178327Y131456D01*
X178397Y131619D01*
X178454Y131714D01*
X178536Y131769D01*
X179058Y132551D01*
X179242Y133472D01*
X179058Y134394D01*
X178536Y135176D01*
X177755Y135698D01*
X176833Y135881D01*
D02*
G37*
G36*
X336083Y55406D02*
X334359D01*
Y53445D01*
X334528Y52594D01*
X335010Y51872D01*
X335732Y51390D01*
X336083Y51320D01*
Y55406D01*
D02*
G37*
G36*
X311083D02*
X309359D01*
Y53445D01*
X309528Y52594D01*
X310010Y51872D01*
X310732Y51390D01*
X311083Y51320D01*
Y55406D01*
D02*
G37*
G36*
X338807D02*
X337083D01*
Y51320D01*
X337434Y51390D01*
X338155Y51872D01*
X338637Y52594D01*
X338807Y53445D01*
Y55406D01*
D02*
G37*
G36*
X313807D02*
X312083D01*
Y51320D01*
X312434Y51390D01*
X313155Y51872D01*
X313637Y52594D01*
X313807Y53445D01*
Y55406D01*
D02*
G37*
G36*
X103130Y53602D02*
X102449D01*
Y47153D01*
X105354D01*
Y51378D01*
X105184Y52229D01*
X104702Y52950D01*
X103981Y53433D01*
X103130Y53602D01*
D02*
G37*
G36*
X101449D02*
X100768D01*
X99917Y53433D01*
X99195Y52950D01*
X98713Y52229D01*
X98544Y51378D01*
Y47153D01*
X101449D01*
Y53602D01*
D02*
G37*
G36*
X93130D02*
X92449D01*
Y47153D01*
X95354D01*
Y51378D01*
X95184Y52229D01*
X94702Y52950D01*
X93981Y53433D01*
X93130Y53602D01*
D02*
G37*
G36*
X81449D02*
X80768D01*
X79917Y53433D01*
X79195Y52950D01*
X78713Y52229D01*
X78544Y51378D01*
Y47153D01*
X81449D01*
Y53602D01*
D02*
G37*
G36*
X105354Y46154D02*
X102449D01*
Y39705D01*
X103130D01*
X103981Y39875D01*
X104702Y40357D01*
X105184Y41078D01*
X105354Y41929D01*
Y46154D01*
D02*
G37*
G36*
X101449D02*
X98544D01*
Y41929D01*
X98713Y41078D01*
X99195Y40357D01*
X99917Y39875D01*
X100768Y39705D01*
X101449D01*
Y46154D01*
D02*
G37*
G36*
X95354D02*
X92449D01*
Y39705D01*
X93130D01*
X93981Y39875D01*
X94702Y40357D01*
X95184Y41078D01*
X95354Y41929D01*
Y46154D01*
D02*
G37*
G36*
X81449D02*
X78544D01*
Y41929D01*
X78713Y41078D01*
X79195Y40357D01*
X79917Y39875D01*
X80768Y39705D01*
X81449D01*
Y46154D01*
D02*
G37*
G36*
X408343Y52896D02*
X406953Y52760D01*
X405618Y52354D01*
X404386Y51696D01*
X403307Y50811D01*
X402422Y49732D01*
X401764Y48501D01*
X401358Y47165D01*
X401222Y45776D01*
X401358Y44386D01*
X401764Y43051D01*
X402422Y41819D01*
X403307Y40740D01*
X404386Y39855D01*
X405618Y39197D01*
X406953Y38791D01*
X408343Y38655D01*
X409732Y38791D01*
X411068Y39197D01*
X412299Y39855D01*
X413378Y40740D01*
X414263Y41819D01*
X414921Y43051D01*
X415327Y44386D01*
X415463Y45776D01*
X415327Y47165D01*
X414921Y48501D01*
X414263Y49732D01*
X413378Y50811D01*
X412299Y51696D01*
X411068Y52354D01*
X409732Y52760D01*
X408343Y52896D01*
D02*
G37*
G36*
X93130Y31791D02*
X92449D01*
Y25343D01*
X95354D01*
Y29567D01*
X95184Y30418D01*
X94702Y31139D01*
X93981Y31622D01*
X93130Y31791D01*
D02*
G37*
G36*
X91449D02*
X90768D01*
X89917Y31622D01*
X89195Y31139D01*
X88713Y30418D01*
X88544Y29567D01*
Y25343D01*
X91449D01*
Y31791D01*
D02*
G37*
G36*
X233145Y31574D02*
X230783D01*
X230015Y31421D01*
X229364Y30986D01*
X228929Y30335D01*
X228776Y29567D01*
Y20118D01*
X228929Y19350D01*
X229364Y18699D01*
X230015Y18264D01*
X230783Y18111D01*
X233145D01*
X233913Y18264D01*
X234564Y18699D01*
X235000Y19350D01*
X235152Y20118D01*
Y29567D01*
X235000Y30335D01*
X234564Y30986D01*
X233913Y31421D01*
X233145Y31574D01*
D02*
G37*
G36*
X91929Y37349D02*
X91007Y37166D01*
X90226Y36644D01*
X89704Y35863D01*
X89521Y34941D01*
X89704Y34019D01*
X90226Y33238D01*
X91007Y32716D01*
X91929Y32533D01*
X92851Y32716D01*
X93564Y33192D01*
X93607Y33202D01*
X95688Y33335D01*
X109571D01*
X110343Y32563D01*
Y31490D01*
X110000Y31421D01*
X109348Y30986D01*
X108913Y30335D01*
X108761Y29567D01*
Y20118D01*
X108913Y19350D01*
X109348Y18699D01*
X110000Y18264D01*
X110768Y18111D01*
X113130D01*
X113898Y18264D01*
X114549Y18699D01*
X114984Y19350D01*
X115137Y20118D01*
Y29567D01*
X114984Y30335D01*
X114549Y30986D01*
X113898Y31421D01*
X113555Y31490D01*
Y33228D01*
X113432Y33843D01*
X113084Y34364D01*
X113084Y34364D01*
X111372Y36076D01*
X110851Y36424D01*
X110236Y36547D01*
X110236Y36547D01*
X95495D01*
X94472Y36580D01*
X93845Y36639D01*
X93644Y36671D01*
X93564Y36690D01*
X92851Y37166D01*
X91929Y37349D01*
D02*
G37*
G36*
X103130Y31574D02*
X100768D01*
X100000Y31421D01*
X99348Y30986D01*
X98913Y30335D01*
X98761Y29567D01*
Y20118D01*
X98913Y19350D01*
X99348Y18699D01*
X100000Y18264D01*
X100768Y18111D01*
X103130D01*
X103898Y18264D01*
X104549Y18699D01*
X104984Y19350D01*
X105137Y20118D01*
Y29567D01*
X104984Y30335D01*
X104549Y30986D01*
X103898Y31421D01*
X103130Y31574D01*
D02*
G37*
G36*
X95354Y24342D02*
X92449D01*
Y17894D01*
X93130D01*
X93981Y18064D01*
X94702Y18546D01*
X95184Y19267D01*
X95354Y20118D01*
Y24342D01*
D02*
G37*
G36*
X91449D02*
X88544D01*
Y20118D01*
X88713Y19267D01*
X89195Y18546D01*
X89917Y18064D01*
X90768Y17894D01*
X91449D01*
Y24342D01*
D02*
G37*
G36*
X243145Y53385D02*
X240783D01*
X240015Y53232D01*
X239364Y52797D01*
X238929Y52146D01*
X238776Y51378D01*
Y41929D01*
X238929Y41161D01*
X239364Y40510D01*
X240015Y40075D01*
X240760Y39927D01*
Y39018D01*
X236156Y34414D01*
X235895Y34024D01*
X235804Y33563D01*
X235804Y33563D01*
Y15256D01*
X235804Y15256D01*
X235895Y14795D01*
X236156Y14404D01*
X236394Y14167D01*
X236771Y13772D01*
X237225Y13236D01*
X237382Y13025D01*
X237500Y12843D01*
X237574Y12706D01*
X237606Y12626D01*
X237606Y12623D01*
X237606Y12582D01*
X237607Y12577D01*
X237552Y12303D01*
X237736Y11382D01*
X238258Y10600D01*
X239039Y10078D01*
X239961Y9895D01*
X240882Y10078D01*
X241664Y10600D01*
X242186Y11382D01*
X242369Y12303D01*
X242186Y13225D01*
X241664Y14006D01*
X240882Y14528D01*
X239961Y14712D01*
X239687Y14657D01*
X239682Y14658D01*
X239640Y14658D01*
X239637Y14658D01*
X239558Y14690D01*
X239420Y14764D01*
X239239Y14882D01*
X239033Y15034D01*
X238212Y15755D01*
D01*
Y19926D01*
Y29759D01*
Y33064D01*
X242816Y37668D01*
X242816Y37668D01*
X243077Y38059D01*
X243168Y38519D01*
Y39927D01*
X243913Y40075D01*
X244565Y40510D01*
X245000Y41161D01*
X245152Y41929D01*
Y51378D01*
X245000Y52146D01*
X244565Y52797D01*
X243913Y53232D01*
X243145Y53385D01*
D02*
G37*
G36*
X218996Y11168D02*
X218074Y10985D01*
X217293Y10463D01*
X216771Y9681D01*
X216588Y8760D01*
X216771Y7838D01*
X217293Y7057D01*
X218074Y6535D01*
X218996Y6351D01*
X219918Y6535D01*
X220699Y7057D01*
X221221Y7838D01*
X221405Y8760D01*
X221221Y9681D01*
X220699Y10463D01*
X219918Y10985D01*
X218996Y11168D01*
D02*
G37*
%LPD*%
G36*
X448293Y245503D02*
X448494Y245393D01*
X448739Y245297D01*
X449029Y245213D01*
X449362Y245142D01*
X449740Y245084D01*
X450628Y245006D01*
X451693Y244980D01*
X451744Y244193D01*
X451192Y244186D01*
X449805Y244075D01*
X449432Y244009D01*
X449104Y243929D01*
X448821Y243833D01*
X448582Y243723D01*
X448388Y243598D01*
X448239Y243458D01*
X447047Y244591D01*
X445856Y243458D01*
X445707Y243598D01*
X445512Y243723D01*
X445274Y243833D01*
X444990Y243929D01*
X444662Y244009D01*
X444289Y244075D01*
X442902Y244186D01*
X442351Y244193D01*
X442402Y244980D01*
X443466Y245006D01*
X444354Y245084D01*
X444732Y245142D01*
X445066Y245213D01*
X445355Y245297D01*
X445600Y245393D01*
X445801Y245503D01*
X445958Y245626D01*
X447047Y244591D01*
X448136Y245626D01*
X448293Y245503D01*
D02*
G37*
G36*
X452171Y214274D02*
X452183Y214138D01*
X452203Y214018D01*
X452231Y213914D01*
X452266Y213826D01*
X452309Y213755D01*
X452360Y213699D01*
X452419Y213659D01*
X452486Y213635D01*
X452561Y213627D01*
X450986D01*
X451061Y213635D01*
X451128Y213659D01*
X451187Y213699D01*
X451238Y213755D01*
X451282Y213826D01*
X451317Y213914D01*
X451345Y214018D01*
X451364Y214138D01*
X451376Y214274D01*
X451380Y214426D01*
X452168D01*
X452171Y214274D01*
D02*
G37*
G36*
X399532Y228701D02*
X399516Y228850D01*
X399468Y228984D01*
X399389Y229102D01*
X399278Y229205D01*
X399135Y229291D01*
X398961Y229362D01*
X398754Y229417D01*
X398516Y229457D01*
X398247Y229480D01*
X397945Y229488D01*
Y231063D01*
X398247Y231071D01*
X398516Y231095D01*
X398754Y231134D01*
X398961Y231189D01*
X399135Y231260D01*
X399278Y231347D01*
X399389Y231449D01*
X399468Y231567D01*
X399516Y231701D01*
X399532Y231850D01*
Y228701D01*
D02*
G37*
G36*
X406228Y233350D02*
X406346Y233118D01*
X406543Y232913D01*
X406819Y232736D01*
X407173Y232586D01*
X407606Y232463D01*
X407626Y232459D01*
X410451Y232604D01*
Y227947D01*
X410318Y228015D01*
X410059Y228077D01*
X409675Y228131D01*
X408528Y228217D01*
X408503Y228218D01*
X408118Y228184D01*
X407606Y228088D01*
X407173Y227966D01*
X406819Y227815D01*
X406543Y227638D01*
X406346Y227433D01*
X406228Y227201D01*
X406189Y226941D01*
Y228270D01*
X404721Y228304D01*
X403455Y228307D01*
Y232244D01*
X406189Y232385D01*
Y233610D01*
X406228Y233350D01*
D02*
G37*
G36*
X415664Y232248D02*
X416160Y231916D01*
X416733Y231624D01*
X417381Y231371D01*
X418106Y231156D01*
X418906Y230981D01*
X419783Y230845D01*
X420736Y230747D01*
X422870Y230669D01*
Y229882D01*
X421765Y229862D01*
X419783Y229707D01*
X418906Y229570D01*
X418106Y229395D01*
X417381Y229180D01*
X416733Y228927D01*
X416160Y228635D01*
X415664Y228303D01*
X415244Y227933D01*
Y232618D01*
X415664Y232248D01*
D02*
G37*
G36*
X408152Y225017D02*
X407669Y224520D01*
X406570Y223226D01*
X406321Y222861D01*
X406131Y222528D01*
X406000Y222227D01*
X405928Y221960D01*
X405914Y221725D01*
X405960Y221523D01*
X404102Y223381D01*
X404304Y223336D01*
X404539Y223349D01*
X404806Y223422D01*
X405106Y223553D01*
X405439Y223743D01*
X405805Y223991D01*
X406204Y224299D01*
X407099Y225090D01*
X407596Y225574D01*
X408152Y225017D01*
D02*
G37*
G36*
X441268Y220809D02*
X441220Y220371D01*
X440764Y220191D01*
X434808Y226147D01*
X434417Y226408D01*
X433957Y226500D01*
X433957Y226500D01*
X415545D01*
X415376Y226999D01*
X415803Y227327D01*
X415869Y227413D01*
X416155Y227665D01*
X416567Y227941D01*
X417062Y228194D01*
X417642Y228420D01*
X418306Y228617D01*
X419054Y228781D01*
X419877Y228908D01*
X421804Y229060D01*
X422441Y229071D01*
X433005D01*
X441268Y220809D01*
D02*
G37*
G36*
X416071Y220985D02*
X416097Y220919D01*
X416142Y220861D01*
X416204Y220810D01*
X416284Y220767D01*
X416382Y220732D01*
X416497Y220704D01*
X416631Y220685D01*
X416782Y220673D01*
X416951Y220669D01*
Y219882D01*
X416782Y219878D01*
X416631Y219866D01*
X416497Y219847D01*
X416382Y219819D01*
X416284Y219784D01*
X416204Y219741D01*
X416142Y219691D01*
X416097Y219632D01*
X416071Y219566D01*
X416062Y219492D01*
Y221059D01*
X416071Y220985D01*
D02*
G37*
G36*
X341525Y215225D02*
X341439Y215082D01*
X295303D01*
X295048Y215582D01*
X295151Y215725D01*
X341241D01*
X341525Y215225D01*
D02*
G37*
G36*
X352348Y216934D02*
X353238Y216153D01*
X353405Y216035D01*
X353550Y215949D01*
X353673Y215893D01*
X353773Y215869D01*
X353852Y215875D01*
X352846Y214870D01*
X352853Y214948D01*
X352829Y215049D01*
X352773Y215172D01*
X352686Y215317D01*
X352569Y215484D01*
X352420Y215673D01*
X352029Y216118D01*
X351514Y216651D01*
X352071Y217208D01*
X352348Y216934D01*
D02*
G37*
G36*
X358895Y217982D02*
X359953Y217075D01*
X360264Y216854D01*
X360555Y216673D01*
X360825Y216533D01*
X361075Y216434D01*
X361304Y216375D01*
X361513Y216357D01*
X359954Y214798D01*
X359936Y215006D01*
X359877Y215236D01*
X359777Y215486D01*
X359637Y215756D01*
X359457Y216047D01*
X359236Y216358D01*
X358672Y217042D01*
X358329Y217415D01*
X357945Y217809D01*
X358502Y218366D01*
X358895Y217982D01*
D02*
G37*
G36*
X439052Y218497D02*
Y214486D01*
X438590Y214294D01*
X438118Y214766D01*
X438235Y215354D01*
X438052Y216276D01*
X437530Y217057D01*
X436749Y217580D01*
X435827Y217763D01*
X434905Y217580D01*
X434124Y217057D01*
X433602Y216276D01*
X433418Y215354D01*
X433498Y214955D01*
X433101Y214391D01*
X432998Y214375D01*
X426245Y221127D01*
X425854Y221388D01*
X425394Y221480D01*
X425394Y221480D01*
X416781D01*
X416540Y222062D01*
X415972Y222803D01*
X415232Y223371D01*
X414700Y223591D01*
X414799Y224091D01*
X433458D01*
X439052Y218497D01*
D02*
G37*
G36*
X367568Y215887D02*
X368625Y214980D01*
X368937Y214759D01*
X369228Y214578D01*
X369498Y214438D01*
X369748Y214339D01*
X369977Y214280D01*
X370186Y214262D01*
X368627Y212703D01*
X368608Y212911D01*
X368549Y213141D01*
X368450Y213390D01*
X368310Y213661D01*
X368129Y213952D01*
X367908Y214263D01*
X367344Y214947D01*
X367001Y215320D01*
X366618Y215714D01*
X367175Y216271D01*
X367568Y215887D01*
D02*
G37*
G36*
X381085Y206308D02*
X381392Y205974D01*
X381924Y205329D01*
X382114Y205061D01*
X382265Y204818D01*
X382372Y204611D01*
X382438Y204445D01*
X382465Y204338D01*
X382446Y204241D01*
X382629Y203319D01*
X383151Y202538D01*
X383933Y202016D01*
X384855Y201833D01*
X385776Y202016D01*
X386558Y202538D01*
X387080Y203319D01*
X387263Y204241D01*
X387080Y205163D01*
X386558Y205944D01*
X386008Y206311D01*
X386114Y206842D01*
X386755Y206969D01*
X387537Y207491D01*
X388059Y208273D01*
X388059Y208278D01*
X388560Y208228D01*
Y197343D01*
X388560Y197343D01*
X388651Y196882D01*
X388912Y196491D01*
X395979Y189424D01*
X395979Y189424D01*
X395979Y189424D01*
X396370Y189163D01*
X396831Y189071D01*
X397163D01*
X397749Y189058D01*
X398456Y188997D01*
X398705Y188958D01*
X398894Y188914D01*
X398952Y188894D01*
X399243Y188191D01*
X399906Y187327D01*
X400770Y186665D01*
X401775Y186248D01*
X402854Y186106D01*
X403933Y186248D01*
X404939Y186665D01*
X405803Y187327D01*
X406465Y188191D01*
X406882Y189196D01*
X407024Y190276D01*
X406882Y191355D01*
X406465Y192360D01*
X405803Y193224D01*
X405551Y193417D01*
X405468Y193481D01*
D01*
X405350Y193571D01*
X405519Y194071D01*
X407355D01*
X407411Y194015D01*
X407468Y193957D01*
X408223Y193103D01*
X408497Y192748D01*
X408713Y192431D01*
X408865Y192166D01*
X408954Y191962D01*
X408988Y191835D01*
X408990Y191799D01*
X408970Y191710D01*
X408970Y191700D01*
X408827Y191355D01*
X408685Y190276D01*
X408827Y189196D01*
X409243Y188191D01*
X409906Y187327D01*
X410770Y186665D01*
X411775Y186248D01*
X412854Y186106D01*
X413934Y186248D01*
X414939Y186665D01*
X415803Y187327D01*
X416465Y188191D01*
X416882Y189196D01*
X417024Y190276D01*
X416882Y191355D01*
X416465Y192360D01*
X415803Y193224D01*
X414939Y193886D01*
X413934Y194303D01*
X412854Y194445D01*
X411775Y194303D01*
X411430Y194160D01*
X411420Y194160D01*
X411331Y194140D01*
X411295Y194142D01*
X411168Y194176D01*
X410964Y194265D01*
X410699Y194417D01*
X410397Y194622D01*
X409167Y195668D01*
X409115Y195719D01*
X408706Y196127D01*
X408315Y196388D01*
X407854Y196480D01*
X407854Y196480D01*
X404847D01*
X404747Y196980D01*
X404966Y197070D01*
D01*
X405232Y197180D01*
X405972Y197748D01*
X406540Y198489D01*
X406897Y199351D01*
X407019Y200276D01*
X406897Y201201D01*
X406650Y201797D01*
D01*
X408824Y203971D01*
X409085Y204362D01*
X409177Y204823D01*
X409177Y204823D01*
Y207560D01*
Y207700D01*
X409650Y207861D01*
X409737Y207749D01*
X409767Y207725D01*
X410477Y207181D01*
X411339Y206823D01*
X412264Y206702D01*
X413445D01*
X414370Y206823D01*
X415232Y207181D01*
X415972Y207749D01*
X416540Y208489D01*
X416781Y209071D01*
X425052D01*
X432752Y201371D01*
Y193915D01*
X432291Y193724D01*
X432207Y193807D01*
X424887Y201127D01*
X424496Y201388D01*
X424035Y201480D01*
X424035Y201480D01*
X422674D01*
X420792Y201549D01*
X419886Y201641D01*
X419054Y201771D01*
X418306Y201935D01*
X417642Y202131D01*
X417062Y202357D01*
X416567Y202610D01*
X416155Y202886D01*
X415869Y203138D01*
X415803Y203224D01*
X414939Y203887D01*
X413934Y204303D01*
X412854Y204445D01*
X411775Y204303D01*
X410770Y203887D01*
X409906Y203224D01*
X409243Y202360D01*
X408827Y201355D01*
X408685Y200276D01*
X408827Y199196D01*
X409243Y198191D01*
X409906Y197327D01*
X410770Y196665D01*
X411775Y196248D01*
X412854Y196106D01*
X413934Y196248D01*
X414939Y196665D01*
X415803Y197327D01*
X415869Y197413D01*
X416155Y197666D01*
X416567Y197941D01*
X417062Y198194D01*
X417642Y198420D01*
X418306Y198617D01*
X419054Y198781D01*
X419877Y198908D01*
X421804Y199060D01*
X422441Y199071D01*
X423537D01*
X431178Y191430D01*
Y174722D01*
X430716Y174531D01*
X430632Y174614D01*
D01*
X424119Y181127D01*
X423729Y181388D01*
X423268Y181480D01*
X423268Y181480D01*
X416781D01*
X416540Y182062D01*
X415972Y182803D01*
X415232Y183371D01*
X414370Y183728D01*
X413445Y183850D01*
X412264D01*
X411339Y183728D01*
X410477Y183371D01*
X409737Y182803D01*
X409169Y182062D01*
X408812Y181201D01*
X408690Y180276D01*
X408812Y179351D01*
X409169Y178489D01*
X409707Y177787D01*
X409653Y177503D01*
X409580Y177287D01*
X408137D01*
X406656Y178768D01*
X406897Y179351D01*
X407019Y180276D01*
X406897Y181201D01*
X406540Y182062D01*
X405972Y182803D01*
X405232Y183371D01*
X404370Y183728D01*
X403445Y183850D01*
X402264D01*
X401339Y183728D01*
X400996Y183586D01*
X400965Y183612D01*
X399834Y184742D01*
X395577Y189000D01*
D01*
X379493Y205084D01*
X379103Y205345D01*
X378642Y205436D01*
X378642Y205436D01*
X349416D01*
X343855Y210998D01*
X344056Y211503D01*
X344790Y211649D01*
X345571Y212172D01*
X346094Y212953D01*
X346277Y213875D01*
X346094Y214796D01*
X345807Y215225D01*
X346074Y215725D01*
X351292D01*
X351438Y215574D01*
X351802Y215160D01*
X351924Y215004D01*
X352013Y214879D01*
X352028Y214853D01*
X351934Y214379D01*
X352117Y213457D01*
X352640Y212676D01*
X353421Y212154D01*
X354343Y211970D01*
X355264Y212154D01*
X356046Y212676D01*
X356568Y213457D01*
X356751Y214379D01*
X356568Y215301D01*
X356046Y216082D01*
X355264Y216604D01*
X354343Y216787D01*
X354187Y216756D01*
X354151Y216800D01*
X354382Y217300D01*
X357308D01*
X357759Y216848D01*
X358066Y216515D01*
X358598Y215869D01*
X358788Y215602D01*
X358939Y215359D01*
X359046Y215152D01*
X359112Y214986D01*
X359140Y214879D01*
X359120Y214782D01*
X359304Y213860D01*
X359826Y213079D01*
X360607Y212557D01*
X361529Y212373D01*
X362451Y212557D01*
X363232Y213079D01*
X363754Y213860D01*
X363937Y214782D01*
X363754Y215704D01*
X363232Y216485D01*
X362451Y217007D01*
X361529Y217190D01*
X361432Y217171D01*
X361325Y217199D01*
X361159Y217265D01*
X360952Y217372D01*
X360709Y217523D01*
X360448Y217708D01*
X359671Y218374D01*
X359856Y218875D01*
X362311D01*
X366432Y214754D01*
X366739Y214420D01*
X367270Y213774D01*
X367460Y213507D01*
X367612Y213264D01*
X367719Y213056D01*
X367785Y212891D01*
X367812Y212784D01*
X367793Y212687D01*
X367976Y211765D01*
X368498Y210984D01*
X369280Y210462D01*
X370201Y210278D01*
X371123Y210462D01*
X371904Y210984D01*
X372427Y211765D01*
X372610Y212687D01*
X372427Y213609D01*
X371904Y214390D01*
X371123Y214912D01*
X370201Y215095D01*
X370104Y215076D01*
X369997Y215104D01*
X369832Y215170D01*
X369625Y215277D01*
X369381Y215428D01*
X369120Y215613D01*
X368120Y216471D01*
X364604Y219987D01*
X364795Y220449D01*
X366943D01*
X381085Y206308D01*
D02*
G37*
G36*
X416071Y210985D02*
X416097Y210919D01*
X416142Y210860D01*
X416204Y210810D01*
X416284Y210767D01*
X416382Y210732D01*
X416497Y210704D01*
X416631Y210685D01*
X416782Y210673D01*
X416951Y210669D01*
Y209882D01*
X416782Y209878D01*
X416631Y209866D01*
X416497Y209847D01*
X416382Y209820D01*
X416284Y209784D01*
X416204Y209741D01*
X416142Y209691D01*
X416097Y209632D01*
X416071Y209566D01*
X416062Y209492D01*
Y211059D01*
X416071Y210985D01*
D02*
G37*
G36*
X383200Y212395D02*
X384257Y211488D01*
X384569Y211266D01*
X384860Y211086D01*
X385130Y210946D01*
X385380Y210846D01*
X385609Y210788D01*
X385818Y210769D01*
X384259Y209210D01*
X384240Y209419D01*
X384182Y209648D01*
X384082Y209898D01*
X383942Y210168D01*
X383762Y210459D01*
X383540Y210771D01*
X382976Y211455D01*
X382633Y211828D01*
X382250Y212221D01*
X382806Y212778D01*
X383200Y212395D01*
D02*
G37*
G36*
X382064Y211261D02*
X382370Y210928D01*
X382903Y210282D01*
X383092Y210015D01*
X383244Y209771D01*
X383351Y209564D01*
X383417Y209399D01*
X383444Y209292D01*
X383425Y209194D01*
X383608Y208273D01*
X384086Y207558D01*
X383708Y207223D01*
X382773Y208025D01*
X369236Y221562D01*
X369428Y222024D01*
X371301D01*
X382064Y211261D01*
D02*
G37*
G36*
X435902Y208064D02*
Y206907D01*
X435440Y206716D01*
X426048Y216107D01*
X425658Y216369D01*
X425197Y216460D01*
X425197Y216460D01*
X414799D01*
X414700Y216960D01*
X415232Y217180D01*
X415972Y217748D01*
X416540Y218489D01*
X416781Y219071D01*
X424895D01*
X435902Y208064D01*
D02*
G37*
G36*
X382221Y207441D02*
X383278Y206534D01*
X383590Y206313D01*
X383881Y206133D01*
X384151Y205993D01*
X384401Y205893D01*
X384630Y205834D01*
X384839Y205816D01*
X383280Y204257D01*
X383261Y204466D01*
X383203Y204695D01*
X383103Y204945D01*
X382963Y205215D01*
X382783Y205506D01*
X382561Y205817D01*
X381997Y206502D01*
X381654Y206874D01*
X381271Y207268D01*
X381828Y207825D01*
X382221Y207441D01*
D02*
G37*
G36*
X434327Y204422D02*
Y203856D01*
X433865Y203664D01*
X426403Y211127D01*
X426012Y211388D01*
X425551Y211480D01*
X425551Y211480D01*
X416781D01*
X416540Y212063D01*
X415972Y212803D01*
X415232Y213371D01*
X414795Y213552D01*
X414894Y214052D01*
X424698D01*
X434327Y204422D01*
D02*
G37*
G36*
X406193Y202487D02*
X406077Y202365D01*
X405978Y202250D01*
X405898Y202142D01*
X405836Y202041D01*
X405792Y201947D01*
X405766Y201861D01*
X405758Y201781D01*
X405768Y201709D01*
X405796Y201643D01*
X405843Y201585D01*
X404728Y202687D01*
X404787Y202641D01*
X404853Y202614D01*
X404926Y202604D01*
X405006Y202612D01*
X405094Y202639D01*
X405188Y202683D01*
X405289Y202746D01*
X405397Y202826D01*
X405512Y202925D01*
X405635Y203042D01*
X406193Y202487D01*
D02*
G37*
G36*
X373423Y202558D02*
X374452Y201668D01*
X374751Y201453D01*
X375027Y201279D01*
X375282Y201146D01*
X375514Y201053D01*
X375724Y201002D01*
X375912Y200991D01*
X374424Y199503D01*
X374413Y199691D01*
X374361Y199901D01*
X374269Y200133D01*
X374135Y200387D01*
X373961Y200664D01*
X373746Y200962D01*
X373194Y201626D01*
X372479Y202379D01*
X373035Y202936D01*
X373423Y202558D01*
D02*
G37*
G36*
X415664Y202248D02*
X416160Y201917D01*
X416733Y201624D01*
X417381Y201371D01*
X418106Y201156D01*
X418906Y200981D01*
X419783Y200845D01*
X420736Y200747D01*
X422870Y200669D01*
Y199882D01*
X421765Y199862D01*
X419783Y199706D01*
X418906Y199570D01*
X418106Y199395D01*
X417381Y199180D01*
X416733Y198927D01*
X416160Y198635D01*
X415664Y198303D01*
X415244Y197933D01*
Y202618D01*
X415664Y202248D01*
D02*
G37*
G36*
X399151Y182020D02*
X398812Y181201D01*
X398690Y180276D01*
X398812Y179351D01*
X399169Y178489D01*
X399737Y177749D01*
X400477Y177181D01*
X401339Y176823D01*
X402264Y176702D01*
X403445D01*
X404370Y176823D01*
X404952Y177065D01*
X406040Y175977D01*
X405849Y175515D01*
X397251D01*
X393076Y179690D01*
X393076Y179690D01*
X386895Y185871D01*
X386588Y186205D01*
X386056Y186851D01*
X385867Y187118D01*
X385717Y187360D01*
X385611Y187567D01*
X385546Y187731D01*
X385518Y187841D01*
X385540Y187949D01*
X385356Y188871D01*
X384834Y189652D01*
X384053Y190174D01*
X383131Y190358D01*
X382209Y190174D01*
X381428Y189652D01*
X380906Y188871D01*
X380723Y187949D01*
X380906Y187028D01*
X381428Y186246D01*
X382209Y185724D01*
X383131Y185541D01*
X383217Y185558D01*
X383321Y185531D01*
X383488Y185464D01*
X383696Y185355D01*
X383940Y185204D01*
X384201Y185017D01*
X385201Y184159D01*
X391373Y177987D01*
X391373Y177987D01*
X391373Y177987D01*
X395900Y173459D01*
X395901Y173459D01*
X396291Y173198D01*
X396752Y173107D01*
X396752Y173107D01*
X399340D01*
X399586Y172607D01*
X399169Y172063D01*
X398887Y171381D01*
X395578D01*
X365968Y200991D01*
X366159Y201453D01*
X372251D01*
X372594Y201093D01*
X373111Y200471D01*
X373295Y200215D01*
X373439Y199986D01*
X373538Y199797D01*
X373595Y199655D01*
X373616Y199570D01*
X373616Y199561D01*
X373588Y199418D01*
X373771Y198497D01*
X374293Y197715D01*
X375075Y197193D01*
X375996Y197010D01*
X376918Y197193D01*
X377699Y197715D01*
X378221Y198497D01*
X378405Y199418D01*
X378221Y200340D01*
X377699Y201121D01*
X376918Y201643D01*
X375996Y201827D01*
X375853Y201798D01*
X375844Y201799D01*
X375760Y201820D01*
X375618Y201876D01*
X375428Y201975D01*
X375200Y202119D01*
X374950Y202299D01*
X374649Y202559D01*
X374823Y203028D01*
X378143D01*
X399151Y182020D01*
D02*
G37*
G36*
X447932Y193870D02*
X448164Y193683D01*
X448266Y193620D01*
X448358Y193577D01*
X448442Y193555D01*
X448516Y193553D01*
X448580Y193572D01*
X448635Y193611D01*
X448681Y193670D01*
X447859Y192278D01*
X447891Y192350D01*
X447905Y192429D01*
X447901Y192515D01*
X447880Y192607D01*
X447841Y192706D01*
X447784Y192812D01*
X447710Y192924D01*
X447618Y193043D01*
X447509Y193169D01*
X447382Y193302D01*
X447802Y193995D01*
X447932Y193870D01*
D02*
G37*
G36*
X408626Y195073D02*
X409910Y193982D01*
X410273Y193735D01*
X410603Y193547D01*
X410900Y193417D01*
X411165Y193345D01*
X411397Y193332D01*
X411597Y193377D01*
X409753Y191533D01*
X409798Y191733D01*
X409785Y191965D01*
X409713Y192229D01*
X409583Y192527D01*
X409395Y192857D01*
X409148Y193220D01*
X408842Y193615D01*
X408056Y194504D01*
X407576Y194997D01*
X408133Y195554D01*
X408626Y195073D01*
D02*
G37*
G36*
X399642Y189339D02*
X399585Y189442D01*
X399479Y189534D01*
X399322Y189616D01*
X399116Y189686D01*
X398860Y189746D01*
X398554Y189795D01*
X397792Y189860D01*
X396831Y189882D01*
Y190669D01*
X397336Y190675D01*
X398554Y190756D01*
X398860Y190805D01*
X399116Y190865D01*
X399322Y190936D01*
X399479Y191017D01*
X399585Y191109D01*
X399642Y191213D01*
Y189339D01*
D02*
G37*
G36*
X260261Y189955D02*
X260367Y188566D01*
X260431Y188189D01*
X260509Y187856D01*
X260601Y187566D01*
X260707Y187319D01*
X260828Y187115D01*
X260963Y186955D01*
X258758D01*
X258892Y187115D01*
X259013Y187319D01*
X259119Y187566D01*
X259211Y187856D01*
X259289Y188189D01*
X259353Y188566D01*
X259438Y189449D01*
X259459Y189955D01*
X259467Y190504D01*
X260254D01*
X260261Y189955D01*
D02*
G37*
G36*
X266346Y189853D02*
X266452Y188464D01*
X266516Y188088D01*
X266594Y187754D01*
X266686Y187464D01*
X266792Y187217D01*
X266913Y187013D01*
X267047Y186853D01*
X264843D01*
X264977Y187013D01*
X265098Y187217D01*
X265204Y187464D01*
X265296Y187754D01*
X265374Y188088D01*
X265438Y188464D01*
X265523Y189347D01*
X265544Y189853D01*
X265551Y190403D01*
X266339D01*
X266346Y189853D01*
D02*
G37*
G36*
X384722Y187713D02*
X384780Y187484D01*
X384878Y187235D01*
X385018Y186965D01*
X385197Y186674D01*
X385418Y186363D01*
X385982Y185678D01*
X386325Y185305D01*
X386708Y184912D01*
X386147Y184359D01*
X385754Y184742D01*
X384697Y185650D01*
X384385Y185872D01*
X384094Y186053D01*
X383823Y186194D01*
X383573Y186295D01*
X383344Y186355D01*
X383135Y186375D01*
X384706Y187921D01*
X384722Y187713D01*
D02*
G37*
G36*
X373135Y187457D02*
X374193Y186549D01*
X374504Y186328D01*
X374795Y186148D01*
X375065Y186008D01*
X375315Y185908D01*
X375544Y185849D01*
X375753Y185831D01*
X374194Y184272D01*
X374176Y184481D01*
X374117Y184710D01*
X374017Y184960D01*
X373877Y185230D01*
X373697Y185521D01*
X373476Y185832D01*
X372911Y186517D01*
X372568Y186890D01*
X372185Y187283D01*
X372742Y187840D01*
X373135Y187457D01*
D02*
G37*
G36*
X371999Y186323D02*
X372306Y185989D01*
X372838Y185344D01*
X373028Y185076D01*
X373179Y184833D01*
X373286Y184626D01*
X373352Y184461D01*
X373379Y184353D01*
X373360Y184256D01*
X373455Y183778D01*
X372995Y183531D01*
X358684Y197842D01*
X358876Y198304D01*
X360018D01*
X371999Y186323D01*
D02*
G37*
G36*
X264741Y198310D02*
Y189855D01*
X264722Y189402D01*
X264641Y188570D01*
X264587Y188246D01*
X264522Y187968D01*
X264451Y187745D01*
X264381Y187582D01*
X264324Y187486D01*
X264242Y187431D01*
X263720Y186650D01*
X263537Y185728D01*
X263547Y185673D01*
X263525Y185593D01*
X263456Y185429D01*
X263344Y185222D01*
X263188Y184979D01*
X262998Y184716D01*
X262133Y183718D01*
X243596Y165181D01*
X241567D01*
X241376Y165643D01*
X257794Y182060D01*
X258127Y182367D01*
X258773Y182899D01*
X259040Y183089D01*
X259283Y183240D01*
X259491Y183347D01*
X259656Y183413D01*
X259763Y183441D01*
X259860Y183422D01*
X260782Y183605D01*
X261563Y184127D01*
X262085Y184908D01*
X262269Y185830D01*
X262085Y186752D01*
X261563Y187533D01*
X261481Y187588D01*
X261425Y187683D01*
X261354Y187847D01*
X261284Y188069D01*
X261219Y188348D01*
X261165Y188664D01*
X261065Y189978D01*
Y195287D01*
X264279Y198501D01*
X264741Y198310D01*
D02*
G37*
G36*
X267497Y183394D02*
Y181900D01*
X248809Y163212D01*
X245687D01*
X245495Y163674D01*
X263815Y181994D01*
X264152Y182303D01*
X264796Y182831D01*
X265061Y183017D01*
X265300Y183163D01*
X265502Y183264D01*
X265659Y183323D01*
X265764Y183347D01*
X265798Y183349D01*
X265945Y183320D01*
X266867Y183503D01*
X267056Y183630D01*
X267497Y183394D01*
D02*
G37*
G36*
X259844Y184255D02*
X259636Y184237D01*
X259406Y184178D01*
X259157Y184079D01*
X258886Y183939D01*
X258596Y183758D01*
X258284Y183537D01*
X257600Y182973D01*
X257227Y182630D01*
X256833Y182246D01*
X256277Y182803D01*
X256660Y183197D01*
X257567Y184254D01*
X257788Y184565D01*
X257969Y184856D01*
X258109Y185126D01*
X258208Y185376D01*
X258267Y185606D01*
X258285Y185814D01*
X259844Y184255D01*
D02*
G37*
G36*
X265860Y184156D02*
X265654Y184146D01*
X265427Y184094D01*
X265179Y184001D01*
X264911Y183865D01*
X264621Y183689D01*
X264310Y183471D01*
X263626Y182910D01*
X263252Y182567D01*
X262857Y182182D01*
X262326Y182765D01*
X262712Y183160D01*
X263627Y184217D01*
X263852Y184526D01*
X264036Y184815D01*
X264180Y185081D01*
X264284Y185326D01*
X264347Y185550D01*
X264370Y185753D01*
X265860Y184156D01*
D02*
G37*
G36*
X394227Y169326D02*
X394618Y169065D01*
X395079Y168973D01*
X398956D01*
X398969Y168972D01*
X399169Y168489D01*
X399737Y167748D01*
X400477Y167181D01*
X401339Y166823D01*
X402264Y166702D01*
X403445D01*
X404370Y166823D01*
X404953Y167065D01*
X407121Y164897D01*
X407121Y164897D01*
X407512Y164636D01*
X407972Y164544D01*
X407972Y164544D01*
X412450D01*
X412461Y164048D01*
X411484Y163919D01*
X410574Y163543D01*
X409793Y162943D01*
X409194Y162162D01*
X408817Y161252D01*
X408688Y160276D01*
X408817Y159299D01*
X409194Y158389D01*
X409793Y157608D01*
X410574Y157009D01*
X410786Y156921D01*
X410687Y156421D01*
X405022D01*
X404922Y156921D01*
X405134Y157009D01*
X405915Y157608D01*
X406515Y158389D01*
X406892Y159299D01*
X407020Y160276D01*
X406892Y161252D01*
X406515Y162162D01*
X405915Y162943D01*
X405134Y163543D01*
X404224Y163919D01*
X403248Y164048D01*
X402461D01*
X401484Y163919D01*
X400574Y163543D01*
X399793Y162943D01*
X399194Y162162D01*
X398911Y161480D01*
X395046D01*
X375044Y181482D01*
X375290Y181943D01*
X375769Y181848D01*
X376690Y182031D01*
X377472Y182553D01*
X377994Y183335D01*
X378177Y184256D01*
X378075Y184771D01*
X378536Y185017D01*
X394227Y169326D01*
D02*
G37*
G36*
X400382Y183054D02*
X400497Y182956D01*
X400606Y182875D01*
X400708Y182811D01*
X400804Y182765D01*
X400893Y182736D01*
X400976Y182725D01*
X401052Y182732D01*
X401122Y182756D01*
X401186Y182797D01*
X399975Y181790D01*
X400027Y181844D01*
X400059Y181905D01*
X400073Y181974D01*
X400069Y182049D01*
X400046Y182133D01*
X400005Y182223D01*
X399946Y182322D01*
X399868Y182427D01*
X399772Y182540D01*
X399657Y182660D01*
X400260Y183170D01*
X400382Y183054D01*
D02*
G37*
G36*
X416071Y180985D02*
X416097Y180919D01*
X416142Y180860D01*
X416204Y180810D01*
X416284Y180767D01*
X416382Y180732D01*
X416497Y180704D01*
X416631Y180685D01*
X416782Y180673D01*
X416951Y180669D01*
Y179882D01*
X416782Y179878D01*
X416631Y179866D01*
X416497Y179847D01*
X416382Y179820D01*
X416284Y179784D01*
X416204Y179741D01*
X416142Y179691D01*
X416097Y179632D01*
X416071Y179566D01*
X416062Y179492D01*
Y181060D01*
X416071Y180985D01*
D02*
G37*
G36*
X405804Y178921D02*
X405775Y178855D01*
X405765Y178782D01*
X405774Y178702D01*
X405800Y178615D01*
X405844Y178521D01*
X405907Y178420D01*
X405987Y178312D01*
X406086Y178197D01*
X406202Y178075D01*
X405646Y177518D01*
X405523Y177635D01*
X405408Y177733D01*
X405300Y177814D01*
X405199Y177876D01*
X405105Y177921D01*
X405018Y177947D01*
X404938Y177955D01*
X404866Y177945D01*
X404800Y177917D01*
X404741Y177871D01*
X405850Y178979D01*
X405804Y178921D01*
D02*
G37*
G36*
X410550Y173142D02*
X410666Y173042D01*
X410777Y172959D01*
X410881Y172894D01*
X410979Y172845D01*
X411070Y172814D01*
X411156Y172800D01*
X411235Y172803D01*
X411308Y172823D01*
X411375Y172861D01*
X410088Y171930D01*
X410143Y171981D01*
X410178Y172040D01*
X410195Y172106D01*
X410192Y172181D01*
X410171Y172264D01*
X410130Y172354D01*
X410070Y172453D01*
X409991Y172560D01*
X409893Y172674D01*
X409776Y172797D01*
X410427Y173259D01*
X410550Y173142D01*
D02*
G37*
G36*
X382953Y170167D02*
X382707Y169706D01*
X382579Y169731D01*
X382482Y169712D01*
X382374Y169740D01*
X382209Y169805D01*
X382002Y169913D01*
X381759Y170064D01*
X381498Y170249D01*
X380498Y171107D01*
X355338Y196267D01*
X355529Y196729D01*
X356391D01*
X382953Y170167D01*
D02*
G37*
G36*
X487836Y172515D02*
X487452Y172122D01*
X486545Y171064D01*
X486324Y170753D01*
X486143Y170462D01*
X486003Y170192D01*
X485904Y169942D01*
X485845Y169713D01*
X485827Y169504D01*
X484268Y171063D01*
X484476Y171081D01*
X484706Y171140D01*
X484956Y171240D01*
X485226Y171380D01*
X485517Y171560D01*
X485828Y171781D01*
X486512Y172345D01*
X486885Y172688D01*
X487279Y173072D01*
X487836Y172515D01*
D02*
G37*
G36*
X399677Y169393D02*
X399665Y169467D01*
X399636Y169534D01*
X399588Y169592D01*
X399524Y169643D01*
X399442Y169686D01*
X399342Y169721D01*
X399225Y169748D01*
X399090Y169768D01*
X398938Y169780D01*
X398768Y169783D01*
X398748Y170571D01*
X398916Y170575D01*
X399066Y170587D01*
X399198Y170606D01*
X399311Y170633D01*
X399407Y170668D01*
X399485Y170711D01*
X399545Y170762D01*
X399587Y170821D01*
X399611Y170887D01*
X399617Y170961D01*
X399677Y169393D01*
D02*
G37*
G36*
X429603Y172237D02*
Y169505D01*
X429141Y169314D01*
X421521Y176934D01*
X421130Y177195D01*
X420669Y177287D01*
X420669Y177287D01*
X416129D01*
X416055Y177503D01*
X416002Y177787D01*
X416540Y178489D01*
X416781Y179071D01*
X422769D01*
X429603Y172237D01*
D02*
G37*
G36*
X405804Y168921D02*
X405775Y168855D01*
X405765Y168782D01*
X405774Y168702D01*
X405800Y168615D01*
X405844Y168521D01*
X405907Y168420D01*
X405987Y168312D01*
X406086Y168197D01*
X406202Y168075D01*
X405646Y167518D01*
X405523Y167635D01*
X405408Y167733D01*
X405300Y167814D01*
X405199Y167876D01*
X405105Y167921D01*
X405018Y167947D01*
X404938Y167955D01*
X404866Y167945D01*
X404800Y167917D01*
X404741Y167871D01*
X405850Y168979D01*
X405804Y168921D01*
D02*
G37*
G36*
X379945Y170523D02*
X381003Y169616D01*
X381314Y169395D01*
X381605Y169214D01*
X381875Y169074D01*
X382125Y168975D01*
X382354Y168916D01*
X382563Y168898D01*
X381004Y167339D01*
X380986Y167547D01*
X380927Y167777D01*
X380827Y168026D01*
X380687Y168297D01*
X380507Y168588D01*
X380286Y168899D01*
X379721Y169583D01*
X379379Y169956D01*
X378995Y170350D01*
X379552Y170906D01*
X379945Y170523D01*
D02*
G37*
G36*
X445485Y168801D02*
X445280Y168791D01*
X445053Y168739D01*
X444805Y168646D01*
X444537Y168511D01*
X444247Y168335D01*
X443936Y168116D01*
X443252Y167555D01*
X442878Y167212D01*
X442483Y166828D01*
X441952Y167410D01*
X442338Y167805D01*
X443253Y168862D01*
X443478Y169172D01*
X443662Y169460D01*
X443806Y169727D01*
X443910Y169972D01*
X443973Y170196D01*
X443996Y170398D01*
X445485Y168801D01*
D02*
G37*
G36*
X367406Y167610D02*
X368465Y166711D01*
X368774Y166497D01*
X369062Y166326D01*
X369327Y166199D01*
X369572Y166114D01*
X369794Y166073D01*
X369994Y166074D01*
X368610Y164451D01*
X368583Y164636D01*
X368516Y164844D01*
X368408Y165077D01*
X368259Y165333D01*
X368070Y165614D01*
X367841Y165919D01*
X367260Y166599D01*
X366517Y167375D01*
X367009Y167996D01*
X367406Y167610D01*
D02*
G37*
G36*
X373107Y166529D02*
Y153445D01*
X373107Y153445D01*
X373113Y153411D01*
X372653Y153165D01*
X368035Y157782D01*
Y162643D01*
X368535Y162771D01*
X369262Y162286D01*
X370184Y162102D01*
X371105Y162286D01*
X371887Y162808D01*
X372409Y163589D01*
X372592Y164511D01*
X372409Y165432D01*
X371887Y166214D01*
X371105Y166736D01*
X370184Y166919D01*
X369970Y166877D01*
X369865Y166876D01*
X369778Y166892D01*
X369634Y166943D01*
X369441Y167035D01*
X369208Y167174D01*
X368954Y167349D01*
X367952Y168199D01*
X344609Y191542D01*
X344801Y192004D01*
X347631D01*
X373107Y166529D01*
D02*
G37*
G36*
X474658Y165641D02*
X474758Y164164D01*
X474845Y163543D01*
X474957Y162999D01*
X475094Y162534D01*
X475256Y162147D01*
X475443Y161838D01*
X475655Y161607D01*
X475892Y161453D01*
X472612D01*
X472849Y161607D01*
X473061Y161838D01*
X473248Y162147D01*
X473410Y162534D01*
X473547Y162999D01*
X473659Y163543D01*
X473746Y164164D01*
X473846Y165641D01*
X473858Y166496D01*
X474646D01*
X474658Y165641D01*
D02*
G37*
G36*
X484657Y168364D02*
X485354Y168364D01*
X485220Y168203D01*
X485099Y167999D01*
X484993Y167752D01*
X484901Y167462D01*
X484823Y167129D01*
X484759Y166752D01*
X484752Y166683D01*
X484837Y165608D01*
X484985Y164662D01*
X485176Y163807D01*
X485409Y163043D01*
X485685Y162371D01*
X486003Y161790D01*
X486364Y161301D01*
X486767Y160903D01*
X481737D01*
X482140Y161301D01*
X482501Y161790D01*
X482819Y162371D01*
X483095Y163043D01*
X483328Y163807D01*
X483519Y164662D01*
X483667Y165608D01*
X483762Y166532D01*
X483745Y166752D01*
X483681Y167129D01*
X483603Y167462D01*
X483511Y167752D01*
X483405Y167999D01*
X483284Y168203D01*
X483150Y168363D01*
X483835Y168364D01*
X483858Y168996D01*
X484646D01*
X484657Y168364D01*
D02*
G37*
G36*
X399638Y159492D02*
X399629Y159566D01*
X399603Y159632D01*
X399559Y159691D01*
X399497Y159741D01*
X399418Y159784D01*
X399321Y159819D01*
X399206Y159847D01*
X399074Y159866D01*
X398924Y159878D01*
X398757Y159882D01*
Y160669D01*
X398924Y160673D01*
X399074Y160685D01*
X399206Y160704D01*
X399321Y160732D01*
X399418Y160767D01*
X399497Y160810D01*
X399559Y160861D01*
X399603Y160919D01*
X399629Y160985D01*
X399638Y161059D01*
Y159492D01*
D02*
G37*
G36*
X428028Y167021D02*
Y159269D01*
X427566Y159078D01*
X420044Y166600D01*
X419654Y166861D01*
X419193Y166952D01*
X419193Y166952D01*
X415756D01*
X415586Y167452D01*
X415972Y167748D01*
X416540Y168489D01*
X416897Y169351D01*
X417019Y170276D01*
X416897Y171201D01*
X416540Y172063D01*
X415972Y172803D01*
X415232Y173371D01*
X414370Y173728D01*
X413445Y173849D01*
X412264D01*
X411339Y173728D01*
X411179Y173661D01*
X411169Y173668D01*
X411134Y173699D01*
X410417Y174416D01*
X410608Y174878D01*
X420170D01*
X428028Y167021D01*
D02*
G37*
G36*
X379648Y168410D02*
X379838Y168143D01*
X379989Y167900D01*
X380096Y167692D01*
X380162Y167527D01*
X380190Y167420D01*
X380170Y167323D01*
X380354Y166401D01*
X380876Y165620D01*
X381657Y165098D01*
X382579Y164914D01*
X383500Y165098D01*
X384282Y165620D01*
X384804Y166401D01*
X384987Y167323D01*
X384962Y167451D01*
X385423Y167697D01*
X393696Y159424D01*
X393696Y159424D01*
X394086Y159163D01*
X394547Y159071D01*
X398911D01*
X399194Y158389D01*
X399793Y157608D01*
X400574Y157009D01*
X400786Y156921D01*
X400687Y156421D01*
X387985D01*
X387532Y156440D01*
X386700Y156520D01*
X386376Y156575D01*
X386098Y156640D01*
X385875Y156711D01*
X385712Y156781D01*
X385616Y156837D01*
X385561Y156920D01*
X384780Y157442D01*
X383858Y157625D01*
X382937Y157442D01*
X382155Y156920D01*
X381633Y156138D01*
X381450Y155217D01*
X381633Y154295D01*
X382155Y153514D01*
X382937Y152991D01*
X383858Y152808D01*
X384780Y152991D01*
X385561Y153514D01*
X385616Y153596D01*
X385712Y153652D01*
X385875Y153722D01*
X386098Y153793D01*
X386376Y153858D01*
X386692Y153912D01*
X388006Y154012D01*
X400719D01*
X400819Y153512D01*
X400477Y153371D01*
X399737Y152803D01*
X399169Y152062D01*
X398927Y151480D01*
X382015D01*
X378665Y154830D01*
Y168807D01*
X378976Y168979D01*
X379165Y168996D01*
X379648Y168410D01*
D02*
G37*
G36*
X385143Y156184D02*
X385347Y156064D01*
X385594Y155957D01*
X385884Y155865D01*
X386218Y155787D01*
X386594Y155724D01*
X387477Y155639D01*
X387983Y155617D01*
X388533Y155610D01*
Y154823D01*
X387983Y154816D01*
X386594Y154709D01*
X386218Y154646D01*
X385884Y154568D01*
X385594Y154476D01*
X385347Y154369D01*
X385143Y154249D01*
X384983Y154114D01*
X384983Y156319D01*
X385143Y156184D01*
D02*
G37*
G36*
X376256Y168596D02*
Y154331D01*
X376256Y154331D01*
X376348Y153870D01*
X376452Y153714D01*
X376064Y153395D01*
X375515Y153944D01*
Y167028D01*
X375424Y167488D01*
X375163Y167879D01*
X375163Y167879D01*
X349924Y193117D01*
X350116Y193579D01*
X351273D01*
X376256Y168596D01*
D02*
G37*
G36*
X416071Y150985D02*
X416097Y150919D01*
X416142Y150861D01*
X416204Y150810D01*
X416284Y150767D01*
X416382Y150732D01*
X416497Y150704D01*
X416631Y150685D01*
X416782Y150673D01*
X416951Y150669D01*
Y149882D01*
X416782Y149878D01*
X416631Y149866D01*
X416497Y149847D01*
X416382Y149820D01*
X416284Y149784D01*
X416204Y149741D01*
X416142Y149691D01*
X416097Y149632D01*
X416071Y149566D01*
X416062Y149492D01*
Y151059D01*
X416071Y150985D01*
D02*
G37*
G36*
X399647Y149492D02*
X399638Y149566D01*
X399611Y149632D01*
X399567Y149691D01*
X399504Y149741D01*
X399425Y149784D01*
X399327Y149820D01*
X399211Y149847D01*
X399078Y149866D01*
X398927Y149878D01*
X398758Y149882D01*
Y150669D01*
X398927Y150673D01*
X399078Y150685D01*
X399211Y150704D01*
X399327Y150732D01*
X399425Y150767D01*
X399504Y150810D01*
X399567Y150861D01*
X399611Y150919D01*
X399638Y150985D01*
X399647Y151059D01*
Y149492D01*
D02*
G37*
G36*
X177429Y148350D02*
X177296Y148495D01*
X177116Y148625D01*
X176889Y148740D01*
X176616Y148839D01*
X176295Y148923D01*
X175928Y148992D01*
X175514Y149045D01*
X174546Y149107D01*
X173992Y149114D01*
X174117Y149902D01*
X174682Y149907D01*
X176472Y150036D01*
X176803Y150095D01*
X177086Y150165D01*
X177323Y150245D01*
X177513Y150337D01*
X177656Y150439D01*
X177429Y148350D01*
D02*
G37*
G36*
X381055Y149163D02*
X381516Y149071D01*
X381516Y149071D01*
X398927D01*
X399169Y148489D01*
X399737Y147748D01*
X399840Y147669D01*
X399671Y147169D01*
X382290D01*
X380580Y148879D01*
X380899Y149267D01*
X381055Y149163D01*
D02*
G37*
G36*
X210590Y148895D02*
X210633Y148672D01*
X210719Y148427D01*
X210848Y148161D01*
X211019Y147872D01*
X211234Y147563D01*
X211491Y147232D01*
X212134Y146504D01*
X212520Y146108D01*
X211906Y145608D01*
X211506Y145999D01*
X210449Y146929D01*
X210144Y147157D01*
X209862Y147346D01*
X209604Y147494D01*
X209369Y147601D01*
X209158Y147668D01*
X208970Y147694D01*
X210589Y149096D01*
X210590Y148895D01*
D02*
G37*
G36*
X186671Y144173D02*
X186510Y144308D01*
X186306Y144428D01*
X186059Y144535D01*
X185769Y144627D01*
X185436Y144705D01*
X185059Y144769D01*
X184177Y144853D01*
X183670Y144875D01*
X183121Y144882D01*
Y145669D01*
X183670Y145676D01*
X185059Y145783D01*
X185436Y145846D01*
X185769Y145924D01*
X186059Y146017D01*
X186306Y146123D01*
X186510Y146243D01*
X186671Y146378D01*
Y144173D01*
D02*
G37*
G36*
X184121Y144052D02*
X184954Y143972D01*
X185277Y143917D01*
X185556Y143852D01*
X185625Y143830D01*
X185548Y143330D01*
X158071D01*
X158071Y143330D01*
X157610Y143239D01*
X157219Y142977D01*
X157219Y142977D01*
X145605Y131363D01*
X145344Y130973D01*
X145252Y130512D01*
X145252Y130512D01*
Y52645D01*
X144752Y52493D01*
X144549Y52797D01*
X143898Y53232D01*
X143153Y53380D01*
Y131115D01*
X156109Y144071D01*
X183668D01*
X184121Y144052D01*
D02*
G37*
G36*
X198982Y146071D02*
X200344Y144910D01*
X200624Y144721D01*
X200881Y144572D01*
X201114Y144464D01*
X201323Y144397D01*
X201508Y144370D01*
X199885Y142984D01*
X199886Y143185D01*
X199845Y143407D01*
X199760Y143651D01*
X199632Y143917D01*
X199461Y144205D01*
X199248Y144514D01*
X198991Y144845D01*
X198348Y145573D01*
X197962Y145969D01*
X198582Y146463D01*
X198982Y146071D01*
D02*
G37*
G36*
X410550Y143142D02*
X410666Y143042D01*
X410777Y142959D01*
X410881Y142894D01*
X410979Y142845D01*
X411070Y142814D01*
X411156Y142800D01*
X411235Y142803D01*
X411308Y142823D01*
X411375Y142861D01*
X410088Y141930D01*
X410143Y141981D01*
X410178Y142040D01*
X410195Y142106D01*
X410192Y142181D01*
X410171Y142263D01*
X410130Y142354D01*
X410070Y142453D01*
X409991Y142560D01*
X409893Y142674D01*
X409776Y142797D01*
X410427Y143260D01*
X410550Y143142D01*
D02*
G37*
G36*
X364082Y144336D02*
X364192Y142949D01*
X364259Y142576D01*
X364339Y142248D01*
X364435Y141964D01*
X364545Y141726D01*
X364670Y141532D01*
X364809Y141382D01*
X362642Y141280D01*
X362765Y141437D01*
X362874Y141638D01*
X362971Y141883D01*
X363055Y142173D01*
X363126Y142506D01*
X363184Y142884D01*
X363262Y143772D01*
X363287Y144836D01*
X364075Y144887D01*
X364082Y144336D01*
D02*
G37*
G36*
X191712Y140994D02*
X191564Y141134D01*
X191372Y141260D01*
X191134Y141370D01*
X190852Y141466D01*
X190524Y141548D01*
X190152Y141614D01*
X189735Y141666D01*
X188766Y141725D01*
X188214Y141732D01*
X188273Y142520D01*
X188829Y142526D01*
X190229Y142621D01*
X190607Y142678D01*
X190940Y142748D01*
X191229Y142830D01*
X191473Y142925D01*
X191673Y143033D01*
X191828Y143153D01*
X191712Y140994D01*
D02*
G37*
G36*
X399647Y139492D02*
X399638Y139566D01*
X399611Y139632D01*
X399567Y139691D01*
X399504Y139741D01*
X399425Y139784D01*
X399327Y139820D01*
X399211Y139847D01*
X399078Y139866D01*
X398927Y139878D01*
X398758Y139882D01*
Y140669D01*
X398927Y140673D01*
X399078Y140685D01*
X399211Y140704D01*
X399327Y140732D01*
X399425Y140767D01*
X399504Y140810D01*
X399567Y140860D01*
X399611Y140919D01*
X399638Y140985D01*
X399647Y141060D01*
Y139492D01*
D02*
G37*
G36*
X378393Y141175D02*
X378592Y141069D01*
X378836Y140975D01*
X379124Y140894D01*
X379457Y140825D01*
X379835Y140769D01*
X380725Y140694D01*
X381793Y140669D01*
X381858Y139882D01*
X381306Y139874D01*
X379920Y139763D01*
X379548Y139697D01*
X379222Y139615D01*
X378940Y139519D01*
X378703Y139408D01*
X378512Y139282D01*
X378366Y139141D01*
X378239Y141294D01*
X378393Y141175D01*
D02*
G37*
G36*
X213154Y134084D02*
X213344Y133958D01*
X213580Y133847D01*
X213861Y133750D01*
X214187Y133668D01*
X214559Y133601D01*
X214976Y133549D01*
X215945Y133490D01*
X216497Y133483D01*
X216428Y132695D01*
X215871Y132689D01*
X214469Y132596D01*
X214091Y132541D01*
X213758Y132473D01*
X213470Y132392D01*
X213227Y132299D01*
X213028Y132194D01*
X212875Y132077D01*
X213008Y134225D01*
X213154Y134084D01*
D02*
G37*
G36*
X251268Y136720D02*
X246339Y131790D01*
X246286D01*
X245579Y131806D01*
X244740Y131878D01*
X244410Y131927D01*
X244127Y131986D01*
X243902Y132050D01*
X243739Y132113D01*
X243687Y132141D01*
X243668Y132169D01*
X242886Y132692D01*
X242860Y132697D01*
X242630Y133252D01*
X242870Y133611D01*
X243053Y134533D01*
X242870Y135455D01*
X242348Y136236D01*
X241681Y136682D01*
X241805Y137182D01*
X251077D01*
X251268Y136720D01*
D02*
G37*
G36*
X420215Y137080D02*
X419448Y136284D01*
X418156Y134773D01*
X417633Y134056D01*
X417191Y133366D01*
X416830Y132702D01*
X416550Y132064D01*
X416353Y131453D01*
X416236Y130868D01*
X416201Y130309D01*
X412888Y133622D01*
X413447Y133657D01*
X414032Y133774D01*
X414643Y133972D01*
X415281Y134251D01*
X415945Y134612D01*
X416635Y135054D01*
X417351Y135578D01*
X418094Y136182D01*
X419658Y137636D01*
X420215Y137080D01*
D02*
G37*
G36*
X201895Y129976D02*
X195999Y124080D01*
X195738Y123689D01*
X195646Y123228D01*
X195646Y123228D01*
Y51393D01*
X195152Y51378D01*
X195000Y52146D01*
X194564Y52797D01*
X193913Y53232D01*
X193145Y53385D01*
X193099D01*
Y56004D01*
X193118Y56457D01*
X193198Y57289D01*
X193253Y57613D01*
X193318Y57892D01*
X193389Y58114D01*
X193459Y58278D01*
X193516Y58373D01*
X193598Y58428D01*
X194120Y59210D01*
X194303Y60131D01*
X194120Y61053D01*
X193598Y61834D01*
X192816Y62356D01*
X191895Y62540D01*
X190973Y62356D01*
X190192Y61834D01*
X189670Y61053D01*
X189486Y60131D01*
X189670Y59210D01*
X190192Y58428D01*
X190274Y58373D01*
X190330Y58278D01*
X190401Y58114D01*
X190471Y57892D01*
X190536Y57613D01*
X190590Y57297D01*
X190691Y55984D01*
Y53367D01*
X190015Y53232D01*
X189364Y52797D01*
X188929Y52146D01*
X188811Y51551D01*
X188311Y51601D01*
Y118596D01*
X198679Y128964D01*
X199365Y129571D01*
X199660Y129801D01*
X199931Y129990D01*
X200167Y130132D01*
X200365Y130229D01*
X200516Y130284D01*
X200613Y130305D01*
X200680Y130306D01*
X200857Y130271D01*
X201638Y130426D01*
X201895Y129976D01*
D02*
G37*
G36*
X243204Y131489D02*
X243403Y131382D01*
X243647Y131288D01*
X243936Y131206D01*
X244269Y131137D01*
X244647Y131080D01*
X245536Y131004D01*
X246603Y130979D01*
X246665Y130192D01*
X246113Y130184D01*
X244726Y130073D01*
X244355Y130007D01*
X244027Y129926D01*
X243745Y129829D01*
X243508Y129718D01*
X243316Y129593D01*
X243169Y129452D01*
X243049Y131609D01*
X243204Y131489D01*
D02*
G37*
G36*
X261031Y132434D02*
X261141Y131047D01*
X261208Y130674D01*
X261289Y130347D01*
X261385Y130064D01*
X261495Y129826D01*
X261620Y129632D01*
X261760Y129484D01*
X259597Y129375D01*
X259718Y129531D01*
X259827Y129731D01*
X259923Y129976D01*
X260006Y130265D01*
X260076Y130599D01*
X260134Y130976D01*
X260211Y131865D01*
X260236Y132930D01*
X261024Y132985D01*
X261031Y132434D01*
D02*
G37*
G36*
X240840Y129364D02*
X240679Y129499D01*
X240476Y129619D01*
X240229Y129726D01*
X239939Y129818D01*
X239605Y129896D01*
X239229Y129959D01*
X238346Y130044D01*
X237840Y130066D01*
X237290Y130073D01*
Y130860D01*
X237840Y130867D01*
X239229Y130974D01*
X239605Y131037D01*
X239939Y131115D01*
X240229Y131207D01*
X240476Y131314D01*
X240679Y131434D01*
X240840Y131569D01*
Y129364D01*
D02*
G37*
G36*
X200724Y131110D02*
X200521Y131105D01*
X200296Y131058D01*
X200050Y130969D01*
X199782Y130838D01*
X199494Y130664D01*
X199183Y130448D01*
X198852Y130189D01*
X198125Y129546D01*
X197729Y129161D01*
X197215Y129760D01*
X197604Y130158D01*
X198527Y131215D01*
X198754Y131522D01*
X198941Y131807D01*
X199087Y132069D01*
X199193Y132309D01*
X199258Y132526D01*
X199283Y132720D01*
X200724Y131110D01*
D02*
G37*
G36*
X400464Y127933D02*
X400044Y128303D01*
X399548Y128635D01*
X398976Y128927D01*
X398327Y129180D01*
X397603Y129395D01*
X396802Y129570D01*
X395925Y129707D01*
X394972Y129804D01*
X392838Y129882D01*
Y130669D01*
X393943Y130689D01*
X395925Y130845D01*
X396802Y130981D01*
X397603Y131157D01*
X398327Y131371D01*
X398976Y131624D01*
X399548Y131916D01*
X400044Y132248D01*
X400464Y132618D01*
Y127933D01*
D02*
G37*
G36*
X378113Y144298D02*
X379070Y143341D01*
X379070Y143341D01*
X379460Y143080D01*
X379921Y142989D01*
X399249D01*
X399496Y142489D01*
X399426Y142398D01*
D01*
X399169Y142062D01*
X398927Y141480D01*
X381473D01*
X380768Y141496D01*
X379928Y141567D01*
X379598Y141616D01*
X379315Y141675D01*
X379089Y141738D01*
X378927Y141801D01*
X378877Y141827D01*
X378860Y141853D01*
X378078Y142375D01*
X377157Y142558D01*
X376235Y142375D01*
X375454Y141853D01*
X374932Y141071D01*
X374748Y140150D01*
X374932Y139228D01*
X375454Y138447D01*
X376235Y137925D01*
X377157Y137741D01*
X378078Y137925D01*
X378860Y138447D01*
X378963Y138601D01*
X379015Y138652D01*
X379097Y138706D01*
X379242Y138773D01*
X379449Y138844D01*
X379716Y138911D01*
X380023Y138966D01*
X381334Y139071D01*
X398927D01*
X399169Y138489D01*
X399737Y137749D01*
X400477Y137180D01*
X401339Y136823D01*
X402264Y136702D01*
X403445D01*
X404370Y136823D01*
X405232Y137180D01*
X405972Y137749D01*
X406540Y138489D01*
X406897Y139351D01*
X407019Y140276D01*
X406897Y141201D01*
X406540Y142062D01*
X406501Y142113D01*
X406282Y142398D01*
D01*
X406213Y142489D01*
X406460Y142989D01*
X408438D01*
X409254Y142173D01*
X409169Y142062D01*
X408812Y141201D01*
X408690Y140276D01*
X408812Y139351D01*
X409169Y138489D01*
X409737Y137749D01*
X410477Y137180D01*
X411339Y136823D01*
X412264Y136702D01*
X413445D01*
X414370Y136823D01*
X415232Y137180D01*
X415972Y137749D01*
X416540Y138489D01*
X416897Y139351D01*
X417019Y140276D01*
X416897Y141201D01*
X416540Y142062D01*
X415972Y142803D01*
X415232Y143371D01*
X414370Y143728D01*
X413445Y143850D01*
X412264D01*
X411339Y143728D01*
X411179Y143661D01*
D01*
D01*
X411169Y143668D01*
X411134Y143699D01*
X410535Y144298D01*
X410726Y144760D01*
X418104D01*
X419465Y143399D01*
Y138589D01*
X418947Y138071D01*
X417567Y136788D01*
X416861Y136213D01*
X416181Y135717D01*
X415536Y135303D01*
X414927Y134973D01*
X414358Y134723D01*
X413829Y134552D01*
X413343Y134455D01*
X412962Y134431D01*
X412854Y134445D01*
X411775Y134303D01*
X410770Y133887D01*
X409906Y133224D01*
X409243Y132360D01*
X408827Y131355D01*
X408685Y130276D01*
X408827Y129196D01*
X409243Y128191D01*
X409906Y127327D01*
X410770Y126665D01*
X411775Y126248D01*
X412854Y126106D01*
X413934Y126248D01*
X414939Y126665D01*
X415803Y127327D01*
X416465Y128191D01*
X416882Y129196D01*
X417024Y130276D01*
X417010Y130383D01*
X417034Y130764D01*
X417131Y131250D01*
X417302Y131779D01*
X417552Y132349D01*
X417882Y132957D01*
X418295Y133602D01*
X418786Y134274D01*
X420042Y135744D01*
X420484Y136203D01*
X420972Y136690D01*
X421434Y136498D01*
Y136380D01*
Y120873D01*
X417021Y116460D01*
X415494D01*
X415324Y116960D01*
X415803Y117327D01*
X416465Y118191D01*
X416882Y119196D01*
X417024Y120276D01*
X416882Y121355D01*
X416465Y122360D01*
X415803Y123224D01*
X414939Y123887D01*
X413934Y124303D01*
X412854Y124445D01*
X411775Y124303D01*
X410770Y123887D01*
X409906Y123224D01*
X409243Y122360D01*
X408827Y121355D01*
X408685Y120276D01*
X408827Y119196D01*
X409243Y118191D01*
X409906Y117327D01*
X410385Y116960D01*
X410215Y116460D01*
X405494D01*
X405324Y116960D01*
X405803Y117327D01*
X406465Y118191D01*
X406882Y119196D01*
X407024Y120276D01*
X406882Y121355D01*
X406465Y122360D01*
X405803Y123224D01*
X404939Y123887D01*
X403933Y124303D01*
X402854Y124445D01*
X401775Y124303D01*
X400770Y123887D01*
X399906Y123224D01*
X399243Y122360D01*
X398827Y121355D01*
X398685Y120276D01*
X398827Y119196D01*
X399243Y118191D01*
X399906Y117327D01*
X400385Y116960D01*
X400215Y116460D01*
X376483D01*
X362228Y130715D01*
Y137760D01*
Y137856D01*
X362669Y138092D01*
X362749Y138039D01*
X362858Y137966D01*
X363779Y137783D01*
X364701Y137966D01*
X365483Y138488D01*
X366005Y139269D01*
X366188Y140191D01*
X366005Y141113D01*
X365483Y141894D01*
X365343Y141987D01*
X365306Y142027D01*
X365250Y142113D01*
X365182Y142262D01*
X365111Y142473D01*
X365044Y142742D01*
X364990Y143051D01*
X364987Y143080D01*
X364981Y143163D01*
D01*
X364970Y143293D01*
X365424Y143502D01*
X378238Y130689D01*
X379503Y129424D01*
X379503Y129424D01*
X379893Y129163D01*
X380354Y129071D01*
X393035D01*
X394917Y129003D01*
X395823Y128910D01*
X396654Y128781D01*
X397403Y128617D01*
X398067Y128420D01*
X398646Y128194D01*
X399141Y127941D01*
X399554Y127666D01*
X399840Y127413D01*
X399906Y127327D01*
X400770Y126665D01*
X401775Y126248D01*
X402854Y126106D01*
X403933Y126248D01*
X404939Y126665D01*
X405803Y127327D01*
X406465Y128191D01*
X406882Y129196D01*
X407024Y130276D01*
X406882Y131355D01*
X406465Y132360D01*
X405803Y133224D01*
X404939Y133887D01*
X403933Y134303D01*
X402854Y134445D01*
X401775Y134303D01*
X400770Y133887D01*
X399906Y133224D01*
X399840Y133138D01*
X399635Y132957D01*
X399554Y132886D01*
X399141Y132610D01*
X398646Y132357D01*
X398067Y132131D01*
X397403Y131934D01*
X396654Y131771D01*
X395832Y131643D01*
X393905Y131491D01*
X393268Y131480D01*
X380853D01*
X366460Y145873D01*
Y155179D01*
Y155298D01*
X366922Y155489D01*
X378113Y144298D01*
D02*
G37*
G36*
X218627Y127118D02*
X218661Y126963D01*
X218733Y126784D01*
X218842Y126583D01*
X218989Y126358D01*
X219173Y126110D01*
X219654Y125544D01*
X220284Y124885D01*
X219727Y124328D01*
X219386Y124662D01*
X218502Y125439D01*
X218254Y125623D01*
X218029Y125770D01*
X217828Y125879D01*
X217649Y125951D01*
X217494Y125985D01*
X217362Y125982D01*
X218630Y127250D01*
X218627Y127118D01*
D02*
G37*
G36*
X254732Y126801D02*
X254845Y125417D01*
X254913Y125048D01*
X254996Y124724D01*
X255094Y124446D01*
X255207Y124215D01*
X255335Y124029D01*
X255478Y123890D01*
X253356Y123712D01*
X253467Y123861D01*
X253566Y124055D01*
X253653Y124296D01*
X253728Y124582D01*
X253792Y124914D01*
X253844Y125291D01*
X253914Y126184D01*
X253937Y127259D01*
X254724Y127355D01*
X254732Y126801D01*
D02*
G37*
G36*
X205904Y125201D02*
X206098Y125076D01*
X206337Y124966D01*
X206620Y124871D01*
X206949Y124790D01*
X207322Y124724D01*
X207739Y124672D01*
X208708Y124614D01*
X209260Y124606D01*
X209209Y123819D01*
X208655Y123812D01*
X207257Y123716D01*
X206879Y123657D01*
X206546Y123586D01*
X206256Y123502D01*
X206011Y123406D01*
X205810Y123296D01*
X205653Y123173D01*
X205754Y125341D01*
X205904Y125201D01*
D02*
G37*
G36*
X237956Y122015D02*
X237332Y121397D01*
X237327Y121414D01*
X237303Y121449D01*
X237261Y121501D01*
X237020Y121764D01*
X236434Y122359D01*
X236991Y122916D01*
X237956Y122015D01*
D02*
G37*
G36*
X213738Y119764D02*
X213577Y119898D01*
X213373Y120019D01*
X213126Y120125D01*
X212836Y120217D01*
X212503Y120295D01*
X212126Y120359D01*
X211243Y120444D01*
X210737Y120465D01*
X210188Y120472D01*
Y121260D01*
X210737Y121267D01*
X212126Y121373D01*
X212503Y121437D01*
X212836Y121515D01*
X213126Y121607D01*
X213373Y121713D01*
X213577Y121834D01*
X213738Y121968D01*
Y119764D01*
D02*
G37*
G36*
X220408Y119818D02*
X220408Y119818D01*
X220799Y119557D01*
X221260Y119465D01*
X221260Y119465D01*
X225197D01*
Y118137D01*
X216535D01*
X215998Y118030D01*
X215542Y117726D01*
X213574Y115757D01*
X208062Y110245D01*
X207757Y109790D01*
X207650Y109252D01*
Y107229D01*
X207641Y106645D01*
X207471Y104340D01*
X207327Y103355D01*
X207143Y102463D01*
X206921Y101674D01*
X206665Y100989D01*
X206380Y100408D01*
X206068Y99930D01*
X205791Y99612D01*
X205686Y99531D01*
X205248Y98960D01*
X204748Y99130D01*
Y111017D01*
X206497Y112766D01*
X206830Y113072D01*
X207475Y113604D01*
X207743Y113795D01*
X207986Y113946D01*
X208193Y114053D01*
X208359Y114119D01*
X208466Y114146D01*
X208563Y114127D01*
X209485Y114310D01*
X210266Y114832D01*
X210788Y115614D01*
X210971Y116535D01*
X210788Y117457D01*
X210266Y118238D01*
X209485Y118761D01*
X208563Y118944D01*
X207641Y118761D01*
X206860Y118238D01*
X206338Y117457D01*
X206154Y116535D01*
X206174Y116438D01*
X206146Y116331D01*
X206081Y116166D01*
X205973Y115959D01*
X205822Y115715D01*
X205637Y115454D01*
X204779Y114454D01*
X203630Y113306D01*
X203169Y113497D01*
Y115245D01*
X207585Y119662D01*
X210735D01*
X211188Y119643D01*
X212020Y119563D01*
X212344Y119508D01*
X212623Y119443D01*
X212845Y119372D01*
X213009Y119302D01*
X213104Y119245D01*
X213159Y119163D01*
X213941Y118641D01*
X214862Y118458D01*
X215784Y118641D01*
X216565Y119163D01*
X217087Y119945D01*
X217271Y120866D01*
X217087Y121788D01*
X216606Y122508D01*
X216740Y123008D01*
X217218D01*
X220408Y119818D01*
D02*
G37*
G36*
X255595Y121499D02*
X255458Y121342D01*
X255336Y121141D01*
X255229Y120896D01*
X255136Y120608D01*
X255057Y120276D01*
X254992Y119901D01*
X254906Y119019D01*
X254885Y118512D01*
X254877Y117962D01*
X254090Y117978D01*
X254083Y118527D01*
X253978Y119917D01*
X253916Y120295D01*
X253839Y120629D01*
X253748Y120921D01*
X253644Y121170D01*
X253525Y121376D01*
X253393Y121539D01*
X255595Y121499D01*
D02*
G37*
G36*
X423060Y118440D02*
Y114082D01*
X420458Y111480D01*
X420443D01*
X420133Y111484D01*
X418695Y111583D01*
X418116Y111664D01*
X417614Y111767D01*
X417202Y111886D01*
X416883Y112016D01*
X416659Y112144D01*
X416525Y112256D01*
X416488Y112306D01*
X416465Y112360D01*
X415803Y113224D01*
X415376Y113552D01*
X415545Y114052D01*
X417520D01*
X417520Y114052D01*
X417980Y114143D01*
X418371Y114404D01*
X422598Y118631D01*
X423060Y118440D01*
D02*
G37*
G36*
X208547Y114961D02*
X208338Y114942D01*
X208109Y114883D01*
X207859Y114784D01*
X207589Y114644D01*
X207298Y114463D01*
X206987Y114242D01*
X206303Y113678D01*
X205930Y113335D01*
X205536Y112952D01*
X204979Y113508D01*
X205363Y113902D01*
X206270Y114959D01*
X206491Y115271D01*
X206672Y115562D01*
X206812Y115832D01*
X206911Y116082D01*
X206970Y116311D01*
X206988Y116520D01*
X208547Y114961D01*
D02*
G37*
G36*
X415941Y111699D02*
X416199Y111483D01*
X416531Y111292D01*
X416939Y111127D01*
X417422Y110987D01*
X417979Y110873D01*
X418611Y110784D01*
X420100Y110682D01*
X420957Y110669D01*
Y109882D01*
X420100Y109869D01*
X418611Y109767D01*
X417979Y109678D01*
X417422Y109564D01*
X416939Y109424D01*
X416531Y109259D01*
X416199Y109069D01*
X415941Y108852D01*
X415757Y108611D01*
Y111940D01*
X415941Y111699D01*
D02*
G37*
G36*
X254877Y108702D02*
X254885Y108152D01*
X254989Y106763D01*
X255052Y106385D01*
X255129Y106050D01*
X255219Y105759D01*
X255324Y105510D01*
X255443Y105304D01*
X255575Y105141D01*
X253373Y105181D01*
X253509Y105338D01*
X253631Y105539D01*
X253739Y105783D01*
X253832Y106071D01*
X253911Y106403D01*
X253975Y106779D01*
X254061Y107661D01*
X254083Y108167D01*
X254090Y108717D01*
X254877Y108702D01*
D02*
G37*
G36*
X209667Y106608D02*
X209840Y104252D01*
X209992Y103216D01*
X210187Y102273D01*
X210425Y101425D01*
X210707Y100670D01*
X211032Y100010D01*
X211400Y99445D01*
X211811Y98973D01*
X206299D01*
X206711Y99445D01*
X207079Y100010D01*
X207403Y100670D01*
X207685Y101425D01*
X207923Y102273D01*
X208118Y103216D01*
X208270Y104252D01*
X208443Y106608D01*
X208465Y107928D01*
X209646D01*
X209667Y106608D01*
D02*
G37*
G36*
X210609Y85813D02*
X210820Y85713D01*
X211094Y85624D01*
X211432Y85547D01*
X211834Y85482D01*
X212828Y85388D01*
X214077Y85340D01*
X214796Y85335D01*
Y83760D01*
X214077Y83754D01*
X211834Y83612D01*
X211432Y83547D01*
X211094Y83470D01*
X210820Y83382D01*
X210609Y83281D01*
X210461Y83169D01*
Y85925D01*
X210609Y85813D01*
D02*
G37*
G36*
X220435Y84328D02*
X222121Y82843D01*
X222451Y82605D01*
X222745Y82420D01*
X223002Y82288D01*
X223222Y82210D01*
X223406Y82185D01*
X221457Y80236D01*
X221432Y80420D01*
X221354Y80640D01*
X221222Y80897D01*
X221037Y81190D01*
X220799Y81520D01*
X220163Y82290D01*
X219313Y83206D01*
X218809Y83719D01*
X219922Y84833D01*
X220435Y84328D01*
D02*
G37*
G36*
X312030Y73918D02*
X312138Y72530D01*
X312203Y72156D01*
X312282Y71825D01*
X312376Y71538D01*
X312484Y71294D01*
X312607Y71095D01*
X312744Y70940D01*
X310549Y70885D01*
X310680Y71047D01*
X310796Y71252D01*
X310899Y71500D01*
X310988Y71791D01*
X311064Y72125D01*
X311125Y72503D01*
X311208Y73388D01*
X311235Y74445D01*
X312022Y74469D01*
X312030Y73918D01*
D02*
G37*
G36*
X265369Y68764D02*
X265215Y68901D01*
X265017Y69024D01*
X264775Y69133D01*
X264489Y69227D01*
X264159Y69307D01*
X263784Y69372D01*
X262903Y69459D01*
X262397Y69481D01*
X261846Y69488D01*
X261876Y70276D01*
X262428Y70282D01*
X263821Y70384D01*
X264199Y70445D01*
X264533Y70519D01*
X264824Y70607D01*
X265071Y70708D01*
X265275Y70823D01*
X265436Y70951D01*
X265369Y68764D01*
D02*
G37*
G36*
X192862Y58846D02*
X192742Y58642D01*
X192636Y58395D01*
X192544Y58105D01*
X192466Y57772D01*
X192402Y57395D01*
X192317Y56512D01*
X192296Y56006D01*
X192288Y55457D01*
X191501D01*
X191494Y56006D01*
X191388Y57395D01*
X191324Y57772D01*
X191246Y58105D01*
X191154Y58395D01*
X191048Y58642D01*
X190927Y58846D01*
X190792Y59007D01*
X192997D01*
X192862Y58846D01*
D02*
G37*
G36*
X152385Y150658D02*
X152197Y150620D01*
X151806Y150359D01*
X135959Y134513D01*
X135698Y134122D01*
X135607Y133661D01*
X135607Y133661D01*
Y51579D01*
X135107Y51530D01*
X134984Y52146D01*
X134549Y52797D01*
X133898Y53232D01*
X133153Y53380D01*
Y136863D01*
X147448Y151158D01*
X152336D01*
X152385Y150658D01*
D02*
G37*
G36*
X306984Y53853D02*
X307093Y52465D01*
X307158Y52091D01*
X307238Y51761D01*
X307332Y51475D01*
X307441Y51234D01*
X307565Y51036D01*
X307703Y50883D01*
X305518Y50811D01*
X305645Y50971D01*
X305760Y51175D01*
X305860Y51422D01*
X305947Y51712D01*
X306021Y52046D01*
X306082Y52424D01*
X306162Y53310D01*
X306189Y54370D01*
X306976Y54404D01*
X306984Y53853D01*
D02*
G37*
G36*
X289052Y52355D02*
Y43630D01*
X288552Y43479D01*
X288120Y44124D01*
X287339Y44646D01*
X286417Y44830D01*
X285496Y44646D01*
X284714Y44124D01*
X284192Y43343D01*
X284009Y42421D01*
X284192Y41500D01*
X284714Y40718D01*
X284797Y40663D01*
X284853Y40568D01*
X284923Y40404D01*
X284994Y40182D01*
X285059Y39903D01*
X285113Y39587D01*
X285213Y38274D01*
Y26969D01*
X285213Y26969D01*
X285305Y26508D01*
X285566Y26117D01*
X294818Y16865D01*
X294818Y16865D01*
X294970Y16763D01*
X294818Y16263D01*
X293511D01*
X284080Y25694D01*
X283689Y25955D01*
X283228Y26047D01*
X283228Y26047D01*
X275152D01*
Y29567D01*
X275000Y30335D01*
X274565Y30986D01*
X273913Y31421D01*
X273145Y31574D01*
X270783D01*
X270015Y31421D01*
X269364Y30986D01*
X268929Y30335D01*
X268822Y29800D01*
X268776Y29567D01*
Y20118D01*
X268929Y19350D01*
X269364Y18699D01*
X270015Y18264D01*
X270783Y18111D01*
X273145D01*
X273913Y18264D01*
X274565Y18699D01*
X275000Y19350D01*
X275152Y20118D01*
Y23638D01*
X282730D01*
X291770Y14598D01*
X291563Y14098D01*
X269987D01*
X268232Y15853D01*
Y29858D01*
Y32178D01*
X272816Y36762D01*
X272816Y36762D01*
X273077Y37153D01*
X273168Y37614D01*
X273168Y37614D01*
Y39927D01*
X273913Y40075D01*
X274565Y40510D01*
X275000Y41161D01*
X275152Y41929D01*
Y51378D01*
X275000Y52146D01*
X274565Y52797D01*
X273913Y53232D01*
X273145Y53385D01*
X270783D01*
X270015Y53232D01*
X269364Y52797D01*
X268929Y52146D01*
X268776Y51378D01*
Y41929D01*
X268929Y41161D01*
X269364Y40510D01*
X270015Y40075D01*
X270760Y39927D01*
Y38113D01*
X266176Y33529D01*
X265915Y33138D01*
X265823Y32677D01*
X265823Y32677D01*
Y15354D01*
X265823Y15354D01*
X265915Y14894D01*
X266176Y14503D01*
X268637Y12042D01*
X268637Y12042D01*
X268789Y11941D01*
X268637Y11440D01*
X265558D01*
X263168Y13830D01*
Y18116D01*
X263913Y18264D01*
X264564Y18699D01*
X265000Y19350D01*
X265152Y20118D01*
Y29567D01*
X265000Y30335D01*
X264564Y30986D01*
X263913Y31421D01*
X263145Y31574D01*
X260783D01*
X260015Y31421D01*
X259364Y30986D01*
X258929Y30335D01*
X258881Y30097D01*
X258791Y29641D01*
X258291Y29691D01*
Y30155D01*
Y31096D01*
X262816Y35620D01*
X262816Y35620D01*
X263077Y36011D01*
X263169Y36472D01*
X263168Y36472D01*
Y39927D01*
X263913Y40075D01*
X264564Y40510D01*
X265000Y41161D01*
X265152Y41929D01*
Y51378D01*
X265000Y52146D01*
X264564Y52797D01*
X263913Y53232D01*
X263145Y53385D01*
X260783D01*
X260015Y53232D01*
X259364Y52797D01*
X258929Y52146D01*
X258881Y51908D01*
X258791Y51452D01*
X258291Y51502D01*
Y51966D01*
Y53438D01*
X260440Y55587D01*
X285820D01*
X289052Y52355D01*
D02*
G37*
G36*
X287385Y41136D02*
X287265Y40932D01*
X287158Y40685D01*
X287066Y40395D01*
X286988Y40062D01*
X286924Y39685D01*
X286839Y38802D01*
X286818Y38296D01*
X286811Y37747D01*
X286024D01*
X286017Y38296D01*
X285910Y39685D01*
X285846Y40062D01*
X285769Y40395D01*
X285676Y40685D01*
X285570Y40932D01*
X285450Y41136D01*
X285315Y41297D01*
X287520D01*
X287385Y41136D01*
D02*
G37*
G36*
X334356Y31381D02*
X334560Y31261D01*
X334807Y31154D01*
X335097Y31062D01*
X335430Y30984D01*
X335807Y30920D01*
X336690Y30835D01*
X337196Y30814D01*
X337745Y30807D01*
Y30020D01*
X337196Y30013D01*
X335807Y29906D01*
X335430Y29842D01*
X335097Y29765D01*
X334807Y29672D01*
X334560Y29566D01*
X334356Y29446D01*
X334195Y29311D01*
Y31516D01*
X334356Y31381D01*
D02*
G37*
G36*
X413324Y22940D02*
X412947Y22562D01*
X323840D01*
X323151Y22577D01*
X322719Y22603D01*
X321968Y22689D01*
X321692Y22741D01*
X321580Y22902D01*
X321840Y23402D01*
X413133D01*
X413324Y22940D01*
D02*
G37*
G36*
X320798Y22214D02*
X320992Y22117D01*
X321231Y22031D01*
X321517Y21957D01*
X321848Y21894D01*
X322649Y21803D01*
X323119Y21775D01*
X324196Y21752D01*
X324299Y20965D01*
X323745Y20957D01*
X322361Y20843D01*
X321992Y20775D01*
X321670Y20692D01*
X321393Y20594D01*
X321163Y20481D01*
X320978Y20352D01*
X320840Y20208D01*
X320651Y22322D01*
X320798Y22214D01*
D02*
G37*
G36*
X412304Y19692D02*
X411532Y18921D01*
X321385D01*
X321233Y19421D01*
X321290Y19458D01*
X321419Y19652D01*
X321419Y19652D01*
X321502Y19739D01*
X321572Y19787D01*
X321706Y19853D01*
X321905Y19924D01*
X322165Y19991D01*
X322467Y20047D01*
X323776Y20154D01*
X412112D01*
X412304Y19692D01*
D02*
G37*
G36*
X289052Y41212D02*
Y32185D01*
X289052Y32185D01*
X289143Y31724D01*
X289404Y31334D01*
X296983Y23755D01*
X296983Y23755D01*
X297374Y23494D01*
X297835Y23402D01*
X317788D01*
X317940Y22902D01*
X317884Y22864D01*
X317361Y22083D01*
X317178Y21161D01*
X317361Y20240D01*
X317884Y19458D01*
X317940Y19421D01*
X317788Y18921D01*
X296168D01*
X287622Y27467D01*
Y38294D01*
X287641Y38747D01*
X287721Y39580D01*
X287776Y39903D01*
X287841Y40182D01*
X287911Y40404D01*
X287982Y40568D01*
X288038Y40663D01*
X288120Y40718D01*
X288552Y41364D01*
X289052Y41212D01*
D02*
G37*
G36*
X258929Y41161D02*
X259364Y40510D01*
X260015Y40075D01*
X260760Y39927D01*
Y36971D01*
X256235Y32446D01*
X255974Y32055D01*
X255882Y31594D01*
X255882Y31594D01*
Y12205D01*
X255882Y12205D01*
X255974Y11744D01*
X256235Y11353D01*
X259979Y7610D01*
X259771Y7110D01*
X258760D01*
X252566D01*
X248350Y11326D01*
Y19697D01*
X248850Y19747D01*
X248929Y19350D01*
X249364Y18699D01*
X250015Y18264D01*
X250783Y18111D01*
X253145D01*
X253913Y18264D01*
X254564Y18699D01*
X255000Y19350D01*
X255152Y20118D01*
Y29567D01*
X255000Y30335D01*
X254564Y30986D01*
X253913Y31421D01*
X253582Y31487D01*
X253418Y32030D01*
X257938Y36550D01*
X258199Y36941D01*
X258291Y37402D01*
Y41805D01*
X258791Y41855D01*
X258929Y41161D01*
D02*
G37*
G36*
X45374Y206220D02*
X45912Y205886D01*
X46551Y205591D01*
X47291Y205335D01*
X48132Y205118D01*
X49075Y204941D01*
X50119Y204803D01*
X52510Y204646D01*
X53857Y204626D01*
Y203051D01*
X52510Y203031D01*
X49075Y202736D01*
X48132Y202559D01*
X47291Y202343D01*
X46551Y202087D01*
X45912Y201791D01*
X45374Y201457D01*
X44938Y201083D01*
Y206594D01*
X45374Y206220D01*
D02*
G37*
G36*
X39314Y201083D02*
X38878Y201457D01*
X38340Y201791D01*
X37701Y202087D01*
X36961Y202343D01*
X36120Y202559D01*
X35177Y202736D01*
X34133Y202874D01*
X31742Y203031D01*
X30395Y203051D01*
Y204626D01*
X31742Y204646D01*
X35177Y204941D01*
X36120Y205118D01*
X36961Y205335D01*
X37701Y205591D01*
X38340Y205886D01*
X38878Y206220D01*
X39314Y206594D01*
Y201083D01*
D02*
G37*
G36*
X19783Y206220D02*
X20321Y205886D01*
X20960Y205591D01*
X21700Y205335D01*
X22542Y205118D01*
X23484Y204941D01*
X24528Y204803D01*
X26919Y204646D01*
X28267Y204626D01*
Y203051D01*
X26919Y203031D01*
X23484Y202736D01*
X22542Y202559D01*
X21700Y202343D01*
X20960Y202087D01*
X20321Y201791D01*
X19783Y201457D01*
X19347Y201083D01*
Y206594D01*
X19783Y206220D01*
D02*
G37*
G36*
X69675Y95530D02*
X69171Y95017D01*
X67685Y93331D01*
X67447Y93002D01*
X67262Y92708D01*
X67131Y92451D01*
X67053Y92231D01*
X67027Y92047D01*
X65079Y93996D01*
X65262Y94021D01*
X65483Y94099D01*
X65740Y94231D01*
X66033Y94416D01*
X66363Y94654D01*
X67133Y95290D01*
X68049Y96139D01*
X68562Y96644D01*
X69675Y95530D01*
D02*
G37*
G36*
X180148Y199507D02*
X180140Y199582D01*
X180116Y199649D01*
X180076Y199708D01*
X180020Y199759D01*
X179948Y199803D01*
X179860Y199838D01*
X179756Y199866D01*
X179636Y199885D01*
X179500Y199897D01*
X179349Y199901D01*
Y200689D01*
X179500Y200693D01*
X179636Y200704D01*
X179756Y200724D01*
X179860Y200752D01*
X179948Y200787D01*
X180020Y200830D01*
X180076Y200882D01*
X180116Y200941D01*
X180140Y201008D01*
X180148Y201082D01*
Y199507D01*
D02*
G37*
G36*
X171694Y196039D02*
X171310Y195645D01*
X170403Y194588D01*
X170182Y194276D01*
X170002Y193986D01*
X169862Y193715D01*
X169762Y193465D01*
X169703Y193236D01*
X169685Y193028D01*
X168126Y194587D01*
X168335Y194605D01*
X168564Y194664D01*
X168814Y194763D01*
X169084Y194903D01*
X169375Y195084D01*
X169686Y195305D01*
X170371Y195869D01*
X170744Y196212D01*
X171137Y196596D01*
X171694Y196039D01*
D02*
G37*
G36*
X520671Y191120D02*
X520694Y191053D01*
X520735Y190994D01*
X520790Y190943D01*
X520862Y190899D01*
X520950Y190864D01*
X521054Y190836D01*
X521174Y190816D01*
X521310Y190805D01*
X521462Y190801D01*
Y190013D01*
X521310Y190009D01*
X521174Y189998D01*
X521054Y189978D01*
X520950Y189950D01*
X520862Y189915D01*
X520790Y189872D01*
X520735Y189821D01*
X520694Y189761D01*
X520671Y189694D01*
X520662Y189620D01*
Y191194D01*
X520671Y191120D01*
D02*
G37*
G36*
X167923Y183979D02*
X168127Y183859D01*
X168374Y183752D01*
X168664Y183660D01*
X168997Y183582D01*
X169374Y183519D01*
X170256Y183433D01*
X170763Y183412D01*
X171312Y183405D01*
Y182618D01*
X170763Y182611D01*
X169374Y182504D01*
X168997Y182440D01*
X168664Y182363D01*
X168374Y182270D01*
X168127Y182164D01*
X167923Y182044D01*
X167762Y181909D01*
Y184114D01*
X167923Y183979D01*
D02*
G37*
G36*
X179168Y181907D02*
X179009Y182042D01*
X178805Y182163D01*
X178559Y182270D01*
X178269Y182362D01*
X177936Y182440D01*
X177560Y182504D01*
X176677Y182589D01*
X176171Y182611D01*
X175621Y182618D01*
X175625Y183405D01*
X176174Y183412D01*
X177563Y183518D01*
X177940Y183582D01*
X178273Y183660D01*
X178564Y183751D01*
X178811Y183858D01*
X179016Y183978D01*
X179177Y184112D01*
X179168Y181907D01*
D02*
G37*
G36*
X183677Y170690D02*
X183517Y170825D01*
X183313Y170945D01*
X183066Y171052D01*
X182776Y171144D01*
X182443Y171222D01*
X182066Y171285D01*
X181183Y171370D01*
X180677Y171392D01*
X180128Y171399D01*
Y172186D01*
X180677Y172193D01*
X182066Y172300D01*
X182443Y172363D01*
X182776Y172441D01*
X183066Y172534D01*
X183313Y172640D01*
X183517Y172760D01*
X183677Y172895D01*
Y170690D01*
D02*
G37*
G36*
X153225Y172760D02*
X153428Y172640D01*
X153675Y172534D01*
X153965Y172441D01*
X154299Y172363D01*
X154675Y172300D01*
X155558Y172215D01*
X156064Y172193D01*
X156614Y172186D01*
Y171399D01*
X156064Y171392D01*
X154675Y171285D01*
X154299Y171222D01*
X153965Y171144D01*
X153675Y171052D01*
X153428Y170945D01*
X153225Y170825D01*
X153064Y170690D01*
Y172895D01*
X153225Y172760D01*
D02*
G37*
G36*
X464965Y153941D02*
X464898Y153918D01*
X464839Y153878D01*
X464787Y153823D01*
X464744Y153752D01*
X464709Y153666D01*
X464681Y153563D01*
X464661Y153445D01*
X464650Y153311D01*
X464646Y153162D01*
X463858D01*
X463854Y153311D01*
X463842Y153445D01*
X463823Y153563D01*
X463795Y153666D01*
X463760Y153752D01*
X463717Y153823D01*
X463665Y153878D01*
X463606Y153918D01*
X463539Y153941D01*
X463465Y153949D01*
X465039D01*
X464965Y153941D01*
D02*
G37*
G36*
X178666Y164975D02*
X178506Y165102D01*
X178303Y165216D01*
X178056Y165316D01*
X177766Y165402D01*
X177432Y165476D01*
X177054Y165536D01*
X176168Y165616D01*
X175107Y165643D01*
X175072Y166430D01*
X175623Y166438D01*
X177010Y166547D01*
X177384Y166612D01*
X177714Y166692D01*
X177999Y166787D01*
X178241Y166896D01*
X178438Y167019D01*
X178590Y167158D01*
X178666Y164975D01*
D02*
G37*
G36*
X157946Y167004D02*
X158149Y166884D01*
X158396Y166778D01*
X158686Y166685D01*
X159020Y166607D01*
X159397Y166544D01*
X160279Y166459D01*
X160785Y166437D01*
X161335Y166430D01*
Y165643D01*
X160785Y165636D01*
X159397Y165530D01*
X159020Y165466D01*
X158686Y165388D01*
X158396Y165296D01*
X158149Y165189D01*
X157946Y165069D01*
X157785Y164934D01*
Y167139D01*
X157946Y167004D01*
D02*
G37*
G36*
X531956Y158577D02*
X531830Y158724D01*
X531655Y158855D01*
X531433Y158971D01*
X531164Y159072D01*
X530847Y159157D01*
X530482Y159227D01*
X530069Y159281D01*
X529102Y159343D01*
X528546Y159350D01*
X528702Y160138D01*
X529271Y160143D01*
X531065Y160261D01*
X531394Y160316D01*
X531675Y160380D01*
X531908Y160455D01*
X532093Y160539D01*
X532229Y160633D01*
X531956Y158577D01*
D02*
G37*
G36*
X163028Y126007D02*
X162891Y125854D01*
X162767Y125656D01*
X162659Y125414D01*
X162564Y125128D01*
X162485Y124798D01*
X162419Y124424D01*
X162332Y123543D01*
X162310Y123036D01*
X162303Y122485D01*
X161516Y122517D01*
X161509Y123068D01*
X161408Y124462D01*
X161347Y124839D01*
X161273Y125174D01*
X161186Y125464D01*
X161084Y125712D01*
X160970Y125915D01*
X160842Y126076D01*
X163028Y126007D01*
D02*
G37*
G36*
X167567Y125919D02*
X167454Y125716D01*
X167354Y125469D01*
X167267Y125179D01*
X167194Y124845D01*
X167134Y124467D01*
X167054Y123581D01*
X167028Y122520D01*
X166240Y122483D01*
X166233Y123034D01*
X166124Y124421D01*
X166058Y124795D01*
X165978Y125125D01*
X165883Y125410D01*
X165774Y125651D01*
X165650Y125848D01*
X165512Y126000D01*
X167693Y126078D01*
X167567Y125919D01*
D02*
G37*
G36*
X164859Y125471D02*
X164984Y125387D01*
X165008Y125361D01*
X165066Y125270D01*
X165135Y125117D01*
X165206Y124903D01*
X165272Y124631D01*
X165326Y124320D01*
X165430Y123008D01*
Y52311D01*
X165298Y52262D01*
X164930Y52228D01*
X164549Y52797D01*
X163898Y53232D01*
X163130Y53385D01*
X163114D01*
Y123029D01*
X163133Y123486D01*
X163215Y124315D01*
X163271Y124635D01*
X163337Y124908D01*
X163408Y125123D01*
X163477Y125277D01*
X163535Y125370D01*
X163554Y125391D01*
X163673Y125471D01*
X163965Y125908D01*
X164567D01*
X164859Y125471D01*
D02*
G37*
G36*
X157647Y125908D02*
X157529Y125702D01*
X157426Y125454D01*
X157336Y125162D01*
X157260Y124828D01*
X157197Y124450D01*
X157114Y123566D01*
X157094Y123059D01*
X157087Y122510D01*
X156299Y122490D01*
X156292Y123041D01*
X156184Y124429D01*
X156119Y124804D01*
X156040Y125135D01*
X155947Y125423D01*
X155839Y125667D01*
X155717Y125867D01*
X155580Y126023D01*
X157778Y126070D01*
X157647Y125908D01*
D02*
G37*
G36*
X152903D02*
X152785Y125702D01*
X152682Y125454D01*
X152592Y125162D01*
X152515Y124828D01*
X152453Y124450D01*
X152370Y123566D01*
X152349Y123059D01*
X152342Y122510D01*
X151555Y122490D01*
X151548Y123041D01*
X151440Y124429D01*
X151375Y124804D01*
X151296Y125135D01*
X151203Y125423D01*
X151095Y125667D01*
X150973Y125867D01*
X150836Y126023D01*
X153034Y126070D01*
X152903Y125908D01*
D02*
G37*
G36*
X154952Y125471D02*
X155059Y125399D01*
X155067Y125390D01*
X155126Y125294D01*
X155196Y125136D01*
X155267Y124918D01*
X155333Y124643D01*
X155387Y124329D01*
X155489Y123016D01*
Y52173D01*
X154989Y52124D01*
X154984Y52146D01*
X154549Y52797D01*
X153898Y53232D01*
X153153Y53380D01*
Y123062D01*
X153172Y123512D01*
X153250Y124347D01*
X153304Y124673D01*
X153368Y124955D01*
X153437Y125180D01*
X153507Y125347D01*
X153555Y125431D01*
X153614Y125471D01*
X154000Y126048D01*
X154567D01*
X154952Y125471D01*
D02*
G37*
G36*
X41421Y176668D02*
X41300Y176464D01*
X41194Y176217D01*
X41102Y175927D01*
X41024Y175593D01*
X40960Y175217D01*
X40875Y174334D01*
X40854Y173828D01*
X40846Y173278D01*
X40059D01*
X40052Y173828D01*
X39946Y175217D01*
X39882Y175593D01*
X39804Y175927D01*
X39712Y176217D01*
X39606Y176464D01*
X39485Y176668D01*
X39350Y176828D01*
X41555D01*
X41421Y176668D01*
D02*
G37*
G36*
X40854Y127550D02*
X40960Y126161D01*
X41024Y125785D01*
X41102Y125451D01*
X41194Y125161D01*
X41300Y124914D01*
X41421Y124710D01*
X41555Y124550D01*
X39350D01*
X39485Y124710D01*
X39606Y124914D01*
X39712Y125161D01*
X39804Y125451D01*
X39882Y125785D01*
X39946Y126161D01*
X40031Y127044D01*
X40052Y127550D01*
X40059Y128100D01*
X40846D01*
X40854Y127550D01*
D02*
G37*
G36*
X41738Y124393D02*
X41942Y124272D01*
X42189Y124166D01*
X42479Y124074D01*
X42812Y123996D01*
X43189Y123932D01*
X44071Y123847D01*
X44578Y123826D01*
X45127Y123819D01*
Y123031D01*
X44578Y123024D01*
X43189Y122918D01*
X42812Y122854D01*
X42479Y122776D01*
X42189Y122684D01*
X41942Y122578D01*
X41738Y122458D01*
X41577Y122323D01*
Y124528D01*
X41738Y124393D01*
D02*
G37*
G36*
X67726Y108440D02*
X67874Y106722D01*
X67963Y106251D01*
X68071Y105831D01*
X68199Y105460D01*
X68347Y105141D01*
X68514Y104872D01*
X68701Y104654D01*
X65945D01*
X66132Y104872D01*
X66299Y105141D01*
X66447Y105460D01*
X66575Y105831D01*
X66683Y106251D01*
X66772Y106722D01*
X66841Y107244D01*
X66919Y108440D01*
X66929Y109114D01*
X67716D01*
X67726Y108440D01*
D02*
G37*
G36*
X231994Y83940D02*
X232198Y83820D01*
X232445Y83713D01*
X232735Y83621D01*
X233068Y83543D01*
X233445Y83479D01*
X234327Y83394D01*
X234834Y83373D01*
X235383Y83366D01*
Y82579D01*
X234834Y82572D01*
X233445Y82465D01*
X233068Y82402D01*
X232735Y82324D01*
X232445Y82231D01*
X232198Y82125D01*
X231994Y82005D01*
X231833Y81870D01*
Y84075D01*
X231994Y83940D01*
D02*
G37*
G36*
X327550Y85085D02*
X327429Y84881D01*
X327323Y84634D01*
X327231Y84343D01*
X327153Y84010D01*
X327090Y83633D01*
X327005Y82750D01*
X326983Y82244D01*
X326976Y81695D01*
X326189Y81693D01*
X326182Y82243D01*
X326076Y83632D01*
X326012Y84008D01*
X325934Y84341D01*
X325841Y84631D01*
X325735Y84878D01*
X325614Y85081D01*
X325479Y85242D01*
X327684Y85246D01*
X327550Y85085D01*
D02*
G37*
G36*
X302707Y89103D02*
X302568Y88952D01*
X302444Y88756D01*
X302334Y88516D01*
X302239Y88231D01*
X302159Y87902D01*
X302093Y87528D01*
X302042Y87110D01*
X301984Y86141D01*
X301976Y85590D01*
X301189Y85631D01*
X301182Y86184D01*
X301083Y87581D01*
X301024Y87958D01*
X300952Y88292D01*
X300866Y88582D01*
X300767Y88828D01*
X300655Y89031D01*
X300530Y89189D01*
X302707Y89103D01*
D02*
G37*
G36*
X306960Y76914D02*
X306967Y76365D01*
X307072Y74976D01*
X307136Y74599D01*
X307213Y74264D01*
X307305Y73973D01*
X307410Y73725D01*
X307530Y73519D01*
X307663Y73357D01*
X305459Y73380D01*
X305594Y73539D01*
X305716Y73741D01*
X305823Y73987D01*
X305915Y74276D01*
X305994Y74608D01*
X306058Y74984D01*
X306144Y75867D01*
X306165Y76373D01*
X306172Y76923D01*
X306960Y76914D01*
D02*
G37*
G36*
X80143Y72730D02*
X80221Y72509D01*
X80353Y72253D01*
X80538Y71959D01*
X80776Y71629D01*
X81412Y70859D01*
X82261Y69943D01*
X82766Y69430D01*
X81652Y68317D01*
X81139Y68821D01*
X79453Y70307D01*
X79124Y70545D01*
X78830Y70730D01*
X78573Y70861D01*
X78353Y70940D01*
X78169Y70965D01*
X80118Y72913D01*
X80143Y72730D01*
D02*
G37*
G36*
X332482Y62119D02*
X332376Y61920D01*
X332282Y61676D01*
X332201Y61388D01*
X332133Y61055D01*
X332076Y60677D01*
X332001Y59787D01*
X331976Y58719D01*
X331189Y58654D01*
X331182Y59206D01*
X331070Y60592D01*
X331004Y60964D01*
X330922Y61291D01*
X330826Y61572D01*
X330715Y61809D01*
X330589Y62000D01*
X330448Y62147D01*
X332601Y62273D01*
X332482Y62119D01*
D02*
G37*
G36*
X177801Y132187D02*
X177680Y131983D01*
X177574Y131737D01*
X177482Y131446D01*
X177404Y131113D01*
X177340Y130736D01*
X177255Y129854D01*
X177234Y129347D01*
X177227Y128798D01*
X176439D01*
X176432Y129347D01*
X176326Y130736D01*
X176262Y131113D01*
X176184Y131446D01*
X176092Y131737D01*
X175986Y131983D01*
X175865Y132187D01*
X175731Y132348D01*
X177935D01*
X177801Y132187D01*
D02*
G37*
G36*
X173073Y125994D02*
X172934Y125842D01*
X172810Y125646D01*
X172701Y125406D01*
X172606Y125122D01*
X172525Y124793D01*
X172459Y124419D01*
X172408Y124001D01*
X172350Y123032D01*
X172343Y122481D01*
X171555Y122523D01*
X171548Y123076D01*
X171450Y124472D01*
X171391Y124850D01*
X171318Y125184D01*
X171233Y125474D01*
X171134Y125720D01*
X171022Y125922D01*
X170897Y126081D01*
X173073Y125994D01*
D02*
G37*
G36*
X93143Y35983D02*
X93288Y35930D01*
X93488Y35883D01*
X93744Y35842D01*
X94422Y35779D01*
X95854Y35732D01*
X96443Y35728D01*
Y34154D01*
X95854Y34150D01*
X93488Y33999D01*
X93288Y33952D01*
X93143Y33898D01*
X93054Y33839D01*
Y36043D01*
X93143Y35983D01*
D02*
G37*
G36*
X237632Y15196D02*
X238529Y14409D01*
X238781Y14222D01*
X239011Y14073D01*
X239217Y13962D01*
X239400Y13889D01*
X239559Y13853D01*
X239696Y13856D01*
X238408Y12568D01*
X238411Y12705D01*
X238375Y12864D01*
X238302Y13047D01*
X238191Y13253D01*
X238042Y13483D01*
X237855Y13735D01*
X237368Y14310D01*
X236730Y14977D01*
X237286Y15534D01*
X237632Y15196D01*
D02*
G37*
D11*
X403809Y144196D02*
G03*
X403870Y144193I67J785D01*
G01*
X402264Y144213D02*
G03*
X401900Y144196I0J-3937D01*
G01*
X401838Y144193D02*
G03*
X401900Y144196I-6J787D01*
G01*
X403809Y144196D02*
G03*
X403445Y144213I-364J-3920D01*
G01*
X411601Y15059D02*
X433957Y37415D01*
Y201870D01*
X411232Y10236D02*
X437106Y36110D01*
X411662Y12894D02*
X435532Y36763D01*
X261221Y8071D02*
X411294D01*
X414467Y24606D02*
X429232Y39372D01*
X414306Y26673D02*
X427658Y40024D01*
X293012Y15059D02*
X411601D01*
X411294Y8071D02*
X438681Y35458D01*
X413446Y21358D02*
X430807Y38720D01*
X295669Y17717D02*
X412031D01*
X432382Y38067D01*
X441831Y34154D02*
Y166732D01*
X411221Y5906D02*
X411356D01*
X440256Y34806D02*
Y218996D01*
X233268Y3839D02*
X411516D01*
X435532Y36763D02*
Y204921D01*
X437106Y36110D02*
Y208563D01*
X438681Y35458D02*
Y212500D01*
X430807Y38720D02*
Y172736D01*
X269488Y12894D02*
X411662D01*
X411516Y3839D02*
X441831Y34154D01*
X432382Y38067D02*
Y191929D01*
X411356Y5906D02*
X440256Y34806D01*
X326673Y21358D02*
X413446D01*
X297835Y24606D02*
X414467D01*
X427658Y40024D02*
Y157283D01*
X265059Y10236D02*
X411232D01*
X429232Y39372D02*
Y167520D01*
X299114Y26673D02*
X414306D01*
X258760Y5906D02*
X411221Y5906D01*
X196850Y154232D02*
X210728Y140354D01*
X121949Y134153D02*
X142027Y154232D01*
X196850D01*
X131949Y137362D02*
X146949Y152362D01*
X192126D01*
X201575Y142913D01*
X260630Y128642D02*
Y133107D01*
X297244Y169722D02*
Y188531D01*
X260630Y133107D02*
X297244Y169722D01*
X295669Y170374D02*
Y189183D01*
X236122Y117323D02*
X240391D01*
X254331Y122644D02*
Y129035D01*
X240391Y117323D02*
X294094Y171026D01*
X254331Y129035D02*
X295669Y170374D01*
X294094Y171026D02*
Y189835D01*
X361024Y130217D02*
Y163386D01*
Y130217D02*
X375984Y115256D01*
X417520D01*
X442520Y181201D02*
Y221260D01*
X433504Y230276D02*
X442520Y221260D01*
X412854Y230276D02*
X433504D01*
X276575Y196910D02*
X293542Y213878D01*
X276575Y178140D02*
Y196910D01*
X293714Y218504D02*
X357807D01*
X270276Y199520D02*
X292410Y221654D01*
X271850Y180097D02*
Y198867D01*
X291757Y223228D02*
X371800D01*
X293062Y220079D02*
X362810D01*
X294367Y216929D02*
X351792D01*
X290453Y226378D02*
X376378D01*
X268701Y181401D02*
Y200172D01*
X292410Y221654D02*
X367442D01*
X259860Y195785D02*
X290453Y226378D01*
X275000Y197563D02*
X294367Y216929D01*
X271850Y198867D02*
X293062Y220079D01*
X291105Y224803D02*
X375726D01*
X265945Y185728D02*
Y199643D01*
X343898Y213878D02*
X343898Y213878D01*
X268701Y200172D02*
X291757Y223228D01*
X265945Y199643D02*
X291105Y224803D01*
X293542Y213878D02*
X343898D01*
X275000Y178792D02*
Y197563D01*
X259860Y185830D02*
Y195785D01*
X273425Y179445D02*
Y198215D01*
X270276Y180749D02*
Y199520D01*
X273425Y198215D02*
X293714Y218504D01*
X331656Y194980D02*
X363681Y162955D01*
X365256Y145374D02*
Y163608D01*
X302119Y193405D02*
X331004D01*
X300814Y196555D02*
X332309D01*
X366831Y157283D02*
Y164260D01*
X332961Y198130D02*
X366831Y164260D01*
X301467Y194980D02*
X331656D01*
X331004Y193405D02*
X361024Y163386D01*
X363681Y140289D02*
Y162955D01*
X332309Y196555D02*
X365256Y163608D01*
X300162Y198130D02*
X332961D01*
X297244Y188531D02*
X302119Y193405D01*
X245312Y124606D02*
X292520Y171814D01*
Y190488D02*
X300162Y198130D01*
X292520Y171814D02*
Y190488D01*
X294094Y189835D02*
X300814Y196555D01*
X295669Y189183D02*
X301467Y194980D01*
X433957Y225295D02*
X440256Y218996D01*
X441831Y166732D02*
X445522Y170423D01*
X403445Y170276D02*
X407972Y165748D01*
X402854Y170276D02*
X403445D01*
X407972Y165748D02*
X419193D01*
X420669Y176083D02*
X429232Y167520D01*
X402598Y180276D02*
X403445D01*
X423268D02*
X430807Y172736D01*
X425197Y215256D02*
X435532Y204921D01*
X407638Y176083D02*
X420669D01*
X425394Y220276D02*
X437106Y208563D01*
X435827Y215354D02*
X438681Y212500D01*
X419193Y165748D02*
X427658Y157283D01*
X403445Y180276D02*
X407638Y176083D01*
X425551Y210276D02*
X433957Y201870D01*
X424035Y200276D02*
X432382Y191929D01*
X343467Y193209D02*
X348130D01*
X374311Y153445D02*
Y167028D01*
X348130Y193209D02*
X374311Y167028D01*
X338006Y207579D02*
X346076Y199508D01*
X344772Y196358D02*
X353543D01*
X372757Y202658D02*
X375808Y199606D01*
X338780Y209154D02*
X346850Y201083D01*
X336049Y202854D02*
X344120Y194783D01*
X335396Y201279D02*
X343467Y193209D01*
X345424Y197933D02*
X356890D01*
X344120Y194783D02*
X351772D01*
X360517Y199508D02*
X375478Y184547D01*
X375492D01*
X337353Y206004D02*
X345424Y197933D01*
X364173Y201083D02*
X395079Y170177D01*
X375808Y199606D02*
X375984D01*
X378642Y204232D02*
X402598Y180276D01*
X356890Y197933D02*
X394547Y160276D01*
X347835Y202658D02*
X372757D01*
X336701Y204429D02*
X344772Y196358D01*
X351772Y194783D02*
X377461Y169095D01*
X348917Y204232D02*
X378642D01*
X382579Y167323D02*
X382579D01*
X339764Y210728D02*
X347835Y202658D01*
X340846Y212303D02*
X348917Y204232D01*
X353543Y196358D02*
X382579Y167323D01*
X346850Y201083D02*
X364173D01*
X346076Y199508D02*
X360517D01*
X298205Y202854D02*
X336049D01*
X298857Y201279D02*
X335396D01*
X334744Y199705D02*
X370079Y164370D01*
X299510Y199705D02*
X334744D01*
X296901Y206004D02*
X337353D01*
X297553Y204429D02*
X336701D01*
X296248Y207579D02*
X338006D01*
X295596Y209154D02*
X338780D01*
X294944Y210728D02*
X339764D01*
X294291Y212303D02*
X340846D01*
X220005Y124606D02*
X228445D01*
X245312D01*
X376378Y226378D02*
X391339Y211417D01*
Y200098D02*
Y211417D01*
X389764Y197343D02*
Y210765D01*
X375726Y224803D02*
X389764Y210765D01*
X367442Y221654D02*
X384419Y204676D01*
X362810Y220079D02*
X369980Y212908D01*
X351792Y216929D02*
X354056Y214665D01*
X357807Y218504D02*
X361221Y215090D01*
X369980Y212894D02*
Y212908D01*
X384419Y204557D02*
Y204676D01*
X361221Y215059D02*
Y215090D01*
X371800Y223228D02*
X385620Y209408D01*
X354056Y214665D02*
X354134D01*
X385620Y209361D02*
Y209408D01*
X223700Y134449D02*
X228445D01*
X222641Y133390D02*
X223700Y134449D01*
X222058Y133390D02*
X222641D01*
X228527Y132562D02*
X234859D01*
X228445Y132480D02*
X228527Y132562D01*
X234859D02*
X236955Y130466D01*
X331457Y63356D02*
X331583Y63230D01*
Y55905D02*
Y63230D01*
X266475Y69882D02*
X266534Y69823D01*
X222244Y69882D02*
X266475D01*
X211964Y59602D02*
X222244Y69882D01*
X312894Y65158D02*
X316583Y61468D01*
X217028Y58760D02*
X223425Y65158D01*
X312894D01*
X221964Y57988D02*
X226476Y62500D01*
X294587D02*
X297933Y59153D01*
X226476Y62500D02*
X294587D01*
X287625Y76968D02*
X297566Y67028D01*
X207677Y60324D02*
X224322Y76968D01*
X287625D01*
X333071Y30413D02*
X340256D01*
X345177Y35335D02*
Y66634D01*
X340256Y30413D02*
X345177Y35335D01*
X342323Y69488D02*
X345177Y66634D01*
X325000Y69488D02*
X342323D01*
X321583Y72905D02*
X325000Y69488D01*
X321583Y72905D02*
Y78740D01*
X287106Y95472D02*
X313257D01*
X316583Y78740D02*
Y92146D01*
X313257Y95472D02*
X316583Y92146D01*
X274606Y82972D02*
X287106Y95472D01*
X230709Y82972D02*
X274606D01*
X301583Y78740D02*
Y90445D01*
X442224Y244587D02*
X451772D01*
X306583Y50087D02*
Y55905D01*
X306496Y50000D02*
X306583Y50087D01*
X297933Y47736D02*
X301083Y44587D01*
X297933Y47736D02*
Y59153D01*
X301083Y44587D02*
X322047D01*
X326583Y49122D01*
Y55905D01*
X316583D02*
Y61468D01*
X321583Y55905D02*
Y63850D01*
X318406Y67028D02*
X321583Y63850D01*
X297566Y67028D02*
X318406D01*
X311583Y78740D02*
X311629Y78694D01*
Y69829D02*
Y78694D01*
Y69829D02*
X311675Y69784D01*
X306549Y72244D02*
X306566Y72261D01*
Y78723D02*
X306583Y78740D01*
X306566Y72261D02*
Y78723D01*
X326583Y78740D02*
Y86368D01*
X325595Y85729D02*
Y86368D01*
X254484Y104066D02*
Y122491D01*
X254454Y104035D02*
X254484Y104066D01*
X254331Y122644D02*
X254484Y122491D01*
X275295Y241634D02*
X275787Y242126D01*
X274803Y241142D02*
X275295Y241634D01*
X121949Y46654D02*
Y134153D01*
X151939Y171792D02*
X184802D01*
X156660Y166037D02*
X178944D01*
X156693Y38976D02*
Y127559D01*
X166638Y183011D02*
X180079D01*
X166634Y38681D02*
Y128051D01*
X168110Y193012D02*
X175393Y200295D01*
X186030D01*
X161909Y46063D02*
Y128051D01*
X433989Y236713D02*
X442716D01*
X516734Y190407D02*
X533104D01*
X451571Y236713D02*
X460002D01*
X450980D02*
X451774Y235919D01*
X208858Y149213D02*
X215748Y142323D01*
X228445D01*
X136811Y133661D02*
X152657Y149508D01*
X178179D01*
X171949Y33858D02*
X176833Y38743D01*
Y133472D01*
X136811Y39665D02*
Y133661D01*
X171949Y46654D02*
Y127756D01*
X211928Y133089D02*
X216517D01*
X223031Y126575D01*
X211794Y133222D02*
X211928Y133089D01*
X223031Y126575D02*
X228445D01*
X210728Y140354D02*
X228445D01*
X238878Y136417D02*
X240551Y134744D01*
X228445Y136417D02*
X238878D01*
X242084Y130586D02*
X246837D01*
X289173Y172922D01*
X241965Y130466D02*
X242084Y130586D01*
X236955Y130466D02*
X241965D01*
X217080Y127531D02*
X220005Y124606D01*
X363681Y140289D02*
X363779Y140191D01*
X155610Y145276D02*
X187795D01*
X187106Y119095D02*
X200691Y132679D01*
X200857D01*
X187106Y39173D02*
Y119095D01*
X217717Y124213D02*
X221260Y120669D01*
X204980Y124213D02*
X217717D01*
X196850Y37500D02*
Y123228D01*
X210039Y136417D02*
X227264D01*
X196850Y123228D02*
X210039Y136417D01*
X181964Y46654D02*
Y122220D01*
X198130Y138386D02*
X228445D01*
X252411D01*
X181964Y122220D02*
X198130Y138386D01*
X221260Y120669D02*
X228445D01*
X238386Y120965D02*
X238484D01*
X236713Y122638D02*
X238386Y120965D01*
X228445Y122638D02*
X236713D01*
X289173Y172922D02*
Y191595D01*
X228445Y162008D02*
X249307D01*
X250859Y150197D02*
X278150Y177488D01*
X252411Y138386D02*
X287598Y173574D01*
X250342Y154134D02*
X275000Y178792D01*
X228445Y144291D02*
X251635D01*
X249825Y158071D02*
X271850Y180097D01*
X281299Y176183D02*
Y194857D01*
X228445Y152165D02*
X250600D01*
X228445Y158071D02*
X249825D01*
X252152Y140354D02*
X286024Y174226D01*
X228445Y142323D02*
X251893D01*
X287598Y173574D02*
Y192248D01*
X228445Y148228D02*
X251117D01*
X278150Y177488D02*
Y196161D01*
X228445Y160039D02*
X249566D01*
X228445Y156102D02*
X250083D01*
X228445Y126575D02*
X245054D01*
X284449Y174878D02*
Y193552D01*
X250083Y156102D02*
X273425Y179445D01*
X249307Y162008D02*
X268701Y181401D01*
X282874Y175531D02*
Y194204D01*
X251117Y148228D02*
X279724Y176835D01*
X250600Y152165D02*
X276575Y178140D01*
X251376Y146260D02*
X281299Y176183D01*
X251893Y142323D02*
X284449Y174878D01*
X251635Y144291D02*
X282874Y175531D01*
X245054Y126575D02*
X290748Y172269D01*
X286024Y174226D02*
Y192900D01*
X249566Y160039D02*
X270276Y180749D01*
X279724Y176835D02*
Y195509D01*
X228445Y150197D02*
X250859D01*
X290748Y172269D02*
Y190943D01*
X228445Y140354D02*
X252152D01*
X228445Y146260D02*
X251376D01*
X228445Y154134D02*
X250342D01*
X232776Y120669D02*
X236122Y117323D01*
X228445Y120669D02*
X232776D01*
X141949Y131614D02*
X155610Y145276D01*
X146457Y130512D02*
X158071Y142126D01*
X192376D01*
X141949Y46654D02*
Y131614D01*
X181964Y34031D02*
X187106Y39173D01*
X191895Y46723D02*
Y60131D01*
X201964Y46654D02*
Y115744D01*
X191895Y46723D02*
X191964Y46654D01*
X201964Y115744D02*
X207087Y120866D01*
X203543Y111516D02*
X208563Y116535D01*
X191964Y32614D02*
X196850Y37500D01*
X203543Y68405D02*
Y111516D01*
Y68405D02*
X206102Y65847D01*
X146457Y38780D02*
Y130512D01*
X244094Y163976D02*
X265846Y185728D01*
X207087Y120866D02*
X214862D01*
X228445Y114764D02*
Y116732D01*
X376004Y140276D02*
X402854D01*
X365256Y145374D02*
X380354Y130276D01*
X402854D01*
X394547Y160276D02*
X402854D01*
X377461Y154331D02*
Y169095D01*
X265846Y185728D02*
X265945D01*
X228445Y163976D02*
X244094D01*
X228445Y165945D02*
X239975D01*
X259860Y185830D01*
X281299Y194857D02*
X295596Y209154D01*
X279724Y195509D02*
X294944Y210728D01*
X284449Y193552D02*
X296901Y206004D01*
X282874Y194204D02*
X296248Y207579D01*
X289173Y191595D02*
X298857Y201279D01*
X286024Y192900D02*
X297553Y204429D01*
X290748Y190943D02*
X299510Y199705D01*
X278150Y196161D02*
X294291Y212303D01*
X287598Y192248D02*
X298205Y202854D01*
X366831Y157283D02*
X379921Y144193D01*
X401838D01*
X374311Y153445D02*
X381791Y145965D01*
X418602D01*
X420669Y143898D01*
Y138091D02*
Y143898D01*
X412854Y130276D02*
X420669Y138091D01*
X422638Y120374D02*
Y147146D01*
X412854Y150276D02*
X419508D01*
X422638Y147146D01*
X402264Y144213D02*
X403445D01*
X408937Y144193D02*
X409168Y143962D01*
X412854Y140276D01*
X403870Y144193D02*
X408937D01*
X417520Y115256D02*
X422638Y120374D01*
X377461Y154331D02*
X381516Y150276D01*
X402854D01*
X396752Y174311D02*
X408819D01*
X392224Y178839D02*
X396752Y174311D01*
X392224Y178839D02*
X392224D01*
X383169Y187894D02*
X392224Y178839D01*
X408819Y174311D02*
X412854Y170276D01*
X395079Y170177D02*
X402756D01*
X402854Y170276D01*
X389764Y197343D02*
X396831Y190276D01*
X402854D01*
X407854Y195276D02*
X412854Y190276D01*
X396161Y195276D02*
X407854D01*
X391339Y200098D02*
X396161Y195276D01*
X237008Y15256D02*
Y33563D01*
X241964Y38519D02*
Y46654D01*
X237008Y33563D02*
X241964Y38519D01*
X251964Y37496D02*
Y46654D01*
X247146Y32677D02*
X251964Y37496D01*
X247146Y10827D02*
Y32677D01*
X257087Y37402D02*
Y53937D01*
X251969Y32283D02*
X257087Y37402D01*
X251969Y24847D02*
Y32283D01*
X261964Y36472D02*
Y46654D01*
X257087Y31594D02*
X261964Y36472D01*
X257087Y12205D02*
Y31594D01*
X246949Y37894D02*
Y54823D01*
X241964Y32909D02*
X246949Y37894D01*
X241964Y24843D02*
Y32909D01*
X237008Y15256D02*
X239961Y12303D01*
X290256Y32185D02*
Y52854D01*
X286319Y56791D02*
X290256Y52854D01*
X259941Y56791D02*
X286319D01*
X292520Y33268D02*
Y54626D01*
X287697Y59449D02*
X292520Y54626D01*
X251575Y59449D02*
X287697D01*
X246949Y54823D02*
X251575Y59449D01*
X247146Y10827D02*
X252067Y5906D01*
X258760D01*
X257087Y53937D02*
X259941Y56791D01*
X251964Y24843D02*
X251969Y24847D01*
X271964Y37614D02*
Y46654D01*
X267028Y32677D02*
X271964Y37614D01*
X267028Y15354D02*
Y32677D01*
Y15354D02*
X269488Y12894D01*
X261964Y13331D02*
X265059Y10236D01*
X261964Y13331D02*
Y24843D01*
X257087Y12205D02*
X261221Y8071D01*
X226870Y10236D02*
X233268Y3839D01*
X283228Y24843D02*
X293012Y15059D01*
X271964Y24843D02*
X283228D01*
X231964Y38559D02*
Y46654D01*
X226870Y33465D02*
X231964Y38559D01*
X226870Y10236D02*
Y33465D01*
X221964Y46654D02*
Y57988D01*
X206102Y37500D02*
Y65847D01*
X201964Y33362D02*
X206102Y37500D01*
X201964Y24843D02*
Y33362D01*
X211964Y24843D02*
Y33508D01*
X207677Y37795D02*
X211964Y33508D01*
X207677Y37795D02*
Y60324D01*
X221964Y24843D02*
Y32662D01*
X217028Y37598D02*
X221964Y32662D01*
X217028Y37598D02*
Y58760D01*
X211964Y46654D02*
Y59602D01*
X191964Y24843D02*
Y32614D01*
X181964Y24843D02*
Y34031D01*
X161949Y33996D02*
X166634Y38681D01*
X161949Y24843D02*
Y33996D01*
X171949Y24843D02*
Y33858D01*
X151949Y24843D02*
Y34232D01*
X156693Y38976D01*
X131949Y24843D02*
Y34803D01*
X136811Y39665D01*
X151949Y46654D02*
Y126457D01*
X141949Y34272D02*
X146457Y38780D01*
X141949Y24843D02*
Y34272D01*
X131949Y46654D02*
Y137362D01*
X319587Y21161D02*
X319783Y21358D01*
X326673D01*
X286417Y242126D02*
X295866D01*
X295866Y242126D01*
X275787Y242126D02*
X286417D01*
X249114Y237697D02*
X252559Y241142D01*
X474252Y157874D02*
Y166496D01*
X468307Y172441D02*
X474252Y166496D01*
X451279Y172441D02*
X468307D01*
X442520Y181201D02*
X451279Y172441D01*
X442716Y236713D02*
X444980Y234449D01*
Y196260D02*
Y234449D01*
Y196260D02*
X450833Y190407D01*
X451774D01*
X451772Y244587D02*
X451772Y244587D01*
X67323Y103248D02*
Y116437D01*
X60335Y123425D02*
X67323Y116437D01*
X40453Y123425D02*
X60335D01*
X484252Y169488D02*
X488583Y173819D01*
X530512D01*
X533104Y171227D01*
Y167618D02*
Y171227D01*
X512697Y167618D02*
X516043D01*
X511319Y166240D02*
X512697Y167618D01*
X511319Y151378D02*
Y166240D01*
X508268Y148327D02*
X511319Y151378D01*
X467126Y148327D02*
X508268D01*
X464252Y151201D02*
X467126Y148327D01*
X464252Y151201D02*
Y157874D01*
X516043Y167618D02*
X524574D01*
X533104D02*
X541634D01*
X524574Y159744D02*
X533104D01*
X451774Y210092D02*
Y235919D01*
X40453Y123425D02*
Y177953D01*
X384252Y155217D02*
X421161D01*
X424264Y152114D01*
Y113583D02*
Y152114D01*
X420957Y110276D02*
X424264Y113583D01*
X412854Y110276D02*
X420957D01*
X292520Y33268D02*
X299114Y26673D01*
X484252Y157874D02*
Y168996D01*
X301575Y55898D02*
X301583Y55905D01*
X306583D01*
X412854Y180276D02*
X423268D01*
X412854Y200276D02*
X424035D01*
X286417Y26969D02*
Y42323D01*
Y26969D02*
X295669Y17717D01*
X290256Y32185D02*
X297835Y24606D01*
X412854Y210276D02*
X425551D01*
X410039Y215256D02*
X425197D01*
X412854Y220276D02*
X425394D01*
X407874Y225295D02*
X433957D01*
X407972Y213189D02*
X410039Y215256D01*
X407972Y204823D02*
Y213189D01*
X403425Y200276D02*
X407972Y204823D01*
X402854Y200276D02*
X403425D01*
X402854Y220276D02*
X407874Y225295D01*
D29*
X524574Y167618D02*
D03*
Y159744D02*
D03*
X442224Y236713D02*
D03*
Y244587D02*
D03*
X286417Y242126D02*
D03*
Y234252D02*
D03*
X295866Y242126D02*
D03*
Y234252D02*
D03*
X533104Y182776D02*
D03*
Y190650D02*
D03*
Y159744D02*
D03*
Y167618D02*
D03*
X541634Y159744D02*
D03*
Y167618D02*
D03*
X516043Y159744D02*
D03*
Y167618D02*
D03*
X433268Y244587D02*
D03*
Y236713D02*
D03*
X451772Y244587D02*
D03*
Y236713D02*
D03*
X460630Y244587D02*
D03*
Y236713D02*
D03*
D32*
X275295Y241634D02*
X375492D01*
X386850Y230276D02*
X402854D01*
X375492Y241634D02*
X386850Y230276D01*
X219094Y84547D02*
X223425Y80216D01*
X110236Y34941D02*
X111949Y33228D01*
X93012Y34941D02*
X110236D01*
X65059Y92028D02*
X82087Y109055D01*
Y193405D01*
X78543Y72539D02*
X87008Y64075D01*
Y37402D02*
Y64075D01*
X81949Y32342D02*
X87008Y37402D01*
X81949Y24843D02*
Y32342D01*
X111949Y24843D02*
Y33228D01*
X71654Y203839D02*
X82087Y193405D01*
X42126Y203839D02*
X71654D01*
X16535D02*
X42126D01*
X209055Y84547D02*
X219094D01*
D34*
X504252Y157874D02*
D03*
X494252D02*
D03*
X474252D02*
D03*
X484252D02*
D03*
X16535Y221555D02*
D03*
Y203839D02*
D03*
X42126Y221555D02*
D03*
Y203839D02*
D03*
X209055Y75098D02*
D03*
Y96161D02*
D03*
X116043Y93799D02*
D03*
D35*
X464252Y157874D02*
D03*
D36*
X186030Y200295D02*
D03*
D37*
X106096D02*
D03*
D38*
X402854Y60276D02*
D03*
X412854D02*
D03*
Y70276D02*
D03*
X402854D02*
D03*
X412854Y80276D02*
D03*
X402854D02*
D03*
X412854Y90276D02*
D03*
X402854D02*
D03*
X412854Y100276D02*
D03*
X402854D02*
D03*
X412854Y110276D02*
D03*
X402854D02*
D03*
X412854Y120276D02*
D03*
X402854D02*
D03*
X412854Y130276D02*
D03*
X402854D02*
D03*
X412854Y190276D02*
D03*
X402854D02*
D03*
X412854Y200276D02*
D03*
X402854Y220276D02*
D03*
X412854Y230276D02*
D03*
D39*
Y140276D02*
D03*
X402854D02*
D03*
X412854Y150276D02*
D03*
X402854D02*
D03*
X412854Y170276D02*
D03*
X402854D02*
D03*
X412854Y180276D02*
D03*
X402854D02*
D03*
Y200276D02*
D03*
X412854Y210276D02*
D03*
X402854D02*
D03*
X412854Y220276D02*
D03*
D40*
Y160276D02*
D03*
X402854D02*
D03*
D41*
Y230276D02*
D03*
D42*
X451774Y210092D02*
D03*
Y200250D02*
D03*
Y190407D02*
D03*
X516734Y210092D02*
D03*
Y190407D02*
D03*
D43*
X484943Y200250D02*
D03*
D44*
X540050Y12307D02*
D03*
Y242913D02*
D03*
X11220D02*
D03*
D45*
X541339Y196850D02*
D03*
X531496Y137795D02*
D03*
X541339Y118110D02*
D03*
X531496Y98425D02*
D03*
X541339Y78740D02*
D03*
X531496Y59055D02*
D03*
X541339Y39370D02*
D03*
X511811Y216535D02*
D03*
X521654Y196850D02*
D03*
X511811Y137795D02*
D03*
X521654Y118110D02*
D03*
Y78740D02*
D03*
X511811Y59055D02*
D03*
X521654Y39370D02*
D03*
X511811Y19685D02*
D03*
X501968Y236221D02*
D03*
X492126Y177165D02*
D03*
Y137795D02*
D03*
X501968Y118110D02*
D03*
Y39370D02*
D03*
X492126Y19685D02*
D03*
X482283Y236221D02*
D03*
X472441Y177165D02*
D03*
Y137795D02*
D03*
Y59055D02*
D03*
X482283Y39370D02*
D03*
X472441Y19685D02*
D03*
X462599Y196850D02*
D03*
X452756Y177165D02*
D03*
Y137795D02*
D03*
X462599Y118110D02*
D03*
X452756Y98425D02*
D03*
Y59055D02*
D03*
X462599Y39370D02*
D03*
X452756Y19685D02*
D03*
X433071D02*
D03*
X423228Y196850D02*
D03*
Y157480D02*
D03*
Y78740D02*
D03*
Y39370D02*
D03*
X393701Y98425D02*
D03*
Y59055D02*
D03*
X383858Y118110D02*
D03*
X374016Y98425D02*
D03*
X383858Y78740D02*
D03*
X374016Y59055D02*
D03*
X383858Y39370D02*
D03*
X354331Y137795D02*
D03*
X364173Y118110D02*
D03*
X354331Y98425D02*
D03*
X364173Y78740D02*
D03*
X354331Y59055D02*
D03*
X364173Y39370D02*
D03*
X334646Y177165D02*
D03*
X344488Y157480D02*
D03*
X334646Y137795D02*
D03*
X344488Y118110D02*
D03*
X334646Y98425D02*
D03*
X344488Y78740D02*
D03*
X324803Y157480D02*
D03*
Y118110D02*
D03*
X295276Y137795D02*
D03*
X305118Y39370D02*
D03*
X275591Y137795D02*
D03*
X285433Y118110D02*
D03*
X275591Y98425D02*
D03*
X265748Y118110D02*
D03*
Y39370D02*
D03*
X236221Y177165D02*
D03*
Y59055D02*
D03*
X216535Y177165D02*
D03*
Y98425D02*
D03*
X206693Y196850D02*
D03*
Y157480D02*
D03*
X196850Y19685D02*
D03*
X187008Y157480D02*
D03*
X167323Y196850D02*
D03*
X157480Y177165D02*
D03*
X137795Y216535D02*
D03*
X147638Y196850D02*
D03*
X137795Y177165D02*
D03*
X147638Y157480D02*
D03*
X118110Y216535D02*
D03*
Y177165D02*
D03*
X127953Y157480D02*
D03*
X118110Y137795D02*
D03*
X127953Y118110D02*
D03*
Y78740D02*
D03*
X118110Y59055D02*
D03*
X127953Y39370D02*
D03*
X98425Y216535D02*
D03*
Y177165D02*
D03*
Y137795D02*
D03*
Y98425D02*
D03*
Y59055D02*
D03*
X108268Y39370D02*
D03*
X78740Y216535D02*
D03*
Y177165D02*
D03*
Y137795D02*
D03*
Y98425D02*
D03*
Y59055D02*
D03*
X59055Y216535D02*
D03*
X68898Y196850D02*
D03*
X59055Y177165D02*
D03*
X68898Y157480D02*
D03*
X59055Y137795D02*
D03*
Y98425D02*
D03*
X49213Y236221D02*
D03*
Y157480D02*
D03*
X29528Y236221D02*
D03*
Y196850D02*
D03*
X19685Y177165D02*
D03*
X29528Y157480D02*
D03*
X19685Y137795D02*
D03*
X29528Y118110D02*
D03*
D46*
X331457Y63356D02*
D03*
X266534Y69823D02*
D03*
X301663Y90283D02*
D03*
X306647Y49714D02*
D03*
X311675Y69784D02*
D03*
X306549Y72244D02*
D03*
X326580Y86368D02*
D03*
X254454Y104035D02*
D03*
X184802Y171792D02*
D03*
X151939D02*
D03*
X179762Y166105D02*
D03*
X156660Y166037D02*
D03*
X180297Y183005D02*
D03*
X166638Y183011D02*
D03*
X168110Y193012D02*
D03*
X209024Y149268D02*
D03*
X178709D02*
D03*
X176833Y133472D02*
D03*
X151911Y127174D02*
D03*
X156655D02*
D03*
X161970D02*
D03*
X166562D02*
D03*
X222058Y133390D02*
D03*
X211794Y133222D02*
D03*
X201449Y142797D02*
D03*
X172031Y127174D02*
D03*
X240644Y134533D02*
D03*
X241965Y130466D02*
D03*
X217080Y127531D02*
D03*
X260736Y128287D02*
D03*
X363779Y140191D02*
D03*
X187795Y145276D02*
D03*
X204564Y124310D02*
D03*
X200857Y132679D02*
D03*
X254514Y122644D02*
D03*
X238707Y120631D02*
D03*
X191895Y60131D02*
D03*
X192913Y142011D02*
D03*
X265945Y185728D02*
D03*
X214862Y120866D02*
D03*
X208563Y116535D02*
D03*
X230709Y82972D02*
D03*
X377157Y140150D02*
D03*
X259860Y185830D02*
D03*
X370184Y164511D02*
D03*
X343868Y213875D02*
D03*
X382579Y167323D02*
D03*
X383131Y187949D02*
D03*
X375769Y184256D02*
D03*
X375996Y199418D02*
D03*
X354343Y214379D02*
D03*
X361529Y214782D02*
D03*
X370201Y212687D02*
D03*
X385834Y209194D02*
D03*
X384855Y204241D02*
D03*
X231988Y27953D02*
D03*
X239961Y12303D02*
D03*
X233268Y9252D02*
D03*
X91929Y34941D02*
D03*
X447047Y244488D02*
D03*
X533169Y182579D02*
D03*
X533268Y159449D02*
D03*
X319587Y21161D02*
D03*
X40453Y123425D02*
D03*
Y177953D02*
D03*
X383858Y155217D02*
D03*
X484252Y169488D02*
D03*
X286417Y42421D02*
D03*
X445571Y170374D02*
D03*
X333071Y30413D02*
D03*
X218996Y8760D02*
D03*
X435827Y215354D02*
D03*
D47*
X223425Y80216D02*
D03*
X65059Y92028D02*
D03*
X78150Y72933D02*
D03*
X209055Y84547D02*
D03*
X111909Y84449D02*
D03*
X67323Y103248D02*
D03*
D48*
X70153Y244276D02*
D03*
Y45776D02*
D03*
X408343D02*
D03*
Y244276D02*
D03*
D49*
X484915Y89472D02*
D03*
D50*
X239075Y191339D02*
D03*
Y95276D02*
D03*
D51*
X228445Y181693D02*
D03*
Y179724D02*
D03*
Y177756D02*
D03*
Y175787D02*
D03*
Y173819D02*
D03*
Y171850D02*
D03*
Y169882D02*
D03*
Y167913D02*
D03*
Y165945D02*
D03*
Y163976D02*
D03*
Y162008D02*
D03*
Y160039D02*
D03*
Y158071D02*
D03*
Y156102D02*
D03*
Y154134D02*
D03*
Y152165D02*
D03*
Y150197D02*
D03*
Y148228D02*
D03*
Y146260D02*
D03*
Y144291D02*
D03*
Y142323D02*
D03*
Y140354D02*
D03*
Y138386D02*
D03*
Y136417D02*
D03*
Y134449D02*
D03*
Y132480D02*
D03*
Y130512D02*
D03*
Y128543D02*
D03*
Y126575D02*
D03*
Y124606D02*
D03*
Y122638D02*
D03*
Y120669D02*
D03*
Y118701D02*
D03*
Y116732D02*
D03*
Y114764D02*
D03*
Y112795D02*
D03*
Y110827D02*
D03*
Y108858D02*
D03*
Y106890D02*
D03*
Y104921D02*
D03*
D52*
X301583Y78740D02*
D03*
X306583D02*
D03*
X311583D02*
D03*
X316583D02*
D03*
X321583D02*
D03*
X326583D02*
D03*
X331583D02*
D03*
X336583D02*
D03*
X301583Y55905D02*
D03*
X306583D02*
D03*
X311583D02*
D03*
X316583D02*
D03*
X321583D02*
D03*
X326583D02*
D03*
X331583D02*
D03*
X336583D02*
D03*
D53*
X181964Y24843D02*
D03*
X191964D02*
D03*
X201964D02*
D03*
X211964D02*
D03*
X221964D02*
D03*
X231964D02*
D03*
X241964D02*
D03*
X251964D02*
D03*
X261964D02*
D03*
X271964D02*
D03*
Y46654D02*
D03*
X261964D02*
D03*
X251964D02*
D03*
X241964D02*
D03*
X231964D02*
D03*
X221964D02*
D03*
X211964D02*
D03*
X201964D02*
D03*
X191964D02*
D03*
X181964D02*
D03*
X81949Y24843D02*
D03*
X91949D02*
D03*
X101949D02*
D03*
X111949D02*
D03*
X121949D02*
D03*
X131949D02*
D03*
X141949D02*
D03*
X151949D02*
D03*
X161949D02*
D03*
X171949D02*
D03*
Y46654D02*
D03*
X161949D02*
D03*
X151949D02*
D03*
X141949D02*
D03*
X131949D02*
D03*
X121949D02*
D03*
X111949D02*
D03*
X101949D02*
D03*
X91949D02*
D03*
X81949D02*
D03*
D54*
X249114Y237697D02*
D03*
D55*
X240059Y214862D02*
D03*
X249114D02*
D03*
X258169D02*
D03*
D56*
X222228Y227362D02*
D03*
Y241142D02*
D03*
X274803Y241142D02*
D03*
Y227362D02*
D03*
D57*
X106890Y64272D02*
Y178150D01*
X249114Y205512D02*
Y214862D01*
X247244Y203642D02*
X249114Y205512D01*
X212992Y213681D02*
X223031Y203642D01*
X247244D01*
X142421Y213681D02*
X212992D01*
X106890Y178150D02*
X142421Y213681D01*
X90158Y216929D02*
X100590Y227362D01*
X90158Y100886D02*
Y216929D01*
X61024Y71752D02*
X90158Y100886D01*
X61024Y17293D02*
Y71752D01*
Y17293D02*
X69248Y9068D01*
X116942D01*
X121949Y14075D01*
Y24843D01*
X111811Y49409D02*
Y59350D01*
X106890Y64272D02*
X111811Y59350D01*
X100590Y227362D02*
X222228D01*
Y216946D02*
X224311Y214862D01*
X240059D01*
X222228Y216946D02*
Y227362D01*
D58*
X209055Y96161D02*
Y109252D01*
X214567Y114764D02*
X216535Y116732D01*
X228445D01*
X209055Y109252D02*
X214567Y114764D01*
D59*
X249114Y214862D02*
Y237697D01*
X252559Y241142D02*
X274803D01*
X402854Y230276D02*
X412854D01*
M02*
