G04*
G04 #@! TF.GenerationSoftware,Altium Limited,Altium Designer,21.2.1 (34)*
G04*
G04 Layer_Physical_Order=1*
G04 Layer_Color=255*
%FSLAX25Y25*%
%MOIN*%
G70*
G04*
G04 #@! TF.SameCoordinates,AD134648-67B5-4B84-B7A5-465A691CB966*
G04*
G04*
G04 #@! TF.FilePolarity,Positive*
G04*
G01*
G75*
%ADD17C,0.03150*%
%ADD45R,0.03937X0.04921*%
%ADD46R,0.05512X0.09449*%
%ADD47R,0.04921X0.03937*%
%ADD48R,0.11811X0.19685*%
%ADD49R,0.04724X0.12598*%
%ADD50R,0.03583X0.04803*%
%ADD51R,0.06299X0.03937*%
%ADD52R,0.09449X0.03937*%
%ADD53R,0.19685X0.19685*%
%ADD54C,0.01575*%
%ADD55C,0.02362*%
%ADD56C,0.05906*%
%ADD57C,0.07874*%
%ADD58C,0.03937*%
%ADD59C,0.07087*%
%ADD60R,0.07087X0.05020*%
%ADD61R,0.07087X0.04528*%
%ADD62C,0.06299*%
%ADD63R,0.07874X0.07874*%
%ADD64O,0.07874X0.06693*%
%ADD65O,0.06693X0.07874*%
%ADD66C,0.07874*%
%ADD67C,0.04724*%
%ADD68C,0.07480*%
%ADD69C,0.06000*%
%ADD70P,0.05114X8X22.5*%
%ADD71P,0.06392X8X292.5*%
%ADD72C,0.05906*%
%ADD73C,0.08268*%
%ADD74C,0.19685*%
%ADD75C,0.07087*%
%ADD76P,0.08523X8X22.5*%
%ADD77O,0.07874X0.11811*%
%ADD78C,0.09843*%
%ADD79C,0.11811*%
%ADD80C,0.03150*%
G36*
X263960Y232942D02*
X264528Y232155D01*
X264444Y231299D01*
X264565Y230064D01*
X264926Y228877D01*
X265511Y227783D01*
X266298Y226823D01*
X267257Y226036D01*
X268351Y225451D01*
X268459Y225419D01*
X268528Y225271D01*
X268579Y224559D01*
X267966Y224088D01*
X267335Y223266D01*
X266938Y222308D01*
X266803Y221281D01*
X266807Y221245D01*
X260842Y215280D01*
X232333D01*
Y218451D01*
X232361Y218473D01*
X232992Y219295D01*
X233389Y220253D01*
X233524Y221281D01*
X233389Y222308D01*
X232992Y223266D01*
X232361Y224088D01*
X231747Y224559D01*
X231798Y225271D01*
X231868Y225419D01*
X231975Y225451D01*
X233070Y226036D01*
X234029Y226823D01*
X234816Y227783D01*
X235401Y228877D01*
X235761Y230064D01*
X235883Y231299D01*
X235799Y232155D01*
X236367Y232942D01*
X236368Y232943D01*
X246453D01*
X246840Y232283D01*
X250774D01*
X254707D01*
X255094Y232943D01*
X263959D01*
X263960Y232942D01*
D02*
G37*
G36*
X140366Y232849D02*
X140867Y232155D01*
X140782Y231299D01*
X140904Y230064D01*
X141264Y228877D01*
X141849Y227783D01*
X142636Y226823D01*
X143596Y226036D01*
X144690Y225451D01*
X144797Y225419D01*
X144867Y225271D01*
X144918Y224559D01*
X144304Y224088D01*
X143673Y223266D01*
X143277Y222308D01*
X143141Y221281D01*
X143277Y220253D01*
X143673Y219295D01*
X144304Y218473D01*
X144333Y218451D01*
Y215280D01*
X115824D01*
X109858Y221245D01*
X109863Y221281D01*
X109727Y222308D01*
X109331Y223266D01*
X108700Y224088D01*
X108086Y224559D01*
X108137Y225271D01*
X108207Y225419D01*
X108314Y225451D01*
X109408Y226036D01*
X110368Y226823D01*
X111155Y227783D01*
X111156Y227785D01*
X116314Y232943D01*
X122792D01*
X123179Y232283D01*
X127112D01*
X131045D01*
X131432Y232943D01*
X140205D01*
X140366Y232849D01*
D02*
G37*
G36*
X182087Y232155D02*
X182003Y231299D01*
X182125Y230064D01*
X182485Y228877D01*
X183070Y227783D01*
X183857Y226823D01*
X184816Y226036D01*
X185910Y225451D01*
X186018Y225419D01*
X186087Y225271D01*
X186138Y224559D01*
X185525Y224088D01*
X184894Y223266D01*
X184497Y222308D01*
X184362Y221281D01*
X184497Y220253D01*
X184894Y219295D01*
X185525Y218473D01*
X185553Y218451D01*
Y215280D01*
X149892D01*
Y218451D01*
X149920Y218473D01*
X150551Y219295D01*
X150948Y220253D01*
X151083Y221281D01*
X150948Y222308D01*
X150551Y223266D01*
X149920Y224088D01*
X149306Y224559D01*
X149357Y225271D01*
X149427Y225419D01*
X149534Y225451D01*
X150629Y226036D01*
X151588Y226823D01*
X152375Y227783D01*
X152960Y228877D01*
X153320Y230064D01*
X153442Y231299D01*
X153358Y232155D01*
X153859Y232849D01*
X154019Y232943D01*
X164013D01*
X164399Y232283D01*
X168333D01*
X172266D01*
X172653Y232943D01*
X181518D01*
X182087Y232155D01*
D02*
G37*
G36*
X223308D02*
X223223Y231299D01*
X223345Y230064D01*
X223705Y228877D01*
X224290Y227783D01*
X225077Y226823D01*
X226037Y226036D01*
X227131Y225451D01*
X227238Y225419D01*
X227308Y225271D01*
X227359Y224559D01*
X226745Y224088D01*
X226114Y223266D01*
X225717Y222308D01*
X225582Y221281D01*
X225717Y220253D01*
X226114Y219295D01*
X226745Y218473D01*
X226773Y218451D01*
Y215280D01*
X191112D01*
Y218451D01*
X191141Y218473D01*
X191772Y219295D01*
X192168Y220253D01*
X192304Y221281D01*
X192168Y222308D01*
X191772Y223266D01*
X191141Y224088D01*
X190527Y224559D01*
X190578Y225271D01*
X190648Y225419D01*
X190755Y225451D01*
X191849Y226036D01*
X192808Y226823D01*
X193596Y227783D01*
X194181Y228877D01*
X194541Y230064D01*
X194662Y231299D01*
X194578Y232155D01*
X195146Y232942D01*
X195148Y232943D01*
X205233D01*
X205620Y232283D01*
X209553D01*
X213486D01*
X213873Y232943D01*
X222739D01*
X223308Y232155D01*
D02*
G37*
G36*
X525095Y241972D02*
X526820Y241558D01*
X528459Y240879D01*
X529971Y239952D01*
X531320Y238800D01*
X532472Y237451D01*
X533398Y235939D01*
X534077Y234300D01*
X534491Y232575D01*
X534624Y230891D01*
X534607Y230807D01*
X534607Y13287D01*
X534624Y13203D01*
X534491Y11519D01*
X534077Y9794D01*
X533398Y8156D01*
X532472Y6643D01*
X531320Y5294D01*
X529971Y4143D01*
X528459Y3216D01*
X526820Y2537D01*
X525095Y2123D01*
X524099Y2044D01*
X523327Y2007D01*
X522540Y2007D01*
X366831Y2007D01*
Y7280D01*
X360531D01*
Y2007D01*
X13287Y2007D01*
X13203Y1990D01*
X11519Y2123D01*
X9794Y2537D01*
X8156Y3216D01*
X6643Y4143D01*
X5294Y5294D01*
X4143Y6643D01*
X3216Y8156D01*
X2537Y9794D01*
X2123Y11519D01*
X1990Y13203D01*
X2007Y13287D01*
X2007Y132382D01*
Y230020D01*
X2007Y230031D01*
X2007Y230807D01*
X2044Y231579D01*
X2123Y232575D01*
X2537Y234300D01*
X3216Y235939D01*
X4143Y237451D01*
X5294Y238800D01*
X6643Y239952D01*
X8156Y240879D01*
X9794Y241558D01*
X11519Y241972D01*
X13203Y242104D01*
X13287Y242087D01*
X81595Y242087D01*
X107086D01*
X107387Y241360D01*
X102836Y236808D01*
X102375Y236562D01*
X101416Y235775D01*
X100629Y234816D01*
X100044Y233721D01*
X99684Y232534D01*
X99562Y231299D01*
X99684Y230064D01*
X100044Y228877D01*
X100629Y227783D01*
X101416Y226823D01*
X102375Y226036D01*
X103470Y225451D01*
X103577Y225419D01*
X103647Y225271D01*
X103698Y224559D01*
X103084Y224088D01*
X102453Y223266D01*
X102056Y222308D01*
X101921Y221281D01*
X102056Y220253D01*
X102453Y219295D01*
X103084Y218473D01*
X103906Y217842D01*
X104864Y217445D01*
X105892Y217309D01*
X105927Y217314D01*
X112751Y210490D01*
Y193099D01*
X111964Y192982D01*
X111740Y193721D01*
X111155Y194816D01*
X110368Y195775D01*
X109408Y196562D01*
X108314Y197147D01*
X107127Y197507D01*
X105892Y197629D01*
X104657Y197507D01*
X103470Y197147D01*
X102375Y196562D01*
X101416Y195775D01*
X100629Y194816D01*
X100044Y193721D01*
X99684Y192534D01*
X99562Y191299D01*
X99684Y190064D01*
X100044Y188877D01*
X100629Y187783D01*
X101416Y186823D01*
X102375Y186036D01*
X103470Y185451D01*
X104657Y185091D01*
X105892Y184969D01*
X107127Y185091D01*
X108314Y185451D01*
X109408Y186036D01*
X110368Y186823D01*
X111155Y187783D01*
X111740Y188877D01*
X111964Y189616D01*
X112751Y189499D01*
Y92568D01*
X111964Y92451D01*
X111936Y92541D01*
X111352Y93636D01*
X110564Y94595D01*
X109605Y95382D01*
X108511Y95967D01*
X107324Y96327D01*
X106089Y96449D01*
X104854Y96327D01*
X103666Y95967D01*
X102572Y95382D01*
X101613Y94595D01*
X100826Y93636D01*
X100241Y92541D01*
X99880Y91354D01*
X99759Y90119D01*
X99880Y88884D01*
X100241Y87697D01*
X100826Y86602D01*
X101613Y85643D01*
X102572Y84856D01*
X103666Y84271D01*
X104854Y83911D01*
X106089Y83789D01*
X107324Y83911D01*
X108511Y84271D01*
X109605Y84856D01*
X110564Y85643D01*
X111352Y86602D01*
X111936Y87697D01*
X111964Y87787D01*
X112751Y87670D01*
Y70732D01*
X106124Y64104D01*
X106089Y64109D01*
X105061Y63973D01*
X104103Y63577D01*
X103281Y62946D01*
X102650Y62123D01*
X102253Y61166D01*
X102118Y60138D01*
X102253Y59110D01*
X102650Y58152D01*
X103281Y57330D01*
X104103Y56699D01*
X105061Y56302D01*
X106089Y56167D01*
X107116Y56302D01*
X108074Y56699D01*
X108897Y57330D01*
X109528Y58152D01*
X109924Y59110D01*
X110060Y60138D01*
X110055Y60173D01*
X116682Y66800D01*
X144529D01*
Y62967D01*
X144501Y62946D01*
X143870Y62123D01*
X143473Y61166D01*
X143338Y60138D01*
X143473Y59110D01*
X143870Y58152D01*
X144501Y57330D01*
X145324Y56699D01*
X146281Y56302D01*
X147309Y56167D01*
X148337Y56302D01*
X149295Y56699D01*
X150117Y57330D01*
X150748Y58152D01*
X151145Y59110D01*
X151280Y60138D01*
X151145Y61166D01*
X150748Y62123D01*
X150117Y62946D01*
X150089Y62967D01*
Y66800D01*
X185750D01*
Y62967D01*
X185722Y62946D01*
X185091Y62123D01*
X184694Y61166D01*
X184558Y60138D01*
X184694Y59110D01*
X185091Y58152D01*
X185722Y57330D01*
X186544Y56699D01*
X187502Y56302D01*
X188530Y56167D01*
X189557Y56302D01*
X190515Y56699D01*
X191337Y57330D01*
X191969Y58152D01*
X192365Y59110D01*
X192500Y60138D01*
X192365Y61166D01*
X191969Y62123D01*
X191337Y62946D01*
X191309Y62967D01*
Y66800D01*
X226970D01*
Y62967D01*
X226942Y62946D01*
X226311Y62123D01*
X225914Y61166D01*
X225779Y60138D01*
X225914Y59110D01*
X226311Y58152D01*
X226942Y57330D01*
X227765Y56699D01*
X228722Y56302D01*
X229750Y56167D01*
X230778Y56302D01*
X231735Y56699D01*
X232558Y57330D01*
X233189Y58152D01*
X233586Y59110D01*
X233721Y60138D01*
X233586Y61166D01*
X233189Y62123D01*
X232558Y62946D01*
X232530Y62967D01*
Y66800D01*
X260377D01*
X267004Y60173D01*
X266999Y60138D01*
X267135Y59110D01*
X267531Y58152D01*
X268162Y57330D01*
X268985Y56699D01*
X269943Y56302D01*
X270970Y56167D01*
X271998Y56302D01*
X272956Y56699D01*
X273778Y57330D01*
X273800Y57358D01*
X284478D01*
X293579Y48258D01*
Y21722D01*
X292746Y20890D01*
X288885D01*
X288755Y21058D01*
X287892Y21721D01*
X286886Y22138D01*
X285807Y22280D01*
X284626D01*
X283547Y22138D01*
X282541Y21721D01*
X281678Y21058D01*
X281015Y20195D01*
X280625Y19254D01*
X280557Y19227D01*
X279819Y19344D01*
X279343Y20493D01*
X278586Y21480D01*
X277599Y22237D01*
X276450Y22713D01*
X276449Y22713D01*
Y23507D01*
X276450Y23507D01*
X277599Y23983D01*
X278586Y24741D01*
X279343Y25728D01*
X279819Y26877D01*
X280557Y26994D01*
X280625Y26966D01*
X281015Y26026D01*
X281678Y25162D01*
X282541Y24499D01*
X283547Y24083D01*
X284232Y23992D01*
Y28110D01*
Y32228D01*
X283547Y32138D01*
X282541Y31721D01*
X281678Y31058D01*
X281015Y30195D01*
X280625Y29254D01*
X280557Y29227D01*
X279819Y29344D01*
X279343Y30493D01*
X278586Y31480D01*
X277599Y32237D01*
X276450Y32713D01*
X275217Y32875D01*
X273983Y32713D01*
X272834Y32237D01*
X271847Y31480D01*
X271090Y30493D01*
X270614Y29344D01*
X270451Y28110D01*
X270614Y26877D01*
X271090Y25728D01*
X271847Y24741D01*
X272834Y23983D01*
X273983Y23507D01*
X273984Y23507D01*
Y22713D01*
X273983Y22713D01*
X272834Y22237D01*
X271847Y21480D01*
X271090Y20493D01*
X270614Y19344D01*
X270614Y19343D01*
X269819D01*
X269819Y19344D01*
X269343Y20493D01*
X268586Y21480D01*
X267599Y22237D01*
X266450Y22713D01*
X266333Y23451D01*
X266360Y23519D01*
X267301Y23909D01*
X268165Y24571D01*
X268827Y25435D01*
X269244Y26441D01*
X269386Y27520D01*
Y28701D01*
X269244Y29780D01*
X268827Y30786D01*
X268165Y31649D01*
X267301Y32312D01*
X266296Y32728D01*
X265216Y32870D01*
X264137Y32728D01*
X263132Y32312D01*
X262268Y31649D01*
X261606Y30786D01*
X261189Y29780D01*
X261047Y28701D01*
Y27520D01*
X261189Y26441D01*
X261606Y25435D01*
X262268Y24571D01*
X263132Y23909D01*
X264073Y23519D01*
X264100Y23451D01*
X263983Y22713D01*
X262834Y22237D01*
X261847Y21480D01*
X261090Y20493D01*
X260614Y19344D01*
X260614Y19343D01*
X259819D01*
X259819Y19344D01*
X259343Y20493D01*
X258586Y21480D01*
X257599Y22237D01*
X256450Y22713D01*
X256333Y23451D01*
X256360Y23519D01*
X257301Y23909D01*
X258165Y24571D01*
X258827Y25435D01*
X259244Y26441D01*
X259386Y27520D01*
Y28701D01*
X259244Y29780D01*
X258827Y30786D01*
X258165Y31649D01*
X257301Y32312D01*
X256296Y32728D01*
X255217Y32870D01*
X254137Y32728D01*
X253132Y32312D01*
X252268Y31649D01*
X251606Y30786D01*
X251189Y29780D01*
X251047Y28701D01*
Y27520D01*
X251189Y26441D01*
X251606Y25435D01*
X252268Y24571D01*
X253132Y23909D01*
X254073Y23519D01*
X254100Y23451D01*
X253983Y22713D01*
X252834Y22237D01*
X251847Y21480D01*
X251090Y20493D01*
X250728Y19620D01*
X249941Y19777D01*
Y22835D01*
X246766D01*
X246609Y23622D01*
X247301Y23909D01*
X248165Y24571D01*
X248827Y25435D01*
X249244Y26441D01*
X249386Y27520D01*
Y28701D01*
X249244Y29780D01*
X248827Y30786D01*
X248165Y31649D01*
X247301Y32312D01*
X246296Y32728D01*
X245216Y32870D01*
X244137Y32728D01*
X243132Y32312D01*
X242268Y31649D01*
X241606Y30786D01*
X241189Y29780D01*
X241047Y28701D01*
Y27520D01*
X241189Y26441D01*
X241606Y25435D01*
X242268Y24571D01*
X243132Y23909D01*
X243824Y23622D01*
X243667Y22835D01*
X240492D01*
Y13386D01*
X249941D01*
Y16444D01*
X250728Y16600D01*
X251090Y15728D01*
X251847Y14741D01*
X252834Y13984D01*
X253983Y13507D01*
X255217Y13345D01*
X256450Y13507D01*
X257599Y13984D01*
X258586Y14741D01*
X259343Y15728D01*
X259819Y16877D01*
X259819Y16878D01*
X260614D01*
X260614Y16877D01*
X261090Y15728D01*
X261847Y14741D01*
X262834Y13984D01*
X263983Y13507D01*
X265216Y13345D01*
X266450Y13507D01*
X267599Y13984D01*
X268586Y14741D01*
X269343Y15728D01*
X269819Y16877D01*
X269819Y16878D01*
X270614D01*
X270614Y16877D01*
X271090Y15728D01*
X271847Y14741D01*
X272834Y13984D01*
X273983Y13507D01*
X275217Y13345D01*
X276450Y13507D01*
X277599Y13984D01*
X278586Y14741D01*
X279343Y15728D01*
X279819Y16877D01*
X280557Y16994D01*
X280625Y16966D01*
X281015Y16025D01*
X281678Y15162D01*
X282541Y14499D01*
X283547Y14083D01*
X284626Y13941D01*
X285807D01*
X286886Y14083D01*
X287892Y14499D01*
X288755Y15162D01*
X288885Y15331D01*
X293898D01*
X294617Y15425D01*
X295287Y15703D01*
X295863Y16145D01*
X298324Y18605D01*
X298765Y19181D01*
X299043Y19851D01*
X299138Y20571D01*
Y49409D01*
X299043Y50129D01*
X298765Y50799D01*
X298324Y51375D01*
X287595Y62103D01*
X287020Y62545D01*
X286349Y62823D01*
X285630Y62918D01*
X273800D01*
X273778Y62946D01*
X272956Y63577D01*
X271998Y63973D01*
X270970Y64109D01*
X270935Y64104D01*
X263493Y71546D01*
X262918Y71987D01*
X262247Y72265D01*
X261528Y72360D01*
X118311D01*
Y209720D01*
X261993D01*
X262713Y209815D01*
X263383Y210093D01*
X263959Y210535D01*
X270738Y217314D01*
X270774Y217309D01*
X271801Y217445D01*
X272759Y217842D01*
X273582Y218473D01*
X274213Y219295D01*
X274478Y219937D01*
X275266Y219780D01*
Y196780D01*
X274478Y196408D01*
X274290Y196562D01*
X273196Y197147D01*
X272008Y197507D01*
X270774Y197629D01*
X269539Y197507D01*
X268351Y197147D01*
X267257Y196562D01*
X266298Y195775D01*
X265511Y194816D01*
X264926Y193721D01*
X264565Y192534D01*
X264444Y191299D01*
X264565Y190064D01*
X264926Y188877D01*
X265511Y187783D01*
X266298Y186823D01*
X267257Y186036D01*
X268351Y185451D01*
X269539Y185091D01*
X270774Y184969D01*
X272008Y185091D01*
X273196Y185451D01*
X274290Y186036D01*
X275249Y186823D01*
X276037Y187783D01*
X276621Y188877D01*
X276982Y190064D01*
X276995Y190197D01*
X277736Y190462D01*
X281160Y187039D01*
X282089Y186276D01*
X283149Y185709D01*
X284299Y185360D01*
X285496Y185243D01*
X290234D01*
X290734Y185091D01*
X291969Y184969D01*
X293203Y185091D01*
X293455Y185167D01*
X310483D01*
X310734Y185091D01*
X311969Y184969D01*
X313203Y185091D01*
X314391Y185451D01*
X315485Y186036D01*
X316444Y186823D01*
X317231Y187783D01*
X317816Y188877D01*
X318177Y190064D01*
X318298Y191299D01*
X318177Y192534D01*
X317816Y193721D01*
X317231Y194816D01*
X316444Y195775D01*
X315485Y196562D01*
X314391Y197147D01*
X313203Y197507D01*
X311969Y197629D01*
X310734Y197507D01*
X310483Y197431D01*
X293455D01*
X293203Y197507D01*
X291969Y197629D01*
X290734Y197507D01*
X290731Y197506D01*
X288035D01*
X287529Y198012D01*
Y205847D01*
X288284Y206017D01*
X288317Y206013D01*
X288814Y205365D01*
X289472Y204860D01*
X290238Y204543D01*
X291060Y204434D01*
X291882Y204543D01*
X292649Y204860D01*
X293149Y205244D01*
X339492D01*
X340414Y205428D01*
X341195Y205950D01*
X352621Y217375D01*
X353120Y217310D01*
X354148Y217445D01*
X355105Y217842D01*
X355928Y218473D01*
X356559Y219295D01*
X356956Y220253D01*
X357091Y221281D01*
X356956Y222308D01*
X356559Y223266D01*
X355928Y224089D01*
X355105Y224720D01*
X354148Y225116D01*
X353120Y225252D01*
X352092Y225116D01*
X351134Y224720D01*
X350312Y224089D01*
X349681Y223266D01*
X349284Y222308D01*
X349149Y221281D01*
X349215Y220781D01*
X338494Y210061D01*
X293041D01*
X292649Y210362D01*
X291882Y210680D01*
X291060Y210788D01*
X290238Y210680D01*
X289472Y210362D01*
X288814Y209858D01*
X288317Y209210D01*
X288284Y209205D01*
X287529Y209375D01*
Y219652D01*
X288317Y219808D01*
X288530Y219295D01*
X289161Y218473D01*
X289983Y217842D01*
X290941Y217445D01*
X291969Y217309D01*
X292996Y217445D01*
X293954Y217842D01*
X294777Y218473D01*
X295408Y219295D01*
X295804Y220253D01*
X295939Y221281D01*
X295874Y221780D01*
X304897Y230802D01*
X305717Y230509D01*
X305761Y230064D01*
X306121Y228877D01*
X306706Y227783D01*
X307493Y226823D01*
X308452Y226036D01*
X309546Y225451D01*
X309654Y225419D01*
X309723Y225271D01*
X309774Y224559D01*
X309161Y224088D01*
X308530Y223266D01*
X308133Y222308D01*
X308127Y222265D01*
X311969D01*
X315810D01*
X315804Y222308D01*
X315407Y223266D01*
X314776Y224088D01*
X314163Y224559D01*
X314214Y225271D01*
X314283Y225419D01*
X314391Y225451D01*
X315485Y226036D01*
X316444Y226823D01*
X317231Y227783D01*
X317816Y228877D01*
X318177Y230064D01*
X318298Y231299D01*
X318177Y232534D01*
X317816Y233721D01*
X317558Y234206D01*
X318029Y234993D01*
X327059D01*
X327531Y234206D01*
X327272Y233721D01*
X326912Y232534D01*
X326790Y231299D01*
X326912Y230064D01*
X327272Y228877D01*
X327857Y227783D01*
X328644Y226823D01*
X329603Y226036D01*
X330698Y225451D01*
X330805Y225419D01*
X330875Y225271D01*
X330926Y224559D01*
X330312Y224089D01*
X329681Y223266D01*
X329284Y222308D01*
X329149Y221281D01*
X329284Y220253D01*
X329681Y219295D01*
X330312Y218473D01*
X331134Y217842D01*
X332092Y217445D01*
X333120Y217310D01*
X334148Y217445D01*
X335105Y217842D01*
X335928Y218473D01*
X336559Y219295D01*
X336956Y220253D01*
X337091Y221281D01*
X336956Y222308D01*
X336559Y223266D01*
X335928Y224089D01*
X335314Y224559D01*
X335365Y225271D01*
X335435Y225419D01*
X335542Y225451D01*
X336636Y226036D01*
X337596Y226823D01*
X338383Y227783D01*
X338968Y228877D01*
X339328Y230064D01*
X339450Y231299D01*
X339328Y232534D01*
X338968Y233721D01*
X338709Y234206D01*
X339181Y234993D01*
X350173D01*
X350440Y234206D01*
X350312Y234107D01*
X349681Y233285D01*
X349284Y232327D01*
X349149Y231299D01*
X349284Y230272D01*
X349681Y229314D01*
X350312Y228491D01*
X351134Y227860D01*
X352092Y227464D01*
X353120Y227328D01*
X354148Y227464D01*
X355105Y227860D01*
X355928Y228491D01*
X356559Y229314D01*
X356956Y230272D01*
X357091Y231299D01*
X356956Y232327D01*
X356559Y233285D01*
X355928Y234107D01*
X355799Y234206D01*
X356067Y234993D01*
X364467D01*
X368425Y231035D01*
X368498Y230477D01*
X368816Y229711D01*
X369159Y229264D01*
Y226266D01*
X367543D01*
Y219179D01*
X375614D01*
Y226266D01*
X373975D01*
Y229264D01*
X374318Y229711D01*
X374636Y230477D01*
X374694Y230922D01*
X375517Y231142D01*
X375584Y231055D01*
X376242Y230551D01*
X377008Y230233D01*
X377830Y230125D01*
X378653Y230233D01*
X379419Y230551D01*
X380077Y231055D01*
X380582Y231713D01*
X380899Y232480D01*
X381007Y233302D01*
X380899Y234124D01*
X380582Y234890D01*
X380077Y235548D01*
X379419Y236053D01*
X378653Y236370D01*
X378095Y236444D01*
X373178Y241360D01*
X373480Y242087D01*
X523327Y242087D01*
X523411Y242104D01*
X525095Y241972D01*
D02*
G37*
%LPC*%
G36*
X254615Y230315D02*
X251758D01*
Y227458D01*
X251801Y227464D01*
X252759Y227860D01*
X253582Y228491D01*
X254212Y229314D01*
X254609Y230272D01*
X254615Y230315D01*
D02*
G37*
G36*
X249789D02*
X246932D01*
X246938Y230272D01*
X247335Y229314D01*
X247966Y228491D01*
X248788Y227860D01*
X249746Y227464D01*
X249789Y227458D01*
Y230315D01*
D02*
G37*
G36*
X250774Y225252D02*
X249746Y225116D01*
X248788Y224720D01*
X247966Y224088D01*
X247335Y223266D01*
X246938Y222308D01*
X246803Y221281D01*
X246938Y220253D01*
X247335Y219295D01*
X247966Y218473D01*
X248788Y217842D01*
X249746Y217445D01*
X250774Y217309D01*
X251801Y217445D01*
X252759Y217842D01*
X253582Y218473D01*
X254212Y219295D01*
X254609Y220253D01*
X254745Y221281D01*
X254609Y222308D01*
X254212Y223266D01*
X253582Y224088D01*
X252759Y224720D01*
X251801Y225116D01*
X250774Y225252D01*
D02*
G37*
G36*
X130954Y230315D02*
X128096D01*
Y227458D01*
X128140Y227464D01*
X129098Y227860D01*
X129920Y228491D01*
X130551Y229314D01*
X130948Y230272D01*
X130954Y230315D01*
D02*
G37*
G36*
X126128D02*
X123271D01*
X123277Y230272D01*
X123673Y229314D01*
X124304Y228491D01*
X125127Y227860D01*
X126084Y227464D01*
X126128Y227458D01*
Y230315D01*
D02*
G37*
G36*
X127112Y225252D02*
X126084Y225116D01*
X125127Y224720D01*
X124304Y224088D01*
X123673Y223266D01*
X123277Y222308D01*
X123141Y221281D01*
X123277Y220253D01*
X123673Y219295D01*
X124304Y218473D01*
X125127Y217842D01*
X126084Y217445D01*
X127112Y217309D01*
X128140Y217445D01*
X129098Y217842D01*
X129920Y218473D01*
X130551Y219295D01*
X130948Y220253D01*
X131083Y221281D01*
X130948Y222308D01*
X130551Y223266D01*
X129920Y224088D01*
X129098Y224720D01*
X128140Y225116D01*
X127112Y225252D01*
D02*
G37*
G36*
X172174Y230315D02*
X169317D01*
Y227458D01*
X169360Y227464D01*
X170318Y227860D01*
X171141Y228491D01*
X171772Y229314D01*
X172168Y230272D01*
X172174Y230315D01*
D02*
G37*
G36*
X167349D02*
X164491D01*
X164497Y230272D01*
X164894Y229314D01*
X165525Y228491D01*
X166347Y227860D01*
X167305Y227464D01*
X167349Y227458D01*
Y230315D01*
D02*
G37*
G36*
X168333Y225252D02*
X167305Y225116D01*
X166347Y224720D01*
X165525Y224088D01*
X164894Y223266D01*
X164497Y222308D01*
X164362Y221281D01*
X164497Y220253D01*
X164894Y219295D01*
X165525Y218473D01*
X166347Y217842D01*
X167305Y217445D01*
X168333Y217309D01*
X169360Y217445D01*
X170318Y217842D01*
X171141Y218473D01*
X171772Y219295D01*
X172168Y220253D01*
X172304Y221281D01*
X172168Y222308D01*
X171772Y223266D01*
X171141Y224088D01*
X170318Y224720D01*
X169360Y225116D01*
X168333Y225252D01*
D02*
G37*
G36*
X213394Y230315D02*
X210537D01*
Y227458D01*
X210581Y227464D01*
X211539Y227860D01*
X212361Y228491D01*
X212992Y229314D01*
X213389Y230272D01*
X213394Y230315D01*
D02*
G37*
G36*
X208569D02*
X205712D01*
X205717Y230272D01*
X206114Y229314D01*
X206745Y228491D01*
X207568Y227860D01*
X208525Y227464D01*
X208569Y227458D01*
Y230315D01*
D02*
G37*
G36*
X209553Y225252D02*
X208525Y225116D01*
X207568Y224720D01*
X206745Y224088D01*
X206114Y223266D01*
X205717Y222308D01*
X205582Y221281D01*
X205717Y220253D01*
X206114Y219295D01*
X206745Y218473D01*
X207568Y217842D01*
X208525Y217445D01*
X209553Y217309D01*
X210581Y217445D01*
X211539Y217842D01*
X212361Y218473D01*
X212992Y219295D01*
X213389Y220253D01*
X213524Y221281D01*
X213389Y222308D01*
X212992Y223266D01*
X212361Y224088D01*
X211539Y224720D01*
X210581Y225116D01*
X209553Y225252D01*
D02*
G37*
G36*
X86876Y235141D02*
Y232283D01*
X89733D01*
X89727Y232327D01*
X89331Y233285D01*
X88700Y234107D01*
X87877Y234738D01*
X86919Y235135D01*
X86876Y235141D01*
D02*
G37*
G36*
X84908Y235141D02*
X84864Y235135D01*
X83906Y234738D01*
X83084Y234107D01*
X82453Y233285D01*
X82056Y232327D01*
X82050Y232283D01*
X84908D01*
Y235141D01*
D02*
G37*
G36*
X452854Y239102D02*
X452032Y238994D01*
X451266Y238676D01*
X450608Y238172D01*
X450103Y237514D01*
X449786Y236747D01*
X449678Y235925D01*
X449786Y235103D01*
X450103Y234337D01*
X450608Y233679D01*
X451266Y233174D01*
X452032Y232857D01*
X452854Y232748D01*
X453677Y232857D01*
X454443Y233174D01*
X454730Y233395D01*
X456638Y233517D01*
X460420D01*
X462114Y231822D01*
X461594Y231229D01*
X461062Y231637D01*
X460008Y232073D01*
X458878Y232222D01*
X457747Y232073D01*
X456694Y231637D01*
X455789Y230943D01*
X455095Y230038D01*
X454659Y228985D01*
X454510Y227854D01*
X454659Y226724D01*
X455095Y225670D01*
X455789Y224766D01*
X456694Y224071D01*
X457747Y223635D01*
X458878Y223486D01*
X460008Y223635D01*
X461062Y224071D01*
X461967Y224766D01*
X462661Y225670D01*
X463097Y226724D01*
X463246Y227854D01*
X463097Y228985D01*
X462661Y230038D01*
X462253Y230570D01*
X462846Y231090D01*
X470399Y223537D01*
X470925Y222990D01*
X471385Y222459D01*
X471524Y222281D01*
X471555Y222236D01*
X471636Y221619D01*
X471953Y220853D01*
X472458Y220195D01*
X473116Y219690D01*
X473882Y219372D01*
X474705Y219264D01*
X475527Y219372D01*
X476293Y219690D01*
X476951Y220195D01*
X477456Y220853D01*
X477773Y221619D01*
X477881Y222441D01*
X477773Y223263D01*
X477456Y224029D01*
X476951Y224687D01*
X476293Y225192D01*
X475527Y225510D01*
X475410Y225525D01*
X473903Y226846D01*
X463120Y237628D01*
X462339Y238150D01*
X461417Y238334D01*
X456434D01*
X455448Y238366D01*
X454871Y238420D01*
X454752Y238439D01*
X454443Y238676D01*
X453677Y238994D01*
X452854Y239102D01*
D02*
G37*
G36*
X89733Y230315D02*
X86876D01*
Y227458D01*
X86919Y227464D01*
X87877Y227860D01*
X88700Y228491D01*
X89331Y229314D01*
X89727Y230272D01*
X89733Y230315D01*
D02*
G37*
G36*
X84908D02*
X82050D01*
X82056Y230272D01*
X82453Y229314D01*
X83084Y228491D01*
X83906Y227860D01*
X84864Y227464D01*
X84908Y227458D01*
Y230315D01*
D02*
G37*
G36*
X413480Y232222D02*
X412350Y232074D01*
X411296Y231637D01*
X410392Y230943D01*
X409697Y230038D01*
X409261Y228985D01*
X409112Y227854D01*
X409261Y226724D01*
X409697Y225670D01*
X410392Y224766D01*
X411296Y224072D01*
X412350Y223635D01*
X413480Y223486D01*
X414611Y223635D01*
X415664Y224072D01*
X416569Y224766D01*
X417263Y225670D01*
X417699Y226724D01*
X417848Y227854D01*
X417699Y228985D01*
X417263Y230038D01*
X416569Y230943D01*
X415664Y231637D01*
X414611Y232074D01*
X413480Y232222D01*
D02*
G37*
G36*
X403480D02*
X402350Y232074D01*
X401296Y231637D01*
X400392Y230943D01*
X399697Y230038D01*
X399261Y228985D01*
X399112Y227854D01*
X399261Y226724D01*
X399697Y225670D01*
X400392Y224766D01*
X401296Y224072D01*
X402350Y223635D01*
X403480Y223486D01*
X404611Y223635D01*
X405664Y224072D01*
X406569Y224766D01*
X407263Y225670D01*
X407699Y226724D01*
X407848Y227854D01*
X407699Y228985D01*
X407263Y230038D01*
X406569Y230943D01*
X405664Y231637D01*
X404611Y232074D01*
X403480Y232222D01*
D02*
G37*
G36*
X393480D02*
X392350Y232074D01*
X391296Y231637D01*
X390392Y230943D01*
X389698Y230038D01*
X389261Y228985D01*
X389112Y227854D01*
X389261Y226724D01*
X389698Y225670D01*
X390392Y224766D01*
X391296Y224072D01*
X392350Y223635D01*
X393480Y223486D01*
X394611Y223635D01*
X395664Y224072D01*
X396569Y224766D01*
X397263Y225670D01*
X397699Y226724D01*
X397848Y227854D01*
X397699Y228985D01*
X397263Y230038D01*
X396569Y230943D01*
X395664Y231637D01*
X394611Y232074D01*
X393480Y232222D01*
D02*
G37*
G36*
X448878Y232222D02*
X447747Y232073D01*
X446694Y231637D01*
X445789Y230943D01*
X445095Y230038D01*
X444659Y228985D01*
X444510Y227854D01*
X444659Y226724D01*
X445095Y225670D01*
X445789Y224766D01*
X446694Y224071D01*
X447747Y223635D01*
X448878Y223486D01*
X450008Y223635D01*
X451062Y224071D01*
X451967Y224766D01*
X452661Y225670D01*
X453097Y226724D01*
X453246Y227854D01*
X453097Y228985D01*
X452661Y230038D01*
X451967Y230943D01*
X451062Y231637D01*
X450008Y232073D01*
X448878Y232222D01*
D02*
G37*
G36*
X438878D02*
X437747Y232073D01*
X436694Y231637D01*
X435789Y230943D01*
X435095Y230038D01*
X434659Y228985D01*
X434510Y227854D01*
X434659Y226724D01*
X435095Y225670D01*
X435789Y224766D01*
X436694Y224071D01*
X437747Y223635D01*
X438878Y223486D01*
X440008Y223635D01*
X441062Y224071D01*
X441967Y224766D01*
X442661Y225670D01*
X443097Y226724D01*
X443246Y227854D01*
X443097Y228985D01*
X442661Y230038D01*
X441967Y230943D01*
X441062Y231637D01*
X440008Y232073D01*
X438878Y232222D01*
D02*
G37*
G36*
X315810Y220296D02*
X312953D01*
Y217439D01*
X312996Y217445D01*
X313954Y217842D01*
X314776Y218473D01*
X315407Y219295D01*
X315804Y220253D01*
X315810Y220296D01*
D02*
G37*
G36*
X310984D02*
X308127D01*
X308133Y220253D01*
X308530Y219295D01*
X309161Y218473D01*
X309983Y217842D01*
X310941Y217445D01*
X310984Y217439D01*
Y220296D01*
D02*
G37*
G36*
X85892Y225252D02*
X84864Y225116D01*
X83906Y224720D01*
X83084Y224088D01*
X82453Y223266D01*
X82056Y222308D01*
X81921Y221281D01*
X82056Y220253D01*
X82453Y219295D01*
X83084Y218473D01*
X83906Y217842D01*
X84864Y217445D01*
X85892Y217309D01*
X86919Y217445D01*
X87877Y217842D01*
X88700Y218473D01*
X89331Y219295D01*
X89727Y220253D01*
X89863Y221281D01*
X89727Y222308D01*
X89331Y223266D01*
X88700Y224088D01*
X87877Y224720D01*
X86919Y225116D01*
X85892Y225252D01*
D02*
G37*
G36*
X374826Y217604D02*
X372562D01*
Y215833D01*
X374826D01*
Y217604D01*
D02*
G37*
G36*
X370594D02*
X368330D01*
Y215833D01*
X370594D01*
Y217604D01*
D02*
G37*
G36*
X374826Y213864D02*
X372562D01*
Y212092D01*
X374826D01*
Y213864D01*
D02*
G37*
G36*
X370594D02*
X368330D01*
Y212092D01*
X370594D01*
Y213864D01*
D02*
G37*
G36*
X389370Y222862D02*
X388548Y222754D01*
X387782Y222436D01*
X387236Y222018D01*
X386151Y221995D01*
X385433D01*
X384511Y221812D01*
X383730Y221290D01*
X381958Y219518D01*
X381436Y218737D01*
X381253Y217815D01*
Y151072D01*
X380987Y150428D01*
X380878Y149606D01*
Y145177D01*
Y132776D01*
X380987Y131953D01*
X381304Y131187D01*
X381809Y130529D01*
X383580Y128758D01*
X384238Y128253D01*
X385005Y127935D01*
X385827Y127827D01*
X387357D01*
Y119894D01*
X387533Y118558D01*
X387743Y118052D01*
Y117913D01*
X387905Y116680D01*
X388381Y115531D01*
X389138Y114544D01*
X390125Y113787D01*
X391274Y113311D01*
X392508Y113148D01*
X393741Y113311D01*
X394890Y113787D01*
X395877Y114544D01*
X396635Y115531D01*
X397111Y116680D01*
X397273Y117913D01*
Y117995D01*
X397506Y118558D01*
X397682Y119894D01*
Y129232D01*
X397506Y130568D01*
X397244Y131201D01*
Y134547D01*
X387795D01*
X387232Y135088D01*
Y138731D01*
X387795Y139272D01*
X388019Y139272D01*
X392287D01*
X392520Y139241D01*
X412776D01*
X413008Y139272D01*
X417500D01*
Y146358D01*
Y147933D01*
X417815D01*
Y148395D01*
X425685D01*
X427756Y146324D01*
Y128543D01*
X432456D01*
Y115354D01*
X432551Y114635D01*
X432829Y113964D01*
X433271Y113389D01*
X433846Y112947D01*
X434517Y112669D01*
X435236Y112575D01*
X445278D01*
X445312Y112568D01*
X446368Y112559D01*
X448171Y112491D01*
X449564Y112358D01*
X450065Y112277D01*
X450453Y112189D01*
X450697Y112111D01*
X450767Y112077D01*
X450856Y112009D01*
X451042Y111919D01*
X451214Y111804D01*
X451321Y111783D01*
X451419Y111735D01*
X451626Y111722D01*
X451828Y111682D01*
X451935Y111703D01*
X452045Y111696D01*
X452240Y111764D01*
X452443Y111804D01*
X452534Y111865D01*
X452563Y111875D01*
X452961Y111711D01*
X453937Y111582D01*
X454913Y111711D01*
X455823Y112087D01*
X456604Y112687D01*
X457204Y113468D01*
X457581Y114378D01*
X457709Y115354D01*
X457581Y116331D01*
X457204Y117241D01*
X456604Y118022D01*
X455823Y118621D01*
X454913Y118998D01*
X453937Y119127D01*
X452961Y118998D01*
X452563Y118834D01*
X452534Y118844D01*
X452443Y118905D01*
X452240Y118945D01*
X452045Y119012D01*
X451935Y119006D01*
X451828Y119027D01*
X451626Y118987D01*
X451419Y118974D01*
X451321Y118926D01*
X451214Y118905D01*
X451042Y118790D01*
X450856Y118699D01*
X450767Y118632D01*
X450697Y118598D01*
X450453Y118519D01*
X450065Y118431D01*
X449589Y118354D01*
X446347Y118149D01*
X445312Y118141D01*
X445278Y118134D01*
X438016D01*
Y128543D01*
X450591D01*
Y151378D01*
X450319D01*
Y152687D01*
X451545Y153913D01*
X461713D01*
Y152657D01*
X468799D01*
Y160728D01*
X461713D01*
Y159473D01*
X450394D01*
X449674Y159378D01*
X449004Y159100D01*
X448428Y158658D01*
X445574Y155804D01*
X445132Y155228D01*
X444854Y154558D01*
X444760Y153839D01*
Y151378D01*
X432810D01*
X429693Y154496D01*
X428952Y155064D01*
X428090Y155421D01*
X427165Y155542D01*
X417815D01*
Y156004D01*
X395374D01*
Y152990D01*
X395374Y152990D01*
X394586Y153331D01*
Y156004D01*
X387500D01*
Y154948D01*
X386221D01*
X386070Y155080D01*
Y165906D01*
X420079D01*
X420847Y166059D01*
X421498Y166494D01*
X421933Y167145D01*
X422086Y167913D01*
Y202380D01*
X422773Y202645D01*
X422873Y202659D01*
X423510Y202170D01*
X424276Y201853D01*
X425098Y201745D01*
X425741Y201829D01*
X426529Y201364D01*
Y186832D01*
X426712Y185910D01*
X427234Y185129D01*
X432336Y180027D01*
X432270Y179528D01*
X432406Y178500D01*
X432802Y177542D01*
X433433Y176720D01*
X434256Y176089D01*
X435213Y175692D01*
X436241Y175557D01*
X437269Y175692D01*
X438227Y176089D01*
X439049Y176720D01*
X439680Y177542D01*
X440077Y178500D01*
X440212Y179528D01*
X440077Y180555D01*
X439680Y181513D01*
X439049Y182335D01*
X438227Y182966D01*
X437269Y183363D01*
X436241Y183499D01*
X435742Y183433D01*
X431346Y187829D01*
Y201955D01*
X434782Y205392D01*
X444441D01*
X444888Y205049D01*
X445654Y204732D01*
X446476Y204624D01*
X447298Y204732D01*
X448065Y205049D01*
X448723Y205554D01*
X449227Y206212D01*
X449545Y206978D01*
X449653Y207800D01*
X449545Y208623D01*
X449227Y209389D01*
X448723Y210047D01*
X448065Y210551D01*
X447298Y210869D01*
X446476Y210977D01*
X445654Y210869D01*
X444888Y210551D01*
X444441Y210209D01*
X433784D01*
X432863Y210025D01*
X432081Y209503D01*
X428815Y206237D01*
X427886Y206421D01*
X427850Y206510D01*
X427629Y206797D01*
X427507Y208705D01*
Y211502D01*
X431259Y215254D01*
X431979Y215928D01*
X432425Y216298D01*
X432522Y216369D01*
X432909Y216420D01*
X433675Y216737D01*
X434333Y217242D01*
X434838Y217900D01*
X435155Y218666D01*
X435263Y219488D01*
X435155Y220310D01*
X434838Y221077D01*
X434333Y221734D01*
X433675Y222239D01*
X432909Y222557D01*
X432087Y222665D01*
X431264Y222557D01*
X430498Y222239D01*
X429840Y221734D01*
X429335Y221077D01*
X429018Y220310D01*
X428971Y219951D01*
X427708Y218515D01*
X423395Y214203D01*
X422873Y213422D01*
X422690Y212500D01*
Y208619D01*
X422554Y208506D01*
X421607Y208540D01*
X421498Y208703D01*
X420847Y209138D01*
X420079Y209291D01*
X386070D01*
Y216817D01*
X386431Y217178D01*
X387463D01*
X387782Y216934D01*
X388548Y216617D01*
X389370Y216508D01*
X390192Y216617D01*
X390958Y216934D01*
X391616Y217439D01*
X392121Y218097D01*
X392439Y218863D01*
X392547Y219685D01*
X392439Y220507D01*
X392121Y221273D01*
X391616Y221931D01*
X390958Y222436D01*
X390192Y222754D01*
X389370Y222862D01*
D02*
G37*
G36*
X521910Y205392D02*
Y200748D01*
X526553D01*
X526487Y201254D01*
X525912Y202643D01*
X524997Y203835D01*
X523804Y204750D01*
X522415Y205326D01*
X521910Y205392D01*
D02*
G37*
G36*
X519941D02*
X519435Y205326D01*
X518046Y204750D01*
X516854Y203835D01*
X515939Y202643D01*
X515364Y201254D01*
X515297Y200748D01*
X519941D01*
Y205392D01*
D02*
G37*
G36*
X501909D02*
Y200748D01*
X506554D01*
X506487Y201254D01*
X505912Y202643D01*
X504997Y203835D01*
X503804Y204750D01*
X502416Y205326D01*
X501909Y205392D01*
D02*
G37*
G36*
X499941D02*
X499435Y205326D01*
X498046Y204750D01*
X496854Y203835D01*
X495939Y202643D01*
X495364Y201254D01*
X495297Y200748D01*
X499941D01*
Y205392D01*
D02*
G37*
G36*
X446260Y203499D02*
X445232Y203363D01*
X444274Y202966D01*
X443452Y202336D01*
X442821Y201513D01*
X442424Y200555D01*
X442289Y199528D01*
X442424Y198500D01*
X442502Y198311D01*
X441835Y197865D01*
X440207Y199492D01*
X440212Y199528D01*
X440077Y200555D01*
X439680Y201513D01*
X439049Y202336D01*
X438227Y202966D01*
X437269Y203363D01*
X436241Y203499D01*
X435213Y203363D01*
X434256Y202966D01*
X433433Y202336D01*
X432802Y201513D01*
X432406Y200555D01*
X432270Y199528D01*
X432406Y198500D01*
X432802Y197542D01*
X433433Y196720D01*
X434256Y196089D01*
X435213Y195692D01*
X436241Y195557D01*
X436276Y195561D01*
X444335Y187503D01*
X444910Y187061D01*
X445581Y186784D01*
X446300Y186689D01*
X454262D01*
X457063Y183888D01*
Y174311D01*
X457158Y173592D01*
X457435Y172921D01*
X457877Y172345D01*
X463290Y166932D01*
X463866Y166490D01*
X464537Y166213D01*
X465256Y166118D01*
X500227D01*
X507063Y159282D01*
Y149409D01*
X505905D01*
Y141929D01*
X505905Y141339D01*
X505905Y140551D01*
Y133071D01*
X512992D01*
Y133332D01*
X513386Y133957D01*
X514488D01*
Y112655D01*
X514481Y112621D01*
X514477Y111761D01*
X514408Y109682D01*
X514323Y108766D01*
X514279Y108493D01*
X514244Y108345D01*
X514218Y108274D01*
X514131Y108144D01*
X514100Y107989D01*
X514040Y107843D01*
X514040Y107685D01*
X514009Y107529D01*
X514040Y107375D01*
X514040Y107217D01*
X514100Y107070D01*
X514131Y106915D01*
X514219Y106784D01*
X514234Y106747D01*
X514199Y106665D01*
X514091Y105842D01*
X514199Y105020D01*
X514517Y104254D01*
X515022Y103596D01*
X515104Y103533D01*
Y102540D01*
X514978Y102443D01*
X514473Y101785D01*
X514223Y101181D01*
X517224D01*
X520226D01*
X519976Y101785D01*
X519471Y102443D01*
X519388Y102506D01*
Y103499D01*
X519514Y103596D01*
X520019Y104254D01*
X520337Y105020D01*
X520445Y105842D01*
X520337Y106665D01*
X520302Y106747D01*
X520317Y106784D01*
X520405Y106915D01*
X520436Y107070D01*
X520497Y107217D01*
X520497Y107375D01*
X520527Y107529D01*
X520496Y107685D01*
X520496Y107843D01*
X520436Y107989D01*
X520405Y108144D01*
X520318Y108274D01*
X520292Y108345D01*
X520274Y108418D01*
X520059Y111785D01*
X520055Y112621D01*
X520048Y112655D01*
Y133957D01*
X521457D01*
Y141043D01*
X514462D01*
X513911Y141723D01*
X513941Y141831D01*
X521457D01*
Y148917D01*
X513533D01*
X512992Y149409D01*
X512622Y150044D01*
Y160433D01*
X512528Y161153D01*
X512250Y161823D01*
X511808Y162399D01*
X503343Y170863D01*
X502768Y171305D01*
X502097Y171583D01*
X501378Y171677D01*
X466407D01*
X462622Y175462D01*
Y185039D01*
X462528Y185759D01*
X462250Y186429D01*
X461808Y187005D01*
X457379Y191434D01*
X456803Y191876D01*
X456133Y192154D01*
X455413Y192248D01*
X447452D01*
X444597Y195103D01*
X445043Y195770D01*
X445232Y195692D01*
X446260Y195557D01*
X447288Y195692D01*
X448245Y196089D01*
X449068Y196720D01*
X449699Y197542D01*
X450096Y198500D01*
X450231Y199528D01*
X450096Y200555D01*
X449699Y201513D01*
X449068Y202336D01*
X448245Y202966D01*
X447288Y203363D01*
X446260Y203499D01*
D02*
G37*
G36*
X476241D02*
X475213Y203363D01*
X474256Y202966D01*
X473433Y202336D01*
X472802Y201513D01*
X472405Y200555D01*
X472270Y199528D01*
X472405Y198500D01*
X472802Y197542D01*
X473433Y196720D01*
X474256Y196089D01*
X475213Y195692D01*
X476241Y195557D01*
X477269Y195692D01*
X478227Y196089D01*
X479049Y196720D01*
X479680Y197542D01*
X480077Y198500D01*
X480212Y199528D01*
X480077Y200555D01*
X479680Y201513D01*
X479049Y202336D01*
X478227Y202966D01*
X477269Y203363D01*
X476241Y203499D01*
D02*
G37*
G36*
X526553Y198779D02*
X521910D01*
Y194135D01*
X522415Y194202D01*
X523804Y194777D01*
X524997Y195692D01*
X525912Y196885D01*
X526487Y198274D01*
X526553Y198779D01*
D02*
G37*
G36*
X519941D02*
X515297D01*
X515364Y198274D01*
X515939Y196885D01*
X516854Y195692D01*
X518046Y194777D01*
X519435Y194202D01*
X519941Y194135D01*
Y198779D01*
D02*
G37*
G36*
X506554D02*
X501909D01*
Y194135D01*
X502416Y194202D01*
X503804Y194777D01*
X504997Y195692D01*
X505912Y196885D01*
X506487Y198274D01*
X506554Y198779D01*
D02*
G37*
G36*
X499941D02*
X495297D01*
X495364Y198274D01*
X495939Y196885D01*
X496854Y195692D01*
X498046Y194777D01*
X499435Y194202D01*
X499941Y194135D01*
Y198779D01*
D02*
G37*
G36*
X353120Y197629D02*
X351885Y197507D01*
X350698Y197147D01*
X349603Y196562D01*
X348644Y195775D01*
X347857Y194816D01*
X347272Y193721D01*
X346912Y192534D01*
X346790Y191299D01*
X346912Y190064D01*
X347272Y188877D01*
X347857Y187783D01*
X348644Y186823D01*
X349603Y186036D01*
X350698Y185451D01*
X351885Y185091D01*
X353120Y184970D01*
X354355Y185091D01*
X355542Y185451D01*
X356637Y186036D01*
X357596Y186823D01*
X358383Y187783D01*
X358968Y188877D01*
X359328Y190064D01*
X359450Y191299D01*
X359328Y192534D01*
X358968Y193721D01*
X358383Y194816D01*
X357596Y195775D01*
X356637Y196562D01*
X355542Y197147D01*
X354355Y197507D01*
X353120Y197629D01*
D02*
G37*
G36*
X333120D02*
X331885Y197507D01*
X330698Y197147D01*
X329603Y196562D01*
X328644Y195775D01*
X327857Y194816D01*
X327272Y193721D01*
X326912Y192534D01*
X326790Y191299D01*
X326912Y190064D01*
X327272Y188877D01*
X327857Y187783D01*
X328644Y186823D01*
X329603Y186036D01*
X330698Y185451D01*
X331885Y185091D01*
X333120Y184970D01*
X334355Y185091D01*
X335542Y185451D01*
X336636Y186036D01*
X337596Y186823D01*
X338383Y187783D01*
X338968Y188877D01*
X339328Y190064D01*
X339450Y191299D01*
X339328Y192534D01*
X338968Y193721D01*
X338383Y194816D01*
X337596Y195775D01*
X336636Y196562D01*
X335542Y197147D01*
X334355Y197507D01*
X333120Y197629D01*
D02*
G37*
G36*
X250774Y197629D02*
X249539Y197507D01*
X248351Y197147D01*
X247257Y196562D01*
X246298Y195775D01*
X245511Y194816D01*
X244926Y193721D01*
X244566Y192534D01*
X244444Y191299D01*
X244566Y190064D01*
X244926Y188877D01*
X245511Y187783D01*
X246298Y186823D01*
X247257Y186036D01*
X248351Y185451D01*
X249539Y185091D01*
X250774Y184969D01*
X252008Y185091D01*
X253196Y185451D01*
X254290Y186036D01*
X255249Y186823D01*
X256036Y187783D01*
X256621Y188877D01*
X256982Y190064D01*
X257103Y191299D01*
X256982Y192534D01*
X256621Y193721D01*
X256036Y194816D01*
X255249Y195775D01*
X254290Y196562D01*
X253196Y197147D01*
X252008Y197507D01*
X250774Y197629D01*
D02*
G37*
G36*
X229553D02*
X228318Y197507D01*
X227131Y197147D01*
X226037Y196562D01*
X225077Y195775D01*
X224290Y194816D01*
X223705Y193721D01*
X223345Y192534D01*
X223223Y191299D01*
X223345Y190064D01*
X223705Y188877D01*
X224290Y187783D01*
X225077Y186823D01*
X226037Y186036D01*
X227131Y185451D01*
X228318Y185091D01*
X229553Y184969D01*
X230788Y185091D01*
X231975Y185451D01*
X233070Y186036D01*
X234029Y186823D01*
X234816Y187783D01*
X235401Y188877D01*
X235761Y190064D01*
X235883Y191299D01*
X235761Y192534D01*
X235401Y193721D01*
X234816Y194816D01*
X234029Y195775D01*
X233070Y196562D01*
X231975Y197147D01*
X230788Y197507D01*
X229553Y197629D01*
D02*
G37*
G36*
X209553D02*
X208318Y197507D01*
X207131Y197147D01*
X206036Y196562D01*
X205077Y195775D01*
X204290Y194816D01*
X203705Y193721D01*
X203345Y192534D01*
X203223Y191299D01*
X203345Y190064D01*
X203705Y188877D01*
X204290Y187783D01*
X205077Y186823D01*
X206036Y186036D01*
X207131Y185451D01*
X208318Y185091D01*
X209553Y184969D01*
X210788Y185091D01*
X211975Y185451D01*
X213070Y186036D01*
X214029Y186823D01*
X214816Y187783D01*
X215401Y188877D01*
X215761Y190064D01*
X215883Y191299D01*
X215761Y192534D01*
X215401Y193721D01*
X214816Y194816D01*
X214029Y195775D01*
X213070Y196562D01*
X211975Y197147D01*
X210788Y197507D01*
X209553Y197629D01*
D02*
G37*
G36*
X188333D02*
X187098Y197507D01*
X185910Y197147D01*
X184816Y196562D01*
X183857Y195775D01*
X183070Y194816D01*
X182485Y193721D01*
X182125Y192534D01*
X182003Y191299D01*
X182125Y190064D01*
X182485Y188877D01*
X183070Y187783D01*
X183857Y186823D01*
X184816Y186036D01*
X185910Y185451D01*
X187098Y185091D01*
X188333Y184969D01*
X189567Y185091D01*
X190755Y185451D01*
X191849Y186036D01*
X192808Y186823D01*
X193596Y187783D01*
X194181Y188877D01*
X194541Y190064D01*
X194662Y191299D01*
X194541Y192534D01*
X194181Y193721D01*
X193596Y194816D01*
X192808Y195775D01*
X191849Y196562D01*
X190755Y197147D01*
X189567Y197507D01*
X188333Y197629D01*
D02*
G37*
G36*
X168333D02*
X167098Y197507D01*
X165910Y197147D01*
X164816Y196562D01*
X163857Y195775D01*
X163070Y194816D01*
X162485Y193721D01*
X162125Y192534D01*
X162003Y191299D01*
X162125Y190064D01*
X162485Y188877D01*
X163070Y187783D01*
X163857Y186823D01*
X164816Y186036D01*
X165910Y185451D01*
X167098Y185091D01*
X168333Y184969D01*
X169568Y185091D01*
X170755Y185451D01*
X171849Y186036D01*
X172808Y186823D01*
X173596Y187783D01*
X174180Y188877D01*
X174541Y190064D01*
X174662Y191299D01*
X174541Y192534D01*
X174180Y193721D01*
X173596Y194816D01*
X172808Y195775D01*
X171849Y196562D01*
X170755Y197147D01*
X169568Y197507D01*
X168333Y197629D01*
D02*
G37*
G36*
X147112D02*
X145877Y197507D01*
X144690Y197147D01*
X143596Y196562D01*
X142636Y195775D01*
X141849Y194816D01*
X141264Y193721D01*
X140904Y192534D01*
X140782Y191299D01*
X140904Y190064D01*
X141264Y188877D01*
X141849Y187783D01*
X142636Y186823D01*
X143596Y186036D01*
X144690Y185451D01*
X145877Y185091D01*
X147112Y184969D01*
X148347Y185091D01*
X149534Y185451D01*
X150629Y186036D01*
X151588Y186823D01*
X152375Y187783D01*
X152960Y188877D01*
X153320Y190064D01*
X153442Y191299D01*
X153320Y192534D01*
X152960Y193721D01*
X152375Y194816D01*
X151588Y195775D01*
X150629Y196562D01*
X149534Y197147D01*
X148347Y197507D01*
X147112Y197629D01*
D02*
G37*
G36*
X127112D02*
X125877Y197507D01*
X124690Y197147D01*
X123596Y196562D01*
X122636Y195775D01*
X121849Y194816D01*
X121264Y193721D01*
X120904Y192534D01*
X120782Y191299D01*
X120904Y190064D01*
X121264Y188877D01*
X121849Y187783D01*
X122636Y186823D01*
X123596Y186036D01*
X124690Y185451D01*
X125877Y185091D01*
X127112Y184969D01*
X128347Y185091D01*
X129534Y185451D01*
X130629Y186036D01*
X131588Y186823D01*
X132375Y187783D01*
X132960Y188877D01*
X133320Y190064D01*
X133442Y191299D01*
X133320Y192534D01*
X132960Y193721D01*
X132375Y194816D01*
X131588Y195775D01*
X130629Y196562D01*
X129534Y197147D01*
X128347Y197507D01*
X127112Y197629D01*
D02*
G37*
G36*
X85892D02*
X84657Y197507D01*
X83469Y197147D01*
X82375Y196562D01*
X81416Y195775D01*
X80629Y194816D01*
X80044Y193721D01*
X79684Y192534D01*
X79562Y191299D01*
X79684Y190064D01*
X80044Y188877D01*
X80629Y187783D01*
X81416Y186823D01*
X82375Y186036D01*
X83469Y185451D01*
X84657Y185091D01*
X85892Y184969D01*
X87127Y185091D01*
X88314Y185451D01*
X89408Y186036D01*
X90368Y186823D01*
X91155Y187783D01*
X91740Y188877D01*
X92100Y190064D01*
X92221Y191299D01*
X92100Y192534D01*
X91740Y193721D01*
X91155Y194816D01*
X90368Y195775D01*
X89408Y196562D01*
X88314Y197147D01*
X87127Y197507D01*
X85892Y197629D01*
D02*
G37*
G36*
X510925Y196489D02*
X509613Y196360D01*
X508352Y195977D01*
X507189Y195356D01*
X506170Y194519D01*
X505333Y193500D01*
X504712Y192337D01*
X504329Y191076D01*
X504200Y189764D01*
X504329Y188452D01*
X504712Y187190D01*
X505333Y186027D01*
X506170Y185008D01*
X507189Y184172D01*
X508352Y183550D01*
X509613Y183168D01*
X510925Y183038D01*
X512237Y183168D01*
X513499Y183550D01*
X514662Y184172D01*
X515681Y185008D01*
X516517Y186027D01*
X517139Y187190D01*
X517521Y188452D01*
X517651Y189764D01*
X517521Y191076D01*
X517139Y192337D01*
X516517Y193500D01*
X515681Y194519D01*
X514662Y195356D01*
X513499Y195977D01*
X512237Y196360D01*
X510925Y196489D01*
D02*
G37*
G36*
X521910Y185392D02*
Y180748D01*
X526553D01*
X526487Y181254D01*
X525912Y182643D01*
X524997Y183835D01*
X523804Y184750D01*
X522415Y185326D01*
X521910Y185392D01*
D02*
G37*
G36*
X519941D02*
X519435Y185326D01*
X518046Y184750D01*
X516854Y183835D01*
X515939Y182643D01*
X515364Y181254D01*
X515297Y180748D01*
X519941D01*
Y185392D01*
D02*
G37*
G36*
X501909D02*
Y180748D01*
X506554D01*
X506487Y181254D01*
X505912Y182643D01*
X504997Y183835D01*
X503804Y184750D01*
X502416Y185326D01*
X501909Y185392D01*
D02*
G37*
G36*
X499941D02*
X499435Y185326D01*
X498046Y184750D01*
X496854Y183835D01*
X495939Y182643D01*
X495364Y181254D01*
X495297Y180748D01*
X499941D01*
Y185392D01*
D02*
G37*
G36*
X447244Y183369D02*
Y180512D01*
X450101D01*
X450096Y180555D01*
X449699Y181513D01*
X449068Y182335D01*
X448245Y182966D01*
X447288Y183363D01*
X447244Y183369D01*
D02*
G37*
G36*
X445276D02*
X445232Y183363D01*
X444274Y182966D01*
X443452Y182335D01*
X442821Y181513D01*
X442424Y180555D01*
X442418Y180512D01*
X445276D01*
Y183369D01*
D02*
G37*
G36*
X450101Y178543D02*
X447244D01*
Y175686D01*
X447288Y175692D01*
X448245Y176089D01*
X449068Y176720D01*
X449699Y177542D01*
X450096Y178500D01*
X450101Y178543D01*
D02*
G37*
G36*
X445276D02*
X442418D01*
X442424Y178500D01*
X442821Y177542D01*
X443452Y176720D01*
X444274Y176089D01*
X445232Y175692D01*
X445276Y175686D01*
Y178543D01*
D02*
G37*
G36*
X476241Y183499D02*
X475213Y183363D01*
X474256Y182966D01*
X473433Y182335D01*
X472802Y181513D01*
X472405Y180555D01*
X472270Y179528D01*
X472405Y178500D01*
X472802Y177542D01*
X473433Y176720D01*
X474256Y176089D01*
X475213Y175692D01*
X476241Y175557D01*
X477269Y175692D01*
X478227Y176089D01*
X479049Y176720D01*
X479680Y177542D01*
X480077Y178500D01*
X480212Y179528D01*
X480077Y180555D01*
X479680Y181513D01*
X479049Y182335D01*
X478227Y182966D01*
X477269Y183363D01*
X476241Y183499D01*
D02*
G37*
G36*
X526553Y178779D02*
X521910D01*
Y174135D01*
X522415Y174202D01*
X523804Y174777D01*
X524997Y175692D01*
X525912Y176885D01*
X526487Y178273D01*
X526553Y178779D01*
D02*
G37*
G36*
X519941D02*
X515297D01*
X515364Y178273D01*
X515939Y176885D01*
X516854Y175692D01*
X518046Y174777D01*
X519435Y174202D01*
X519941Y174135D01*
Y178779D01*
D02*
G37*
G36*
X506554D02*
X501909D01*
Y174135D01*
X502416Y174202D01*
X503804Y174777D01*
X504997Y175692D01*
X505912Y176885D01*
X506487Y178273D01*
X506554Y178779D01*
D02*
G37*
G36*
X499941D02*
X495297D01*
X495364Y178273D01*
X495939Y176885D01*
X496854Y175692D01*
X498046Y174777D01*
X499435Y174202D01*
X499941Y174135D01*
Y178779D01*
D02*
G37*
G36*
X259559Y181830D02*
X258354Y181712D01*
X257194Y181360D01*
X256126Y180789D01*
X255190Y180020D01*
X254421Y179084D01*
X253850Y178016D01*
X253499Y176857D01*
X253380Y175651D01*
X253499Y174445D01*
X253850Y173286D01*
X254421Y172218D01*
X255190Y171282D01*
X256126Y170513D01*
X257194Y169942D01*
X258354Y169590D01*
X259559Y169472D01*
X260765Y169590D01*
X261924Y169942D01*
X262992Y170513D01*
X263929Y171282D01*
X264697Y172218D01*
X265268Y173286D01*
X265620Y174445D01*
X265739Y175651D01*
X265620Y176857D01*
X265268Y178016D01*
X264697Y179084D01*
X263929Y180020D01*
X262992Y180789D01*
X261924Y181360D01*
X260765Y181712D01*
X259559Y181830D01*
D02*
G37*
G36*
X218516D02*
X217310Y181712D01*
X216151Y181360D01*
X215083Y180789D01*
X214146Y180020D01*
X213378Y179084D01*
X212807Y178016D01*
X212455Y176857D01*
X212336Y175651D01*
X212455Y174445D01*
X212807Y173286D01*
X213378Y172218D01*
X214146Y171282D01*
X215083Y170513D01*
X216151Y169942D01*
X217310Y169590D01*
X218516Y169472D01*
X219722Y169590D01*
X220881Y169942D01*
X221949Y170513D01*
X222885Y171282D01*
X223654Y172218D01*
X224225Y173286D01*
X224576Y174445D01*
X224695Y175651D01*
X224576Y176857D01*
X224225Y178016D01*
X223654Y179084D01*
X222885Y180020D01*
X221949Y180789D01*
X220881Y181360D01*
X219722Y181712D01*
X218516Y181830D01*
D02*
G37*
G36*
X176915D02*
X175709Y181712D01*
X174550Y181360D01*
X173481Y180789D01*
X172545Y180020D01*
X171776Y179084D01*
X171205Y178016D01*
X170854Y176857D01*
X170735Y175651D01*
X170854Y174445D01*
X171205Y173286D01*
X171776Y172218D01*
X172545Y171282D01*
X173481Y170513D01*
X174550Y169942D01*
X175709Y169590D01*
X176915Y169472D01*
X178120Y169590D01*
X179279Y169942D01*
X180348Y170513D01*
X181284Y171282D01*
X182053Y172218D01*
X182624Y173286D01*
X182975Y174445D01*
X183094Y175651D01*
X182975Y176857D01*
X182624Y178016D01*
X182053Y179084D01*
X181284Y180020D01*
X180348Y180789D01*
X179279Y181360D01*
X178120Y181712D01*
X176915Y181830D01*
D02*
G37*
G36*
X135510Y181830D02*
X134304Y181712D01*
X133145Y181360D01*
X132077Y180789D01*
X131140Y180020D01*
X130372Y179084D01*
X129801Y178016D01*
X129449Y176857D01*
X129330Y175651D01*
X129449Y174445D01*
X129801Y173286D01*
X130372Y172218D01*
X131140Y171282D01*
X132077Y170513D01*
X133145Y169942D01*
X134304Y169590D01*
X135510Y169472D01*
X136715Y169590D01*
X137874Y169942D01*
X138943Y170513D01*
X139879Y171282D01*
X140648Y172218D01*
X141219Y173286D01*
X141570Y174445D01*
X141689Y175651D01*
X141570Y176857D01*
X141219Y178016D01*
X140648Y179084D01*
X139879Y180020D01*
X138943Y180789D01*
X137874Y181360D01*
X136715Y181712D01*
X135510Y181830D01*
D02*
G37*
G36*
X94270D02*
X93064Y181712D01*
X91905Y181360D01*
X90837Y180789D01*
X89900Y180020D01*
X89132Y179084D01*
X88560Y178016D01*
X88209Y176857D01*
X88090Y175651D01*
X88209Y174445D01*
X88560Y173286D01*
X89132Y172218D01*
X89900Y171282D01*
X90837Y170513D01*
X91905Y169942D01*
X93064Y169590D01*
X94270Y169472D01*
X95475Y169590D01*
X96634Y169942D01*
X97703Y170513D01*
X98639Y171282D01*
X99408Y172218D01*
X99979Y173286D01*
X100330Y174445D01*
X100449Y175651D01*
X100330Y176857D01*
X99979Y178016D01*
X99408Y179084D01*
X98639Y180020D01*
X97703Y180789D01*
X96634Y181360D01*
X95475Y181712D01*
X94270Y181830D01*
D02*
G37*
G36*
X467421Y151772D02*
X462894D01*
Y150000D01*
X467421D01*
Y151772D01*
D02*
G37*
G36*
X460925D02*
X456398D01*
Y150000D01*
X460925D01*
Y151772D01*
D02*
G37*
G36*
X504331Y148622D02*
X502559D01*
Y146358D01*
X504331D01*
Y148622D01*
D02*
G37*
G36*
X500591D02*
X498819D01*
Y146358D01*
X500591D01*
Y148622D01*
D02*
G37*
G36*
X467421Y148031D02*
X462894D01*
Y146260D01*
X467421D01*
Y148031D01*
D02*
G37*
G36*
X460925D02*
X456398D01*
Y146260D01*
X460925D01*
Y148031D01*
D02*
G37*
G36*
X362453Y158499D02*
X361064Y158362D01*
X359728Y157957D01*
X358497Y157299D01*
X357417Y156413D01*
X356532Y155334D01*
X355874Y154103D01*
X355469Y152767D01*
X355332Y151378D01*
X355469Y149989D01*
X355874Y148653D01*
X356532Y147422D01*
X357417Y146343D01*
X358497Y145457D01*
X359728Y144799D01*
X361064Y144394D01*
X362453Y144257D01*
X363842Y144394D01*
X364579Y144617D01*
X365366Y144291D01*
Y144291D01*
X379539D01*
Y158465D01*
X365366D01*
Y158465D01*
X364579Y158139D01*
X363842Y158362D01*
X362453Y158499D01*
D02*
G37*
G36*
X504331Y144390D02*
X502559D01*
Y142126D01*
X504331D01*
Y144390D01*
D02*
G37*
G36*
X500591D02*
X498819D01*
Y142126D01*
X500591D01*
Y144390D01*
D02*
G37*
G36*
X504331Y140354D02*
X502559D01*
Y138091D01*
X504331D01*
Y140354D01*
D02*
G37*
G36*
X500591D02*
X498819D01*
Y138091D01*
X500591D01*
Y140354D01*
D02*
G37*
G36*
X504331Y136122D02*
X502559D01*
Y133858D01*
X504331D01*
Y136122D01*
D02*
G37*
G36*
X500591D02*
X498819D01*
Y133858D01*
X500591D01*
Y136122D01*
D02*
G37*
G36*
X467421Y133661D02*
X462894D01*
Y131890D01*
X467421D01*
Y133661D01*
D02*
G37*
G36*
X460925D02*
X456398D01*
Y131890D01*
X460925D01*
Y133661D01*
D02*
G37*
G36*
X258794Y153087D02*
X257588Y152968D01*
X256429Y152617D01*
X255361Y152046D01*
X254424Y151277D01*
X253656Y150341D01*
X253085Y149272D01*
X252733Y148113D01*
X252614Y146907D01*
X252733Y145702D01*
X253085Y144543D01*
X253656Y143474D01*
X254424Y142538D01*
X255361Y141770D01*
X255881Y141491D01*
X255962Y141239D01*
X255932Y140571D01*
X255190Y139962D01*
X254421Y139025D01*
X253850Y137957D01*
X253499Y136797D01*
X253380Y135592D01*
X253499Y134386D01*
X253850Y133227D01*
X254421Y132159D01*
X255190Y131222D01*
X256126Y130454D01*
X257194Y129883D01*
X258354Y129531D01*
X259559Y129413D01*
X260765Y129531D01*
X261924Y129883D01*
X262992Y130454D01*
X263929Y131222D01*
X264697Y132159D01*
X265268Y133227D01*
X265620Y134386D01*
X265739Y135592D01*
X265620Y136797D01*
X265268Y137957D01*
X264697Y139025D01*
X263929Y139962D01*
X262992Y140730D01*
X262472Y141008D01*
X262391Y141261D01*
X262420Y141929D01*
X263163Y142538D01*
X263931Y143474D01*
X264503Y144543D01*
X264854Y145702D01*
X264973Y146907D01*
X264854Y148113D01*
X264503Y149272D01*
X263931Y150341D01*
X263163Y151277D01*
X262227Y152046D01*
X261158Y152617D01*
X259999Y152968D01*
X258794Y153087D01*
D02*
G37*
G36*
X217750D02*
X216545Y152968D01*
X215386Y152617D01*
X214317Y152046D01*
X213381Y151277D01*
X212612Y150341D01*
X212041Y149272D01*
X211690Y148113D01*
X211571Y146907D01*
X211690Y145702D01*
X212041Y144543D01*
X212612Y143474D01*
X213381Y142538D01*
X214317Y141770D01*
X214837Y141491D01*
X214919Y141239D01*
X214889Y140571D01*
X214146Y139962D01*
X213378Y139025D01*
X212807Y137957D01*
X212455Y136797D01*
X212336Y135592D01*
X212455Y134386D01*
X212807Y133227D01*
X213378Y132159D01*
X214146Y131222D01*
X215083Y130454D01*
X216151Y129883D01*
X217310Y129531D01*
X218516Y129413D01*
X219722Y129531D01*
X220881Y129883D01*
X221949Y130454D01*
X222885Y131222D01*
X223654Y132159D01*
X224225Y133227D01*
X224576Y134386D01*
X224695Y135592D01*
X224576Y136797D01*
X224225Y137957D01*
X223654Y139025D01*
X222885Y139962D01*
X221949Y140730D01*
X221429Y141008D01*
X221347Y141261D01*
X221377Y141929D01*
X222120Y142538D01*
X222888Y143474D01*
X223459Y144543D01*
X223811Y145702D01*
X223930Y146907D01*
X223811Y148113D01*
X223459Y149272D01*
X222888Y150341D01*
X222120Y151277D01*
X221183Y152046D01*
X220115Y152617D01*
X218956Y152968D01*
X217750Y153087D01*
D02*
G37*
G36*
X176149D02*
X174943Y152968D01*
X173784Y152617D01*
X172716Y152046D01*
X171779Y151277D01*
X171011Y150341D01*
X170440Y149272D01*
X170088Y148113D01*
X169969Y146907D01*
X170088Y145702D01*
X170440Y144543D01*
X171011Y143474D01*
X171779Y142538D01*
X172716Y141770D01*
X173236Y141491D01*
X173317Y141239D01*
X173288Y140571D01*
X172545Y139962D01*
X171776Y139025D01*
X171205Y137957D01*
X170854Y136797D01*
X170735Y135592D01*
X170854Y134386D01*
X171205Y133227D01*
X171776Y132159D01*
X172545Y131222D01*
X173481Y130454D01*
X174550Y129883D01*
X175709Y129531D01*
X176915Y129413D01*
X178120Y129531D01*
X179279Y129883D01*
X180348Y130454D01*
X181284Y131222D01*
X182053Y132159D01*
X182624Y133227D01*
X182975Y134386D01*
X183094Y135592D01*
X182975Y136797D01*
X182624Y137957D01*
X182053Y139025D01*
X181284Y139962D01*
X180348Y140730D01*
X179827Y141008D01*
X179746Y141261D01*
X179776Y141929D01*
X180518Y142538D01*
X181287Y143474D01*
X181858Y144543D01*
X182210Y145702D01*
X182328Y146907D01*
X182210Y148113D01*
X181858Y149272D01*
X181287Y150341D01*
X180518Y151277D01*
X179582Y152046D01*
X178514Y152617D01*
X177354Y152968D01*
X176149Y153087D01*
D02*
G37*
G36*
X134744Y153087D02*
X133538Y152968D01*
X132379Y152616D01*
X131311Y152045D01*
X130375Y151277D01*
X129606Y150340D01*
X129035Y149272D01*
X128683Y148113D01*
X128565Y146907D01*
X128683Y145702D01*
X129035Y144543D01*
X129606Y143474D01*
X130375Y142538D01*
X131311Y141769D01*
X131831Y141491D01*
X131913Y141239D01*
X131883Y140571D01*
X131140Y139961D01*
X130372Y139025D01*
X129801Y137957D01*
X129449Y136797D01*
X129330Y135592D01*
X129449Y134386D01*
X129801Y133227D01*
X130372Y132159D01*
X131140Y131222D01*
X132077Y130454D01*
X133145Y129883D01*
X134304Y129531D01*
X135510Y129412D01*
X136715Y129531D01*
X137874Y129883D01*
X138943Y130454D01*
X139879Y131222D01*
X140648Y132159D01*
X141219Y133227D01*
X141570Y134386D01*
X141689Y135592D01*
X141570Y136797D01*
X141219Y137957D01*
X140648Y139025D01*
X139879Y139961D01*
X138943Y140730D01*
X138423Y141008D01*
X138341Y141261D01*
X138371Y141928D01*
X139113Y142538D01*
X139882Y143474D01*
X140453Y144543D01*
X140805Y145702D01*
X140923Y146907D01*
X140805Y148113D01*
X140453Y149272D01*
X139882Y150340D01*
X139113Y151277D01*
X138177Y152045D01*
X137109Y152616D01*
X135950Y152968D01*
X134744Y153087D01*
D02*
G37*
G36*
X93504D02*
X92298Y152968D01*
X91139Y152616D01*
X90071Y152045D01*
X89134Y151277D01*
X88366Y150340D01*
X87795Y149272D01*
X87443Y148113D01*
X87325Y146907D01*
X87443Y145702D01*
X87795Y144543D01*
X88366Y143474D01*
X89134Y142538D01*
X90071Y141769D01*
X90542Y141518D01*
X90625Y141182D01*
X90583Y140603D01*
X89802Y139961D01*
X89033Y139025D01*
X88462Y137957D01*
X88111Y136797D01*
X87992Y135592D01*
X88111Y134386D01*
X88462Y133227D01*
X89033Y132159D01*
X89802Y131222D01*
X90738Y130454D01*
X91806Y129883D01*
X92966Y129531D01*
X94171Y129412D01*
X95377Y129531D01*
X96536Y129883D01*
X97604Y130454D01*
X98541Y131222D01*
X99309Y132159D01*
X99880Y133227D01*
X100232Y134386D01*
X100350Y135592D01*
X100232Y136797D01*
X99880Y137957D01*
X99309Y139025D01*
X98541Y139961D01*
X97604Y140730D01*
X97133Y140981D01*
X97050Y141317D01*
X97092Y141896D01*
X97873Y142538D01*
X98642Y143474D01*
X99213Y144543D01*
X99564Y145702D01*
X99683Y146907D01*
X99564Y148113D01*
X99213Y149272D01*
X98642Y150340D01*
X97873Y151277D01*
X96937Y152045D01*
X95869Y152616D01*
X94709Y152968D01*
X93504Y153087D01*
D02*
G37*
G36*
X467421Y129921D02*
X462894D01*
Y128150D01*
X467421D01*
Y129921D01*
D02*
G37*
G36*
X460925D02*
X456398D01*
Y128150D01*
X460925D01*
Y129921D01*
D02*
G37*
G36*
X56738Y129232D02*
X51029D01*
Y119587D01*
X56738D01*
Y129232D01*
D02*
G37*
G36*
X17367D02*
X11659D01*
Y119587D01*
X17367D01*
Y129232D01*
D02*
G37*
G36*
X49060D02*
X43352D01*
Y119587D01*
X49060D01*
Y129232D01*
D02*
G37*
G36*
X9690D02*
X3982D01*
Y119587D01*
X9690D01*
Y129232D01*
D02*
G37*
G36*
X464945Y116634D02*
X463173D01*
Y114370D01*
X464945D01*
Y116634D01*
D02*
G37*
G36*
X461205D02*
X459433D01*
Y114370D01*
X461205D01*
Y116634D01*
D02*
G37*
G36*
X371457Y140390D02*
X370029Y140249D01*
X368656Y139832D01*
X367391Y139156D01*
X366282Y138246D01*
X365371Y137137D01*
X364695Y135872D01*
X364279Y134499D01*
X364138Y133071D01*
X364279Y131643D01*
X364695Y130270D01*
X365371Y129005D01*
X366282Y127896D01*
X366692Y127559D01*
Y126772D01*
X366282Y126435D01*
X365371Y125326D01*
X364695Y124061D01*
X364279Y122688D01*
X364138Y121260D01*
X364279Y119832D01*
X364695Y118459D01*
X365371Y117194D01*
X366282Y116085D01*
X367391Y115175D01*
X368656Y114498D01*
X370029Y114082D01*
X371457Y113941D01*
X372884Y114082D01*
X374257Y114498D01*
X375523Y115175D01*
X376632Y116085D01*
X377542Y117194D01*
X378218Y118459D01*
X378635Y119832D01*
X378775Y121260D01*
X378635Y122688D01*
X378218Y124061D01*
X377542Y125326D01*
X376632Y126435D01*
X376222Y126772D01*
Y127559D01*
X376632Y127896D01*
X377542Y129005D01*
X378218Y130270D01*
X378635Y131643D01*
X378775Y133071D01*
X378635Y134499D01*
X378218Y135872D01*
X377542Y137137D01*
X376632Y138246D01*
X375523Y139156D01*
X374257Y139832D01*
X372884Y140249D01*
X371457Y140390D01*
D02*
G37*
G36*
X419075Y136122D02*
X406476D01*
Y130651D01*
X406384Y130348D01*
X406255Y129035D01*
Y124093D01*
X405996Y123240D01*
X405859Y121850D01*
Y117913D01*
X405996Y116524D01*
X406401Y115188D01*
X407059Y113957D01*
X407945Y112878D01*
X409024Y111993D01*
X410255Y111335D01*
X411591Y110929D01*
X412980Y110793D01*
X414369Y110929D01*
X415705Y111335D01*
X416936Y111993D01*
X418015Y112878D01*
X418901Y113957D01*
X419559Y115188D01*
X419964Y116524D01*
X420101Y117913D01*
Y121850D01*
X419964Y123240D01*
X419706Y124093D01*
Y129035D01*
X419576Y130348D01*
X419194Y131609D01*
X419075Y131832D01*
Y136122D01*
D02*
G37*
G36*
X464945Y112402D02*
X463173D01*
Y110138D01*
X464945D01*
Y112402D01*
D02*
G37*
G36*
X461205D02*
X459433D01*
Y110138D01*
X461205D01*
Y112402D01*
D02*
G37*
G36*
X68307Y222480D02*
X19685D01*
X18917Y222327D01*
X18266Y221892D01*
X17831Y221240D01*
X17678Y220472D01*
Y132382D01*
X17831Y131614D01*
X18266Y130963D01*
X18917Y130528D01*
X19685Y130375D01*
X21358D01*
Y109385D01*
X20768D01*
X19378Y109248D01*
X18155Y108877D01*
X17485Y109177D01*
X17367Y109247D01*
Y117618D01*
X11659D01*
Y107973D01*
X15449D01*
X15639Y107185D01*
X14847Y106220D01*
X14189Y104989D01*
X13784Y103653D01*
X13647Y102264D01*
X13784Y100874D01*
X14189Y99539D01*
X14847Y98308D01*
X15732Y97228D01*
X16812Y96343D01*
X18043Y95685D01*
X19378Y95280D01*
X20768Y95143D01*
X27067D01*
X27762Y95211D01*
X28456Y95280D01*
X29792Y95685D01*
X31023Y96343D01*
X32102Y97228D01*
X35153Y100280D01*
X36039Y101359D01*
X36697Y102590D01*
X37102Y103926D01*
X37239Y105315D01*
Y105610D01*
X38732D01*
X39264Y105610D01*
X39274Y105610D01*
X39753Y104940D01*
X39451Y104547D01*
X38995Y103446D01*
X38839Y102264D01*
X38995Y101082D01*
X39451Y99980D01*
X40176Y99035D01*
X41122Y98309D01*
X42224Y97853D01*
X43406Y97697D01*
X44431Y97832D01*
X66609Y75654D01*
Y71606D01*
X66273Y71169D01*
X65956Y70402D01*
X65848Y69580D01*
X65956Y68758D01*
X66273Y67992D01*
X66778Y67334D01*
X67436Y66829D01*
X68202Y66512D01*
X69024Y66403D01*
X69847Y66512D01*
X70613Y66829D01*
X71271Y67334D01*
X71776Y67992D01*
X72093Y68758D01*
X72201Y69580D01*
X72093Y70402D01*
X71776Y71169D01*
X71426Y71624D01*
Y76652D01*
X71242Y77574D01*
X70720Y78355D01*
X47837Y101238D01*
X47972Y102264D01*
X47817Y103446D01*
X47360Y104547D01*
X46635Y105493D01*
X45689Y106219D01*
X44587Y106675D01*
X43406Y106830D01*
X42224Y106675D01*
X41122Y106219D01*
X40222Y105528D01*
X40002Y105584D01*
X39469Y105864D01*
X39469Y106313D01*
Y130375D01*
X68307Y130375D01*
X69075Y130528D01*
X69726Y130963D01*
X70161Y131614D01*
X70314Y132382D01*
Y220472D01*
X70161Y221240D01*
X69726Y221892D01*
X69075Y222327D01*
X68307Y222480D01*
D02*
G37*
G36*
X292520Y123362D02*
X291092Y123221D01*
X289719Y122805D01*
X288454Y122129D01*
X287345Y121218D01*
X286434Y120109D01*
X285758Y118844D01*
X285342Y117471D01*
X285201Y116043D01*
X285342Y114615D01*
X285758Y113243D01*
X286434Y111977D01*
X287345Y110868D01*
X288454Y109958D01*
X289719Y109282D01*
X291092Y108865D01*
X292520Y108725D01*
X293948Y108865D01*
X295321Y109282D01*
X296586Y109958D01*
X297695Y110868D01*
X298605Y111977D01*
X299281Y113243D01*
X299698Y114615D01*
X299838Y116043D01*
X299698Y117471D01*
X299281Y118844D01*
X298605Y120109D01*
X297695Y121218D01*
X296586Y122129D01*
X295321Y122805D01*
X293948Y123221D01*
X292520Y123362D01*
D02*
G37*
G36*
X49060Y117618D02*
X43352D01*
Y107973D01*
X49060D01*
Y117618D01*
D02*
G37*
G36*
X9690D02*
X3982D01*
Y107973D01*
X9690D01*
Y117618D01*
D02*
G37*
G36*
X493917Y108209D02*
X492323D01*
Y106004D01*
X493917D01*
Y108209D01*
D02*
G37*
G36*
X490354D02*
X488760D01*
Y106004D01*
X490354D01*
Y108209D01*
D02*
G37*
G36*
X493917Y104035D02*
X492323D01*
Y101831D01*
X493917D01*
Y104035D01*
D02*
G37*
G36*
X490354D02*
X488760D01*
Y101831D01*
X490354D01*
Y104035D01*
D02*
G37*
G36*
X258794Y113028D02*
X257588Y112909D01*
X256429Y112557D01*
X255361Y111986D01*
X254424Y111218D01*
X253656Y110282D01*
X253085Y109213D01*
X252733Y108054D01*
X252614Y106849D01*
X252733Y105643D01*
X253085Y104484D01*
X253656Y103415D01*
X254424Y102479D01*
X255361Y101710D01*
X256429Y101139D01*
X257588Y100788D01*
X258794Y100669D01*
X259999Y100788D01*
X261158Y101139D01*
X262227Y101710D01*
X263163Y102479D01*
X263931Y103415D01*
X264503Y104484D01*
X264854Y105643D01*
X264973Y106849D01*
X264854Y108054D01*
X264503Y109213D01*
X263931Y110282D01*
X263163Y111218D01*
X262227Y111986D01*
X261158Y112557D01*
X259999Y112909D01*
X258794Y113028D01*
D02*
G37*
G36*
X217750D02*
X216545Y112909D01*
X215386Y112557D01*
X214317Y111986D01*
X213381Y111218D01*
X212612Y110282D01*
X212041Y109213D01*
X211690Y108054D01*
X211571Y106849D01*
X211690Y105643D01*
X212041Y104484D01*
X212612Y103415D01*
X213381Y102479D01*
X214317Y101710D01*
X215386Y101139D01*
X216545Y100788D01*
X217750Y100669D01*
X218956Y100788D01*
X220115Y101139D01*
X221183Y101710D01*
X222120Y102479D01*
X222888Y103415D01*
X223459Y104484D01*
X223811Y105643D01*
X223930Y106849D01*
X223811Y108054D01*
X223459Y109213D01*
X222888Y110282D01*
X222120Y111218D01*
X221183Y111986D01*
X220115Y112557D01*
X218956Y112909D01*
X217750Y113028D01*
D02*
G37*
G36*
X176149D02*
X174943Y112909D01*
X173784Y112557D01*
X172716Y111986D01*
X171779Y111218D01*
X171011Y110282D01*
X170440Y109213D01*
X170088Y108054D01*
X169969Y106849D01*
X170088Y105643D01*
X170440Y104484D01*
X171011Y103415D01*
X171779Y102479D01*
X172716Y101710D01*
X173784Y101139D01*
X174943Y100788D01*
X176149Y100669D01*
X177354Y100788D01*
X178514Y101139D01*
X179582Y101710D01*
X180518Y102479D01*
X181287Y103415D01*
X181858Y104484D01*
X182210Y105643D01*
X182328Y106849D01*
X182210Y108054D01*
X181858Y109213D01*
X181287Y110282D01*
X180518Y111218D01*
X179582Y111986D01*
X178514Y112557D01*
X177354Y112909D01*
X176149Y113028D01*
D02*
G37*
G36*
X134744Y113028D02*
X133538Y112909D01*
X132379Y112557D01*
X131311Y111986D01*
X130375Y111218D01*
X129606Y110281D01*
X129035Y109213D01*
X128683Y108054D01*
X128565Y106848D01*
X128683Y105643D01*
X129035Y104484D01*
X129606Y103415D01*
X130375Y102479D01*
X131311Y101710D01*
X132379Y101139D01*
X133538Y100788D01*
X134744Y100669D01*
X135950Y100788D01*
X137109Y101139D01*
X138177Y101710D01*
X139113Y102479D01*
X139882Y103415D01*
X140453Y104484D01*
X140805Y105643D01*
X140923Y106848D01*
X140805Y108054D01*
X140453Y109213D01*
X139882Y110281D01*
X139113Y111218D01*
X138177Y111986D01*
X137109Y112557D01*
X135950Y112909D01*
X134744Y113028D01*
D02*
G37*
G36*
X93405D02*
X92200Y112909D01*
X91041Y112557D01*
X89972Y111986D01*
X89036Y111218D01*
X88267Y110281D01*
X87696Y109213D01*
X87345Y108054D01*
X87226Y106848D01*
X87345Y105643D01*
X87696Y104484D01*
X88267Y103415D01*
X89036Y102479D01*
X89972Y101710D01*
X91041Y101139D01*
X92200Y100788D01*
X93405Y100669D01*
X94611Y100788D01*
X95770Y101139D01*
X96838Y101710D01*
X97775Y102479D01*
X98543Y103415D01*
X99114Y104484D01*
X99466Y105643D01*
X99585Y106848D01*
X99466Y108054D01*
X99114Y109213D01*
X98543Y110281D01*
X97775Y111218D01*
X96838Y111986D01*
X95770Y112557D01*
X94611Y112909D01*
X93405Y113028D01*
D02*
G37*
G36*
X472819Y100098D02*
X471047D01*
Y97835D01*
X472819D01*
Y100098D01*
D02*
G37*
G36*
X469079D02*
X467307D01*
Y97835D01*
X469079D01*
Y100098D01*
D02*
G37*
G36*
X434252Y105347D02*
X433276Y105219D01*
X432366Y104842D01*
X431585Y104242D01*
X430985Y103461D01*
X430608Y102551D01*
X430479Y101575D01*
X430608Y100598D01*
X430985Y99689D01*
X431585Y98907D01*
X432366Y98308D01*
X433276Y97931D01*
X434252Y97802D01*
X435228Y97931D01*
X436138Y98308D01*
X436919Y98907D01*
X437519Y99689D01*
X437896Y100598D01*
X438024Y101575D01*
X437896Y102551D01*
X437519Y103461D01*
X436919Y104242D01*
X436138Y104842D01*
X435228Y105219D01*
X434252Y105347D01*
D02*
G37*
G36*
X8465Y105395D02*
X7476Y105265D01*
X6555Y104883D01*
X5763Y104276D01*
X5156Y103485D01*
X4775Y102564D01*
X4645Y101575D01*
X4775Y100586D01*
X5156Y99665D01*
X5763Y98874D01*
X6555Y98267D01*
X7476Y97885D01*
X8465Y97755D01*
X9453Y97885D01*
X10375Y98267D01*
X11166Y98874D01*
X11773Y99665D01*
X12155Y100586D01*
X12285Y101575D01*
X12155Y102564D01*
X11773Y103485D01*
X11166Y104276D01*
X10375Y104883D01*
X9453Y105265D01*
X8465Y105395D01*
D02*
G37*
G36*
X516240Y99213D02*
X514223D01*
X514473Y98608D01*
X514978Y97951D01*
X515636Y97446D01*
X516240Y97196D01*
Y99213D01*
D02*
G37*
G36*
X520226D02*
X518209D01*
Y97195D01*
X518813Y97446D01*
X519471Y97951D01*
X519976Y98608D01*
X520226Y99213D01*
D02*
G37*
G36*
X56738Y117618D02*
X51029D01*
Y107973D01*
X52354D01*
X52636Y107185D01*
X52324Y106929D01*
X51555Y105992D01*
X50984Y104924D01*
X50632Y103765D01*
X50513Y102559D01*
X50632Y101354D01*
X50984Y100194D01*
X51555Y99126D01*
X52324Y98190D01*
X53260Y97421D01*
X54328Y96850D01*
X55487Y96498D01*
X56693Y96380D01*
X57898Y96498D01*
X59058Y96850D01*
X60126Y97421D01*
X61062Y98190D01*
X61831Y99126D01*
X62402Y100194D01*
X62754Y101354D01*
X62872Y102559D01*
X62754Y103765D01*
X62402Y104924D01*
X61831Y105992D01*
X61062Y106929D01*
X60126Y107697D01*
X59058Y108268D01*
X57898Y108620D01*
X56738Y108734D01*
Y117618D01*
D02*
G37*
G36*
X472819Y95866D02*
X471047D01*
Y93602D01*
X472819D01*
Y95866D01*
D02*
G37*
G36*
X469079D02*
X467307D01*
Y93602D01*
X469079D01*
Y95866D01*
D02*
G37*
G36*
X453937Y109284D02*
X452961Y109156D01*
X452051Y108779D01*
X451269Y108179D01*
X450670Y107398D01*
X450293Y106488D01*
X450165Y105512D01*
X450293Y104535D01*
X450670Y103626D01*
X451269Y102844D01*
X452051Y102245D01*
X452961Y101868D01*
X453937Y101739D01*
X454913Y101868D01*
X455823Y102245D01*
X455872Y102282D01*
X455958Y102265D01*
X456185Y102197D01*
X456263Y102204D01*
X456339Y102189D01*
X456572Y102236D01*
X456809Y102259D01*
X456877Y102296D01*
X456954Y102312D01*
X457151Y102444D01*
X457158Y102447D01*
X457194Y102462D01*
X457248Y102476D01*
X458071Y102531D01*
X458646Y101993D01*
Y101083D01*
X458646D01*
Y100886D01*
X458646D01*
Y92815D01*
X465732D01*
Y100886D01*
X465732D01*
Y101083D01*
X465732D01*
Y109153D01*
X458646D01*
Y108967D01*
X458507Y108835D01*
X457858Y108448D01*
X457626Y108475D01*
X457329Y108527D01*
X457194Y108562D01*
X457158Y108576D01*
X457151Y108580D01*
X456954Y108712D01*
X456877Y108727D01*
X456809Y108764D01*
X456572Y108788D01*
X456339Y108834D01*
X456263Y108819D01*
X456185Y108827D01*
X455958Y108758D01*
X455872Y108741D01*
X455823Y108779D01*
X454913Y109156D01*
X453937Y109284D01*
D02*
G37*
G36*
X490945Y92126D02*
X488681D01*
Y90354D01*
X490945D01*
Y92126D01*
D02*
G37*
G36*
X486713D02*
X484449D01*
Y90354D01*
X486713D01*
Y92126D01*
D02*
G37*
G36*
X499508Y92027D02*
X497244D01*
Y90256D01*
X499508D01*
Y92027D01*
D02*
G37*
G36*
X495276D02*
X493012D01*
Y90256D01*
X495276D01*
Y92027D01*
D02*
G37*
G36*
X490945Y88386D02*
X488681D01*
Y86614D01*
X490945D01*
Y88386D01*
D02*
G37*
G36*
X486713D02*
X484449D01*
Y86614D01*
X486713D01*
Y88386D01*
D02*
G37*
G36*
X499508Y88287D02*
X497244D01*
Y86516D01*
X499508D01*
Y88287D01*
D02*
G37*
G36*
X495276D02*
X493012D01*
Y86516D01*
X495276D01*
Y88287D01*
D02*
G37*
G36*
X326181Y140390D02*
X324753Y140249D01*
X323380Y139832D01*
X322115Y139156D01*
X321006Y138246D01*
X320096Y137137D01*
X319420Y135872D01*
X319003Y134499D01*
X318862Y133071D01*
X319003Y131643D01*
X319420Y130270D01*
X320096Y129005D01*
X321006Y127896D01*
X321416Y127559D01*
Y126772D01*
X321006Y126435D01*
X320096Y125326D01*
X319420Y124061D01*
X319003Y122688D01*
X318862Y121260D01*
X319003Y119832D01*
X319420Y118459D01*
X320096Y117194D01*
X321006Y116085D01*
X321416Y115748D01*
Y114961D01*
X321006Y114624D01*
X320096Y113515D01*
X319420Y112250D01*
X319003Y110877D01*
X318862Y109449D01*
X319003Y108021D01*
X319420Y106648D01*
X320096Y105383D01*
X321006Y104274D01*
X322115Y103364D01*
X323380Y102687D01*
X323972Y102508D01*
X324163Y101744D01*
X316815Y94396D01*
X315930Y93317D01*
X315271Y92086D01*
X314866Y90750D01*
X314798Y90056D01*
X314729Y89361D01*
Y79032D01*
X310436Y74739D01*
X293898D01*
X292508Y74602D01*
X291173Y74197D01*
X289941Y73539D01*
X288862Y72653D01*
X287977Y71574D01*
X287319Y70343D01*
X286913Y69007D01*
X286777Y67618D01*
X286913Y66229D01*
X287319Y64893D01*
X287977Y63662D01*
X288862Y62583D01*
X289941Y61697D01*
X291173Y61039D01*
X292508Y60634D01*
X293898Y60497D01*
X313386D01*
X314080Y60566D01*
X314775Y60634D01*
X316111Y61039D01*
X317342Y61697D01*
X318421Y62583D01*
X326886Y71047D01*
X327771Y72127D01*
X328429Y73358D01*
X328835Y74694D01*
X328903Y75388D01*
X328971Y76083D01*
Y86411D01*
X331485Y88924D01*
X332351Y88677D01*
X332891Y87666D01*
X333801Y86557D01*
X334910Y85647D01*
X336176Y84971D01*
X337549Y84554D01*
X338976Y84414D01*
X340404Y84554D01*
X341777Y84971D01*
X343042Y85647D01*
X344151Y86557D01*
X345062Y87666D01*
X345738Y88932D01*
X346154Y90304D01*
X346295Y91732D01*
X346154Y93160D01*
X345738Y94533D01*
X345062Y95798D01*
X344151Y96907D01*
X343240Y97655D01*
X343163Y97963D01*
Y98297D01*
X343240Y98605D01*
X344151Y99353D01*
X345062Y100461D01*
X345738Y101727D01*
X346154Y103100D01*
X346295Y104528D01*
X346154Y105955D01*
X345738Y107328D01*
X345062Y108594D01*
X344151Y109703D01*
X343042Y110613D01*
X341777Y111289D01*
X340404Y111706D01*
X338976Y111846D01*
X337549Y111706D01*
X337360Y111648D01*
X337017D01*
X335628Y111512D01*
X334292Y111106D01*
X334103Y111005D01*
X333196Y111414D01*
X332943Y112250D01*
X332266Y113515D01*
X331356Y114624D01*
X330946Y114961D01*
Y115748D01*
X331356Y116085D01*
X332266Y117194D01*
X332943Y118459D01*
X333359Y119832D01*
X333500Y121260D01*
X333359Y122688D01*
X332943Y124061D01*
X332266Y125326D01*
X331356Y126435D01*
X330946Y126772D01*
Y127559D01*
X331356Y127896D01*
X332266Y129005D01*
X332943Y130270D01*
X333359Y131643D01*
X333500Y133071D01*
X333359Y134499D01*
X332943Y135872D01*
X332266Y137137D01*
X331356Y138246D01*
X330247Y139156D01*
X328982Y139832D01*
X327609Y140249D01*
X326181Y140390D01*
D02*
G37*
G36*
X292520Y99051D02*
X291092Y98910D01*
X289719Y98494D01*
X288454Y97818D01*
X287345Y96907D01*
X286434Y95798D01*
X285758Y94533D01*
X285342Y93160D01*
X285201Y91732D01*
X285342Y90304D01*
X285758Y88932D01*
X286434Y87666D01*
X287345Y86557D01*
X288454Y85647D01*
X289719Y84971D01*
X291092Y84554D01*
X292520Y84414D01*
X293948Y84554D01*
X295321Y84971D01*
X296586Y85647D01*
X297695Y86557D01*
X298605Y87666D01*
X299281Y88932D01*
X299698Y90304D01*
X299838Y91732D01*
X299698Y93160D01*
X299281Y94533D01*
X298605Y95798D01*
X297695Y96907D01*
X296586Y97818D01*
X295321Y98494D01*
X293948Y98910D01*
X292520Y99051D01*
D02*
G37*
G36*
X270970Y96449D02*
X269736Y96327D01*
X268548Y95967D01*
X267454Y95382D01*
X266495Y94595D01*
X265707Y93636D01*
X265123Y92541D01*
X264762Y91354D01*
X264641Y90119D01*
X264762Y88884D01*
X265123Y87697D01*
X265707Y86602D01*
X266495Y85643D01*
X267454Y84856D01*
X268548Y84271D01*
X269736Y83911D01*
X270970Y83789D01*
X272205Y83911D01*
X273393Y84271D01*
X274487Y84856D01*
X275446Y85643D01*
X276233Y86602D01*
X276818Y87697D01*
X277179Y88884D01*
X277300Y90119D01*
X277179Y91354D01*
X276818Y92541D01*
X276233Y93636D01*
X275446Y94595D01*
X274487Y95382D01*
X273393Y95967D01*
X272205Y96327D01*
X270970Y96449D01*
D02*
G37*
G36*
X250970D02*
X249736Y96327D01*
X248548Y95967D01*
X247454Y95382D01*
X246495Y94595D01*
X245708Y93636D01*
X245123Y92541D01*
X244762Y91354D01*
X244641Y90119D01*
X244762Y88884D01*
X245123Y87697D01*
X245708Y86602D01*
X246495Y85643D01*
X247454Y84856D01*
X248548Y84271D01*
X249736Y83911D01*
X250970Y83789D01*
X252205Y83911D01*
X253393Y84271D01*
X254487Y84856D01*
X255446Y85643D01*
X256233Y86602D01*
X256818Y87697D01*
X257178Y88884D01*
X257300Y90119D01*
X257178Y91354D01*
X256818Y92541D01*
X256233Y93636D01*
X255446Y94595D01*
X254487Y95382D01*
X253393Y95967D01*
X252205Y96327D01*
X250970Y96449D01*
D02*
G37*
G36*
X229750D02*
X228515Y96327D01*
X227328Y95967D01*
X226233Y95382D01*
X225274Y94595D01*
X224487Y93636D01*
X223902Y92541D01*
X223542Y91354D01*
X223420Y90119D01*
X223542Y88884D01*
X223902Y87697D01*
X224487Y86602D01*
X225274Y85643D01*
X226233Y84856D01*
X227328Y84271D01*
X228515Y83911D01*
X229750Y83789D01*
X230985Y83911D01*
X232172Y84271D01*
X233267Y84856D01*
X234226Y85643D01*
X235013Y86602D01*
X235598Y87697D01*
X235958Y88884D01*
X236080Y90119D01*
X235958Y91354D01*
X235598Y92541D01*
X235013Y93636D01*
X234226Y94595D01*
X233267Y95382D01*
X232172Y95967D01*
X230985Y96327D01*
X229750Y96449D01*
D02*
G37*
G36*
X209750D02*
X208515Y96327D01*
X207328Y95967D01*
X206233Y95382D01*
X205274Y94595D01*
X204487Y93636D01*
X203902Y92541D01*
X203542Y91354D01*
X203420Y90119D01*
X203542Y88884D01*
X203902Y87697D01*
X204487Y86602D01*
X205274Y85643D01*
X206233Y84856D01*
X207328Y84271D01*
X208515Y83911D01*
X209750Y83789D01*
X210985Y83911D01*
X212172Y84271D01*
X213267Y84856D01*
X214226Y85643D01*
X215013Y86602D01*
X215598Y87697D01*
X215958Y88884D01*
X216080Y90119D01*
X215958Y91354D01*
X215598Y92541D01*
X215013Y93636D01*
X214226Y94595D01*
X213267Y95382D01*
X212172Y95967D01*
X210985Y96327D01*
X209750Y96449D01*
D02*
G37*
G36*
X188530D02*
X187295Y96327D01*
X186107Y95967D01*
X185013Y95382D01*
X184054Y94595D01*
X183267Y93636D01*
X182682Y92541D01*
X182321Y91354D01*
X182200Y90119D01*
X182321Y88884D01*
X182682Y87697D01*
X183267Y86602D01*
X184054Y85643D01*
X185013Y84856D01*
X186107Y84271D01*
X187295Y83911D01*
X188530Y83789D01*
X189764Y83911D01*
X190952Y84271D01*
X192046Y84856D01*
X193005Y85643D01*
X193792Y86602D01*
X194377Y87697D01*
X194738Y88884D01*
X194859Y90119D01*
X194738Y91354D01*
X194377Y92541D01*
X193792Y93636D01*
X193005Y94595D01*
X192046Y95382D01*
X190952Y95967D01*
X189764Y96327D01*
X188530Y96449D01*
D02*
G37*
G36*
X168529D02*
X167295Y96327D01*
X166107Y95967D01*
X165013Y95382D01*
X164054Y94595D01*
X163267Y93636D01*
X162682Y92541D01*
X162321Y91354D01*
X162200Y90119D01*
X162321Y88884D01*
X162682Y87697D01*
X163267Y86602D01*
X164054Y85643D01*
X165013Y84856D01*
X166107Y84271D01*
X167295Y83911D01*
X168529Y83789D01*
X169764Y83911D01*
X170952Y84271D01*
X172046Y84856D01*
X173005Y85643D01*
X173793Y86602D01*
X174377Y87697D01*
X174738Y88884D01*
X174859Y90119D01*
X174738Y91354D01*
X174377Y92541D01*
X173793Y93636D01*
X173005Y94595D01*
X172046Y95382D01*
X170952Y95967D01*
X169764Y96327D01*
X168529Y96449D01*
D02*
G37*
G36*
X147309D02*
X146074Y96327D01*
X144887Y95967D01*
X143792Y95382D01*
X142833Y94595D01*
X142046Y93636D01*
X141461Y92541D01*
X141101Y91354D01*
X140979Y90119D01*
X141101Y88884D01*
X141461Y87697D01*
X142046Y86602D01*
X142833Y85643D01*
X143792Y84856D01*
X144887Y84271D01*
X146074Y83911D01*
X147309Y83789D01*
X148544Y83911D01*
X149731Y84271D01*
X150826Y84856D01*
X151785Y85643D01*
X152572Y86602D01*
X153157Y87697D01*
X153517Y88884D01*
X153639Y90119D01*
X153517Y91354D01*
X153157Y92541D01*
X152572Y93636D01*
X151785Y94595D01*
X150826Y95382D01*
X149731Y95967D01*
X148544Y96327D01*
X147309Y96449D01*
D02*
G37*
G36*
X127309D02*
X126074Y96327D01*
X124887Y95967D01*
X123793Y95382D01*
X122833Y94595D01*
X122046Y93636D01*
X121461Y92541D01*
X121101Y91354D01*
X120979Y90119D01*
X121101Y88884D01*
X121461Y87697D01*
X122046Y86602D01*
X122833Y85643D01*
X123793Y84856D01*
X124887Y84271D01*
X126074Y83911D01*
X127309Y83789D01*
X128544Y83911D01*
X129731Y84271D01*
X130826Y84856D01*
X131785Y85643D01*
X132572Y86602D01*
X133157Y87697D01*
X133517Y88884D01*
X133639Y90119D01*
X133517Y91354D01*
X133157Y92541D01*
X132572Y93636D01*
X131785Y94595D01*
X130826Y95382D01*
X129731Y95967D01*
X128544Y96327D01*
X127309Y96449D01*
D02*
G37*
G36*
X86089D02*
X84854Y96327D01*
X83666Y95967D01*
X82572Y95382D01*
X81613Y94595D01*
X80826Y93636D01*
X80241Y92541D01*
X79880Y91354D01*
X79759Y90119D01*
X79880Y88884D01*
X80241Y87697D01*
X80826Y86602D01*
X81613Y85643D01*
X82572Y84856D01*
X83666Y84271D01*
X84854Y83911D01*
X86089Y83789D01*
X87323Y83911D01*
X88511Y84271D01*
X89605Y84856D01*
X90564Y85643D01*
X91351Y86602D01*
X91936Y87697D01*
X92297Y88884D01*
X92418Y90119D01*
X92297Y91354D01*
X91936Y92541D01*
X91351Y93636D01*
X90564Y94595D01*
X89605Y95382D01*
X88511Y95967D01*
X87323Y96327D01*
X86089Y96449D01*
D02*
G37*
G36*
X476673Y160728D02*
X469587D01*
Y152657D01*
X469858D01*
Y150886D01*
X468602D01*
X468602Y144415D01*
Y144352D01*
X468560Y144061D01*
X468314Y143671D01*
X468046Y143552D01*
X467772Y143504D01*
X467612Y143504D01*
X455610D01*
Y136417D01*
X468209D01*
X468602Y135925D01*
Y135925D01*
X469858D01*
Y134350D01*
X468602D01*
Y126279D01*
X469858D01*
Y122539D01*
X469953Y121820D01*
X470230Y121150D01*
X470672Y120574D01*
X472641Y118605D01*
X473158Y118209D01*
X473160Y118122D01*
X472674Y117421D01*
X466520D01*
Y109350D01*
X466520D01*
Y109153D01*
X466520D01*
Y101083D01*
X473606D01*
Y109153D01*
X473606D01*
Y109350D01*
X473606D01*
Y117061D01*
X473606D01*
X473772Y117380D01*
X474348Y117825D01*
X474606Y117791D01*
X475295D01*
Y117027D01*
X482224D01*
X482962Y116240D01*
X482962Y116240D01*
X482910Y116240D01*
X475295D01*
Y109153D01*
X475079Y108996D01*
X475079D01*
Y101043D01*
X475079D01*
X475295Y100787D01*
Y93701D01*
X483366D01*
Y93701D01*
X483661Y93701D01*
Y93701D01*
X491732D01*
Y93701D01*
X492224Y93602D01*
X492224Y93602D01*
X492479Y93602D01*
X499878D01*
X500295Y93602D01*
X500665Y92968D01*
Y83435D01*
X498849Y81618D01*
X483957D01*
Y82874D01*
X476870D01*
Y74803D01*
X483957D01*
Y76059D01*
X500000D01*
X500719Y76154D01*
X501390Y76431D01*
X501966Y76873D01*
X505410Y80318D01*
X505852Y80894D01*
X506130Y81564D01*
X506224Y82284D01*
Y105195D01*
X506232Y105229D01*
X506236Y106089D01*
X506305Y108168D01*
X506390Y109084D01*
X506434Y109357D01*
X506468Y109505D01*
X506495Y109576D01*
X506582Y109706D01*
X506613Y109861D01*
X506673Y110007D01*
X506673Y110166D01*
X506704Y110321D01*
X506673Y110476D01*
X506673Y110633D01*
X506613Y110780D01*
X506582Y110935D01*
X506494Y111066D01*
X506479Y111103D01*
X506513Y111186D01*
X506622Y112008D01*
X506513Y112830D01*
X506196Y113596D01*
X505691Y114254D01*
X505609Y114318D01*
Y115310D01*
X505735Y115407D01*
X506240Y116065D01*
X506557Y116831D01*
X506665Y117653D01*
X506557Y118475D01*
X506268Y119173D01*
Y122988D01*
X506174Y123707D01*
X505896Y124378D01*
X505454Y124953D01*
X498127Y132281D01*
X497551Y132722D01*
X496881Y133000D01*
X496161Y133095D01*
X483563D01*
Y134350D01*
X476476D01*
Y126279D01*
X483563D01*
Y127535D01*
X495010D01*
X500709Y121836D01*
Y119173D01*
X500420Y118475D01*
X500312Y117653D01*
X500420Y116831D01*
X500737Y116065D01*
X501242Y115407D01*
X501325Y115344D01*
Y114351D01*
X501198Y114254D01*
X500694Y113596D01*
X500376Y112830D01*
X500268Y112008D01*
X500376Y111186D01*
X500411Y111103D01*
X500395Y111066D01*
X500308Y110935D01*
X500277Y110780D01*
X500216Y110633D01*
X500216Y110476D01*
X500186Y110321D01*
X500217Y110165D01*
X500217Y110007D01*
X500277Y109861D01*
X500308Y109706D01*
X500395Y109576D01*
X500421Y109505D01*
X500438Y109432D01*
X500654Y106065D01*
X500658Y105229D01*
X500665Y105195D01*
Y101323D01*
X500295Y100689D01*
X499878Y100689D01*
X492224D01*
Y100689D01*
X491732Y100787D01*
X491732Y100787D01*
X491478Y100787D01*
X483661D01*
Y100787D01*
X483366Y100787D01*
Y100787D01*
X482492D01*
X481811Y101043D01*
Y108996D01*
X482533Y109153D01*
X483366D01*
Y109153D01*
X483760Y109055D01*
X483760Y109055D01*
X484113Y109055D01*
X491831D01*
Y116142D01*
X484482D01*
X483760Y116929D01*
X483796Y116929D01*
X484113Y116929D01*
X491831D01*
Y124016D01*
X484113D01*
X483366Y124114D01*
X483013Y124114D01*
X475418D01*
Y126279D01*
X475689D01*
Y134350D01*
X475418D01*
Y135925D01*
X476673D01*
Y143012D01*
X469157D01*
X469102Y143210D01*
X469679Y143799D01*
X476673D01*
Y150886D01*
X475418D01*
Y152657D01*
X476673D01*
Y160728D01*
D02*
G37*
G36*
X392323Y107023D02*
X390934Y106886D01*
X389598Y106480D01*
X388367Y105822D01*
X387288Y104937D01*
X386402Y103858D01*
X385744Y102627D01*
X385339Y101291D01*
X385202Y99902D01*
Y95965D01*
X385339Y94575D01*
X385597Y93722D01*
Y88287D01*
X385603Y88235D01*
Y84547D01*
X385711Y83725D01*
X386024Y82970D01*
Y81398D01*
X388573D01*
X388779Y81371D01*
X395866D01*
X396073Y81398D01*
X398622D01*
Y82970D01*
X398935Y83725D01*
X399043Y84547D01*
Y88235D01*
X399048Y88287D01*
Y93722D01*
X399307Y94575D01*
X399444Y95965D01*
Y99902D01*
X399307Y101291D01*
X398902Y102627D01*
X398244Y103858D01*
X397358Y104937D01*
X396279Y105822D01*
X395048Y106480D01*
X393712Y106886D01*
X392323Y107023D01*
D02*
G37*
G36*
X467421Y82677D02*
X462894D01*
Y80905D01*
X467421D01*
Y82677D01*
D02*
G37*
G36*
X460925D02*
X456398D01*
Y80905D01*
X460925D01*
Y82677D01*
D02*
G37*
G36*
X467421Y78937D02*
X462894D01*
Y77165D01*
X467421D01*
Y78937D01*
D02*
G37*
G36*
X460925D02*
X456398D01*
Y77165D01*
X460925D01*
Y78937D01*
D02*
G37*
G36*
X483366Y92913D02*
X475295D01*
Y92150D01*
X475098D01*
X474379Y92055D01*
X473709Y91777D01*
X473133Y91336D01*
X470574Y88776D01*
X470132Y88201D01*
X469854Y87530D01*
X469760Y86811D01*
Y82874D01*
X468996D01*
Y74803D01*
X470153D01*
Y73721D01*
X468898D01*
X468898Y73721D01*
Y73721D01*
X468898Y73721D01*
X468209Y73958D01*
Y74409D01*
X455610D01*
Y67323D01*
X468209D01*
Y67323D01*
X468898Y67085D01*
Y66634D01*
X476968D01*
Y73721D01*
X475713D01*
Y74803D01*
X476083D01*
Y82874D01*
X475319D01*
Y85659D01*
X475486Y85827D01*
X483366D01*
Y92913D01*
D02*
G37*
G36*
X412795Y104667D02*
X411562Y104504D01*
X410413Y104028D01*
X409426Y103271D01*
X408669Y102284D01*
X408192Y101135D01*
X408030Y99902D01*
Y99803D01*
X407809Y99269D01*
X407633Y97933D01*
Y88287D01*
X407646Y88186D01*
Y84547D01*
X407768Y83933D01*
X408117Y83412D01*
X408169Y83377D01*
Y82972D01*
X409097D01*
X409252Y82942D01*
X416339D01*
X416494Y82972D01*
X417618D01*
Y83628D01*
X417822Y83933D01*
X417944Y84547D01*
Y84714D01*
X419851D01*
Y70870D01*
X418602Y69621D01*
X417815Y69784D01*
Y69784D01*
X410728D01*
Y66567D01*
X410203Y66391D01*
X409941Y66667D01*
Y69784D01*
X409154D01*
Y71131D01*
X413091D01*
X413323Y71161D01*
X417618D01*
Y78248D01*
X413323D01*
X413091Y78279D01*
X392323D01*
X392091Y78248D01*
X387598D01*
Y71161D01*
X387598Y71161D01*
X387598D01*
X387598Y70356D01*
Y65980D01*
X387568Y65748D01*
Y60532D01*
X387690Y59606D01*
X388047Y58745D01*
X388615Y58004D01*
X392256Y54363D01*
X392256Y54363D01*
X392997Y53795D01*
X393859Y53438D01*
X394783Y53316D01*
X425197D01*
X426122Y53438D01*
X426984Y53795D01*
X427724Y54363D01*
X432810Y59449D01*
X444858D01*
Y56102D01*
X444953Y55383D01*
X445230Y54712D01*
X445672Y54137D01*
X449019Y50790D01*
X449594Y50349D01*
X450265Y50071D01*
X450984Y49976D01*
X461909D01*
Y48720D01*
X468996D01*
Y56791D01*
X461909D01*
Y55536D01*
X452136D01*
X450418Y57254D01*
Y59449D01*
X450591D01*
Y82284D01*
X437032D01*
Y83074D01*
X437039Y83107D01*
X437047Y84163D01*
X437115Y85966D01*
X437248Y87359D01*
X437329Y87860D01*
X437417Y88249D01*
X437496Y88492D01*
X437529Y88563D01*
X437597Y88652D01*
X437687Y88837D01*
X437802Y89009D01*
X437824Y89116D01*
X437872Y89215D01*
X437884Y89421D01*
X437924Y89624D01*
X437903Y89731D01*
X437910Y89840D01*
X437843Y90035D01*
X437802Y90238D01*
X437742Y90329D01*
X437731Y90359D01*
X437896Y90756D01*
X438024Y91732D01*
X437896Y92709D01*
X437519Y93619D01*
X436919Y94400D01*
X436138Y94999D01*
X435228Y95376D01*
X434252Y95505D01*
X433276Y95376D01*
X432366Y94999D01*
X431585Y94400D01*
X430985Y93619D01*
X430608Y92709D01*
X430479Y91732D01*
X430608Y90756D01*
X430773Y90359D01*
X430762Y90329D01*
X430702Y90238D01*
X430661Y90035D01*
X430594Y89840D01*
X430601Y89731D01*
X430579Y89624D01*
X430620Y89421D01*
X430632Y89215D01*
X430680Y89116D01*
X430702Y89009D01*
X430816Y88837D01*
X430907Y88652D01*
X430975Y88563D01*
X431008Y88492D01*
X431087Y88249D01*
X431175Y87860D01*
X431252Y87384D01*
X431457Y84143D01*
X431465Y83107D01*
X431472Y83074D01*
Y82284D01*
X427786D01*
X427756Y82284D01*
X426999Y82357D01*
Y86614D01*
X426877Y87539D01*
X426520Y88401D01*
X425952Y89141D01*
X424279Y90815D01*
X423539Y91382D01*
X422677Y91739D01*
X421752Y91861D01*
X417957D01*
Y97933D01*
X417782Y99269D01*
X417560Y99803D01*
Y99902D01*
X417398Y101135D01*
X416922Y102284D01*
X416165Y103271D01*
X415178Y104028D01*
X414029Y104504D01*
X412795Y104667D01*
D02*
G37*
G36*
X500197Y69417D02*
X499375Y69309D01*
X498677Y69020D01*
X489413D01*
X488716Y69309D01*
X487894Y69417D01*
X487072Y69309D01*
X486305Y68991D01*
X485647Y68486D01*
X485143Y67829D01*
X484825Y67062D01*
X484717Y66240D01*
X484825Y65418D01*
X485143Y64652D01*
X485647Y63994D01*
X486305Y63489D01*
X487072Y63172D01*
X487894Y63063D01*
X488716Y63172D01*
X489413Y63460D01*
X498677D01*
X499375Y63172D01*
X500197Y63063D01*
X501019Y63172D01*
X501785Y63489D01*
X502443Y63994D01*
X502948Y64652D01*
X503265Y65418D01*
X503374Y66240D01*
X503265Y67062D01*
X502948Y67829D01*
X502443Y68486D01*
X501785Y68991D01*
X501019Y69309D01*
X500197Y69417D01*
D02*
G37*
G36*
X467421Y64567D02*
X462894D01*
Y62795D01*
X467421D01*
Y64567D01*
D02*
G37*
G36*
X460925D02*
X456398D01*
Y62795D01*
X460925D01*
Y64567D01*
D02*
G37*
G36*
X362453Y76117D02*
X361064Y75980D01*
X359728Y75575D01*
X358497Y74917D01*
X357417Y74031D01*
X356532Y72952D01*
X355874Y71721D01*
X355469Y70385D01*
X355332Y68996D01*
X355469Y67607D01*
X355874Y66271D01*
X356532Y65040D01*
X357417Y63961D01*
X358497Y63075D01*
X359728Y62417D01*
X361064Y62012D01*
X362453Y61875D01*
X363842Y62012D01*
X364579Y62235D01*
X365366Y61909D01*
Y61909D01*
X379539D01*
Y76083D01*
X365366D01*
Y76083D01*
X364579Y75757D01*
X363842Y75980D01*
X362453Y76117D01*
D02*
G37*
G36*
X467421Y60827D02*
X462894D01*
Y59055D01*
X467421D01*
Y60827D01*
D02*
G37*
G36*
X460925D02*
X456398D01*
Y59055D01*
X460925D01*
Y60827D01*
D02*
G37*
G36*
X271955Y53961D02*
Y51103D01*
X274812D01*
X274806Y51147D01*
X274409Y52105D01*
X273778Y52927D01*
X272956Y53558D01*
X271998Y53955D01*
X271955Y53961D01*
D02*
G37*
G36*
X269986D02*
X269943Y53955D01*
X268985Y53558D01*
X268162Y52927D01*
X267531Y52105D01*
X267135Y51147D01*
X267129Y51103D01*
X269986D01*
Y53961D01*
D02*
G37*
G36*
X230734D02*
Y51103D01*
X233591D01*
X233586Y51147D01*
X233189Y52105D01*
X232558Y52927D01*
X231735Y53558D01*
X230778Y53955D01*
X230734Y53961D01*
D02*
G37*
G36*
X228766D02*
X228722Y53955D01*
X227765Y53558D01*
X226942Y52927D01*
X226311Y52105D01*
X225914Y51147D01*
X225909Y51103D01*
X228766D01*
Y53961D01*
D02*
G37*
G36*
X189514D02*
Y51103D01*
X192371D01*
X192365Y51147D01*
X191969Y52105D01*
X191337Y52927D01*
X190515Y53558D01*
X189557Y53955D01*
X189514Y53961D01*
D02*
G37*
G36*
X107073D02*
Y51103D01*
X109930D01*
X109924Y51147D01*
X109528Y52105D01*
X108897Y52927D01*
X108074Y53558D01*
X107116Y53955D01*
X107073Y53961D01*
D02*
G37*
G36*
X105104D02*
X105061Y53955D01*
X104103Y53558D01*
X103281Y52927D01*
X102650Y52105D01*
X102253Y51147D01*
X102247Y51103D01*
X105104D01*
Y53961D01*
D02*
G37*
G36*
X187545D02*
X187502Y53955D01*
X186544Y53558D01*
X185722Y52927D01*
X185091Y52105D01*
X184694Y51147D01*
X184688Y51103D01*
X187545D01*
Y53961D01*
D02*
G37*
G36*
X148293Y53961D02*
Y51103D01*
X151151D01*
X151145Y51147D01*
X150748Y52105D01*
X150117Y52927D01*
X149294Y53558D01*
X148337Y53955D01*
X148293Y53961D01*
D02*
G37*
G36*
X146325Y53961D02*
X146281Y53955D01*
X145324Y53558D01*
X144501Y52927D01*
X143870Y52105D01*
X143473Y51147D01*
X143468Y51103D01*
X146325D01*
Y53961D01*
D02*
G37*
G36*
X525197Y55020D02*
X522638D01*
Y50492D01*
X525197D01*
Y55020D01*
D02*
G37*
G36*
X520669D02*
X518110D01*
Y50492D01*
X520669D01*
Y55020D01*
D02*
G37*
G36*
X250970Y64109D02*
X249943Y63973D01*
X248985Y63577D01*
X248163Y62946D01*
X247531Y62123D01*
X247135Y61166D01*
X246999Y60138D01*
X247135Y59110D01*
X247531Y58152D01*
X248163Y57330D01*
X248776Y56859D01*
X248725Y56147D01*
X248656Y55999D01*
X248548Y55967D01*
X247454Y55382D01*
X246495Y54595D01*
X245708Y53636D01*
X245584Y53404D01*
X239355Y47175D01*
X233446D01*
X233058Y47963D01*
X233189Y48134D01*
X233586Y49091D01*
X233591Y49135D01*
X229750D01*
X225909D01*
X225914Y49091D01*
X226311Y48134D01*
X226442Y47963D01*
X226054Y47175D01*
X215882D01*
Y48633D01*
X215958Y48884D01*
X216080Y50119D01*
X215958Y51354D01*
X215598Y52541D01*
X215013Y53636D01*
X214226Y54595D01*
X213267Y55382D01*
X212172Y55967D01*
X212065Y55999D01*
X211995Y56147D01*
X211944Y56859D01*
X212558Y57330D01*
X213189Y58152D01*
X213586Y59110D01*
X213721Y60138D01*
X213586Y61166D01*
X213189Y62123D01*
X212558Y62946D01*
X211735Y63577D01*
X210778Y63973D01*
X209750Y64109D01*
X208722Y63973D01*
X207765Y63577D01*
X206942Y62946D01*
X206311Y62123D01*
X205914Y61166D01*
X205779Y60138D01*
X205914Y59110D01*
X206311Y58152D01*
X206942Y57330D01*
X207556Y56859D01*
X207505Y56147D01*
X207435Y55999D01*
X207328Y55967D01*
X206233Y55382D01*
X205274Y54595D01*
X204487Y53636D01*
X203902Y52541D01*
X203542Y51354D01*
X203420Y50119D01*
X203542Y48884D01*
X203618Y48633D01*
Y47175D01*
X192226D01*
X191837Y47963D01*
X191969Y48134D01*
X192365Y49091D01*
X192371Y49135D01*
X188530D01*
X184688D01*
X184694Y49091D01*
X185091Y48134D01*
X185222Y47963D01*
X184834Y47175D01*
X174586D01*
Y48385D01*
X174738Y48884D01*
X174859Y50119D01*
X174738Y51354D01*
X174377Y52541D01*
X173793Y53636D01*
X173005Y54595D01*
X172046Y55382D01*
X170952Y55967D01*
X170844Y55999D01*
X170775Y56147D01*
X170724Y56859D01*
X171337Y57330D01*
X171968Y58152D01*
X172365Y59110D01*
X172501Y60138D01*
X172365Y61166D01*
X171968Y62123D01*
X171337Y62946D01*
X170515Y63577D01*
X169557Y63973D01*
X168529Y64109D01*
X167502Y63973D01*
X166544Y63577D01*
X165722Y62946D01*
X165091Y62123D01*
X164694Y61166D01*
X164558Y60138D01*
X164694Y59110D01*
X165091Y58152D01*
X165722Y57330D01*
X166335Y56859D01*
X166284Y56147D01*
X166215Y55999D01*
X166107Y55967D01*
X165013Y55382D01*
X164054Y54595D01*
X163267Y53636D01*
X162682Y52541D01*
X162321Y51354D01*
X162200Y50119D01*
X162321Y48884D01*
X162322Y48881D01*
Y47175D01*
X151005D01*
X150617Y47963D01*
X150748Y48134D01*
X151145Y49091D01*
X151151Y49135D01*
X147309D01*
X143468D01*
X143473Y49091D01*
X143870Y48134D01*
X144001Y47963D01*
X143613Y47175D01*
X133366D01*
Y48385D01*
X133517Y48884D01*
X133639Y50119D01*
X133517Y51354D01*
X133157Y52541D01*
X132572Y53636D01*
X131785Y54595D01*
X130826Y55382D01*
X129731Y55967D01*
X129624Y55999D01*
X129554Y56147D01*
X129503Y56859D01*
X130117Y57330D01*
X130748Y58152D01*
X131145Y59110D01*
X131280Y60138D01*
X131145Y61166D01*
X130748Y62123D01*
X130117Y62946D01*
X129295Y63577D01*
X128337Y63973D01*
X127309Y64109D01*
X126281Y63973D01*
X125324Y63577D01*
X124501Y62946D01*
X123870Y62123D01*
X123473Y61166D01*
X123338Y60138D01*
X123473Y59110D01*
X123870Y58152D01*
X124501Y57330D01*
X125115Y56859D01*
X125064Y56147D01*
X124994Y55999D01*
X124887Y55967D01*
X123793Y55382D01*
X122833Y54595D01*
X122046Y53636D01*
X121461Y52541D01*
X121101Y51354D01*
X120979Y50119D01*
X121101Y48884D01*
X121102Y48881D01*
Y47175D01*
X109785D01*
X109396Y47963D01*
X109528Y48134D01*
X109924Y49091D01*
X109930Y49135D01*
X106089D01*
X102247D01*
X102253Y49091D01*
X102650Y48134D01*
X102781Y47963D01*
X102393Y47175D01*
X92220D01*
Y48633D01*
X92297Y48884D01*
X92418Y50119D01*
X92297Y51354D01*
X91936Y52541D01*
X91351Y53636D01*
X90564Y54595D01*
X89605Y55382D01*
X88511Y55967D01*
X88404Y55999D01*
X88334Y56147D01*
X88283Y56859D01*
X88897Y57330D01*
X89528Y58152D01*
X89924Y59110D01*
X90060Y60138D01*
X89924Y61166D01*
X89528Y62123D01*
X88897Y62946D01*
X88074Y63577D01*
X87116Y63973D01*
X86089Y64109D01*
X85061Y63973D01*
X84103Y63577D01*
X83281Y62946D01*
X82650Y62123D01*
X82253Y61166D01*
X82118Y60138D01*
X82253Y59110D01*
X82650Y58152D01*
X83281Y57330D01*
X83894Y56859D01*
X83843Y56147D01*
X83774Y55999D01*
X83666Y55967D01*
X82572Y55382D01*
X81613Y54595D01*
X80826Y53636D01*
X80241Y52541D01*
X79880Y51354D01*
X79759Y50119D01*
X79880Y48884D01*
X79957Y48633D01*
Y47175D01*
X30118D01*
X28922Y47057D01*
X27771Y46708D01*
X26711Y46142D01*
X25782Y45379D01*
X18655Y38252D01*
X18118Y38089D01*
X16921Y37449D01*
X15872Y36588D01*
X15011Y35539D01*
X14372Y34342D01*
X13978Y33044D01*
X13845Y31693D01*
X13978Y30342D01*
X14372Y29043D01*
X15011Y27847D01*
X15872Y26798D01*
X16921Y25937D01*
X18118Y25297D01*
X19417Y24903D01*
X20768Y24770D01*
X22118Y24903D01*
X23417Y25297D01*
X24614Y25937D01*
X25663Y26798D01*
X26524Y27847D01*
X27164Y29043D01*
X27327Y29580D01*
X32658Y34911D01*
X39278D01*
X39626Y34205D01*
X39451Y33976D01*
X38995Y32875D01*
X38839Y31693D01*
X38995Y30511D01*
X39451Y29410D01*
X40176Y28464D01*
X41122Y27738D01*
X42224Y27282D01*
X43406Y27126D01*
X44587Y27282D01*
X45689Y27738D01*
X46635Y28464D01*
X47360Y29410D01*
X47817Y30511D01*
X47972Y31693D01*
X47817Y32875D01*
X47360Y33976D01*
X47185Y34205D01*
X47533Y34911D01*
X54417D01*
X54769Y34124D01*
X54369Y33603D01*
X53987Y32682D01*
X53987Y32677D01*
X57677D01*
X61368D01*
X61367Y32682D01*
X60985Y33603D01*
X60586Y34124D01*
X60937Y34911D01*
X65575D01*
X65877Y34184D01*
X65846Y34154D01*
Y31004D01*
X67421Y29429D01*
X70571D01*
X72146Y31004D01*
Y34154D01*
X72115Y34184D01*
X72417Y34911D01*
X94072D01*
X94493Y34167D01*
X94175Y33401D01*
X94067Y32579D01*
X94175Y31756D01*
X94493Y30990D01*
X94998Y30332D01*
X95656Y29828D01*
X96422Y29510D01*
X97244Y29402D01*
X98066Y29510D01*
X98832Y29828D01*
X99490Y30332D01*
X99995Y30990D01*
X100313Y31756D01*
X100421Y32579D01*
X100313Y33401D01*
X99995Y34167D01*
X100417Y34911D01*
X129041D01*
X129342Y34184D01*
X128207Y33049D01*
Y29309D01*
X130077Y27439D01*
X133817D01*
X135687Y29309D01*
Y33049D01*
X134552Y34184D01*
X134853Y34911D01*
X241895D01*
X243091Y35029D01*
X244241Y35378D01*
X245301Y35945D01*
X246231Y36707D01*
X254256Y44732D01*
X254487Y44856D01*
X255446Y45643D01*
X256233Y46602D01*
X256818Y47697D01*
X257178Y48884D01*
X257300Y50119D01*
X257178Y51354D01*
X256818Y52541D01*
X256233Y53636D01*
X255446Y54595D01*
X254487Y55382D01*
X253393Y55967D01*
X253285Y55999D01*
X253216Y56147D01*
X253165Y56859D01*
X253778Y57330D01*
X254409Y58152D01*
X254806Y59110D01*
X254941Y60138D01*
X254806Y61166D01*
X254409Y62123D01*
X253778Y62946D01*
X252956Y63577D01*
X251998Y63973D01*
X250970Y64109D01*
D02*
G37*
G36*
X274812Y49135D02*
X271955D01*
Y46278D01*
X271998Y46283D01*
X272956Y46680D01*
X273778Y47311D01*
X274409Y48134D01*
X274806Y49091D01*
X274812Y49135D01*
D02*
G37*
G36*
X269986D02*
X267129D01*
X267135Y49091D01*
X267531Y48134D01*
X268162Y47311D01*
X268985Y46680D01*
X269943Y46283D01*
X269986Y46278D01*
Y49135D01*
D02*
G37*
G36*
X525197Y48524D02*
X522638D01*
Y43996D01*
X525197D01*
Y48524D01*
D02*
G37*
G36*
X520669D02*
X518110D01*
Y43996D01*
X520669D01*
Y48524D01*
D02*
G37*
G36*
X476968Y65847D02*
X468898D01*
Y58760D01*
X470153D01*
Y56791D01*
X469783D01*
Y48720D01*
X476870D01*
X476870Y48720D01*
X477658Y48820D01*
X478038Y48528D01*
X478804Y48211D01*
X479626Y48103D01*
X503543D01*
Y43209D01*
X512205D01*
Y55807D01*
X503543D01*
Y54456D01*
X479626D01*
X478804Y54348D01*
X478038Y54031D01*
X477658Y53739D01*
X476870Y54098D01*
Y56791D01*
X475713D01*
Y58760D01*
X476968D01*
Y65847D01*
D02*
G37*
G36*
X369193Y44484D02*
X358169D01*
Y40198D01*
X345764D01*
X345764Y40198D01*
X344428Y40022D01*
X343183Y39506D01*
X342113Y38686D01*
X342113Y38686D01*
X334430Y31002D01*
X332123Y28843D01*
X330967Y27883D01*
X330622Y27633D01*
X330606Y27624D01*
X329910Y27555D01*
X328574Y27150D01*
X327343Y26492D01*
X326264Y25606D01*
X325378Y24527D01*
X324720Y23296D01*
X324315Y21960D01*
X324178Y20571D01*
X324315Y19182D01*
X324720Y17846D01*
X325378Y16615D01*
X326264Y15536D01*
X327343Y14650D01*
X328574Y13992D01*
X329910Y13587D01*
X331299Y13450D01*
X332688Y13587D01*
X334024Y13992D01*
X335255Y14650D01*
X336334Y15536D01*
X337220Y16615D01*
X337878Y17846D01*
X338283Y19182D01*
X338348Y19840D01*
X341859Y23830D01*
X347902Y29873D01*
X358169D01*
Y25587D01*
X369193D01*
Y44484D01*
D02*
G37*
G36*
X325295Y51314D02*
X323906Y51177D01*
X322570Y50772D01*
X321339Y50114D01*
X320260Y49228D01*
X319374Y48149D01*
X318716Y46918D01*
X318311Y45582D01*
X318174Y44193D01*
X318311Y42804D01*
X318716Y41468D01*
X319374Y40237D01*
X320260Y39158D01*
X321339Y38272D01*
X322570Y37614D01*
X323906Y37209D01*
X325295Y37072D01*
X326684Y37209D01*
X328020Y37614D01*
X329252Y38272D01*
X330330Y39158D01*
X331216Y40237D01*
X331874Y41468D01*
X332279Y42804D01*
X332416Y44193D01*
X332279Y45582D01*
X331874Y46918D01*
X331216Y48149D01*
X330330Y49228D01*
X329252Y50114D01*
X328020Y50772D01*
X326684Y51177D01*
X325295Y51314D01*
D02*
G37*
G36*
X525098Y39961D02*
X522539D01*
Y35433D01*
X525098D01*
Y39961D01*
D02*
G37*
G36*
X520571D02*
X518012D01*
Y35433D01*
X520571D01*
Y39961D01*
D02*
G37*
G36*
X490354Y36417D02*
X488583D01*
Y34154D01*
X490354D01*
Y36417D01*
D02*
G37*
G36*
X486614D02*
X484842D01*
Y34154D01*
X486614D01*
Y36417D01*
D02*
G37*
G36*
X9449Y35383D02*
Y32677D01*
X12155D01*
X12155Y32682D01*
X11773Y33603D01*
X11166Y34394D01*
X10375Y35001D01*
X9453Y35383D01*
X9449Y35383D01*
D02*
G37*
G36*
X7480D02*
X7476Y35383D01*
X6555Y35001D01*
X5763Y34394D01*
X5156Y33603D01*
X4775Y32682D01*
X4774Y32677D01*
X7480D01*
Y35383D01*
D02*
G37*
G36*
X490354Y32185D02*
X488583D01*
Y29921D01*
X490354D01*
Y32185D01*
D02*
G37*
G36*
X486614D02*
X484842D01*
Y29921D01*
X486614D01*
Y32185D01*
D02*
G37*
G36*
X286201Y32228D02*
Y29094D01*
X289847D01*
X289834Y29189D01*
X289418Y30195D01*
X288755Y31058D01*
X287892Y31721D01*
X286886Y32138D01*
X286201Y32228D01*
D02*
G37*
G36*
X525098Y33465D02*
X522539D01*
Y28937D01*
X525098D01*
Y33465D01*
D02*
G37*
G36*
X520571D02*
X518012D01*
Y28937D01*
X520571D01*
Y33465D01*
D02*
G37*
G36*
X496457Y43728D02*
X481988D01*
X481166Y43620D01*
X480400Y43302D01*
X479742Y42797D01*
X477478Y40534D01*
X476973Y39876D01*
X476656Y39110D01*
X476548Y38287D01*
Y37205D01*
X476181D01*
Y36346D01*
X473130D01*
X472308Y36238D01*
X471542Y35921D01*
X470884Y35416D01*
X470379Y34758D01*
X470061Y33992D01*
X469953Y33169D01*
X470061Y32347D01*
X470379Y31581D01*
X470884Y30923D01*
X471542Y30418D01*
X472308Y30101D01*
X473130Y29992D01*
X476181D01*
Y29134D01*
X483268D01*
Y37205D01*
X483985Y37374D01*
X495141D01*
X500313Y32203D01*
X500971Y31698D01*
X501737Y31380D01*
X502559Y31272D01*
X503445D01*
Y28150D01*
X512106D01*
Y40748D01*
X503445D01*
Y39084D01*
X502717Y38783D01*
X498703Y42797D01*
X498045Y43302D01*
X497279Y43620D01*
X496457Y43728D01*
D02*
G37*
G36*
X61368Y30709D02*
X58661D01*
Y28002D01*
X58666Y28003D01*
X59587Y28385D01*
X60378Y28992D01*
X60985Y29783D01*
X61367Y30704D01*
X61368Y30709D01*
D02*
G37*
G36*
X12155D02*
X9449D01*
Y28002D01*
X9453Y28003D01*
X10375Y28385D01*
X11166Y28992D01*
X11773Y29783D01*
X12155Y30704D01*
X12155Y30709D01*
D02*
G37*
G36*
X56693D02*
X53987D01*
X53987Y30704D01*
X54369Y29783D01*
X54976Y28992D01*
X55767Y28385D01*
X56688Y28003D01*
X56693Y28002D01*
Y30709D01*
D02*
G37*
G36*
X7480D02*
X4774D01*
X4775Y30704D01*
X5156Y29783D01*
X5763Y28992D01*
X6555Y28385D01*
X7476Y28003D01*
X7480Y28002D01*
Y30709D01*
D02*
G37*
G36*
X289847Y27126D02*
X286201D01*
Y23992D01*
X286886Y24083D01*
X287892Y24499D01*
X288755Y25162D01*
X289418Y26026D01*
X289834Y27031D01*
X289847Y27126D01*
D02*
G37*
G36*
X132931Y24977D02*
Y22320D01*
X135587D01*
X135214Y23222D01*
X134614Y24004D01*
X133833Y24603D01*
X132931Y24977D01*
D02*
G37*
G36*
X130963D02*
X130061Y24603D01*
X129279Y24004D01*
X128680Y23222D01*
X128306Y22320D01*
X130963D01*
Y24977D01*
D02*
G37*
G36*
X313976Y25295D02*
X312598D01*
Y21555D01*
X316339D01*
Y22933D01*
X313976Y25295D01*
D02*
G37*
G36*
X310630D02*
X309252D01*
X306890Y22933D01*
Y21555D01*
X310630D01*
Y25295D01*
D02*
G37*
G36*
X135587Y20352D02*
X132931D01*
Y17696D01*
X133833Y18069D01*
X134614Y18669D01*
X135214Y19450D01*
X135587Y20352D01*
D02*
G37*
G36*
X130963D02*
X128306D01*
X128680Y19450D01*
X129279Y18669D01*
X130061Y18069D01*
X130963Y17696D01*
Y20352D01*
D02*
G37*
G36*
X447303Y45701D02*
X446275Y45566D01*
X445318Y45169D01*
X444495Y44538D01*
X443864Y43716D01*
X443468Y42758D01*
X443332Y41730D01*
X443468Y40703D01*
X443864Y39745D01*
X444495Y38923D01*
X444523Y38901D01*
Y24360D01*
X444495Y24338D01*
X443864Y23516D01*
X443468Y22558D01*
X443332Y21530D01*
X443468Y20503D01*
X443864Y19545D01*
X444495Y18722D01*
X445318Y18091D01*
X446275Y17695D01*
X447303Y17559D01*
X448331Y17695D01*
X449289Y18091D01*
X450111Y18722D01*
X450742Y19545D01*
X451139Y20503D01*
X451274Y21530D01*
X451139Y22558D01*
X450742Y23516D01*
X450111Y24338D01*
X450083Y24360D01*
Y38901D01*
X450111Y38923D01*
X450742Y39745D01*
X451139Y40703D01*
X451274Y41730D01*
X451139Y42758D01*
X450742Y43716D01*
X450111Y44538D01*
X449289Y45169D01*
X448331Y45566D01*
X447303Y45701D01*
D02*
G37*
G36*
X316339Y19587D02*
X312598D01*
Y15846D01*
X313976D01*
X316339Y18209D01*
Y19587D01*
D02*
G37*
G36*
X310630D02*
X306890D01*
Y18209D01*
X309252Y15846D01*
X310630D01*
Y19587D01*
D02*
G37*
G36*
X70571Y19783D02*
X67421D01*
X65846Y18209D01*
Y15059D01*
X67421Y13484D01*
X70571D01*
X72146Y15059D01*
Y18209D01*
X70571Y19783D01*
D02*
G37*
G36*
X97244Y19811D02*
X96422Y19702D01*
X95656Y19385D01*
X94998Y18880D01*
X94493Y18222D01*
X94175Y17456D01*
X94067Y16634D01*
X94175Y15812D01*
X94493Y15045D01*
X94998Y14388D01*
X95656Y13883D01*
X96422Y13565D01*
X97244Y13457D01*
X98066Y13565D01*
X98832Y13883D01*
X99490Y14388D01*
X99995Y15045D01*
X100313Y15812D01*
X100421Y16634D01*
X100313Y17456D01*
X99995Y18222D01*
X99490Y18880D01*
X98832Y19385D01*
X98066Y19702D01*
X97244Y19811D01*
D02*
G37*
G36*
X366831Y15350D02*
X364665D01*
Y9248D01*
X366831D01*
Y15350D01*
D02*
G37*
G36*
X362697D02*
X360531D01*
Y9248D01*
X362697D01*
Y15350D01*
D02*
G37*
G36*
X419685Y51909D02*
X385236D01*
X384468Y51756D01*
X383817Y51321D01*
X383382Y50670D01*
X383229Y49902D01*
Y10531D01*
X383382Y9763D01*
X383817Y9112D01*
X384468Y8677D01*
X385236Y8524D01*
X419685D01*
X420453Y8677D01*
X421104Y9112D01*
X421539Y9763D01*
X421692Y10531D01*
Y49902D01*
X421539Y50670D01*
X421104Y51321D01*
X420453Y51756D01*
X419685Y51909D01*
D02*
G37*
G36*
X131947Y15266D02*
X130971Y15137D01*
X130061Y14761D01*
X129279Y14161D01*
X128680Y13380D01*
X128303Y12470D01*
X128174Y11494D01*
X128303Y10517D01*
X128680Y9607D01*
X129279Y8826D01*
X130061Y8227D01*
X130971Y7850D01*
X131947Y7721D01*
X132923Y7850D01*
X133833Y8227D01*
X134614Y8826D01*
X135214Y9607D01*
X135591Y10517D01*
X135719Y11494D01*
X135591Y12470D01*
X135214Y13380D01*
X134614Y14161D01*
X133833Y14761D01*
X132923Y15137D01*
X131947Y15266D01*
D02*
G37*
%LPD*%
G36*
X454068Y236968D02*
X454213Y236914D01*
X454414Y236867D01*
X454669Y236826D01*
X455347Y236763D01*
X456779Y236716D01*
X457368Y236713D01*
Y235138D01*
X456779Y235135D01*
X454414Y234983D01*
X454213Y234936D01*
X454068Y234883D01*
X453979Y234823D01*
Y237028D01*
X454068Y236968D01*
D02*
G37*
G36*
X472653Y225806D02*
X474670Y224039D01*
X474753Y224015D01*
X473138Y222596D01*
X473124Y222703D01*
X473067Y222845D01*
X472964Y223022D01*
X472818Y223233D01*
X472627Y223479D01*
X472111Y224073D01*
X471004Y225225D01*
X472232Y226224D01*
X472653Y225806D01*
D02*
G37*
G36*
X388085Y218775D02*
X388055Y218780D01*
X387973Y218784D01*
X385433Y218799D01*
Y220374D01*
X387981Y220427D01*
X388085Y218775D01*
D02*
G37*
G36*
X432071Y217914D02*
X431965Y217893D01*
X431825Y217828D01*
X431650Y217720D01*
X431440Y217568D01*
X430916Y217133D01*
X429870Y216154D01*
X429452Y215740D01*
X428338Y216853D01*
X428752Y217272D01*
X430318Y219052D01*
X430426Y219227D01*
X430491Y219367D01*
X430512Y219472D01*
X432071Y217914D01*
D02*
G37*
G36*
X425889Y208846D02*
X426040Y206481D01*
X426087Y206280D01*
X426141Y206135D01*
X426201Y206046D01*
X423996D01*
X424056Y206135D01*
X424109Y206280D01*
X424157Y206481D01*
X424198Y206736D01*
X424261Y207414D01*
X424308Y208846D01*
X424311Y209435D01*
X425886D01*
X425889Y208846D01*
D02*
G37*
G36*
X451828Y113287D02*
X451607Y113456D01*
X451290Y113606D01*
X450878Y113739D01*
X450371Y113854D01*
X449768Y113952D01*
X448277Y114093D01*
X446405Y114164D01*
X445325Y114173D01*
Y116535D01*
X446405Y116544D01*
X449768Y116757D01*
X450371Y116854D01*
X450878Y116970D01*
X451290Y117102D01*
X451607Y117253D01*
X451828Y117421D01*
Y113287D01*
D02*
G37*
G36*
X518454Y111730D02*
X518681Y108181D01*
X518751Y107881D01*
X518832Y107663D01*
X518922Y107529D01*
X515615D01*
X515704Y107663D01*
X515785Y107881D01*
X515855Y108181D01*
X515917Y108565D01*
X516011Y109581D01*
X516082Y111730D01*
X516087Y112612D01*
X518449D01*
X518454Y111730D01*
D02*
G37*
G36*
X456463Y107127D02*
X456680Y107036D01*
X456991Y106956D01*
X457396Y106886D01*
X457895Y106827D01*
X459954Y106714D01*
X461795Y106693D01*
Y104331D01*
X460828Y104325D01*
X456991Y104068D01*
X456680Y103988D01*
X456463Y103897D01*
X456339Y103795D01*
Y107229D01*
X456463Y107127D01*
D02*
G37*
G36*
X505009Y110187D02*
X504928Y109969D01*
X504857Y109669D01*
X504796Y109285D01*
X504702Y108269D01*
X504631Y106120D01*
X504626Y105238D01*
X502264D01*
X502259Y106120D01*
X502032Y109669D01*
X501961Y109969D01*
X501881Y110187D01*
X501791Y110321D01*
X505098D01*
X505009Y110187D01*
D02*
G37*
G36*
X436151Y89402D02*
X436000Y89086D01*
X435867Y88674D01*
X435752Y88166D01*
X435654Y87564D01*
X435513Y86072D01*
X435442Y84200D01*
X435433Y83121D01*
X433071D01*
X433062Y84200D01*
X432849Y87564D01*
X432752Y88166D01*
X432637Y88674D01*
X432504Y89086D01*
X432353Y89402D01*
X432185Y89624D01*
X436319D01*
X436151Y89402D01*
D02*
G37*
G36*
X340670Y27158D02*
X339635Y26112D01*
X335720Y21663D01*
X335450Y21225D01*
X335288Y20874D01*
X335236Y20610D01*
X331339Y24508D01*
X331603Y24560D01*
X331953Y24722D01*
X332391Y24992D01*
X332915Y25372D01*
X334225Y26459D01*
X336840Y28907D01*
X337886Y29941D01*
X340670Y27158D01*
D02*
G37*
D17*
X479626Y51279D02*
X507972D01*
X384055Y145177D02*
Y149606D01*
Y132776D02*
Y145177D01*
X385827Y131004D02*
X392520D01*
X384055Y132776D02*
X385827Y131004D01*
X384055Y149606D02*
X386221Y151772D01*
X390846D01*
X391043Y151969D01*
X392508Y119882D02*
X392520Y119894D01*
X502559Y34449D02*
X507776D01*
X496457Y40551D02*
X502559Y34449D01*
X481988Y40551D02*
X496457D01*
X479724Y38287D02*
X481988Y40551D01*
X479724Y33169D02*
Y38287D01*
X473130Y33169D02*
X479724D01*
D45*
D03*
X487598D02*
D03*
X501575Y145374D02*
D03*
X509449D02*
D03*
X501575Y137106D02*
D03*
X509449D02*
D03*
X465256Y156693D02*
D03*
X473130D02*
D03*
X470063Y105118D02*
D03*
X462189D02*
D03*
Y96850D02*
D03*
X470063D02*
D03*
Y113386D02*
D03*
X462189D02*
D03*
X472146Y130315D02*
D03*
X480020D02*
D03*
X465453Y52756D02*
D03*
X473327D02*
D03*
X472539Y78839D02*
D03*
X480413D02*
D03*
X414272Y65748D02*
D03*
X406398D02*
D03*
X391142D02*
D03*
X399016D02*
D03*
X391043Y151969D02*
D03*
X398917D02*
D03*
X414272D02*
D03*
X406397D02*
D03*
D46*
X521653Y49508D02*
D03*
X507874D02*
D03*
X521555Y34449D02*
D03*
X507776D02*
D03*
D47*
X517421Y145374D02*
D03*
Y137500D02*
D03*
X371578Y222722D02*
D03*
Y214848D02*
D03*
X479331Y112697D02*
D03*
Y120571D02*
D03*
Y89370D02*
D03*
Y97244D02*
D03*
X487795Y112598D02*
D03*
Y120473D02*
D03*
X472638Y147343D02*
D03*
Y139469D02*
D03*
X472933Y62303D02*
D03*
Y70177D02*
D03*
X487697Y89370D02*
D03*
Y97244D02*
D03*
X496260Y89272D02*
D03*
Y97146D02*
D03*
D48*
X30413Y118602D02*
D03*
X10674D02*
D03*
X50045D02*
D03*
D49*
X363681Y35035D02*
D03*
Y8264D02*
D03*
D50*
X478445Y105020D02*
D03*
X491339D02*
D03*
D51*
X412776Y131004D02*
D03*
Y142815D02*
D03*
X392520D02*
D03*
Y131004D02*
D03*
X392323Y86516D02*
D03*
Y74705D02*
D03*
X412894D02*
D03*
Y86516D02*
D03*
D52*
X461909Y79921D02*
D03*
Y70866D02*
D03*
Y61811D02*
D03*
Y149016D02*
D03*
Y139961D02*
D03*
Y130905D02*
D03*
D53*
X439173Y70866D02*
D03*
Y139961D02*
D03*
D54*
X433784Y207800D02*
X446476D01*
X428937Y202953D02*
X433784Y207800D01*
X428937Y186832D02*
Y202953D01*
Y186832D02*
X436241Y179528D01*
X371567Y222734D02*
Y231299D01*
Y222734D02*
X371578Y222722D01*
X290477Y207653D02*
X339492D01*
X370679Y240453D02*
X377830Y233302D01*
X301122Y240453D02*
X370679D01*
X365465Y237402D02*
X371567Y231299D01*
X308090Y237402D02*
X365465D01*
X291969Y221281D02*
X308090Y237402D01*
X291969Y231299D02*
X301122Y240453D01*
X339492Y207653D02*
X353120Y221281D01*
X69017Y69573D02*
Y76652D01*
X43406Y102264D02*
X69017Y76652D01*
X461417Y235925D02*
X474705Y222638D01*
X452854Y235925D02*
X461417D01*
X425098Y212500D02*
X432087Y219488D01*
X425098Y204921D02*
Y212500D01*
X385433Y219587D02*
X389665D01*
X383661Y217815D02*
X385433Y219587D01*
X383661Y145571D02*
Y217815D01*
Y145571D02*
X384055Y145177D01*
D55*
X446300Y189469D02*
X455413D01*
X436241Y199528D02*
X446300Y189469D01*
X455413D02*
X459842Y185039D01*
Y174311D02*
Y185039D01*
Y174311D02*
X465256Y168898D01*
X501378D01*
X509842Y160433D01*
Y145374D02*
Y160433D01*
X115531Y69580D02*
Y211641D01*
X114672Y212500D02*
X115531Y211641D01*
X293898Y18110D02*
X296358Y20571D01*
X285216Y18110D02*
X293898D01*
X296358Y20571D02*
Y49409D01*
X285630Y60138D02*
X296358Y49409D01*
X270970Y60138D02*
X285630D01*
X147309Y69580D02*
X188779D01*
X115531D02*
X147309D01*
Y60138D02*
Y69580D01*
X188779D02*
X229750D01*
X188530Y69330D02*
X188779Y69580D01*
X188530Y60138D02*
Y69330D01*
X229750Y69580D02*
X261528D01*
X229750Y60138D02*
Y69580D01*
X147244Y212500D02*
X188333D01*
X114672D02*
X147244D01*
X147112Y212632D02*
X147244Y212500D01*
X147112Y212632D02*
Y221281D01*
X188333Y212500D02*
X229553D01*
X188333D02*
Y221281D01*
X229553Y212500D02*
X261993D01*
X229553D02*
Y221281D01*
X261993Y212500D02*
X270774Y221281D01*
X105892D02*
X114672Y212500D01*
X261528Y69580D02*
X270970Y60138D01*
X106089D02*
X115531Y69580D01*
X447303Y21530D02*
Y41730D01*
X487894Y66240D02*
X500197D01*
X509842Y145374D02*
X517421D01*
X517224Y137303D02*
X517268Y137347D01*
X509941Y137303D02*
X517224D01*
X509350Y136713D02*
X509941Y137303D01*
X517268Y137347D02*
X517421Y137500D01*
X517268Y105842D02*
Y137347D01*
X470063Y105118D02*
Y113386D01*
X503445Y82284D02*
Y112008D01*
X500000Y78839D02*
X503445Y82284D01*
X480413Y78839D02*
X500000D01*
X503488Y117653D02*
Y122988D01*
X496161Y130315D02*
X503488Y122988D01*
X480020Y130315D02*
X496161D01*
X434252Y68012D02*
Y91732D01*
X472638Y122539D02*
X474606Y120571D01*
X479331D01*
X475098Y89370D02*
X479331D01*
X472539Y86811D02*
X475098Y89370D01*
X472539Y78839D02*
Y86811D01*
X487697Y112697D02*
X487795Y112598D01*
X479331Y112697D02*
X487697D01*
X479331Y97244D02*
X496161D01*
X496260Y97146D01*
X478445Y98130D02*
X479331Y97244D01*
X478445Y98130D02*
Y105020D01*
Y111811D02*
X479331Y112697D01*
X478445Y105020D02*
Y111811D01*
X472638Y122539D02*
Y139469D01*
X472539Y78839D02*
X472933Y78445D01*
Y70177D02*
Y78445D01*
X447539Y148327D02*
Y153839D01*
X450394Y156693D01*
X465256D01*
X439173Y139961D02*
X447539Y148327D01*
X439173Y70866D02*
X447638Y62402D01*
Y56102D02*
Y62402D01*
Y56102D02*
X450984Y52756D01*
X465453D01*
X472933Y53150D02*
X473327Y52756D01*
X472933Y53150D02*
Y62303D01*
X472244Y70866D02*
X472933Y70177D01*
X461909Y70866D02*
X472244D01*
X472146Y139961D02*
X472638Y139469D01*
X461909Y139961D02*
X472146D01*
X472638Y156201D02*
X473130Y156693D01*
X472638Y147343D02*
Y156201D01*
X461795Y105512D02*
X462189Y105118D01*
Y96850D02*
Y105118D01*
X453937Y105512D02*
X461795D01*
X435236Y136024D02*
X439173Y139961D01*
X435236Y115354D02*
Y136024D01*
Y115354D02*
X453937D01*
D56*
X270276Y239075D02*
X277264D01*
X230217D02*
X270276D01*
X270698Y231375D02*
Y238652D01*
X270276Y239075D02*
X270698Y238652D01*
Y231375D02*
X270774Y231299D01*
X277264Y239075D02*
X281398Y234941D01*
Y195472D02*
Y234941D01*
Y195472D02*
X285496Y191375D01*
X291893D01*
X291969Y191299D01*
X311969D01*
X188976Y239075D02*
X230217D01*
X147112D02*
X188976D01*
X188408Y231375D02*
Y238506D01*
X188976Y239075D01*
X188333Y231299D02*
X188408Y231375D01*
X113774Y239075D02*
X147112D01*
Y231299D02*
Y239075D01*
X229628Y238487D02*
X230217Y239075D01*
X229553Y231299D02*
X229628Y231375D01*
Y238487D01*
X105892Y231299D02*
X105998D01*
X113774Y239075D01*
X86089Y41043D02*
X127067D01*
X30118D02*
X86089D01*
Y50119D01*
X20768Y31693D02*
X30118Y41043D01*
X127067D02*
X168110D01*
X127234Y41210D02*
Y50044D01*
X127067Y41043D02*
X127234Y41210D01*
Y50044D02*
X127309Y50119D01*
X168110Y41043D02*
X209744D01*
X168110D02*
X168454Y41387D01*
Y50044D02*
X168529Y50119D01*
X168454Y41387D02*
Y50044D01*
X209744Y41043D02*
X241895D01*
X209750Y41049D02*
Y50119D01*
X209744Y41043D02*
X209750Y41049D01*
X241895Y41043D02*
X250970Y50119D01*
D57*
X313386Y67618D02*
X321850Y76083D01*
X293898Y67618D02*
X313386D01*
X321850Y76083D02*
Y89361D01*
X30118Y105315D02*
Y119488D01*
X337017Y104528D02*
X338976D01*
X321850Y89361D02*
X337017Y104528D01*
X27067Y102264D02*
X30118Y105315D01*
X20768Y102264D02*
X27067D01*
D58*
X412795Y88287D02*
X421752D01*
X413091Y86516D02*
Y87992D01*
X331299Y20571D02*
X345764Y35035D01*
X363681D01*
X425197Y56890D02*
X439173Y70866D01*
X394783Y56890D02*
X425197D01*
X427165Y151969D02*
X439173Y139961D01*
X414272Y151969D02*
X427165D01*
X421752Y88287D02*
X423425Y86614D01*
Y69390D02*
Y86614D01*
X419783Y65748D02*
X423425Y69390D01*
X414272Y65748D02*
X419783D01*
X391142Y60532D02*
X394783Y56890D01*
X391142Y60532D02*
Y65748D01*
X399016D02*
X406398D01*
X392323Y74705D02*
X413091D01*
X398917Y151969D02*
X406397D01*
X392520Y142815D02*
X412776D01*
D59*
X412795Y88287D02*
Y97933D01*
X392323Y88287D02*
Y97933D01*
X392520Y119894D02*
Y129232D01*
X412980Y119882D02*
Y129035D01*
D60*
X412795Y87057D02*
D03*
D61*
X392323Y86811D02*
D03*
D62*
X476241Y179528D02*
D03*
X446260D02*
D03*
X476241Y199528D02*
D03*
X446260D02*
D03*
X436241D02*
D03*
Y179528D02*
D03*
X291969Y191299D02*
D03*
Y221281D02*
D03*
X311969Y191299D02*
D03*
Y221281D02*
D03*
Y231299D02*
D03*
X291969D02*
D03*
X333120Y191299D02*
D03*
Y221281D02*
D03*
X353120Y191299D02*
D03*
Y221281D02*
D03*
Y231299D02*
D03*
X333120D02*
D03*
X168333Y191299D02*
D03*
Y221281D02*
D03*
X188333Y191299D02*
D03*
Y221281D02*
D03*
Y231299D02*
D03*
X168333D02*
D03*
X85892D02*
D03*
X105892D02*
D03*
Y221281D02*
D03*
Y191299D02*
D03*
X85892Y221281D02*
D03*
Y191299D02*
D03*
X270970Y90119D02*
D03*
Y60138D02*
D03*
X250970Y90119D02*
D03*
Y60138D02*
D03*
Y50119D02*
D03*
X270970D02*
D03*
X229750Y90119D02*
D03*
Y60138D02*
D03*
X209750Y90119D02*
D03*
Y60138D02*
D03*
Y50119D02*
D03*
X229750D02*
D03*
X188530Y90119D02*
D03*
Y60138D02*
D03*
X168529Y90119D02*
D03*
Y60138D02*
D03*
Y50119D02*
D03*
X188530D02*
D03*
X147309Y90119D02*
D03*
Y60138D02*
D03*
X127309Y90119D02*
D03*
Y60138D02*
D03*
Y50119D02*
D03*
X147309D02*
D03*
X106089Y90119D02*
D03*
Y60138D02*
D03*
X86089Y90119D02*
D03*
Y60138D02*
D03*
Y50119D02*
D03*
X106089D02*
D03*
X250774Y191299D02*
D03*
Y221281D02*
D03*
X270774Y191299D02*
D03*
Y221281D02*
D03*
Y231299D02*
D03*
X250774D02*
D03*
X209553Y191299D02*
D03*
Y221281D02*
D03*
X229553Y191299D02*
D03*
Y221281D02*
D03*
Y231299D02*
D03*
X209553D02*
D03*
X127112Y191299D02*
D03*
Y221281D02*
D03*
X147112Y191299D02*
D03*
Y221281D02*
D03*
Y231299D02*
D03*
X127112D02*
D03*
D63*
X245216Y18110D02*
D03*
X372453Y151378D02*
D03*
X372453Y68996D02*
D03*
D64*
X285216Y28110D02*
D03*
Y18110D02*
D03*
D65*
X265216Y28110D02*
D03*
X245216D02*
D03*
X255217D02*
D03*
D66*
X275217D02*
D03*
Y18110D02*
D03*
X255217D02*
D03*
X265216D02*
D03*
X325295Y44193D02*
D03*
X293898Y67618D02*
D03*
X362453Y151378D02*
D03*
X362453Y68996D02*
D03*
X331299Y20571D02*
D03*
D67*
X503488Y117653D02*
D03*
X503445Y112008D02*
D03*
X517268Y105842D02*
D03*
X517224Y100197D02*
D03*
X97244Y16634D02*
D03*
X97244Y32579D02*
D03*
X447303Y41730D02*
D03*
Y21530D02*
D03*
D68*
X20768Y102264D02*
D03*
Y31693D02*
D03*
X43406D02*
D03*
Y102264D02*
D03*
D69*
X8465Y31693D02*
D03*
X57677D02*
D03*
X56693Y102559D02*
D03*
X8465Y101575D02*
D03*
X176149Y106849D02*
D03*
X176915Y135592D02*
D03*
X217750Y106849D02*
D03*
X218516Y135592D02*
D03*
X134744Y106848D02*
D03*
X135510Y135592D02*
D03*
X258794Y106849D02*
D03*
X259559Y135592D02*
D03*
X258794Y146907D02*
D03*
X259559Y175651D02*
D03*
X217750Y146907D02*
D03*
X218516Y175651D02*
D03*
X176149Y146907D02*
D03*
X176915Y175651D02*
D03*
X134744Y146907D02*
D03*
X135510Y175651D02*
D03*
X94171Y135592D02*
D03*
X93405Y106848D02*
D03*
X94270Y175651D02*
D03*
X93504Y146907D02*
D03*
D70*
X68996Y16634D02*
D03*
X68996Y32579D02*
D03*
D71*
X131947Y31179D02*
D03*
D72*
Y21336D02*
D03*
Y11494D02*
D03*
X453937Y115354D02*
D03*
Y105512D02*
D03*
X434252Y91732D02*
D03*
Y101575D02*
D03*
D73*
X371457Y133071D02*
D03*
Y121260D02*
D03*
X338976Y91732D02*
D03*
Y104528D02*
D03*
X326181Y109449D02*
D03*
Y121260D02*
D03*
Y133071D02*
D03*
X292520Y91732D02*
D03*
Y104232D02*
D03*
Y116043D02*
D03*
D74*
X11713Y11811D02*
D03*
X11811Y232283D02*
D03*
X524311Y12205D02*
D03*
X524311Y232283D02*
D03*
D75*
X438878Y227854D02*
D03*
X448878D02*
D03*
X458878D02*
D03*
X393480Y227854D02*
D03*
X403480D02*
D03*
X413480D02*
D03*
D76*
X311614Y20571D02*
D03*
D77*
X412980Y119882D02*
D03*
X402744D02*
D03*
X392508D02*
D03*
X392323Y97933D02*
D03*
X402559D02*
D03*
X412795D02*
D03*
D78*
X500925Y199764D02*
D03*
Y179764D02*
D03*
X520925D02*
D03*
Y199764D02*
D03*
D79*
X510925Y189764D02*
D03*
D80*
X519882Y208661D02*
D03*
X512008Y129921D02*
D03*
Y98425D02*
D03*
X519882Y82677D02*
D03*
X512008Y3937D02*
D03*
X504134Y208661D02*
D03*
X496260Y161417D02*
D03*
X504134Y19685D02*
D03*
X496260Y3937D02*
D03*
X488386Y208661D02*
D03*
Y177165D02*
D03*
X480512Y161417D02*
D03*
Y66929D02*
D03*
X488386Y19685D02*
D03*
X480512Y3937D02*
D03*
X464764Y224409D02*
D03*
X472638Y208661D02*
D03*
Y19685D02*
D03*
X464764Y3937D02*
D03*
X449016Y161417D02*
D03*
X456890Y19685D02*
D03*
X433268Y224409D02*
D03*
Y192913D02*
D03*
Y161417D02*
D03*
X417520D02*
D03*
X425394Y51181D02*
D03*
Y19685D02*
D03*
X401772Y161417D02*
D03*
Y129921D02*
D03*
X386024Y224409D02*
D03*
Y66929D02*
D03*
X370275Y192913D02*
D03*
X378150Y177165D02*
D03*
X370275Y161417D02*
D03*
X378150Y114173D02*
D03*
Y51181D02*
D03*
Y19685D02*
D03*
X362402Y208661D02*
D03*
Y177165D02*
D03*
X354527Y161417D02*
D03*
X362402Y82677D02*
D03*
Y51181D02*
D03*
Y19685D02*
D03*
X346654Y177165D02*
D03*
X338779Y161417D02*
D03*
X346654Y145669D02*
D03*
X338779Y129921D02*
D03*
Y66929D02*
D03*
X346654Y51181D02*
D03*
Y19685D02*
D03*
X323031Y192913D02*
D03*
X330906Y82677D02*
D03*
Y51181D02*
D03*
X315157Y177165D02*
D03*
X307283Y161417D02*
D03*
X315157Y145669D02*
D03*
X307283Y129921D02*
D03*
X315157Y51181D02*
D03*
X307283Y35433D02*
D03*
X299409Y177165D02*
D03*
X291535Y161417D02*
D03*
X299409Y145669D02*
D03*
X291535Y129921D02*
D03*
X299409Y82677D02*
D03*
X291535Y35433D02*
D03*
Y3937D02*
D03*
X283661Y177165D02*
D03*
X275787Y161417D02*
D03*
X283661Y145669D02*
D03*
X275787Y129921D02*
D03*
X283661Y114173D02*
D03*
X275787Y98425D02*
D03*
X283661Y82677D02*
D03*
Y51181D02*
D03*
X275787Y35433D02*
D03*
Y3937D02*
D03*
X267913Y177165D02*
D03*
Y145669D02*
D03*
Y114173D02*
D03*
X260039Y3937D02*
D03*
X244291D02*
D03*
X236417Y177165D02*
D03*
X228543Y161417D02*
D03*
X236417Y145669D02*
D03*
X228543Y129921D02*
D03*
X236417Y114173D02*
D03*
Y82677D02*
D03*
Y51181D02*
D03*
X228543Y3937D02*
D03*
X212795D02*
D03*
X197047Y224409D02*
D03*
X204921Y177165D02*
D03*
Y82677D02*
D03*
X197047Y3937D02*
D03*
X181299Y224409D02*
D03*
X189173Y177165D02*
D03*
Y145669D02*
D03*
Y114173D02*
D03*
X181299Y3937D02*
D03*
X165551Y98425D02*
D03*
Y3937D02*
D03*
X149803Y161417D02*
D03*
Y129921D02*
D03*
Y98425D02*
D03*
X157677Y51181D02*
D03*
X149803Y3937D02*
D03*
X134055Y224409D02*
D03*
X141929Y51181D02*
D03*
Y19685D02*
D03*
X134055Y3937D02*
D03*
X118307Y224409D02*
D03*
X126181Y177165D02*
D03*
Y19685D02*
D03*
X118307Y3937D02*
D03*
X110433Y177165D02*
D03*
X102559Y161417D02*
D03*
X110433Y145669D02*
D03*
X102559Y129921D02*
D03*
X110433Y114173D02*
D03*
Y82677D02*
D03*
X102559Y3937D02*
D03*
X94685Y208661D02*
D03*
X86811Y66929D02*
D03*
Y3937D02*
D03*
X71063Y224409D02*
D03*
X78937Y208661D02*
D03*
Y177165D02*
D03*
X71063Y129921D02*
D03*
Y98425D02*
D03*
X78937Y82677D02*
D03*
X71063Y3937D02*
D03*
X55315Y224409D02*
D03*
X63189Y114173D02*
D03*
X55315Y66929D02*
D03*
X63189Y51181D02*
D03*
X55315Y3937D02*
D03*
X39567Y224409D02*
D03*
Y66929D02*
D03*
X47441Y19685D02*
D03*
X39567Y3937D02*
D03*
X23819Y224409D02*
D03*
X31693Y82677D02*
D03*
X23819Y66929D02*
D03*
X31693Y51181D02*
D03*
Y19685D02*
D03*
X23819Y3937D02*
D03*
X15945Y208661D02*
D03*
X8071Y192913D02*
D03*
X15945Y177165D02*
D03*
X8071Y161417D02*
D03*
X15945Y145669D02*
D03*
Y82677D02*
D03*
X8071Y66929D02*
D03*
X15945Y51181D02*
D03*
X446476Y207800D02*
D03*
X377830Y233302D02*
D03*
X371567Y231299D02*
D03*
X291060Y207611D02*
D03*
X69024Y69580D02*
D03*
X430905Y235236D02*
D03*
X487894Y66240D02*
D03*
X500197D02*
D03*
X474705Y222441D02*
D03*
X452854Y235925D02*
D03*
X432087Y219488D02*
D03*
X425098Y204921D02*
D03*
X389370Y219685D02*
D03*
X479626Y51279D02*
D03*
X473130Y33169D02*
D03*
X487795Y120394D02*
D03*
X469980Y109252D02*
D03*
M02*
