G04*
G04 #@! TF.GenerationSoftware,Altium Limited,Altium Designer,21.2.1 (34)*
G04*
G04 Layer_Color=8388736*
%FSLAX25Y25*%
%MOIN*%
G70*
G04*
G04 #@! TF.SameCoordinates,AD134648-67B5-4B84-B7A5-465A691CB966*
G04*
G04*
G04 #@! TF.FilePolarity,Negative*
G04*
G01*
G75*
%ADD18R,0.04528X0.05512*%
%ADD19R,0.06102X0.10039*%
%ADD20R,0.05512X0.04528*%
%ADD21R,0.12402X0.20276*%
%ADD22R,0.05315X0.13189*%
%ADD23R,0.04173X0.05394*%
%ADD24R,0.06890X0.04528*%
%ADD25R,0.10039X0.04528*%
%ADD26R,0.20276X0.20276*%
%ADD27C,0.06890*%
%ADD28R,0.08465X0.08465*%
%ADD29O,0.08465X0.07284*%
%ADD30O,0.07284X0.08465*%
%ADD31C,0.08465*%
%ADD32C,0.05315*%
%ADD33C,0.08071*%
%ADD34C,0.06591*%
%ADD35P,0.05753X8X22.5*%
%ADD36P,0.07031X8X292.5*%
%ADD37C,0.06496*%
%ADD38C,0.08858*%
%ADD39C,0.20276*%
%ADD40C,0.07677*%
%ADD41P,0.09162X8X22.5*%
%ADD42O,0.08465X0.12402*%
%ADD43C,0.10433*%
%ADD44C,0.12402*%
D18*
X479724Y33169D02*
D03*
X487598D02*
D03*
X501575Y145374D02*
D03*
X509449D02*
D03*
X501575Y137106D02*
D03*
X509449D02*
D03*
X465256Y156693D02*
D03*
X473130D02*
D03*
X470063Y105118D02*
D03*
X462189D02*
D03*
Y96850D02*
D03*
X470063D02*
D03*
Y113386D02*
D03*
X462189D02*
D03*
X472146Y130315D02*
D03*
X480020D02*
D03*
X465453Y52756D02*
D03*
X473327D02*
D03*
X472539Y78839D02*
D03*
X480413D02*
D03*
X414272Y65748D02*
D03*
X406398D02*
D03*
X391142D02*
D03*
X399016D02*
D03*
X391043Y151969D02*
D03*
X398917D02*
D03*
X414272D02*
D03*
X406397D02*
D03*
D19*
X521653Y49508D02*
D03*
X507874D02*
D03*
X521555Y34449D02*
D03*
X507776D02*
D03*
D20*
X517421Y145374D02*
D03*
Y137500D02*
D03*
X371578Y222722D02*
D03*
Y214848D02*
D03*
X479331Y112697D02*
D03*
Y120571D02*
D03*
Y89370D02*
D03*
Y97244D02*
D03*
X487795Y112598D02*
D03*
Y120473D02*
D03*
X472638Y147343D02*
D03*
Y139469D02*
D03*
X472933Y62303D02*
D03*
Y70177D02*
D03*
X487697Y89370D02*
D03*
Y97244D02*
D03*
X496260Y89272D02*
D03*
Y97146D02*
D03*
D21*
X30413Y118602D02*
D03*
X10674D02*
D03*
X50045D02*
D03*
D22*
X363681Y35035D02*
D03*
Y8264D02*
D03*
D23*
X478445Y105020D02*
D03*
X491339D02*
D03*
D24*
X412776Y131004D02*
D03*
Y142815D02*
D03*
X392520D02*
D03*
Y131004D02*
D03*
X392323Y86516D02*
D03*
Y74705D02*
D03*
X412894D02*
D03*
Y86516D02*
D03*
D25*
X461909Y79921D02*
D03*
Y70866D02*
D03*
Y61811D02*
D03*
Y149016D02*
D03*
Y139961D02*
D03*
Y130905D02*
D03*
D26*
X439173Y70866D02*
D03*
Y139961D02*
D03*
D27*
X476241Y179528D02*
D03*
X446260D02*
D03*
X476241Y199528D02*
D03*
X446260D02*
D03*
X436241D02*
D03*
Y179528D02*
D03*
X291969Y191299D02*
D03*
Y221281D02*
D03*
X311969Y191299D02*
D03*
Y221281D02*
D03*
Y231299D02*
D03*
X291969D02*
D03*
X333120Y191299D02*
D03*
Y221281D02*
D03*
X353120Y191299D02*
D03*
Y221281D02*
D03*
Y231299D02*
D03*
X333120D02*
D03*
X168333Y191299D02*
D03*
Y221281D02*
D03*
X188333Y191299D02*
D03*
Y221281D02*
D03*
Y231299D02*
D03*
X168333D02*
D03*
X85892D02*
D03*
X105892D02*
D03*
Y221281D02*
D03*
Y191299D02*
D03*
X85892Y221281D02*
D03*
Y191299D02*
D03*
X270970Y90119D02*
D03*
Y60138D02*
D03*
X250970Y90119D02*
D03*
Y60138D02*
D03*
Y50119D02*
D03*
X270970D02*
D03*
X229750Y90119D02*
D03*
Y60138D02*
D03*
X209750Y90119D02*
D03*
Y60138D02*
D03*
Y50119D02*
D03*
X229750D02*
D03*
X188530Y90119D02*
D03*
Y60138D02*
D03*
X168529Y90119D02*
D03*
Y60138D02*
D03*
Y50119D02*
D03*
X188530D02*
D03*
X147309Y90119D02*
D03*
Y60138D02*
D03*
X127309Y90119D02*
D03*
Y60138D02*
D03*
Y50119D02*
D03*
X147309D02*
D03*
X106089Y90119D02*
D03*
Y60138D02*
D03*
X86089Y90119D02*
D03*
Y60138D02*
D03*
Y50119D02*
D03*
X106089D02*
D03*
X250774Y191299D02*
D03*
Y221281D02*
D03*
X270774Y191299D02*
D03*
Y221281D02*
D03*
Y231299D02*
D03*
X250774D02*
D03*
X209553Y191299D02*
D03*
Y221281D02*
D03*
X229553Y191299D02*
D03*
Y221281D02*
D03*
Y231299D02*
D03*
X209553D02*
D03*
X127112Y191299D02*
D03*
Y221281D02*
D03*
X147112Y191299D02*
D03*
Y221281D02*
D03*
Y231299D02*
D03*
X127112D02*
D03*
D28*
X245216Y18110D02*
D03*
X372453Y151378D02*
D03*
X372453Y68996D02*
D03*
D29*
X285216Y28110D02*
D03*
Y18110D02*
D03*
D30*
X265216Y28110D02*
D03*
X245216D02*
D03*
X255217D02*
D03*
D31*
X275217D02*
D03*
Y18110D02*
D03*
X255217D02*
D03*
X265216D02*
D03*
X325295Y44193D02*
D03*
X293898Y67618D02*
D03*
X362453Y151378D02*
D03*
X362453Y68996D02*
D03*
X331299Y20571D02*
D03*
D32*
X503488Y117653D02*
D03*
X503445Y112008D02*
D03*
X517268Y105842D02*
D03*
X517224Y100197D02*
D03*
X97244Y16634D02*
D03*
X97244Y32579D02*
D03*
D33*
X20768Y102264D02*
D03*
Y31693D02*
D03*
X43406D02*
D03*
Y102264D02*
D03*
D34*
X8465Y31693D02*
D03*
X57677D02*
D03*
X56693Y102559D02*
D03*
X8465Y101575D02*
D03*
X176149Y106849D02*
D03*
X176915Y135592D02*
D03*
X217750Y106849D02*
D03*
X218516Y135592D02*
D03*
X134744Y106848D02*
D03*
X135510Y135592D02*
D03*
X258794Y106849D02*
D03*
X259559Y135592D02*
D03*
X258794Y146907D02*
D03*
X259559Y175651D02*
D03*
X217750Y146907D02*
D03*
X218516Y175651D02*
D03*
X176149Y146907D02*
D03*
X176915Y175651D02*
D03*
X134744Y146907D02*
D03*
X135510Y175651D02*
D03*
X94171Y135592D02*
D03*
X93405Y106848D02*
D03*
X94270Y175651D02*
D03*
X93504Y146907D02*
D03*
D35*
X68996Y16634D02*
D03*
X68996Y32579D02*
D03*
D36*
X131947Y31179D02*
D03*
D37*
Y21336D02*
D03*
Y11494D02*
D03*
X453937Y115354D02*
D03*
Y105512D02*
D03*
X434252Y91732D02*
D03*
Y101575D02*
D03*
D38*
X371457Y133071D02*
D03*
Y121260D02*
D03*
X338976Y91732D02*
D03*
Y104528D02*
D03*
X326181Y109449D02*
D03*
Y121260D02*
D03*
Y133071D02*
D03*
X292520Y91732D02*
D03*
Y104232D02*
D03*
Y116043D02*
D03*
D39*
X11713Y11811D02*
D03*
X11811Y232283D02*
D03*
X524311Y12205D02*
D03*
X524311Y232283D02*
D03*
D40*
X438878Y227854D02*
D03*
X448878D02*
D03*
X458878D02*
D03*
X393480Y227854D02*
D03*
X403480D02*
D03*
X413480D02*
D03*
D41*
X311614Y20571D02*
D03*
D42*
X412980Y119882D02*
D03*
X402744D02*
D03*
X392508D02*
D03*
X392323Y97933D02*
D03*
X402559D02*
D03*
X412795D02*
D03*
D43*
X500925Y199764D02*
D03*
Y179764D02*
D03*
X520925D02*
D03*
Y199764D02*
D03*
D44*
X510925Y189764D02*
D03*
M02*
