M48
;Layer_Color=9474304
;FILE_FORMAT=4:4
METRIC,LZ
;TYPE=PLATED
T1F00S00C0.2000
T2F00S00C0.3000
T3F00S00C0.4000
T4F00S00C0.5000
T5F00S00C0.6000
T6F00S00C0.7000
T7F00S00C0.7620
T8F00S00C1.0000
T9F00S00C1.1000
T10F00S00C1.2000
T11F00S00C1.3000
T12F00S00C1.4000
T13F00S00C1.4500
T14F00S00C1.5000
T15F00S00C3.1000
T16F00S00C3.4000
T17F00S00C4.0000
%
T01
X0065575Y-00471821
X0066675
X0067775
X0068875
X0069975
Y-00460821
Y-00449821
Y-00438821
Y-00427821
X0068875
X0067775
X0066675
X0065575
Y-00438821
Y-00449821
Y-00460821
T02
X0087625Y-00645
X012765Y-00428
X012865Y-00418
T03
X0121Y-0077
X012065Y-00756
X0121525Y-0074275
X01228Y-00738
X012515Y-00721359
Y-007085
Y-0069575
Y-00683
Y-0067025
Y-006575
Y-00645
X0125Y-0061
X0126875Y-0061775
X012385Y-0059175
Y-0057025
X01282Y-005435
X013288Y-00516385
X01328759Y-00475293
X01271Y-0047175
X0121125Y-0048075
X0120275Y-0048975
X0119225Y-0048875
X011855Y-0048025
X0117425Y-0048325
X0117925Y-00539
X01173Y-0057525
X011805Y-0059275
X0117Y-0061
X0115Y-0065
X0119Y-0073
X0125Y-0077
X0129
X0133
X0137
X0141
X0135Y-0081
X01307776Y-00696113
X01317676Y-00631748
X0133Y-0061
X013835Y-0048875
X01415Y-0048475
X0095675Y-0048625
X0094575Y-0049325
X00944Y-0047825
X00964Y-0054225
X0096275Y-0058625
X0089925Y-0056625
X0087Y-0057
X0085375Y-00599
X00854933Y-00621115
X0083225Y-00628
X00806277Y-0062819
X00786462Y-00628289
X00786253Y-00656811
X00806612Y-00657038
X0086025Y-006695
X008735Y-0067225
X0089Y-00678
X0089Y-0069
X00824749Y-00709823
X00746429Y-00700441
X0075Y-0073
X0077Y-0077
X0092375Y-0074175
X0095Y-0073
X0099Y-0065
X0103
X0111
X008995Y-006135
X00878815Y-00609484
X00815Y-005495
X008255Y-00538
X00831Y-0052725
X0081475Y-00517
X00819Y-0050225
X008155Y-00467
X0082625Y-004685
X008445Y-0047025
X008535Y-004805
X00742Y-0049725
X0075125Y-0051975
X0077Y-0053
X007755Y-00558
X00773Y-0058075
X0076Y-00594
X0079Y-0057
X00723076Y-00594616
X00683144
X00661683Y-00613365
X00656433Y-00573365
X006355Y-005785
X0062025Y-00594
X0060925Y-00586
X0060025Y-005795
X0058575Y-0058075
X0058Y-005575
X0054825Y-0055375
X00543Y-0052775
X00545Y-00511
X0055Y-0049
X0059125Y-0048725
X005905Y-005315
X00605Y-0052875
X0061775Y-0051975
X00627Y-0052875
X0063975Y-005305
X00655
X00668072Y-00532072
X0068525Y-0053475
X0071025Y-00539
X0072925Y-005325
X00724128Y-00654116
X00698083Y-00642409
X0063266Y-00650699
X00622426Y-00661052
X00632337Y-00701354
X0067Y-0073
X00685063Y-00716446
X00700658
X00709549Y-00769856
X00642532Y-00765218
X00607087Y-00753362
X0053Y-0077
X0052775Y-007875
X0051975Y-0062075
X0053525Y-006125
X0058156Y-00636937
X0061Y-0061
X0049925Y-005555
X0050125Y-00519
X0049125Y-0050525
X0049425Y-0049525
X0049525Y-00485
X0049825Y-0047525
X0051825Y-0046325
X00482Y-0051225
X004305Y-005035
X0041925Y-005075
X0040925Y-0051825
X0042825Y-005195
X00434Y-0049175
X00391Y-0048175
X003775Y-0048025
X003665Y-00472
X0033975Y-0047025
X0033775Y-0049
X00352Y-0048625
X00374609Y-00521271
X00434Y-0055275
X00447Y-0066325
X0045Y-0069
X0041
X0037
X0039Y-0073
X0035275Y-00602
X00342Y-0059975
X0033125Y-0059575
X003225Y-005875
X0031875Y-00604
X0028375
X002775Y-0062425
X0025125Y-0062075
X0023975Y-006215
X00250811Y-00582787
X0027375Y-005775
X00271Y-005505
X002625Y-00541
X002555Y-005285
X002655Y-0051475
X00296Y-005175
X0028475Y-00532
X00251029Y-00550249
X00224748Y-0049736
X0023Y-0049
X002695Y-00469
X00291Y-0048
X00333016Y-00481484
X0033275Y-0051975
X00297595Y-00584347
X0029Y-0069
X0021
Y-0077
X0017
X0013
X0009
X0015Y-0081
X0019
X0029375Y-007755
X0013Y-0069
X0011Y-0065
Y-0057
Y-0049
Y-0041
Y-0033
Y-0025
X001075Y-0018725
X0015Y-0017
X001565Y-00151
Y-0011875
X0015925Y-00096
X0015Y-0009
X0013Y-0013
X001925Y-0014625
X00224011Y-00148757
X0022475Y-00129
X002465Y-001285
X00246Y-0014875
X0023Y-0017
X002185Y-0021125
X0016675Y-002025
X0027Y-0025
X002855Y-00236
X0031275Y-001975
X0031Y-0017
X0029Y-0013
X0029225Y-00094
X003115Y-0010025
X0025Y-0029
X0024025Y-00373
X00226932Y-00391689
X0023Y-0041
X0027475Y-00414
X00274Y-0040275
X00273Y-00384
X0028225Y-0037625
X00287Y-0042575
X0005Y-0013
X0003Y-0009
X00346Y-001795
X0036775Y-002105
X003655Y-00232
X00379Y-0023575
X003915Y-0021475
X0039Y-0017
X0039625Y-001395
X0041775Y-00139
X0043Y-0017
X0048875Y-00153
X0049975Y-0016175
X0049Y-0021
X005265Y-00225
X0055075Y-00221
X0061Y-0021
X0059Y-0017
X00576Y-0016
X0063325Y-001395
X006795Y-0015425
X0067Y-0017
X0069825Y-002295
X0072725
X0072625Y-002815
X0073Y-0029
X00678Y-0027975
X00677623Y-00258633
X00645Y-0031975
X0063Y-0031675
X0059525Y-0032025
X0058725Y-003825
X0059Y-0041
X0059075Y-0042125
X0058875Y-004475
X0059175Y-00457
X00615Y-004355
X006155Y-00371
X0064025Y-0035975
X0066025Y-00371
X0070075
X00721756Y-00371328
X0073Y-0035975
X0073Y-0039325
X005455Y-0041125
X00528Y-00411
X005295Y-004475
X00552Y-00447
X005455Y-00437
X00472Y-0041
X0046875Y-0038475
X004455Y-00393
X00431271Y-00430021
X0039425Y-004285
X0038075Y-0043075
X0036275Y-00444
X0036625Y-0045775
X00339Y-004515
X0035175Y-0043775
X004135Y-004515
X0040275Y-0036075
X00384Y-0034625
X004415Y-0032475
X004585Y-003235
X0047Y-0033
X00481Y-003315
X00472Y-0031175
X004515Y-0029475
X004595Y-00286
X0047Y-0025
X0045325Y-002375
X00516Y-0025825
X0051Y-0033
X00537Y-003355
X0041475Y-0029475
X00372Y-0027075
X00349Y-0027775
X0055Y-0009
X0075
X00761583Y-00102
X00784833Y-0008425
X0081Y-0013
X0085
X0089
X0093
X00919348Y-00101544
X00942417Y-0008425
X0097Y-0013
X00984052Y-00152018
X00961338Y-001645
X0097Y-0021
X0093
X0089
X0085
X0083Y-0025
X0087
X0089Y-0029
X0085
X0083Y-0033
X0087
X0091
X0095
X0094425Y-0039525
X0092525
X0093475Y-00441
X0095525Y-0042975
X00963Y-00451
X0081475Y-004535
X0080825Y-0043475
X00818Y-0041825
X008295Y-004075
X0082925Y-0039125
X0076675Y-0039225
X0075325Y-0039125
X007425Y-0043725
X0076Y-0045725
X0077Y-0045
X007795Y-003375
X0079725Y-00224
X0082475Y-00164
X00863333Y-0008425
X01022228
X0101Y-0013
X0109
X0113
X0109Y-0021
X0105
X01061179Y-00284579
X0104875Y-0032875
X0111Y-0033
X011165Y-003215
X011235Y-002835
X01121Y-002455
X0095125Y-002355
X0115Y-0017
X0123
X012655Y-00177
X012995Y-00156
X0129Y-0021
X01284718Y-00228854
X0133Y-0021
X0137
X0141
X0139Y-0017
X0141Y-0013
X0139Y-0009
X0134925Y-0010225
X01259Y-0011375
X0125Y-0013
X0121
X0123Y-0009
X0121Y-0021
X012065Y-002655
X0121Y-0029
X012065Y-0030125
X0117Y-0029
X0115Y-0033
X011785Y-0037675
X01185Y-003905
X0119725Y-00388
X0125525Y-0038175
X012455Y-0040425
X01238Y-00413
X012415Y-004235
X01245Y-00434
X012485Y-0044525
X0124925Y-0045775
X0137Y-0045
X01415Y-003735
X0139Y-0033
X0135
X0137Y-0029
X0141
X0135Y-0025
X0125Y-0029
X0113975Y-00433
X0125Y-0005
X013435Y-00058
X0021Y-0005
X0013
X0005
T04
X00813534Y-00793958
X00847461Y-00722967
X00786062Y-00710371
X00786141Y-00687
X0115818Y-00228191
T05
X013625Y-00613
X00472Y-00632
Y-00567
X003545Y-0079675
X0051875Y-0037075
X0045525Y-002625
X0109725Y-000945
T06
X011515Y-0080025
X01151429Y-00774921
X0115175Y-0074575
X01151429Y-00720546
X0115225Y-0069275
X01151429Y-00666171
X01152Y-0063675
X0115225Y-00583
X01151429Y-00557421
X01152Y-0052775
X01151429Y-00503046
X0115325Y-0047425
X01395Y-00791
X0139Y-00805
X01395Y-00819
X0141Y-00825
X01425Y-00819
X0143Y-00805
X01425Y-00791
X0141Y-00785
X01057Y-0077475
Y-0080025
Y-00745875
Y-00720375
Y-006885
Y-00663
Y-00637125
Y-00611625
Y-0058275
Y-0055725
Y-00528375
Y-00502875
Y-00474
X0098325
X00983958Y-00503583
X0098325Y-00528375
Y-0055725
Y-0058275
X0098325Y-00611625
X0098375Y-00637
X0098425Y-00667
X0098375Y-006905
X00983375Y-007205
X00984Y-0074575
X0098325Y-0077475
X00984Y-0080025
X0013Y-00805
X00125Y-00791
X0011Y-00785
X00095Y-00791
X0009Y-00805
X00095Y-00819
X0011Y-00825
X00125Y-00819
X0028925Y-0033725
X00313
X0098325Y-003935
Y-00419
X0098375Y-00449
X01057Y-004485
X0105675Y-00419171
X0115225Y-004185
X0115175Y-0039225
X01151429Y-00448671
X01395Y-00044
X0139Y-0003
X01395Y-00016
X0141Y-0001
X01425Y-00016
X0143Y-0003
X01425Y-00044
X0141Y-0005
T07
X0024825Y-0030625
X0024825Y-00255751
X001164Y-0009545
Y-0007005
X00091Y-0008275
Y-0010815
Y-0005735
X001164Y-0004465
T08
X0026737Y-0016122
Y-0013622
Y-0011122
X01078Y-0011825
X012305
X01299Y-0006775
X012305Y-0003125
X01078
T09
X0125158Y-00808
X0127698
X0130238
X0132778
X013778Y-0074655
X014032
Y-0072115
Y-0069575
Y-0067035
Y-0064495
X013778
Y-0067035
Y-0069575
Y-0072115
X0050105Y-007593
Y-007847
X0047565
X0045025
X0042485
X0039945
Y-007593
X0042485
X0045025
X0047565
X00228Y-007633
Y-007379
Y-007887
Y-008141
X001854Y-007218
X0016
Y-006964
Y-00671
Y-006456
Y-006202
Y-005948
Y-005694
Y-00544
Y-005186
Y-00493441
Y-00468
X001854
Y-004932
Y-005186
Y-00544
Y-005694
Y-005948
Y-006202
Y-006456
Y-00671
Y-006964
Y-004424
Y-00417
Y-003916
Y-003662
Y-003409
X0016
Y-003155
Y-0029
Y-002646
Y-002392
X001854
Y-002646
Y-002901
Y-003154
X0016Y-003663
Y-003917
Y-004172
Y-004426
T10
X0138925Y-0031225
Y-0026225
X0138875Y-0020425
Y-0015425
T11
X00321Y-00082
X00346
X00371
X00396
X00421
X004635
X004885
X005135
X005385
X005635
X00606
X00631
X00656
X00681
X00706
X00656Y-00032
X005135
X00371
T12
X0135485Y-0057665
X0140565
Y-0052585
X0135485
T13
X0138025Y-0055125
T14
X00421Y-00032
X004635
X005635
X00606
X00706
X00321
T15
X0141Y-00805
X0011
X0141Y-0003
T16
X000269Y-0012645
Y-0002645
T17
X0067775Y-00449821
M30
