M48
;Layer_Color=9474304
;FILE_FORMAT=4:4
METRIC,LZ
;TYPE=PLATED
T1F00S00C0.4000
T2F00S00C0.6000
T3F00S00C0.8000
T4F00S00C1.1000
T5F00S00C1.2000
T6F00S00C3.0000
T7F00S00C3.1000
T8F00S00C7.5000
T9F00S00C10.7000
%
T01
X0115Y0001
X0121
X0127
X0133
X0136Y0007
X013
X0124
X0118
X0115Y0013
X0121
X0127
X0133
X0136Y0019
X0133Y0025
X0136Y0031
X013
X0124
X0118
X0115Y0025
X0106Y0019
X01
X0094
X0088
X0082
X0079Y0025
X00773437Y00235527
X0076Y0031
X0082
X0085Y0025
X0091
X0097
X01Y0031
X0094
X0091Y0013
X0097
X0085
X00846Y0007725
X0081175Y0005375
X0079Y0013
X0109Y0001
X007275Y0010775
X0073Y0013
X00722Y00273
X0073275Y002985
X007Y0031
X0068175Y002985
X00679Y00273
X0067475Y00235
X0063575Y0025275
X0061825Y0024775
X005825Y002605
X0057825Y0029825
X00533Y003165
X00513Y0032775
X0064Y0031
X00586Y0021075
X0058925Y00071
X005925Y000235
X006095Y0003125
X0055625Y0002225
X0049Y0001
X0043
X0037
X0025
X0019
X002335Y0008875
X0028Y0019
X0025Y0025
X0007
X0001
X0004Y0031
X0010275Y003135
X0007Y0037
X0001
Y0049
X0007
X0013
X0019
X0025
X0031
X0028Y0055
X0022
X0016
X0013Y0061
X0007
X0025
X0031
X0028Y0043
X0022
X0025Y0037
X0010275Y00452
X0034Y0043
X004
X0037Y0049
X004Y0055
X0046
X0052
X0049Y0061
X0043
X0037
X0034Y0055
X0051825Y00406
X007Y0055
X0076
X0079Y0061
X0085
X0091
X01Y0055
X01107Y00547
X01Y0043
X0097175Y00425
X0095075Y004185
X00975Y0039425
X0093075Y003815
X00936Y00369
X009055
X0087075Y0038125
X008595Y003565
X009555
X0083025Y004295
X00817Y0042
X0079125Y00405
X0076775Y00417
X00755Y0039675
X0113175Y0043275
X0115Y0037
X0123Y004305
X013545Y00405
X0135425Y0046375
X0133Y0037
X013Y0055
X0127Y0061
X0133
X0121
X011355Y00621
X0118Y0055
T02
X00531Y0021475
X005675Y0020375
X0028425Y002145
X001985Y0018525
X0016525Y0023375
X00171Y0026225
T03
X00531Y0019075
Y0024425
X0029475Y0023825
T04
X0102325Y001531
X0104865
Y001785
X0102325
Y002039
X0104865
Y002293
X0102325
Y002547
X0104865
Y002801
X0102325
Y003055
X0104865
Y003309
X0102325
Y003563
X0104865
Y003817
X0102325
Y004071
X0104865
Y004325
X0102325
Y004579
X0104865
Y004833
X0102325
Y005087
X0104865
Y005341
X0102325
Y005595
X0104865
Y005849
X0102325
X011792Y00401
X012046
X0123
X012554
X012808
T05
X00042Y0051775
Y0056275
X00107
Y0051775
X00269485Y00508749
X00472515
X01147505Y00508634
Y00533634
Y00483634
X01312505
Y00533634
T06
X0103719Y0011627
X0017819
Y0062046
X0103719
T07
X01371727Y0003126
X00028Y00617
X01371727
T08
X01231755Y00508634
T09
X01231685Y00227257
M30
