M48
;Layer_Color=9474304
;FILE_FORMAT=4:4
METRIC,LZ
;TYPE=PLATED
T1F00S00C0.4000
T2F00S00C0.5000
T3F00S00C0.5500
T4F00S00C0.6000
T5F00S00C0.7000
T6F00S00C0.7620
T7F00S00C0.8000
T8F00S00C0.9000
T9F00S00C1.0000
T10F00S00C1.1000
T11F00S00C1.2000
T12F00S00C1.4000
T13F00S00C1.4500
T14F00S00C3.1000
%
T01
X0120175Y0008425
X0121825Y0013025
X0123925Y0016825
X012705
X01239Y003058
X0119375Y002775
X006245Y00129
X0051975
X0041475
X0031
X0020525
Y00501
X001815
X0031
X0041475
X005195
X006245
X0075875Y00513
X007905Y0052625
X0085525Y005075
X0087925Y005635
X00989Y00558
X010975Y005575
X010945Y005975
X0115025Y0059925
X0120575Y00565
X01155Y005045
X01123Y00492
X0107975Y005205
T02
X010955Y0006
X011705Y0001
X012205
X012705
X012955Y0006
X013455
Y0016
X013205Y0021
X012955Y0026
X011705Y0031
X011205
X010705
X010205Y0021
X012455Y0006
X009455
X008955
X008705Y0011
X008955Y0016
X008455
X009205Y0021
X009705
Y0031
X009455Y0036
X008955
X007955
X007455
X006955
X007205Y0031
X006955Y0026
X007205Y0021
X007705
X007955Y0026
X007705Y0011
X007205
X006705
X009705
X005455Y0006
X004955
X004455
X003955
X003455
X002955
X002455
X002205Y0011
Y0021
X002705Y0031
X003705
X003955Y0036
X004955
X004705Y0031
X004955Y0026
X005955
Y0036
X003955Y0026
X004205Y0001
X004705
X005205
X005705
X003705
X003205
X002205
X001705
X001205
X000705
X000955Y0006
X001455
X001955
X001455Y0016
X000455
X000705Y0021
X000205
Y0011
X001705Y0031
X002705Y0041
X003705
X004705
X005455Y0046
X002205Y0051
X006455Y0056
X007455
X007955
X007705Y0041
X007205
X006455Y0046
X008705Y0041
X009205
X010205
X010705
X011205
X011705
X012205
X012455Y0046
X012955
X013205Y0041
X013455Y0056
X012205Y0051
X010955Y0046
T03
X01103Y00233
Y00258
X01153Y00268
Y00293
T04
X0127875Y002845
X01278861Y00298839
X01313861Y00268839
X0131375Y002545
T05
X0070125Y00181125
X0059625Y00180875
X00491Y00181125
X003865
X0028125Y00181375
X00247Y0008275
X00247Y0004225
X0017525
X0017525Y0008275
X002815Y00522875
X003865Y00522625
X00491
X00596
X007005Y00522875
X0091125Y0052775
Y00513375
Y00499
T06
X00657336Y00263395
X0065928Y00336404
X00657336Y00365145
X00553086
X0055503Y00336404
X00553086Y00263395
X00447418
X00449363Y00336404
X00447418Y00365145
X0034225Y00365145
X00344195Y00336403
X0034225Y00263395
X0023725
X00239195Y00336403
X002375Y00365145
X00239445Y00438153
X00344195
X00449363Y00438154
X0055503
X0065928
T07
X000215Y000805
X001465
X00144Y002605
X000215Y00258
T08
X0099944Y0057875
X0102484
X0105024
X0111475Y0057875
X0114015
X0116555
T09
X007465Y0017175
X00743Y00233
Y0026475
Y0029475
X008285Y00308
Y00278
X00861Y002655
Y00233
X008285Y00338
X009435
Y00308
X0082625Y0011225
X0032988Y0008306
Y0005806
Y0003306
T10
X0062285Y00046
Y000714
X0064825
X0067365
X0069905
X0072445
Y00046
X0069905
X0067365
X0064825
X0092063Y0017525
X0094603
X0094603Y003845
X0092063
T11
X010225Y0024875
X010485
X0104897Y003045
X0102297
X0099697
X009965Y0024875
X008415Y0005225
X007915
X0011025Y000805
X0005275
Y0025975
X0011025
T12
X0126385Y004741
Y005249
X0131465
Y004741
T13
X0128925Y004995
T14
X0133175Y00031
X0002975Y0003
X00205Y0059
X0133175
M30
