G04*
G04 #@! TF.GenerationSoftware,Altium Limited,Altium Designer,21.2.1 (34)*
G04*
G04 Layer_Physical_Order=2*
G04 Layer_Color=1930808*
%FSLAX44Y44*%
%MOMM*%
G71*
G04*
G04 #@! TF.SameCoordinates,E8695898-D4BD-45AE-B535-2771739DBF24*
G04*
G04*
G04 #@! TF.FilePolarity,Positive*
G04*
G01*
G75*
%ADD17C,0.8000*%
%ADD50R,1.0000X1.2500*%
%ADD52R,1.2500X1.0000*%
%ADD54R,1.0000X0.6000*%
%ADD58R,1.6000X1.0000*%
%ADD61R,1.0000X1.6000*%
%ADD62C,0.4000*%
%ADD63C,2.0000*%
%ADD64C,0.6000*%
%ADD65C,1.0000*%
%ADD66C,1.5000*%
%ADD77R,2.0000X2.0000*%
%ADD78O,2.0000X1.7000*%
%ADD79O,1.7000X2.0000*%
%ADD80C,2.0000*%
%ADD81C,1.2000*%
%ADD82C,1.9000*%
%ADD83C,1.5240*%
%ADD84P,1.2989X8X22.5*%
%ADD85P,1.6236X8X292.5*%
%ADD86C,1.5000*%
%ADD87C,2.1000*%
%ADD88C,5.0000*%
%ADD89C,1.8000*%
%ADD90P,2.1648X8X22.5*%
%ADD91O,2.0000X3.0000*%
%ADD92C,2.5000*%
%ADD93C,3.0000*%
%ADD94C,0.8000*%
%ADD95R,2.5000X1.2000*%
%ADD96R,8.0000X7.0000*%
%ADD97R,2.0250X8.2750*%
%ADD98R,2.0250X8.2500*%
%ADD99R,2.0250X8.1750*%
%ADD100R,2.0250X8.2000*%
%ADD101R,1.8000X3.7000*%
%ADD102R,1.9000X3.7000*%
%ADD103R,1.3000X1.4750*%
%ADD104R,4.0750X1.9000*%
%ADD105R,6.9250X2.0000*%
G36*
X207250Y614902D02*
X1014637Y614902D01*
X1015403Y613054D01*
X1011000Y608652D01*
X1009000Y609480D01*
Y611500D01*
X991000D01*
Y591000D01*
X991000D01*
X991165Y590745D01*
X991752Y589000D01*
X991677Y588888D01*
X991285Y588395D01*
X991238Y588231D01*
X991143Y588088D01*
X991020Y587471D01*
X990847Y586865D01*
X990866Y586695D01*
X990833Y586527D01*
X990955Y585910D01*
X990970Y585781D01*
X989831Y584297D01*
X988723Y581622D01*
X988345Y578750D01*
X988723Y575878D01*
X989831Y573203D01*
X990848Y571878D01*
X989766Y570003D01*
X989000Y570104D01*
X985867Y569691D01*
X982948Y568482D01*
X980442Y566558D01*
X978518Y564052D01*
X977309Y561133D01*
X976896Y558000D01*
X977309Y554867D01*
X978518Y551948D01*
X980115Y549868D01*
X979472Y547868D01*
X957284D01*
X918326Y586826D01*
X916341Y588152D01*
X914000Y588618D01*
X842250D01*
X839909Y588152D01*
X837924Y586826D01*
X820424Y569326D01*
X819098Y567341D01*
X818632Y565000D01*
Y544034D01*
X806966Y532368D01*
X799592D01*
X797088Y532450D01*
X795622Y532586D01*
X795321Y532635D01*
X794535Y533238D01*
X792589Y534044D01*
X790500Y534319D01*
X788412Y534044D01*
X786466Y533238D01*
X784794Y531956D01*
X783512Y530285D01*
X782706Y528338D01*
X782431Y526250D01*
X782706Y524162D01*
X783512Y522215D01*
X784355Y521118D01*
X783634Y519280D01*
X783484Y519118D01*
X767842D01*
X765338Y519200D01*
X763872Y519336D01*
X763571Y519384D01*
X762785Y519988D01*
X760838Y520794D01*
X758750Y521069D01*
X756662Y520794D01*
X754715Y519988D01*
X753044Y518706D01*
X751762Y517034D01*
X750956Y515088D01*
X750681Y513000D01*
X750956Y510912D01*
X751762Y508965D01*
X753044Y507294D01*
X754715Y506012D01*
X756662Y505206D01*
X758750Y504931D01*
X760838Y505206D01*
X762785Y506012D01*
X763515Y506573D01*
X768362Y506882D01*
X806000D01*
X808341Y507348D01*
X810326Y508674D01*
X837076Y535424D01*
X838402Y537409D01*
X838867Y539750D01*
Y561216D01*
X846784Y569132D01*
X871247D01*
X872096Y567132D01*
X871456Y565588D01*
X871181Y563500D01*
X871456Y561412D01*
X872190Y559640D01*
Y548750D01*
X872430Y546923D01*
X873136Y545220D01*
X874258Y543758D01*
X881690Y536325D01*
Y531250D01*
X879750D01*
Y510750D01*
X893163D01*
Y506000D01*
X891250D01*
Y497750D01*
Y489500D01*
X893163D01*
Y462242D01*
X890258Y459337D01*
X850500D01*
X846971Y458990D01*
X843578Y457960D01*
X840451Y456289D01*
X837710Y454039D01*
X815711Y432040D01*
X813461Y429299D01*
X811790Y426172D01*
X810760Y422779D01*
X810587Y421014D01*
X810413Y419250D01*
Y342105D01*
X810268Y341627D01*
X809911Y338000D01*
X810268Y334373D01*
X811326Y330886D01*
X812822Y328087D01*
X812062Y326087D01*
X756250D01*
X754486Y325913D01*
X752721Y325740D01*
X749328Y324710D01*
X746201Y323039D01*
X743461Y320789D01*
X733113Y310443D01*
X732672Y310207D01*
X729855Y307895D01*
X727543Y305078D01*
X725826Y301864D01*
X724768Y298377D01*
X724410Y294750D01*
X724768Y291123D01*
X725826Y287636D01*
X727543Y284422D01*
X729855Y281605D01*
X732672Y279293D01*
X735886Y277575D01*
X739373Y276518D01*
X743000Y276161D01*
X746627Y276518D01*
X750114Y277575D01*
X753328Y279293D01*
X756145Y281605D01*
X758457Y284422D01*
X758692Y284863D01*
X763742Y289913D01*
X812062D01*
X812822Y287913D01*
X811326Y285114D01*
X810268Y281627D01*
X809911Y278000D01*
X810268Y274373D01*
X811326Y270886D01*
X813044Y267672D01*
X815355Y264855D01*
X818172Y262543D01*
X821386Y260826D01*
X824873Y259768D01*
X828500Y259410D01*
X832127Y259768D01*
X835614Y260826D01*
X838828Y262543D01*
X840553Y263959D01*
X841598Y263729D01*
X842664Y262922D01*
X842768Y261873D01*
X843826Y258386D01*
X845543Y255172D01*
X847270Y253069D01*
X846342Y251069D01*
X800250D01*
X798162Y250794D01*
X796216Y249988D01*
X795580Y249500D01*
X792250D01*
Y243525D01*
X792181Y243000D01*
Y223000D01*
X792250Y222475D01*
Y217500D01*
X794387D01*
X794544Y217294D01*
X796216Y216012D01*
X798162Y215206D01*
X800250Y214931D01*
X853490D01*
X905961Y162460D01*
X908701Y160211D01*
X911829Y158540D01*
X915221Y157510D01*
X918750Y157163D01*
X920030D01*
X920330Y157192D01*
X920630Y157163D01*
X924159Y157510D01*
X926030Y158078D01*
X928030Y157250D01*
Y157250D01*
X945146D01*
X946030Y157163D01*
X946914Y157250D01*
X964030D01*
Y174366D01*
X964117Y175250D01*
Y223538D01*
X971229Y230650D01*
X971316Y230649D01*
X977350Y230398D01*
X982052Y229918D01*
X983704Y229637D01*
X985005Y229334D01*
X985820Y229073D01*
X986077Y228958D01*
X986450Y228712D01*
X986451Y228711D01*
X986452Y228710D01*
X986497Y228681D01*
X986609Y228627D01*
X986733Y228561D01*
X986900Y228433D01*
X987223Y228299D01*
X989578Y227040D01*
X992971Y226010D01*
X996500Y225663D01*
X1000029Y226010D01*
X1003422Y227040D01*
X1006549Y228711D01*
X1009289Y230961D01*
X1011539Y233701D01*
X1013210Y236828D01*
X1014240Y240221D01*
X1014587Y243750D01*
Y253750D01*
X1014240Y257279D01*
X1013210Y260672D01*
X1011539Y263799D01*
X1009289Y266539D01*
X1006549Y268789D01*
X1003422Y270460D01*
X1000029Y271490D01*
X996500Y271837D01*
X992971Y271490D01*
X989578Y270460D01*
X987223Y269201D01*
X986900Y269067D01*
X986733Y268939D01*
X986609Y268873D01*
X986497Y268819D01*
X986452Y268790D01*
X986451Y268789D01*
X986450Y268788D01*
X986077Y268542D01*
X985820Y268427D01*
X985005Y268166D01*
X983704Y267863D01*
X982185Y267605D01*
X971207Y266850D01*
X969812Y266837D01*
X963750D01*
X960221Y266490D01*
X956828Y265460D01*
X953701Y263789D01*
X950960Y261539D01*
X933241Y243820D01*
X930991Y241079D01*
X929320Y237952D01*
X928290Y234559D01*
X928117Y232794D01*
X927943Y231030D01*
Y194465D01*
X925943Y193636D01*
X877569Y242010D01*
Y243000D01*
X877294Y245088D01*
X877160Y245413D01*
X878496Y247413D01*
X901000D01*
X902764Y247587D01*
X904529Y247760D01*
X907922Y248790D01*
X911049Y250461D01*
X913790Y252710D01*
X953387Y292308D01*
X953828Y292543D01*
X956645Y294855D01*
X958957Y297672D01*
X960675Y300886D01*
X961732Y304373D01*
X962090Y308000D01*
X961732Y311627D01*
X960675Y315114D01*
X958957Y318328D01*
X956645Y321145D01*
X955603Y322000D01*
Y324000D01*
X956645Y324855D01*
X958957Y327672D01*
X960675Y330886D01*
X961732Y334373D01*
X962090Y338000D01*
X961732Y341627D01*
X960675Y345114D01*
X958957Y348328D01*
X956645Y351145D01*
X953828Y353457D01*
X950614Y355174D01*
X947127Y356232D01*
X943500Y356590D01*
X940717Y356315D01*
X938995Y357516D01*
X938717Y357921D01*
Y366500D01*
X945146D01*
X946030Y366413D01*
X1022758D01*
X1030883Y358288D01*
Y309500D01*
Y299500D01*
X1031230Y295971D01*
X1032260Y292578D01*
X1033931Y289451D01*
X1036180Y286710D01*
X1038921Y284461D01*
X1042048Y282790D01*
X1045441Y281760D01*
X1048970Y281413D01*
X1052499Y281760D01*
X1055892Y282790D01*
X1059019Y284461D01*
X1061759Y286710D01*
X1064009Y289451D01*
X1065680Y292578D01*
X1066710Y295971D01*
X1067057Y299500D01*
Y309500D01*
Y365780D01*
X1066710Y369309D01*
X1065680Y372702D01*
X1064009Y375829D01*
X1061759Y378569D01*
X1043039Y397290D01*
X1040299Y399539D01*
X1037172Y401210D01*
X1033779Y402240D01*
X1032014Y402413D01*
X1030250Y402587D01*
X946030D01*
X945146Y402500D01*
X928030D01*
Y402500D01*
X926030Y401672D01*
X924159Y402240D01*
X920630Y402587D01*
X917101Y402240D01*
X913708Y401210D01*
X910581Y399539D01*
X907840Y397290D01*
X905591Y394549D01*
X903920Y391422D01*
X902890Y388029D01*
X902543Y384500D01*
Y356087D01*
X890500D01*
X886971Y355740D01*
X883578Y354710D01*
X880451Y353039D01*
X877967Y351000D01*
X874500D01*
Y346251D01*
X873790Y344922D01*
X872760Y341529D01*
X872413Y338000D01*
X872760Y334471D01*
X873790Y331078D01*
X874500Y329749D01*
Y325000D01*
X873715Y323325D01*
X863250D01*
X860211Y323026D01*
X857290Y322139D01*
X854597Y320700D01*
X852237Y318763D01*
X847728Y314254D01*
X845788Y314740D01*
X845675Y315114D01*
X843957Y318328D01*
X841645Y321145D01*
X840603Y322000D01*
Y324000D01*
X841645Y324855D01*
X843957Y327672D01*
X845675Y330886D01*
X846732Y334373D01*
X847090Y338000D01*
X846732Y341627D01*
X846587Y342105D01*
Y411758D01*
X857992Y423163D01*
X897750D01*
X899514Y423337D01*
X901279Y423510D01*
X904672Y424540D01*
X907799Y426211D01*
X910539Y428461D01*
X924040Y441960D01*
X926289Y444701D01*
X927960Y447828D01*
X928990Y451221D01*
X929337Y454750D01*
Y542750D01*
X929153Y544617D01*
X931074Y545525D01*
X946674Y529924D01*
X948659Y528598D01*
X951000Y528132D01*
X973150D01*
X973943Y527166D01*
X974402Y526133D01*
Y426500D01*
X974790Y424549D01*
X975895Y422895D01*
X977549Y421790D01*
X979500Y421402D01*
X1067000D01*
X1067414Y421484D01*
X1069414Y419877D01*
Y264178D01*
X1066931Y261695D01*
X1064468Y262061D01*
X1063539Y263799D01*
X1061290Y266539D01*
X1058549Y268789D01*
X1055422Y270460D01*
X1052029Y271490D01*
X1048500Y271837D01*
X1044971Y271490D01*
X1041578Y270460D01*
X1038451Y268789D01*
X1035711Y266539D01*
X1033461Y263799D01*
X1031790Y260672D01*
X1030760Y257279D01*
X1030413Y253750D01*
Y243750D01*
X1030760Y240221D01*
X1031790Y236828D01*
X1033461Y233701D01*
X1035711Y230961D01*
X1038451Y228711D01*
X1041578Y227040D01*
X1044971Y226010D01*
X1048500Y225663D01*
X1052029Y226010D01*
X1055422Y227040D01*
X1058549Y228711D01*
X1061290Y230961D01*
X1063539Y233701D01*
X1065210Y236828D01*
X1065767Y238664D01*
X1068250D01*
X1070861Y239007D01*
X1073293Y240015D01*
X1075382Y241618D01*
X1086632Y252868D01*
X1088235Y254957D01*
X1089243Y257390D01*
X1089586Y260000D01*
Y510272D01*
X1089601Y511516D01*
X1089689Y513439D01*
X1089724Y513787D01*
X1090232Y514448D01*
X1091441Y517367D01*
X1091853Y520500D01*
X1091441Y523633D01*
X1090406Y526133D01*
X1091264Y528133D01*
X1102466D01*
X1116882Y513716D01*
Y501092D01*
X1116800Y498588D01*
X1116664Y497122D01*
X1116615Y496821D01*
X1116012Y496035D01*
X1115206Y494088D01*
X1114931Y492000D01*
X1115206Y489912D01*
X1116012Y487966D01*
X1117294Y486294D01*
X1118966Y485012D01*
X1120912Y484206D01*
X1123000Y483931D01*
X1125088Y484206D01*
X1127035Y485012D01*
X1127765Y485573D01*
X1132612Y485882D01*
X1193716D01*
X1241882Y437716D01*
Y315269D01*
X1239882Y313753D01*
X1239000Y313869D01*
X1236912Y313594D01*
X1234966Y312788D01*
X1233294Y311506D01*
X1232012Y309834D01*
X1231206Y307888D01*
X1231056Y306750D01*
X1211250D01*
Y288750D01*
X1231750D01*
X1231940Y286828D01*
Y284560D01*
X1197610D01*
X1195838Y285294D01*
X1193750Y285569D01*
X1191662Y285294D01*
X1189715Y284488D01*
X1188044Y283206D01*
X1186762Y281535D01*
X1185956Y279588D01*
X1185681Y277500D01*
X1185956Y275412D01*
X1186762Y273465D01*
X1188044Y271794D01*
X1189715Y270512D01*
X1191662Y269706D01*
X1193750Y269431D01*
X1195838Y269706D01*
X1197610Y270440D01*
X1231940D01*
Y171506D01*
X1231456Y170338D01*
X1231181Y168250D01*
X1231456Y166162D01*
X1231940Y164994D01*
Y145424D01*
X1226915Y140400D01*
X1204250D01*
Y120400D01*
X1237250D01*
Y130765D01*
X1240035Y133550D01*
X1241882Y132784D01*
Y96534D01*
X1239098Y93749D01*
X1237250Y94514D01*
Y94600D01*
X1204250D01*
Y93940D01*
X1202250Y92253D01*
X1201750Y92319D01*
X1199662Y92044D01*
X1197716Y91238D01*
X1197309Y90926D01*
X1192924Y90653D01*
X1190924Y91250D01*
Y91250D01*
X1175525D01*
Y105305D01*
X1178407D01*
Y125805D01*
X1175483D01*
X1175059Y127934D01*
X1173733Y129918D01*
X1168926Y134726D01*
X1166941Y136052D01*
X1164600Y136518D01*
X1129150D01*
X1126809Y136052D01*
X1124824Y134726D01*
X1114924Y124826D01*
X1113598Y122841D01*
X1113132Y120500D01*
Y39534D01*
X1098216Y24618D01*
X1072713D01*
X1071072Y26618D01*
X1071098Y26750D01*
Y126750D01*
X1070710Y128701D01*
X1069605Y130355D01*
X1067951Y131460D01*
X1066000Y131848D01*
X978500D01*
X976549Y131460D01*
X974895Y130355D01*
X973790Y128701D01*
X973402Y126750D01*
Y26750D01*
X973428Y26618D01*
X971787Y24618D01*
X779034D01*
X740826Y62826D01*
X738841Y64152D01*
X736500Y64618D01*
X736248D01*
X735334Y66617D01*
X736180Y68659D01*
X736211Y68900D01*
X724450D01*
Y71400D01*
X721950D01*
Y81859D01*
X720209Y81630D01*
X717655Y80572D01*
X715461Y78889D01*
X713778Y76695D01*
X712788Y74305D01*
X712615Y74236D01*
X710741Y74533D01*
X709532Y77452D01*
X707608Y79959D01*
X705102Y81882D01*
X702183Y83091D01*
X699050Y83504D01*
X695917Y83091D01*
X692998Y81882D01*
X690491Y79959D01*
X688568Y77452D01*
X687359Y74533D01*
X686946Y71400D01*
X687359Y68267D01*
X688568Y65348D01*
X690491Y62842D01*
X692998Y60918D01*
X695917Y59709D01*
X695919Y59709D01*
Y57691D01*
X695917Y57691D01*
X692998Y56482D01*
X690491Y54559D01*
X688568Y52052D01*
X687359Y49133D01*
X687359Y49131D01*
X685341D01*
X685341Y49133D01*
X684132Y52052D01*
X682208Y54559D01*
X679702Y56482D01*
X676783Y57691D01*
X676486Y59565D01*
X676555Y59738D01*
X678945Y60728D01*
X681139Y62411D01*
X682822Y64605D01*
X683880Y67159D01*
X684241Y69900D01*
Y72900D01*
X683880Y75641D01*
X682822Y78195D01*
X681139Y80389D01*
X678945Y82072D01*
X676391Y83130D01*
X673650Y83491D01*
X670909Y83130D01*
X668355Y82072D01*
X666161Y80389D01*
X664478Y78195D01*
X663420Y75641D01*
X663059Y72900D01*
Y69900D01*
X663420Y67159D01*
X664478Y64605D01*
X666161Y62411D01*
X668355Y60728D01*
X670745Y59738D01*
X670814Y59565D01*
X670517Y57691D01*
X667598Y56482D01*
X665091Y54559D01*
X663168Y52052D01*
X661959Y49133D01*
X661959Y49131D01*
X659941D01*
X659941Y49133D01*
X658732Y52052D01*
X656808Y54559D01*
X654302Y56482D01*
X651383Y57691D01*
X651086Y59565D01*
X651155Y59738D01*
X653545Y60728D01*
X655739Y62411D01*
X657422Y64605D01*
X658480Y67159D01*
X658841Y69900D01*
Y72900D01*
X658480Y75641D01*
X657422Y78195D01*
X655739Y80389D01*
X653545Y82072D01*
X650991Y83130D01*
X648250Y83491D01*
X645509Y83130D01*
X642955Y82072D01*
X640761Y80389D01*
X639078Y78195D01*
X638020Y75641D01*
X637659Y72900D01*
Y69900D01*
X638020Y67159D01*
X639078Y64605D01*
X640761Y62411D01*
X642955Y60728D01*
X645345Y59738D01*
X645414Y59565D01*
X645117Y57691D01*
X642198Y56482D01*
X639692Y54559D01*
X637768Y52052D01*
X636850Y49836D01*
X634850Y50233D01*
Y58000D01*
X626785D01*
X626387Y60000D01*
X628145Y60728D01*
X630339Y62411D01*
X632022Y64605D01*
X633080Y67159D01*
X633441Y69900D01*
Y72900D01*
X633080Y75641D01*
X632022Y78195D01*
X630339Y80389D01*
X628145Y82072D01*
X625591Y83130D01*
X622850Y83491D01*
X620109Y83130D01*
X617555Y82072D01*
X615361Y80389D01*
X613678Y78195D01*
X612620Y75641D01*
X612259Y72900D01*
Y69900D01*
X612620Y67159D01*
X613678Y64605D01*
X615361Y62411D01*
X617555Y60728D01*
X619313Y60000D01*
X618915Y58000D01*
X610850D01*
Y34000D01*
X634850D01*
Y41767D01*
X636850Y42165D01*
X637768Y39948D01*
X639692Y37441D01*
X642198Y35518D01*
X645117Y34309D01*
X648250Y33897D01*
X651383Y34309D01*
X654302Y35518D01*
X656808Y37441D01*
X658732Y39948D01*
X659941Y42867D01*
X659941Y42869D01*
X661959D01*
X661959Y42867D01*
X663168Y39948D01*
X665091Y37441D01*
X667598Y35518D01*
X670517Y34309D01*
X673650Y33897D01*
X676783Y34309D01*
X679702Y35518D01*
X682208Y37441D01*
X684132Y39948D01*
X685341Y42867D01*
X685341Y42869D01*
X687359D01*
X687359Y42867D01*
X688568Y39948D01*
X690491Y37441D01*
X692998Y35518D01*
X695917Y34309D01*
X699050Y33897D01*
X702183Y34309D01*
X705102Y35518D01*
X707608Y37441D01*
X709532Y39948D01*
X710062Y41227D01*
X710182Y41307D01*
X712313Y41436D01*
X712448Y41197D01*
X712435Y41160D01*
X712451Y40872D01*
X712395Y40589D01*
X712496Y40085D01*
X712524Y39571D01*
X712649Y39311D01*
X712706Y39028D01*
X712991Y38601D01*
X713214Y38137D01*
X713429Y37945D01*
X713590Y37705D01*
X714017Y37420D01*
X714401Y37077D01*
X714673Y36981D01*
X714913Y36821D01*
X715417Y36721D01*
X715540Y36678D01*
X715633Y36474D01*
X715854Y35747D01*
X716051Y34764D01*
X716336Y31708D01*
X716372Y29828D01*
X716381Y29789D01*
Y17319D01*
X621402D01*
X601569Y37152D01*
Y140451D01*
X603569Y141279D01*
X613745Y131103D01*
X615458Y129274D01*
X616398Y128141D01*
X616576Y127894D01*
X616706Y126912D01*
X617512Y124965D01*
X618794Y123294D01*
X620466Y122012D01*
X622412Y121206D01*
X624500Y120931D01*
X626588Y121206D01*
X628535Y122012D01*
X629265Y122573D01*
X630041Y122622D01*
X631500Y121254D01*
Y118750D01*
X649500D01*
Y139250D01*
X631500D01*
Y137072D01*
X629648Y135361D01*
X629500Y135356D01*
X629321Y135385D01*
X628535Y135988D01*
X626588Y136794D01*
X625675Y136914D01*
X622029Y140123D01*
X609326Y152826D01*
X607341Y154152D01*
X605000Y154618D01*
X212750D01*
X210409Y154152D01*
X208424Y152826D01*
X200924Y145326D01*
X199598Y143341D01*
X199132Y141000D01*
Y138091D01*
X199050Y135588D01*
X198914Y134122D01*
X198866Y133821D01*
X198262Y133034D01*
X197456Y131088D01*
X197181Y129000D01*
X197456Y126912D01*
X198262Y124965D01*
X199544Y123294D01*
X201215Y122012D01*
X203162Y121206D01*
X205250Y120931D01*
X207338Y121206D01*
X208750Y121791D01*
X210242Y121100D01*
X210750Y120616D01*
Y118750D01*
X228750D01*
Y139250D01*
X214967D01*
X214208Y141019D01*
X215328Y142382D01*
X303883D01*
Y138091D01*
X303800Y135588D01*
X303664Y134122D01*
X303615Y133821D01*
X303012Y133034D01*
X302206Y131088D01*
X301931Y129000D01*
X302206Y126912D01*
X303012Y124965D01*
X304294Y123294D01*
X305965Y122012D01*
X307912Y121206D01*
X310000Y120931D01*
X312088Y121206D01*
X314035Y122012D01*
X314500Y122369D01*
X315550Y122113D01*
X316500Y121222D01*
Y118750D01*
X334500D01*
Y139250D01*
X317843D01*
X316789Y141250D01*
X317474Y142382D01*
X408633D01*
Y138091D01*
X408550Y135588D01*
X408414Y134122D01*
X408366Y133821D01*
X407762Y133034D01*
X406956Y131088D01*
X406681Y129000D01*
X406956Y126912D01*
X407762Y124965D01*
X409044Y123294D01*
X410715Y122012D01*
X412662Y121206D01*
X414750Y120931D01*
X416838Y121206D01*
X418784Y122012D01*
X419515Y122573D01*
X422541Y122766D01*
X424000Y121398D01*
Y118750D01*
X442000D01*
Y139250D01*
X424000D01*
Y137784D01*
X422256Y136457D01*
X420973Y136961D01*
X420868Y138612D01*
Y142382D01*
X513632D01*
Y138091D01*
X513550Y135588D01*
X513414Y134122D01*
X513365Y133821D01*
X512762Y133034D01*
X511956Y131088D01*
X511681Y129000D01*
X511956Y126912D01*
X512762Y124965D01*
X514044Y123294D01*
X515715Y122012D01*
X517662Y121206D01*
X519750Y120931D01*
X521838Y121206D01*
X523784Y122012D01*
X524515Y122573D01*
X525041Y122606D01*
X526500Y121238D01*
Y118750D01*
X544500D01*
Y139250D01*
X527604D01*
X526525Y141250D01*
X527096Y142382D01*
X585431D01*
Y33810D01*
X585706Y31721D01*
X586512Y29775D01*
X587794Y28104D01*
X608953Y6946D01*
X608187Y5098D01*
X33750Y5098D01*
X33535Y5055D01*
X29258Y5392D01*
X24878Y6444D01*
X20715Y8168D01*
X16874Y10522D01*
X13448Y13448D01*
X10522Y16874D01*
X8168Y20715D01*
X6444Y24878D01*
X5392Y29258D01*
X5055Y33536D01*
X5098Y33750D01*
X5098Y331152D01*
X173500D01*
X175451Y331540D01*
X177105Y332645D01*
X178210Y334299D01*
X178598Y336250D01*
Y491542D01*
X180598Y493050D01*
X181500Y492931D01*
X183588Y493206D01*
X185534Y494012D01*
X186265Y494573D01*
X191112Y494882D01*
X196158D01*
X198662Y494800D01*
X200128Y494664D01*
X200429Y494615D01*
X201215Y494012D01*
X203162Y493206D01*
X204075Y493086D01*
X207721Y489878D01*
X211098Y486500D01*
X210270Y484500D01*
X209250D01*
Y464000D01*
X227250D01*
Y483133D01*
X229512D01*
X231250Y482500D01*
X231250Y481132D01*
Y476750D01*
X238250D01*
X245250D01*
Y481132D01*
X245250Y482500D01*
X246988Y483133D01*
X300750D01*
Y464000D01*
X318750D01*
Y483133D01*
X321012D01*
X322750Y482500D01*
X322750Y481132D01*
Y476750D01*
X329750D01*
X336750D01*
Y481132D01*
X336750Y482500D01*
X338488Y483133D01*
X406000D01*
Y464000D01*
X424000D01*
Y483133D01*
X426262D01*
X428000Y482500D01*
X428000Y481132D01*
Y476750D01*
X435000D01*
Y474250D01*
D01*
Y476750D01*
X442000D01*
Y481132D01*
X442000Y482500D01*
X443738Y483133D01*
X510500D01*
Y464000D01*
X528500D01*
Y483133D01*
X530762D01*
X532500Y482500D01*
X532500Y481132D01*
Y476750D01*
X539500D01*
X546500D01*
Y481132D01*
X546500Y482500D01*
X548238Y483133D01*
X616000D01*
Y464000D01*
X634000D01*
Y483133D01*
X636262D01*
X638000Y482500D01*
X638000Y481132D01*
Y476750D01*
X645000D01*
X652000D01*
Y481132D01*
X652000Y482500D01*
X653738Y483133D01*
X837000D01*
X839341Y483598D01*
X841326Y484924D01*
X853147Y496745D01*
X854976Y498457D01*
X856109Y499398D01*
X856356Y499576D01*
X857338Y499706D01*
X857750Y499876D01*
X859750Y498540D01*
Y487500D01*
X877750D01*
Y508000D01*
X874867D01*
Y510750D01*
X877750D01*
Y531250D01*
X859750D01*
Y516460D01*
X857750Y515123D01*
X857338Y515294D01*
X855250Y515569D01*
X853162Y515294D01*
X851216Y514488D01*
X849544Y513206D01*
X848262Y511535D01*
X847456Y509588D01*
X847336Y508675D01*
X844128Y505029D01*
X834466Y495368D01*
X632783D01*
X632196Y496092D01*
X631655Y497368D01*
X632294Y498912D01*
X632569Y501000D01*
X632294Y503088D01*
X631488Y505034D01*
X631284Y505300D01*
X632271Y507300D01*
X700125D01*
X703164Y507599D01*
X706085Y508486D01*
X708778Y509925D01*
X711138Y511862D01*
X713075Y514222D01*
X714514Y516915D01*
X715401Y519837D01*
X715700Y522875D01*
X715401Y525914D01*
X714514Y528835D01*
X713075Y531528D01*
X711138Y533888D01*
X708778Y535825D01*
X706085Y537265D01*
X703164Y538151D01*
X700125Y538450D01*
X281500D01*
X278461Y538151D01*
X275540Y537265D01*
X272847Y535825D01*
X270487Y533888D01*
X268550Y531528D01*
X267111Y528835D01*
X266224Y525914D01*
X265925Y522875D01*
X266224Y519837D01*
X267111Y516915D01*
X268550Y514222D01*
X270487Y511862D01*
X272847Y509925D01*
X275540Y508486D01*
X278461Y507599D01*
X281500Y507300D01*
X302229D01*
X303216Y505300D01*
X303012Y505034D01*
X302206Y503088D01*
X301931Y501000D01*
X302206Y498912D01*
X302845Y497368D01*
X302304Y496092D01*
X301717Y495368D01*
X219534D01*
X216005Y498897D01*
X214292Y500726D01*
X213352Y501859D01*
X213173Y502106D01*
X213044Y503088D01*
X212238Y505034D01*
X210956Y506706D01*
X209284Y507988D01*
X207338Y508794D01*
X205250Y509069D01*
X203162Y508794D01*
X201215Y507988D01*
X200485Y507427D01*
X195638Y507118D01*
X190592D01*
X188088Y507200D01*
X186622Y507336D01*
X186321Y507384D01*
X185534Y507988D01*
X183588Y508794D01*
X181500Y509069D01*
X180598Y508950D01*
X178598Y510458D01*
Y584250D01*
X178598Y584253D01*
X178598Y586250D01*
X178693Y588211D01*
X178892Y590742D01*
X179944Y595122D01*
X181668Y599285D01*
X184022Y603126D01*
X186948Y606552D01*
X190374Y609478D01*
X194215Y611832D01*
X198378Y613556D01*
X202759Y614608D01*
X207035Y614945D01*
X207250Y614902D01*
D02*
G37*
G36*
X1106250Y589000D02*
X1106250D01*
X1106924Y587000D01*
X1106909Y586926D01*
X1106951Y586714D01*
X1106943Y586624D01*
X1106905Y586595D01*
X1105142Y584297D01*
X1104033Y581621D01*
X1103655Y578750D01*
X1104033Y575878D01*
X1104915Y573750D01*
X1103981Y571750D01*
X1102250D01*
Y570293D01*
X1100250Y569241D01*
X1097500Y569604D01*
X1094367Y569191D01*
X1091448Y567982D01*
X1088941Y566059D01*
X1087018Y563552D01*
X1085809Y560633D01*
X1085396Y557500D01*
X1085809Y554367D01*
X1087018Y551448D01*
X1088231Y549868D01*
X1087245Y547868D01*
X1078677D01*
X1077250Y549868D01*
Y555000D01*
X1070250D01*
X1063250D01*
Y549868D01*
X1063250Y549250D01*
X1061823Y547868D01*
X1059250D01*
Y567750D01*
X1059250D01*
X1058398Y569750D01*
X1058422Y569872D01*
X1058595Y570445D01*
X1058575Y570647D01*
X1058615Y570846D01*
X1058497Y571433D01*
X1058496Y571441D01*
X1059848Y573203D01*
X1060957Y575878D01*
X1061335Y578750D01*
X1060957Y581622D01*
X1059848Y584297D01*
X1058266Y586360D01*
X1058352Y586791D01*
X1058307Y587018D01*
X1058327Y587248D01*
X1059250Y589000D01*
X1059250D01*
Y604883D01*
X1063250D01*
Y601750D01*
X1070250D01*
X1077250D01*
Y604883D01*
X1106250D01*
Y589000D01*
D02*
G37*
G36*
X1153334Y601898D02*
X1153702Y601762D01*
X1154211Y601642D01*
X1154860Y601538D01*
X1156582Y601378D01*
X1160220Y601258D01*
X1161714Y601250D01*
X1161714Y597250D01*
X1160220Y597242D01*
X1154211Y596858D01*
X1153702Y596738D01*
X1153334Y596602D01*
X1153107Y596450D01*
X1150250Y599250D01*
X1153107Y602050D01*
X1153334Y601898D01*
D02*
G37*
G36*
X1150250Y599250D02*
X1147393Y596450D01*
X1147166Y596602D01*
X1146798Y596738D01*
X1146289Y596858D01*
X1140280Y597242D01*
X1138786Y597250D01*
X1138786Y601250D01*
X1140280Y601258D01*
X1143918Y601378D01*
X1145640Y601538D01*
X1146290Y601642D01*
X1146798Y601762D01*
X1147166Y601898D01*
X1147393Y602050D01*
X1150250Y599250D01*
D02*
G37*
G36*
X1117758Y596364D02*
X1118368Y587104D01*
X1118512Y586926D01*
X1110987D01*
X1111132Y587104D01*
X1111262Y587501D01*
X1111376Y588115D01*
X1111476Y588946D01*
X1111628Y591261D01*
X1111750Y598500D01*
X1117750D01*
X1117758Y596364D01*
D02*
G37*
G36*
X1052270Y597066D02*
X1052756Y590416D01*
X1052979Y589275D01*
X1053242Y588343D01*
X1053545Y587618D01*
X1053889Y587103D01*
X1054274Y586795D01*
X1046224Y586804D01*
X1046609Y587111D01*
X1046953Y587625D01*
X1047257Y588349D01*
X1047521Y589281D01*
X1047744Y590421D01*
X1047926Y591770D01*
X1048169Y595093D01*
X1048250Y599250D01*
X1052250D01*
X1052270Y597066D01*
D02*
G37*
G36*
X1001465Y598264D02*
X1001845Y592333D01*
X1002072Y590804D01*
X1002350Y589500D01*
X1002679Y588421D01*
X1003059Y587565D01*
X1003488Y586934D01*
X1003969Y586527D01*
X994911D01*
X995391Y586934D01*
X995822Y587565D01*
X996201Y588421D01*
X996530Y589500D01*
X996808Y590804D01*
X997035Y592333D01*
X997339Y596063D01*
X997440Y600690D01*
X1001440D01*
X1001465Y598264D01*
D02*
G37*
G36*
X1333742Y614608D02*
X1338122Y613556D01*
X1342285Y611832D01*
X1346126Y609478D01*
X1349552Y606552D01*
X1352478Y603126D01*
X1354832Y599285D01*
X1356556Y595122D01*
X1357608Y590742D01*
X1357945Y586464D01*
X1357902Y586250D01*
X1357902Y33750D01*
X1357945Y33536D01*
X1357608Y29258D01*
X1356556Y24878D01*
X1354832Y20715D01*
X1352478Y16874D01*
X1349552Y13448D01*
X1346126Y10522D01*
X1342285Y8168D01*
X1338122Y6444D01*
X1333742Y5392D01*
X1331211Y5193D01*
X1329250Y5098D01*
X1327250Y5098D01*
X1120122Y5098D01*
X1119357Y6946D01*
X1141206Y28794D01*
X1142488Y30466D01*
X1143294Y32412D01*
X1143569Y34500D01*
Y85158D01*
X1144092Y85681D01*
X1157924D01*
X1160012Y85956D01*
X1161290Y86485D01*
X1163290Y85497D01*
Y81750D01*
X1148924D01*
Y67750D01*
X1166924D01*
Y68667D01*
X1169091Y69098D01*
X1171076Y70424D01*
X1173733Y73082D01*
X1175059Y75066D01*
X1175494Y77250D01*
X1190924D01*
Y78383D01*
X1193006D01*
X1194981Y78292D01*
X1196437Y78145D01*
X1196602Y78117D01*
X1197716Y77262D01*
X1199662Y76456D01*
X1201750Y76181D01*
X1202250Y76247D01*
X1204250Y74600D01*
Y74600D01*
X1237250D01*
Y78482D01*
X1238600D01*
X1240941Y78948D01*
X1242926Y80274D01*
X1251750Y89098D01*
X1253750Y88284D01*
Y69750D01*
X1293250D01*
Y106750D01*
Y143750D01*
X1254118D01*
Y440250D01*
X1253652Y442591D01*
X1252326Y444576D01*
X1200576Y496326D01*
X1198591Y497652D01*
X1196250Y498117D01*
X1162707D01*
X1161721Y500117D01*
X1161988Y500466D01*
X1162794Y502412D01*
X1163069Y504500D01*
X1162794Y506588D01*
X1161988Y508535D01*
X1160706Y510206D01*
X1159035Y511488D01*
X1157088Y512294D01*
X1156175Y512414D01*
X1152529Y515623D01*
X1126749Y541402D01*
X1127514Y543250D01*
X1128250D01*
Y547250D01*
X1144250D01*
Y560099D01*
X1144476Y560324D01*
X1145802Y562309D01*
X1146267Y564650D01*
Y569579D01*
X1147995Y570905D01*
X1149759Y573202D01*
X1150867Y575878D01*
X1151245Y578750D01*
X1150867Y581621D01*
X1149759Y584297D01*
X1147995Y586595D01*
X1146518Y587729D01*
X1145915Y588191D01*
X1145915Y588191D01*
X1145697Y588358D01*
X1144842Y588713D01*
X1144842Y588713D01*
X1144250Y590599D01*
Y591265D01*
X1146216Y592262D01*
X1148162Y591456D01*
X1150250Y591181D01*
X1152338Y591456D01*
X1154285Y592262D01*
X1156250Y591266D01*
Y589000D01*
X1157553D01*
X1158232Y587000D01*
X1157705Y586595D01*
X1155941Y584297D01*
X1154833Y581621D01*
X1154455Y578750D01*
X1154833Y575878D01*
X1155941Y573202D01*
X1157318Y571409D01*
X1157202Y570827D01*
X1157242Y570626D01*
X1157222Y570422D01*
X1157396Y569851D01*
X1157416Y569750D01*
X1156500Y567750D01*
X1156500D01*
Y547250D01*
X1156500D01*
X1156250Y546000D01*
X1156250Y546000D01*
X1156250Y545354D01*
Y525500D01*
X1174250D01*
Y546000D01*
X1174250D01*
X1174500Y547250D01*
X1174500Y547250D01*
X1174500Y547896D01*
Y567750D01*
X1174500D01*
X1173684Y569750D01*
X1173704Y569851D01*
X1173878Y570422D01*
X1173858Y570626D01*
X1173898Y570827D01*
X1173783Y571409D01*
X1175158Y573202D01*
X1176267Y575878D01*
X1176645Y578750D01*
X1176267Y581621D01*
X1175158Y584297D01*
X1173395Y586595D01*
X1172868Y587000D01*
X1173547Y589000D01*
X1174250D01*
Y609500D01*
X1156250D01*
Y607251D01*
X1154285Y606238D01*
X1152338Y607044D01*
X1150250Y607319D01*
X1148162Y607044D01*
X1146216Y606238D01*
X1144250Y607251D01*
Y609500D01*
X1126250D01*
Y589000D01*
X1132154D01*
X1132833Y587000D01*
X1132305Y586595D01*
X1130542Y584297D01*
X1129433Y581621D01*
X1129055Y578750D01*
X1129433Y575878D01*
X1130542Y573202D01*
X1132305Y570905D01*
X1133809Y569750D01*
X1133718Y567750D01*
X1128250D01*
Y571750D01*
X1125519D01*
X1124585Y573750D01*
X1125467Y575878D01*
X1125845Y578750D01*
X1125467Y581621D01*
X1124359Y584297D01*
X1122595Y586595D01*
X1123334Y588329D01*
X1123838Y588816D01*
X1124194Y589000D01*
X1124250D01*
Y609500D01*
X1120818D01*
X1120402Y611591D01*
X1119526Y612902D01*
X1120417Y614902D01*
X1329250Y614902D01*
X1329464Y614945D01*
X1333742Y614608D01*
D02*
G37*
G36*
X1169389Y570474D02*
X1169003Y569905D01*
X1168662Y569118D01*
X1168367Y568116D01*
X1168118Y566896D01*
X1167913Y565460D01*
X1167641Y561938D01*
X1167550Y557550D01*
X1163550D01*
X1163527Y559853D01*
X1162982Y566896D01*
X1162733Y568116D01*
X1162438Y569118D01*
X1162097Y569905D01*
X1161711Y570474D01*
X1161280Y570827D01*
X1169820D01*
X1169389Y570474D01*
D02*
G37*
G36*
X1028828Y570682D02*
X1028385Y570343D01*
X1027990Y569786D01*
X1027641Y569012D01*
X1027338Y568020D01*
X1027082Y566811D01*
X1026872Y565384D01*
X1026593Y561877D01*
X1026500Y557500D01*
X1022500D01*
X1022478Y559827D01*
X1021939Y566965D01*
X1021692Y568207D01*
X1021400Y569232D01*
X1021063Y570040D01*
X1020681Y570631D01*
X1020255Y571006D01*
X1028828Y570682D01*
D02*
G37*
G36*
X1054102Y570485D02*
X1053713Y569911D01*
X1053370Y569119D01*
X1053073Y568111D01*
X1052822Y566885D01*
X1052616Y565443D01*
X1052341Y561906D01*
X1052250Y557500D01*
X1048250D01*
X1048227Y559810D01*
X1047678Y566881D01*
X1047426Y568105D01*
X1047129Y569113D01*
X1046785Y569903D01*
X1046396Y570476D01*
X1045961Y570832D01*
X1054536Y570842D01*
X1054102Y570485D01*
D02*
G37*
G36*
X992084Y560648D02*
X992452Y560512D01*
X992961Y560392D01*
X993610Y560288D01*
X995332Y560128D01*
X998970Y560008D01*
X1000464Y560000D01*
Y556000D01*
X998970Y555992D01*
X992961Y555608D01*
X992452Y555488D01*
X992084Y555352D01*
X991857Y555200D01*
Y560800D01*
X992084Y560648D01*
D02*
G37*
G36*
X1100584Y560148D02*
X1100952Y560012D01*
X1101461Y559892D01*
X1102110Y559788D01*
X1103832Y559628D01*
X1107470Y559508D01*
X1108964Y559500D01*
X1108964Y555500D01*
X1107470Y555492D01*
X1101461Y555108D01*
X1100952Y554988D01*
X1100584Y554852D01*
X1100357Y554700D01*
X1100357Y560300D01*
X1100584Y560148D01*
D02*
G37*
G36*
X793584Y528898D02*
X793952Y528762D01*
X794461Y528642D01*
X795110Y528538D01*
X796832Y528378D01*
X800470Y528258D01*
X801964Y528250D01*
Y524250D01*
X800470Y524242D01*
X794461Y523858D01*
X793952Y523738D01*
X793584Y523602D01*
X793357Y523450D01*
Y529050D01*
X793584Y528898D01*
D02*
G37*
G36*
X761834Y515648D02*
X762202Y515512D01*
X762711Y515392D01*
X763360Y515288D01*
X765082Y515128D01*
X768720Y515008D01*
X770214Y515000D01*
Y511000D01*
X768720Y510992D01*
X762711Y510608D01*
X762202Y510488D01*
X761834Y510352D01*
X761607Y510200D01*
Y515800D01*
X761834Y515648D01*
D02*
G37*
G36*
X1082366Y517474D02*
X1082201Y517254D01*
X1082054Y516892D01*
X1081924Y516388D01*
X1081812Y515743D01*
X1081639Y514029D01*
X1081535Y511749D01*
X1081500Y508903D01*
X1077500Y509193D01*
X1077494Y510695D01*
X1077091Y517178D01*
X1076982Y517528D01*
X1076861Y517734D01*
X1082366Y517474D01*
D02*
G37*
G36*
X858334Y510148D02*
X858702Y510012D01*
X859211Y509892D01*
X859860Y509788D01*
X861582Y509628D01*
X865220Y509508D01*
X866714Y509500D01*
Y505500D01*
X865220Y505492D01*
X859211Y505108D01*
X858702Y504988D01*
X858334Y504852D01*
X858107Y504700D01*
Y510300D01*
X858334Y510148D01*
D02*
G37*
G36*
X1149370Y512970D02*
X1153891Y508992D01*
X1154335Y508717D01*
X1154692Y508553D01*
X1154960Y508500D01*
X1151000Y504540D01*
X1150947Y504808D01*
X1150783Y505164D01*
X1150508Y505609D01*
X1150122Y506142D01*
X1149018Y507472D01*
X1146530Y510130D01*
X1145479Y511192D01*
X1148308Y514021D01*
X1149370Y512970D01*
D02*
G37*
G36*
X202393Y498200D02*
X202166Y498352D01*
X201798Y498488D01*
X201289Y498608D01*
X200640Y498712D01*
X198918Y498872D01*
X195280Y498992D01*
X193786Y499000D01*
Y503000D01*
X195280Y503008D01*
X201289Y503392D01*
X201798Y503512D01*
X202166Y503648D01*
X202393Y503800D01*
Y498200D01*
D02*
G37*
G36*
X184584Y503648D02*
X184952Y503512D01*
X185461Y503392D01*
X186110Y503288D01*
X187832Y503128D01*
X191470Y503008D01*
X192964Y503000D01*
Y499000D01*
X191470Y498992D01*
X185461Y498608D01*
X184952Y498488D01*
X184584Y498352D01*
X184357Y498200D01*
Y503800D01*
X184584Y503648D01*
D02*
G37*
G36*
X855210Y503500D02*
X854942Y503447D01*
X854585Y503283D01*
X854141Y503008D01*
X853608Y502622D01*
X852278Y501518D01*
X849620Y499030D01*
X848558Y497979D01*
X845730Y500808D01*
X846780Y501870D01*
X850758Y506391D01*
X851033Y506835D01*
X851197Y507192D01*
X851250Y507460D01*
X855210Y503500D01*
D02*
G37*
G36*
X1125008Y501970D02*
X1125392Y495961D01*
X1125512Y495452D01*
X1125648Y495084D01*
X1125800Y494857D01*
X1120200D01*
X1120352Y495084D01*
X1120488Y495452D01*
X1120608Y495961D01*
X1120712Y496610D01*
X1120872Y498332D01*
X1120992Y501970D01*
X1121000Y503464D01*
X1125000D01*
X1125008Y501970D01*
D02*
G37*
G36*
X209303Y500692D02*
X209467Y500335D01*
X209742Y499891D01*
X210128Y499358D01*
X211232Y498027D01*
X213720Y495370D01*
X214771Y494308D01*
X211942Y491479D01*
X210880Y492530D01*
X206359Y496508D01*
X205914Y496783D01*
X205558Y496947D01*
X205290Y497000D01*
X209250Y500960D01*
X209303Y500692D01*
D02*
G37*
G36*
X522006Y497799D02*
X521900Y497470D01*
X521806Y496993D01*
X521725Y496370D01*
X521600Y494680D01*
X521500Y489536D01*
X517500D01*
X517494Y491043D01*
X517100Y497470D01*
X516994Y497799D01*
X516875Y497982D01*
X522125D01*
X522006Y497799D01*
D02*
G37*
G36*
X417327Y497857D02*
X417206Y497509D01*
X417099Y497017D01*
X417006Y496381D01*
X416864Y494676D01*
X416757Y491037D01*
X416750Y489536D01*
X412750D01*
X412743Y491037D01*
X412401Y497017D01*
X412294Y497509D01*
X412173Y497857D01*
X412038Y498060D01*
X417463D01*
X417327Y497857D01*
D02*
G37*
G36*
X312577D02*
X312456Y497509D01*
X312349Y497017D01*
X312257Y496381D01*
X312114Y494676D01*
X312007Y491037D01*
X312000Y489536D01*
X308000D01*
X307993Y491037D01*
X307651Y497017D01*
X307544Y497509D01*
X307423Y497857D01*
X307288Y498060D01*
X312712D01*
X312577Y497857D01*
D02*
G37*
G36*
X627077Y497857D02*
X626956Y497509D01*
X626849Y497017D01*
X626757Y496381D01*
X626614Y494676D01*
X626507Y491037D01*
X626500Y489536D01*
X622500Y489536D01*
X622493Y491037D01*
X622151Y497017D01*
X622044Y497509D01*
X621923Y497857D01*
X621787Y498060D01*
X627212Y498060D01*
X627077Y497857D01*
D02*
G37*
G36*
X1126084Y494648D02*
X1126452Y494512D01*
X1126961Y494392D01*
X1127610Y494288D01*
X1129332Y494128D01*
X1132970Y494008D01*
X1134464Y494000D01*
Y490000D01*
X1132970Y489992D01*
X1126961Y489608D01*
X1126452Y489488D01*
X1126084Y489352D01*
X1125856Y489200D01*
Y494800D01*
X1126084Y494648D01*
D02*
G37*
G36*
X1058528Y252370D02*
X1058649Y252030D01*
X1058850Y251730D01*
X1059132Y251470D01*
X1059495Y251250D01*
X1059938Y251070D01*
X1060462Y250930D01*
X1061067Y250830D01*
X1061752Y250770D01*
X1062518Y250750D01*
Y246750D01*
X1061752Y246730D01*
X1061067Y246670D01*
X1060462Y246570D01*
X1059938Y246430D01*
X1059495Y246250D01*
X1059132Y246030D01*
X1058850Y245770D01*
X1058649Y245470D01*
X1058528Y245130D01*
X1058487Y244750D01*
Y252750D01*
X1058528Y252370D01*
D02*
G37*
G36*
X990934Y235420D02*
X989974Y236053D01*
X988714Y236619D01*
X987154Y237119D01*
X985296Y237551D01*
X983139Y237918D01*
X977928Y238450D01*
X971520Y238717D01*
X967868Y238750D01*
Y258750D01*
X971520Y258783D01*
X983139Y259582D01*
X985296Y259949D01*
X987154Y260381D01*
X988714Y260881D01*
X989974Y261447D01*
X990934Y262080D01*
Y235420D01*
D02*
G37*
G36*
X521758Y138970D02*
X522142Y132961D01*
X522262Y132452D01*
X522398Y132084D01*
X522550Y131857D01*
X516950D01*
X517102Y132084D01*
X517238Y132452D01*
X517358Y132961D01*
X517462Y133610D01*
X517622Y135332D01*
X517742Y138970D01*
X517750Y140464D01*
X521750D01*
X521758Y138970D01*
D02*
G37*
G36*
X416758D02*
X417142Y132961D01*
X417262Y132452D01*
X417398Y132084D01*
X417550Y131857D01*
X411950D01*
X412102Y132084D01*
X412238Y132452D01*
X412358Y132961D01*
X412462Y133610D01*
X412622Y135332D01*
X412742Y138970D01*
X412750Y140464D01*
X416750D01*
X416758Y138970D01*
D02*
G37*
G36*
X312008D02*
X312392Y132961D01*
X312512Y132452D01*
X312648Y132084D01*
X312800Y131857D01*
X307200D01*
X307352Y132084D01*
X307488Y132452D01*
X307608Y132961D01*
X307712Y133610D01*
X307872Y135332D01*
X307992Y138970D01*
X308000Y140464D01*
X312000D01*
X312008Y138970D01*
D02*
G37*
G36*
X207258D02*
X207642Y132961D01*
X207762Y132452D01*
X207898Y132084D01*
X208050Y131857D01*
X202450D01*
X202602Y132084D01*
X202738Y132452D01*
X202858Y132961D01*
X202962Y133610D01*
X203122Y135332D01*
X203242Y138970D01*
X203250Y140464D01*
X207250D01*
X207258Y138970D01*
D02*
G37*
G36*
X618870Y137470D02*
X623391Y133492D01*
X623835Y133217D01*
X624192Y133053D01*
X624460Y133000D01*
X620500Y129040D01*
X620447Y129308D01*
X620283Y129664D01*
X620008Y130109D01*
X619622Y130642D01*
X618518Y131973D01*
X616030Y134630D01*
X614979Y135692D01*
X617808Y138521D01*
X618870Y137470D01*
D02*
G37*
G36*
X627584Y131648D02*
X627952Y131512D01*
X628461Y131392D01*
X629110Y131288D01*
X630832Y131128D01*
X634470Y131008D01*
X635964Y131000D01*
Y127000D01*
X634470Y126992D01*
X628461Y126608D01*
X627952Y126488D01*
X627584Y126352D01*
X627357Y126200D01*
Y131800D01*
X627584Y131648D01*
D02*
G37*
G36*
X522834D02*
X523202Y131512D01*
X523711Y131392D01*
X524360Y131288D01*
X526082Y131128D01*
X529720Y131008D01*
X531214Y131000D01*
Y127000D01*
X529720Y126992D01*
X523711Y126608D01*
X523202Y126488D01*
X522834Y126352D01*
X522607Y126200D01*
Y131800D01*
X522834Y131648D01*
D02*
G37*
G36*
X417834D02*
X418202Y131512D01*
X418711Y131392D01*
X419360Y131288D01*
X421082Y131128D01*
X424720Y131008D01*
X426214Y131000D01*
Y127000D01*
X424720Y126992D01*
X418711Y126608D01*
X418202Y126488D01*
X417834Y126352D01*
X417607Y126200D01*
Y131800D01*
X417834Y131648D01*
D02*
G37*
G36*
X313084D02*
X313452Y131512D01*
X313961Y131392D01*
X314610Y131288D01*
X316332Y131128D01*
X319970Y131008D01*
X321464Y131000D01*
Y127000D01*
X319970Y126992D01*
X313961Y126608D01*
X313452Y126488D01*
X313084Y126352D01*
X312857Y126200D01*
Y131800D01*
X313084Y131648D01*
D02*
G37*
G36*
X208334D02*
X208702Y131512D01*
X209211Y131392D01*
X209860Y131288D01*
X211582Y131128D01*
X215220Y131008D01*
X216714Y131000D01*
Y127000D01*
X215220Y126992D01*
X209211Y126608D01*
X208702Y126488D01*
X208334Y126352D01*
X208107Y126200D01*
Y131800D01*
X208334Y131648D01*
D02*
G37*
G36*
X1204722Y87018D02*
X1205072Y86909D01*
X1205565Y86813D01*
X1206203Y86730D01*
X1207912Y86602D01*
X1213057Y86500D01*
X1213347Y82500D01*
X1211853Y82491D01*
X1205862Y82076D01*
X1205358Y81946D01*
X1204996Y81798D01*
X1204776Y81634D01*
X1204516Y87139D01*
X1204722Y87018D01*
D02*
G37*
G36*
X1198724Y81634D02*
X1198503Y81798D01*
X1198142Y81946D01*
X1197638Y82076D01*
X1196993Y82188D01*
X1195279Y82361D01*
X1192999Y82465D01*
X1190153Y82500D01*
X1190443Y86500D01*
X1191945Y86506D01*
X1198428Y86909D01*
X1198778Y87018D01*
X1198984Y87139D01*
X1198724Y81634D01*
D02*
G37*
G36*
X707837Y66456D02*
X707941Y66139D01*
X708172Y65720D01*
X708531Y65198D01*
X709018Y64574D01*
X710374Y63017D01*
X713364Y59914D01*
X710536Y57086D01*
X709399Y58210D01*
X704730Y62278D01*
X704311Y62509D01*
X703994Y62613D01*
X703780Y62590D01*
X707860Y66670D01*
X707837Y66456D01*
D02*
G37*
G36*
X731671Y40482D02*
X730995Y40162D01*
X730398Y39628D01*
X729882Y38880D01*
X729444Y37919D01*
X729086Y36744D01*
X728808Y35355D01*
X728609Y33753D01*
X728490Y31937D01*
X728450Y29908D01*
X720450D01*
X720410Y31937D01*
X720092Y35355D01*
X719814Y36744D01*
X719456Y37919D01*
X719018Y38880D01*
X718502Y39628D01*
X717905Y40162D01*
X717229Y40482D01*
X716474Y40589D01*
X732426D01*
X731671Y40482D01*
D02*
G37*
%LPC*%
G36*
X987000Y609500D02*
X982500D01*
Y603750D01*
X987000D01*
Y609500D01*
D02*
G37*
G36*
X977500D02*
X973000D01*
Y603750D01*
X977500D01*
Y609500D01*
D02*
G37*
G36*
X987000Y598750D02*
X982500D01*
Y593000D01*
X987000D01*
Y598750D01*
D02*
G37*
G36*
X977500D02*
X973000D01*
Y593000D01*
X977500D01*
Y598750D01*
D02*
G37*
G36*
X886250Y506000D02*
X881750D01*
Y500250D01*
X886250D01*
Y506000D01*
D02*
G37*
G36*
Y495250D02*
X881750D01*
Y489500D01*
X886250D01*
Y495250D01*
D02*
G37*
G36*
X546500Y471750D02*
X542000D01*
Y466000D01*
X546500D01*
Y471750D01*
D02*
G37*
G36*
X537000D02*
X532500D01*
Y466000D01*
X537000D01*
Y471750D01*
D02*
G37*
G36*
X442000Y471750D02*
X437500D01*
Y466000D01*
X442000D01*
Y471750D01*
D02*
G37*
G36*
X432500D02*
X428000D01*
Y466000D01*
X432500D01*
Y471750D01*
D02*
G37*
G36*
X245250Y471750D02*
X240750D01*
Y466000D01*
X245250D01*
Y471750D01*
D02*
G37*
G36*
X235750D02*
X231250D01*
Y466000D01*
X235750D01*
Y471750D01*
D02*
G37*
G36*
X652000Y471750D02*
X647500D01*
Y466000D01*
X652000D01*
Y471750D01*
D02*
G37*
G36*
X642500D02*
X638000D01*
Y466000D01*
X642500D01*
Y471750D01*
D02*
G37*
G36*
X336750Y471750D02*
X332250D01*
Y466000D01*
X336750D01*
Y471750D01*
D02*
G37*
G36*
X327250D02*
X322750D01*
Y466000D01*
X327250D01*
Y471750D01*
D02*
G37*
G36*
X668500Y451828D02*
X649500D01*
X647939Y451518D01*
X646616Y450634D01*
X645732Y449311D01*
X645422Y447750D01*
Y424828D01*
X632250D01*
X631660Y424750D01*
X620250D01*
Y406750D01*
X631660D01*
X632250Y406672D01*
X649497D01*
X649500Y406672D01*
X668500D01*
X668894Y406750D01*
X669500D01*
Y406871D01*
X670061Y406982D01*
X671384Y407866D01*
X672268Y409189D01*
X672578Y410750D01*
Y447750D01*
X672268Y449311D01*
X671384Y450634D01*
X670061Y451518D01*
X668500Y451828D01*
D02*
G37*
G36*
X564000Y455819D02*
X546000D01*
X543912Y455544D01*
X541965Y454738D01*
X540294Y453456D01*
X539012Y451785D01*
X538206Y449838D01*
X537931Y447750D01*
Y428862D01*
X528750D01*
X527898Y428750D01*
X511250D01*
Y402750D01*
X527898D01*
X528750Y402638D01*
X554000D01*
X554328Y402681D01*
X564000D01*
X564524Y402750D01*
X569250D01*
Y404695D01*
X569706Y405044D01*
X570988Y406716D01*
X571794Y408662D01*
X572069Y410750D01*
Y447750D01*
X571794Y449838D01*
X570988Y451785D01*
X569706Y453456D01*
X568035Y454738D01*
X566088Y455544D01*
X564000Y455819D01*
D02*
G37*
G36*
X458250D02*
X440250D01*
X438162Y455544D01*
X436216Y454738D01*
X434544Y453456D01*
X433262Y451785D01*
X432456Y449838D01*
X432181Y447750D01*
Y428862D01*
X423000D01*
X422148Y428750D01*
X405000D01*
Y402750D01*
X422148D01*
X423000Y402638D01*
X448250D01*
X448578Y402681D01*
X458250D01*
X458774Y402750D01*
X463250D01*
Y404503D01*
X463956Y405044D01*
X465238Y406716D01*
X466044Y408662D01*
X466319Y410750D01*
Y447750D01*
X466044Y449838D01*
X465238Y451785D01*
X463956Y453456D01*
X462285Y454738D01*
X460338Y455544D01*
X458250Y455819D01*
D02*
G37*
G36*
X353250D02*
X335250D01*
X333162Y455544D01*
X331216Y454738D01*
X329544Y453456D01*
X328262Y451785D01*
X327456Y449838D01*
X327181Y447750D01*
Y428862D01*
X318000D01*
X317148Y428750D01*
X300750D01*
Y402750D01*
X317148D01*
X318000Y402638D01*
X343250D01*
X343578Y402681D01*
X353250D01*
X353774Y402750D01*
X359000D01*
Y405102D01*
X360238Y406716D01*
X361044Y408662D01*
X361319Y410750D01*
Y447750D01*
X361044Y449838D01*
X360238Y451785D01*
X358956Y453456D01*
X357285Y454738D01*
X355338Y455544D01*
X353250Y455819D01*
D02*
G37*
G36*
X248500D02*
X230500D01*
X228412Y455544D01*
X226465Y454738D01*
X224794Y453456D01*
X223512Y451785D01*
X222706Y449838D01*
X222431Y447750D01*
Y428862D01*
X213250D01*
X212398Y428750D01*
X195500D01*
Y402750D01*
X212398D01*
X213250Y402638D01*
X238500D01*
X238828Y402681D01*
X248500D01*
X249024Y402750D01*
X253250D01*
Y404311D01*
X254206Y405044D01*
X255488Y406716D01*
X256294Y408662D01*
X256569Y410750D01*
Y447750D01*
X256294Y449838D01*
X255488Y451785D01*
X254206Y453456D01*
X252535Y454738D01*
X250588Y455544D01*
X248500Y455819D01*
D02*
G37*
G36*
X553250Y394828D02*
X552660Y394750D01*
X541250D01*
Y393974D01*
X540366Y393384D01*
X539482Y392061D01*
X539250Y390895D01*
X537250Y391091D01*
Y392750D01*
X529750D01*
Y385750D01*
Y378750D01*
X537172D01*
X537250Y378750D01*
X539172Y378561D01*
Y374146D01*
X531790Y373953D01*
X527250D01*
X526660Y373875D01*
X515250D01*
Y355875D01*
X526660D01*
X527250Y355797D01*
X532336D01*
X532339Y355797D01*
X535218Y355795D01*
X539172Y355756D01*
Y342064D01*
X537250Y341875D01*
X537172Y341875D01*
X529750D01*
Y334875D01*
Y327875D01*
X537172D01*
X537250Y327875D01*
X539172Y327686D01*
Y321029D01*
X537250Y320839D01*
X537172Y320839D01*
X529750D01*
Y313839D01*
Y306839D01*
X537250D01*
Y307908D01*
X539250Y308106D01*
X539482Y306939D01*
X540366Y305616D01*
X541250Y305026D01*
Y304750D01*
X541662D01*
X541689Y304732D01*
X543250Y304422D01*
X563500D01*
X565061Y304732D01*
X565088Y304750D01*
X565250D01*
Y304858D01*
X566384Y305616D01*
X567268Y306939D01*
X567578Y308500D01*
Y390500D01*
X567268Y392061D01*
X566384Y393384D01*
X565250Y394142D01*
Y394750D01*
X553840D01*
X553250Y394828D01*
D02*
G37*
G36*
X209000Y392750D02*
X201500D01*
Y388250D01*
X209000D01*
Y392750D01*
D02*
G37*
G36*
X629750D02*
X622250D01*
Y388250D01*
X629750D01*
Y392750D01*
D02*
G37*
G36*
X524750D02*
X517250D01*
Y388250D01*
X524750D01*
Y392750D01*
D02*
G37*
G36*
X418500D02*
X411000D01*
Y388250D01*
X418500D01*
Y392750D01*
D02*
G37*
G36*
X314250D02*
X306750D01*
Y388250D01*
X314250D01*
Y392750D01*
D02*
G37*
G36*
X524750Y383250D02*
X517250D01*
Y378750D01*
X524750D01*
Y383250D01*
D02*
G37*
G36*
Y341875D02*
X517250D01*
Y337375D01*
X524750D01*
Y341875D01*
D02*
G37*
G36*
X209000Y341875D02*
X201500D01*
Y337375D01*
X209000D01*
Y341875D01*
D02*
G37*
G36*
X418500D02*
X411000D01*
Y337375D01*
X418500D01*
Y341875D01*
D02*
G37*
G36*
X629750D02*
X622250D01*
Y337375D01*
X629750D01*
Y341875D01*
D02*
G37*
G36*
X314250Y341875D02*
X306750D01*
Y337375D01*
X314250D01*
Y341875D01*
D02*
G37*
G36*
X629750Y332375D02*
X622250D01*
Y327875D01*
X629750D01*
Y332375D01*
D02*
G37*
G36*
X418500D02*
X411000D01*
Y327875D01*
X418500D01*
Y332375D01*
D02*
G37*
G36*
X209000D02*
X201500D01*
Y327875D01*
X209000D01*
Y332375D01*
D02*
G37*
G36*
X524750Y332375D02*
X517250D01*
Y327875D01*
X524750D01*
Y332375D01*
D02*
G37*
G36*
X314250Y332375D02*
X306750D01*
Y327875D01*
X314250D01*
Y332375D01*
D02*
G37*
G36*
X1229750Y324750D02*
X1224000D01*
Y320250D01*
X1229750D01*
Y324750D01*
D02*
G37*
G36*
X1219000D02*
X1213250D01*
Y320250D01*
X1219000D01*
Y324750D01*
D02*
G37*
G36*
X209000Y321000D02*
X201500D01*
Y316500D01*
X209000D01*
Y321000D01*
D02*
G37*
G36*
X629750Y320839D02*
X622250D01*
Y316339D01*
X629750D01*
Y320839D01*
D02*
G37*
G36*
X524750D02*
X517250D01*
Y316339D01*
X524750D01*
Y320839D01*
D02*
G37*
G36*
X418500D02*
X411000D01*
Y316339D01*
X418500D01*
Y320839D01*
D02*
G37*
G36*
X314250D02*
X306750D01*
Y316339D01*
X314250D01*
Y320839D01*
D02*
G37*
G36*
X1229750Y315250D02*
X1224000D01*
Y310750D01*
X1229750D01*
Y315250D01*
D02*
G37*
G36*
X1219000D02*
X1213250D01*
Y310750D01*
X1219000D01*
Y315250D01*
D02*
G37*
G36*
X209000Y311500D02*
X201500D01*
Y307000D01*
X209000D01*
Y311500D01*
D02*
G37*
G36*
X629750Y311339D02*
X622250D01*
Y306839D01*
X629750D01*
Y311339D01*
D02*
G37*
G36*
X524750D02*
X517250D01*
Y306839D01*
X524750D01*
Y311339D01*
D02*
G37*
G36*
X418500D02*
X411000D01*
Y306839D01*
X418500D01*
Y311339D01*
D02*
G37*
G36*
X314250D02*
X306750D01*
Y306839D01*
X314250D01*
Y311339D01*
D02*
G37*
G36*
X667500Y399569D02*
X647250D01*
X645162Y399294D01*
X643848Y398750D01*
X641500D01*
Y397148D01*
X640262Y395535D01*
X639456Y393588D01*
X639346Y392750D01*
X634750D01*
Y385750D01*
X632250D01*
Y383250D01*
X622250D01*
Y378750D01*
X620612Y377875D01*
X616250D01*
Y351875D01*
X631398D01*
X632250Y351763D01*
X639181D01*
Y341875D01*
X634750D01*
Y334875D01*
Y327875D01*
X639181D01*
Y320839D01*
X634750D01*
Y313839D01*
Y306839D01*
X639486D01*
X640262Y304965D01*
X641500Y303352D01*
Y300839D01*
X673500D01*
Y303678D01*
X674488Y304965D01*
X675294Y306912D01*
X675569Y309000D01*
Y391500D01*
X675294Y393588D01*
X674488Y395535D01*
X673500Y396822D01*
Y398750D01*
X670902D01*
X669588Y399294D01*
X667500Y399569D01*
D02*
G37*
G36*
X447250Y398862D02*
X446398Y398750D01*
X431250D01*
Y395822D01*
X430262Y394534D01*
X429523Y392750D01*
X423500D01*
Y385750D01*
X421000D01*
Y383250D01*
X411000D01*
Y378750D01*
X409362Y377875D01*
X405000D01*
Y351875D01*
X420148D01*
X421000Y351763D01*
X429181D01*
Y341875D01*
X423500D01*
Y334875D01*
Y327875D01*
X429181D01*
Y320839D01*
X423500D01*
Y313839D01*
Y306839D01*
X429432D01*
X429456Y306662D01*
X430262Y304715D01*
X431250Y303428D01*
Y300750D01*
X436724D01*
X437250Y300681D01*
X457500D01*
X458026Y300750D01*
X463250D01*
Y303102D01*
X464488Y304715D01*
X465294Y306662D01*
X465569Y308750D01*
Y390500D01*
X465294Y392588D01*
X464488Y394534D01*
X463250Y396148D01*
Y398750D01*
X448102D01*
X447250Y398862D01*
D02*
G37*
G36*
X353250Y399319D02*
X333000D01*
X330912Y399044D01*
X330201Y398750D01*
X327000D01*
Y396572D01*
X326012Y395285D01*
X325206Y393338D01*
X325128Y392750D01*
X319250D01*
Y385750D01*
X316750D01*
Y383250D01*
X306750D01*
Y378750D01*
X305112Y377875D01*
X300750D01*
Y351875D01*
X315898D01*
X316750Y351763D01*
X324931D01*
Y341875D01*
X319250D01*
Y334875D01*
Y327875D01*
X324931D01*
Y320839D01*
X319250D01*
Y313839D01*
Y306839D01*
X325182D01*
X325206Y306662D01*
X326012Y304715D01*
X327000Y303428D01*
Y300750D01*
X332474D01*
X333000Y300681D01*
X353250D01*
X353776Y300750D01*
X359000D01*
Y303102D01*
X360238Y304715D01*
X361044Y306662D01*
X361319Y308750D01*
Y391250D01*
X361044Y393338D01*
X360238Y395285D01*
X359000Y396898D01*
Y398750D01*
X356049D01*
X355338Y399044D01*
X353250Y399319D01*
D02*
G37*
G36*
X247500D02*
X227250D01*
X225162Y399044D01*
X224452Y398750D01*
X221250D01*
Y396572D01*
X220262Y395285D01*
X219456Y393338D01*
X219378Y392750D01*
X214000D01*
Y385750D01*
X211500D01*
Y383250D01*
X201500D01*
Y378750D01*
X199862Y377875D01*
X195500D01*
Y351875D01*
X210648D01*
X211500Y351763D01*
X219181D01*
Y341875D01*
X214000D01*
Y334875D01*
Y327875D01*
X219181D01*
Y321000D01*
X214000D01*
Y314000D01*
Y307000D01*
X219378D01*
X219456Y306412D01*
X220262Y304466D01*
X221250Y303178D01*
Y300750D01*
X225055D01*
X225162Y300706D01*
X227250Y300431D01*
X247500D01*
X249588Y300706D01*
X249695Y300750D01*
X253250D01*
Y302852D01*
X254488Y304466D01*
X255294Y306412D01*
X255569Y308500D01*
Y391250D01*
X255294Y393338D01*
X254488Y395285D01*
X253250Y396898D01*
Y398750D01*
X250299D01*
X249588Y399044D01*
X247500Y399319D01*
D02*
G37*
G36*
X1153000Y302582D02*
X1150520Y302255D01*
X1148209Y301298D01*
X1146225Y299776D01*
X1144702Y297791D01*
X1143745Y295480D01*
X1143418Y293000D01*
X1143745Y290520D01*
X1144702Y288209D01*
X1146225Y286225D01*
X1148209Y284702D01*
X1150520Y283745D01*
X1153000Y283418D01*
X1155480Y283745D01*
X1157791Y284702D01*
X1159775Y286225D01*
X1161298Y288209D01*
X1162255Y290520D01*
X1162582Y293000D01*
X1162255Y295480D01*
X1161298Y297791D01*
X1159775Y299776D01*
X1157791Y301298D01*
X1155480Y302255D01*
X1153000Y302582D01*
D02*
G37*
G36*
X996970Y327587D02*
X993441Y327240D01*
X990048Y326210D01*
X986921Y324539D01*
X984181Y322290D01*
X981931Y319549D01*
X980260Y316422D01*
X979230Y313029D01*
X978883Y309500D01*
Y299500D01*
X979230Y295971D01*
X980260Y292578D01*
X981931Y289451D01*
X984181Y286710D01*
X986921Y284461D01*
X990048Y282790D01*
X993441Y281760D01*
X996970Y281413D01*
X1000499Y281760D01*
X1003892Y282790D01*
X1007019Y284461D01*
X1009760Y286710D01*
X1012009Y289451D01*
X1013680Y292578D01*
X1014709Y295971D01*
X1015057Y299500D01*
Y309500D01*
X1014709Y313029D01*
X1013680Y316422D01*
X1012009Y319549D01*
X1009760Y322290D01*
X1007019Y324539D01*
X1003892Y326210D01*
X1000499Y327240D01*
X996970Y327587D01*
D02*
G37*
G36*
X123250Y291336D02*
X74250D01*
X71639Y290993D01*
X69207Y289985D01*
X67118Y288382D01*
X67118Y288382D01*
X55773Y277037D01*
X52750Y277335D01*
X49319Y276997D01*
X46021Y275996D01*
X42980Y274371D01*
X40316Y272184D01*
X38129Y269520D01*
X36504Y266479D01*
X35503Y263181D01*
X35165Y259750D01*
X35181Y259587D01*
X33305Y258237D01*
X33211Y258279D01*
X32991Y258966D01*
X32887Y259485D01*
X32784Y259639D01*
X32731Y259818D01*
X32345Y260297D01*
X32003Y260808D01*
X31849Y260911D01*
X31731Y261056D01*
X31191Y261350D01*
X30680Y261692D01*
X30498Y261728D01*
X30334Y261817D01*
X30331Y261817D01*
X29903Y262852D01*
X28361Y264861D01*
X26351Y266403D01*
X24011Y267372D01*
X21500Y267703D01*
X18989Y267372D01*
X16648Y266403D01*
X14639Y264861D01*
X13097Y262852D01*
X12128Y260511D01*
X11797Y258000D01*
X12128Y255489D01*
X13097Y253148D01*
X14639Y251139D01*
X16648Y249597D01*
X17682Y249169D01*
X17683Y249166D01*
X17772Y249002D01*
X17808Y248820D01*
X18150Y248309D01*
X18444Y247769D01*
X18589Y247652D01*
X18692Y247496D01*
X19203Y247155D01*
X19682Y246769D01*
X19861Y246716D01*
X20015Y246612D01*
X20619Y246493D01*
X21208Y246319D01*
X21853Y246260D01*
X22357Y246127D01*
X23119Y245818D01*
X24097Y245303D01*
X25256Y244575D01*
X26507Y243677D01*
X31313Y239536D01*
X42674Y228174D01*
X44659Y226848D01*
X47000Y226383D01*
X101172D01*
Y203629D01*
X101371Y202118D01*
Y196271D01*
X99290Y195639D01*
X96597Y194200D01*
X94237Y192263D01*
X41737Y139763D01*
X39800Y137403D01*
X38361Y134710D01*
X37474Y131789D01*
X37175Y128750D01*
Y88485D01*
X36504Y87229D01*
X35503Y83931D01*
X35165Y80500D01*
X35503Y77069D01*
X36504Y73771D01*
X38129Y70731D01*
X40316Y68066D01*
X42980Y65879D01*
X46021Y64254D01*
X49319Y63253D01*
X52750Y62915D01*
X56181Y63253D01*
X59479Y64254D01*
X62519Y65879D01*
X65184Y68066D01*
X67371Y70731D01*
X68996Y73771D01*
X69997Y77069D01*
X70335Y80500D01*
X69997Y83931D01*
X68996Y87229D01*
X68325Y88485D01*
Y122299D01*
X95524Y149497D01*
X97371Y148732D01*
Y137151D01*
X97138Y135379D01*
Y103199D01*
X96926Y95809D01*
X96633Y92200D01*
X96512Y91346D01*
X95629Y90269D01*
X94004Y87229D01*
X93003Y83931D01*
X92665Y80500D01*
X93003Y77069D01*
X94004Y73771D01*
X95629Y70731D01*
X97816Y68066D01*
X100480Y65879D01*
X103521Y64254D01*
X106819Y63253D01*
X109602Y62979D01*
X109708Y62957D01*
X110443Y62898D01*
X110813Y62811D01*
X111540Y62539D01*
X112572Y62030D01*
X113862Y61260D01*
X115222Y60323D01*
X121074Y55378D01*
X122304Y54182D01*
X140868Y35618D01*
X140868Y35618D01*
X142957Y34015D01*
X145389Y33007D01*
X148000Y32664D01*
X163836D01*
X168250Y28250D01*
X182250D01*
X189250Y35250D01*
Y49250D01*
X182250Y56250D01*
X168250D01*
X164836Y52836D01*
X152178D01*
X136568Y68446D01*
X135317Y69733D01*
X131792Y73742D01*
X130530Y75379D01*
X129490Y76888D01*
X128720Y78178D01*
X128211Y79210D01*
X127940Y79937D01*
X127852Y80307D01*
X127793Y81042D01*
X127771Y81148D01*
X127497Y83931D01*
X126496Y87229D01*
X124871Y90269D01*
X124229Y91052D01*
X123371Y103757D01*
Y119500D01*
Y151500D01*
X100140D01*
X99374Y153348D01*
X111701Y165675D01*
X700750D01*
X703788Y165974D01*
X706710Y166861D01*
X709403Y168300D01*
X711763Y170237D01*
X713700Y172597D01*
X715139Y175290D01*
X716026Y178211D01*
X716325Y181250D01*
X716026Y184289D01*
X715139Y187210D01*
X713700Y189903D01*
X711763Y192263D01*
X709403Y194200D01*
X706710Y195639D01*
X703788Y196526D01*
X700750Y196825D01*
X147371D01*
Y203000D01*
X140371D01*
X133371D01*
Y196825D01*
X119371D01*
Y217500D01*
X119328D01*
Y220500D01*
X119371D01*
Y236457D01*
X119436Y242251D01*
X119754Y248555D01*
X119887Y249780D01*
X120014Y250552D01*
X120074Y250768D01*
X120230Y251002D01*
X120330Y251500D01*
X120499Y251979D01*
X120483Y252274D01*
X120541Y252563D01*
X120442Y253061D01*
X120415Y253568D01*
X120288Y253834D01*
X120271Y253919D01*
X120295Y253950D01*
X121454Y256748D01*
X121849Y259750D01*
X121454Y262752D01*
X120295Y265550D01*
X118452Y267952D01*
X117667Y268554D01*
X118224Y270647D01*
X119426Y270809D01*
X128433Y261803D01*
X128304Y260500D01*
X128606Y257438D01*
X129499Y254494D01*
X130950Y251780D01*
X132902Y249402D01*
X135280Y247450D01*
X137994Y245999D01*
X140938Y245106D01*
X144000Y244804D01*
X147062Y245106D01*
X150007Y245999D01*
X152720Y247450D01*
X155098Y249402D01*
X157050Y251780D01*
X158501Y254494D01*
X159394Y257438D01*
X159696Y260500D01*
X159394Y263562D01*
X158501Y266507D01*
X157050Y269220D01*
X155098Y271598D01*
X152720Y273550D01*
X150007Y275001D01*
X147062Y275894D01*
X144000Y276196D01*
X142697Y276067D01*
X130382Y288382D01*
X128293Y289985D01*
X125861Y290993D01*
X123250Y291336D01*
D02*
G37*
G36*
X1153000Y277582D02*
X1150520Y277255D01*
X1148209Y276298D01*
X1146225Y274776D01*
X1144702Y272791D01*
X1143745Y270480D01*
X1143479Y268464D01*
X1140075Y265060D01*
X1124993D01*
X1124907Y265078D01*
X1122226Y265100D01*
X1117647Y265273D01*
X1114107Y265610D01*
X1112835Y265816D01*
X1111848Y266040D01*
X1111231Y266239D01*
X1111051Y266324D01*
X1110825Y266496D01*
X1110353Y266726D01*
X1109917Y267018D01*
X1109644Y267072D01*
X1109395Y267194D01*
X1108871Y267226D01*
X1108356Y267328D01*
X1108084Y267274D01*
X1107806Y267291D01*
X1107310Y267120D01*
X1106795Y267018D01*
X1106564Y266864D01*
X1106489Y266838D01*
X1105480Y267255D01*
X1103000Y267582D01*
X1100520Y267255D01*
X1098209Y266298D01*
X1096225Y264776D01*
X1094702Y262791D01*
X1093745Y260480D01*
X1093418Y258000D01*
X1093745Y255520D01*
X1094702Y253209D01*
X1096225Y251225D01*
X1098209Y249702D01*
X1100520Y248745D01*
X1103000Y248418D01*
X1105480Y248745D01*
X1106489Y249162D01*
X1106564Y249136D01*
X1106795Y248982D01*
X1107310Y248880D01*
X1107806Y248709D01*
X1108084Y248726D01*
X1108356Y248672D01*
X1108871Y248774D01*
X1109395Y248806D01*
X1109644Y248928D01*
X1109917Y248982D01*
X1110353Y249274D01*
X1110825Y249504D01*
X1111051Y249676D01*
X1111231Y249761D01*
X1111848Y249960D01*
X1112836Y250184D01*
X1114043Y250380D01*
X1122278Y250900D01*
X1124907Y250922D01*
X1124993Y250940D01*
X1143000D01*
X1144827Y251180D01*
X1146530Y251886D01*
X1147992Y253008D01*
X1153464Y258479D01*
X1155480Y258745D01*
X1157791Y259702D01*
X1159775Y261225D01*
X1161298Y263209D01*
X1162255Y265520D01*
X1162582Y268000D01*
X1162255Y270480D01*
X1161298Y272791D01*
X1159775Y274776D01*
X1157791Y276298D01*
X1155480Y277255D01*
X1153000Y277582D01*
D02*
G37*
G36*
X657500Y296952D02*
X632250D01*
X631398Y296839D01*
X616250D01*
Y270839D01*
X631398D01*
X632250Y270727D01*
X641761D01*
Y264619D01*
X641640Y263395D01*
X641942Y260333D01*
X642835Y257389D01*
X644285Y254675D01*
X646237Y252297D01*
X648616Y250345D01*
X651329Y248894D01*
X654274Y248001D01*
X657336Y247700D01*
X660398Y248001D01*
X663342Y248894D01*
X666056Y250345D01*
X668434Y252297D01*
X670386Y254675D01*
X671836Y257389D01*
X672730Y260333D01*
X673031Y263395D01*
X672911Y264619D01*
Y270839D01*
X673500D01*
Y296839D01*
X658352D01*
X657500Y296952D01*
D02*
G37*
G36*
X553000D02*
X527750D01*
X526898Y296839D01*
X511250D01*
Y270839D01*
X526898D01*
X527750Y270727D01*
X537261D01*
Y263395D01*
X537560Y260357D01*
X538446Y257435D01*
X539885Y254742D01*
X541823Y252382D01*
X544183Y250445D01*
X544357Y250352D01*
X544366Y250345D01*
X547079Y248894D01*
X550024Y248001D01*
X553086Y247700D01*
X556148Y248001D01*
X559092Y248894D01*
X561806Y250345D01*
X564184Y252297D01*
X566136Y254675D01*
X567587Y257389D01*
X568480Y260333D01*
X568781Y263395D01*
X568480Y266457D01*
X568411Y266685D01*
Y270750D01*
X569250D01*
Y296750D01*
X554529D01*
X553000Y296952D01*
D02*
G37*
G36*
X447250D02*
X422000D01*
X421148Y296839D01*
X405000D01*
Y270839D01*
X421148D01*
X422000Y270727D01*
X431511D01*
Y263395D01*
X431810Y260357D01*
X432696Y257435D01*
X434136Y254742D01*
X436073Y252382D01*
X438433Y250445D01*
X441125Y249006D01*
X441305Y248951D01*
X441412Y248894D01*
X444356Y248001D01*
X447418Y247700D01*
X450480Y248001D01*
X453424Y248894D01*
X456138Y250345D01*
X458517Y252297D01*
X460468Y254675D01*
X461919Y257389D01*
X462812Y260333D01*
X463114Y263395D01*
X462812Y266457D01*
X462661Y266956D01*
Y270750D01*
X463250D01*
Y296750D01*
X448779D01*
X447250Y296952D01*
D02*
G37*
G36*
X342750D02*
X317500D01*
X316648Y296839D01*
X300750D01*
Y270839D01*
X316648D01*
X317500Y270727D01*
X327011D01*
Y266967D01*
X326856Y266457D01*
X326554Y263395D01*
X326856Y260333D01*
X327749Y257388D01*
X329199Y254675D01*
X331151Y252296D01*
X333530Y250344D01*
X336243Y248894D01*
X339188Y248001D01*
X342250Y247699D01*
X345312Y248001D01*
X348256Y248894D01*
X348359Y248949D01*
X348546Y249006D01*
X351239Y250445D01*
X353599Y252382D01*
X355536Y254742D01*
X356975Y257435D01*
X357861Y260357D01*
X358161Y263395D01*
Y270750D01*
X359000D01*
Y296750D01*
X344279D01*
X342750Y296952D01*
D02*
G37*
G36*
X227500Y297000D02*
X195500D01*
Y271000D01*
X210177D01*
X212250Y270727D01*
X221761D01*
Y265491D01*
X221554Y263395D01*
X221856Y260333D01*
X222749Y257388D01*
X224199Y254675D01*
X226151Y252296D01*
X228530Y250344D01*
X231243Y248894D01*
X234188Y248001D01*
X237250Y247699D01*
X240312Y248001D01*
X243256Y248894D01*
X245970Y250344D01*
X248348Y252296D01*
X250300Y254675D01*
X251751Y257388D01*
X252644Y260333D01*
X252945Y263395D01*
X252911Y263747D01*
Y270750D01*
X253250D01*
Y296750D01*
X239029D01*
X237500Y296952D01*
X227500D01*
Y297000D01*
D02*
G37*
G36*
X147371Y242500D02*
X142871D01*
Y235000D01*
X147371D01*
Y242500D01*
D02*
G37*
G36*
X137871D02*
X133371D01*
Y235000D01*
X137871D01*
Y242500D01*
D02*
G37*
G36*
X1103000Y242582D02*
X1100520Y242255D01*
X1098209Y241298D01*
X1096225Y239776D01*
X1094702Y237791D01*
X1093745Y235480D01*
X1093418Y233000D01*
X1093745Y230520D01*
X1094702Y228209D01*
X1096225Y226225D01*
X1098209Y224702D01*
X1100520Y223745D01*
X1103000Y223418D01*
X1105480Y223745D01*
X1107791Y224702D01*
X1109775Y226225D01*
X1111298Y228209D01*
X1112255Y230520D01*
X1112582Y233000D01*
X1112255Y235480D01*
X1111298Y237791D01*
X1109775Y239776D01*
X1107791Y241298D01*
X1105480Y242255D01*
X1103000Y242582D01*
D02*
G37*
G36*
X147371Y230000D02*
X142871D01*
Y222500D01*
X147371D01*
Y230000D01*
D02*
G37*
G36*
X137871D02*
X133371D01*
Y222500D01*
X137871D01*
Y230000D01*
D02*
G37*
G36*
X743000Y251590D02*
X739373Y251232D01*
X735886Y250175D01*
X732672Y248457D01*
X729855Y246145D01*
X727543Y243328D01*
X725826Y240114D01*
X724768Y236627D01*
X724410Y233000D01*
X724768Y229373D01*
X725826Y225886D01*
X727543Y222672D01*
X729855Y219855D01*
X732672Y217543D01*
X735886Y215826D01*
X739373Y214768D01*
X743000Y214410D01*
X746627Y214768D01*
X748813Y215431D01*
X780500D01*
X782588Y215706D01*
X784535Y216512D01*
X785822Y217500D01*
X788250D01*
Y221305D01*
X788294Y221412D01*
X788569Y223500D01*
Y242500D01*
X788294Y244588D01*
X788250Y244695D01*
Y249500D01*
X784505D01*
X782588Y250294D01*
X780500Y250569D01*
X748813D01*
X746627Y251232D01*
X743000Y251590D01*
D02*
G37*
G36*
X147371Y215500D02*
X142871D01*
Y208000D01*
X147371D01*
Y215500D01*
D02*
G37*
G36*
X137871D02*
X133371D01*
Y208000D01*
X137871D01*
Y215500D01*
D02*
G37*
G36*
X746500Y189837D02*
X742971Y189490D01*
X739578Y188460D01*
X736451Y186789D01*
X733710Y184540D01*
X731461Y181799D01*
X729790Y178672D01*
X728760Y175279D01*
X728413Y171750D01*
X728760Y168221D01*
X729790Y164828D01*
X731461Y161701D01*
X733710Y158961D01*
X736451Y156711D01*
X739578Y155040D01*
X742971Y154010D01*
X746500Y153663D01*
X750029Y154010D01*
X753422Y155040D01*
X756549Y156711D01*
X756632Y156779D01*
X764793Y157285D01*
X766250Y155915D01*
Y153250D01*
X774500D01*
X782750D01*
Y157638D01*
X788000D01*
Y153250D01*
X796250D01*
X804500D01*
Y157750D01*
X806500Y157750D01*
X810500D01*
Y183750D01*
X797102D01*
X796250Y183862D01*
X773588D01*
X765900Y184016D01*
X761345Y184345D01*
X759819Y184538D01*
X759140Y184662D01*
X756549Y186789D01*
X753422Y188460D01*
X750029Y189490D01*
X746500Y189837D01*
D02*
G37*
G36*
X804500Y148250D02*
X798750D01*
Y143750D01*
X804500D01*
Y148250D01*
D02*
G37*
G36*
X793750D02*
X788000D01*
Y143750D01*
X793750D01*
Y148250D01*
D02*
G37*
G36*
X782750D02*
X777000D01*
Y143750D01*
X782750D01*
Y148250D01*
D02*
G37*
G36*
X772000D02*
X766250D01*
Y143750D01*
X772000D01*
Y148250D01*
D02*
G37*
G36*
X147371Y145500D02*
X142871D01*
Y138000D01*
X147371D01*
Y145500D01*
D02*
G37*
G36*
X137871D02*
X133371D01*
Y138000D01*
X137871D01*
Y145500D01*
D02*
G37*
G36*
X667500Y137250D02*
X663000D01*
Y131500D01*
X667500D01*
Y137250D01*
D02*
G37*
G36*
X658000D02*
X653500D01*
Y131500D01*
X658000D01*
Y137250D01*
D02*
G37*
G36*
X562500D02*
X558000D01*
Y131500D01*
X562500D01*
Y137250D01*
D02*
G37*
G36*
X246750Y137250D02*
X242250D01*
Y131500D01*
X246750D01*
Y137250D01*
D02*
G37*
G36*
X553000Y137250D02*
X548500D01*
Y131500D01*
X553000D01*
Y137250D01*
D02*
G37*
G36*
X237250Y137250D02*
X232750D01*
Y131500D01*
X237250D01*
Y137250D01*
D02*
G37*
G36*
X352500Y137250D02*
X348000D01*
Y131500D01*
X352500D01*
Y137250D01*
D02*
G37*
G36*
X460000Y137250D02*
X455500D01*
Y131500D01*
X460000D01*
Y137250D01*
D02*
G37*
G36*
X450500D02*
X446000D01*
Y131500D01*
X450500D01*
Y137250D01*
D02*
G37*
G36*
X343000Y137250D02*
X338500D01*
Y131500D01*
X343000D01*
Y137250D01*
D02*
G37*
G36*
X147371Y133000D02*
X142871D01*
Y125500D01*
X147371D01*
Y133000D01*
D02*
G37*
G36*
X137871D02*
X133371D01*
Y125500D01*
X137871D01*
Y133000D01*
D02*
G37*
G36*
X460000Y126500D02*
X455500D01*
Y120750D01*
X460000D01*
Y126500D01*
D02*
G37*
G36*
X450500D02*
X446000D01*
Y120750D01*
X450500D01*
Y126500D01*
D02*
G37*
G36*
X246750Y126500D02*
X242250D01*
Y120750D01*
X246750D01*
Y126500D01*
D02*
G37*
G36*
X237250D02*
X232750D01*
Y120750D01*
X237250D01*
Y126500D01*
D02*
G37*
G36*
X667500Y126500D02*
X663000D01*
Y120750D01*
X667500D01*
Y126500D01*
D02*
G37*
G36*
X658000D02*
X653500D01*
Y120750D01*
X658000D01*
Y126500D01*
D02*
G37*
G36*
X562500Y126500D02*
X558000D01*
Y120750D01*
X562500D01*
Y126500D01*
D02*
G37*
G36*
X553000D02*
X548500D01*
Y120750D01*
X553000D01*
Y126500D01*
D02*
G37*
G36*
X352500Y126500D02*
X348000D01*
Y120750D01*
X352500D01*
Y126500D01*
D02*
G37*
G36*
X343000D02*
X338500D01*
Y120750D01*
X343000D01*
Y126500D01*
D02*
G37*
G36*
X147371Y117250D02*
X142871D01*
Y109750D01*
X147371D01*
Y117250D01*
D02*
G37*
G36*
X137871D02*
X133371D01*
Y109750D01*
X137871D01*
Y117250D01*
D02*
G37*
G36*
X147371Y104750D02*
X142871D01*
Y97250D01*
X147371D01*
Y104750D01*
D02*
G37*
G36*
X137871D02*
X133371D01*
Y97250D01*
X137871D01*
Y104750D01*
D02*
G37*
G36*
X256500Y112250D02*
X238500D01*
Y91750D01*
X238500Y91750D01*
X238500D01*
X238526Y91470D01*
X238029Y89583D01*
X237524Y89331D01*
X235218Y89152D01*
X233750Y90510D01*
Y92500D01*
X215750D01*
Y72000D01*
X233750D01*
Y75077D01*
X235218Y76435D01*
X236427Y76341D01*
X237625Y76175D01*
X238622Y75982D01*
X239361Y75783D01*
X239812Y75615D01*
X239941Y75546D01*
X240166Y75367D01*
X240676Y75102D01*
X241154Y74782D01*
X241377Y74738D01*
X241578Y74633D01*
X242151Y74584D01*
X242715Y74472D01*
X242937Y74516D01*
X243163Y74496D01*
X243712Y74670D01*
X244276Y74782D01*
X244464Y74908D01*
X244680Y74976D01*
X244740Y75027D01*
X244911Y74956D01*
X247000Y74681D01*
X249088Y74956D01*
X251034Y75762D01*
X252706Y77044D01*
X253988Y78716D01*
X254794Y80662D01*
X255069Y82750D01*
X254794Y84838D01*
X254723Y85010D01*
X254774Y85070D01*
X254842Y85286D01*
X254968Y85474D01*
X255080Y86038D01*
X255254Y86587D01*
X255234Y86813D01*
X255278Y87035D01*
X255166Y87599D01*
X255117Y88172D01*
X255012Y88373D01*
X254968Y88596D01*
X254648Y89074D01*
X254383Y89584D01*
X254251Y89750D01*
X254293Y90082D01*
X254380Y90345D01*
X254835Y91104D01*
X255620Y91750D01*
X256500D01*
Y112250D01*
D02*
G37*
G36*
X296750Y90000D02*
X291000D01*
Y85500D01*
X296750D01*
Y90000D01*
D02*
G37*
G36*
X286000D02*
X280250D01*
Y85500D01*
X286000D01*
Y90000D01*
D02*
G37*
G36*
X211750Y90500D02*
X207250D01*
Y84750D01*
X211750D01*
Y90500D01*
D02*
G37*
G36*
X202250D02*
X197750D01*
Y84750D01*
X202250D01*
Y90500D01*
D02*
G37*
G36*
X149000Y89874D02*
Y83000D01*
X155874D01*
X155872Y83011D01*
X154903Y85351D01*
X153361Y87361D01*
X151351Y88903D01*
X149011Y89872D01*
X149000Y89874D01*
D02*
G37*
G36*
X24000D02*
Y83000D01*
X30874D01*
X30872Y83011D01*
X29903Y85351D01*
X28361Y87361D01*
X26351Y88903D01*
X24011Y89872D01*
X24000Y89874D01*
D02*
G37*
G36*
X144000D02*
X143989Y89872D01*
X141649Y88903D01*
X139639Y87361D01*
X138097Y85351D01*
X137128Y83011D01*
X137126Y83000D01*
X144000D01*
Y89874D01*
D02*
G37*
G36*
X19000D02*
X18989Y89872D01*
X16648Y88903D01*
X14639Y87361D01*
X13097Y85351D01*
X12128Y83011D01*
X12126Y83000D01*
X19000D01*
Y89874D01*
D02*
G37*
G36*
X797000Y88250D02*
X792500D01*
Y82500D01*
X797000D01*
Y88250D01*
D02*
G37*
G36*
X884500Y88250D02*
Y82500D01*
X889000D01*
Y88250D01*
X884500D01*
D02*
G37*
G36*
X296750Y80500D02*
X291000D01*
Y76000D01*
X296750D01*
Y80500D01*
D02*
G37*
G36*
X286000D02*
X280250D01*
Y76000D01*
X286000D01*
Y80500D01*
D02*
G37*
G36*
X179250Y90750D02*
X171250D01*
X167250Y86750D01*
Y78750D01*
X171250Y74750D01*
X179250D01*
X183250Y78750D01*
Y86750D01*
X179250Y90750D01*
D02*
G37*
G36*
X211750Y79750D02*
X207250D01*
Y74000D01*
X211750D01*
Y79750D01*
D02*
G37*
G36*
X202250D02*
X197750D01*
Y74000D01*
X202250D01*
Y79750D01*
D02*
G37*
G36*
X726950Y81859D02*
Y73900D01*
X736211D01*
X736180Y74141D01*
X735122Y76695D01*
X733439Y78889D01*
X731245Y80572D01*
X728691Y81630D01*
X726950Y81859D01*
D02*
G37*
G36*
X274500Y112250D02*
X258500D01*
Y91750D01*
X276500D01*
Y93397D01*
X278250Y94000D01*
Y94000D01*
X298750D01*
Y96882D01*
X307406D01*
X317965Y86324D01*
X318207Y86047D01*
X318480Y85699D01*
X318462Y85374D01*
X318363Y84873D01*
X318420Y84586D01*
X318404Y84295D01*
X318573Y83813D01*
X318673Y83312D01*
X318835Y83069D01*
X318932Y82794D01*
X319273Y82414D01*
X319557Y81989D01*
X319800Y81827D01*
X319995Y81609D01*
X320380Y81425D01*
Y78310D01*
X325130Y73560D01*
X334630D01*
X339380Y78310D01*
Y87810D01*
X334630Y92560D01*
X331515D01*
X331331Y92945D01*
X331113Y93140D01*
X330951Y93383D01*
X330526Y93667D01*
X330146Y94008D01*
X329871Y94105D01*
X329628Y94267D01*
X329127Y94367D01*
X328645Y94536D01*
X328354Y94520D01*
X328067Y94577D01*
X327566Y94478D01*
X327255Y94461D01*
X326515Y95076D01*
X314266Y107326D01*
X312281Y108652D01*
X309940Y109118D01*
X298750D01*
Y112000D01*
X278396D01*
X276502Y112250D01*
X274500Y112250D01*
D02*
G37*
G36*
X889000Y77500D02*
X884500D01*
Y71750D01*
X889000D01*
Y77500D01*
D02*
G37*
G36*
X797000Y77500D02*
X792500D01*
Y71750D01*
X797000D01*
Y77500D01*
D02*
G37*
G36*
X155874Y78000D02*
X149000D01*
Y71126D01*
X149011Y71128D01*
X151351Y72097D01*
X153361Y73639D01*
X154903Y75648D01*
X155872Y77989D01*
X155874Y78000D01*
D02*
G37*
G36*
X30874D02*
X24000D01*
Y71126D01*
X24011Y71128D01*
X26351Y72097D01*
X28361Y73639D01*
X29903Y75648D01*
X30872Y77989D01*
X30874Y78000D01*
D02*
G37*
G36*
X144000D02*
X137126D01*
X137128Y77989D01*
X138097Y75648D01*
X139639Y73639D01*
X141649Y72097D01*
X143989Y71128D01*
X144000Y71126D01*
Y78000D01*
D02*
G37*
G36*
X19000D02*
X12126D01*
X12128Y77989D01*
X13097Y75648D01*
X14639Y73639D01*
X16648Y72097D01*
X18989Y71128D01*
X19000Y71126D01*
Y78000D01*
D02*
G37*
G36*
X332380Y67307D02*
Y60560D01*
X339127D01*
X338178Y62851D01*
X336656Y64835D01*
X334671Y66358D01*
X332380Y67307D01*
D02*
G37*
G36*
X327380Y67307D02*
X325089Y66358D01*
X323105Y64835D01*
X321582Y62851D01*
X320633Y60560D01*
X327380D01*
Y67307D01*
D02*
G37*
G36*
X797500Y64250D02*
X794000D01*
Y54750D01*
X803500D01*
Y58250D01*
X797500Y64250D01*
D02*
G37*
G36*
X789000D02*
X785500D01*
X779500Y58250D01*
Y54750D01*
X789000D01*
Y64250D01*
D02*
G37*
G36*
X339127Y55560D02*
X332380D01*
Y48813D01*
X334671Y49762D01*
X336656Y51284D01*
X338178Y53269D01*
X339127Y55560D01*
D02*
G37*
G36*
X327380D02*
X320633D01*
X321582Y53269D01*
X323105Y51284D01*
X325089Y49762D01*
X327380Y48813D01*
Y55560D01*
D02*
G37*
G36*
X211750Y49250D02*
X207250D01*
Y43500D01*
X211750D01*
Y49250D01*
D02*
G37*
G36*
X202250D02*
X197750D01*
Y43500D01*
X202250D01*
Y49250D01*
D02*
G37*
G36*
X296750Y47250D02*
X291000D01*
Y42750D01*
X296750D01*
Y47250D01*
D02*
G37*
G36*
X286000D02*
X280250D01*
Y42750D01*
X286000D01*
Y47250D01*
D02*
G37*
G36*
X803500Y49750D02*
X794000D01*
Y40250D01*
X797500D01*
X803500Y46250D01*
Y49750D01*
D02*
G37*
G36*
X789000D02*
X779500D01*
Y46250D01*
X785500Y40250D01*
X789000D01*
Y49750D01*
D02*
G37*
G36*
X826250Y130337D02*
X824486Y130163D01*
X822721Y129989D01*
X819328Y128960D01*
X816201Y127289D01*
X813460Y125039D01*
X811211Y122298D01*
X809540Y119171D01*
X808510Y115778D01*
X808337Y114014D01*
X808163Y112250D01*
X808337Y110485D01*
X808510Y108721D01*
X809540Y105328D01*
X811211Y102201D01*
X813460Y99460D01*
X816823Y96098D01*
X816058Y94250D01*
X806500D01*
Y90250D01*
X806500Y88250D01*
X804500Y88250D01*
X802000D01*
Y80000D01*
X799500D01*
D01*
X802000D01*
Y71750D01*
X806500Y71750D01*
X806500Y69750D01*
Y65750D01*
X823413D01*
Y52250D01*
X823760Y48721D01*
X824790Y45328D01*
X826461Y42201D01*
X828710Y39460D01*
X831451Y37211D01*
X834578Y35540D01*
X837971Y34510D01*
X841500Y34163D01*
X845029Y34510D01*
X848422Y35540D01*
X851549Y37211D01*
X854289Y39460D01*
X856539Y42201D01*
X858210Y45328D01*
X859240Y48721D01*
X859587Y52250D01*
Y65750D01*
X875000D01*
Y69750D01*
X875000Y71750D01*
X877000Y71750D01*
X879500D01*
Y80000D01*
Y88250D01*
X875000Y88250D01*
X875000Y90250D01*
Y94250D01*
X859587D01*
Y97000D01*
X859240Y100528D01*
X858210Y103921D01*
X856539Y107049D01*
X854289Y109789D01*
X839040Y125039D01*
X836299Y127289D01*
X833172Y128960D01*
X829779Y129989D01*
X828014Y130163D01*
X826250Y130337D01*
D02*
G37*
G36*
X296750Y37750D02*
X291000D01*
Y33250D01*
X296750D01*
Y37750D01*
D02*
G37*
G36*
X286000D02*
X280250D01*
Y33250D01*
X286000D01*
Y37750D01*
D02*
G37*
G36*
X211750Y38500D02*
X207250D01*
Y32750D01*
X211750D01*
Y38500D01*
D02*
G37*
G36*
X202250D02*
X197750D01*
Y32750D01*
X202250D01*
Y38500D01*
D02*
G37*
G36*
X329880Y42642D02*
X327400Y42315D01*
X325089Y41358D01*
X323105Y39835D01*
X321582Y37851D01*
X320625Y35540D01*
X320482Y34458D01*
X320332Y34345D01*
X319762Y33964D01*
X319699Y33870D01*
X319609Y33802D01*
X319259Y33212D01*
X318878Y32641D01*
X318856Y32530D01*
X318798Y32433D01*
X318701Y31754D01*
X318617Y31330D01*
X318610Y31314D01*
X318347Y30870D01*
X317943Y30292D01*
X314509Y26367D01*
X298750D01*
Y29250D01*
X278250D01*
Y29250D01*
X276500Y29853D01*
Y31500D01*
X258500D01*
Y11000D01*
X276353D01*
X276500Y11000D01*
Y11000D01*
X278250Y11250D01*
Y11250D01*
X298750D01*
Y14132D01*
X317070D01*
X319411Y14598D01*
X321396Y15924D01*
X322930Y17458D01*
X324025Y18515D01*
X326197Y20416D01*
X327019Y21058D01*
X327690Y21527D01*
X328134Y21790D01*
X328151Y21797D01*
X328574Y21881D01*
X329253Y21978D01*
X329350Y22036D01*
X329461Y22058D01*
X330032Y22439D01*
X330622Y22789D01*
X330690Y22879D01*
X330784Y22942D01*
X331165Y23512D01*
X331278Y23662D01*
X332360Y23805D01*
X334671Y24762D01*
X336656Y26284D01*
X338178Y28269D01*
X339136Y30580D01*
X339462Y33060D01*
X339136Y35540D01*
X338178Y37851D01*
X336656Y39835D01*
X334671Y41358D01*
X332360Y42315D01*
X329880Y42642D01*
D02*
G37*
G36*
X233750Y51250D02*
X215750D01*
Y30750D01*
X233750D01*
Y32988D01*
X235750Y34796D01*
X237345Y34724D01*
X238700Y34591D01*
X239355Y33372D01*
X238500Y31500D01*
X238500D01*
Y11000D01*
X256500D01*
Y31500D01*
X255403D01*
X254461Y32208D01*
X253696Y33500D01*
X253768Y33872D01*
X253967Y34611D01*
X254135Y35062D01*
X254203Y35191D01*
X254383Y35416D01*
X254648Y35926D01*
X254968Y36404D01*
X255012Y36627D01*
X255117Y36828D01*
X255166Y37401D01*
X255278Y37965D01*
X255234Y38187D01*
X255254Y38413D01*
X255080Y38962D01*
X254968Y39526D01*
X254842Y39714D01*
X254774Y39931D01*
X254723Y39990D01*
X254794Y40162D01*
X255069Y42250D01*
X254794Y44338D01*
X253988Y46284D01*
X252706Y47956D01*
X251035Y49238D01*
X249088Y50044D01*
X247000Y50319D01*
X244911Y50044D01*
X243197Y49334D01*
X243079Y49349D01*
X242928Y49420D01*
X242295Y49452D01*
X241666Y49535D01*
X241505Y49492D01*
X241339Y49500D01*
X240742Y49287D01*
X240129Y49122D01*
X239997Y49021D01*
X239840Y48965D01*
X239370Y48539D01*
X238867Y48153D01*
X238822Y48102D01*
X238632Y48014D01*
X238042Y47824D01*
X237155Y47622D01*
X236079Y47450D01*
X235212Y47390D01*
X233750Y48755D01*
Y51250D01*
D02*
G37*
%LPD*%
G36*
X547765Y359690D02*
X547577Y359725D01*
X547088Y359757D01*
X535238Y359873D01*
X532342Y359875D01*
X531871Y369875D01*
X547458Y370283D01*
X547765Y359690D01*
D02*
G37*
G36*
X652015D02*
X651827Y359725D01*
X651338Y359757D01*
X639488Y359873D01*
X636592Y359875D01*
X636121Y369875D01*
X651708Y370283D01*
X652015Y359690D01*
D02*
G37*
G36*
X442098D02*
X441909Y359725D01*
X441420Y359757D01*
X429571Y359873D01*
X426674Y359875D01*
X426204Y369875D01*
X441791Y370283D01*
X442098Y359690D01*
D02*
G37*
G36*
X336930Y359690D02*
X336741Y359725D01*
X336252Y359756D01*
X324402Y359873D01*
X321506Y359875D01*
X321036Y369875D01*
X336623Y370283D01*
X336930Y359690D01*
D02*
G37*
G36*
X232179Y359690D02*
X231991Y359725D01*
X231502Y359757D01*
X219652Y359873D01*
X216756Y359875D01*
X216286Y369875D01*
X231873Y370283D01*
X232179Y359690D01*
D02*
G37*
G36*
X29209Y256939D02*
X29495Y255851D01*
X29979Y254659D01*
X30660Y253365D01*
X31539Y251968D01*
X32615Y250468D01*
X35358Y247159D01*
X37025Y245350D01*
X38890Y243439D01*
X36061Y240610D01*
X34149Y242475D01*
X29032Y246886D01*
X27532Y247961D01*
X26135Y248840D01*
X24841Y249521D01*
X23649Y250005D01*
X22561Y250291D01*
X21576Y250380D01*
X29120Y257924D01*
X29209Y256939D01*
D02*
G37*
G36*
X116232Y252175D02*
X116026Y251432D01*
X115844Y250333D01*
X115687Y248877D01*
X115359Y242376D01*
X115250Y232672D01*
X105250D01*
X105238Y236263D01*
X104268Y252175D01*
X104038Y252563D01*
X116462D01*
X116232Y252175D01*
D02*
G37*
G36*
X115267Y104013D02*
X116306Y88614D01*
X116587Y87778D01*
X116900Y87284D01*
X103600D01*
X103913Y87778D01*
X104194Y88614D01*
X104441Y89790D01*
X104656Y91308D01*
X104986Y95366D01*
X105233Y104013D01*
X105250Y107578D01*
X115250D01*
X115267Y104013D01*
D02*
G37*
G36*
X119857Y79048D02*
X120205Y77582D01*
X120795Y76006D01*
X121625Y74321D01*
X122696Y72526D01*
X124008Y70622D01*
X125561Y68609D01*
X129390Y64254D01*
X131666Y61912D01*
X128838Y59084D01*
X126496Y61360D01*
X120128Y66742D01*
X118224Y68054D01*
X116429Y69125D01*
X114744Y69955D01*
X113168Y70545D01*
X111702Y70893D01*
X110345Y71000D01*
X119749Y80405D01*
X119857Y79048D01*
D02*
G37*
G36*
X169817Y38772D02*
X169816Y39148D01*
X169715Y39484D01*
X169513Y39781D01*
X169211Y40038D01*
X168807Y40255D01*
X168303Y40433D01*
X167698Y40572D01*
X166993Y40671D01*
X166187Y40730D01*
X165280Y40750D01*
Y44750D01*
X166288Y44770D01*
X168000Y44928D01*
X168704Y45067D01*
X169309Y45245D01*
X169812Y45462D01*
X170214Y45719D01*
X170516Y46016D01*
X170717Y46353D01*
X170817Y46728D01*
X169817Y38772D01*
D02*
G37*
G36*
X1108918Y262822D02*
X1109723Y262440D01*
X1110769Y262103D01*
X1112057Y261810D01*
X1113588Y261562D01*
X1117376Y261203D01*
X1122132Y261022D01*
X1124874Y261000D01*
Y255000D01*
X1122132Y254977D01*
X1113588Y254438D01*
X1112057Y254190D01*
X1110769Y253897D01*
X1109723Y253560D01*
X1108918Y253178D01*
X1108356Y252750D01*
Y263250D01*
X1108918Y262822D01*
D02*
G37*
G36*
X754844Y177573D02*
X755737Y177190D01*
X756985Y176853D01*
X758588Y176560D01*
X760547Y176313D01*
X765529Y175953D01*
X775665Y175750D01*
X774500Y165750D01*
X770729Y165737D01*
X753787Y164688D01*
X753322Y164439D01*
X754306Y178001D01*
X754844Y177573D01*
D02*
G37*
G36*
X249022Y98254D02*
X249550Y91456D01*
X249792Y90210D01*
X250078Y89144D01*
X250408Y88260D01*
X250782Y87557D01*
X251200Y87035D01*
X242800D01*
X243218Y87557D01*
X243592Y88260D01*
X243922Y89144D01*
X244208Y90210D01*
X244450Y91456D01*
X244648Y92884D01*
X244912Y96283D01*
X245000Y100407D01*
X249000D01*
X249022Y98254D01*
D02*
G37*
G36*
X242715Y78550D02*
X242193Y78968D01*
X241490Y79342D01*
X240606Y79672D01*
X239540Y79958D01*
X238294Y80200D01*
X236866Y80398D01*
X233467Y80662D01*
X229343Y80750D01*
Y84750D01*
X231496Y84772D01*
X238294Y85300D01*
X239540Y85542D01*
X240606Y85828D01*
X241490Y86158D01*
X242193Y86532D01*
X242715Y86950D01*
Y78550D01*
D02*
G37*
G36*
X323601Y92196D02*
X324930Y91090D01*
X325522Y90694D01*
X326067Y90401D01*
X326563Y90212D01*
X327011Y90128D01*
X327412Y90147D01*
X327763Y90271D01*
X328067Y90499D01*
X322441Y84873D01*
X322669Y85176D01*
X322792Y85528D01*
X322812Y85928D01*
X322728Y86377D01*
X322539Y86873D01*
X322246Y87417D01*
X321850Y88010D01*
X321349Y88651D01*
X320744Y89339D01*
X320035Y90076D01*
X322864Y92905D01*
X323601Y92196D01*
D02*
G37*
G36*
X327901Y25826D02*
X327464Y25850D01*
X326914Y25713D01*
X326253Y25416D01*
X325480Y24958D01*
X324594Y24339D01*
X323596Y23560D01*
X321265Y21519D01*
X318484Y18836D01*
X315656Y21664D01*
X317078Y23110D01*
X321159Y27774D01*
X321778Y28660D01*
X322236Y29433D01*
X322533Y30094D01*
X322670Y30643D01*
X322646Y31081D01*
X327901Y25826D01*
D02*
G37*
G36*
X243041Y37965D02*
X251200D01*
X250782Y37443D01*
X250408Y36740D01*
X250078Y35856D01*
X249792Y34790D01*
X249550Y33544D01*
X249352Y32116D01*
X249088Y28717D01*
X249000Y24593D01*
X245000D01*
X244978Y26746D01*
X244450Y33544D01*
X244208Y34790D01*
X243922Y35856D01*
X243592Y36740D01*
X243218Y37443D01*
X242935Y37797D01*
X242678Y37954D01*
X242075Y38174D01*
X241269Y38367D01*
X240261Y38535D01*
X237637Y38793D01*
X234202Y38948D01*
X229956Y39000D01*
X229047Y43000D01*
X231214Y43025D01*
X236544Y43394D01*
X237930Y43616D01*
X239121Y43887D01*
X240117Y44208D01*
X240918Y44578D01*
X241524Y44997D01*
X241934Y45465D01*
X243041Y37965D01*
D02*
G37*
%LPC*%
G36*
X1077250Y596750D02*
X1072750D01*
Y591000D01*
X1077250D01*
Y596750D01*
D02*
G37*
G36*
X1067750D02*
X1063250D01*
Y591000D01*
X1067750D01*
Y596750D01*
D02*
G37*
G36*
X1077250Y565750D02*
X1072750D01*
Y560000D01*
X1077250D01*
Y565750D01*
D02*
G37*
G36*
X1067750D02*
X1063250D01*
Y560000D01*
X1067750D01*
Y565750D01*
D02*
G37*
G36*
X1215000Y607000D02*
X1209250D01*
Y602500D01*
X1215000D01*
Y607000D01*
D02*
G37*
G36*
X1204250D02*
X1198500D01*
Y602500D01*
X1204250D01*
Y607000D01*
D02*
G37*
G36*
X1192250Y607500D02*
X1187750D01*
Y601750D01*
X1192250D01*
Y607500D01*
D02*
G37*
G36*
X1182750D02*
X1178250D01*
Y601750D01*
X1182750D01*
Y607500D01*
D02*
G37*
G36*
X1215000Y597500D02*
X1209250D01*
Y593000D01*
X1215000D01*
Y597500D01*
D02*
G37*
G36*
X1204250D02*
X1198500D01*
Y593000D01*
X1204250D01*
Y597500D01*
D02*
G37*
G36*
X1192250Y596750D02*
X1187750D01*
Y591000D01*
X1192250D01*
Y596750D01*
D02*
G37*
G36*
X1182750D02*
X1178250D01*
Y591000D01*
X1182750D01*
Y596750D01*
D02*
G37*
G36*
X1192500Y565750D02*
X1188000D01*
Y560000D01*
X1192500D01*
Y565750D01*
D02*
G37*
G36*
X1183000D02*
X1178500D01*
Y560000D01*
X1183000D01*
Y565750D01*
D02*
G37*
G36*
X1192500Y555000D02*
X1188000D01*
Y549250D01*
X1192500D01*
Y555000D01*
D02*
G37*
G36*
X1183000D02*
X1178500D01*
Y549250D01*
X1183000D01*
Y555000D01*
D02*
G37*
G36*
X1192250Y544000D02*
X1187750D01*
Y538250D01*
X1192250D01*
Y544000D01*
D02*
G37*
G36*
X1182750D02*
X1178250D01*
Y538250D01*
X1182750D01*
Y544000D01*
D02*
G37*
G36*
X1217000Y589000D02*
X1196500D01*
Y571000D01*
X1197749D01*
X1198762Y569035D01*
X1197956Y567088D01*
X1197681Y565000D01*
X1197956Y562912D01*
X1198762Y560965D01*
X1200044Y559294D01*
X1201715Y558012D01*
X1203662Y557206D01*
X1205750Y556931D01*
X1207838Y557206D01*
X1209784Y558012D01*
X1210515Y558573D01*
X1215362Y558882D01*
X1302966D01*
X1322228Y539621D01*
X1321095Y537925D01*
X1318435Y539027D01*
X1317150Y539196D01*
Y527400D01*
X1328946D01*
X1328777Y528685D01*
X1327675Y531345D01*
X1329371Y532478D01*
X1336133Y525716D01*
Y190534D01*
X1320216Y174618D01*
X1279875D01*
X1276854Y174678D01*
X1275369Y174789D01*
X1275069Y174828D01*
X1274535Y175238D01*
X1272588Y176044D01*
X1270500Y176319D01*
X1268412Y176044D01*
X1266466Y175238D01*
X1264794Y173956D01*
X1263512Y172285D01*
X1262706Y170338D01*
X1262431Y168250D01*
X1262706Y166162D01*
X1263512Y164216D01*
X1264794Y162544D01*
X1266466Y161262D01*
X1268412Y160456D01*
X1270500Y160181D01*
X1272588Y160456D01*
X1274535Y161262D01*
X1275566Y162054D01*
X1280304Y162383D01*
X1322750D01*
X1325091Y162848D01*
X1327076Y164174D01*
X1346576Y183674D01*
X1347902Y185659D01*
X1348367Y188000D01*
Y528250D01*
X1347902Y530591D01*
X1346576Y532576D01*
X1309826Y569326D01*
X1307841Y570652D01*
X1305500Y571118D01*
X1217000D01*
Y589000D01*
D02*
G37*
G36*
X1192250Y533250D02*
X1187750D01*
Y527500D01*
X1192250D01*
Y533250D01*
D02*
G37*
G36*
X1182750D02*
X1178250D01*
Y527500D01*
X1182750D01*
Y533250D01*
D02*
G37*
G36*
X1312150Y539196D02*
X1310865Y539027D01*
X1307337Y537566D01*
X1304308Y535242D01*
X1301984Y532213D01*
X1300523Y528685D01*
X1300354Y527400D01*
X1312150D01*
Y539196D01*
D02*
G37*
G36*
X1266350D02*
Y527400D01*
X1278146D01*
X1277977Y528685D01*
X1276516Y532213D01*
X1274192Y535242D01*
X1271162Y537566D01*
X1267635Y539027D01*
X1266350Y539196D01*
D02*
G37*
G36*
X1261350D02*
X1260065Y539027D01*
X1256537Y537566D01*
X1253509Y535242D01*
X1251184Y532213D01*
X1249723Y528685D01*
X1249554Y527400D01*
X1261350D01*
Y539196D01*
D02*
G37*
G36*
X1328946Y522400D02*
X1317150D01*
Y510604D01*
X1318435Y510773D01*
X1321962Y512234D01*
X1324991Y514558D01*
X1327316Y517588D01*
X1328777Y521115D01*
X1328946Y522400D01*
D02*
G37*
G36*
X1312150D02*
X1300354D01*
X1300523Y521115D01*
X1301984Y517588D01*
X1304308Y514558D01*
X1307337Y512234D01*
X1310865Y510773D01*
X1312150Y510604D01*
Y522400D01*
D02*
G37*
G36*
X1278146D02*
X1266350D01*
Y510604D01*
X1267635Y510773D01*
X1271162Y512234D01*
X1274192Y514558D01*
X1276516Y517588D01*
X1277977Y521115D01*
X1278146Y522400D01*
D02*
G37*
G36*
X1261350D02*
X1249554D01*
X1249723Y521115D01*
X1251184Y517588D01*
X1253509Y514558D01*
X1256537Y512234D01*
X1260065Y510773D01*
X1261350Y510604D01*
Y522400D01*
D02*
G37*
G36*
X1289250Y516582D02*
X1285917Y516254D01*
X1282713Y515282D01*
X1279760Y513703D01*
X1277171Y511579D01*
X1275047Y508990D01*
X1273468Y506037D01*
X1272496Y502833D01*
X1272168Y499500D01*
X1272496Y496167D01*
X1273468Y492963D01*
X1275047Y490010D01*
X1277171Y487421D01*
X1279760Y485297D01*
X1282713Y483718D01*
X1285917Y482746D01*
X1289250Y482418D01*
X1292583Y482746D01*
X1295787Y483718D01*
X1298740Y485297D01*
X1301329Y487421D01*
X1303453Y490010D01*
X1305032Y492963D01*
X1306004Y496167D01*
X1306332Y499500D01*
X1306004Y502833D01*
X1305032Y506037D01*
X1303453Y508990D01*
X1301329Y511579D01*
X1298740Y513703D01*
X1295787Y515282D01*
X1292583Y516254D01*
X1289250Y516582D01*
D02*
G37*
G36*
X1317150Y488396D02*
Y476600D01*
X1328946D01*
X1328777Y477885D01*
X1327316Y481413D01*
X1324991Y484441D01*
X1321962Y486766D01*
X1318435Y488227D01*
X1317150Y488396D01*
D02*
G37*
G36*
X1312150D02*
X1310865Y488227D01*
X1307337Y486766D01*
X1304308Y484441D01*
X1301984Y481413D01*
X1300523Y477885D01*
X1300354Y476600D01*
X1312150D01*
Y488396D01*
D02*
G37*
G36*
X1266350D02*
Y476600D01*
X1278146D01*
X1277977Y477885D01*
X1276516Y481413D01*
X1274192Y484441D01*
X1271162Y486766D01*
X1267635Y488227D01*
X1266350Y488396D01*
D02*
G37*
G36*
X1261350D02*
X1260065Y488227D01*
X1256537Y486766D01*
X1253509Y484441D01*
X1251184Y481413D01*
X1249723Y477885D01*
X1249554Y476600D01*
X1261350D01*
Y488396D01*
D02*
G37*
G36*
X1328946Y471600D02*
X1317150D01*
Y459804D01*
X1318435Y459973D01*
X1321962Y461434D01*
X1324991Y463759D01*
X1327316Y466787D01*
X1328777Y470315D01*
X1328946Y471600D01*
D02*
G37*
G36*
X1312150D02*
X1300354D01*
X1300523Y470315D01*
X1301984Y466787D01*
X1304308Y463759D01*
X1307337Y461434D01*
X1310865Y459973D01*
X1312150Y459804D01*
Y471600D01*
D02*
G37*
G36*
X1278146D02*
X1266350D01*
Y459804D01*
X1267635Y459973D01*
X1271162Y461434D01*
X1274192Y463759D01*
X1276516Y466787D01*
X1277977Y470315D01*
X1278146Y471600D01*
D02*
G37*
G36*
X1261350D02*
X1249554D01*
X1249723Y470315D01*
X1251184Y466787D01*
X1253509Y463759D01*
X1256537Y461434D01*
X1260065Y459973D01*
X1261350Y459804D01*
Y471600D01*
D02*
G37*
G36*
X1278861Y306908D02*
X1276772Y306633D01*
X1274826Y305827D01*
X1273155Y304545D01*
X1271873Y302874D01*
X1271067Y300928D01*
X1270792Y298839D01*
X1271067Y296751D01*
X1271873Y294805D01*
X1273155Y293134D01*
X1273365Y292973D01*
Y290452D01*
X1273044Y290206D01*
X1271762Y288535D01*
X1270956Y286588D01*
X1270681Y284500D01*
X1270956Y282412D01*
X1271762Y280466D01*
X1273044Y278794D01*
X1274715Y277512D01*
X1276662Y276706D01*
X1278750Y276431D01*
X1280838Y276706D01*
X1282784Y277512D01*
X1284456Y278794D01*
X1285738Y280466D01*
X1286544Y282412D01*
X1286819Y284500D01*
X1286544Y286588D01*
X1285738Y288535D01*
X1284456Y290206D01*
X1284246Y290367D01*
Y292888D01*
X1284566Y293134D01*
X1285849Y294805D01*
X1286655Y296751D01*
X1286930Y298839D01*
X1286655Y300928D01*
X1285849Y302874D01*
X1284566Y304545D01*
X1282895Y305827D01*
X1280949Y306633D01*
X1278861Y306908D01*
D02*
G37*
G36*
X1313861Y276908D02*
X1311772Y276633D01*
X1309826Y275827D01*
X1308155Y274545D01*
X1306873Y272874D01*
X1306067Y270928D01*
X1305792Y268839D01*
X1306067Y266751D01*
X1306873Y264805D01*
X1308155Y263134D01*
X1308365Y262973D01*
Y260452D01*
X1308044Y260206D01*
X1306762Y258535D01*
X1306126Y257000D01*
X1313750D01*
X1321373D01*
X1320738Y258535D01*
X1319456Y260206D01*
X1319246Y260367D01*
Y262888D01*
X1319566Y263134D01*
X1320849Y264805D01*
X1321655Y266751D01*
X1321930Y268839D01*
X1321655Y270928D01*
X1320849Y272874D01*
X1319566Y274545D01*
X1317895Y275827D01*
X1315949Y276633D01*
X1313861Y276908D01*
D02*
G37*
G36*
X1311250Y252000D02*
X1306126D01*
X1306762Y250466D01*
X1308044Y248794D01*
X1309716Y247512D01*
X1311250Y246876D01*
Y252000D01*
D02*
G37*
G36*
X1321374D02*
X1316250D01*
Y246876D01*
X1317784Y247512D01*
X1319456Y248794D01*
X1320738Y250466D01*
X1321374Y252000D01*
D02*
G37*
G36*
X1337750Y143750D02*
X1298250D01*
Y109250D01*
X1337750D01*
Y143750D01*
D02*
G37*
G36*
Y104250D02*
X1298250D01*
Y69750D01*
X1337750D01*
Y104250D01*
D02*
G37*
%LPD*%
G36*
X1207758Y574970D02*
X1208142Y568961D01*
X1208262Y568452D01*
X1208398Y568084D01*
X1208550Y567857D01*
X1202950D01*
X1203102Y568084D01*
X1203238Y568452D01*
X1203358Y568961D01*
X1203462Y569610D01*
X1203622Y571332D01*
X1203742Y574970D01*
X1203750Y576464D01*
X1207750D01*
X1207758Y574970D01*
D02*
G37*
G36*
X1208834Y567648D02*
X1209202Y567512D01*
X1209711Y567392D01*
X1210360Y567288D01*
X1212082Y567128D01*
X1215720Y567008D01*
X1217214Y567000D01*
Y563000D01*
X1215720Y562992D01*
X1209711Y562608D01*
X1209202Y562488D01*
X1208834Y562352D01*
X1208607Y562200D01*
Y567800D01*
X1208834Y567648D01*
D02*
G37*
G36*
X1273472Y171018D02*
X1273822Y170909D01*
X1274315Y170813D01*
X1274953Y170730D01*
X1276662Y170602D01*
X1281807Y170500D01*
X1282097Y166500D01*
X1280603Y166491D01*
X1274612Y166076D01*
X1274108Y165946D01*
X1273746Y165799D01*
X1273526Y165634D01*
X1273266Y171139D01*
X1273472Y171018D01*
D02*
G37*
D17*
X1148500Y93750D02*
X1157924D01*
X1140750D02*
X1148500D01*
X1135500Y88500D02*
X1140750Y93750D01*
X1135500Y34500D02*
Y88500D01*
X1110250Y9250D02*
X1135500Y34500D01*
X724750Y9250D02*
X1110250D01*
X618060D02*
X724750D01*
X724450Y9550D02*
X724750Y9250D01*
X724450Y9550D02*
Y46000D01*
X593500Y33810D02*
Y146250D01*
Y33810D02*
X618060Y9250D01*
X1165250Y599250D02*
X1165250Y599250D01*
D50*
X1115250Y599250D02*
D03*
X1135250D02*
D03*
X1165250Y599250D02*
D03*
X1185250D02*
D03*
X1185250Y535750D02*
D03*
X1165250D02*
D03*
X1185500Y557500D02*
D03*
X1165500D02*
D03*
X1115250Y557500D02*
D03*
X1135250D02*
D03*
X1004500Y557500D02*
D03*
X1024500D02*
D03*
X888750Y521000D02*
D03*
X868750D02*
D03*
X888750Y497750D02*
D03*
X868750D02*
D03*
X640500Y129000D02*
D03*
X660500D02*
D03*
X325500Y129000D02*
D03*
X345500D02*
D03*
X247500Y21250D02*
D03*
X267500D02*
D03*
X204750Y41000D02*
D03*
X224750D02*
D03*
X204750Y82250D02*
D03*
X224750D02*
D03*
X219750Y129000D02*
D03*
X239750D02*
D03*
X309750Y474250D02*
D03*
X329750D02*
D03*
X625000D02*
D03*
X645000D02*
D03*
X247500Y102000D02*
D03*
X267500D02*
D03*
X415000Y474250D02*
D03*
X435000D02*
D03*
X519500D02*
D03*
X539500D02*
D03*
X535500Y129000D02*
D03*
X555500D02*
D03*
X433000Y129000D02*
D03*
X453000D02*
D03*
X218250Y474250D02*
D03*
X238250D02*
D03*
X1000000Y601250D02*
D03*
X980000D02*
D03*
X1169407Y115555D02*
D03*
X1149407D02*
D03*
X862000Y80000D02*
D03*
X882000D02*
D03*
X819500Y80000D02*
D03*
X799500D02*
D03*
X1050250Y599250D02*
D03*
X1070250D02*
D03*
X1050250Y557500D02*
D03*
X1070250D02*
D03*
D52*
X774500Y170750D02*
D03*
Y150750D02*
D03*
X796250Y170750D02*
D03*
Y150750D02*
D03*
X288500Y40250D02*
D03*
Y20250D02*
D03*
Y83000D02*
D03*
Y103000D02*
D03*
X1221500Y297750D02*
D03*
Y317750D02*
D03*
X1206750Y600000D02*
D03*
Y580000D02*
D03*
D54*
X1181924Y84250D02*
D03*
X1157924Y93750D02*
D03*
Y74750D02*
D03*
D58*
X890500Y308000D02*
D03*
Y338000D02*
D03*
X237250Y283750D02*
D03*
Y313750D02*
D03*
X211500Y284000D02*
D03*
Y314000D02*
D03*
Y415750D02*
D03*
Y385750D02*
D03*
Y364875D02*
D03*
Y334875D02*
D03*
X237250Y385750D02*
D03*
Y415750D02*
D03*
X316750D02*
D03*
Y385750D02*
D03*
X343000Y283750D02*
D03*
Y313750D02*
D03*
X316750Y283839D02*
D03*
Y313839D02*
D03*
X316750Y364875D02*
D03*
Y334875D02*
D03*
X343000Y385750D02*
D03*
Y415750D02*
D03*
X421000D02*
D03*
Y385750D02*
D03*
Y283839D02*
D03*
Y313839D02*
D03*
X447250Y283750D02*
D03*
Y313750D02*
D03*
X421000Y364875D02*
D03*
Y334875D02*
D03*
X447250Y385750D02*
D03*
Y415750D02*
D03*
X527250D02*
D03*
Y385750D02*
D03*
Y283839D02*
D03*
Y313839D02*
D03*
X553250Y283750D02*
D03*
Y313750D02*
D03*
X527250Y364875D02*
D03*
Y334875D02*
D03*
X553250Y385750D02*
D03*
Y415750D02*
D03*
X632250Y283839D02*
D03*
Y313839D02*
D03*
X657500Y283839D02*
D03*
Y313839D02*
D03*
X632250Y364875D02*
D03*
Y334875D02*
D03*
X632250Y415750D02*
D03*
Y385750D02*
D03*
X657500D02*
D03*
Y415750D02*
D03*
D61*
X775250Y233500D02*
D03*
X805250D02*
D03*
X140371Y107250D02*
D03*
X110371D02*
D03*
X140371Y135500D02*
D03*
X110371D02*
D03*
X140371Y205500D02*
D03*
X110371D02*
D03*
X140371Y232500D02*
D03*
X110371D02*
D03*
D62*
X1169407Y115555D02*
Y125593D01*
X1119250Y37000D02*
Y120500D01*
X1164600Y130400D02*
X1169407Y125593D01*
X1129150Y130400D02*
X1164600D01*
X1119250Y120500D02*
X1129150Y130400D01*
X1169407Y77407D02*
Y115555D01*
X1166750Y74750D02*
X1169407Y77407D01*
X1157924Y74750D02*
X1166750D01*
X1149407Y94657D02*
Y115555D01*
X1148500Y93750D02*
X1149407Y94657D01*
X520250Y148500D02*
X605000D01*
X414500Y474250D02*
X414750Y474500D01*
X218000Y475000D02*
X218750Y474250D01*
X123250Y281250D02*
X144000Y260500D01*
X74250Y281250D02*
X123250D01*
X52750Y259750D02*
X74250Y281250D01*
X1269750Y168500D02*
X1322750D01*
X1342250Y188000D01*
Y528250D01*
X1305500Y565000D02*
X1342250Y528250D01*
X1205750Y565000D02*
X1305500D01*
X181500Y501000D02*
X205250D01*
X1135250Y599250D02*
X1165250D01*
X110250Y232500D02*
X110371D01*
X47000D02*
X110250D01*
X21500Y258000D02*
X47000Y232500D01*
X309940Y103000D02*
X329880Y83060D01*
X288500Y103000D02*
X309940D01*
X317070Y20250D02*
X329880Y33060D01*
X288500Y20250D02*
X317070D01*
X267500Y102000D02*
X268500Y103000D01*
X288500D01*
X267500Y21250D02*
X268500Y20250D01*
X288500D01*
X247000Y21750D02*
X247500Y21250D01*
X247000Y21750D02*
Y42250D01*
X224750Y41000D02*
X245750D01*
X247000Y42250D01*
X247000Y101500D02*
X247500Y102000D01*
X247000Y82750D02*
Y101500D01*
X224750Y82250D02*
X225250Y82750D01*
X247000D01*
X148000Y42750D02*
X177500D01*
X110250Y80500D02*
X148000Y42750D01*
X624500Y474750D02*
X625000Y474250D01*
X624500Y474750D02*
Y489250D01*
X519250D02*
X519500Y489000D01*
Y474250D02*
Y489000D01*
X414750Y489250D02*
Y501000D01*
Y474500D02*
Y489250D01*
X519250D01*
X310000D02*
X414750D01*
X217000D02*
X310000D01*
Y474500D02*
Y489250D01*
X309750Y474250D02*
X310000Y474500D01*
X640500Y129000D02*
X640500Y129000D01*
X624500Y129000D02*
X640500D01*
X535500D02*
X535500Y129000D01*
X519750Y129000D02*
X535500D01*
X414750D02*
X433000D01*
X325500D02*
X325500Y129000D01*
X310000Y129000D02*
X325500D01*
X205250D02*
Y141000D01*
X212750Y148500D01*
X309750D01*
X205250Y129000D02*
X219750D01*
X217000Y489250D02*
X218000Y488250D01*
Y475000D02*
Y488250D01*
X1135500Y560000D02*
X1140150Y564650D01*
X1097250Y557500D02*
X1115250D01*
X841500Y80000D02*
X862000D01*
X841250D02*
X841500D01*
X841250Y80000D02*
X841250Y80000D01*
X819500Y80000D02*
X841250D01*
X1100750Y18500D02*
X1119250Y37000D01*
X776500Y18500D02*
X1100750D01*
X736500Y58500D02*
X776500Y18500D01*
X711950Y58500D02*
X736500D01*
X699050Y71400D02*
X711950Y58500D01*
X1201750Y84500D02*
X1220650D01*
X1184500D02*
X1201750D01*
X309750Y148500D02*
X415000D01*
X309750D02*
X310000Y148250D01*
Y129000D02*
Y148250D01*
X415000Y148500D02*
X520250D01*
X414750Y148250D02*
X415000Y148500D01*
X414750Y129000D02*
Y148250D01*
X519750Y148000D02*
X520250Y148500D01*
X519750Y129000D02*
Y148000D01*
X605000Y148500D02*
X624500Y129000D01*
X837000Y489250D02*
X855250Y507500D01*
X624500Y489250D02*
X837000D01*
X310000D02*
Y501000D01*
X519250Y489250D02*
X624500D01*
X519250D02*
X519500Y489500D01*
Y501000D01*
X624500D02*
X624500Y501000D01*
Y489250D02*
Y501000D01*
X205250Y501000D02*
X217000Y489250D01*
X806000Y513000D02*
X832750Y539750D01*
X758750Y513000D02*
X806000D01*
X832750Y539750D02*
Y563750D01*
X110250Y135379D02*
X110371Y135500D01*
X109621Y199500D02*
Y203000D01*
X1205750Y579000D02*
X1206750Y580000D01*
X1205750Y565000D02*
Y579000D01*
X1165500Y557500D02*
X1165550Y557550D01*
X1165250Y557250D02*
X1165500Y557500D01*
X1165250Y535750D02*
Y557250D01*
X1165550Y557550D02*
Y578750D01*
X1140150Y564650D02*
Y578750D01*
X999440Y600690D02*
X1011690D01*
X1022000Y611000D01*
X1090250D01*
X999440Y578750D02*
Y600690D01*
X1090250Y611000D02*
X1113000D01*
X1114750Y598500D02*
Y609250D01*
X1113000Y611000D02*
X1114750Y609250D01*
X824750Y541500D02*
Y565000D01*
X809500Y526250D02*
X824750Y541500D01*
X790500Y526250D02*
X809500D01*
X824750Y565000D02*
X842250Y582500D01*
X832750Y563750D02*
X844250Y575250D01*
X910000D01*
X951000Y534250D01*
X914000Y582500D02*
X954750Y541750D01*
X842250Y582500D02*
X914000D01*
X1117750Y541750D02*
X1155000Y504500D01*
X954750Y541750D02*
X1117750Y541750D01*
X868750Y507750D02*
Y521000D01*
Y497750D02*
Y507750D01*
X868500Y507500D02*
X868750Y507750D01*
X855250Y507500D02*
X868500D01*
X1105000Y534250D02*
X1123000Y516250D01*
X951000Y534250D02*
X1105000Y534250D01*
X1123000Y492000D02*
Y516250D01*
X1079500Y260000D02*
Y519750D01*
X1068250Y248750D02*
X1079500Y260000D01*
X1048500Y248750D02*
X1068250D01*
X1050240Y578750D02*
X1050250Y578760D01*
Y599250D01*
X1050240Y578750D02*
X1050250Y578740D01*
Y557500D02*
Y578740D01*
X1024500Y578410D02*
X1024840Y578750D01*
X1024500Y557500D02*
Y578410D01*
X1004000Y558000D02*
X1004500Y557500D01*
X989000Y558000D02*
X1004000D01*
X1196250Y492000D02*
X1248000Y440250D01*
Y94000D02*
Y440250D01*
X920000Y338000D02*
X920630Y338630D01*
X1220750Y84600D02*
X1238600D01*
X1248000Y94000D01*
X1123000Y492000D02*
X1196250D01*
X1220650Y84500D02*
X1220750Y84600D01*
D63*
X918750Y175250D02*
X920030D01*
X861000Y233000D02*
X918750Y175250D01*
X841500Y80000D02*
Y97000D01*
Y52250D02*
Y80000D01*
X826250Y112250D02*
X841500Y97000D01*
X911250Y454750D02*
Y542750D01*
X897750Y441250D02*
X911250Y454750D01*
X850500Y441250D02*
X897750D01*
X828500Y419250D02*
X850500Y441250D01*
X828500Y338000D02*
Y419250D01*
X756250Y308000D02*
X828500D01*
X743000Y294750D02*
X756250Y308000D01*
X901000Y265500D02*
X943500Y308000D01*
X861000Y265500D02*
X901000D01*
X963750Y248750D02*
X996500D01*
X946030Y231030D02*
X963750Y248750D01*
X946030Y175250D02*
Y231030D01*
X1048970Y304500D02*
Y365780D01*
X1030250Y384500D02*
X1048970Y365780D01*
X946030Y384500D02*
X1030250D01*
X920000Y338000D02*
X943500D01*
X890500D02*
X920000D01*
X920630Y338630D02*
Y384500D01*
D64*
X1239000Y142500D02*
Y297000D01*
X1114750Y578750D02*
Y598500D01*
X888750Y521000D02*
Y539250D01*
X879250Y548750D02*
X888750Y539250D01*
X879250Y548750D02*
Y563500D01*
X868750Y521000D02*
X868750Y521000D01*
X1239000Y297000D02*
Y305800D01*
X1238250Y297750D02*
X1239000Y297000D01*
X1221500Y297750D02*
X1238250D01*
X1230500Y134000D02*
X1239000Y142500D01*
X1193750Y277500D02*
X1237750D01*
X1143000Y258000D02*
X1153000Y268000D01*
X1103000Y258000D02*
X1143000D01*
D65*
X774500Y170750D02*
X796250D01*
X747500D02*
X774500D01*
X553250Y382750D02*
Y385750D01*
X447250Y382750D02*
Y385750D01*
X343000Y383000D02*
Y385750D01*
X212250Y283839D02*
X237500D01*
X317500D02*
X342750D01*
X422000D02*
X447250D01*
X527750D02*
X553000D01*
X632250D02*
X657500D01*
X237250Y385750D02*
X237500Y385500D01*
Y365145D02*
Y385500D01*
X237230Y364875D02*
X237500Y365145D01*
X211500Y364875D02*
X237230D01*
X341980Y364875D02*
X342250Y365145D01*
X316750Y364875D02*
X341980D01*
X447148Y364875D02*
X447418Y365145D01*
X421000Y364875D02*
X447148D01*
X552816Y364875D02*
X553086Y365145D01*
X527250Y364875D02*
X552816D01*
X657066Y364875D02*
X657336Y365145D01*
X632250Y364875D02*
X657066D01*
X213250Y415750D02*
X238500D01*
X318000D02*
X343250D01*
X423000D02*
X448250D01*
X528750D02*
X554000D01*
X657500D02*
X659280D01*
X632250D02*
X657500D01*
X110250Y232500D02*
Y259750D01*
Y203629D02*
Y232500D01*
Y80500D02*
Y135379D01*
X746500Y171750D02*
X747500Y170750D01*
D66*
X842250Y286750D02*
X863250Y307750D01*
X842250Y286500D02*
Y286750D01*
X863250Y307750D02*
X890250D01*
X833750Y278000D02*
X842250Y286500D01*
X828500Y278000D02*
X833750D01*
X553086Y382586D02*
X553250Y382750D01*
X553086Y365145D02*
Y382586D01*
X447250Y382750D02*
X447418Y382582D01*
Y365145D02*
Y382582D01*
X342500Y382500D02*
X343000Y383000D01*
X342500Y365395D02*
Y382500D01*
X342250Y365145D02*
X342500Y365395D01*
X237336Y263395D02*
Y278586D01*
X342586Y263395D02*
Y278586D01*
X447086Y263395D02*
Y278586D01*
X552836Y263395D02*
Y278586D01*
X657336Y263395D02*
Y278586D01*
Y365145D02*
X657500Y365309D01*
Y382750D01*
X281500Y522875D02*
X700125D01*
X105250Y181250D02*
X700750D01*
X52750Y128750D02*
X105250Y181250D01*
X52750Y80500D02*
Y128750D01*
D77*
X622850Y46000D02*
D03*
X946030Y384500D02*
D03*
X946030Y175250D02*
D03*
D78*
X724450Y71400D02*
D03*
Y46000D02*
D03*
D79*
X673650Y71400D02*
D03*
X622850D02*
D03*
X648250D02*
D03*
D80*
X699050D02*
D03*
Y46000D02*
D03*
X648250D02*
D03*
X673650D02*
D03*
X826250Y112250D02*
D03*
X746500Y171750D02*
D03*
X920630Y384500D02*
D03*
X920630Y175250D02*
D03*
X841500Y52250D02*
D03*
D81*
X1278861Y298839D02*
D03*
X1278750Y284500D02*
D03*
X1313861Y268839D02*
D03*
X1313750Y254500D02*
D03*
X247000Y42250D02*
D03*
X247000Y82750D02*
D03*
X386500Y522625D02*
D03*
X491000D02*
D03*
X596000D02*
D03*
X700500Y522875D02*
D03*
X281500D02*
D03*
X281250Y181375D02*
D03*
X386500Y181125D02*
D03*
X491000D02*
D03*
X596250Y180875D02*
D03*
X701250Y181125D02*
D03*
X911250Y499000D02*
D03*
Y513375D02*
D03*
Y527750D02*
D03*
D82*
X52750Y259750D02*
D03*
Y80500D02*
D03*
X110250D02*
D03*
Y259750D02*
D03*
D83*
X21500Y80500D02*
D03*
X146500D02*
D03*
X144000Y260500D02*
D03*
X21500Y258000D02*
D03*
X447418Y263395D02*
D03*
X449363Y336404D02*
D03*
X553086Y263395D02*
D03*
X555030Y336404D02*
D03*
X342250Y263395D02*
D03*
X344195Y336403D02*
D03*
X657336Y263395D02*
D03*
X659280Y336404D02*
D03*
X657336Y365145D02*
D03*
X659280Y438154D02*
D03*
X553086Y365145D02*
D03*
X555030Y438154D02*
D03*
X447418Y365145D02*
D03*
X449363Y438154D02*
D03*
X342250Y365145D02*
D03*
X344195Y438153D02*
D03*
X239195Y336403D02*
D03*
X237250Y263395D02*
D03*
X239445Y438153D02*
D03*
X237500Y365145D02*
D03*
D84*
X175250Y42250D02*
D03*
X175250Y82750D02*
D03*
D85*
X329880Y83060D02*
D03*
D86*
Y58060D02*
D03*
Y33060D02*
D03*
X1153000Y293000D02*
D03*
Y268000D02*
D03*
X1103000Y233000D02*
D03*
Y258000D02*
D03*
D87*
X943500Y338000D02*
D03*
Y308000D02*
D03*
X861000Y233000D02*
D03*
Y265500D02*
D03*
X828500Y278000D02*
D03*
Y308000D02*
D03*
Y338000D02*
D03*
X743000Y233000D02*
D03*
Y264750D02*
D03*
Y294750D02*
D03*
D88*
X29750Y30000D02*
D03*
X205000Y590000D02*
D03*
X1331750Y31000D02*
D03*
X1331750Y590000D02*
D03*
D89*
X1114750Y578750D02*
D03*
X1140150D02*
D03*
X1165550D02*
D03*
X999440Y578750D02*
D03*
X1024840D02*
D03*
X1050240D02*
D03*
D90*
X791500Y52250D02*
D03*
D91*
X1048970Y304500D02*
D03*
X1022970D02*
D03*
X996970D02*
D03*
X996500Y248750D02*
D03*
X1022500D02*
D03*
X1048500D02*
D03*
D92*
X1263850Y524900D02*
D03*
Y474100D02*
D03*
X1314650D02*
D03*
Y524900D02*
D03*
D93*
X1289250Y499500D02*
D03*
D94*
X1345500Y560000D02*
D03*
X1320500Y410000D02*
D03*
Y210000D02*
D03*
X1345500Y160000D02*
D03*
Y60000D02*
D03*
X1295500Y460000D02*
D03*
Y260000D02*
D03*
Y60000D02*
D03*
X1270500Y10000D02*
D03*
X1220500Y510000D02*
D03*
X1245500Y460000D02*
D03*
X1220500Y410000D02*
D03*
X1245500Y60000D02*
D03*
X1220500Y10000D02*
D03*
X1170500Y410000D02*
D03*
Y310000D02*
D03*
Y10000D02*
D03*
X1120500Y410000D02*
D03*
Y310000D02*
D03*
X1095500Y460000D02*
D03*
X1070500Y410000D02*
D03*
Y310000D02*
D03*
X1095500Y60000D02*
D03*
X1020500Y410000D02*
D03*
Y210000D02*
D03*
X970500Y310000D02*
D03*
Y210000D02*
D03*
Y110000D02*
D03*
X920500Y410000D02*
D03*
X945500Y360000D02*
D03*
X920500Y210000D02*
D03*
X945500Y60000D02*
D03*
X870500Y410000D02*
D03*
X895500Y360000D02*
D03*
Y160000D02*
D03*
X870500Y110000D02*
D03*
X895500Y60000D02*
D03*
X845500Y160000D02*
D03*
X795500Y560000D02*
D03*
X770500Y410000D02*
D03*
X795500Y360000D02*
D03*
Y260000D02*
D03*
X770500Y210000D02*
D03*
Y110000D02*
D03*
X745500Y560000D02*
D03*
X720500Y410000D02*
D03*
X745500Y360000D02*
D03*
X720500Y310000D02*
D03*
Y210000D02*
D03*
Y110000D02*
D03*
X695500Y360000D02*
D03*
Y260000D02*
D03*
X670500Y110000D02*
D03*
X645500Y560000D02*
D03*
Y460000D02*
D03*
X595500Y360000D02*
D03*
Y260000D02*
D03*
X570500Y10000D02*
D03*
X545500Y460000D02*
D03*
Y60000D02*
D03*
X520500Y10000D02*
D03*
X470500Y410000D02*
D03*
X495500Y360000D02*
D03*
X470500Y310000D02*
D03*
X495500Y260000D02*
D03*
Y60000D02*
D03*
X470500Y10000D02*
D03*
X445500Y60000D02*
D03*
X420500Y10000D02*
D03*
X370500Y410000D02*
D03*
X395500Y360000D02*
D03*
X370500Y310000D02*
D03*
X395500Y260000D02*
D03*
Y60000D02*
D03*
X370500Y10000D02*
D03*
X345500Y60000D02*
D03*
X320500Y10000D02*
D03*
X270500Y410000D02*
D03*
Y310000D02*
D03*
X295500Y60000D02*
D03*
X220500Y510000D02*
D03*
Y210000D02*
D03*
Y110000D02*
D03*
X245500Y60000D02*
D03*
X220500Y10000D02*
D03*
X170500Y310000D02*
D03*
X195500Y60000D02*
D03*
X170500Y10000D02*
D03*
X145500Y160000D02*
D03*
Y60000D02*
D03*
X120500Y10000D02*
D03*
X70500Y210000D02*
D03*
X95500Y60000D02*
D03*
X70500Y10000D02*
D03*
X20500Y210000D02*
D03*
X45500Y160000D02*
D03*
X20500Y110000D02*
D03*
X1094500Y597500D02*
D03*
X1239250Y168250D02*
D03*
X1270500D02*
D03*
X181500Y501000D02*
D03*
X310000Y129000D02*
D03*
X414750D02*
D03*
X519750D02*
D03*
X624500D02*
D03*
X205250D02*
D03*
X624500Y501000D02*
D03*
X519500D02*
D03*
X414750D02*
D03*
X310000D02*
D03*
X205250D02*
D03*
X1205750Y565000D02*
D03*
X1150250Y599250D02*
D03*
X790500Y526250D02*
D03*
X879250Y563500D02*
D03*
X758750Y513000D02*
D03*
X1097500Y557500D02*
D03*
X1079750Y520500D02*
D03*
X989000Y558000D02*
D03*
X855250Y507500D02*
D03*
X1218250Y130250D02*
D03*
X1123000Y492000D02*
D03*
X1201750Y84250D02*
D03*
X1155000Y504500D02*
D03*
X1239000Y305800D02*
D03*
X1193750Y277500D02*
D03*
D95*
X1220750Y84600D02*
D03*
Y130400D02*
D03*
D96*
X1295750Y106750D02*
D03*
D97*
X237375Y349875D02*
D03*
D98*
X343125Y350000D02*
D03*
X657375Y350250D02*
D03*
D99*
X447375Y349625D02*
D03*
D100*
X553375Y349500D02*
D03*
D101*
X239500Y429250D02*
D03*
X344250D02*
D03*
X449250D02*
D03*
X555000D02*
D03*
D102*
X659000D02*
D03*
D103*
X893000Y307625D02*
D03*
D104*
X760125Y233000D02*
D03*
D105*
X834875D02*
D03*
M02*
