G04*
G04 #@! TF.GenerationSoftware,Altium Limited,Altium Designer,21.2.1 (34)*
G04*
G04 Layer_Color=16711935*
%FSLAX44Y44*%
%MOMM*%
G71*
G04*
G04 #@! TF.SameCoordinates,E8695898-D4BD-45AE-B535-2771739DBF24*
G04*
G04*
G04 #@! TF.FilePolarity,Negative*
G04*
G01*
G75*
%ADD20R,1.1500X1.4000*%
%ADD22R,1.4000X1.1500*%
%ADD24R,1.1500X0.7500*%
%ADD28R,1.7500X1.1500*%
%ADD31R,1.1500X1.7500*%
%ADD32R,2.1500X2.1500*%
%ADD33O,2.1500X1.8500*%
%ADD34O,1.8500X2.1500*%
%ADD35C,2.1500*%
%ADD36C,1.3500*%
%ADD37C,2.0500*%
%ADD38C,1.6740*%
%ADD39P,1.4612X8X22.5*%
%ADD40P,1.7860X8X292.5*%
%ADD41C,1.6500*%
%ADD42C,2.2500*%
%ADD43C,5.1500*%
%ADD44C,1.9500*%
%ADD45P,2.3272X8X22.5*%
%ADD46O,2.1500X3.1500*%
%ADD47C,2.6500*%
%ADD48C,3.1500*%
%ADD106R,2.6500X1.3500*%
%ADD107R,8.1500X7.1500*%
D20*
X1115250Y599250D02*
D03*
X1135250D02*
D03*
X1165250Y599250D02*
D03*
X1185250D02*
D03*
X1185250Y535750D02*
D03*
X1165250D02*
D03*
X1185500Y557500D02*
D03*
X1165500D02*
D03*
X1115250Y557500D02*
D03*
X1135250D02*
D03*
X1004500Y557500D02*
D03*
X1024500D02*
D03*
X888750Y521000D02*
D03*
X868750D02*
D03*
X888750Y497750D02*
D03*
X868750D02*
D03*
X640500Y129000D02*
D03*
X660500D02*
D03*
X325500Y129000D02*
D03*
X345500D02*
D03*
X247500Y21250D02*
D03*
X267500D02*
D03*
X204750Y41000D02*
D03*
X224750D02*
D03*
X204750Y82250D02*
D03*
X224750D02*
D03*
X219750Y129000D02*
D03*
X239750D02*
D03*
X309750Y474250D02*
D03*
X329750D02*
D03*
X625000D02*
D03*
X645000D02*
D03*
X247500Y102000D02*
D03*
X267500D02*
D03*
X415000Y474250D02*
D03*
X435000D02*
D03*
X519500D02*
D03*
X539500D02*
D03*
X535500Y129000D02*
D03*
X555500D02*
D03*
X433000Y129000D02*
D03*
X453000D02*
D03*
X218250Y474250D02*
D03*
X238250D02*
D03*
X1000000Y601250D02*
D03*
X980000D02*
D03*
X1169407Y115555D02*
D03*
X1149407D02*
D03*
X862000Y80000D02*
D03*
X882000D02*
D03*
X819500Y80000D02*
D03*
X799500D02*
D03*
X1050250Y599250D02*
D03*
X1070250D02*
D03*
X1050250Y557500D02*
D03*
X1070250D02*
D03*
D22*
X774500Y170750D02*
D03*
Y150750D02*
D03*
X796250Y170750D02*
D03*
Y150750D02*
D03*
X288500Y40250D02*
D03*
Y20250D02*
D03*
Y83000D02*
D03*
Y103000D02*
D03*
X1221500Y297750D02*
D03*
Y317750D02*
D03*
X1206750Y600000D02*
D03*
Y580000D02*
D03*
D24*
X1181924Y84250D02*
D03*
X1157924Y93750D02*
D03*
Y74750D02*
D03*
D28*
X890500Y308000D02*
D03*
Y338000D02*
D03*
X237250Y283750D02*
D03*
Y313750D02*
D03*
X211500Y284000D02*
D03*
Y314000D02*
D03*
Y415750D02*
D03*
Y385750D02*
D03*
Y364875D02*
D03*
Y334875D02*
D03*
X237250Y385750D02*
D03*
Y415750D02*
D03*
X316750D02*
D03*
Y385750D02*
D03*
X343000Y283750D02*
D03*
Y313750D02*
D03*
X316750Y283839D02*
D03*
Y313839D02*
D03*
X316750Y364875D02*
D03*
Y334875D02*
D03*
X343000Y385750D02*
D03*
Y415750D02*
D03*
X421000D02*
D03*
Y385750D02*
D03*
Y283839D02*
D03*
Y313839D02*
D03*
X447250Y283750D02*
D03*
Y313750D02*
D03*
X421000Y364875D02*
D03*
Y334875D02*
D03*
X447250Y385750D02*
D03*
Y415750D02*
D03*
X527250D02*
D03*
Y385750D02*
D03*
Y283839D02*
D03*
Y313839D02*
D03*
X553250Y283750D02*
D03*
Y313750D02*
D03*
X527250Y364875D02*
D03*
Y334875D02*
D03*
X553250Y385750D02*
D03*
Y415750D02*
D03*
X632250Y283839D02*
D03*
Y313839D02*
D03*
X657500Y283839D02*
D03*
Y313839D02*
D03*
X632250Y364875D02*
D03*
Y334875D02*
D03*
X632250Y415750D02*
D03*
Y385750D02*
D03*
X657500D02*
D03*
Y415750D02*
D03*
D31*
X775250Y233500D02*
D03*
X805250D02*
D03*
X140371Y107250D02*
D03*
X110371D02*
D03*
X140371Y135500D02*
D03*
X110371D02*
D03*
X140371Y205500D02*
D03*
X110371D02*
D03*
X140371Y232500D02*
D03*
X110371D02*
D03*
D32*
X622850Y46000D02*
D03*
X946030Y384500D02*
D03*
X946030Y175250D02*
D03*
D33*
X724450Y71400D02*
D03*
Y46000D02*
D03*
D34*
X673650Y71400D02*
D03*
X622850D02*
D03*
X648250D02*
D03*
D35*
X699050D02*
D03*
Y46000D02*
D03*
X648250D02*
D03*
X673650D02*
D03*
X826250Y112250D02*
D03*
X746500Y171750D02*
D03*
X920630Y384500D02*
D03*
X920630Y175250D02*
D03*
X841500Y52250D02*
D03*
D36*
X1278861Y298839D02*
D03*
X1278750Y284500D02*
D03*
X1313861Y268839D02*
D03*
X1313750Y254500D02*
D03*
X247000Y42250D02*
D03*
X247000Y82750D02*
D03*
X386500Y522625D02*
D03*
X491000D02*
D03*
X596000D02*
D03*
X700500Y522875D02*
D03*
X281500D02*
D03*
X281250Y181375D02*
D03*
X386500Y181125D02*
D03*
X491000D02*
D03*
X596250Y180875D02*
D03*
X701250Y181125D02*
D03*
X911250Y499000D02*
D03*
Y513375D02*
D03*
Y527750D02*
D03*
D37*
X52750Y259750D02*
D03*
Y80500D02*
D03*
X110250D02*
D03*
Y259750D02*
D03*
D38*
X21500Y80500D02*
D03*
X146500D02*
D03*
X144000Y260500D02*
D03*
X21500Y258000D02*
D03*
X447418Y263395D02*
D03*
X449363Y336404D02*
D03*
X553086Y263395D02*
D03*
X555030Y336404D02*
D03*
X342250Y263395D02*
D03*
X344195Y336403D02*
D03*
X657336Y263395D02*
D03*
X659280Y336404D02*
D03*
X657336Y365145D02*
D03*
X659280Y438154D02*
D03*
X553086Y365145D02*
D03*
X555030Y438154D02*
D03*
X447418Y365145D02*
D03*
X449363Y438154D02*
D03*
X342250Y365145D02*
D03*
X344195Y438153D02*
D03*
X239195Y336403D02*
D03*
X237250Y263395D02*
D03*
X239445Y438153D02*
D03*
X237500Y365145D02*
D03*
D39*
X175250Y42250D02*
D03*
X175250Y82750D02*
D03*
D40*
X329880Y83060D02*
D03*
D41*
Y58060D02*
D03*
Y33060D02*
D03*
X1153000Y293000D02*
D03*
Y268000D02*
D03*
X1103000Y233000D02*
D03*
Y258000D02*
D03*
D42*
X943500Y338000D02*
D03*
Y308000D02*
D03*
X861000Y233000D02*
D03*
Y265500D02*
D03*
X828500Y278000D02*
D03*
Y308000D02*
D03*
Y338000D02*
D03*
X743000Y233000D02*
D03*
Y264750D02*
D03*
Y294750D02*
D03*
D43*
X29750Y30000D02*
D03*
X205000Y590000D02*
D03*
X1331750Y31000D02*
D03*
X1331750Y590000D02*
D03*
D44*
X1114750Y578750D02*
D03*
X1140150D02*
D03*
X1165550D02*
D03*
X999440Y578750D02*
D03*
X1024840D02*
D03*
X1050240D02*
D03*
D45*
X791500Y52250D02*
D03*
D46*
X1048970Y304500D02*
D03*
X1022970D02*
D03*
X996970D02*
D03*
X996500Y248750D02*
D03*
X1022500D02*
D03*
X1048500D02*
D03*
D47*
X1263850Y524900D02*
D03*
Y474100D02*
D03*
X1314650D02*
D03*
Y524900D02*
D03*
D48*
X1289250Y499500D02*
D03*
D106*
X1220750Y84600D02*
D03*
Y130400D02*
D03*
D107*
X1295750Y106750D02*
D03*
M02*
