G04*
G04 #@! TF.GenerationSoftware,Altium Limited,Altium Designer,21.0.8 (223)*
G04*
G04 Layer_Color=8388736*
%FSLAX44Y44*%
%MOMM*%
G71*
G04*
G04 #@! TF.SameCoordinates,CF40DC4F-38BD-4AEA-854D-D5A68E69FAB1*
G04*
G04*
G04 #@! TF.FilePolarity,Negative*
G04*
G01*
G75*
%ADD13R,1.4532X1.2032*%
%ADD14R,1.2032X1.4532*%
%ADD15R,3.2032X2.2032*%
%ADD16C,2.2032*%
%ADD17R,2.2032X2.2032*%
%ADD18P,3.4671X8X202.5*%
%ADD19C,3.2032*%
%ADD20C,1.9032*%
%ADD21O,1.9032X1.7032*%
%ADD22R,1.9032X1.9032*%
G04:AMPARAMS|DCode=23|XSize=2.0032mm|YSize=2.2032mm|CornerRadius=0.5516mm|HoleSize=0mm|Usage=FLASHONLY|Rotation=270.000|XOffset=0mm|YOffset=0mm|HoleType=Round|Shape=RoundedRectangle|*
%AMROUNDEDRECTD23*
21,1,2.0032,1.1000,0,0,270.0*
21,1,0.9000,2.2032,0,0,270.0*
1,1,1.1032,-0.5500,-0.4500*
1,1,1.1032,-0.5500,0.4500*
1,1,1.1032,0.5500,0.4500*
1,1,1.1032,0.5500,-0.4500*
%
%ADD23ROUNDEDRECTD23*%
%ADD24C,10.2032*%
%ADD25C,5.2032*%
%ADD26C,3.4032*%
%ADD27C,15.2032*%
D13*
X864500Y42234D02*
D03*
Y22234D02*
D03*
X568000Y42234D02*
D03*
Y22234D02*
D03*
X191750Y42234D02*
D03*
Y22234D02*
D03*
X793500Y42234D02*
D03*
Y22234D02*
D03*
D14*
X103016Y313500D02*
D03*
X123016D02*
D03*
X103016Y452000D02*
D03*
X123016D02*
D03*
D15*
X116000Y242794D02*
D03*
Y284294D02*
D03*
X34000Y242794D02*
D03*
Y284294D02*
D03*
X901000Y65750D02*
D03*
Y24250D02*
D03*
X983000Y65750D02*
D03*
Y24250D02*
D03*
X676821Y65750D02*
D03*
Y24250D02*
D03*
X758820Y65750D02*
D03*
Y24250D02*
D03*
X452641Y65750D02*
D03*
Y24250D02*
D03*
X534641Y65750D02*
D03*
Y24250D02*
D03*
X228462Y65750D02*
D03*
Y24250D02*
D03*
X310462Y65750D02*
D03*
Y24250D02*
D03*
X116000Y381147D02*
D03*
Y422647D02*
D03*
X34000Y381147D02*
D03*
Y422647D02*
D03*
D16*
X1280800Y401000D02*
D03*
X1255400D02*
D03*
X1204600D02*
D03*
X1230000D02*
D03*
X42000Y562750D02*
D03*
Y517750D02*
D03*
X107000Y562750D02*
D03*
Y517750D02*
D03*
X531000Y190750D02*
D03*
Y244250D02*
D03*
X294750Y238250D02*
D03*
D17*
X1179200Y401000D02*
D03*
D18*
X472515Y508749D02*
D03*
D19*
X269485D02*
D03*
D20*
X1023250Y153100D02*
D03*
X1048650D02*
D03*
Y178500D02*
D03*
X1023250D02*
D03*
X1048650Y203900D02*
D03*
X1023250D02*
D03*
X1048650Y229300D02*
D03*
X1023250D02*
D03*
X1048650Y254700D02*
D03*
X1023250D02*
D03*
X1048650Y280100D02*
D03*
X1023250D02*
D03*
X1048650Y305500D02*
D03*
X1023250D02*
D03*
X1048650Y330900D02*
D03*
X1023250D02*
D03*
X1048650Y356300D02*
D03*
X1023250D02*
D03*
X1048650Y381700D02*
D03*
X1023250D02*
D03*
X1048650Y457900D02*
D03*
X1023250D02*
D03*
X1048650Y483300D02*
D03*
X1023250D02*
D03*
X1048650Y508700D02*
D03*
X1023250D02*
D03*
X1048650Y534100D02*
D03*
X1023250D02*
D03*
X1048650Y559500D02*
D03*
X1023250D02*
D03*
X1048650Y584900D02*
D03*
D21*
Y407100D02*
D03*
X1023250D02*
D03*
X1048650Y432500D02*
D03*
X1023250D02*
D03*
D22*
Y584900D02*
D03*
D23*
X1147505Y533634D02*
D03*
Y508634D02*
D03*
Y483634D02*
D03*
X1312505Y533634D02*
D03*
Y483634D02*
D03*
D24*
X1231755Y508634D02*
D03*
D25*
X1371727Y31260D02*
D03*
Y617000D02*
D03*
X28000D02*
D03*
D26*
X178190Y620460D02*
D03*
Y116270D02*
D03*
X1037190D02*
D03*
Y620460D02*
D03*
D27*
X1231685Y227257D02*
D03*
M02*
