G04*
G04 #@! TF.GenerationSoftware,Altium Limited,Altium Designer,21.0.8 (223)*
G04*
G04 Layer_Physical_Order=2*
G04 Layer_Color=1930808*
%FSLAX44Y44*%
%MOMM*%
G71*
G04*
G04 #@! TF.SameCoordinates,CF40DC4F-38BD-4AEA-854D-D5A68E69FAB1*
G04*
G04*
G04 #@! TF.FilePolarity,Positive*
G04*
G01*
G75*
%ADD11C,0.2000*%
%ADD28R,1.2500X1.0000*%
%ADD29R,1.0000X1.2500*%
%ADD31C,0.4000*%
%ADD32C,0.6000*%
%ADD33C,2.0000*%
%ADD34R,2.0000X2.0000*%
%ADD35P,3.2472X8X202.5*%
%ADD36C,3.0000*%
%ADD37C,1.7000*%
%ADD38O,1.7000X1.5000*%
%ADD39R,1.7000X1.7000*%
G04:AMPARAMS|DCode=40|XSize=1.8mm|YSize=2mm|CornerRadius=0.45mm|HoleSize=0mm|Usage=FLASHONLY|Rotation=270.000|XOffset=0mm|YOffset=0mm|HoleType=Round|Shape=RoundedRectangle|*
%AMROUNDEDRECTD40*
21,1,1.8000,1.1000,0,0,270.0*
21,1,0.9000,2.0000,0,0,270.0*
1,1,0.9000,-0.5500,-0.4500*
1,1,0.9000,-0.5500,0.4500*
1,1,0.9000,0.5500,0.4500*
1,1,0.9000,0.5500,-0.4500*
%
%ADD40ROUNDEDRECTD40*%
%ADD41C,10.0000*%
%ADD42C,5.0000*%
%ADD43C,0.8000*%
%ADD44C,1.0000*%
%ADD45C,3.2000*%
%ADD46C,15.0000*%
%ADD47O,1.8500X0.6000*%
%ADD48R,2.4000X1.4000*%
%ADD49R,1.4000X2.4000*%
G04:AMPARAMS|DCode=50|XSize=1.2mm|YSize=3mm|CornerRadius=0.3mm|HoleSize=0mm|Usage=FLASHONLY|Rotation=0.000|XOffset=0mm|YOffset=0mm|HoleType=Round|Shape=RoundedRectangle|*
%AMROUNDEDRECTD50*
21,1,1.2000,2.4000,0,0,0.0*
21,1,0.6000,3.0000,0,0,0.0*
1,1,0.6000,0.3000,-1.2000*
1,1,0.6000,-0.3000,-1.2000*
1,1,0.6000,-0.3000,1.2000*
1,1,0.6000,0.3000,1.2000*
%
%ADD50ROUNDEDRECTD50*%
%ADD51R,9.0000X4.0000*%
%ADD52R,1.0000X2.4000*%
%ADD53C,0.8000*%
%ADD54C,1.0000*%
G36*
X1396941Y3059D02*
X148059Y3059D01*
Y40961D01*
Y41555D01*
X149329Y41680D01*
X149348Y41582D01*
X150674Y39598D01*
X171565Y18707D01*
X173550Y17380D01*
X175891Y16915D01*
X297032D01*
X299373Y17380D01*
X301358Y18707D01*
X314076Y31424D01*
X315402Y33409D01*
X315868Y35750D01*
Y47170D01*
X316355Y47495D01*
X317460Y49149D01*
X317848Y51100D01*
Y75100D01*
X317460Y77051D01*
X316355Y78705D01*
X314701Y79810D01*
X312750Y80198D01*
X306750D01*
X304799Y79810D01*
X303145Y78705D01*
X302040Y77051D01*
X301652Y75100D01*
Y51100D01*
X302040Y49149D01*
X303145Y47495D01*
X303633Y47170D01*
Y38284D01*
X294499Y29150D01*
X178425D01*
X161117Y46458D01*
Y106844D01*
Y107332D01*
X162388Y107650D01*
X162617Y107220D01*
X163002Y106500D01*
X163151Y106221D01*
X165401Y103481D01*
X168141Y101231D01*
X171268Y99560D01*
X174661Y98531D01*
X178190Y98183D01*
X181719Y98531D01*
X185112Y99560D01*
X188239Y101231D01*
X190979Y103481D01*
X193229Y106221D01*
X194900Y109348D01*
X195930Y112741D01*
X196277Y116270D01*
X195930Y119799D01*
X194900Y123192D01*
X193229Y126319D01*
X190979Y129059D01*
X188239Y131309D01*
X185112Y132980D01*
X181719Y134010D01*
X178190Y134357D01*
X174661Y134010D01*
X171268Y132980D01*
X168141Y131309D01*
X165401Y129059D01*
X163151Y126319D01*
X162617Y125320D01*
X162388Y124890D01*
X161117Y125208D01*
Y125696D01*
Y179716D01*
X255200Y273798D01*
X256526Y275783D01*
X256992Y278124D01*
Y321340D01*
X432826Y497174D01*
X434152Y499159D01*
X434618Y501500D01*
Y555966D01*
X450034Y571382D01*
X550458D01*
Y568500D01*
X558341D01*
Y551042D01*
X558806Y548701D01*
X560132Y546716D01*
X565424Y541424D01*
X567409Y540098D01*
X569750Y539632D01*
X602750D01*
Y531750D01*
X616750D01*
Y559750D01*
X602750D01*
Y551868D01*
X572284D01*
X570576Y553576D01*
Y568500D01*
X578458D01*
Y586500D01*
X550458D01*
Y583617D01*
X447500D01*
X445159Y583152D01*
X443174Y581825D01*
X424174Y562826D01*
X422848Y560841D01*
X422383Y558500D01*
Y504034D01*
X246548Y328200D01*
X245222Y326215D01*
X244757Y323874D01*
Y280658D01*
X150674Y186576D01*
X149559Y184906D01*
D01*
X149348Y184591D01*
X149329Y184494D01*
X148059Y184619D01*
Y185212D01*
Y215500D01*
X147826Y216670D01*
X147163Y217663D01*
X146171Y218326D01*
X145000Y218559D01*
X3059D01*
X3059Y641941D01*
X1396941D01*
X1396941Y3059D01*
D02*
G37*
%LPC*%
G36*
X1155750Y628250D02*
X1139250D01*
Y627057D01*
X1138130Y626459D01*
X1137841Y626652D01*
X1137750Y626670D01*
X1135500Y627118D01*
X1133159Y626652D01*
X1132823Y626427D01*
X1132620Y626292D01*
X1131500Y626890D01*
Y627135D01*
Y628250D01*
X1115000D01*
Y614250D01*
X1131500D01*
Y614865D01*
Y615109D01*
X1132620Y615708D01*
X1132823Y615573D01*
D01*
X1133159Y615348D01*
X1135500Y614883D01*
X1137750Y615330D01*
D01*
X1137841Y615348D01*
X1138130Y615541D01*
X1139250Y614943D01*
Y614250D01*
X1155750D01*
Y628250D01*
D02*
G37*
G36*
X1109290Y628790D02*
X1101770D01*
Y622520D01*
X1109290D01*
Y628790D01*
D02*
G37*
G36*
X1099230D02*
X1091710D01*
Y622520D01*
X1099230D01*
Y628790D01*
D02*
G37*
G36*
X1178790Y628790D02*
X1171270D01*
Y622520D01*
X1178790D01*
Y628790D01*
D02*
G37*
G36*
X1168730D02*
X1161210D01*
Y622520D01*
X1168730D01*
Y628790D01*
D02*
G37*
G36*
X578998Y622040D02*
X565728D01*
Y613770D01*
X578998D01*
Y622040D01*
D02*
G37*
G36*
X563188D02*
X549918D01*
Y613770D01*
X563188D01*
Y622040D01*
D02*
G37*
G36*
X1109290Y619980D02*
X1101770D01*
Y613710D01*
X1109290D01*
Y619980D01*
D02*
G37*
G36*
X1099230D02*
X1091710D01*
Y613710D01*
X1099230D01*
Y619980D01*
D02*
G37*
G36*
X1178790Y619980D02*
X1171270D01*
Y613710D01*
X1178790D01*
Y619980D01*
D02*
G37*
G36*
X1168730D02*
X1161210D01*
Y613710D01*
X1168730D01*
Y619980D01*
D02*
G37*
G36*
X955368Y625790D02*
X947099D01*
Y612520D01*
X955368D01*
Y625790D01*
D02*
G37*
G36*
X944559D02*
X936289D01*
Y612520D01*
X944559D01*
Y625790D01*
D02*
G37*
G36*
X578998Y611230D02*
X565728D01*
Y602960D01*
X578998D01*
Y611230D01*
D02*
G37*
G36*
X563188D02*
X549918D01*
Y602960D01*
X563188D01*
Y611230D01*
D02*
G37*
G36*
X1037190Y638547D02*
X1033661Y638200D01*
X1030268Y637170D01*
X1027141Y635499D01*
X1024400Y633250D01*
X1022151Y630509D01*
X1020480Y627382D01*
X1019450Y623989D01*
X1019103Y620460D01*
X1019450Y616931D01*
X1020480Y613538D01*
X1022151Y610411D01*
X1024400Y607671D01*
X1027141Y605421D01*
X1030268Y603750D01*
X1033661Y602720D01*
X1037190Y602373D01*
X1040719Y602720D01*
X1044112Y603750D01*
X1047239Y605421D01*
X1049979Y607671D01*
X1052229Y610411D01*
X1053900Y613538D01*
X1054930Y616931D01*
X1055277Y620460D01*
X1054930Y623989D01*
X1053900Y627382D01*
X1052229Y630509D01*
X1049979Y633250D01*
X1047239Y635499D01*
X1044112Y637170D01*
X1040719Y638200D01*
X1037190Y638547D01*
D02*
G37*
G36*
X178190D02*
X174661Y638200D01*
X171268Y637170D01*
X168141Y635499D01*
X165401Y633250D01*
X163151Y630509D01*
X161480Y627382D01*
X160450Y623989D01*
X160103Y620460D01*
X160450Y616931D01*
X161480Y613538D01*
X163151Y610411D01*
X165401Y607671D01*
X168141Y605421D01*
X171268Y603750D01*
X174661Y602720D01*
X178190Y602373D01*
X181719Y602720D01*
X185112Y603750D01*
X188239Y605421D01*
X190979Y607671D01*
X193229Y610411D01*
X194900Y613538D01*
X195930Y616931D01*
X196277Y620460D01*
X195930Y623989D01*
X194900Y627382D01*
X193229Y630509D01*
X190979Y633250D01*
X188239Y635499D01*
X185112Y637170D01*
X181719Y638200D01*
X178190Y638547D01*
D02*
G37*
G36*
X955368Y609980D02*
X947099D01*
Y596710D01*
X955368D01*
Y609980D01*
D02*
G37*
G36*
X944559D02*
X936289D01*
Y596710D01*
X944559D01*
Y609980D01*
D02*
G37*
G36*
X760290Y602540D02*
X752770D01*
Y596270D01*
X760290D01*
Y602540D01*
D02*
G37*
G36*
X750230D02*
X742710D01*
Y596270D01*
X750230D01*
Y602540D01*
D02*
G37*
G36*
X736290Y602540D02*
X728770D01*
Y596270D01*
X736290D01*
Y602540D01*
D02*
G37*
G36*
X726230D02*
X718710D01*
Y596270D01*
X726230D01*
Y602540D01*
D02*
G37*
G36*
X1155750Y608250D02*
X1139250D01*
Y594250D01*
X1144447D01*
Y544690D01*
X1142005D01*
X1140309Y544467D01*
X1138727Y543812D01*
X1137370Y542770D01*
X1136328Y541412D01*
X1135673Y539831D01*
X1135449Y538134D01*
Y529134D01*
X1135673Y527437D01*
X1136328Y525856D01*
X1137370Y524498D01*
X1138727Y523456D01*
X1140309Y522801D01*
X1142005Y522578D01*
X1153005D01*
X1154702Y522801D01*
X1156283Y523456D01*
X1157641Y524498D01*
X1158683Y525856D01*
X1159338Y527437D01*
X1159561Y529134D01*
Y538134D01*
X1159338Y539831D01*
X1158683Y541412D01*
X1157641Y542770D01*
X1156283Y543812D01*
X1154702Y544467D01*
X1153005Y544690D01*
X1150564D01*
Y594250D01*
X1155750D01*
Y598191D01*
X1161750D01*
Y594250D01*
X1178250D01*
Y608250D01*
X1161750D01*
Y604309D01*
X1155750D01*
Y608250D01*
D02*
G37*
G36*
X736290Y593730D02*
X728770D01*
Y587460D01*
X736290D01*
Y593730D01*
D02*
G37*
G36*
X726230D02*
X718710D01*
Y587460D01*
X726230D01*
Y593730D01*
D02*
G37*
G36*
X760290Y593730D02*
X752770D01*
Y587460D01*
X760290D01*
Y593730D01*
D02*
G37*
G36*
X750230D02*
X742710D01*
Y587460D01*
X750230D01*
Y593730D01*
D02*
G37*
G36*
X712540Y587040D02*
X699270D01*
Y578770D01*
X712540D01*
Y587040D01*
D02*
G37*
G36*
X696730D02*
X683460D01*
Y578770D01*
X696730D01*
Y587040D01*
D02*
G37*
G36*
X679750Y625750D02*
X585750D01*
Y581750D01*
X625690D01*
Y545750D01*
X625750Y545291D01*
Y531750D01*
X626632D01*
Y489598D01*
X476250D01*
X474299Y489210D01*
X472645Y488105D01*
X260895Y276355D01*
X259790Y274701D01*
X259402Y272750D01*
Y170250D01*
X259790Y168299D01*
X260895Y166645D01*
X278902Y148638D01*
Y134878D01*
X277745Y134105D01*
X276640Y132451D01*
X276252Y130500D01*
Y106500D01*
X276640Y104549D01*
X277745Y102895D01*
X279399Y101790D01*
X281350Y101402D01*
X287350D01*
X289301Y101790D01*
X290955Y102895D01*
X292060Y104549D01*
X292448Y106500D01*
Y130500D01*
X292060Y132451D01*
X290955Y134105D01*
X289301Y135210D01*
X289098Y135250D01*
Y150750D01*
X288710Y152701D01*
X287605Y154355D01*
X269598Y172362D01*
Y270638D01*
X478362Y479402D01*
X633250D01*
X634216Y479594D01*
X634618Y479514D01*
X752112D01*
X754063Y479902D01*
X755717Y481007D01*
X824511Y549801D01*
X905345D01*
Y547899D01*
X921845D01*
Y549652D01*
X928066D01*
Y547899D01*
X944566D01*
Y549652D01*
X949909D01*
Y547899D01*
X966409D01*
Y549652D01*
X972589D01*
Y547899D01*
X989089D01*
Y561899D01*
X985927D01*
Y580822D01*
X1012750D01*
Y574400D01*
X1031676D01*
X1031720Y574391D01*
X1031722Y574392D01*
X1031822Y574322D01*
X1031831Y574309D01*
X1031853Y574240D01*
X1032515Y573491D01*
X1032538Y573130D01*
X1030457Y571292D01*
X1029548Y570590D01*
X1028736Y570037D01*
X1028054Y569649D01*
X1027530Y569420D01*
X1027200Y569330D01*
X1027099Y569325D01*
X1026864Y569377D01*
X1026841Y569378D01*
X1025991Y569730D01*
X1023250Y570091D01*
X1020509Y569730D01*
X1017955Y568672D01*
X1015761Y566989D01*
X1014078Y564795D01*
X1013020Y562241D01*
X1012659Y559500D01*
X1013020Y556759D01*
X1014078Y554205D01*
X1015761Y552011D01*
X1017955Y550328D01*
X1020509Y549270D01*
X1023250Y548909D01*
X1025991Y549270D01*
X1028545Y550328D01*
X1030739Y552011D01*
X1032422Y554205D01*
X1033480Y556759D01*
X1033841Y559500D01*
X1033480Y562241D01*
X1033128Y563091D01*
X1033127Y563114D01*
X1033074Y563349D01*
X1033080Y563450D01*
X1033170Y563780D01*
X1033399Y564304D01*
X1033788Y564986D01*
X1034313Y565758D01*
X1036988Y568908D01*
X1037128Y569053D01*
X1037267Y569191D01*
X1041945D01*
X1042377Y567921D01*
X1042077Y567691D01*
X1041161Y566989D01*
X1039478Y564795D01*
X1038420Y562241D01*
X1038059Y559500D01*
X1038420Y556759D01*
X1039478Y554205D01*
X1041161Y552011D01*
X1042077Y551309D01*
D01*
X1042377Y551079D01*
X1041945Y549809D01*
X1041500D01*
X1040330Y549576D01*
X1039337Y548913D01*
X1039337Y548913D01*
X1034087Y543663D01*
X1033424Y542671D01*
X1033191Y541500D01*
X1033191Y541500D01*
Y540479D01*
X1031921Y540047D01*
X1031590Y540479D01*
X1030739Y541589D01*
X1028545Y543272D01*
X1025991Y544330D01*
X1023250Y544691D01*
X1020509Y544330D01*
X1017955Y543272D01*
X1015761Y541589D01*
X1014078Y539395D01*
X1013020Y536841D01*
X1012659Y534100D01*
X1013020Y531359D01*
X1014078Y528805D01*
X1015761Y526611D01*
X1017955Y524928D01*
X1020509Y523870D01*
X1023250Y523509D01*
X1025991Y523870D01*
X1028545Y524928D01*
X1030739Y526611D01*
X1031691Y527853D01*
X1031921Y528153D01*
X1033191Y527721D01*
Y521517D01*
X1033054Y521380D01*
X1032986Y521313D01*
X1030982Y519545D01*
X1030165Y518918D01*
X1029450Y518438D01*
X1028873Y518118D01*
X1028468Y517952D01*
X1028392Y517935D01*
X1025991Y518930D01*
X1023250Y519291D01*
X1020509Y518930D01*
X1017955Y517872D01*
X1015761Y516189D01*
X1014078Y513995D01*
X1013020Y511441D01*
X1012659Y508700D01*
X1013020Y505959D01*
X1014078Y503405D01*
X1015761Y501211D01*
X1017955Y499528D01*
X1020509Y498470D01*
X1023250Y498109D01*
X1025991Y498470D01*
X1028545Y499528D01*
X1030739Y501211D01*
X1032422Y503405D01*
X1033480Y505959D01*
X1033841Y508700D01*
X1033480Y511441D01*
X1033399Y511636D01*
X1033408Y511703D01*
X1033518Y512037D01*
X1033767Y512551D01*
X1034167Y513210D01*
X1034693Y513954D01*
X1037284Y516958D01*
X1038413Y518087D01*
X1039076Y519080D01*
X1039309Y520250D01*
X1039309Y520250D01*
Y526562D01*
Y526939D01*
X1040579Y527370D01*
X1041161Y526611D01*
X1043355Y524928D01*
X1045909Y523870D01*
X1048650Y523509D01*
X1051391Y523870D01*
X1053945Y524928D01*
X1056139Y526611D01*
X1056306Y526830D01*
X1057033Y527470D01*
X1058081Y528170D01*
X1059338Y528812D01*
X1060810Y529387D01*
X1062497Y529886D01*
X1064398Y530303D01*
X1066487Y530628D01*
X1071382Y531013D01*
X1072999Y531041D01*
X1079633D01*
X1097691Y512983D01*
Y504486D01*
Y494044D01*
X1096518Y493558D01*
X1096305Y493770D01*
X1079213Y510863D01*
X1078221Y511526D01*
X1077050Y511759D01*
X1077050Y511759D01*
X1073592D01*
X1068811Y511933D01*
X1066510Y512169D01*
X1064398Y512497D01*
X1062497Y512914D01*
X1060810Y513413D01*
X1059338Y513988D01*
X1058081Y514630D01*
X1057033Y515330D01*
X1056306Y515970D01*
X1056139Y516189D01*
X1053945Y517872D01*
X1051391Y518930D01*
X1048650Y519291D01*
X1045909Y518930D01*
X1043355Y517872D01*
X1041161Y516189D01*
X1039478Y513995D01*
X1038420Y511441D01*
X1038059Y508700D01*
X1038420Y505959D01*
X1039478Y503405D01*
X1041161Y501211D01*
X1043355Y499528D01*
X1045909Y498470D01*
X1048650Y498109D01*
X1051391Y498470D01*
X1053945Y499528D01*
X1056139Y501211D01*
X1056306Y501430D01*
X1057033Y502070D01*
X1058081Y502770D01*
X1059338Y503412D01*
X1060810Y503987D01*
X1062497Y504486D01*
X1064398Y504903D01*
X1066487Y505228D01*
X1071382Y505613D01*
X1072999Y505641D01*
X1075783D01*
X1092941Y488483D01*
Y446044D01*
X1091768Y445558D01*
X1091555Y445770D01*
D01*
X1077263Y460063D01*
X1076271Y460726D01*
X1075100Y460959D01*
X1075100Y460959D01*
X1073592D01*
X1068811Y461133D01*
X1066510Y461369D01*
X1064398Y461697D01*
X1062497Y462114D01*
X1060810Y462613D01*
X1059338Y463188D01*
X1058081Y463830D01*
X1057033Y464529D01*
X1056306Y465170D01*
X1056139Y465389D01*
X1053945Y467072D01*
X1051391Y468130D01*
X1048650Y468491D01*
X1045909Y468130D01*
X1043355Y467072D01*
X1041161Y465389D01*
X1039478Y463195D01*
X1038420Y460641D01*
X1038059Y457900D01*
X1038420Y455159D01*
X1039478Y452605D01*
X1041033Y450579D01*
X1040724Y449309D01*
X1036167D01*
X1036027Y449449D01*
X1034422Y451245D01*
X1033835Y451988D01*
X1033379Y452640D01*
X1033065Y453168D01*
X1032895Y453539D01*
X1032864Y453646D01*
X1032871Y453669D01*
X1032872Y453692D01*
X1033480Y455159D01*
X1033841Y457900D01*
X1033480Y460641D01*
X1032422Y463195D01*
X1030739Y465389D01*
X1028545Y467072D01*
X1025991Y468130D01*
X1023250Y468491D01*
X1020509Y468130D01*
X1017955Y467072D01*
X1015761Y465389D01*
X1014078Y463195D01*
X1013020Y460641D01*
X1012659Y457900D01*
X1013020Y455159D01*
X1014078Y452605D01*
X1015761Y450411D01*
X1017955Y448728D01*
X1020509Y447670D01*
X1023250Y447309D01*
X1025991Y447670D01*
X1027458Y448278D01*
X1027481Y448279D01*
X1027504Y448286D01*
X1027611Y448255D01*
X1027982Y448084D01*
X1028510Y447771D01*
X1029125Y447340D01*
X1031719Y445105D01*
X1032737Y444087D01*
X1032737Y444087D01*
X1033729Y443424D01*
X1034900Y443191D01*
X1034900Y443191D01*
X1046346D01*
X1046429Y441921D01*
X1045170Y441755D01*
X1045170D01*
X1042859Y440798D01*
X1040874Y439275D01*
X1039352Y437291D01*
X1038394Y434980D01*
X1038068Y432500D01*
X1038394Y430020D01*
X1039352Y427709D01*
X1040874Y425724D01*
X1041091Y425559D01*
D01*
X1041390Y425329D01*
X1040959Y424059D01*
X1036017D01*
X1032469Y427606D01*
X1032548Y427709D01*
X1033505Y430020D01*
X1033832Y432500D01*
X1033505Y434980D01*
X1032548Y437291D01*
X1031025Y439275D01*
X1029041Y440798D01*
X1026730Y441755D01*
X1024250Y442082D01*
X1022250D01*
X1019770Y441755D01*
X1017459Y440798D01*
X1015474Y439275D01*
X1013952Y437291D01*
X1012995Y434980D01*
X1012668Y432500D01*
X1012995Y430020D01*
X1013952Y427709D01*
X1015474Y425724D01*
X1017459Y424202D01*
X1019770Y423245D01*
X1022250Y422918D01*
X1024250D01*
X1026730Y423245D01*
X1027747Y423666D01*
X1027821Y423603D01*
X1032587Y418837D01*
X1032587Y418837D01*
X1033579Y418174D01*
X1034750Y417941D01*
X1034750Y417941D01*
X1047624D01*
X1047650Y416682D01*
X1045170Y416356D01*
X1042859Y415398D01*
X1040874Y413875D01*
X1039352Y411891D01*
X1038394Y409580D01*
X1038068Y407100D01*
X1038394Y404620D01*
X1039352Y402309D01*
X1040874Y400325D01*
X1042859Y398802D01*
X1043397Y398579D01*
X1043145Y397309D01*
X1028755D01*
X1028503Y398579D01*
X1029041Y398802D01*
X1029891Y399454D01*
X1031025Y400325D01*
X1032548Y402309D01*
X1033505Y404620D01*
X1033832Y407100D01*
X1033505Y409580D01*
X1032548Y411891D01*
X1031025Y413875D01*
X1029041Y415398D01*
X1026730Y416356D01*
X1024250Y416682D01*
X1022250D01*
X1019770Y416356D01*
X1017459Y415398D01*
X1015474Y413875D01*
X1013952Y411891D01*
X1013234Y410159D01*
X940417D01*
X891134Y459441D01*
X890904Y459671D01*
X891431Y460941D01*
X904233D01*
X941264Y423910D01*
X942050Y423054D01*
X943390Y421418D01*
X943863Y420745D01*
X944234Y420137D01*
X944491Y419625D01*
X944641Y419226D01*
X944702Y418959D01*
X944706Y418872D01*
X944632Y418500D01*
X945098Y416159D01*
X946424Y414174D01*
X948409Y412848D01*
X950750Y412383D01*
X953091Y412848D01*
X955076Y414174D01*
X956402Y416159D01*
X956868Y418500D01*
X956402Y420841D01*
X955076Y422826D01*
X953091Y424152D01*
X950750Y424618D01*
X950609Y424590D01*
X950407Y424647D01*
X949990Y424823D01*
X949464Y425107D01*
X948846Y425502D01*
X948179Y425986D01*
X945644Y428182D01*
X907663Y466163D01*
X907246Y466441D01*
X906902Y466671D01*
X907059Y467804D01*
X907113Y467941D01*
X924483D01*
X962175Y430249D01*
X962954Y429402D01*
X964305Y427763D01*
X964788Y427083D01*
X965172Y426465D01*
X965444Y425939D01*
X965611Y425519D01*
X965682Y425246D01*
X965632Y425000D01*
X966098Y422659D01*
X967424Y420674D01*
X969409Y419348D01*
X971750Y418882D01*
X973901Y419310D01*
X974500Y419191D01*
X975670Y419424D01*
X976663Y420087D01*
X977326Y421079D01*
X977559Y422250D01*
X977440Y422849D01*
X977868Y425000D01*
X977402Y427341D01*
X976076Y429326D01*
X974091Y430652D01*
X971750Y431118D01*
X971504Y431068D01*
X971231Y431138D01*
X970811Y431306D01*
X970285Y431578D01*
X969667Y431962D01*
X969004Y432433D01*
X966464Y434612D01*
X927913Y473163D01*
X926920Y473826D01*
X925750Y474059D01*
X925750Y474059D01*
X490250D01*
X489079Y473826D01*
X488087Y473163D01*
X488087Y473163D01*
X307587Y292663D01*
X306924Y291670D01*
X306691Y290500D01*
X306691Y290500D01*
Y244098D01*
X305421Y243845D01*
X305232Y244302D01*
X303309Y246808D01*
X300802Y248732D01*
X297883Y249941D01*
X294750Y250354D01*
X291617Y249941D01*
X288698Y248732D01*
X286192Y246808D01*
X284268Y244302D01*
X283059Y241383D01*
X282647Y238250D01*
X283059Y235117D01*
X284268Y232198D01*
X286192Y229692D01*
X288698Y227768D01*
X291617Y226559D01*
X294750Y226147D01*
X297883Y226559D01*
X300802Y227768D01*
X303309Y229692D01*
X304894Y231758D01*
X305232Y232198D01*
X305421Y232655D01*
X306691Y232402D01*
Y185300D01*
X305935Y184343D01*
X305935D01*
D01*
X305895D01*
X305421Y184343D01*
X298415D01*
Y176803D01*
Y169263D01*
X305421D01*
X305877Y169263D01*
X305935D01*
D01*
X305935D01*
X306691Y168306D01*
Y135586D01*
X304799Y135210D01*
X303145Y134105D01*
X302040Y132451D01*
X301652Y130500D01*
Y106500D01*
X302040Y104549D01*
X303145Y102895D01*
X304799Y101790D01*
X306750Y101402D01*
X312750D01*
X314701Y101790D01*
X316355Y102895D01*
X317460Y104549D01*
X317848Y106500D01*
Y130500D01*
X317460Y132451D01*
X316355Y134105D01*
X314701Y135210D01*
X312809Y135586D01*
Y289233D01*
X330645Y307069D01*
D01*
X330876Y307300D01*
X331663Y307041D01*
X332091Y306719D01*
Y135586D01*
X330199Y135210D01*
X328545Y134105D01*
X327440Y132451D01*
X327052Y130500D01*
Y106500D01*
X327440Y104549D01*
X328545Y102895D01*
X330199Y101790D01*
X332150Y101402D01*
X338150D01*
X340101Y101790D01*
X341755Y102895D01*
X342860Y104549D01*
X342941Y104958D01*
X343171Y106114D01*
X344441Y105989D01*
Y102017D01*
X332987Y90563D01*
X332324Y89571D01*
X332091Y88400D01*
X332091Y88400D01*
Y80186D01*
X330199Y79810D01*
X328545Y78705D01*
X327440Y77051D01*
X327052Y75100D01*
Y51100D01*
X327440Y49149D01*
X328545Y47495D01*
X330199Y46390D01*
X332150Y46002D01*
X338150D01*
X340101Y46390D01*
X341755Y47495D01*
X342860Y49149D01*
X343248Y51100D01*
Y75100D01*
X342860Y77051D01*
X341755Y78705D01*
X340101Y79810D01*
X338209Y80186D01*
Y87133D01*
X349663Y98587D01*
X350326Y99579D01*
X350559Y100750D01*
X350559Y100750D01*
Y309483D01*
X356221Y315145D01*
X357491Y314619D01*
Y135586D01*
X355599Y135210D01*
X353945Y134105D01*
X352840Y132451D01*
X352452Y130500D01*
Y106500D01*
X352840Y104549D01*
X353945Y102895D01*
X355599Y101790D01*
X357550Y101402D01*
X363550D01*
X365501Y101790D01*
X367155Y102895D01*
X367172Y102921D01*
X367671Y103668D01*
X368941Y103283D01*
Y99767D01*
X358387Y89213D01*
X357724Y88221D01*
X357491Y87050D01*
X357491Y87050D01*
Y80186D01*
X355599Y79810D01*
X353945Y78705D01*
X352840Y77051D01*
X352452Y75100D01*
Y51100D01*
X352840Y49149D01*
X353945Y47495D01*
X355599Y46390D01*
X357550Y46002D01*
X363550D01*
X365501Y46390D01*
X367155Y47495D01*
X368260Y49149D01*
X368648Y51100D01*
Y75100D01*
X368260Y77051D01*
X367155Y78705D01*
X365501Y79810D01*
X363609Y80186D01*
Y85783D01*
X374163Y96337D01*
X374826Y97329D01*
X375059Y98500D01*
Y315983D01*
X381632Y322556D01*
X381786Y322473D01*
X381848Y322464D01*
X381883Y322421D01*
X383014Y321817D01*
X382891Y321200D01*
X382891Y321200D01*
Y135586D01*
X380999Y135210D01*
X379345Y134105D01*
X378240Y132451D01*
X377852Y130500D01*
Y106500D01*
X378240Y104549D01*
X379345Y102895D01*
X380999Y101790D01*
X382950Y101402D01*
X388950D01*
X390901Y101790D01*
X392555Y102895D01*
X393441Y104222D01*
X393660Y104549D01*
X393671Y104606D01*
X394941Y104481D01*
Y100267D01*
X383787Y89113D01*
X383124Y88121D01*
X382891Y86950D01*
X382891Y86950D01*
Y80186D01*
X380999Y79810D01*
X379345Y78705D01*
X378240Y77051D01*
X377852Y75100D01*
Y51100D01*
X378240Y49149D01*
X379345Y47495D01*
X380999Y46390D01*
X382950Y46002D01*
X388950D01*
X390901Y46390D01*
X392555Y47495D01*
X393660Y49149D01*
X394048Y51100D01*
Y75100D01*
X393660Y77051D01*
X392555Y78705D01*
X390901Y79810D01*
X389009Y80186D01*
Y85683D01*
X400163Y96837D01*
X400163Y96837D01*
X400826Y97830D01*
X401059Y99000D01*
X401059Y99000D01*
Y322733D01*
X505767Y427441D01*
X508433D01*
X508559Y426171D01*
X508079Y426076D01*
X507087Y425413D01*
X507087Y425413D01*
X409087Y327413D01*
X408424Y326421D01*
X408191Y325250D01*
X408191Y325250D01*
Y135566D01*
X406399Y135210D01*
X404745Y134105D01*
X403640Y132451D01*
X403252Y130500D01*
Y106500D01*
X403640Y104549D01*
X404745Y102895D01*
X406399Y101790D01*
X408350Y101402D01*
X414350D01*
X416301Y101790D01*
X417955Y102895D01*
X418691Y103997D01*
X418921Y104342D01*
X419858Y104254D01*
X420191Y104130D01*
Y99517D01*
X409187Y88513D01*
X408524Y87521D01*
X408291Y86350D01*
X408291Y86350D01*
Y80186D01*
X406399Y79810D01*
X404745Y78705D01*
X403640Y77051D01*
X403252Y75100D01*
Y51100D01*
X403640Y49149D01*
X404745Y47495D01*
X406399Y46390D01*
X408350Y46002D01*
X414350D01*
X416301Y46390D01*
X417955Y47495D01*
X419060Y49149D01*
X419448Y51100D01*
Y75100D01*
X419060Y77051D01*
X417955Y78705D01*
X416301Y79810D01*
X414409Y80186D01*
Y85083D01*
X425413Y96087D01*
X425413Y96087D01*
X426076Y97079D01*
X426309Y98250D01*
X426309Y98250D01*
Y323983D01*
X511314Y408988D01*
X511884Y409558D01*
X512870Y408749D01*
X512598Y408341D01*
X512132Y406000D01*
X512182Y405754D01*
X512112Y405481D01*
X511944Y405061D01*
X511672Y404535D01*
X511288Y403917D01*
X510817Y403254D01*
X508638Y400714D01*
X434587Y326663D01*
X433924Y325671D01*
X433691Y324500D01*
X433691Y324500D01*
Y135586D01*
X431799Y135210D01*
X430145Y134105D01*
X429040Y132451D01*
X428652Y130500D01*
Y106500D01*
X429040Y104549D01*
X430145Y102895D01*
X431799Y101790D01*
X433750Y101402D01*
X439750D01*
X441701Y101790D01*
X443355Y102895D01*
X444321Y104342D01*
X444460Y104549D01*
X444671Y105611D01*
X445941Y105486D01*
Y99517D01*
X434587Y88163D01*
X433924Y87170D01*
X433691Y86000D01*
X433691Y86000D01*
Y80186D01*
X431799Y79810D01*
X430145Y78705D01*
X429040Y77051D01*
X428652Y75100D01*
Y51100D01*
X429040Y49149D01*
X430145Y47495D01*
X431799Y46390D01*
X433750Y46002D01*
X439750D01*
X441701Y46390D01*
X443355Y47495D01*
X444460Y49149D01*
X444848Y51100D01*
Y75100D01*
X444460Y77051D01*
X443355Y78705D01*
X441701Y79810D01*
X439809Y80186D01*
Y84733D01*
X451163Y96087D01*
X451826Y97079D01*
X452059Y98250D01*
Y324733D01*
X457871Y330545D01*
X458025Y330462D01*
X458087Y330453D01*
X458122Y330410D01*
X459253Y329806D01*
X459130Y329189D01*
Y329189D01*
D01*
X459130Y329189D01*
Y135586D01*
X457238Y135210D01*
X455584Y134105D01*
X454479Y132451D01*
X454091Y130500D01*
Y106500D01*
X454479Y104549D01*
X455584Y102895D01*
X457238Y101790D01*
X459189Y101402D01*
X465189D01*
X467140Y101790D01*
X468794Y102895D01*
X469899Y104549D01*
X470191Y106018D01*
X470287Y106500D01*
Y130500D01*
X469899Y132451D01*
X468794Y134105D01*
X467140Y135210D01*
X465248Y135586D01*
Y327922D01*
X522566Y385241D01*
X522819Y385191D01*
X523237Y383812D01*
X472587Y333163D01*
X471924Y332170D01*
X471691Y331000D01*
X471691Y331000D01*
Y100267D01*
X460026Y88602D01*
X459363Y87610D01*
X459130Y86439D01*
X459130Y86439D01*
Y80186D01*
X457238Y79810D01*
X455584Y78705D01*
X454479Y77051D01*
X454091Y75100D01*
Y51100D01*
X454479Y49149D01*
X455584Y47495D01*
X457238Y46390D01*
X459189Y46002D01*
X465189D01*
X467140Y46390D01*
X468794Y47495D01*
X469899Y49149D01*
X470287Y51100D01*
Y75100D01*
X469899Y77051D01*
X468794Y78705D01*
X467140Y79810D01*
X465248Y80186D01*
Y85172D01*
X476913Y96837D01*
X476913Y96837D01*
X477576Y97830D01*
X477809Y99000D01*
X477809Y99000D01*
Y329733D01*
X483146Y335071D01*
D01*
X483439Y335363D01*
X484610Y334738D01*
X484530Y334339D01*
X484530Y334339D01*
Y135586D01*
X482638Y135210D01*
X480984Y134105D01*
X479879Y132451D01*
X479491Y130500D01*
Y106500D01*
X479879Y104549D01*
X480984Y102895D01*
X482638Y101790D01*
X484589Y101402D01*
X490589D01*
X492540Y101790D01*
X494194Y102895D01*
X495299Y104549D01*
X495441Y105264D01*
X495687Y106500D01*
X496941Y106462D01*
Y96517D01*
X485426Y85002D01*
X484763Y84010D01*
X484530Y82839D01*
X484530Y82839D01*
Y80186D01*
X482638Y79810D01*
X480984Y78705D01*
X479879Y77051D01*
X479491Y75100D01*
Y51100D01*
X479879Y49149D01*
X480984Y47495D01*
X482638Y46390D01*
X484589Y46002D01*
X490589D01*
X492540Y46390D01*
X494194Y47495D01*
X495299Y49149D01*
X495687Y51100D01*
Y75100D01*
X495299Y77051D01*
X494194Y78705D01*
X492540Y79810D01*
X490834Y80149D01*
X490648Y80186D01*
Y81572D01*
X491226Y82150D01*
X502163Y93087D01*
X502163Y93087D01*
X502826Y94080D01*
X503059Y95250D01*
Y336983D01*
X528267Y362191D01*
X832983D01*
X904587Y290587D01*
X904587Y290587D01*
X905579Y289924D01*
X906750Y289691D01*
X1016415D01*
X1016846Y288421D01*
X1015761Y287589D01*
X1014078Y285395D01*
X1013020Y282841D01*
X1012659Y280100D01*
X1013020Y277359D01*
X1014078Y274805D01*
X1015761Y272611D01*
X1017955Y270928D01*
X1020509Y269870D01*
X1023250Y269509D01*
X1025991Y269870D01*
X1028545Y270928D01*
X1030739Y272611D01*
X1032422Y274805D01*
X1033480Y277359D01*
X1033841Y280100D01*
X1033480Y282841D01*
X1032422Y285395D01*
X1030739Y287589D01*
X1029953Y288191D01*
X1029654Y288421D01*
X1030085Y289691D01*
X1041815D01*
X1042246Y288421D01*
X1041161Y287589D01*
X1039478Y285395D01*
X1038420Y282841D01*
X1038059Y280100D01*
X1038420Y277359D01*
X1039478Y274805D01*
X1041161Y272611D01*
X1043355Y270928D01*
X1045909Y269870D01*
X1048650Y269509D01*
X1051391Y269870D01*
X1053945Y270928D01*
X1056139Y272611D01*
X1057822Y274805D01*
X1057879Y274944D01*
X1057975Y275070D01*
X1058315Y275354D01*
X1058884Y275680D01*
X1059694Y276008D01*
X1060741Y276312D01*
X1062014Y276573D01*
X1063485Y276780D01*
X1067139Y277030D01*
X1067925Y277041D01*
X1069230D01*
X1069231Y277041D01*
X1070401Y277274D01*
X1071394Y277937D01*
X1074369Y280913D01*
X1078018Y284562D01*
X1079191Y284076D01*
Y283775D01*
X1079191Y102394D01*
Y96267D01*
X1053733Y70809D01*
X849446D01*
X849061Y72079D01*
X850326Y72924D01*
X851652Y74909D01*
X852117Y77250D01*
X851652Y79591D01*
X850326Y81576D01*
X848341Y82902D01*
X846000Y83368D01*
X843659Y82902D01*
X841674Y81576D01*
X841535Y81367D01*
X841292Y81223D01*
X840877Y81045D01*
X840312Y80865D01*
X839605Y80700D01*
X838802Y80564D01*
X835465Y80309D01*
X769267D01*
X754059Y95517D01*
Y315250D01*
X753826Y316421D01*
X753163Y317413D01*
X753163Y317413D01*
X733913Y336663D01*
X732921Y337326D01*
X731750Y337559D01*
X731750Y337559D01*
X636000D01*
X636000Y337559D01*
X634829Y337326D01*
X633837Y336663D01*
X633837Y336663D01*
X621587Y324413D01*
X620924Y323421D01*
X620691Y322250D01*
X620691Y322250D01*
Y293017D01*
X616553Y288879D01*
X609970D01*
X609605Y289425D01*
X607951Y290530D01*
X606000Y290918D01*
X593500D01*
X591549Y290530D01*
X589895Y289425D01*
X588790Y287771D01*
X588402Y285820D01*
X588790Y283869D01*
X589895Y282215D01*
X591549Y281110D01*
X593500Y280722D01*
X606000D01*
X607951Y281110D01*
X609605Y282215D01*
X609970Y282761D01*
X617820D01*
X617820Y282761D01*
X618991Y282994D01*
X619983Y283657D01*
X625913Y289587D01*
X625913Y289587D01*
X626576Y290579D01*
X626809Y291750D01*
X626809Y291750D01*
Y320983D01*
X637267Y331441D01*
X730483D01*
X747941Y313983D01*
Y94250D01*
X747941Y94250D01*
X748174Y93080D01*
X748837Y92087D01*
X765837Y75087D01*
X766830Y74424D01*
X768000Y74191D01*
X768000Y74191D01*
X835517D01*
X836668Y74143D01*
X838782Y73939D01*
X839605Y73800D01*
X840312Y73634D01*
X840877Y73455D01*
X841292Y73276D01*
X841535Y73133D01*
X841674Y72924D01*
X842940Y72079D01*
X842554Y70809D01*
X761017D01*
X746059Y85767D01*
Y138750D01*
X746059Y138750D01*
X745826Y139921D01*
X745163Y140913D01*
X745163Y140913D01*
X732913Y153163D01*
X731920Y153826D01*
X730750Y154059D01*
X730750Y154059D01*
X639000D01*
X637829Y153826D01*
X636837Y153163D01*
X636837Y153163D01*
X625087Y141413D01*
X624424Y140421D01*
X624191Y139250D01*
X624191Y139250D01*
Y97517D01*
X612426Y85752D01*
X611763Y84760D01*
X611530Y83589D01*
X611530Y83589D01*
Y80186D01*
X609638Y79810D01*
X607984Y78705D01*
X606879Y77051D01*
X606559Y75440D01*
D01*
X606491Y75100D01*
Y51100D01*
X606559Y50760D01*
X606716Y49968D01*
X606879Y49149D01*
X607984Y47495D01*
X609638Y46390D01*
X611589Y46002D01*
X617589D01*
X619540Y46390D01*
X621194Y47495D01*
X622299Y49149D01*
X622687Y51100D01*
Y75100D01*
X622299Y77051D01*
X621194Y78705D01*
X619540Y79810D01*
X617648Y80186D01*
Y82322D01*
X629413Y94087D01*
X629413Y94087D01*
X630076Y95079D01*
X630309Y96250D01*
Y137983D01*
X640267Y147941D01*
X658089D01*
X658474Y146671D01*
X658087Y146413D01*
X658087Y146413D01*
X650837Y139163D01*
X650174Y138170D01*
X649941Y137000D01*
X649941Y137000D01*
Y96267D01*
X637837Y84163D01*
X637174Y83170D01*
X636941Y82000D01*
X636941Y82000D01*
Y80189D01*
X635038Y79810D01*
X633384Y78705D01*
X632279Y77051D01*
X632079Y76043D01*
X630809Y76168D01*
Y77345D01*
Y81733D01*
X642152Y93076D01*
X642152Y93076D01*
X642815Y94068D01*
X643048Y95239D01*
Y101414D01*
X644940Y101790D01*
X646594Y102895D01*
X647699Y104549D01*
X648087Y106500D01*
Y130500D01*
X647699Y132451D01*
X646594Y134105D01*
X644940Y135210D01*
X642989Y135598D01*
X636989D01*
X635038Y135210D01*
X633384Y134105D01*
X632279Y132451D01*
X631891Y130500D01*
Y106500D01*
X632279Y104549D01*
X633384Y102895D01*
X635038Y101790D01*
X636930Y101414D01*
Y96506D01*
X625587Y85163D01*
X624924Y84171D01*
X624691Y83000D01*
X624691Y83000D01*
Y27500D01*
X624691Y27500D01*
X624924Y26330D01*
X625587Y25337D01*
X636846Y14079D01*
X636319Y12809D01*
X593767D01*
X589989Y16587D01*
X590614Y17758D01*
X591020Y17677D01*
D01*
X592500Y17383D01*
X594841Y17848D01*
X596826Y19174D01*
X598152Y21159D01*
X598618Y23500D01*
X598152Y25841D01*
X596826Y27826D01*
X594841Y29152D01*
X592500Y29618D01*
X590159Y29152D01*
X588174Y27826D01*
X586848Y25841D01*
X586382Y23500D01*
X586758Y21614D01*
X585587Y20989D01*
X584326Y22250D01*
X579309Y27267D01*
Y83733D01*
X591352Y95776D01*
X591352Y95776D01*
X592015Y96769D01*
X592248Y97939D01*
X592248Y97939D01*
Y101414D01*
X594140Y101790D01*
X595794Y102895D01*
X596899Y104549D01*
X597287Y106500D01*
Y130500D01*
X596899Y132451D01*
X595794Y134105D01*
X594140Y135210D01*
X592189Y135598D01*
X586189D01*
X584238Y135210D01*
X582584Y134105D01*
X581479Y132451D01*
X581091Y130500D01*
Y106500D01*
X581479Y104549D01*
X582584Y102895D01*
X584238Y101790D01*
X586130Y101414D01*
Y99206D01*
X574087Y87163D01*
X573424Y86171D01*
X573191Y85000D01*
X573191Y85000D01*
Y26000D01*
X573191Y26000D01*
X573424Y24829D01*
X574087Y23837D01*
X590337Y7587D01*
X590337Y7587D01*
X591329Y6924D01*
X592500Y6691D01*
X592500Y6691D01*
X1066250D01*
X1066250Y6691D01*
X1067421Y6924D01*
X1068413Y7587D01*
X1126163Y65337D01*
X1126163Y65337D01*
X1126826Y66329D01*
X1127059Y67500D01*
Y423968D01*
X1127794Y424669D01*
X1129180Y425832D01*
X1129726Y426230D01*
X1130195Y426527D01*
X1130550Y426712D01*
X1130757Y426790D01*
X1130771Y426793D01*
X1130890Y426788D01*
X1130890Y426788D01*
X1130890Y426788D01*
X1130890Y426788D01*
X1130935Y426795D01*
X1131750Y426632D01*
X1134091Y427098D01*
X1136076Y428424D01*
X1137402Y430409D01*
X1137868Y432750D01*
X1137402Y435091D01*
X1136076Y437076D01*
X1134091Y438402D01*
X1131750Y438868D01*
X1129409Y438402D01*
X1127424Y437076D01*
X1126098Y435091D01*
X1125632Y432750D01*
X1125730Y432262D01*
X1125729Y432244D01*
X1125712Y432176D01*
X1125607Y431927D01*
X1125395Y431542D01*
X1125071Y431050D01*
X1124660Y430498D01*
X1123809Y429529D01*
X1123579Y429268D01*
X1122309Y429747D01*
Y455956D01*
X1123482Y456442D01*
X1144087Y435837D01*
X1145079Y435174D01*
X1146250Y434941D01*
X1146250Y434941D01*
X1188233D01*
X1201541Y421633D01*
Y421570D01*
X1201530Y420811D01*
X1201285Y417187D01*
X1201083Y415747D01*
X1200829Y414514D01*
X1200536Y413521D01*
X1200226Y412779D01*
X1199934Y412296D01*
X1199709Y412051D01*
X1199333Y411807D01*
X1198548Y411482D01*
X1196041Y409558D01*
X1194118Y407052D01*
X1192909Y404133D01*
X1192496Y401000D01*
X1192700Y399454D01*
X1192813Y398597D01*
X1192909Y397867D01*
X1194118Y394948D01*
X1196041Y392441D01*
X1198548Y390518D01*
X1201467Y389309D01*
X1204600Y388896D01*
X1207733Y389309D01*
X1210652Y390518D01*
X1213158Y392441D01*
X1215082Y394948D01*
X1216291Y397867D01*
X1216544Y399785D01*
D01*
X1216584Y400096D01*
X1216660Y400666D01*
X1217940D01*
X1218016Y400096D01*
X1218056Y399785D01*
D01*
X1218309Y397867D01*
X1219518Y394948D01*
X1221441Y392441D01*
X1223948Y390518D01*
X1226867Y389309D01*
X1230000Y388896D01*
X1233133Y389309D01*
X1236052Y390518D01*
X1238559Y392441D01*
X1240482Y394948D01*
X1241691Y397867D01*
X1241944Y399785D01*
D01*
X1241984Y400096D01*
X1242060Y400666D01*
X1243340D01*
X1243416Y400096D01*
X1243456Y399785D01*
D01*
X1243709Y397867D01*
X1244918Y394948D01*
X1246842Y392441D01*
X1249348Y390518D01*
X1252267Y389309D01*
X1255400Y388896D01*
X1258533Y389309D01*
X1261452Y390518D01*
X1263959Y392441D01*
X1265882Y394948D01*
X1267091Y397867D01*
Y397867D01*
X1267187Y398597D01*
X1268468D01*
X1268583Y397726D01*
X1269846Y394676D01*
X1271856Y392056D01*
X1274476Y390046D01*
X1277526Y388783D01*
X1279530Y388519D01*
Y401000D01*
Y413481D01*
X1277526Y413217D01*
X1274476Y411954D01*
X1271856Y409944D01*
X1269846Y407324D01*
X1268668Y404480D01*
X1268583Y404274D01*
X1268468Y403403D01*
X1267187D01*
X1267091Y404133D01*
Y404133D01*
D01*
X1265882Y407052D01*
X1263959Y409558D01*
X1261452Y411482D01*
X1258533Y412691D01*
X1255400Y413104D01*
X1252267Y412691D01*
X1249348Y411482D01*
X1246842Y409558D01*
X1244918Y407052D01*
X1243709Y404133D01*
X1243456Y402216D01*
D01*
X1243416Y401904D01*
X1243340Y401335D01*
X1242060D01*
X1241984Y401904D01*
X1241944Y402216D01*
D01*
X1241691Y404133D01*
X1240482Y407052D01*
X1238559Y409558D01*
X1237854Y410099D01*
X1237829Y410136D01*
X1237824Y410140D01*
X1237820Y410145D01*
X1236910Y411043D01*
X1236171Y412047D01*
X1235483Y413302D01*
X1234862Y414816D01*
X1234320Y416590D01*
X1233866Y418622D01*
X1233512Y420883D01*
X1233320Y423335D01*
X1233450Y424104D01*
X1233616Y424813D01*
X1233795Y425378D01*
X1233974Y425792D01*
X1234117Y426035D01*
X1234326Y426174D01*
X1235652Y428159D01*
X1236117Y430500D01*
X1236068Y430746D01*
X1236138Y431019D01*
X1236306Y431439D01*
X1236578Y431965D01*
X1236962Y432583D01*
X1237433Y433246D01*
X1239612Y435786D01*
X1242267Y438441D01*
X1346233D01*
X1350654Y434020D01*
X1350131Y432750D01*
X1345833D01*
Y418750D01*
X1362333D01*
Y422691D01*
X1367500D01*
Y418750D01*
X1384000D01*
Y432750D01*
X1367500D01*
Y428809D01*
X1362333D01*
Y432750D01*
X1357142D01*
Y434917D01*
X1356909Y436087D01*
X1356246Y437080D01*
X1356246Y437080D01*
X1349663Y443663D01*
X1348671Y444326D01*
X1347500Y444559D01*
X1347500Y444559D01*
X1241000D01*
X1241000Y444559D01*
X1239829Y444326D01*
X1238837Y443663D01*
X1235249Y440075D01*
X1234402Y439296D01*
X1232762Y437945D01*
X1232083Y437462D01*
X1231465Y437078D01*
X1230939Y436806D01*
X1230519Y436638D01*
X1230246Y436568D01*
X1230000Y436618D01*
X1227659Y436152D01*
X1225674Y434826D01*
X1224348Y432841D01*
X1223882Y430500D01*
X1224348Y428159D01*
X1225674Y426174D01*
X1225883Y426035D01*
X1226026Y425792D01*
X1226205Y425378D01*
X1226384Y424812D01*
X1226550Y424105D01*
X1226686Y423302D01*
X1226708Y423017D01*
X1226492Y420907D01*
X1226134Y418622D01*
X1225680Y416590D01*
X1225138Y414816D01*
X1224517Y413302D01*
X1223829Y412047D01*
X1223090Y411043D01*
X1222180Y410145D01*
X1222176Y410140D01*
X1222171Y410136D01*
X1222146Y410099D01*
X1221441Y409558D01*
X1219518Y407052D01*
X1218309Y404133D01*
X1218056Y402216D01*
D01*
X1218016Y401904D01*
X1217940Y401335D01*
X1216660D01*
X1216584Y401904D01*
X1216544Y402216D01*
D01*
X1216291Y404133D01*
X1215082Y407052D01*
X1213158Y409558D01*
X1210652Y411482D01*
X1209867Y411807D01*
X1209491Y412051D01*
X1209266Y412296D01*
X1208974Y412779D01*
X1208664Y413520D01*
X1208371Y414514D01*
X1208117Y415747D01*
X1207915Y417187D01*
X1207670Y420811D01*
X1207659Y421570D01*
Y422900D01*
X1207659Y422900D01*
X1207426Y424071D01*
X1206763Y425063D01*
X1191663Y440163D01*
X1190670Y440826D01*
X1189500Y441059D01*
X1189500Y441059D01*
X1147517D01*
X1127059Y461517D01*
Y495244D01*
Y495613D01*
X1127382Y495841D01*
X1128329Y496095D01*
X1135273Y489152D01*
X1135372Y489037D01*
X1135523Y488842D01*
X1135539Y488817D01*
X1135449Y488134D01*
Y479134D01*
X1135673Y477437D01*
X1136328Y475856D01*
X1137370Y474498D01*
X1138727Y473456D01*
X1140309Y472801D01*
X1142005Y472578D01*
X1153005D01*
X1154702Y472801D01*
X1156283Y473456D01*
X1157641Y474498D01*
X1158683Y475856D01*
X1159338Y477437D01*
X1159561Y479134D01*
Y488134D01*
X1159338Y489831D01*
X1158683Y491412D01*
X1157641Y492770D01*
X1156283Y493812D01*
X1154702Y494467D01*
X1153005Y494690D01*
X1142005D01*
X1140309Y494467D01*
X1139107Y493969D01*
X1133309Y499767D01*
Y595500D01*
X1133076Y596670D01*
X1132413Y597663D01*
X1132413Y597663D01*
X1131500Y598576D01*
Y608250D01*
X1115000D01*
Y604309D01*
X1108750D01*
Y608250D01*
X1092250D01*
Y594250D01*
X1108750D01*
Y598192D01*
X1115000D01*
Y594250D01*
X1127174D01*
X1127191Y594233D01*
Y575387D01*
X1126868Y575159D01*
X1125921Y574905D01*
X1113763Y587063D01*
X1112770Y587726D01*
X1111600Y587959D01*
X1111600Y587959D01*
X1073592D01*
X1068811Y588133D01*
X1066510Y588369D01*
X1064398Y588697D01*
X1062497Y589114D01*
X1060810Y589613D01*
X1059338Y590188D01*
X1058081Y590830D01*
X1057033Y591530D01*
X1056306Y592170D01*
X1056139Y592389D01*
X1053945Y594072D01*
X1051391Y595130D01*
X1048650Y595491D01*
X1045909Y595130D01*
X1043355Y594072D01*
X1041161Y592389D01*
X1040833Y591960D01*
X1040578D01*
X1039900Y591973D01*
X1038299Y592071D01*
X1036924Y592230D01*
X1035786Y592442D01*
X1034899Y592694D01*
X1034277Y592958D01*
X1033925Y593185D01*
X1033800Y593315D01*
X1033786Y593341D01*
X1033750Y593581D01*
Y595400D01*
X1031763D01*
X1031720Y595409D01*
X1031676Y595400D01*
X1012750D01*
Y588978D01*
X985927D01*
Y597250D01*
X989829D01*
Y625250D01*
X971829D01*
Y597250D01*
X975731D01*
Y585000D01*
Y561899D01*
X972589D01*
Y559848D01*
X966409D01*
Y561899D01*
X949909D01*
Y559848D01*
X944566D01*
Y561899D01*
X928066D01*
Y559848D01*
X921845D01*
Y561899D01*
X905345D01*
Y559997D01*
X822399D01*
X820448Y559609D01*
X818794Y558504D01*
X750001Y489710D01*
X638867D01*
Y531750D01*
X639750D01*
Y545291D01*
X639810Y545750D01*
Y581750D01*
X679750D01*
Y605440D01*
X684000D01*
Y603500D01*
X712000D01*
Y611941D01*
X719250D01*
Y608000D01*
X735750D01*
Y611941D01*
X743250D01*
Y608000D01*
X759750D01*
Y622000D01*
X743250D01*
Y618059D01*
X735750D01*
Y622000D01*
X719250D01*
Y618059D01*
X712000D01*
Y621500D01*
X684000D01*
Y619560D01*
X679750D01*
Y625750D01*
D02*
G37*
G36*
X712540Y576230D02*
X699270D01*
Y567960D01*
X712540D01*
Y576230D01*
D02*
G37*
G36*
X696730D02*
X683460D01*
Y567960D01*
X696730D01*
Y576230D01*
D02*
G37*
G36*
X108270Y575231D02*
Y564020D01*
X119481D01*
X119217Y566024D01*
X117954Y569074D01*
X115944Y571694D01*
X113324Y573704D01*
X110274Y574967D01*
X108270Y575231D01*
D02*
G37*
G36*
X43270Y575231D02*
Y564020D01*
X54481D01*
X54217Y566024D01*
X52954Y569074D01*
X50944Y571694D01*
X48324Y573704D01*
X45274Y574967D01*
X43270Y575231D01*
D02*
G37*
G36*
X40730Y575231D02*
X39998Y575135D01*
X38726Y574967D01*
X35676Y573704D01*
X33056Y571694D01*
X31046Y569074D01*
X29783Y566024D01*
X29519Y564020D01*
X40730D01*
Y568672D01*
Y575231D01*
D02*
G37*
G36*
X105730D02*
X103726Y574967D01*
X100676Y573704D01*
X98056Y571694D01*
X96046Y569074D01*
X94783Y566024D01*
X94519Y564020D01*
X105730D01*
Y575231D01*
D02*
G37*
G36*
X40730Y561480D02*
X29519D01*
X29783Y559476D01*
X31046Y556426D01*
X33056Y553806D01*
X35676Y551796D01*
X38726Y550533D01*
X40730Y550269D01*
Y561480D01*
D02*
G37*
G36*
X119481D02*
X108270D01*
Y550269D01*
X110274Y550533D01*
X113324Y551796D01*
X115944Y553806D01*
X117954Y556426D01*
X119217Y559476D01*
X119481Y561480D01*
D02*
G37*
G36*
X105730D02*
X94519D01*
X94783Y559476D01*
X96046Y556426D01*
X98056Y553806D01*
X100676Y551796D01*
X103726Y550533D01*
X105730Y550269D01*
Y561480D01*
D02*
G37*
G36*
X54481D02*
X43270D01*
Y550269D01*
X45274Y550533D01*
X48324Y551796D01*
X50944Y553806D01*
X52954Y556426D01*
X54217Y559476D01*
X54481Y561480D01*
D02*
G37*
G36*
X663290Y560290D02*
X657020D01*
Y547020D01*
X663290D01*
Y560290D01*
D02*
G37*
G36*
X654480D02*
X648210D01*
Y547020D01*
X654480D01*
Y560290D01*
D02*
G37*
G36*
X922385Y542439D02*
X914865D01*
Y536169D01*
X922385D01*
Y542439D01*
D02*
G37*
G36*
X945106D02*
X937586D01*
Y536169D01*
X945106D01*
Y542439D01*
D02*
G37*
G36*
X989629D02*
X982109D01*
Y536169D01*
X989629D01*
Y542439D01*
D02*
G37*
G36*
X966949D02*
X959429D01*
Y536169D01*
X966949D01*
Y542439D01*
D02*
G37*
G36*
X935046D02*
X927526D01*
Y536169D01*
X935046D01*
Y542439D01*
D02*
G37*
G36*
X979569D02*
X972049D01*
Y536169D01*
X979569D01*
Y542439D01*
D02*
G37*
G36*
X956889D02*
X949369D01*
Y536169D01*
X956889D01*
Y542439D01*
D02*
G37*
G36*
X912325D02*
X904805D01*
Y536169D01*
X912325D01*
Y542439D01*
D02*
G37*
G36*
X1318005Y545235D02*
X1313775D01*
Y534904D01*
X1325106D01*
Y538134D01*
X1324864Y539972D01*
X1324155Y541684D01*
X1323026Y543155D01*
X1321556Y544283D01*
X1319843Y544993D01*
X1318005Y545235D01*
D02*
G37*
G36*
X1311235D02*
X1307005D01*
X1305167Y544993D01*
X1303455Y544283D01*
X1301984Y543155D01*
X1300856Y541684D01*
X1300146Y539972D01*
X1299904Y538134D01*
Y534904D01*
X1311235D01*
Y545235D01*
D02*
G37*
G36*
X663290Y544480D02*
X657020D01*
Y531210D01*
X663290D01*
Y544480D01*
D02*
G37*
G36*
X654480D02*
X648210D01*
Y531210D01*
X654480D01*
Y544480D01*
D02*
G37*
G36*
X989629Y533629D02*
X982109D01*
Y527359D01*
X989629D01*
Y533629D01*
D02*
G37*
G36*
X979569D02*
X972049D01*
Y527359D01*
X979569D01*
Y533629D01*
D02*
G37*
G36*
X966949D02*
X959429D01*
Y527359D01*
X966949D01*
Y533629D01*
D02*
G37*
G36*
X956889D02*
X949369D01*
Y527359D01*
X956889D01*
Y533629D01*
D02*
G37*
G36*
X945106D02*
X937586D01*
Y527359D01*
X945106D01*
Y533629D01*
D02*
G37*
G36*
X935046D02*
X927526D01*
Y527359D01*
X935046D01*
Y533629D01*
D02*
G37*
G36*
X922385D02*
X914865D01*
Y527359D01*
X922385D01*
Y533629D01*
D02*
G37*
G36*
X912325D02*
X904805D01*
Y527359D01*
X912325D01*
Y533629D01*
D02*
G37*
G36*
X1325106Y532364D02*
X1313775D01*
Y522033D01*
X1318005D01*
X1319843Y522275D01*
X1321556Y522985D01*
X1323026Y524113D01*
X1324155Y525584D01*
X1324864Y527296D01*
X1325106Y529134D01*
Y532364D01*
D02*
G37*
G36*
X1311235D02*
X1299904D01*
Y529134D01*
X1300146Y527296D01*
X1300856Y525584D01*
X1301984Y524113D01*
X1303455Y522985D01*
X1305167Y522275D01*
X1307005Y522033D01*
X1311235D01*
Y532364D01*
D02*
G37*
G36*
X107000Y529854D02*
X103867Y529441D01*
X100948Y528232D01*
X98441Y526308D01*
X98246Y526054D01*
X97541Y525449D01*
X96414Y524748D01*
X94998Y524094D01*
X93293Y523504D01*
X91301Y522991D01*
X89073Y522573D01*
X80522Y521838D01*
X79868Y521828D01*
X69132D01*
X68457Y521838D01*
X62502Y522230D01*
X59972Y522564D01*
X57699Y522992D01*
X55707Y523504D01*
X54001Y524094D01*
X52586Y524748D01*
X51459Y525449D01*
X50754Y526054D01*
X50559Y526308D01*
X48052Y528232D01*
X45133Y529441D01*
X42000Y529854D01*
X38867Y529441D01*
X35948Y528232D01*
X33442Y526308D01*
X31518Y523802D01*
X30309Y520883D01*
X29896Y517750D01*
X30309Y514617D01*
X31518Y511698D01*
X33442Y509191D01*
X35948Y507268D01*
X38867Y506059D01*
X42000Y505646D01*
X45133Y506059D01*
X48052Y507268D01*
X50559Y509191D01*
X50754Y509446D01*
X51459Y510051D01*
X52586Y510752D01*
X54002Y511406D01*
X55707Y511996D01*
X57699Y512508D01*
X59927Y512927D01*
X68478Y513662D01*
X69132Y513672D01*
X79868D01*
X80543Y513662D01*
X86498Y513270D01*
X89028Y512935D01*
X91301Y512508D01*
X93293Y511996D01*
X94998Y511406D01*
X96414Y510752D01*
X97541Y510051D01*
X98246Y509446D01*
X98441Y509191D01*
X100948Y507268D01*
X103867Y506059D01*
X107000Y505646D01*
X110133Y506059D01*
X113052Y507268D01*
X115559Y509191D01*
X115754Y509446D01*
X116459Y510051D01*
X117586Y510752D01*
X119002Y511406D01*
X120707Y511996D01*
X122699Y512508D01*
X124927Y512927D01*
X133478Y513662D01*
X134132Y513672D01*
X180311D01*
X204422Y489561D01*
Y278689D01*
X170961Y245228D01*
X169174Y243571D01*
X167315Y242035D01*
X166583Y241507D01*
X165968Y241120D01*
X165516Y240888D01*
X165284Y240806D01*
X165250Y240810D01*
X163423Y240570D01*
X161720Y239865D01*
X160258Y238742D01*
X159136Y237280D01*
X158430Y235577D01*
X158190Y233750D01*
X158430Y231923D01*
X159136Y230220D01*
X160258Y228758D01*
X161720Y227635D01*
X163423Y226930D01*
X165250Y226690D01*
X167077Y226930D01*
X168780Y227635D01*
X170243Y228758D01*
X171364Y230220D01*
X172070Y231923D01*
X172310Y233750D01*
X172306Y233784D01*
X172388Y234016D01*
X172620Y234468D01*
X173007Y235082D01*
X173516Y235788D01*
X176928Y239660D01*
X211384Y274116D01*
X211384Y274116D01*
X212268Y275439D01*
X212578Y277000D01*
X212578Y277000D01*
Y491250D01*
X212578Y491250D01*
X212268Y492811D01*
X211384Y494134D01*
X184884Y520634D01*
X183561Y521518D01*
X182000Y521828D01*
X182000Y521828D01*
X134132D01*
X133457Y521838D01*
X127502Y522230D01*
X124972Y522564D01*
X122699Y522992D01*
X120707Y523504D01*
X119002Y524094D01*
X117586Y524748D01*
X116459Y525449D01*
X115754Y526054D01*
X115559Y526308D01*
X113052Y528232D01*
X110133Y529441D01*
X107000Y529854D01*
D02*
G37*
G36*
X270755Y526249D02*
Y510019D01*
X286985D01*
X286771Y512188D01*
X285768Y515494D01*
X284139Y518541D01*
X281948Y521212D01*
X279277Y523404D01*
X276230Y525032D01*
X272923Y526035D01*
X270755Y526249D01*
D02*
G37*
G36*
X268215Y526249D02*
X266047Y526035D01*
X262740Y525032D01*
X259693Y523404D01*
X257022Y521212D01*
X254830Y518541D01*
X253202Y515494D01*
X252199Y512188D01*
X251985Y510019D01*
X268215D01*
Y526249D01*
D02*
G37*
G36*
X1153005Y520235D02*
X1148775D01*
Y509904D01*
X1160106D01*
Y513134D01*
X1159864Y514972D01*
X1159155Y516684D01*
X1158026Y518155D01*
X1156556Y519283D01*
X1154843Y519993D01*
X1153005Y520235D01*
D02*
G37*
G36*
X1146235D02*
X1142005D01*
X1140167Y519993D01*
X1138455Y519283D01*
X1136984Y518155D01*
X1135856Y516684D01*
X1135147Y514972D01*
X1134905Y513134D01*
Y509904D01*
X1146235D01*
Y520235D01*
D02*
G37*
G36*
X1160106Y507364D02*
X1148775D01*
Y497033D01*
X1153005D01*
X1154843Y497275D01*
X1156556Y497985D01*
X1158026Y499113D01*
X1159155Y500584D01*
X1159864Y502296D01*
X1160106Y504134D01*
Y507364D01*
D02*
G37*
G36*
X1146235D02*
X1134905D01*
Y504134D01*
X1135147Y502296D01*
X1135856Y500584D01*
X1136984Y499113D01*
X1138455Y497985D01*
X1140167Y497275D01*
X1142005Y497033D01*
X1146235D01*
Y507364D01*
D02*
G37*
G36*
X481015Y525749D02*
X464015D01*
X455515Y517249D01*
Y500249D01*
X464015Y491749D01*
X481015D01*
X489515Y500249D01*
Y517249D01*
X481015Y525749D01*
D02*
G37*
G36*
X286985Y507479D02*
X270755D01*
Y491249D01*
X272923Y491463D01*
X276230Y492466D01*
X279277Y494095D01*
X281948Y496286D01*
X284139Y498957D01*
X285768Y502004D01*
X286771Y505311D01*
X286985Y507479D01*
D02*
G37*
G36*
X268215D02*
X251985D01*
X252199Y505311D01*
X253202Y502004D01*
X254830Y498957D01*
X257022Y496286D01*
X259693Y494095D01*
X262740Y492466D01*
X266047Y491463D01*
X268215Y491249D01*
Y507479D01*
D02*
G37*
G36*
X1318005Y494690D02*
X1307005D01*
X1305308Y494467D01*
X1303727Y493812D01*
X1302369Y492770D01*
X1301328Y491412D01*
X1300672Y489831D01*
X1300449Y488134D01*
Y479134D01*
X1300672Y477437D01*
X1301328Y475856D01*
X1302369Y474498D01*
X1303727Y473456D01*
X1305308Y472801D01*
X1307005Y472578D01*
X1318005D01*
X1319702Y472801D01*
X1321283Y473456D01*
X1322641Y474498D01*
X1323683Y475856D01*
X1324338Y477437D01*
X1324561Y479134D01*
Y480575D01*
X1345833D01*
Y477250D01*
X1362333D01*
Y491250D01*
X1345833D01*
Y486693D01*
X1324561D01*
Y488134D01*
X1324338Y489831D01*
X1323683Y491412D01*
X1322641Y492770D01*
X1321283Y493812D01*
X1319702Y494467D01*
X1318005Y494690D01*
D02*
G37*
G36*
X1048650Y493891D02*
X1045909Y493530D01*
X1043355Y492472D01*
X1041161Y490789D01*
X1039478Y488595D01*
X1038420Y486041D01*
X1038059Y483300D01*
X1038420Y480559D01*
X1039478Y478005D01*
X1041161Y475811D01*
X1043355Y474128D01*
X1045909Y473070D01*
X1048650Y472709D01*
X1051391Y473070D01*
X1053945Y474128D01*
X1056139Y475811D01*
X1057822Y478005D01*
X1058880Y480559D01*
X1059241Y483300D01*
X1058880Y486041D01*
X1057822Y488595D01*
X1056139Y490789D01*
X1053945Y492472D01*
X1051391Y493530D01*
X1048650Y493891D01*
D02*
G37*
G36*
X1023250D02*
X1020509Y493530D01*
X1017955Y492472D01*
X1015761Y490789D01*
X1014078Y488595D01*
X1013020Y486041D01*
X1012659Y483300D01*
X1013020Y480559D01*
X1014078Y478005D01*
X1015761Y475811D01*
X1017955Y474128D01*
X1020509Y473070D01*
X1023250Y472709D01*
X1025991Y473070D01*
X1028545Y474128D01*
X1030739Y475811D01*
X1032422Y478005D01*
X1033480Y480559D01*
X1033841Y483300D01*
X1033480Y486041D01*
X1032422Y488595D01*
X1030739Y490789D01*
X1028545Y492472D01*
X1025991Y493530D01*
X1023250Y493891D01*
D02*
G37*
G36*
X1362333Y471250D02*
X1345833D01*
Y457250D01*
X1362333D01*
Y471250D01*
D02*
G37*
G36*
X130266Y459138D02*
X113766D01*
Y455059D01*
X107922D01*
X107076Y456326D01*
X105091Y457652D01*
X102750Y458117D01*
X100409Y457652D01*
X98424Y456326D01*
X97098Y454341D01*
X96632Y452000D01*
X97098Y449659D01*
X98424Y447674D01*
X98633Y447535D01*
X98777Y447292D01*
X98955Y446877D01*
X99134Y446312D01*
X99300Y445605D01*
X99436Y444802D01*
X99691Y441465D01*
Y323983D01*
X99643Y322832D01*
X99439Y320718D01*
X99300Y319895D01*
X99134Y319188D01*
X98955Y318623D01*
X98776Y318208D01*
X98633Y317965D01*
X98424Y317826D01*
X97098Y315841D01*
X96632Y313500D01*
X97098Y311159D01*
X98424Y309174D01*
X100409Y307848D01*
X102750Y307383D01*
X105091Y307848D01*
X107076Y309174D01*
X107215Y309383D01*
X107458Y309527D01*
X107872Y309705D01*
X108438Y309884D01*
X109145Y310050D01*
X109948Y310186D01*
X113285Y310441D01*
X151983D01*
X167941Y294483D01*
Y275822D01*
X167937Y275520D01*
X167745Y272602D01*
X167586Y271398D01*
X167383Y270321D01*
X167146Y269398D01*
X166881Y268632D01*
X166602Y268028D01*
X166326Y267584D01*
X166081Y267299D01*
X166008Y267242D01*
X164886Y265780D01*
X164180Y264077D01*
X163940Y262250D01*
X164180Y260423D01*
X164886Y258720D01*
X166008Y257257D01*
X167470Y256136D01*
X169173Y255430D01*
X171000Y255190D01*
X172827Y255430D01*
X174530Y256136D01*
X175993Y257257D01*
X177115Y258720D01*
X177820Y260423D01*
X178060Y262250D01*
X177820Y264077D01*
X177115Y265780D01*
X175993Y267242D01*
X175919Y267299D01*
X175674Y267584D01*
X175398Y268028D01*
X175119Y268632D01*
X174854Y269398D01*
X174617Y270321D01*
X174423Y271352D01*
X174063Y275540D01*
X174059Y275822D01*
Y295750D01*
X174059Y295750D01*
X173826Y296921D01*
X173163Y297913D01*
X173163Y297913D01*
X155413Y315663D01*
X154420Y316326D01*
X153250Y316559D01*
X153250Y316559D01*
X113233D01*
X112082Y316607D01*
X109968Y316811D01*
X109145Y316950D01*
X108438Y317116D01*
X107873Y317295D01*
X107458Y317474D01*
X107215Y317617D01*
X107076Y317826D01*
X106867Y317965D01*
X106723Y318208D01*
X106545Y318623D01*
X106365Y319188D01*
X106200Y319895D01*
X106064Y320698D01*
X105809Y324035D01*
Y441517D01*
X105857Y442668D01*
X106061Y444782D01*
X106200Y445605D01*
X106365Y446312D01*
X106545Y446877D01*
X106724Y447292D01*
X106867Y447535D01*
X107076Y447674D01*
X107922Y448941D01*
X113766D01*
Y445138D01*
X130266D01*
Y459138D01*
D02*
G37*
G36*
X130806Y439678D02*
X123286D01*
Y433408D01*
X130806D01*
Y439678D01*
D02*
G37*
G36*
X120746D02*
X113226D01*
Y433408D01*
X120746D01*
Y439678D01*
D02*
G37*
G36*
X1340667Y432750D02*
X1324167D01*
Y428809D01*
X1319000D01*
Y432750D01*
X1302500D01*
Y430053D01*
X1302250Y428809D01*
X1301079Y428576D01*
X1300087Y427913D01*
X1296587Y424413D01*
X1295924Y423420D01*
X1295691Y422250D01*
X1295691Y422250D01*
Y385767D01*
X1289733Y379809D01*
X1187767D01*
X1182259Y385317D01*
Y389000D01*
X1191200D01*
Y399356D01*
Y402645D01*
Y413000D01*
X1167200D01*
Y389000D01*
X1176141D01*
Y384050D01*
X1176141Y384050D01*
X1176374Y382879D01*
X1177037Y381887D01*
X1184337Y374587D01*
X1184337Y374587D01*
X1185329Y373924D01*
X1186500Y373691D01*
X1291000D01*
X1291000Y373691D01*
X1292171Y373924D01*
X1293163Y374587D01*
X1300913Y382337D01*
X1301576Y383330D01*
X1301809Y384500D01*
X1301809Y384500D01*
Y396772D01*
Y397002D01*
X1301960Y398210D01*
D01*
D01*
X1302015D01*
X1303079Y398210D01*
X1309480D01*
Y405750D01*
X1310750D01*
D01*
X1309480D01*
Y413290D01*
X1301960Y413290D01*
D01*
D01*
X1301809Y414497D01*
Y414727D01*
Y417536D01*
Y417766D01*
X1302500Y418750D01*
X1319000D01*
Y422691D01*
X1324167D01*
Y418750D01*
X1340667D01*
Y432750D01*
D02*
G37*
G36*
X130806Y430868D02*
X123286D01*
Y424598D01*
X130806D01*
Y430868D01*
D02*
G37*
G36*
X120746D02*
X113226D01*
Y424598D01*
X120746D01*
Y430868D01*
D02*
G37*
G36*
X1362333Y412750D02*
X1345833D01*
Y408904D01*
X1344386Y408809D01*
X1340667D01*
Y412750D01*
X1324167D01*
Y398750D01*
X1340667D01*
Y402691D01*
X1343852D01*
X1345833Y402564D01*
Y398750D01*
X1362333D01*
Y412750D01*
D02*
G37*
G36*
X1384540Y413290D02*
X1377020D01*
Y407020D01*
X1384540D01*
Y413290D01*
D02*
G37*
G36*
X1312020D02*
Y407020D01*
X1319540D01*
Y413290D01*
X1312020D01*
D02*
G37*
G36*
X1374480D02*
X1366960D01*
Y407020D01*
X1374480D01*
Y413290D01*
D02*
G37*
G36*
X1282070Y413481D02*
Y402270D01*
X1293281D01*
X1293017Y404274D01*
X1291754Y407324D01*
X1289744Y409944D01*
X1287124Y411954D01*
X1284074Y413217D01*
X1282070Y413481D01*
D02*
G37*
G36*
X1384540Y404480D02*
X1377020D01*
Y398210D01*
X1384540D01*
Y404480D01*
D02*
G37*
G36*
X1374480D02*
X1366960D01*
Y398210D01*
X1374480D01*
Y404480D01*
D02*
G37*
G36*
X1319540D02*
X1312020D01*
Y398210D01*
X1319540D01*
Y404480D01*
D02*
G37*
G36*
X1293281Y399730D02*
X1282070D01*
Y388519D01*
X1284074Y388783D01*
X1287124Y390046D01*
X1289744Y392056D01*
X1291754Y394676D01*
X1293017Y397726D01*
X1293281Y399730D01*
D02*
G37*
G36*
X664000Y329568D02*
X659020D01*
Y325190D01*
X669396D01*
X669219Y326082D01*
X667994Y327914D01*
X666162Y329138D01*
X664000Y329568D01*
D02*
G37*
G36*
X656480D02*
X651500D01*
X649338Y329138D01*
X647506Y327914D01*
X646281Y326082D01*
X646104Y325190D01*
X656480D01*
Y329568D01*
D02*
G37*
G36*
X606000Y329018D02*
X593500D01*
X591549Y328630D01*
X589895Y327525D01*
X588790Y325871D01*
X588402Y323920D01*
X588790Y321969D01*
X589895Y320315D01*
X591549Y319210D01*
X593500Y318822D01*
X606000D01*
X607951Y319210D01*
X609605Y320315D01*
X610710Y321969D01*
X611098Y323920D01*
X610710Y325871D01*
X609605Y327525D01*
X607951Y328630D01*
X606000Y329018D01*
D02*
G37*
G36*
X669396Y322650D02*
X659020D01*
Y318271D01*
X664000D01*
X666162Y318701D01*
X667994Y319926D01*
X669219Y321758D01*
X669396Y322650D01*
D02*
G37*
G36*
X656480D02*
X646104D01*
X646281Y321758D01*
X647506Y319926D01*
X649338Y318701D01*
X651500Y318271D01*
X656480D01*
Y322650D01*
D02*
G37*
G36*
X606000Y316318D02*
X593500D01*
X591549Y315930D01*
X589895Y314825D01*
X588790Y313171D01*
X588402Y311220D01*
X588790Y309269D01*
X589895Y307615D01*
X591549Y306510D01*
X593500Y306122D01*
X606000D01*
X607951Y306510D01*
X609605Y307615D01*
X610710Y309269D01*
X611098Y311220D01*
X610710Y313171D01*
X609605Y314825D01*
X607951Y315930D01*
X606000Y316318D01*
D02*
G37*
G36*
X681750Y304618D02*
X679409Y304152D01*
X677424Y302826D01*
X677295Y302632D01*
X677057Y302492D01*
X676639Y302313D01*
X676072Y302134D01*
X675362Y301969D01*
X674558Y301833D01*
X671221Y301579D01*
X667970D01*
X667605Y302125D01*
X665951Y303230D01*
X664000Y303618D01*
X651500D01*
X649549Y303230D01*
X647895Y302125D01*
X646790Y300471D01*
X646402Y298520D01*
X646790Y296569D01*
X647895Y294915D01*
X649549Y293810D01*
X651500Y293422D01*
X664000D01*
X665951Y293810D01*
X667605Y294915D01*
X667970Y295461D01*
X671261D01*
X672413Y295413D01*
X674526Y295208D01*
X675347Y295069D01*
X676053Y294903D01*
X676616Y294723D01*
X677028Y294545D01*
X677275Y294398D01*
X677424Y294174D01*
X679409Y292848D01*
X681750Y292382D01*
X684091Y292848D01*
X686076Y294174D01*
X687402Y296159D01*
X687868Y298500D01*
X687402Y300841D01*
X686076Y302826D01*
X684091Y304152D01*
X681750Y304618D01*
D02*
G37*
G36*
X578250Y304368D02*
X575909Y303902D01*
X573924Y302576D01*
X572598Y300591D01*
X572132Y298250D01*
X572598Y295909D01*
X573924Y293924D01*
X575909Y292598D01*
X578250Y292132D01*
X580591Y292598D01*
X582576Y293924D01*
X582820Y294290D01*
X582930Y294394D01*
X583145Y294533D01*
X583520Y294707D01*
X584053Y294887D01*
X584737Y295056D01*
X585520Y295196D01*
X588851Y295461D01*
X589530D01*
X589895Y294915D01*
X591549Y293810D01*
X593500Y293422D01*
X606000D01*
X607951Y293810D01*
X609605Y294915D01*
X610710Y296569D01*
X611098Y298520D01*
X610710Y300471D01*
X609605Y302125D01*
X607951Y303230D01*
X606000Y303618D01*
X593500D01*
X591549Y303230D01*
X589895Y302125D01*
X589530Y301579D01*
X589251D01*
X587448Y301622D01*
X585321Y301806D01*
X584485Y301933D01*
X583766Y302085D01*
X583194Y302249D01*
X582779Y302412D01*
X582632Y302491D01*
X582576Y302576D01*
X580591Y303902D01*
X578250Y304368D01*
D02*
G37*
G36*
X679000Y279118D02*
X676659Y278652D01*
X674674Y277326D01*
X674580Y277185D01*
X674374Y277068D01*
X673952Y276893D01*
X673380Y276718D01*
X672665Y276557D01*
X671855Y276425D01*
X668513Y276179D01*
X667970D01*
X667605Y276725D01*
X665951Y277830D01*
X664000Y278218D01*
X651500D01*
X649549Y277830D01*
X647895Y276725D01*
X646790Y275071D01*
X646402Y273120D01*
X646790Y271169D01*
X647895Y269515D01*
X649549Y268410D01*
X651500Y268022D01*
X664000D01*
X665951Y268410D01*
X667605Y269515D01*
X667970Y270061D01*
X668482D01*
X669640Y270012D01*
X671748Y269805D01*
X672562Y269664D01*
X673259Y269496D01*
X673810Y269316D01*
X674207Y269139D01*
X674448Y268991D01*
X674484Y268959D01*
X674674Y268674D01*
X676659Y267348D01*
X679000Y266882D01*
X681341Y267348D01*
X683326Y268674D01*
X684652Y270659D01*
X685117Y273000D01*
X684652Y275341D01*
X683326Y277326D01*
X681341Y278652D01*
X679000Y279118D01*
D02*
G37*
G36*
X606000Y278218D02*
X593500D01*
X591549Y277830D01*
X589895Y276725D01*
X589530Y276179D01*
X574370D01*
X573199Y275946D01*
X572207Y275283D01*
X572207Y275283D01*
X564337Y267413D01*
X563674Y266420D01*
X563441Y265250D01*
X563441Y265250D01*
Y230250D01*
X563441Y230250D01*
X563674Y229079D01*
X564337Y228087D01*
X576425Y215999D01*
X577204Y215152D01*
X578555Y213512D01*
X579038Y212833D01*
X579422Y212215D01*
X579694Y211689D01*
X579861Y211269D01*
X579931Y210996D01*
X579883Y210750D01*
X580348Y208409D01*
X581674Y206424D01*
X583659Y205098D01*
X586000Y204632D01*
X588341Y205098D01*
X590326Y206424D01*
X591652Y208409D01*
X592118Y210750D01*
X591652Y213091D01*
X590326Y215076D01*
X588341Y216402D01*
X586000Y216868D01*
X585754Y216819D01*
X585481Y216889D01*
X585061Y217056D01*
X584535Y217328D01*
X583917Y217712D01*
X583254Y218183D01*
X580714Y220362D01*
X569559Y231517D01*
Y263983D01*
X575637Y270061D01*
X589530D01*
X589895Y269515D01*
X591549Y268410D01*
X593500Y268022D01*
X606000D01*
X607951Y268410D01*
X609605Y269515D01*
X610710Y271169D01*
X611098Y273120D01*
X610710Y275071D01*
X609605Y276725D01*
X607951Y277830D01*
X606000Y278218D01*
D02*
G37*
G36*
X664000Y266068D02*
X659020D01*
Y261690D01*
X669396D01*
X669219Y262582D01*
X667994Y264414D01*
X666162Y265639D01*
X664000Y266068D01*
D02*
G37*
G36*
X656480D02*
X651500D01*
X649338Y265639D01*
X647506Y264414D01*
X646281Y262582D01*
X646104Y261690D01*
X656480D01*
Y266068D01*
D02*
G37*
G36*
X582500Y266618D02*
X580159Y266152D01*
X578174Y264826D01*
X576848Y262841D01*
X576382Y260500D01*
X576848Y258159D01*
X578174Y256174D01*
X580159Y254848D01*
X582500Y254382D01*
X584841Y254848D01*
X586826Y256174D01*
X586887Y256266D01*
X587042Y256351D01*
X587458Y256515D01*
X588030Y256681D01*
X588748Y256834D01*
X589566Y256959D01*
X589789Y256975D01*
X589895Y256815D01*
X591549Y255710D01*
X593500Y255322D01*
X606000D01*
X607951Y255710D01*
X609605Y256815D01*
X610710Y258469D01*
X611098Y260420D01*
X610710Y262371D01*
X609605Y264025D01*
X607951Y265130D01*
X606000Y265518D01*
X593500D01*
X591549Y265130D01*
X589895Y264025D01*
X589612Y263601D01*
X588980Y263713D01*
X588295Y263881D01*
X587760Y264062D01*
X587382Y264236D01*
X587163Y264377D01*
X587063Y264471D01*
X586826Y264826D01*
X584841Y266152D01*
X582500Y266618D01*
D02*
G37*
G36*
X669396Y259150D02*
X659020D01*
Y254771D01*
X664000D01*
X666162Y255201D01*
X667994Y256426D01*
X669219Y258258D01*
X669396Y259150D01*
D02*
G37*
G36*
X656480D02*
X646104D01*
X646281Y258258D01*
X647506Y256426D01*
X649338Y255201D01*
X651500Y254771D01*
X656480D01*
Y259150D01*
D02*
G37*
G36*
X618250Y253867D02*
X615909Y253402D01*
X613924Y252076D01*
X613785Y251867D01*
X613542Y251723D01*
X613128Y251545D01*
X612562Y251366D01*
X611855Y251200D01*
X611052Y251064D01*
X609841Y250972D01*
X609605Y251325D01*
X607951Y252430D01*
X606000Y252818D01*
X593500D01*
X591549Y252430D01*
X589895Y251325D01*
X588790Y249671D01*
X588402Y247720D01*
X588790Y245769D01*
X589895Y244115D01*
X591549Y243010D01*
X593500Y242622D01*
X606000D01*
X607951Y243010D01*
X609605Y244115D01*
X609894Y244549D01*
X611032Y244439D01*
X611855Y244300D01*
X612562Y244134D01*
X613127Y243955D01*
X613542Y243776D01*
X613785Y243633D01*
X613924Y243424D01*
X615909Y242098D01*
X618250Y241632D01*
X620591Y242098D01*
X622576Y243424D01*
X623902Y245409D01*
X624367Y247750D01*
X623902Y250091D01*
X622576Y252076D01*
X620591Y253402D01*
X618250Y253867D01*
D02*
G37*
G36*
X1048650Y265291D02*
X1045909Y264930D01*
X1043355Y263872D01*
X1041161Y262189D01*
X1039478Y259995D01*
X1038420Y257441D01*
X1038059Y254700D01*
X1038420Y251959D01*
X1039478Y249405D01*
X1041161Y247211D01*
X1043355Y245528D01*
X1045909Y244470D01*
X1048650Y244109D01*
X1051391Y244470D01*
X1053945Y245528D01*
X1056139Y247211D01*
X1057822Y249405D01*
X1058880Y251959D01*
X1059241Y254700D01*
X1058880Y257441D01*
X1057822Y259995D01*
X1056139Y262189D01*
X1053945Y263872D01*
X1051391Y264930D01*
X1048650Y265291D01*
D02*
G37*
G36*
X1023250D02*
X1020509Y264930D01*
X1017955Y263872D01*
X1015761Y262189D01*
X1014078Y259995D01*
X1013020Y257441D01*
X1012659Y254700D01*
X1013020Y251959D01*
X1014078Y249405D01*
X1015761Y247211D01*
X1017955Y245528D01*
X1020509Y244470D01*
X1023250Y244109D01*
X1025991Y244470D01*
X1028545Y245528D01*
X1030739Y247211D01*
X1032422Y249405D01*
X1033480Y251959D01*
X1033841Y254700D01*
X1033480Y257441D01*
X1032422Y259995D01*
X1030739Y262189D01*
X1028545Y263872D01*
X1025991Y264930D01*
X1023250Y265291D01*
D02*
G37*
G36*
X635750Y258867D02*
X633409Y258402D01*
X631424Y257076D01*
X630098Y255091D01*
X629632Y252750D01*
X630098Y250409D01*
X631424Y248424D01*
X631703Y248238D01*
X631707Y248233D01*
X631834Y248022D01*
X631996Y247645D01*
X632163Y247110D01*
X632320Y246425D01*
X632449Y245639D01*
X632691Y242348D01*
Y242267D01*
X628503Y238079D01*
X609970D01*
X609605Y238625D01*
X607951Y239730D01*
X606000Y240118D01*
X593500D01*
X591549Y239730D01*
X589895Y238625D01*
X588790Y236971D01*
X588402Y235020D01*
X588790Y233069D01*
X589895Y231415D01*
X591549Y230310D01*
X593500Y229922D01*
X606000D01*
X607951Y230310D01*
X609605Y231415D01*
X609970Y231961D01*
X629770D01*
X629770Y231961D01*
X630941Y232194D01*
X631933Y232857D01*
X637913Y238837D01*
X638576Y239830D01*
X638809Y241000D01*
X638809Y241000D01*
Y241735D01*
X638855Y243546D01*
X639048Y245620D01*
X639180Y246425D01*
X639337Y247110D01*
X639504Y247645D01*
X639666Y248022D01*
X639793Y248233D01*
X639796Y248238D01*
X640076Y248424D01*
X641402Y250409D01*
X641868Y252750D01*
X641402Y255091D01*
X640076Y257076D01*
X638091Y258402D01*
X635750Y258867D01*
D02*
G37*
G36*
X664000Y252818D02*
X651500D01*
X649549Y252430D01*
X647895Y251325D01*
X646790Y249671D01*
X646402Y247720D01*
X646790Y245769D01*
X647895Y244115D01*
X649549Y243010D01*
X651500Y242622D01*
X654691D01*
Y240118D01*
X651500D01*
X649549Y239730D01*
X647895Y238625D01*
X646790Y236971D01*
X646402Y235020D01*
X646790Y233069D01*
X647895Y231415D01*
X649549Y230310D01*
X651500Y229922D01*
X654691D01*
Y216166D01*
X650749D01*
Y199666D01*
X664749D01*
Y216166D01*
X660809D01*
Y229922D01*
X664000D01*
X665951Y230310D01*
X667605Y231415D01*
X667762Y231650D01*
X668355Y231550D01*
X669062Y231384D01*
X669627Y231205D01*
X670042Y231026D01*
X670285Y230883D01*
X670424Y230674D01*
X672409Y229348D01*
X674750Y228883D01*
X677091Y229348D01*
X679076Y230674D01*
X680402Y232659D01*
X680867Y235000D01*
X680402Y237341D01*
X679076Y239326D01*
X677091Y240652D01*
X674750Y241118D01*
X672409Y240652D01*
X670424Y239326D01*
X670285Y239117D01*
X670042Y238974D01*
X669628Y238795D01*
X669062Y238616D01*
X668355Y238450D01*
X667786Y238354D01*
X667605Y238625D01*
X665951Y239730D01*
X664000Y240118D01*
X660809D01*
Y242622D01*
X664000D01*
X665951Y243010D01*
X667605Y244115D01*
X668710Y245769D01*
X669098Y247720D01*
X668710Y249671D01*
X667605Y251325D01*
X665951Y252430D01*
X664000Y252818D01*
D02*
G37*
G36*
X1048650Y239891D02*
X1045909Y239530D01*
X1043355Y238472D01*
X1041161Y236789D01*
X1039478Y234595D01*
X1038420Y232041D01*
X1038059Y229300D01*
X1038420Y226559D01*
X1039478Y224005D01*
X1041161Y221811D01*
X1043355Y220128D01*
X1045909Y219070D01*
X1048650Y218709D01*
X1051391Y219070D01*
X1053945Y220128D01*
X1056139Y221811D01*
X1057822Y224005D01*
X1058880Y226559D01*
X1059241Y229300D01*
X1058880Y232041D01*
X1057822Y234595D01*
X1056139Y236789D01*
X1053945Y238472D01*
X1051391Y239530D01*
X1048650Y239891D01*
D02*
G37*
G36*
X1023250D02*
X1020509Y239530D01*
X1017955Y238472D01*
X1015761Y236789D01*
X1014078Y234595D01*
X1013020Y232041D01*
X1012659Y229300D01*
X1013020Y226559D01*
X1014078Y224005D01*
X1015761Y221811D01*
X1017955Y220128D01*
X1020509Y219070D01*
X1023250Y218709D01*
X1025991Y219070D01*
X1028545Y220128D01*
X1030739Y221811D01*
X1032422Y224005D01*
X1033480Y226559D01*
X1033841Y229300D01*
X1033480Y232041D01*
X1032422Y234595D01*
X1030739Y236789D01*
X1028545Y238472D01*
X1025991Y239530D01*
X1023250Y239891D01*
D02*
G37*
G36*
X773437Y241645D02*
X771096Y241179D01*
X769111Y239853D01*
X767785Y237868D01*
X767319Y235527D01*
X767785Y233186D01*
X768117Y232690D01*
Y229573D01*
X759214D01*
Y211573D01*
X787215D01*
Y218634D01*
X793912D01*
Y214692D01*
X810412D01*
Y228692D01*
X793912D01*
Y224751D01*
X787215D01*
Y229573D01*
X778312D01*
Y232024D01*
X779089Y233186D01*
X779554Y235527D01*
X779089Y237868D01*
X777763Y239853D01*
X775778Y241179D01*
X773437Y241645D01*
D02*
G37*
G36*
X645289Y216706D02*
X639019D01*
Y209186D01*
X645289D01*
Y216706D01*
D02*
G37*
G36*
X636479D02*
X630209D01*
Y209186D01*
X636479D01*
Y216706D01*
D02*
G37*
G36*
X810952Y209232D02*
X803432D01*
Y202962D01*
X810952D01*
Y209232D01*
D02*
G37*
G36*
X800892D02*
X793372D01*
Y202962D01*
X800892D01*
Y209232D01*
D02*
G37*
G36*
X645289Y206646D02*
X639019D01*
Y199126D01*
X645289D01*
Y206646D01*
D02*
G37*
G36*
X636479D02*
X630209D01*
Y199126D01*
X636479D01*
Y206646D01*
D02*
G37*
G36*
X810952Y200422D02*
X803432D01*
Y194152D01*
X810952D01*
Y200422D01*
D02*
G37*
G36*
X800892D02*
X793372D01*
Y194152D01*
X800892D01*
Y200422D01*
D02*
G37*
G36*
X1048650Y214491D02*
X1045909Y214130D01*
X1043355Y213072D01*
X1041161Y211389D01*
X1039478Y209195D01*
X1038420Y206641D01*
X1038059Y203900D01*
X1038420Y201159D01*
X1039478Y198605D01*
X1041161Y196411D01*
X1043355Y194728D01*
X1045909Y193670D01*
X1048650Y193309D01*
X1051391Y193670D01*
X1053945Y194728D01*
X1056139Y196411D01*
X1057822Y198605D01*
X1058880Y201159D01*
X1059241Y203900D01*
X1058880Y206641D01*
X1057822Y209195D01*
X1056139Y211389D01*
X1053945Y213072D01*
X1051391Y214130D01*
X1048650Y214491D01*
D02*
G37*
G36*
X1023250D02*
X1020509Y214130D01*
X1017955Y213072D01*
X1015761Y211389D01*
X1014078Y209195D01*
X1013020Y206641D01*
X1012659Y203900D01*
X1013020Y201159D01*
X1014078Y198605D01*
X1015761Y196411D01*
X1017955Y194728D01*
X1020509Y193670D01*
X1023250Y193309D01*
X1025991Y193670D01*
X1028545Y194728D01*
X1030739Y196411D01*
X1032422Y198605D01*
X1033480Y201159D01*
X1033841Y203900D01*
X1033480Y206641D01*
X1032422Y209195D01*
X1030739Y211389D01*
X1028545Y213072D01*
X1025991Y214130D01*
X1023250Y214491D01*
D02*
G37*
G36*
X532270Y203231D02*
Y192020D01*
X543481D01*
X543217Y194024D01*
X541954Y197074D01*
X539944Y199694D01*
X537324Y201704D01*
X534274Y202967D01*
X532270Y203231D01*
D02*
G37*
G36*
X284250Y221560D02*
X282423Y221320D01*
X280720Y220614D01*
X279258Y219492D01*
X278136Y218030D01*
X277430Y216327D01*
X277190Y214500D01*
X277430Y212673D01*
X278136Y210970D01*
X279258Y209508D01*
X280720Y208386D01*
X282423Y207680D01*
X284250Y207440D01*
X286077Y207680D01*
X287780Y208386D01*
X289242Y209508D01*
X289944Y210422D01*
X293067D01*
Y203803D01*
X288895D01*
Y189803D01*
X305395D01*
Y203803D01*
X301224D01*
Y212157D01*
X300913Y213718D01*
X300029Y215041D01*
X300029Y215041D01*
X297686Y217384D01*
X296363Y218268D01*
X294802Y218578D01*
X294802Y218578D01*
X289944D01*
X289242Y219492D01*
X287780Y220614D01*
X286077Y221320D01*
X284250Y221560D01*
D02*
G37*
G36*
X787755Y195113D02*
X774484D01*
Y186843D01*
X787755D01*
Y195113D01*
D02*
G37*
G36*
X771944D02*
X758674D01*
Y186843D01*
X771944D01*
Y195113D01*
D02*
G37*
G36*
X543481Y189480D02*
X532270D01*
Y178269D01*
X534274Y178533D01*
X537324Y179796D01*
X539944Y181806D01*
X541954Y184426D01*
X543217Y187476D01*
X543481Y189480D01*
D02*
G37*
G36*
X295875Y184343D02*
X288355D01*
Y178073D01*
X295875D01*
Y184343D01*
D02*
G37*
G36*
X787755Y184303D02*
X774484D01*
Y176033D01*
X787755D01*
Y184303D01*
D02*
G37*
G36*
X771944D02*
X758674D01*
Y176033D01*
X771944D01*
Y184303D01*
D02*
G37*
G36*
X513000Y333867D02*
X510659Y333402D01*
X508674Y332076D01*
X507348Y330091D01*
X506883Y327750D01*
X507348Y325409D01*
X508674Y323424D01*
X508875Y323290D01*
X509016Y323050D01*
X509195Y322634D01*
X509374Y322067D01*
X509540Y321358D01*
X509675Y320555D01*
X509930Y317218D01*
Y135586D01*
X508038Y135210D01*
X506384Y134105D01*
X505279Y132451D01*
X504891Y130500D01*
Y106500D01*
X505279Y104549D01*
X506384Y102895D01*
X508038Y101790D01*
X509989Y101402D01*
X515989D01*
X517940Y101790D01*
X518331Y102051D01*
X519171Y102613D01*
X520441Y102051D01*
Y96517D01*
X510826Y86902D01*
X510163Y85910D01*
X509930Y84739D01*
X509930Y84739D01*
Y80186D01*
X508038Y79810D01*
X506384Y78705D01*
X505279Y77051D01*
X504891Y75100D01*
Y51100D01*
X505279Y49149D01*
X506384Y47495D01*
X508038Y46390D01*
X509989Y46002D01*
X515989D01*
X517940Y46390D01*
X519594Y47495D01*
X520699Y49149D01*
X521087Y51100D01*
Y75100D01*
X520699Y77051D01*
X519594Y78705D01*
X517940Y79810D01*
X516048Y80186D01*
Y83472D01*
X517576Y85000D01*
X524977Y92401D01*
X526685Y92489D01*
X535330Y83844D01*
Y80186D01*
X533438Y79810D01*
X531784Y78705D01*
X530679Y77051D01*
X530291Y75100D01*
Y51100D01*
X530679Y49149D01*
X531784Y47495D01*
X533438Y46390D01*
X535389Y46002D01*
X541389D01*
X543340Y46390D01*
X544994Y47495D01*
X546099Y49149D01*
X546487Y51100D01*
Y75100D01*
X546099Y77051D01*
X544994Y78705D01*
X543340Y79810D01*
X541448Y80186D01*
Y85111D01*
X541215Y86281D01*
X540552Y87274D01*
X540552Y87274D01*
X530559Y97267D01*
Y102047D01*
Y102443D01*
X531563Y102814D01*
X531829Y102865D01*
X533438Y101790D01*
X535389Y101402D01*
X541389D01*
X543340Y101790D01*
X544994Y102895D01*
X546099Y104549D01*
X546487Y106500D01*
Y130500D01*
X546099Y132451D01*
X544994Y134105D01*
X543340Y135210D01*
X541448Y135586D01*
Y150122D01*
X575267Y183941D01*
X579819D01*
X580345Y182671D01*
X549087Y151413D01*
X548424Y150421D01*
X548191Y149250D01*
X548191Y149250D01*
Y95500D01*
X548191Y95500D01*
X548424Y94330D01*
X549087Y93337D01*
X560730Y81694D01*
Y80186D01*
X558838Y79810D01*
X557184Y78705D01*
X556079Y77051D01*
X555691Y75100D01*
Y51100D01*
X556079Y49149D01*
X557184Y47495D01*
X558838Y46390D01*
X560789Y46002D01*
X566789D01*
X568740Y46390D01*
X570394Y47495D01*
X571499Y49149D01*
X571691Y50116D01*
X571887Y51100D01*
Y75100D01*
X571691Y76084D01*
D01*
X571499Y77051D01*
X570394Y78705D01*
X568740Y79810D01*
X566848Y80186D01*
Y82961D01*
X566848Y82961D01*
X566615Y84131D01*
X565952Y85124D01*
X565952Y85124D01*
X554309Y96767D01*
Y105761D01*
Y147983D01*
X584517Y178191D01*
X588569D01*
X589095Y176921D01*
X561626Y149452D01*
X560963Y148460D01*
X560730Y147289D01*
X560730Y147289D01*
Y135586D01*
X558838Y135210D01*
X557184Y134105D01*
X556079Y132451D01*
X555691Y130500D01*
Y106500D01*
X555809Y105909D01*
X556079Y104549D01*
X557184Y102895D01*
X558838Y101790D01*
X560789Y101402D01*
X566789D01*
X568740Y101790D01*
X570394Y102895D01*
X571499Y104549D01*
X571887Y106500D01*
Y130500D01*
X571499Y132451D01*
X570394Y134105D01*
X568740Y135210D01*
X566848Y135586D01*
Y146022D01*
X593517Y172691D01*
X686000D01*
X686000Y172691D01*
X687170Y172924D01*
X688163Y173587D01*
X734913Y220337D01*
X734913Y220337D01*
X735576Y221329D01*
X735809Y222500D01*
X735809Y222500D01*
Y288017D01*
X735857Y289168D01*
X736061Y291282D01*
X736200Y292105D01*
X736366Y292812D01*
X736545Y293377D01*
X736724Y293792D01*
X736867Y294035D01*
X737076Y294174D01*
X738402Y296159D01*
X738867Y298500D01*
X738402Y300841D01*
X737076Y302826D01*
X735091Y304152D01*
X732750Y304618D01*
X730409Y304152D01*
X728424Y302826D01*
X727098Y300841D01*
X726633Y298500D01*
X727098Y296159D01*
X728424Y294174D01*
X728633Y294035D01*
X728776Y293792D01*
X728955Y293377D01*
X729134Y292812D01*
X729300Y292105D01*
X729436Y291302D01*
X729691Y287965D01*
Y223767D01*
X685640Y179716D01*
X685367Y179443D01*
X684854Y178930D01*
X683743Y179053D01*
X683286Y180210D01*
X724163Y221087D01*
X724826Y222080D01*
X725059Y223250D01*
X725059Y223250D01*
Y262517D01*
X725107Y263668D01*
X725311Y265782D01*
X725450Y266605D01*
X725616Y267312D01*
X725795Y267877D01*
X725974Y268292D01*
X726117Y268535D01*
X726326Y268674D01*
X727652Y270659D01*
X728118Y273000D01*
X727652Y275341D01*
X726326Y277326D01*
X724341Y278652D01*
X722000Y279118D01*
X719659Y278652D01*
X717674Y277326D01*
X716348Y275341D01*
X715882Y273000D01*
X716348Y270659D01*
X717674Y268674D01*
X717883Y268535D01*
X718027Y268292D01*
X718205Y267877D01*
X718384Y267312D01*
X718550Y266605D01*
X718686Y265802D01*
X718941Y262465D01*
Y224517D01*
X679668Y185244D01*
X679624Y185252D01*
X679206Y186630D01*
X704913Y212337D01*
X704913Y212337D01*
X705462Y213159D01*
X705462D01*
X705576Y213329D01*
X705809Y214500D01*
Y294750D01*
X705809Y294750D01*
X705576Y295921D01*
X704913Y296913D01*
X688443Y313383D01*
X687451Y314046D01*
X686280Y314279D01*
X686280Y314279D01*
X667970D01*
X667605Y314825D01*
X665951Y315930D01*
X664000Y316318D01*
X651500D01*
X649549Y315930D01*
X647895Y314825D01*
X646790Y313171D01*
X646402Y311220D01*
X646790Y309269D01*
X647895Y307615D01*
X649549Y306510D01*
X651500Y306122D01*
X664000D01*
X665951Y306510D01*
X667605Y307615D01*
X667970Y308161D01*
X685013D01*
X699691Y293483D01*
Y215767D01*
X673983Y190059D01*
X667567D01*
X667441Y191329D01*
X667921Y191424D01*
X668913Y192087D01*
X696913Y220087D01*
X696913Y220087D01*
X697576Y221080D01*
X697809Y222250D01*
Y278750D01*
X697809Y278750D01*
X697576Y279921D01*
X696913Y280913D01*
X696913Y280913D01*
X689843Y287983D01*
X688850Y288646D01*
X687680Y288879D01*
X687680Y288879D01*
X667970D01*
X667605Y289425D01*
X665951Y290530D01*
X664000Y290918D01*
X651500D01*
X649549Y290530D01*
X647895Y289425D01*
X646790Y287771D01*
X646402Y285820D01*
X646790Y283869D01*
X647895Y282215D01*
X649549Y281110D01*
X651500Y280722D01*
X664000D01*
X665951Y281110D01*
X667605Y282215D01*
X667970Y282761D01*
X686413D01*
X691691Y277483D01*
Y223517D01*
X665483Y197309D01*
X572691D01*
X572259Y198579D01*
X572492Y198757D01*
X573615Y200220D01*
X574320Y201923D01*
X574560Y203750D01*
X574320Y205577D01*
X573615Y207280D01*
X572492Y208742D01*
X571030Y209865D01*
X569327Y210570D01*
X567500Y210810D01*
X567466Y210806D01*
X567234Y210888D01*
X566782Y211120D01*
X566167Y211507D01*
X565462Y212016D01*
X561590Y215428D01*
X559384Y217634D01*
X558061Y218518D01*
X556500Y218828D01*
X556500Y218828D01*
X543156D01*
X540719Y218920D01*
X538318Y219149D01*
X537427Y219293D01*
X536719Y219454D01*
X536236Y219609D01*
X536013Y219715D01*
X535993Y219742D01*
X534530Y220865D01*
X532827Y221570D01*
X531000Y221810D01*
X529173Y221570D01*
X527470Y220865D01*
X526008Y219742D01*
X524885Y218280D01*
X524180Y216577D01*
X523940Y214750D01*
X524180Y212923D01*
X524885Y211220D01*
X526008Y209757D01*
X527470Y208636D01*
X529173Y207930D01*
X531000Y207690D01*
X532827Y207930D01*
X534530Y208636D01*
X535993Y209757D01*
X536013Y209785D01*
X536236Y209891D01*
X536719Y210047D01*
X537427Y210207D01*
X538287Y210346D01*
X543437Y210672D01*
X554811D01*
X556022Y209461D01*
X557678Y207673D01*
X559215Y205815D01*
X559743Y205082D01*
X560130Y204468D01*
X560362Y204016D01*
X560444Y203784D01*
X560440Y203750D01*
X560680Y201923D01*
X561385Y200220D01*
X562508Y198757D01*
X563970Y197635D01*
X565258Y197102D01*
X565627Y196003D01*
X565610Y195658D01*
X538259Y168306D01*
X528218Y158266D01*
X527732Y157780D01*
X526559Y158266D01*
Y158566D01*
Y167250D01*
X526326Y168421D01*
X525663Y169413D01*
X525663Y169413D01*
X520059Y175017D01*
Y182076D01*
Y182434D01*
X521261Y182842D01*
X522056Y181806D01*
X524676Y179796D01*
X527726Y178533D01*
X529730Y178269D01*
Y190750D01*
Y203231D01*
X527726Y202967D01*
X524676Y201704D01*
X522056Y199694D01*
X521261Y198658D01*
X520059Y199066D01*
Y199424D01*
Y236333D01*
Y236710D01*
X521329Y237142D01*
X522441Y235692D01*
X524948Y233768D01*
X527867Y232559D01*
X531000Y232146D01*
X534133Y232559D01*
X537052Y233768D01*
X539558Y235692D01*
X541482Y238198D01*
X542691Y241117D01*
X543104Y244250D01*
X542691Y247383D01*
X541482Y250302D01*
X539558Y252808D01*
X537052Y254732D01*
X534133Y255941D01*
X531000Y256354D01*
X527867Y255941D01*
X524948Y254732D01*
X522441Y252808D01*
X521559Y251658D01*
X521329Y251358D01*
X520059Y251789D01*
Y252167D01*
Y299233D01*
X527751Y306925D01*
X528598Y307704D01*
X530238Y309055D01*
X530917Y309538D01*
X531535Y309922D01*
X532061Y310194D01*
X532481Y310361D01*
X532754Y310431D01*
X533000Y310382D01*
X535341Y310848D01*
X537326Y312174D01*
X538652Y314159D01*
X539118Y316500D01*
X538652Y318841D01*
X537326Y320826D01*
X535341Y322152D01*
X533000Y322617D01*
X530659Y322152D01*
X528674Y320826D01*
X527348Y318841D01*
X526883Y316500D01*
X526931Y316254D01*
X526861Y315981D01*
X526694Y315561D01*
X526422Y315035D01*
X526038Y314417D01*
X525567Y313754D01*
X523388Y311214D01*
X517434Y305259D01*
D01*
X517221Y305047D01*
X516048Y305533D01*
Y305833D01*
Y317264D01*
X516096Y318415D01*
X516300Y320529D01*
X516440Y321350D01*
X516605Y322057D01*
X516785Y322621D01*
X516963Y323034D01*
X517109Y323279D01*
X517326Y323424D01*
X518652Y325409D01*
X519118Y327750D01*
X518652Y330091D01*
X517326Y332076D01*
X515341Y333402D01*
X513000Y333867D01*
D02*
G37*
G36*
X295875Y175533D02*
X288355D01*
Y169263D01*
X295875D01*
Y169328D01*
Y175533D01*
D02*
G37*
G36*
X1048650Y189091D02*
X1045909Y188730D01*
X1043355Y187672D01*
X1041161Y185989D01*
X1039478Y183795D01*
X1038420Y181241D01*
X1038059Y178500D01*
X1038420Y175759D01*
X1039478Y173205D01*
X1041161Y171011D01*
X1043355Y169328D01*
X1045909Y168270D01*
X1048650Y167909D01*
X1051391Y168270D01*
X1053945Y169328D01*
X1056139Y171011D01*
X1057822Y173205D01*
X1058880Y175759D01*
X1059241Y178500D01*
X1058880Y181241D01*
X1057822Y183795D01*
X1056139Y185989D01*
X1053945Y187672D01*
X1051391Y188730D01*
X1048650Y189091D01*
D02*
G37*
G36*
X1023250D02*
X1020509Y188730D01*
X1017955Y187672D01*
X1015761Y185989D01*
X1014078Y183795D01*
X1013020Y181241D01*
X1012659Y178500D01*
X1013020Y175759D01*
X1014078Y173205D01*
X1015761Y171011D01*
X1017955Y169328D01*
X1020509Y168270D01*
X1023250Y167909D01*
X1025991Y168270D01*
X1028545Y169328D01*
X1030739Y171011D01*
X1032422Y173205D01*
X1033480Y175759D01*
X1033841Y178500D01*
X1033480Y181241D01*
X1032422Y183795D01*
X1030739Y185989D01*
X1028545Y187672D01*
X1025991Y188730D01*
X1023250Y189091D01*
D02*
G37*
G36*
X1049920Y164068D02*
Y154370D01*
X1059618D01*
X1059406Y155982D01*
X1058293Y158668D01*
X1056524Y160974D01*
X1054218Y162743D01*
X1051532Y163856D01*
X1049920Y164068D01*
D02*
G37*
G36*
X1047380D02*
X1045768Y163856D01*
X1043082Y162743D01*
X1040776Y160974D01*
X1039007Y158668D01*
X1037894Y155982D01*
X1037682Y154370D01*
X1047380D01*
Y164068D01*
D02*
G37*
G36*
X1024520D02*
Y154370D01*
X1034218D01*
X1034006Y155982D01*
X1032893Y158668D01*
X1031124Y160974D01*
X1028818Y162743D01*
X1026132Y163856D01*
X1024520Y164068D01*
D02*
G37*
G36*
X1021980D02*
X1020368Y163856D01*
X1017682Y162743D01*
X1015376Y160974D01*
X1013607Y158668D01*
X1012494Y155982D01*
X1012282Y154370D01*
X1021980D01*
Y164068D01*
D02*
G37*
G36*
X1059618Y151830D02*
X1049920D01*
Y142132D01*
X1051532Y142344D01*
X1054218Y143457D01*
X1056524Y145226D01*
X1058293Y147532D01*
X1059406Y150218D01*
X1059618Y151830D01*
D02*
G37*
G36*
X1047380D02*
X1037682D01*
X1037894Y150218D01*
X1039007Y147532D01*
X1040776Y145226D01*
X1043082Y143457D01*
X1045768Y142344D01*
X1047380Y142132D01*
Y151830D01*
D02*
G37*
G36*
X1034218D02*
X1024520D01*
Y142132D01*
X1026132Y142344D01*
X1028818Y143457D01*
X1031124Y145226D01*
X1032893Y147532D01*
X1034006Y150218D01*
X1034218Y151830D01*
D02*
G37*
G36*
X1021980D02*
X1012282D01*
X1012494Y150218D01*
X1013607Y147532D01*
X1015376Y145226D01*
X1017682Y143457D01*
X1020368Y142344D01*
X1021980Y142132D01*
Y151830D01*
D02*
G37*
G36*
X198500Y192310D02*
X196673Y192070D01*
X194970Y191364D01*
X193508Y190242D01*
X192386Y188780D01*
X191680Y187077D01*
X191440Y185250D01*
X191680Y183423D01*
X192386Y181720D01*
X193508Y180258D01*
X194970Y179135D01*
X196673Y178430D01*
X198500Y178190D01*
X198534Y178194D01*
X198766Y178112D01*
X199218Y177880D01*
X199832Y177493D01*
X200538Y176984D01*
X204410Y173572D01*
X216922Y161061D01*
Y134120D01*
X215652Y133735D01*
X215422Y134079D01*
D01*
X215144Y134494D01*
X213312Y135718D01*
X211150Y136149D01*
X209420D01*
Y118500D01*
Y100851D01*
X211150D01*
X213312Y101281D01*
X215144Y102506D01*
X215282Y102712D01*
X215652Y103265D01*
X216922Y102880D01*
Y96689D01*
X205266Y85034D01*
X204382Y83711D01*
X204072Y82150D01*
X204072Y82150D01*
Y79984D01*
X203199Y79810D01*
X201545Y78705D01*
X200440Y77051D01*
X200052Y75100D01*
Y51100D01*
X200440Y49149D01*
X201545Y47495D01*
X203199Y46390D01*
X205150Y46002D01*
X211150D01*
X213101Y46390D01*
X214755Y47495D01*
X215860Y49149D01*
X216248Y51100D01*
Y75100D01*
X215860Y77051D01*
X214755Y78705D01*
X213459Y79570D01*
X213264Y79701D01*
X213030Y80306D01*
X212910Y81143D01*
X223884Y92116D01*
X223884Y92116D01*
X224768Y93439D01*
X225078Y95000D01*
X225078Y95000D01*
Y102017D01*
Y102431D01*
X226348Y102816D01*
X226556Y102506D01*
X228388Y101281D01*
X230550Y100851D01*
X232280D01*
Y118500D01*
Y136149D01*
X230550D01*
X228388Y135718D01*
X226556Y134494D01*
D01*
X226556D01*
X226348Y134184D01*
X225078Y134569D01*
Y134983D01*
Y162750D01*
X225078Y162750D01*
X224768Y164311D01*
X223884Y165634D01*
X223884Y165634D01*
X209978Y179539D01*
X208322Y181327D01*
X206785Y183185D01*
X206257Y183918D01*
X205870Y184532D01*
X205639Y184984D01*
X205556Y185216D01*
X205560Y185250D01*
X205320Y187077D01*
X204615Y188780D01*
X203493Y190242D01*
X202030Y191364D01*
X200327Y192070D01*
X198500Y192310D01*
D02*
G37*
G36*
X261950Y136149D02*
X260220D01*
Y119770D01*
X267598D01*
Y130500D01*
X267169Y132662D01*
X265944Y134494D01*
X264112Y135718D01*
X261950Y136149D01*
D02*
G37*
G36*
X257680D02*
X255950D01*
X253788Y135718D01*
X251956Y134494D01*
X250732Y132662D01*
X250301Y130500D01*
Y119770D01*
X257680D01*
Y136149D01*
D02*
G37*
G36*
X236550D02*
X234820D01*
Y119770D01*
X242199D01*
Y130500D01*
X241769Y132662D01*
X240544Y134494D01*
X238712Y135718D01*
X236550Y136149D01*
D02*
G37*
G36*
X206880D02*
X205150D01*
X202988Y135718D01*
X201156Y134494D01*
X199932Y132662D01*
X199501Y130500D01*
Y119770D01*
X206880D01*
Y136149D01*
D02*
G37*
G36*
X267598Y117230D02*
X260220D01*
Y100851D01*
X261950D01*
X264112Y101281D01*
X265944Y102506D01*
X267169Y104338D01*
X267598Y106500D01*
Y117230D01*
D02*
G37*
G36*
X257680D02*
X250301D01*
Y106500D01*
X250732Y104338D01*
X251956Y102506D01*
X253788Y101281D01*
X255950Y100851D01*
X257680D01*
Y117230D01*
D02*
G37*
G36*
X242199D02*
X234820D01*
Y100851D01*
X236550D01*
X238712Y101281D01*
X240544Y102506D01*
X241769Y104338D01*
X242199Y106500D01*
Y117230D01*
D02*
G37*
G36*
X206880D02*
X199501D01*
Y106500D01*
X199932Y104338D01*
X201156Y102506D01*
X202988Y101281D01*
X205150Y100851D01*
X206880D01*
Y117230D01*
D02*
G37*
G36*
X1037190Y134357D02*
X1033661Y134010D01*
X1030268Y132980D01*
X1027141Y131309D01*
X1024400Y129059D01*
X1022151Y126319D01*
X1020480Y123192D01*
X1019450Y119799D01*
X1019103Y116270D01*
X1019450Y112741D01*
X1020480Y109348D01*
X1022151Y106221D01*
X1024400Y103481D01*
X1027141Y101231D01*
X1030268Y99560D01*
X1033661Y98531D01*
X1037190Y98183D01*
X1040719Y98531D01*
X1044112Y99560D01*
X1047239Y101231D01*
X1049979Y103481D01*
X1052229Y106221D01*
X1053900Y109348D01*
X1054930Y112741D01*
X1055277Y116270D01*
X1054930Y119799D01*
X1053900Y123192D01*
X1052229Y126319D01*
X1049979Y129059D01*
X1047239Y131309D01*
X1044112Y132980D01*
X1040719Y134010D01*
X1037190Y134357D01*
D02*
G37*
G36*
X236550Y80749D02*
X234820D01*
Y64370D01*
X242199D01*
Y75100D01*
X241769Y77262D01*
X240544Y79094D01*
X238712Y80319D01*
X236550Y80749D01*
D02*
G37*
G36*
X232280D02*
X230550D01*
X228388Y80319D01*
X226556Y79094D01*
X225331Y77262D01*
X224902Y75100D01*
Y64370D01*
X232280D01*
Y80749D01*
D02*
G37*
G36*
X592189Y80198D02*
X586189D01*
X584238Y79810D01*
X582584Y78705D01*
X581479Y77051D01*
X581091Y75100D01*
Y51100D01*
X581479Y49149D01*
X582584Y47495D01*
X584238Y46390D01*
X586189Y46002D01*
X592189D01*
X594140Y46390D01*
X595794Y47495D01*
X596899Y49149D01*
X597287Y51100D01*
Y75100D01*
X596899Y77051D01*
X595794Y78705D01*
X594140Y79810D01*
X592189Y80198D01*
D02*
G37*
G36*
X233500Y94867D02*
X231159Y94402D01*
X229174Y93076D01*
X227848Y91091D01*
X227383Y88750D01*
X227848Y86409D01*
X229174Y84424D01*
X231159Y83098D01*
X233500Y82632D01*
X235841Y83098D01*
X237652Y84308D01*
X237762Y84334D01*
X243047Y84672D01*
X278311D01*
X280272Y82711D01*
Y79984D01*
X279399Y79810D01*
X277745Y78705D01*
X276640Y77051D01*
X276252Y75100D01*
Y51100D01*
X276640Y49149D01*
X277745Y47495D01*
X279399Y46390D01*
X281350Y46002D01*
X287350D01*
X289301Y46390D01*
X290955Y47495D01*
X292060Y49149D01*
X292448Y51100D01*
Y75100D01*
X292060Y77051D01*
X290955Y78705D01*
X289301Y79810D01*
X288428Y79984D01*
Y84400D01*
X288118Y85961D01*
X287234Y87284D01*
X287234Y87284D01*
X282884Y91634D01*
X281561Y92518D01*
X280000Y92828D01*
X280000Y92828D01*
X242558D01*
X239960Y92914D01*
X238366Y93062D01*
X237856Y93144D01*
X237652Y93192D01*
X235841Y94402D01*
X233500Y94867D01*
D02*
G37*
G36*
X261950Y80198D02*
X255950D01*
X253999Y79810D01*
X252345Y78705D01*
X251240Y77051D01*
X250852Y75100D01*
Y51100D01*
X251240Y49149D01*
X252345Y47495D01*
X253999Y46390D01*
X255950Y46002D01*
X261950D01*
X263901Y46390D01*
X265555Y47495D01*
X266660Y49149D01*
X267048Y51100D01*
Y75100D01*
X266660Y77051D01*
X265555Y78705D01*
X263901Y79810D01*
X261950Y80198D01*
D02*
G37*
G36*
X242199Y61830D02*
X234820D01*
Y45451D01*
X236550D01*
X238712Y45882D01*
X240544Y47106D01*
X241769Y48938D01*
X242199Y51100D01*
Y61830D01*
D02*
G37*
G36*
X232280D02*
X224902D01*
Y51100D01*
X225331Y48938D01*
X226556Y47106D01*
X228388Y45882D01*
X230550Y45451D01*
X232280D01*
Y61830D01*
D02*
G37*
G36*
X617589Y135598D02*
X611589D01*
X609638Y135210D01*
X607984Y134105D01*
X606879Y132451D01*
X606491Y130500D01*
Y106500D01*
X606879Y104549D01*
X607984Y102895D01*
X609638Y101790D01*
X611530Y101414D01*
Y99106D01*
X599837Y87413D01*
X599174Y86420D01*
X598941Y85250D01*
X598941Y85250D01*
Y38750D01*
X598941Y38750D01*
X599174Y37580D01*
X599837Y36587D01*
X600440Y35984D01*
X601399Y34982D01*
X602552Y33620D01*
X602950Y33083D01*
X603249Y32622D01*
X603437Y32274D01*
X603518Y32071D01*
X603520Y32063D01*
X603518Y31958D01*
X603521Y31945D01*
X603382Y31250D01*
X603848Y28909D01*
X605174Y26924D01*
X607159Y25598D01*
X609500Y25133D01*
X611841Y25598D01*
X613826Y26924D01*
X615152Y28909D01*
X615617Y31250D01*
X615152Y33591D01*
X613826Y35576D01*
X611841Y36902D01*
X609500Y37367D01*
X608805Y37229D01*
X608792Y37232D01*
X608687Y37230D01*
X608679Y37232D01*
X608476Y37313D01*
X608128Y37501D01*
X607667Y37800D01*
X607144Y38187D01*
X605059Y40017D01*
Y50612D01*
Y75588D01*
Y83983D01*
X616752Y95676D01*
X616752Y95676D01*
X617415Y96669D01*
X617648Y97839D01*
Y101414D01*
X619540Y101790D01*
X621194Y102895D01*
X622299Y104549D01*
X622687Y106500D01*
Y130500D01*
X622299Y132451D01*
X621194Y134105D01*
X619540Y135210D01*
X617589Y135598D01*
D02*
G37*
G36*
X556250Y28368D02*
X553909Y27902D01*
X551924Y26576D01*
X550598Y24591D01*
X550132Y22250D01*
X550598Y19909D01*
X551924Y17924D01*
X553909Y16598D01*
X556250Y16133D01*
X558591Y16598D01*
X560576Y17924D01*
X561902Y19909D01*
X562368Y22250D01*
X561902Y24591D01*
X560576Y26576D01*
X558591Y27902D01*
X556250Y28368D01*
D02*
G37*
%LPD*%
G36*
X1138665Y623578D02*
X1139175Y623299D01*
X1139798Y623053D01*
X1140533Y622840D01*
X1141380Y622660D01*
X1142340Y622513D01*
X1144595Y622316D01*
X1147299Y622250D01*
X1147429Y620250D01*
X1146028Y620232D01*
X1142505Y619952D01*
X1141558Y619784D01*
X1140725Y619579D01*
X1140005Y619336D01*
X1139398Y619056D01*
X1138905Y618739D01*
X1138526Y618384D01*
X1135500Y621260D01*
X1132474Y618384D01*
X1132094Y618739D01*
X1131601Y619056D01*
X1130995Y619336D01*
X1130275Y619579D01*
X1129442Y619784D01*
X1128494Y619952D01*
X1124972Y620232D01*
X1123571Y620250D01*
X1123700Y622250D01*
X1126405Y622316D01*
X1128660Y622513D01*
X1129619Y622660D01*
X1130467Y622840D01*
X1131202Y623053D01*
X1131824Y623299D01*
X1132335Y623578D01*
X1132734Y623889D01*
X1135500Y621260D01*
X1138266Y623889D01*
X1138665Y623578D01*
D02*
G37*
G36*
X1148515Y544256D02*
X1148545Y543911D01*
X1148595Y543606D01*
X1148665Y543343D01*
X1148755Y543119D01*
X1148865Y542937D01*
X1148995Y542794D01*
X1149145Y542693D01*
X1149315Y542632D01*
X1149505Y542612D01*
X1145505D01*
X1145695Y542632D01*
X1145865Y542693D01*
X1146015Y542794D01*
X1146145Y542937D01*
X1146255Y543119D01*
X1146345Y543343D01*
X1146415Y543606D01*
X1146465Y543911D01*
X1146495Y544256D01*
X1146505Y544642D01*
X1148505D01*
X1148515Y544256D01*
D02*
G37*
G36*
X1055787Y589910D02*
X1057048Y589068D01*
X1058501Y588326D01*
X1060148Y587682D01*
X1061989Y587137D01*
X1064023Y586692D01*
X1066250Y586345D01*
X1068670Y586098D01*
X1074091Y585900D01*
Y583900D01*
X1071284Y583851D01*
X1066250Y583455D01*
X1064023Y583108D01*
X1061989Y582663D01*
X1060148Y582118D01*
X1058501Y581474D01*
X1057048Y580732D01*
X1055787Y579891D01*
X1054720Y578950D01*
Y590850D01*
X1055787Y589910D01*
D02*
G37*
G36*
X1031820Y592710D02*
X1032120Y592121D01*
X1032619Y591600D01*
X1033319Y591149D01*
X1034220Y590767D01*
X1035320Y590455D01*
X1036619Y590212D01*
X1038120Y590039D01*
X1039819Y589935D01*
X1041720Y589900D01*
Y579900D01*
X1039819Y579865D01*
X1036619Y579588D01*
X1035320Y579345D01*
X1034220Y579033D01*
X1033319Y578651D01*
X1032619Y578200D01*
X1032120Y577679D01*
X1031820Y577090D01*
X1031720Y576431D01*
Y593369D01*
X1031820Y592710D01*
D02*
G37*
G36*
X1036707Y571543D02*
X1035478Y570281D01*
X1032688Y566995D01*
X1032056Y566066D01*
X1031574Y565220D01*
X1031241Y564458D01*
X1031057Y563778D01*
X1031022Y563182D01*
X1031137Y562669D01*
X1026419Y567387D01*
X1026932Y567272D01*
X1027528Y567307D01*
X1028208Y567491D01*
X1028970Y567824D01*
X1029816Y568306D01*
X1030745Y568938D01*
X1031757Y569719D01*
X1034031Y571728D01*
X1035293Y572957D01*
X1036707Y571543D01*
D02*
G37*
G36*
X1120941Y571233D02*
Y559544D01*
X1119768Y559058D01*
X1104413Y574413D01*
X1103420Y575076D01*
X1102250Y575309D01*
X1102250Y575309D01*
X1055485D01*
X1055054Y576579D01*
X1056139Y577411D01*
X1056306Y577630D01*
X1057033Y578270D01*
X1058081Y578970D01*
X1059338Y579612D01*
X1060810Y580187D01*
X1062497Y580686D01*
X1064398Y581103D01*
X1066487Y581428D01*
X1071382Y581813D01*
X1072999Y581841D01*
X1110333D01*
X1120941Y571233D01*
D02*
G37*
G36*
X1055787Y564510D02*
X1057048Y563668D01*
X1058501Y562925D01*
X1060148Y562282D01*
X1061989Y561738D01*
X1064023Y561292D01*
X1066250Y560946D01*
X1068670Y560698D01*
X1074091Y560500D01*
Y558500D01*
X1071284Y558451D01*
X1066250Y558055D01*
X1064023Y557708D01*
X1061989Y557262D01*
X1060148Y556718D01*
X1058501Y556074D01*
X1057048Y555332D01*
X1055787Y554491D01*
X1054720Y553550D01*
Y565450D01*
X1055787Y564510D01*
D02*
G37*
G36*
X1116191Y553983D02*
Y543920D01*
X1114921Y543503D01*
X1114013Y544578D01*
X1113604Y545135D01*
X1113294Y545616D01*
X1113095Y545987D01*
X1113004Y546216D01*
X1112994Y546259D01*
X1112995Y546383D01*
X1113118Y547000D01*
X1112652Y549341D01*
X1111326Y551326D01*
X1109341Y552652D01*
X1107000Y553117D01*
X1104659Y552652D01*
X1102674Y551326D01*
X1101348Y549341D01*
X1100882Y547000D01*
X1101084Y545985D01*
X1100075Y544552D01*
X1099814Y544512D01*
X1082663Y561663D01*
X1081671Y562326D01*
X1080500Y562559D01*
X1080500Y562559D01*
X1073592D01*
X1068811Y562733D01*
X1066510Y562969D01*
X1064398Y563297D01*
X1062497Y563714D01*
X1060810Y564213D01*
X1059338Y564788D01*
X1058081Y565430D01*
X1057033Y566129D01*
X1056306Y566770D01*
X1056139Y566989D01*
X1054923Y567921D01*
X1055354Y569191D01*
X1100983D01*
X1116191Y553983D01*
D02*
G37*
G36*
X1110954Y546038D02*
X1111049Y545611D01*
X1111243Y545125D01*
X1111535Y544580D01*
X1111924Y543977D01*
X1112411Y543315D01*
X1113679Y541813D01*
X1115338Y540076D01*
X1113923Y538662D01*
X1113026Y539541D01*
X1110685Y541589D01*
X1110023Y542076D01*
X1109419Y542465D01*
X1108875Y542757D01*
X1108389Y542951D01*
X1107962Y543046D01*
X1107594Y543044D01*
X1110956Y546406D01*
X1110954Y546038D01*
D02*
G37*
G36*
X1055787Y539109D02*
X1057048Y538268D01*
X1058501Y537525D01*
X1060148Y536882D01*
X1061989Y536338D01*
X1064023Y535892D01*
X1066250Y535546D01*
X1068670Y535298D01*
X1074091Y535100D01*
Y533100D01*
X1071284Y533050D01*
X1066250Y532654D01*
X1064023Y532308D01*
X1061989Y531862D01*
X1060148Y531318D01*
X1058501Y530675D01*
X1057048Y529932D01*
X1055787Y529090D01*
X1054720Y528150D01*
Y540050D01*
X1055787Y539109D01*
D02*
G37*
G36*
X1106191Y529483D02*
Y526544D01*
X1105018Y526058D01*
X1082163Y548913D01*
X1081171Y549576D01*
X1080000Y549809D01*
X1080000Y549809D01*
X1055355D01*
X1054923Y551079D01*
X1056139Y552011D01*
X1056306Y552230D01*
X1057033Y552870D01*
X1058081Y553570D01*
X1059338Y554212D01*
X1060810Y554787D01*
X1062497Y555286D01*
X1064398Y555703D01*
X1066487Y556028D01*
X1071382Y556413D01*
X1072999Y556441D01*
X1079233D01*
X1106191Y529483D01*
D02*
G37*
G36*
X1101941Y520483D02*
Y519044D01*
X1100768Y518558D01*
X1083063Y536263D01*
X1082070Y536926D01*
X1080900Y537159D01*
X1080900Y537159D01*
X1073592D01*
X1068811Y537333D01*
X1066510Y537569D01*
X1064398Y537897D01*
X1062497Y538314D01*
X1060810Y538813D01*
X1059338Y539388D01*
X1058081Y540030D01*
X1057033Y540729D01*
X1056306Y541370D01*
X1056139Y541589D01*
X1055054Y542421D01*
X1055485Y543691D01*
X1078733D01*
X1101941Y520483D01*
D02*
G37*
G36*
X1036957Y519543D02*
X1035783Y518340D01*
X1033085Y515212D01*
X1032461Y514329D01*
X1031973Y513527D01*
X1031624Y512804D01*
X1031412Y512162D01*
X1031337Y511599D01*
X1031399Y511117D01*
X1027548Y516033D01*
X1027977Y515878D01*
X1028487Y515867D01*
X1029081Y516000D01*
X1029757Y516276D01*
X1030515Y516697D01*
X1031356Y517261D01*
X1032279Y517969D01*
X1034372Y519817D01*
X1035543Y520957D01*
X1036957Y519543D01*
D02*
G37*
G36*
X1055787Y513709D02*
X1057048Y512868D01*
X1058501Y512126D01*
X1060148Y511482D01*
X1061989Y510938D01*
X1064023Y510492D01*
X1066250Y510145D01*
X1068670Y509898D01*
X1074091Y509700D01*
Y507700D01*
X1071284Y507650D01*
X1066250Y507254D01*
X1064023Y506908D01*
X1061989Y506463D01*
X1060148Y505918D01*
X1058501Y505275D01*
X1057048Y504532D01*
X1055787Y503690D01*
X1054720Y502750D01*
Y514650D01*
X1055787Y513709D01*
D02*
G37*
G36*
X1137748Y492431D02*
X1138337Y491954D01*
X1138596Y491794D01*
X1138831Y491686D01*
X1139042Y491629D01*
X1139230Y491625D01*
X1139394Y491672D01*
X1139534Y491771D01*
X1139650Y491922D01*
X1137561Y488386D01*
X1137642Y488570D01*
X1137678Y488770D01*
X1137669Y488987D01*
X1137615Y489221D01*
X1137516Y489473D01*
X1137372Y489741D01*
X1137184Y490027D01*
X1136951Y490330D01*
X1136672Y490650D01*
X1136349Y490987D01*
X1137418Y492747D01*
X1137748Y492431D01*
D02*
G37*
G36*
X1055787Y462910D02*
X1057048Y462068D01*
X1058501Y461325D01*
X1060148Y460682D01*
X1061989Y460137D01*
X1064023Y459692D01*
X1066250Y459346D01*
X1068670Y459098D01*
X1074091Y458900D01*
Y456900D01*
X1071284Y456851D01*
X1066250Y456455D01*
X1064023Y456108D01*
X1061989Y455662D01*
X1060148Y455118D01*
X1058501Y454474D01*
X1057048Y453732D01*
X1055787Y452891D01*
X1054720Y451950D01*
Y463850D01*
X1055787Y462910D01*
D02*
G37*
G36*
X1030799Y453817D02*
X1030825Y453361D01*
X1030977Y452828D01*
X1031257Y452219D01*
X1031664Y451533D01*
X1032198Y450771D01*
X1032860Y449932D01*
X1034564Y448025D01*
X1035607Y446957D01*
X1034193Y445543D01*
X1033125Y446586D01*
X1030379Y448951D01*
X1029617Y449486D01*
X1028931Y449893D01*
X1028322Y450173D01*
X1027789Y450325D01*
X1027333Y450351D01*
X1026953Y450249D01*
X1030901Y454197D01*
X1030799Y453817D01*
D02*
G37*
G36*
X1088191Y440483D02*
Y433544D01*
X1087018Y433058D01*
X1071663Y448413D01*
X1070670Y449076D01*
X1069500Y449309D01*
X1069500Y449309D01*
X1056576D01*
X1056267Y450579D01*
X1056306Y450630D01*
X1057033Y451270D01*
X1058081Y451970D01*
X1059338Y452612D01*
X1060810Y453187D01*
X1062497Y453686D01*
X1064398Y454103D01*
X1066487Y454428D01*
X1071382Y454813D01*
X1072999Y454841D01*
X1073833D01*
X1088191Y440483D01*
D02*
G37*
G36*
X1239102Y438188D02*
X1238128Y437189D01*
X1235825Y434503D01*
X1235263Y433712D01*
X1234804Y432974D01*
X1234448Y432287D01*
X1234196Y431652D01*
X1234046Y431070D01*
X1234000Y430540D01*
X1230040Y434500D01*
X1230570Y434546D01*
X1231152Y434696D01*
X1231787Y434949D01*
X1232474Y435304D01*
X1233212Y435763D01*
X1234003Y436325D01*
X1235741Y437757D01*
X1236689Y438629D01*
X1237688Y439603D01*
X1239102Y438188D01*
D02*
G37*
G36*
X824123Y437061D02*
X826520Y434970D01*
X827201Y434471D01*
X827824Y434071D01*
X828388Y433771D01*
X828894Y433570D01*
X829341Y433468D01*
X829729Y433466D01*
X826284Y430021D01*
X826282Y430409D01*
X826180Y430856D01*
X825979Y431362D01*
X825679Y431926D01*
X825279Y432549D01*
X824780Y433231D01*
X823485Y434769D01*
X821793Y436543D01*
X823207Y437957D01*
X824123Y437061D01*
D02*
G37*
G36*
X1130980Y428825D02*
X1130618Y428841D01*
X1130196Y428758D01*
X1129716Y428577D01*
X1129177Y428297D01*
X1128580Y427918D01*
X1127923Y427440D01*
X1126433Y426189D01*
X1124707Y424543D01*
X1123293Y425957D01*
X1124176Y426860D01*
X1126246Y429214D01*
X1126743Y429880D01*
X1127142Y430488D01*
X1127445Y431037D01*
X1127651Y431527D01*
X1127760Y431958D01*
X1127772Y432329D01*
X1130980Y428825D01*
D02*
G37*
G36*
X965061Y433129D02*
X967747Y430825D01*
X968538Y430263D01*
X969277Y429804D01*
X969963Y429449D01*
X970598Y429196D01*
X971180Y429046D01*
X971710Y429000D01*
X967750Y425040D01*
X967704Y425570D01*
X967554Y426152D01*
X967301Y426787D01*
X966946Y427473D01*
X966487Y428212D01*
X965925Y429003D01*
X964492Y430742D01*
X963622Y431689D01*
X962647Y432688D01*
X964062Y434103D01*
X965061Y433129D01*
D02*
G37*
G36*
X1030227Y428080D02*
X1030142Y427924D01*
X1030105Y427750D01*
X1030114Y427558D01*
X1030171Y427346D01*
X1030274Y427116D01*
X1030425Y426866D01*
X1030622Y426598D01*
X1030867Y426311D01*
X1031158Y426006D01*
X1029610Y424725D01*
X1029302Y425019D01*
X1029011Y425269D01*
X1028735Y425475D01*
X1028476Y425636D01*
X1028233Y425753D01*
X1028006Y425826D01*
X1027795Y425854D01*
X1027600Y425838D01*
X1027422Y425778D01*
X1027260Y425674D01*
X1030358Y428216D01*
X1030227Y428080D01*
D02*
G37*
G36*
X810015Y427926D02*
X812704Y425638D01*
X813491Y425092D01*
X814223Y424653D01*
X814901Y424323D01*
X815524Y424101D01*
X816093Y423987D01*
X816607Y423981D01*
X813002Y419878D01*
X812937Y420362D01*
X812768Y420905D01*
X812498Y421507D01*
X812124Y422168D01*
X811648Y422887D01*
X811069Y423664D01*
X809602Y425396D01*
X807724Y427361D01*
X809009Y428905D01*
X810015Y427926D01*
D02*
G37*
G36*
X944226Y426712D02*
X946911Y424387D01*
X947697Y423817D01*
X948429Y423349D01*
X949106Y422983D01*
X949729Y422719D01*
X950298Y422558D01*
X950812Y422500D01*
X946756Y418717D01*
X946730Y419239D01*
X946598Y419815D01*
X946361Y420444D01*
X946018Y421127D01*
X945570Y421863D01*
X945016Y422652D01*
X943591Y424390D01*
X942720Y425340D01*
X941743Y426343D01*
X943222Y427692D01*
X944226Y426712D01*
D02*
G37*
G36*
X762871Y423303D02*
X765371Y421146D01*
X765707Y420938D01*
X765988Y420804D01*
X766214Y420745D01*
X766385Y420760D01*
X763990Y418365D01*
X764005Y418536D01*
X763946Y418762D01*
X763812Y419043D01*
X763604Y419379D01*
X763321Y419769D01*
X762533Y420714D01*
X761447Y421879D01*
X760793Y422543D01*
X762207Y423957D01*
X762871Y423303D01*
D02*
G37*
G36*
X1205632Y420727D02*
X1205885Y416977D01*
X1206106Y415398D01*
X1206391Y414019D01*
X1206739Y412837D01*
X1207151Y411853D01*
X1207626Y411068D01*
X1208164Y410480D01*
X1208765Y410091D01*
X1200435D01*
X1201036Y410480D01*
X1201574Y411068D01*
X1202049Y411853D01*
X1202461Y412837D01*
X1202809Y414019D01*
X1203094Y415398D01*
X1203315Y416977D01*
X1203568Y420727D01*
X1203600Y422900D01*
X1205600D01*
X1205632Y420727D01*
D02*
G37*
G36*
X1231028Y427643D02*
X1232800Y427644D01*
X1232458Y427236D01*
X1232152Y426718D01*
X1231882Y426091D01*
X1231648Y425354D01*
X1231450Y424507D01*
X1231288Y423551D01*
X1231271Y423375D01*
X1231485Y420645D01*
X1231862Y418241D01*
X1232347Y416069D01*
X1232940Y414130D01*
X1233640Y412423D01*
X1234448Y410948D01*
X1235364Y409705D01*
X1236387Y408694D01*
X1223613D01*
X1224636Y409705D01*
X1225552Y410948D01*
X1226360Y412423D01*
X1227060Y414130D01*
X1227653Y416069D01*
X1228138Y418241D01*
X1228515Y420645D01*
X1228755Y422991D01*
X1228712Y423551D01*
X1228550Y424507D01*
X1228352Y425354D01*
X1228118Y426091D01*
X1227848Y426718D01*
X1227542Y427236D01*
X1227200Y427643D01*
X1228942Y427643D01*
X1229000Y429250D01*
X1231000D01*
X1231028Y427643D01*
D02*
G37*
G36*
X1083441Y427983D02*
Y408294D01*
X1082268Y407808D01*
X1066913Y423163D01*
X1065920Y423826D01*
X1064750Y424059D01*
X1064750Y424059D01*
X1056341D01*
X1055910Y425329D01*
X1056425Y425724D01*
X1057948Y427709D01*
X1058905Y430020D01*
X1059232Y432500D01*
X1058905Y434980D01*
X1057948Y437291D01*
X1056425Y439275D01*
X1054441Y440798D01*
X1052130Y441755D01*
X1050871Y441921D01*
X1050954Y443191D01*
X1068233D01*
X1083441Y427983D01*
D02*
G37*
G36*
X1015080Y405109D02*
X1015058Y405297D01*
X1014991Y405466D01*
X1014879Y405614D01*
X1014722Y405743D01*
X1014521Y405852D01*
X1014275Y405941D01*
X1013984Y406011D01*
X1013648Y406060D01*
X1013268Y406090D01*
X1012843Y406100D01*
Y408100D01*
X1013268Y408110D01*
X1013648Y408140D01*
X1013984Y408189D01*
X1014275Y408259D01*
X1014521Y408348D01*
X1014722Y408457D01*
X1014879Y408586D01*
X1014991Y408734D01*
X1015058Y408903D01*
X1015080Y409091D01*
Y405109D01*
D02*
G37*
G36*
X788393Y402200D02*
X787986Y402542D01*
X787468Y402848D01*
X786841Y403118D01*
X786104Y403352D01*
X785257Y403550D01*
X784301Y403712D01*
X782058Y403928D01*
X780772Y403982D01*
X779377Y404000D01*
Y406000D01*
X780772Y406018D01*
X784301Y406288D01*
X785257Y406450D01*
X786104Y406648D01*
X786841Y406882D01*
X787468Y407152D01*
X787986Y407458D01*
X788393Y407800D01*
Y402200D01*
D02*
G37*
G36*
X936987Y404937D02*
X937980Y404274D01*
X939150Y404041D01*
X939150Y404041D01*
X1013234D01*
X1013952Y402309D01*
X1015474Y400325D01*
X1017459Y398802D01*
X1017997Y398579D01*
X1017745Y397309D01*
X985483D01*
X984332Y397357D01*
X982218Y397561D01*
X981395Y397700D01*
X980688Y397866D01*
X980123Y398045D01*
X979708Y398223D01*
X979465Y398367D01*
X979326Y398576D01*
X977341Y399902D01*
X975000Y400368D01*
X972659Y399902D01*
X970674Y398576D01*
X969348Y396591D01*
X968883Y394250D01*
X969348Y391909D01*
X970674Y389924D01*
X972659Y388598D01*
X975000Y388132D01*
X977341Y388598D01*
X979326Y389924D01*
X979465Y390133D01*
X979708Y390276D01*
X980122Y390455D01*
X980688Y390634D01*
X981396Y390800D01*
X982198Y390936D01*
X985535Y391191D01*
X1016285D01*
X1016716Y389921D01*
X1015761Y389189D01*
X1015594Y388970D01*
X1014867Y388330D01*
X1013819Y387630D01*
X1012562Y386988D01*
X1011090Y386413D01*
X1009403Y385914D01*
X1007502Y385497D01*
X1005413Y385172D01*
X1000518Y384787D01*
X998901Y384759D01*
X941803D01*
X939984Y384804D01*
X937865Y384993D01*
X937032Y385125D01*
X936315Y385280D01*
X935743Y385450D01*
X935324Y385618D01*
X935150Y385715D01*
X935076Y385826D01*
X933091Y387152D01*
X930750Y387617D01*
X928409Y387152D01*
X926424Y385826D01*
X925098Y383841D01*
X924632Y381500D01*
X925098Y379159D01*
X926424Y377174D01*
X928409Y375848D01*
X930750Y375382D01*
X933091Y375848D01*
X935076Y377174D01*
X935295Y377502D01*
X935371Y377572D01*
X935598Y377716D01*
X935983Y377891D01*
X936525Y378071D01*
X937215Y378240D01*
X938003Y378378D01*
X941336Y378641D01*
X998308D01*
X1003089Y378467D01*
X1005390Y378231D01*
X1007502Y377903D01*
X1009403Y377486D01*
X1011090Y376987D01*
X1012562Y376412D01*
X1013819Y375770D01*
X1014867Y375070D01*
X1015594Y374430D01*
X1015761Y374211D01*
X1016911Y373329D01*
X1016480Y372059D01*
X946483D01*
X945332Y372107D01*
X943218Y372311D01*
X942395Y372450D01*
X941688Y372616D01*
X941123Y372795D01*
X940708Y372974D01*
X940465Y373117D01*
X940326Y373326D01*
X938341Y374652D01*
X936000Y375117D01*
X933659Y374652D01*
X931674Y373326D01*
X930348Y371341D01*
X929883Y369000D01*
X930348Y366659D01*
X931674Y364674D01*
X933659Y363348D01*
X936000Y362882D01*
X938341Y363348D01*
X940326Y364674D01*
X940465Y364883D01*
X940708Y365027D01*
X941123Y365205D01*
X941688Y365384D01*
X942395Y365550D01*
X943198Y365686D01*
X946535Y365941D01*
X1016480D01*
X1016911Y364671D01*
X1015761Y363789D01*
X1015594Y363570D01*
X1014867Y362930D01*
X1013819Y362230D01*
X1012562Y361588D01*
X1011090Y361013D01*
X1009403Y360514D01*
X1007502Y360097D01*
X1005413Y359772D01*
X1000518Y359387D01*
X998901Y359359D01*
X966063D01*
X963742Y359499D01*
X962796Y359614D01*
X961965Y359760D01*
X961275Y359929D01*
X960733Y360109D01*
X960348Y360284D01*
X960121Y360428D01*
X960045Y360498D01*
X959826Y360826D01*
X957841Y362152D01*
X955500Y362617D01*
X953159Y362152D01*
X951174Y360826D01*
X949848Y358841D01*
X949382Y356500D01*
X949848Y354159D01*
X951174Y352174D01*
X953159Y350848D01*
X955500Y350382D01*
X957841Y350848D01*
X959826Y352174D01*
X959900Y352285D01*
X960074Y352382D01*
X960493Y352550D01*
X961065Y352719D01*
X961782Y352876D01*
X962597Y353004D01*
X965944Y353241D01*
X998308D01*
X1003089Y353067D01*
X1005390Y352831D01*
X1007502Y352503D01*
X1009403Y352086D01*
X1011090Y351587D01*
X1012562Y351012D01*
X1013819Y350370D01*
X1014867Y349670D01*
X1015594Y349030D01*
X1015761Y348811D01*
X1017955Y347128D01*
X1020509Y346070D01*
X1023250Y345709D01*
X1025991Y346070D01*
X1028545Y347128D01*
X1030739Y348811D01*
X1032422Y351005D01*
X1033480Y353559D01*
X1033841Y356300D01*
X1033480Y359041D01*
X1032422Y361595D01*
X1030739Y363789D01*
X1029588Y364671D01*
X1030020Y365941D01*
X1034683D01*
X1034825Y365799D01*
X1034968Y365652D01*
X1036887Y363482D01*
X1037583Y362580D01*
X1038131Y361775D01*
X1038516Y361101D01*
X1038743Y360584D01*
X1038830Y360262D01*
X1038835Y360170D01*
X1038784Y359944D01*
X1038783Y359917D01*
X1038420Y359041D01*
X1038059Y356300D01*
X1038420Y353559D01*
X1039478Y351005D01*
X1041161Y348811D01*
X1043355Y347128D01*
X1045909Y346070D01*
X1048650Y345709D01*
X1051391Y346070D01*
X1053945Y347128D01*
X1056139Y348811D01*
X1057822Y351005D01*
X1058880Y353559D01*
X1059241Y356300D01*
X1058880Y359041D01*
X1057822Y361595D01*
X1056139Y363789D01*
X1053945Y365472D01*
X1051391Y366530D01*
X1048650Y366891D01*
X1045909Y366530D01*
X1045033Y366167D01*
X1045006Y366166D01*
X1044780Y366115D01*
X1044688Y366120D01*
X1044366Y366207D01*
X1043849Y366434D01*
X1043175Y366819D01*
X1042409Y367340D01*
X1039284Y369996D01*
X1039151Y370125D01*
X1038113Y371163D01*
X1037121Y371826D01*
X1035950Y372059D01*
X1035950Y372059D01*
X1030020D01*
X1029588Y373329D01*
X1030739Y374211D01*
X1032422Y376405D01*
X1033480Y378959D01*
X1033841Y381700D01*
X1033480Y384441D01*
X1032422Y386995D01*
X1030739Y389189D01*
X1029784Y389921D01*
X1030215Y391191D01*
X1041685D01*
X1042116Y389921D01*
X1041161Y389189D01*
X1039478Y386995D01*
X1038420Y384441D01*
X1038059Y381700D01*
X1038420Y378959D01*
X1039478Y376405D01*
X1041161Y374211D01*
X1043355Y372528D01*
X1045909Y371470D01*
X1048650Y371109D01*
X1049081Y371166D01*
X1050128Y371129D01*
X1051250Y370924D01*
X1052494Y370532D01*
X1053854Y369941D01*
X1055324Y369142D01*
X1056896Y368131D01*
X1058545Y366921D01*
X1062187Y363800D01*
X1063191Y362830D01*
Y299767D01*
X1059233Y295809D01*
X1055355D01*
X1054923Y297079D01*
X1056139Y298011D01*
X1057822Y300205D01*
X1058880Y302759D01*
X1059241Y305500D01*
X1058880Y308241D01*
X1057822Y310795D01*
X1056139Y312989D01*
X1053945Y314672D01*
X1051391Y315730D01*
X1048650Y316091D01*
X1045909Y315730D01*
X1043355Y314672D01*
X1041161Y312989D01*
X1039478Y310795D01*
X1038420Y308241D01*
X1038059Y305500D01*
X1038420Y302759D01*
X1039478Y300205D01*
X1041161Y298011D01*
X1042377Y297079D01*
X1041945Y295809D01*
X1029955D01*
X1029523Y297079D01*
X1030739Y298011D01*
X1032422Y300205D01*
X1033480Y302759D01*
X1033841Y305500D01*
X1033480Y308241D01*
X1032422Y310795D01*
X1030739Y312989D01*
X1029523Y313921D01*
X1029954Y315191D01*
X1036000D01*
X1036000Y315191D01*
X1037170Y315424D01*
X1038163Y316087D01*
X1039205Y317130D01*
X1039340Y317260D01*
X1041493Y319165D01*
X1042388Y319857D01*
X1043185Y320400D01*
X1043852Y320781D01*
X1044362Y321005D01*
X1044676Y321090D01*
X1044759Y321095D01*
X1044977Y321045D01*
X1045006Y321044D01*
X1045909Y320670D01*
X1048650Y320309D01*
X1051391Y320670D01*
X1053945Y321728D01*
X1056139Y323411D01*
X1057822Y325605D01*
X1058880Y328159D01*
X1059241Y330900D01*
X1058880Y333641D01*
X1057822Y336195D01*
X1056139Y338389D01*
X1053945Y340072D01*
X1051391Y341130D01*
X1048650Y341491D01*
X1045909Y341130D01*
X1043355Y340072D01*
X1041161Y338389D01*
X1039478Y336195D01*
X1038420Y333641D01*
X1038059Y330900D01*
X1038420Y328159D01*
X1038794Y327256D01*
X1038795Y327228D01*
X1038845Y327009D01*
X1038840Y326926D01*
X1038755Y326612D01*
X1038531Y326102D01*
X1038150Y325435D01*
X1037634Y324677D01*
X1034996Y321575D01*
X1034879Y321455D01*
X1034733Y321309D01*
X1030085D01*
X1029654Y322579D01*
X1030739Y323411D01*
X1032422Y325605D01*
X1033480Y328159D01*
X1033841Y330900D01*
X1033480Y333641D01*
X1032422Y336195D01*
X1030739Y338389D01*
X1028545Y340072D01*
X1025991Y341130D01*
X1023250Y341491D01*
X1020509Y341130D01*
X1017955Y340072D01*
X1015761Y338389D01*
X1015594Y338170D01*
X1014867Y337530D01*
X1013819Y336830D01*
X1012562Y336188D01*
X1011090Y335613D01*
X1009403Y335114D01*
X1007502Y334697D01*
X1005413Y334372D01*
X1000518Y333987D01*
X998901Y333959D01*
X959867D01*
X841163Y452663D01*
X840171Y453326D01*
X839000Y453559D01*
X839000Y453559D01*
X497836D01*
X497158Y454829D01*
X497233Y454941D01*
X886983D01*
X936987Y404937D01*
D02*
G37*
G36*
X518210Y402000D02*
X517680Y401954D01*
X517098Y401804D01*
X516463Y401552D01*
X515776Y401196D01*
X515038Y400737D01*
X514247Y400175D01*
X512509Y398742D01*
X511561Y397872D01*
X510562Y396897D01*
X509147Y398312D01*
X510121Y399311D01*
X512425Y401997D01*
X512987Y402788D01*
X513446Y403526D01*
X513801Y404213D01*
X514054Y404848D01*
X514204Y405430D01*
X514250Y405960D01*
X518210Y402000D01*
D02*
G37*
G36*
X751936Y394178D02*
X751564Y394535D01*
X751077Y394855D01*
X750475Y395137D01*
X749759Y395381D01*
X748928Y395588D01*
X747984Y395757D01*
X746924Y395888D01*
X744463Y396039D01*
X743060Y396058D01*
X743220Y398058D01*
X744632Y398074D01*
X748190Y398313D01*
X749150Y398456D01*
X749996Y398632D01*
X750729Y398839D01*
X751348Y399078D01*
X751855Y399350D01*
X752248Y399653D01*
X751936Y394178D01*
D02*
G37*
G36*
X746736Y393857D02*
X747678Y393740D01*
X748502Y393592D01*
X749182Y393423D01*
X749290Y393386D01*
X749079Y392116D01*
X522058D01*
X520928Y393049D01*
X521780Y393999D01*
X744413D01*
X746736Y393857D01*
D02*
G37*
G36*
X978264Y396708D02*
X978782Y396402D01*
X979409Y396132D01*
X980146Y395898D01*
X980993Y395700D01*
X981949Y395538D01*
X984192Y395322D01*
X985478Y395268D01*
X986873Y395250D01*
Y393250D01*
X985478Y393232D01*
X981949Y392962D01*
X980993Y392800D01*
X980146Y392602D01*
X979409Y392368D01*
X978782Y392098D01*
X978264Y391792D01*
X977857Y391450D01*
X977857Y397050D01*
X978264Y396708D01*
D02*
G37*
G36*
X1079191Y402233D02*
Y390794D01*
X1078018Y390308D01*
X1071913Y396413D01*
X1070920Y397076D01*
X1069750Y397309D01*
X1069750Y397309D01*
X1054155D01*
X1053903Y398579D01*
X1054441Y398802D01*
X1056425Y400325D01*
X1057948Y402309D01*
X1058905Y404620D01*
X1059232Y407100D01*
X1058905Y409580D01*
X1057948Y411891D01*
X1056425Y413875D01*
X1054441Y415398D01*
X1052130Y416356D01*
X1049650Y416682D01*
X1049676Y417941D01*
X1063483D01*
X1079191Y402233D01*
D02*
G37*
G36*
X864338Y388848D02*
X866806Y386712D01*
X867512Y386205D01*
X868160Y385801D01*
X868750Y385499D01*
X869281Y385299D01*
X869755Y385202D01*
X870170Y385208D01*
X866757Y381478D01*
X866729Y381905D01*
X866602Y382389D01*
X866375Y382932D01*
X866048Y383532D01*
X865620Y384190D01*
X865093Y384906D01*
X863739Y386512D01*
X861985Y388350D01*
X863400Y389765D01*
X864338Y388848D01*
D02*
G37*
G36*
X933932Y384059D02*
X934446Y383773D01*
X935071Y383522D01*
X935808Y383304D01*
X936656Y383119D01*
X937616Y382968D01*
X939868Y382767D01*
X942566Y382700D01*
X942669Y380700D01*
X941269Y380681D01*
X937745Y380403D01*
X936796Y380237D01*
X935960Y380033D01*
X935237Y379792D01*
X934626Y379514D01*
X934128Y379198D01*
X933743Y378846D01*
X933529Y384377D01*
X933932Y384059D01*
D02*
G37*
G36*
X1017180Y375750D02*
X1016113Y376690D01*
X1014852Y377532D01*
X1013399Y378274D01*
X1011751Y378918D01*
X1009911Y379463D01*
X1007877Y379908D01*
X1005650Y380255D01*
X1003230Y380502D01*
X997809Y380700D01*
Y382700D01*
X1000616Y382749D01*
X1005650Y383145D01*
X1007877Y383492D01*
X1009911Y383937D01*
X1011751Y384482D01*
X1013399Y385126D01*
X1014852Y385868D01*
X1016113Y386710D01*
X1017180Y387650D01*
Y375750D01*
D02*
G37*
G36*
X898660Y377030D02*
X901348Y374734D01*
X902137Y374180D01*
X902873Y373732D01*
X903556Y373389D01*
X904185Y373152D01*
X904761Y373020D01*
X905283Y372994D01*
X901500Y368938D01*
X901442Y369452D01*
X901281Y370021D01*
X901017Y370644D01*
X900651Y371321D01*
X900183Y372053D01*
X899613Y372839D01*
X898165Y374575D01*
X896308Y376528D01*
X897657Y378007D01*
X898660Y377030D01*
D02*
G37*
G36*
X939264Y371458D02*
X939782Y371152D01*
X940409Y370882D01*
X941146Y370648D01*
X941993Y370450D01*
X942949Y370288D01*
X945192Y370072D01*
X946478Y370018D01*
X947873Y370000D01*
Y368000D01*
X946478Y367982D01*
X942949Y367712D01*
X941993Y367550D01*
X941146Y367352D01*
X940409Y367118D01*
X939782Y366848D01*
X939264Y366542D01*
X938857Y366200D01*
Y371800D01*
X939264Y371458D01*
D02*
G37*
G36*
X1057188Y380002D02*
X1057443Y378609D01*
X1057905Y377142D01*
X1058575Y375601D01*
X1059452Y373986D01*
X1060538Y372298D01*
X1061831Y370536D01*
X1065041Y366791D01*
X1066957Y364807D01*
X1065543Y363393D01*
X1063559Y365309D01*
X1059814Y368519D01*
X1058052Y369812D01*
X1056364Y370898D01*
X1054749Y371775D01*
X1053208Y372445D01*
X1051741Y372907D01*
X1050348Y373162D01*
X1049029Y373208D01*
X1057141Y381321D01*
X1057188Y380002D01*
D02*
G37*
G36*
X956437Y328737D02*
X956437Y328737D01*
X957430Y328074D01*
X958600Y327841D01*
X998308D01*
X1003089Y327667D01*
X1005390Y327431D01*
X1007502Y327103D01*
X1009403Y326686D01*
X1011090Y326187D01*
X1012562Y325612D01*
X1013819Y324970D01*
X1014867Y324271D01*
X1015594Y323630D01*
X1015761Y323411D01*
X1016846Y322579D01*
X1016415Y321309D01*
X919767D01*
X856347Y384729D01*
X856873Y385999D01*
X861411D01*
X862221Y385150D01*
X863491Y383643D01*
X863942Y383030D01*
X864295Y382487D01*
X864534Y382047D01*
X864666Y381733D01*
X864702Y381598D01*
X864632Y381250D01*
X865098Y378909D01*
X866424Y376924D01*
X868409Y375598D01*
X870750Y375132D01*
X873091Y375598D01*
X875076Y376924D01*
X876402Y378909D01*
X876868Y381250D01*
X876402Y383591D01*
X875076Y385576D01*
X873091Y386902D01*
X870750Y387368D01*
X870143Y387247D01*
X869949Y387244D01*
X869848Y387265D01*
X869576Y387367D01*
X869166Y387577D01*
X868648Y387900D01*
X868070Y388315D01*
X865770Y390306D01*
X864855Y391221D01*
X863863Y391884D01*
X862692Y392116D01*
X862692Y392116D01*
X760648D01*
X759969Y393386D01*
X760652Y394409D01*
X761117Y396750D01*
X760652Y399091D01*
X759326Y401076D01*
X757341Y402402D01*
X755000Y402868D01*
X752659Y402402D01*
X750674Y401076D01*
X750627Y401006D01*
X750496Y400935D01*
X750083Y400776D01*
X749510Y400614D01*
X748791Y400465D01*
X747971Y400342D01*
X744618Y400116D01*
X522530D01*
X522145Y401386D01*
X522576Y401674D01*
X523902Y403659D01*
X524367Y406000D01*
X523902Y408341D01*
X522576Y410326D01*
X520591Y411652D01*
X518250Y412118D01*
X515909Y411652D01*
X515501Y411380D01*
X514692Y412366D01*
X516267Y413941D01*
X749733D01*
X760837Y402837D01*
X760837Y402837D01*
X761829Y402174D01*
X763000Y401941D01*
X780767D01*
X781918Y401893D01*
X784032Y401689D01*
X784855Y401550D01*
X785562Y401384D01*
X786127Y401205D01*
X786542Y401026D01*
X786785Y400883D01*
X786924Y400674D01*
X788909Y399348D01*
X791250Y398882D01*
X793591Y399348D01*
X795576Y400674D01*
X796902Y402659D01*
X797367Y405000D01*
X796902Y407341D01*
X795576Y409326D01*
X793591Y410652D01*
X791250Y411118D01*
X788909Y410652D01*
X786924Y409326D01*
X786785Y409117D01*
X786542Y408974D01*
X786127Y408795D01*
X785562Y408616D01*
X784855Y408450D01*
X784052Y408314D01*
X780715Y408059D01*
X764267D01*
X753404Y418921D01*
X753659Y419868D01*
X753887Y420191D01*
X760233D01*
X761003Y419365D01*
X761710Y418517D01*
X761886Y418274D01*
X761633Y417000D01*
X762098Y414659D01*
X763424Y412674D01*
X765409Y411348D01*
X767750Y410882D01*
X770091Y411348D01*
X772076Y412674D01*
X773402Y414659D01*
X773867Y417000D01*
X773402Y419341D01*
X772076Y421326D01*
X770091Y422652D01*
X767750Y423117D01*
X766497Y422868D01*
X764390Y424685D01*
X763663Y425413D01*
X762671Y426076D01*
X762191Y426171D01*
X762317Y427441D01*
X804733D01*
X806855Y425319D01*
X808085Y424031D01*
X809471Y422395D01*
X809979Y421714D01*
X810385Y421101D01*
X810677Y420585D01*
X810857Y420183D01*
X810895Y420062D01*
X810882Y420000D01*
X811348Y417659D01*
X812674Y415674D01*
X814659Y414348D01*
X817000Y413882D01*
X819341Y414348D01*
X821326Y415674D01*
X822652Y417659D01*
X823118Y420000D01*
X822652Y422341D01*
X821326Y424326D01*
X819341Y425652D01*
X817000Y426118D01*
X816515Y426021D01*
X816307Y426023D01*
X816070Y426071D01*
X815692Y426206D01*
X815196Y426448D01*
X814597Y426806D01*
X813949Y427256D01*
X811405Y429421D01*
X808163Y432663D01*
X807776Y432921D01*
X808161Y434191D01*
X821218D01*
X821966Y433408D01*
X823176Y431970D01*
X823597Y431395D01*
X823917Y430895D01*
X824126Y430504D01*
X824227Y430249D01*
X824244Y430174D01*
X824245Y430064D01*
X824133Y429500D01*
X824598Y427159D01*
X825924Y425174D01*
X827909Y423848D01*
X830250Y423382D01*
X832591Y423848D01*
X834576Y425174D01*
X835902Y427159D01*
X836367Y429500D01*
X835902Y431841D01*
X835126Y433002D01*
X836113Y433812D01*
X895384Y374540D01*
X896642Y373218D01*
X898003Y371586D01*
X898498Y370904D01*
X898893Y370286D01*
X899177Y369760D01*
X899353Y369343D01*
X899410Y369141D01*
X899382Y369000D01*
X899848Y366659D01*
X901174Y364674D01*
X903159Y363348D01*
X905500Y362882D01*
X907841Y363348D01*
X909826Y364674D01*
X911152Y366659D01*
X911618Y369000D01*
X911152Y371341D01*
X909826Y373326D01*
X907841Y374652D01*
X905500Y375117D01*
X905128Y375043D01*
X905041Y375048D01*
X904775Y375109D01*
X904376Y375259D01*
X903863Y375516D01*
X903255Y375887D01*
X902599Y376348D01*
X900056Y378520D01*
X833163Y445413D01*
X832171Y446076D01*
X831692Y446171D01*
X831817Y447441D01*
X837733D01*
X956437Y328737D01*
D02*
G37*
G36*
X1037910Y368487D02*
X1041172Y365715D01*
X1042093Y365088D01*
X1042932Y364609D01*
X1043687Y364279D01*
X1044360Y364096D01*
X1044949Y364062D01*
X1045456Y364177D01*
X1040773Y359494D01*
X1040888Y360001D01*
X1040854Y360590D01*
X1040671Y361263D01*
X1040341Y362018D01*
X1039862Y362857D01*
X1039235Y363778D01*
X1038459Y364782D01*
X1036463Y367040D01*
X1035243Y368293D01*
X1036657Y369707D01*
X1037910Y368487D01*
D02*
G37*
G36*
X853151Y364785D02*
X855836Y362431D01*
X856613Y361852D01*
X857333Y361376D01*
X857993Y361002D01*
X858595Y360732D01*
X859138Y360563D01*
X859622Y360498D01*
X855519Y356893D01*
X855513Y357407D01*
X855399Y357976D01*
X855177Y358599D01*
X854847Y359277D01*
X854408Y360009D01*
X853862Y360796D01*
X853207Y361638D01*
X851574Y363485D01*
X850595Y364491D01*
X852139Y365775D01*
X853151Y364785D01*
D02*
G37*
G36*
X958878Y358801D02*
X959376Y358486D01*
X959987Y358208D01*
X960710Y357967D01*
X961546Y357763D01*
X962495Y357597D01*
X963557Y357467D01*
X966019Y357318D01*
X967419Y357300D01*
X967316Y355300D01*
X965911Y355283D01*
X962366Y355032D01*
X961406Y354881D01*
X960558Y354696D01*
X959821Y354478D01*
X959196Y354226D01*
X958682Y353941D01*
X958279Y353623D01*
X958493Y359154D01*
X958878Y358801D01*
D02*
G37*
G36*
X916337Y316087D02*
X916337Y316087D01*
X917329Y315424D01*
X918500Y315191D01*
X1016545D01*
X1016977Y313921D01*
X1015761Y312989D01*
X1014078Y310795D01*
X1013020Y308241D01*
X1012659Y305500D01*
X1013020Y302759D01*
X1014078Y300205D01*
X1015761Y298011D01*
X1016977Y297079D01*
X1016545Y295809D01*
X908017D01*
X836413Y367413D01*
X835421Y368076D01*
X834841Y368191D01*
X834250Y368309D01*
X834250Y368309D01*
X529086D01*
X528407Y369579D01*
X528483Y369691D01*
X842483D01*
X850095Y362079D01*
X851637Y360335D01*
X852218Y359588D01*
X852694Y358903D01*
X853052Y358305D01*
X853295Y357807D01*
X853429Y357430D01*
X853477Y357193D01*
X853479Y356985D01*
X853382Y356500D01*
X853848Y354159D01*
X855174Y352174D01*
X857159Y350848D01*
X859500Y350382D01*
X861841Y350848D01*
X863826Y352174D01*
X865152Y354159D01*
X865618Y356500D01*
X865152Y358841D01*
X863826Y360826D01*
X861841Y362152D01*
X859500Y362617D01*
X859438Y362605D01*
X859317Y362643D01*
X858915Y362823D01*
X858399Y363116D01*
X857786Y363521D01*
X857119Y364018D01*
X854591Y366235D01*
X845913Y374913D01*
X844921Y375576D01*
X843750Y375809D01*
X843750Y375809D01*
X526000D01*
X525601Y375729D01*
X524976Y376900D01*
X528017Y379941D01*
X852483D01*
X916337Y316087D01*
D02*
G37*
G36*
X1017180Y350350D02*
X1016113Y351291D01*
X1014852Y352132D01*
X1013399Y352874D01*
X1011751Y353518D01*
X1009911Y354062D01*
X1007877Y354508D01*
X1005650Y354855D01*
X1003230Y355102D01*
X997809Y355300D01*
Y357300D01*
X1000616Y357350D01*
X1005650Y357746D01*
X1007877Y358092D01*
X1009911Y358537D01*
X1011751Y359082D01*
X1013399Y359725D01*
X1014852Y360468D01*
X1016113Y361310D01*
X1017180Y362250D01*
Y350350D01*
D02*
G37*
G36*
Y324950D02*
X1016113Y325891D01*
X1014852Y326732D01*
X1013399Y327475D01*
X1011751Y328118D01*
X1009911Y328662D01*
X1007877Y329108D01*
X1005650Y329454D01*
X1003230Y329702D01*
X997809Y329900D01*
Y331900D01*
X1000616Y331950D01*
X1005650Y332346D01*
X1007877Y332692D01*
X1009911Y333138D01*
X1011751Y333682D01*
X1013399Y334325D01*
X1014852Y335068D01*
X1016113Y335910D01*
X1017180Y336850D01*
Y324950D01*
D02*
G37*
G36*
X1045431Y323033D02*
X1044931Y323147D01*
X1044348Y323114D01*
X1043682Y322933D01*
X1042934Y322605D01*
X1042103Y322130D01*
X1041189Y321507D01*
X1040192Y320737D01*
X1037952Y318755D01*
X1036707Y317543D01*
X1035293Y318957D01*
X1036505Y320202D01*
X1039257Y323439D01*
X1039880Y324353D01*
X1040355Y325184D01*
X1040683Y325932D01*
X1040864Y326598D01*
X1040897Y327181D01*
X1040783Y327681D01*
X1045431Y323033D01*
D02*
G37*
G36*
X1074572Y385102D02*
Y289767D01*
X1067964Y283159D01*
X1067925D01*
X1067139Y283170D01*
X1063485Y283420D01*
X1062014Y283627D01*
X1060740Y283888D01*
X1059694Y284191D01*
X1058884Y284520D01*
X1058315Y284846D01*
X1057975Y285131D01*
X1057879Y285256D01*
X1057822Y285395D01*
X1056139Y287589D01*
X1055054Y288421D01*
X1055485Y289691D01*
X1060500D01*
X1060500Y289691D01*
X1061671Y289924D01*
X1062663Y290587D01*
X1068413Y296337D01*
X1068413Y296337D01*
X1069076Y297329D01*
X1069309Y298500D01*
Y364100D01*
X1069076Y365271D01*
X1068413Y366263D01*
X1068413Y366263D01*
X1067619Y367056D01*
X1066550Y368163D01*
X1063429Y371804D01*
X1062219Y373454D01*
X1061208Y375026D01*
X1060409Y376496D01*
X1059818Y377856D01*
X1059426Y379100D01*
X1059221Y380222D01*
X1059184Y381269D01*
X1059241Y381700D01*
X1058880Y384441D01*
X1057822Y386995D01*
X1056139Y389189D01*
X1055184Y389921D01*
X1055615Y391191D01*
X1068483D01*
X1074572Y385102D01*
D02*
G37*
G36*
X1056489Y283715D02*
X1057144Y283166D01*
X1057990Y282682D01*
X1059025Y282262D01*
X1060251Y281907D01*
X1061667Y281616D01*
X1063272Y281390D01*
X1067055Y281132D01*
X1069231Y281100D01*
Y279100D01*
X1067055Y279068D01*
X1063272Y278810D01*
X1061667Y278584D01*
X1060251Y278293D01*
X1059025Y277938D01*
X1057990Y277518D01*
X1057144Y277034D01*
X1056489Y276485D01*
X1056024Y275872D01*
Y284328D01*
X1056489Y283715D01*
D02*
G37*
G36*
X369021Y317649D02*
X368941Y317250D01*
X368941Y317250D01*
Y133717D01*
X367671Y133332D01*
X367155Y134105D01*
X365501Y135210D01*
X363609Y135586D01*
Y314033D01*
X367850Y318274D01*
X369021Y317649D01*
D02*
G37*
G36*
X512341Y419868D02*
X512595Y418921D01*
X421087Y327413D01*
X420424Y326421D01*
X420191Y325250D01*
X420191Y325250D01*
Y132870D01*
X419858Y132746D01*
X418921Y132658D01*
X417955Y134105D01*
X416301Y135210D01*
X414350Y135598D01*
X414309D01*
Y323983D01*
X510517Y420191D01*
X512113D01*
X512341Y419868D01*
D02*
G37*
G36*
X394958Y324087D02*
X394941Y324000D01*
X394941Y324000D01*
Y132519D01*
X393671Y132394D01*
X393660Y132451D01*
X392555Y134105D01*
X390901Y135210D01*
X389009Y135586D01*
Y319933D01*
X393788Y324712D01*
X394958Y324087D01*
D02*
G37*
G36*
X516035Y397361D02*
X446837Y328163D01*
X446174Y327170D01*
X445941Y326000D01*
X445941Y326000D01*
Y131514D01*
X444671Y131389D01*
X444460Y132451D01*
X443355Y134105D01*
X441701Y135210D01*
X439809Y135586D01*
Y323233D01*
X513001Y396425D01*
X513848Y397204D01*
X515180Y398302D01*
X516035Y397361D01*
D02*
G37*
G36*
X344441Y310069D02*
Y131011D01*
X343171Y130886D01*
X342860Y132451D01*
X341755Y134105D01*
X340101Y135210D01*
X338209Y135586D01*
Y305633D01*
X343171Y310595D01*
X344441Y310069D01*
D02*
G37*
G36*
X496941Y337569D02*
Y130538D01*
X495687Y130500D01*
X495299Y132451D01*
X494194Y134105D01*
X492540Y135210D01*
X490648Y135586D01*
Y333072D01*
X495671Y338096D01*
X496941Y337569D01*
D02*
G37*
G36*
X734191Y132983D02*
Y110822D01*
X732921Y110436D01*
X731826Y112076D01*
X729841Y113402D01*
X727500Y113868D01*
X725159Y113402D01*
X723174Y112076D01*
X721848Y110091D01*
X721383Y107750D01*
X721848Y105409D01*
X723174Y103424D01*
X723383Y103285D01*
X723527Y103042D01*
X723705Y102627D01*
X723884Y102062D01*
X724050Y101355D01*
X724186Y100552D01*
X724441Y97215D01*
Y68500D01*
X724441Y68500D01*
X724674Y67330D01*
X725337Y66337D01*
X748837Y42837D01*
X748837Y42837D01*
X749224Y42579D01*
X748839Y41309D01*
X745517D01*
X721563Y65263D01*
X720571Y65926D01*
X719400Y66159D01*
X719400Y66159D01*
X698887D01*
Y75100D01*
X698499Y77051D01*
X697394Y78705D01*
X695740Y79810D01*
X693789Y80198D01*
X687789D01*
X685838Y79810D01*
X684184Y78705D01*
X683079Y77051D01*
X682809Y75691D01*
X682691Y75100D01*
Y51100D01*
X683079Y49149D01*
X684184Y47495D01*
X685838Y46390D01*
X687789Y46002D01*
X693789D01*
X695740Y46390D01*
X697394Y47495D01*
X698499Y49149D01*
X698887Y51100D01*
Y60041D01*
X718133D01*
X741095Y37079D01*
X740569Y35809D01*
X685767D01*
X681309Y40267D01*
Y75839D01*
Y81733D01*
X692952Y93376D01*
X692952Y93376D01*
X693615Y94369D01*
X693848Y95539D01*
X693848Y95539D01*
Y101414D01*
X695740Y101790D01*
X697394Y102895D01*
X698499Y104549D01*
X698887Y106500D01*
Y130500D01*
X698499Y132451D01*
X697394Y134105D01*
X695740Y135210D01*
X693789Y135598D01*
X687789D01*
X685838Y135210D01*
X684184Y134105D01*
X683079Y132451D01*
X682691Y130500D01*
Y106500D01*
X683079Y104549D01*
X684184Y102895D01*
X685838Y101790D01*
X687730Y101414D01*
Y96806D01*
X676087Y85163D01*
X675424Y84171D01*
X675191Y83000D01*
X675191Y83000D01*
Y39000D01*
X675191Y39000D01*
X675424Y37829D01*
X676087Y36837D01*
X682337Y30587D01*
X682337Y30587D01*
X682724Y30329D01*
X682338Y29059D01*
X674517D01*
X668448Y35128D01*
Y46014D01*
X670340Y46390D01*
X671994Y47495D01*
X673099Y49149D01*
X673487Y51100D01*
Y75100D01*
X673099Y77051D01*
X671994Y78705D01*
X670340Y79810D01*
X668389Y80198D01*
X662389D01*
X660438Y79810D01*
X658784Y78705D01*
X657679Y77051D01*
X657559Y76445D01*
X657329Y75289D01*
X656059Y75414D01*
Y76593D01*
Y78983D01*
X667552Y90476D01*
X667552Y90476D01*
X668215Y91468D01*
X668448Y92639D01*
X668448Y92639D01*
Y101414D01*
X670340Y101790D01*
X671994Y102895D01*
X673099Y104549D01*
X673487Y106500D01*
Y130500D01*
X673099Y132451D01*
X671994Y134105D01*
X670340Y135210D01*
X668389Y135598D01*
X662389D01*
X660438Y135210D01*
X658784Y134105D01*
X657679Y132451D01*
X657559Y131845D01*
X657329Y130689D01*
X656059Y130814D01*
Y131993D01*
Y135733D01*
X661517Y141191D01*
X725983D01*
X734191Y132983D01*
D02*
G37*
G36*
X729958Y104486D02*
X729652Y103968D01*
X729382Y103341D01*
X729148Y102604D01*
X728950Y101757D01*
X728788Y100801D01*
X728572Y98558D01*
X728518Y97273D01*
X728500Y95877D01*
X726500D01*
X726482Y97273D01*
X726212Y100801D01*
X726050Y101757D01*
X725852Y102604D01*
X725618Y103341D01*
X725348Y103968D01*
X725042Y104486D01*
X724700Y104893D01*
X730300D01*
X729958Y104486D01*
D02*
G37*
G36*
X843143Y74450D02*
X842736Y74792D01*
X842218Y75098D01*
X841591Y75368D01*
X840854Y75602D01*
X840007Y75800D01*
X839051Y75962D01*
X836808Y76178D01*
X835523Y76232D01*
X834127Y76250D01*
Y78250D01*
X835523Y78268D01*
X839051Y78538D01*
X840007Y78700D01*
X840854Y78898D01*
X841591Y79132D01*
X842218Y79402D01*
X842736Y79708D01*
X843143Y80050D01*
Y74450D01*
D02*
G37*
G36*
X1057881Y58304D02*
X1057891Y58217D01*
X1056983Y57309D01*
X829750Y57309D01*
X822555D01*
X820805Y57346D01*
X819706Y57413D01*
X817800Y57630D01*
X817098Y57762D01*
X816813Y58171D01*
X817475Y59441D01*
X1057319D01*
X1057881Y58304D01*
D02*
G37*
G36*
X814828Y56423D02*
X815319Y56177D01*
X815927Y55960D01*
X816652Y55771D01*
X817494Y55612D01*
X819529Y55380D01*
X820722Y55308D01*
X823458Y55250D01*
X823719Y53250D01*
X822312Y53231D01*
X818798Y52943D01*
X817860Y52770D01*
X817041Y52558D01*
X816338Y52309D01*
X815753Y52021D01*
X815285Y51694D01*
X814934Y51329D01*
X814453Y56698D01*
X814828Y56423D01*
D02*
G37*
G36*
X1058391Y50763D02*
X1058650Y49976D01*
X1056733Y48059D01*
X816318D01*
X815933Y49329D01*
X816076Y49424D01*
X816404Y49916D01*
X816404Y49916D01*
X816616Y50136D01*
X816793Y50259D01*
X817133Y50427D01*
X817638Y50607D01*
X818300Y50777D01*
X819066Y50919D01*
X822391Y51191D01*
X829750D01*
X1058069Y51191D01*
X1058391Y50763D01*
D02*
G37*
G36*
X734191Y104678D02*
Y81750D01*
X734191Y81750D01*
X734424Y80579D01*
X735087Y79587D01*
X754337Y60337D01*
X754337Y60337D01*
X755330Y59674D01*
X756500Y59441D01*
X807182D01*
X807567Y58171D01*
X807424Y58076D01*
X806098Y56091D01*
X805632Y53750D01*
X806098Y51409D01*
X807424Y49424D01*
X807567Y49329D01*
X807182Y48059D01*
X752267D01*
X730559Y69767D01*
Y97267D01*
X730607Y98418D01*
X730811Y100532D01*
X730950Y101355D01*
X731116Y102062D01*
X731295Y102627D01*
X731474Y103042D01*
X731617Y103285D01*
X731826Y103424D01*
X732921Y105064D01*
X734191Y104678D01*
D02*
G37*
G36*
X657679Y104549D02*
X658784Y102895D01*
X660438Y101790D01*
X662330Y101414D01*
Y93906D01*
X650837Y82413D01*
X650174Y81420D01*
X649941Y80250D01*
X649941Y80250D01*
Y31000D01*
X649941Y31000D01*
X650174Y29829D01*
X650837Y28837D01*
X660346Y19329D01*
X659819Y18059D01*
X657250D01*
X641517D01*
X630809Y28767D01*
Y50032D01*
X632079Y50157D01*
X632279Y49149D01*
X633384Y47495D01*
X635038Y46390D01*
X636989Y46002D01*
X642989D01*
X644940Y46390D01*
X646594Y47495D01*
X647699Y49149D01*
X648087Y51100D01*
Y75100D01*
X647699Y77051D01*
X646594Y78705D01*
X644940Y79810D01*
X644099Y79977D01*
X643681Y81355D01*
X655163Y92837D01*
X655826Y93829D01*
X656059Y95000D01*
Y106186D01*
X657329Y106311D01*
X657679Y104549D01*
D02*
G37*
G36*
X115250Y523800D02*
X116616Y522950D01*
X118239Y522200D01*
X120119Y521550D01*
X122256Y521000D01*
X124650Y520550D01*
X127302Y520200D01*
X133375Y519800D01*
X136798Y519750D01*
Y515750D01*
X133375Y515700D01*
X124650Y514950D01*
X122256Y514500D01*
X120119Y513950D01*
X118239Y513300D01*
X116616Y512550D01*
X115250Y511700D01*
X114141Y510750D01*
Y524750D01*
X115250Y523800D01*
D02*
G37*
G36*
X99859Y510750D02*
X98750Y511700D01*
X97384Y512550D01*
X95761Y513300D01*
X93881Y513950D01*
X91744Y514500D01*
X89350Y514950D01*
X86698Y515300D01*
X80625Y515700D01*
X77202Y515750D01*
Y519750D01*
X80625Y519800D01*
X89350Y520550D01*
X91744Y521000D01*
X93881Y521550D01*
X95761Y522200D01*
X97384Y522950D01*
X98750Y523800D01*
X99859Y524750D01*
Y510750D01*
D02*
G37*
G36*
X50250Y523800D02*
X51616Y522950D01*
X53239Y522200D01*
X55119Y521550D01*
X57256Y521000D01*
X59650Y520550D01*
X62302Y520200D01*
X68375Y519800D01*
X71798Y519750D01*
Y515750D01*
X68375Y515700D01*
X59650Y514950D01*
X57256Y514500D01*
X55119Y513950D01*
X53239Y513300D01*
X51616Y512550D01*
X50250Y511700D01*
X49141Y510750D01*
Y524750D01*
X50250Y523800D01*
D02*
G37*
G36*
X176976Y242647D02*
X175694Y241344D01*
X171921Y237062D01*
X171316Y236224D01*
X170846Y235478D01*
X170512Y234826D01*
X170313Y234266D01*
X170250Y233800D01*
X165300Y238750D01*
X165767Y238813D01*
X166326Y239012D01*
X166978Y239346D01*
X167724Y239816D01*
X168562Y240421D01*
X170517Y242037D01*
X172844Y244194D01*
X174147Y245476D01*
X176976Y242647D01*
D02*
G37*
G36*
X1322503Y485444D02*
X1322564Y485274D01*
X1322666Y485124D01*
X1322808Y484994D01*
X1322990Y484884D01*
X1323214Y484794D01*
X1323478Y484724D01*
X1323782Y484674D01*
X1324128Y484644D01*
X1324513Y484634D01*
Y482634D01*
X1324128Y482624D01*
X1323782Y482594D01*
X1323478Y482544D01*
X1323214Y482474D01*
X1322990Y482384D01*
X1322808Y482274D01*
X1322666Y482144D01*
X1322564Y481994D01*
X1322503Y481824D01*
X1322483Y481634D01*
Y485634D01*
X1322503Y485444D01*
D02*
G37*
G36*
X105208Y448736D02*
X104902Y448218D01*
X104632Y447591D01*
X104398Y446854D01*
X104200Y446007D01*
X104038Y445051D01*
X103822Y442808D01*
X103768Y441522D01*
X103750Y440127D01*
X101750D01*
X101732Y441522D01*
X101462Y445051D01*
X101300Y446007D01*
X101102Y446854D01*
X100868Y447591D01*
X100598Y448218D01*
X100292Y448736D01*
X99950Y449143D01*
X105550D01*
X105208Y448736D01*
D02*
G37*
G36*
X103768Y323978D02*
X104038Y320449D01*
X104200Y319493D01*
X104398Y318646D01*
X104632Y317909D01*
X104902Y317282D01*
X105208Y316764D01*
X105550Y316357D01*
X99950D01*
X100292Y316764D01*
X100598Y317282D01*
X100868Y317909D01*
X101102Y318646D01*
X101300Y319493D01*
X101462Y320449D01*
X101678Y322692D01*
X101732Y323978D01*
X101750Y325373D01*
X103750D01*
X103768Y323978D01*
D02*
G37*
G36*
X106014Y315958D02*
X106532Y315652D01*
X107159Y315382D01*
X107896Y315148D01*
X108743Y314950D01*
X109699Y314788D01*
X111942Y314572D01*
X113228Y314518D01*
X114623Y314500D01*
Y312500D01*
X113228Y312482D01*
X109699Y312212D01*
X108743Y312050D01*
X107896Y311852D01*
X107159Y311618D01*
X106532Y311348D01*
X106014Y311042D01*
X105607Y310700D01*
Y316300D01*
X106014Y315958D01*
D02*
G37*
G36*
X172025Y275438D02*
X172400Y271075D01*
X172625Y269878D01*
X172900Y268810D01*
X173225Y267869D01*
X173600Y267058D01*
X174025Y266375D01*
X174500Y265821D01*
X167500D01*
X167975Y266375D01*
X168400Y267058D01*
X168775Y267869D01*
X169100Y268810D01*
X169375Y269878D01*
X169600Y271075D01*
X169775Y272401D01*
X169975Y275438D01*
X170000Y277149D01*
X172000D01*
X172025Y275438D01*
D02*
G37*
G36*
X1181010Y391011D02*
X1180840Y390951D01*
X1180690Y390850D01*
X1180560Y390710D01*
X1180450Y390531D01*
X1180360Y390311D01*
X1180290Y390051D01*
X1180240Y389751D01*
X1180210Y389411D01*
X1180200Y389030D01*
X1178200D01*
X1178190Y389411D01*
X1178160Y389751D01*
X1178110Y390051D01*
X1178040Y390311D01*
X1177950Y390531D01*
X1177840Y390710D01*
X1177710Y390850D01*
X1177560Y390951D01*
X1177390Y391011D01*
X1177200Y391031D01*
X1181200D01*
X1181010Y391011D01*
D02*
G37*
G36*
X1351169Y402785D02*
X1350847Y403158D01*
X1350405Y403493D01*
X1349841Y403787D01*
X1349156Y404043D01*
X1348351Y404259D01*
X1347424Y404436D01*
X1346376Y404573D01*
X1343918Y404730D01*
X1342508Y404750D01*
X1342903Y406750D01*
X1344347Y406763D01*
X1348906Y407064D01*
X1349741Y407203D01*
X1350454Y407366D01*
X1351045Y407555D01*
X1351515Y407769D01*
X1351863Y408007D01*
X1351169Y402785D01*
D02*
G37*
G36*
X678879Y295714D02*
X678474Y296057D01*
X677958Y296364D01*
X677333Y296635D01*
X676597Y296870D01*
X675751Y297069D01*
X674796Y297231D01*
X672554Y297448D01*
X671268Y297502D01*
X669872Y297520D01*
X669882Y299520D01*
X671277Y299538D01*
X674806Y299807D01*
X675763Y299968D01*
X676611Y300166D01*
X677349Y300399D01*
X677978Y300668D01*
X678497Y300973D01*
X678907Y301314D01*
X678879Y295714D01*
D02*
G37*
G36*
X581408Y300835D02*
X581917Y300559D01*
X582539Y300316D01*
X583273Y300105D01*
X584120Y299926D01*
X585080Y299780D01*
X587336Y299585D01*
X590043Y299520D01*
X590183Y297520D01*
X588781Y297501D01*
X585259Y297221D01*
X584313Y297052D01*
X583481Y296847D01*
X582762Y296603D01*
X582157Y296323D01*
X581666Y296005D01*
X581289Y295649D01*
X581011Y301144D01*
X581408Y300835D01*
D02*
G37*
G36*
X676061Y270287D02*
X675667Y270635D01*
X675161Y270947D01*
X674543Y271222D01*
X673814Y271460D01*
X672974Y271662D01*
X672022Y271827D01*
X669783Y272047D01*
X668496Y272102D01*
X667098Y272120D01*
X667160Y274120D01*
X668558Y274137D01*
X672094Y274398D01*
X673053Y274555D01*
X673903Y274746D01*
X674642Y274972D01*
X675272Y275233D01*
X675792Y275528D01*
X676202Y275858D01*
X676061Y270287D01*
D02*
G37*
G36*
X579311Y218878D02*
X581997Y216575D01*
X582788Y216013D01*
X583526Y215554D01*
X584213Y215198D01*
X584847Y214946D01*
X585430Y214796D01*
X585960Y214750D01*
X582000Y210790D01*
X581954Y211320D01*
X581804Y211902D01*
X581552Y212537D01*
X581196Y213223D01*
X580737Y213962D01*
X580175Y214753D01*
X578742Y216492D01*
X577872Y217439D01*
X576897Y218438D01*
X578312Y219853D01*
X579311Y218878D01*
D02*
G37*
G36*
X585905Y262761D02*
X586398Y262444D01*
X587005Y262164D01*
X587725Y261922D01*
X588558Y261716D01*
X589505Y261549D01*
X590566Y261418D01*
X593028Y261269D01*
X594429Y261250D01*
X594300Y259250D01*
X592892Y259234D01*
X589340Y258988D01*
X588381Y258840D01*
X587533Y258660D01*
X586798Y258447D01*
X586175Y258201D01*
X585665Y257922D01*
X585266Y257611D01*
X585526Y263116D01*
X585905Y262761D01*
D02*
G37*
G36*
X615393Y244950D02*
X614986Y245292D01*
X614468Y245598D01*
X613841Y245868D01*
X613104Y246102D01*
X612257Y246300D01*
X611301Y246462D01*
X609058Y246678D01*
X607772Y246732D01*
X606377Y246750D01*
Y248750D01*
X607772Y248768D01*
X611301Y249038D01*
X612257Y249200D01*
X613104Y249398D01*
X613841Y249632D01*
X614468Y249902D01*
X614986Y250208D01*
X615393Y250550D01*
Y244950D01*
D02*
G37*
G36*
X638137Y249438D02*
X637846Y248952D01*
X637589Y248354D01*
X637366Y247642D01*
X637178Y246818D01*
X637024Y245880D01*
X636819Y243666D01*
X636750Y241000D01*
X634750D01*
X634733Y242390D01*
X634476Y245880D01*
X634322Y246818D01*
X634133Y247642D01*
X633911Y248354D01*
X633654Y248952D01*
X633363Y249438D01*
X633037Y249810D01*
X638462Y249810D01*
X638137Y249438D01*
D02*
G37*
G36*
X671893Y232200D02*
X671486Y232542D01*
X670968Y232848D01*
X670341Y233118D01*
X669604Y233352D01*
X668757Y233550D01*
X667801Y233712D01*
X665558Y233928D01*
X664273Y233982D01*
X662877Y234000D01*
Y236000D01*
X664273Y236018D01*
X667801Y236288D01*
X668757Y236450D01*
X669604Y236648D01*
X670341Y236882D01*
X670968Y237152D01*
X671486Y237458D01*
X671893Y237800D01*
Y232200D01*
D02*
G37*
G36*
X515792Y324886D02*
X515450Y324479D01*
X515143Y323963D01*
X514873Y323336D01*
X514638Y322600D01*
X514440Y321754D01*
X514278Y320798D01*
X514061Y318556D01*
X514007Y317270D01*
X513989Y315874D01*
X511989Y315880D01*
X511971Y317275D01*
X511702Y320803D01*
X511540Y321760D01*
X511342Y322608D01*
X511109Y323345D01*
X510839Y323974D01*
X510534Y324492D01*
X510192Y324901D01*
X515792Y324886D01*
D02*
G37*
G36*
X532960Y312500D02*
X532430Y312454D01*
X531848Y312304D01*
X531213Y312052D01*
X530527Y311696D01*
X529788Y311237D01*
X528997Y310675D01*
X527258Y309242D01*
X526311Y308372D01*
X525312Y307397D01*
X523897Y308812D01*
X524871Y309811D01*
X527175Y312497D01*
X527737Y313288D01*
X528196Y314027D01*
X528551Y314713D01*
X528804Y315348D01*
X528954Y315930D01*
X529000Y316460D01*
X532960Y312500D01*
D02*
G37*
G36*
X735208Y295236D02*
X734902Y294718D01*
X734632Y294091D01*
X734398Y293354D01*
X734200Y292507D01*
X734038Y291551D01*
X733822Y289308D01*
X733768Y288022D01*
X733750Y286627D01*
X731750D01*
X731732Y288022D01*
X731462Y291551D01*
X731300Y292507D01*
X731102Y293354D01*
X730868Y294091D01*
X730598Y294718D01*
X730292Y295236D01*
X729950Y295643D01*
X735550D01*
X735208Y295236D01*
D02*
G37*
G36*
X724458Y269736D02*
X724152Y269218D01*
X723882Y268591D01*
X723648Y267854D01*
X723450Y267007D01*
X723288Y266051D01*
X723072Y263808D01*
X723018Y262523D01*
X723000Y261127D01*
X721000D01*
X720982Y262523D01*
X720712Y266051D01*
X720550Y267007D01*
X720352Y267854D01*
X720118Y268591D01*
X719848Y269218D01*
X719542Y269736D01*
X719200Y270143D01*
X724800D01*
X724458Y269736D01*
D02*
G37*
G36*
X534945Y217965D02*
X535482Y217710D01*
X536179Y217485D01*
X537038Y217290D01*
X538059Y217125D01*
X540584Y216885D01*
X543755Y216765D01*
X545583Y216750D01*
Y212750D01*
X543755Y212735D01*
X538059Y212375D01*
X537038Y212210D01*
X536179Y212015D01*
X535482Y211790D01*
X534945Y211535D01*
X534571Y211250D01*
Y218250D01*
X534945Y217965D01*
D02*
G37*
G36*
X559906Y214194D02*
X564188Y210421D01*
X565026Y209816D01*
X565772Y209346D01*
X566424Y209012D01*
X566983Y208813D01*
X567450Y208750D01*
X562500Y203800D01*
X562437Y204266D01*
X562238Y204826D01*
X561904Y205478D01*
X561434Y206224D01*
X560829Y207062D01*
X559213Y209017D01*
X557056Y211344D01*
X555774Y212647D01*
X558603Y215476D01*
X559906Y214194D01*
D02*
G37*
G36*
X573309Y189921D02*
X572830Y189826D01*
X571837Y189163D01*
X571837Y189163D01*
X536226Y153552D01*
X535563Y152560D01*
X535330Y151389D01*
X535330Y151389D01*
Y135586D01*
X533438Y135210D01*
X531829Y134135D01*
X531563Y134186D01*
X530559Y134557D01*
Y151955D01*
X569795Y191191D01*
X573184D01*
X573309Y189921D01*
D02*
G37*
G36*
X203563Y184734D02*
X203762Y184174D01*
X204096Y183522D01*
X204566Y182776D01*
X205171Y181938D01*
X206787Y179983D01*
X208944Y177656D01*
X210226Y176353D01*
X207397Y173524D01*
X206094Y174806D01*
X201812Y178579D01*
X200974Y179184D01*
X200228Y179654D01*
X199576Y179988D01*
X199016Y180187D01*
X198550Y180250D01*
X203500Y185200D01*
X203563Y184734D01*
D02*
G37*
G36*
X236584Y91398D02*
X236952Y91262D01*
X237461Y91142D01*
X238110Y91038D01*
X239832Y90878D01*
X243470Y90758D01*
X244964Y90750D01*
Y86750D01*
X243470Y86742D01*
X237461Y86358D01*
X236952Y86238D01*
X236584Y86102D01*
X236357Y85950D01*
Y91550D01*
X236584Y91398D01*
D02*
G37*
G36*
X603585Y38598D02*
X605863Y36598D01*
X606504Y36124D01*
X607087Y35745D01*
X607611Y35463D01*
X608075Y35277D01*
X608480Y35187D01*
X608827Y35193D01*
X605557Y31923D01*
X605563Y32269D01*
X605473Y32675D01*
X605287Y33140D01*
X605005Y33663D01*
X604626Y34246D01*
X604152Y34887D01*
X602915Y36347D01*
X601293Y38043D01*
X602707Y39457D01*
X603585Y38598D01*
D02*
G37*
D11*
X121878Y452000D02*
X122016Y452138D01*
X102750Y452000D02*
X121878D01*
X773214Y220573D02*
X774334Y221692D01*
X802162D01*
X773000Y235000D02*
X773214Y234786D01*
X657750Y207917D02*
Y235020D01*
X657749Y207916D02*
X657750Y207917D01*
X602000Y38750D02*
Y85250D01*
X614589Y97839D02*
Y118500D01*
X602000Y85250D02*
X614589Y97839D01*
X639989Y95239D02*
Y118500D01*
X627750Y83000D02*
X639989Y95239D01*
X627750Y27500D02*
Y83000D01*
X653000Y95000D02*
Y137000D01*
X640000Y82000D02*
X653000Y95000D01*
X640000Y63111D02*
Y82000D01*
X665389Y92639D02*
Y118500D01*
X653000Y80250D02*
X665389Y92639D01*
X653000Y31000D02*
Y80250D01*
X627250Y96250D02*
Y139250D01*
X614589Y83589D02*
X627250Y96250D01*
X614589Y63100D02*
Y83589D01*
X602000Y38750D02*
X609500Y31250D01*
X737250Y81750D02*
Y134250D01*
X727250Y144250D02*
X737250Y134250D01*
X660250Y144250D02*
X727250D01*
X743000Y84500D02*
Y138750D01*
X730750Y151000D02*
X743000Y138750D01*
X639000Y151000D02*
X730750D01*
X627250Y139250D02*
X639000Y151000D01*
X627750Y27500D02*
X640250Y15000D01*
X657250D01*
X653000Y137000D02*
X660250Y144250D01*
X639989Y63100D02*
X640000Y63111D01*
X684500Y32750D02*
X1059750D01*
X690789Y95539D02*
Y118500D01*
X678250Y83000D02*
X690789Y95539D01*
X678250Y39000D02*
Y83000D01*
Y39000D02*
X684500Y32750D01*
X673250Y26000D02*
X1061000D01*
X665389Y33861D02*
X673250Y26000D01*
X665389Y33861D02*
Y63100D01*
X663500Y20500D02*
X1062500D01*
X653000Y31000D02*
X663500Y20500D01*
X1061000Y26000D02*
X1109250Y74250D01*
X1062500Y20500D02*
X1114631Y72631D01*
X1065500Y15000D02*
X1119250Y68750D01*
X1044500Y15000D02*
X1065500D01*
X657250Y15000D02*
X1044500Y15000D01*
X1124000Y425250D02*
X1131625Y432875D01*
X1066250Y9750D02*
X1124000Y67500D01*
X592500Y9750D02*
X1066250D01*
X576250Y26000D02*
X592500Y9750D01*
X744250Y38250D02*
X1058239D01*
X719400Y63100D02*
X744250Y38250D01*
X690789Y63100D02*
X719400D01*
X589189Y97939D02*
Y118500D01*
X576250Y85000D02*
X589189Y97939D01*
X576250Y26000D02*
Y85000D01*
X563789Y118500D02*
Y147289D01*
X523500Y95250D02*
Y167250D01*
X512989Y84739D02*
X523500Y95250D01*
X512989Y63100D02*
Y84739D01*
X538389Y63100D02*
Y85111D01*
X527500Y96000D02*
X538389Y85111D01*
X527500Y96000D02*
Y153222D01*
X563789Y63100D02*
Y82961D01*
X551250Y95500D02*
X563789Y82961D01*
X551250Y95500D02*
Y149250D01*
X538389Y118500D02*
Y151389D01*
X517000Y173750D02*
X523500Y167250D01*
X1123250Y621250D02*
X1147500D01*
X517000Y300500D02*
X533000Y316500D01*
X517000Y173750D02*
Y300500D01*
X512989Y118500D02*
Y327261D01*
X500000Y338250D02*
X527000Y365250D01*
X500000Y95250D02*
Y338250D01*
X487589Y82839D02*
X500000Y95250D01*
X487589Y63100D02*
Y82839D01*
Y334339D02*
X526000Y372750D01*
X487589Y118500D02*
Y334339D01*
X474750Y331000D02*
X526750Y383000D01*
X474750Y99000D02*
Y331000D01*
X522058Y389058D02*
X862692D01*
X462189Y329189D02*
X522058Y389058D01*
X862692D02*
X870500Y381250D01*
X462189Y86439D02*
X474750Y99000D01*
X462189Y63100D02*
Y86439D01*
Y118500D02*
Y329189D01*
X520058Y397058D02*
X755000D01*
X449000Y326000D02*
X520058Y397058D01*
X955050Y356300D02*
X1023250D01*
X859250Y354250D02*
Y357250D01*
X423250Y98250D02*
Y325250D01*
X411350Y86350D02*
X423250Y98250D01*
X411350Y63100D02*
Y86350D01*
X1102333Y601250D02*
X1124500D01*
X449000Y98250D02*
Y326000D01*
X436750Y86000D02*
X449000Y98250D01*
X436750Y63100D02*
Y86000D01*
X930700Y381700D02*
X1023250D01*
X436750Y118500D02*
Y324500D01*
X385950Y63100D02*
Y86950D01*
X398000Y99000D01*
Y324000D01*
X1146990Y601250D02*
X1168406D01*
X1145489D02*
X1147505Y599234D01*
X411250Y117000D02*
Y325250D01*
X335150Y63100D02*
Y88400D01*
X347500Y100750D01*
Y310750D01*
X385950Y118500D02*
Y321200D01*
X905250Y368750D02*
Y369000D01*
Y368750D02*
X905250Y368750D01*
X372000Y317250D02*
X498000Y443250D01*
X372000Y98500D02*
Y317250D01*
X360550Y87050D02*
X372000Y98500D01*
X360550Y63100D02*
Y87050D01*
X1312505Y483634D02*
X1354083D01*
X360550Y118500D02*
Y315300D01*
X335150Y118500D02*
Y306900D01*
X309750Y118500D02*
Y290500D01*
X811750Y53750D02*
X812250Y54250D01*
X829750D01*
X727500Y615000D02*
X751500D01*
X751500Y615000D01*
X698000Y612500D02*
X700500Y615000D01*
X727500D01*
X632750Y603750D02*
X641500Y612500D01*
X925750Y471000D02*
X974500Y422250D01*
X635750Y241000D02*
Y253250D01*
X436750Y324500D02*
X518250Y406000D01*
X515000Y417000D02*
X751000D01*
X423250Y325250D02*
X515000Y417000D01*
X751000D02*
X763000Y405000D01*
X1204600Y401000D02*
Y422900D01*
X1189500Y438000D02*
X1204600Y422900D01*
X1146250Y438000D02*
X1189500D01*
X1124000Y460250D02*
X1146250Y438000D01*
X1124000Y460250D02*
Y572500D01*
X1111600Y584900D02*
X1124000Y572500D01*
X1048650Y584900D02*
X1111600D01*
X1124500Y601250D02*
X1130250Y595500D01*
Y498500D02*
Y595500D01*
Y498500D02*
X1145116Y483634D01*
X1147505D01*
X1147500Y621250D02*
X1147500Y621250D01*
X566500Y230250D02*
X586000Y210750D01*
X583000Y260250D02*
X599920D01*
X582500Y259750D02*
X583000Y260250D01*
X171000Y262250D02*
Y295750D01*
X153250Y313500D02*
X171000Y295750D01*
X102750Y313500D02*
X153250D01*
X1230000Y430500D02*
X1241000Y441500D01*
X1347500D01*
X1354083Y434917D01*
Y425750D02*
Y434917D01*
X1302250Y425750D02*
X1310750D01*
X1298750Y422250D02*
X1302250Y425750D01*
X1298750Y384500D02*
Y422250D01*
X1291000Y376750D02*
X1298750Y384500D01*
X1186500Y376750D02*
X1291000D01*
X1179200Y384050D02*
X1186500Y376750D01*
X1179200Y384050D02*
Y401000D01*
X1310750Y425750D02*
X1332417D01*
X1354083D02*
X1375750D01*
X1332417Y405750D02*
X1354083D01*
X1147505Y533634D02*
Y599234D01*
X102750Y313500D02*
Y452000D01*
X490250Y471000D02*
X925750D01*
X976000Y394250D02*
X1069750D01*
X1077631Y386369D01*
Y288500D02*
Y386369D01*
X1069231Y280100D02*
X1077631Y288500D01*
X1048650Y280100D02*
X1069231D01*
X1048650Y381700D02*
X1066250Y364100D01*
Y298500D02*
Y364100D01*
X1060500Y292750D02*
X1066250Y298500D01*
X906750Y292750D02*
X1060500D01*
X905500Y464000D02*
X950250Y419250D01*
X492250Y464000D02*
X905500D01*
X1055000Y67750D02*
X1082250Y95000D01*
X759750Y67750D02*
X1055000D01*
X743000Y84500D02*
X759750Y67750D01*
X1082250Y403500D02*
X1082250Y95000D01*
X1064750Y421000D02*
X1082250Y403500D01*
X1057750Y62500D02*
X1086500Y91250D01*
X1086500Y429250D02*
X1086500Y91250D01*
X1069500Y446250D02*
X1086500Y429250D01*
X829750Y54250D02*
X1058250Y54250D01*
X1091250Y87250D01*
X1091250Y441750D02*
X1091250Y87250D01*
X1075100Y457900D02*
X1091250Y441750D01*
X1077050Y508700D02*
X1096000Y489750D01*
Y83000D02*
Y489750D01*
X1058000Y45000D02*
X1096000Y83000D01*
X1080900Y534100D02*
X1100750Y514250D01*
X1100750Y80761D02*
X1100750Y514250D01*
X1058239Y38250D02*
X1100750Y80761D01*
X834250Y365250D02*
X906750Y292750D01*
X527000Y365250D02*
X834250D01*
X843750Y372750D02*
X859250Y357250D01*
X526000Y372750D02*
X843750D01*
X853750Y383000D02*
X918500Y318250D01*
X526750Y383000D02*
X853750D01*
X918500Y318250D02*
X1036000D01*
X1048650Y330900D01*
X763000Y405000D02*
X791250D01*
X761500Y423250D02*
X767750Y417000D01*
X309750Y290500D02*
X490250Y471000D01*
X335150Y306900D02*
X492250Y464000D01*
X494750Y458000D02*
X888250D01*
X347500Y310750D02*
X494750Y458000D01*
X495750Y450500D02*
X839000D01*
X360550Y315300D02*
X495750Y450500D01*
X498000Y443250D02*
X831000D01*
X502000Y437250D02*
X822500D01*
X385950Y321200D02*
X502000Y437250D01*
X504500Y430500D02*
X806000D01*
X398000Y324000D02*
X504500Y430500D01*
X509250Y423250D02*
X761500D01*
X411250Y325250D02*
X509250Y423250D01*
X1230000Y401000D02*
Y429250D01*
X839000Y450500D02*
X958600Y330900D01*
X814250Y422250D02*
X816750D01*
X806000Y430500D02*
X814250Y422250D01*
X822500Y437250D02*
X830250Y429500D01*
X936000Y369000D02*
X1035950D01*
X1048650Y356300D01*
X831000Y443250D02*
X905250Y369000D01*
X958600Y330900D02*
X1023250D01*
X939150Y407100D02*
X1023250D01*
X888250Y458000D02*
X939150Y407100D01*
X1034900Y446250D02*
X1069500D01*
X1034750Y421000D02*
X1064750D01*
X1023250Y457900D02*
X1034900Y446250D01*
X1023250Y432500D02*
X1034750Y421000D01*
X635750Y253250D02*
X636000Y253500D01*
X629770Y235020D02*
X635750Y241000D01*
X599750Y235020D02*
X629770D01*
X566500Y265250D02*
X574370Y273120D01*
X566500Y230250D02*
Y265250D01*
X574370Y273120D02*
X599750D01*
X578250Y299000D02*
X578730Y298520D01*
X599750D01*
X657750D02*
X683230D01*
X732750Y222500D02*
Y298500D01*
X686000Y175750D02*
X732750Y222500D01*
X592250Y175750D02*
X686000D01*
X722000Y223250D02*
Y273000D01*
X680000Y181250D02*
X722000Y223250D01*
X583250Y181250D02*
X680000D01*
X702750Y214500D02*
Y294750D01*
X675250Y187000D02*
X702750Y214500D01*
X574000Y187000D02*
X675250D01*
X686280Y311220D02*
X702750Y294750D01*
X657750Y311220D02*
X686280D01*
X687680Y285820D02*
X694750Y278750D01*
Y222250D02*
Y278750D01*
X666750Y194250D02*
X694750Y222250D01*
X657750Y285820D02*
X687680D01*
X568528Y194250D02*
X666750D01*
X657750Y235020D02*
X657770Y235000D01*
X674750D01*
X599750Y247720D02*
X599780Y247750D01*
X618250D01*
X599750Y260420D02*
X599920Y260250D01*
X731750Y334500D02*
X751000Y315250D01*
X636000Y334500D02*
X731750D01*
X623750Y322250D02*
X636000Y334500D01*
X623750Y291750D02*
Y322250D01*
X751000Y94250D02*
Y315250D01*
X657750Y235020D02*
Y247720D01*
X617820Y285820D02*
X623750Y291750D01*
X599750Y285820D02*
X617820D01*
X751000Y94250D02*
X768000Y77250D01*
X846000D01*
X563789Y147289D02*
X592250Y175750D01*
X722000Y273000D02*
Y274500D01*
X657750Y273120D02*
X678120D01*
X551250Y149250D02*
X583250Y181250D01*
X538389Y151389D02*
X574000Y187000D01*
X527500Y153222D02*
X568528Y194250D01*
X1048650Y457900D02*
X1075100D01*
X1048650Y508700D02*
X1077050D01*
X756500Y62500D02*
X1057750D01*
X727500Y68500D02*
Y107500D01*
Y68500D02*
X751000Y45000D01*
X1058000D01*
X737250Y81750D02*
X756500Y62500D01*
X1124000Y67500D02*
Y425250D01*
X1059750Y32750D02*
X1105000Y78000D01*
X1119250Y68750D02*
Y71750D01*
X1119250Y555250D01*
X1114631Y72631D02*
Y539369D01*
X1109250Y74250D02*
X1109250Y530750D01*
X1105000Y78000D02*
X1105000Y521750D01*
X1048650Y534100D02*
X1080900D01*
X1080000Y546750D02*
X1105000Y521750D01*
X1041500Y546750D02*
X1080000D01*
X1080500Y559500D02*
X1109250Y530750D01*
X1048650Y559500D02*
X1080500D01*
X1107000Y547000D02*
X1114631Y539369D01*
X1102250Y572250D02*
X1119250Y555250D01*
X1036000Y572250D02*
X1102250D01*
X1036250Y541500D02*
X1041500Y546750D01*
X1036250Y520250D02*
Y541500D01*
X1024700Y508700D02*
X1036250Y520250D01*
X1023250Y508700D02*
X1024700D01*
X1023250Y559500D02*
X1036000Y572250D01*
D28*
X958159Y554899D02*
D03*
Y534899D02*
D03*
X936316Y554899D02*
D03*
Y534899D02*
D03*
X913595Y554899D02*
D03*
Y534899D02*
D03*
X980839Y554899D02*
D03*
Y534899D02*
D03*
X802162Y221692D02*
D03*
Y201692D02*
D03*
X297145Y196803D02*
D03*
Y176803D02*
D03*
X122016Y452138D02*
D03*
Y432138D02*
D03*
X1332417Y425750D02*
D03*
Y405750D02*
D03*
X1123250Y601250D02*
D03*
Y621250D02*
D03*
X727500Y615000D02*
D03*
Y595000D02*
D03*
X751500Y615000D02*
D03*
Y595000D02*
D03*
X1354083Y464250D02*
D03*
Y484250D02*
D03*
Y405750D02*
D03*
Y425750D02*
D03*
X1375750Y405750D02*
D03*
Y425750D02*
D03*
X1310750Y405750D02*
D03*
Y425750D02*
D03*
X1100500Y621250D02*
D03*
Y601250D02*
D03*
X1147500Y621250D02*
D03*
Y601250D02*
D03*
X1170000Y621250D02*
D03*
Y601250D02*
D03*
D29*
X657749Y207916D02*
D03*
X637749D02*
D03*
D31*
X980929Y584900D02*
X1023250D01*
X980829Y585000D02*
X980929Y584900D01*
X297145Y196803D02*
Y212157D01*
X284250Y214500D02*
X294802D01*
X297145Y212157D01*
X280000Y88750D02*
X284350Y84400D01*
X236250Y88750D02*
X280000D01*
X165250Y233750D02*
X208500Y277000D01*
Y491250D01*
X199500Y184250D02*
X221000Y162750D01*
Y95000D02*
Y162750D01*
X208150Y82150D02*
X221000Y95000D01*
X208150Y63100D02*
Y82150D01*
X284350Y63100D02*
Y84400D01*
X182000Y517750D02*
X208500Y491250D01*
X107000Y517750D02*
X182000D01*
X42000D02*
X107000D01*
X556500Y214750D02*
X567500Y203750D01*
X531000Y214750D02*
X556500D01*
D32*
X980829Y554750D02*
Y585000D01*
X936316Y554750D02*
X980829D01*
X913744D02*
X936316D01*
X752112Y484612D02*
X822399Y554899D01*
X634618Y484612D02*
X752112D01*
X633990Y485240D02*
X634618Y484612D01*
X822399Y554899D02*
X913595D01*
X913744Y554750D01*
X980829Y585000D02*
Y611250D01*
X773214Y220573D02*
Y234786D01*
X264500Y272750D02*
X476250Y484500D01*
X264500Y170250D02*
Y272750D01*
Y170250D02*
X284000Y150750D01*
Y125500D02*
Y150750D01*
X476250Y484500D02*
X633250D01*
D33*
X1280800Y401000D02*
D03*
X1255400D02*
D03*
X1204600D02*
D03*
X1230000D02*
D03*
X42000Y562750D02*
D03*
Y517750D02*
D03*
X107000Y562750D02*
D03*
Y517750D02*
D03*
X531000Y190750D02*
D03*
Y244250D02*
D03*
X294750Y238250D02*
D03*
D34*
X1179200Y401000D02*
D03*
D35*
X472515Y508749D02*
D03*
D36*
X269485D02*
D03*
D37*
X1023250Y153100D02*
D03*
X1048650D02*
D03*
Y178500D02*
D03*
X1023250D02*
D03*
X1048650Y203900D02*
D03*
X1023250D02*
D03*
X1048650Y229300D02*
D03*
X1023250D02*
D03*
X1048650Y254700D02*
D03*
X1023250D02*
D03*
X1048650Y280100D02*
D03*
X1023250D02*
D03*
X1048650Y305500D02*
D03*
X1023250D02*
D03*
X1048650Y330900D02*
D03*
X1023250D02*
D03*
X1048650Y356300D02*
D03*
X1023250D02*
D03*
X1048650Y381700D02*
D03*
X1023250D02*
D03*
X1048650Y457900D02*
D03*
X1023250D02*
D03*
X1048650Y483300D02*
D03*
X1023250D02*
D03*
X1048650Y508700D02*
D03*
X1023250D02*
D03*
X1048650Y534100D02*
D03*
X1023250D02*
D03*
X1048650Y559500D02*
D03*
X1023250D02*
D03*
X1048650Y584900D02*
D03*
D38*
Y407100D02*
D03*
X1023250D02*
D03*
X1048650Y432500D02*
D03*
X1023250D02*
D03*
D39*
Y584900D02*
D03*
D40*
X1147505Y533634D02*
D03*
Y508634D02*
D03*
Y483634D02*
D03*
X1312505Y533634D02*
D03*
Y483634D02*
D03*
D41*
X1231755Y508634D02*
D03*
D42*
X1371727Y31260D02*
D03*
Y617000D02*
D03*
X28000D02*
D03*
D43*
X1330000Y610000D02*
D03*
Y370000D02*
D03*
X1360000Y310000D02*
D03*
X1330000Y250000D02*
D03*
X1360000Y190000D02*
D03*
X1330000Y130000D02*
D03*
X1360000Y70000D02*
D03*
X1330000Y10000D02*
D03*
X1270000Y610000D02*
D03*
X1300000Y550000D02*
D03*
Y310000D02*
D03*
X1270000Y130000D02*
D03*
X1300000Y70000D02*
D03*
X1270000Y10000D02*
D03*
X1210000Y610000D02*
D03*
X1240000Y310000D02*
D03*
X1210000Y130000D02*
D03*
X1240000Y70000D02*
D03*
X1210000Y10000D02*
D03*
X1180000Y550000D02*
D03*
X1150000Y370000D02*
D03*
X1180000Y310000D02*
D03*
X1150000Y250000D02*
D03*
Y130000D02*
D03*
X1180000Y70000D02*
D03*
X1150000Y10000D02*
D03*
X1090000D02*
D03*
X1060000Y190000D02*
D03*
X1000000Y550000D02*
D03*
Y430000D02*
D03*
Y310000D02*
D03*
X970000Y250000D02*
D03*
X1000000Y190000D02*
D03*
X970000Y130000D02*
D03*
X910000Y610000D02*
D03*
X940000Y310000D02*
D03*
X910000Y250000D02*
D03*
X940000Y190000D02*
D03*
X910000Y130000D02*
D03*
X850000Y610000D02*
D03*
Y250000D02*
D03*
X880000Y190000D02*
D03*
X850000Y130000D02*
D03*
X790000Y610000D02*
D03*
X820000Y310000D02*
D03*
X790000Y250000D02*
D03*
X820000Y190000D02*
D03*
X790000Y130000D02*
D03*
X760000Y550000D02*
D03*
Y310000D02*
D03*
X730000Y130000D02*
D03*
X700000Y550000D02*
D03*
Y310000D02*
D03*
X640000D02*
D03*
X490000Y610000D02*
D03*
X520000Y550000D02*
D03*
X490000Y10000D02*
D03*
X430000Y610000D02*
D03*
X460000Y550000D02*
D03*
X430000Y10000D02*
D03*
X370000Y610000D02*
D03*
X400000Y550000D02*
D03*
X370000Y490000D02*
D03*
X400000Y430000D02*
D03*
X370000Y10000D02*
D03*
X310000Y610000D02*
D03*
X340000Y550000D02*
D03*
X310000Y490000D02*
D03*
X340000Y430000D02*
D03*
X250000Y610000D02*
D03*
X280000Y550000D02*
D03*
X250000Y490000D02*
D03*
X280000Y430000D02*
D03*
X250000Y370000D02*
D03*
Y250000D02*
D03*
X280000Y190000D02*
D03*
X250000Y10000D02*
D03*
X220000Y550000D02*
D03*
X190000Y490000D02*
D03*
X220000Y430000D02*
D03*
X190000Y10000D02*
D03*
X130000Y610000D02*
D03*
X160000Y550000D02*
D03*
X130000Y490000D02*
D03*
X70000Y610000D02*
D03*
Y490000D02*
D03*
Y370000D02*
D03*
Y250000D02*
D03*
X10000Y490000D02*
D03*
Y370000D02*
D03*
X40000Y310000D02*
D03*
X10000Y250000D02*
D03*
X773437Y235527D02*
D03*
X589250Y71000D02*
D03*
X609500Y31250D02*
D03*
X592500Y23500D02*
D03*
X233500Y88750D02*
D03*
X513000Y327750D02*
D03*
X533000Y316500D02*
D03*
X518250Y406000D02*
D03*
X1135500Y621000D02*
D03*
X1354250Y463750D02*
D03*
X1354500Y405000D02*
D03*
X586000Y210750D02*
D03*
X811750Y53750D02*
D03*
X102750Y313500D02*
D03*
Y452000D02*
D03*
X971750Y425000D02*
D03*
X950750Y418500D02*
D03*
X975000Y394250D02*
D03*
X859500Y356500D02*
D03*
X955500D02*
D03*
X870750Y381250D02*
D03*
X930750Y381500D02*
D03*
X755000Y396750D02*
D03*
X791250Y405000D02*
D03*
X767750Y417000D02*
D03*
X1230000Y430500D02*
D03*
X905500Y369000D02*
D03*
X830250Y429500D02*
D03*
X817000Y420000D02*
D03*
X936000Y369000D02*
D03*
X635750Y252750D02*
D03*
X578250Y298250D02*
D03*
X618250Y247750D02*
D03*
X582500Y260500D02*
D03*
X674750Y235000D02*
D03*
X681750Y298500D02*
D03*
X732750D02*
D03*
X679000Y273000D02*
D03*
X722000D02*
D03*
X727500Y107750D02*
D03*
X1131750Y432750D02*
D03*
X846000Y77250D02*
D03*
X556250Y22250D02*
D03*
X1107000Y547000D02*
D03*
D44*
X165250Y233750D02*
D03*
X198500Y185250D02*
D03*
X567500Y203750D02*
D03*
X531000Y214750D02*
D03*
X284250Y214500D02*
D03*
X171000Y262250D02*
D03*
D45*
X178190Y620460D02*
D03*
Y116270D02*
D03*
X1037190D02*
D03*
Y620460D02*
D03*
D46*
X1231685Y227257D02*
D03*
D47*
X657750Y323920D02*
D03*
Y311220D02*
D03*
Y298520D02*
D03*
Y285820D02*
D03*
Y273120D02*
D03*
Y260420D02*
D03*
Y247720D02*
D03*
Y235020D02*
D03*
X599750Y323920D02*
D03*
Y311220D02*
D03*
Y298520D02*
D03*
Y285820D02*
D03*
Y273120D02*
D03*
Y260420D02*
D03*
Y247720D02*
D03*
Y235020D02*
D03*
D48*
X773214Y220573D02*
D03*
Y185573D02*
D03*
X564458Y577500D02*
D03*
Y612500D02*
D03*
X698000Y612500D02*
D03*
Y577500D02*
D03*
D49*
X980829Y611250D02*
D03*
X945829D02*
D03*
D50*
X462189Y63100D02*
D03*
X487589D02*
D03*
X512989D02*
D03*
X538389D02*
D03*
X563789D02*
D03*
X589189D02*
D03*
X614589D02*
D03*
X639989D02*
D03*
X665389D02*
D03*
X690789D02*
D03*
Y118500D02*
D03*
X665389D02*
D03*
X639989D02*
D03*
X614589D02*
D03*
X589189D02*
D03*
X563789D02*
D03*
X538389D02*
D03*
X512989D02*
D03*
X487589D02*
D03*
X462189D02*
D03*
X208150Y63100D02*
D03*
X233550D02*
D03*
X258950D02*
D03*
X284350D02*
D03*
X309750D02*
D03*
X335150D02*
D03*
X360550D02*
D03*
X385950D02*
D03*
X411350D02*
D03*
X436750D02*
D03*
Y118500D02*
D03*
X411350D02*
D03*
X385950D02*
D03*
X360550D02*
D03*
X335150D02*
D03*
X309750D02*
D03*
X284350D02*
D03*
X258950D02*
D03*
X233550D02*
D03*
X208150D02*
D03*
D51*
X632750Y603750D02*
D03*
D52*
X609750Y545750D02*
D03*
X632750D02*
D03*
X655750D02*
D03*
D53*
X250874Y278124D02*
Y323874D01*
X155000Y182250D02*
X250874Y278124D01*
X155000Y43924D02*
Y182250D01*
Y43924D02*
X175891Y23032D01*
X297032D01*
X309750Y35750D01*
Y63100D01*
X428500Y558500D02*
X447500Y577500D01*
X564458D01*
X428500Y501500D02*
Y558500D01*
X250874Y323874D02*
X428500Y501500D01*
X632750Y486750D02*
Y545750D01*
X564458Y551042D02*
X569750Y545750D01*
X609750D01*
X564458Y551042D02*
Y577500D01*
D54*
X632750Y545750D02*
Y603750D01*
X641500Y612500D02*
X698000D01*
X1023250Y584900D02*
X1048650D01*
M02*
