G04*
G04 #@! TF.GenerationSoftware,Altium Limited,Altium Designer,21.0.8 (223)*
G04*
G04 Layer_Color=16711935*
%FSLAX44Y44*%
%MOMM*%
G71*
G04*
G04 #@! TF.SameCoordinates,CF40DC4F-38BD-4AEA-854D-D5A68E69FAB1*
G04*
G04*
G04 #@! TF.FilePolarity,Negative*
G04*
G01*
G75*
%ADD13R,1.4532X1.2032*%
%ADD14R,1.2032X1.4532*%
%ADD16C,2.2032*%
%ADD17R,2.2032X2.2032*%
%ADD18P,3.4671X8X202.5*%
%ADD19C,3.2032*%
%ADD20C,1.9032*%
%ADD21O,1.9032X1.7032*%
%ADD22R,1.9032X1.9032*%
G04:AMPARAMS|DCode=23|XSize=2.0032mm|YSize=2.2032mm|CornerRadius=0.5516mm|HoleSize=0mm|Usage=FLASHONLY|Rotation=270.000|XOffset=0mm|YOffset=0mm|HoleType=Round|Shape=RoundedRectangle|*
%AMROUNDEDRECTD23*
21,1,2.0032,1.1000,0,0,270.0*
21,1,0.9000,2.2032,0,0,270.0*
1,1,1.1032,-0.5500,-0.4500*
1,1,1.1032,-0.5500,0.4500*
1,1,1.1032,0.5500,0.4500*
1,1,1.1032,0.5500,-0.4500*
%
%ADD23ROUNDEDRECTD23*%
%ADD24C,10.2032*%
%ADD25C,5.2032*%
%ADD26C,3.4032*%
%ADD27C,15.2032*%
%ADD55O,2.0532X0.8032*%
%ADD56R,2.6032X1.6032*%
%ADD57R,1.6032X2.6032*%
G04:AMPARAMS|DCode=58|XSize=1.4032mm|YSize=3.2032mm|CornerRadius=0.4016mm|HoleSize=0mm|Usage=FLASHONLY|Rotation=0.000|XOffset=0mm|YOffset=0mm|HoleType=Round|Shape=RoundedRectangle|*
%AMROUNDEDRECTD58*
21,1,1.4032,2.4000,0,0,0.0*
21,1,0.6000,3.2032,0,0,0.0*
1,1,0.8032,0.3000,-1.2000*
1,1,0.8032,-0.3000,-1.2000*
1,1,0.8032,-0.3000,1.2000*
1,1,0.8032,0.3000,1.2000*
%
%ADD58ROUNDEDRECTD58*%
%ADD59R,9.2032X4.2032*%
%ADD60R,1.2032X2.6032*%
D13*
X958159Y554899D02*
D03*
Y534899D02*
D03*
X936316Y554899D02*
D03*
Y534899D02*
D03*
X913595Y554899D02*
D03*
Y534899D02*
D03*
X980839Y554899D02*
D03*
Y534899D02*
D03*
X802162Y221692D02*
D03*
Y201692D02*
D03*
X297145Y196803D02*
D03*
Y176803D02*
D03*
X122016Y452138D02*
D03*
Y432138D02*
D03*
X1332417Y425750D02*
D03*
Y405750D02*
D03*
X1123250Y601250D02*
D03*
Y621250D02*
D03*
X727500Y615000D02*
D03*
Y595000D02*
D03*
X751500Y615000D02*
D03*
Y595000D02*
D03*
X1354083Y464250D02*
D03*
Y484250D02*
D03*
Y405750D02*
D03*
Y425750D02*
D03*
X1375750Y405750D02*
D03*
Y425750D02*
D03*
X1310750Y405750D02*
D03*
Y425750D02*
D03*
X1100500Y621250D02*
D03*
Y601250D02*
D03*
X1147500Y621250D02*
D03*
Y601250D02*
D03*
X1170000Y621250D02*
D03*
Y601250D02*
D03*
D14*
X657749Y207916D02*
D03*
X637749D02*
D03*
D16*
X1280800Y401000D02*
D03*
X1255400D02*
D03*
X1204600D02*
D03*
X1230000D02*
D03*
X42000Y562750D02*
D03*
Y517750D02*
D03*
X107000Y562750D02*
D03*
Y517750D02*
D03*
X531000Y190750D02*
D03*
Y244250D02*
D03*
X294750Y238250D02*
D03*
D17*
X1179200Y401000D02*
D03*
D18*
X472515Y508749D02*
D03*
D19*
X269485D02*
D03*
D20*
X1023250Y153100D02*
D03*
X1048650D02*
D03*
Y178500D02*
D03*
X1023250D02*
D03*
X1048650Y203900D02*
D03*
X1023250D02*
D03*
X1048650Y229300D02*
D03*
X1023250D02*
D03*
X1048650Y254700D02*
D03*
X1023250D02*
D03*
X1048650Y280100D02*
D03*
X1023250D02*
D03*
X1048650Y305500D02*
D03*
X1023250D02*
D03*
X1048650Y330900D02*
D03*
X1023250D02*
D03*
X1048650Y356300D02*
D03*
X1023250D02*
D03*
X1048650Y381700D02*
D03*
X1023250D02*
D03*
X1048650Y457900D02*
D03*
X1023250D02*
D03*
X1048650Y483300D02*
D03*
X1023250D02*
D03*
X1048650Y508700D02*
D03*
X1023250D02*
D03*
X1048650Y534100D02*
D03*
X1023250D02*
D03*
X1048650Y559500D02*
D03*
X1023250D02*
D03*
X1048650Y584900D02*
D03*
D21*
Y407100D02*
D03*
X1023250D02*
D03*
X1048650Y432500D02*
D03*
X1023250D02*
D03*
D22*
Y584900D02*
D03*
D23*
X1147505Y533634D02*
D03*
Y508634D02*
D03*
Y483634D02*
D03*
X1312505Y533634D02*
D03*
Y483634D02*
D03*
D24*
X1231755Y508634D02*
D03*
D25*
X1371727Y31260D02*
D03*
Y617000D02*
D03*
X28000D02*
D03*
D26*
X178190Y620460D02*
D03*
Y116270D02*
D03*
X1037190D02*
D03*
Y620460D02*
D03*
D27*
X1231685Y227257D02*
D03*
D55*
X657750Y323920D02*
D03*
Y311220D02*
D03*
Y298520D02*
D03*
Y285820D02*
D03*
Y273120D02*
D03*
Y260420D02*
D03*
Y247720D02*
D03*
Y235020D02*
D03*
X599750Y323920D02*
D03*
Y311220D02*
D03*
Y298520D02*
D03*
Y285820D02*
D03*
Y273120D02*
D03*
Y260420D02*
D03*
Y247720D02*
D03*
Y235020D02*
D03*
D56*
X773214Y220573D02*
D03*
Y185573D02*
D03*
X564458Y577500D02*
D03*
Y612500D02*
D03*
X698000Y612500D02*
D03*
Y577500D02*
D03*
D57*
X980829Y611250D02*
D03*
X945829D02*
D03*
D58*
X462189Y63100D02*
D03*
X487589D02*
D03*
X512989D02*
D03*
X538389D02*
D03*
X563789D02*
D03*
X589189D02*
D03*
X614589D02*
D03*
X639989D02*
D03*
X665389D02*
D03*
X690789D02*
D03*
Y118500D02*
D03*
X665389D02*
D03*
X639989D02*
D03*
X614589D02*
D03*
X589189D02*
D03*
X563789D02*
D03*
X538389D02*
D03*
X512989D02*
D03*
X487589D02*
D03*
X462189D02*
D03*
X208150Y63100D02*
D03*
X233550D02*
D03*
X258950D02*
D03*
X284350D02*
D03*
X309750D02*
D03*
X335150D02*
D03*
X360550D02*
D03*
X385950D02*
D03*
X411350D02*
D03*
X436750D02*
D03*
Y118500D02*
D03*
X411350D02*
D03*
X385950D02*
D03*
X360550D02*
D03*
X335150D02*
D03*
X309750D02*
D03*
X284350D02*
D03*
X258950D02*
D03*
X233550D02*
D03*
X208150D02*
D03*
D59*
X632750Y603750D02*
D03*
D60*
X609750Y545750D02*
D03*
X632750D02*
D03*
X655750D02*
D03*
M02*
