M48
;Layer_Color=9474304
;FILE_FORMAT=4:4
METRIC,LZ
;TYPE=PLATED
T1F00S00C0.2000
T2F00S00C0.3000
T3F00S00C0.4000
T4F00S00C0.5000
T5F00S00C0.6000
T6F00S00C0.7000
T7F00S00C0.7620
T8F00S00C1.0000
T9F00S00C1.1000
T10F00S00C1.2000
T11F00S00C1.3000
T12F00S00C1.4000
T13F00S00C1.4500
T14F00S00C1.5000
T15F00S00C2.5000
T16F00S00C3.1000
T17F00S00C3.4000
%
T01
X0065575Y-00471821
X0066675
X0067775
X0068875
X0069975
Y-00460821
Y-00449821
Y-00438821
Y-00427821
X0068875
X0067775
X0066675
X0065575
Y-00438821
Y-00449821
Y-00460821
T02
X0087625Y-00645
X012765Y-00428
X012865Y-00418
T03
X01149999Y-0076
X01179999
X012065Y-00756
X0121525Y-0074275
X01228Y-00738
X01254999Y-0073
X0125175Y-0072125
X012515Y-007085
Y-0069575
Y-00683
Y-0067025
Y-006575
Y-00645
X01254999Y-0061
X01284999
X0129925Y-0062
X01269999Y-0058
X012385Y-0057025
X01224999Y-0061
X011805Y-0059275
X01173Y-0057525
X0117925Y-00539
X0117425Y-0048325
X011855Y-0048025
X0119225Y-0048875
X0120275Y-0048975
X0121125Y-0048075
X01271Y-0047175
X01282Y-005435
X013835Y-0048875
X01404999Y-0049
X01415Y-0048475
X01344999Y-0073
X01359999Y-0076
X01329999
X01299999
X01314999Y-0079
X01344999
X01284999
X01254999
X01224999
X01194999
Y-0073
X01179999Y-007
Y-0064
X01134999Y-0073
X01284999
X01119999Y-007
X01089999
X01074999Y-0073
X01089999Y-0076
X01119999
X01059999
X01029999
X00999999
X00969999
X00939999
X00909999
X00879999
X00849999
X00864999Y-0073
X00894999
X00924999
Y-0067
X0089Y-00678
X008735Y-0067225
X0086025Y-006695
X00879999Y-007
X00834999Y-0073
X0080275Y-007495
X00789999Y-0076
X0078Y-0076625
X00789999Y-007
X0079Y-0069
X007435Y-00651
X00744999Y-0061
X0076Y-00594
X00773Y-0058075
X007755Y-00558
X00804999Y-0055
X00815Y-005495
X008255Y-00538
X00831Y-0052725
X0081475Y-00517
X00819Y-0050225
X008155Y-00467
X0082625Y-004685
X008445Y-0047025
X008535Y-004805
X00944Y-0047825
X0094575Y-0049325
X0095675Y-0048625
X00964Y-0054225
X0096275Y-0058625
X0089925Y-0056625
X00879999Y-0058
X00849999
X0085375Y-00599
X0087875Y-0060925
X008995Y-006135
X0083225Y-00628
X00834999Y-0079
X00864999
X00894999
X00924999
X00954999
X01014999Y-0073
X01029999Y-007
X00999999
Y-0064
X0075125Y-0051975
X00742Y-0049725
X0072925Y-005325
X0071025Y-00539
X0068525Y-0053475
X0066825Y-0053225
X00655Y-005305
X0063975
X00627Y-0052875
X0061775Y-0051975
X00605Y-0052875
X005905Y-005315
X0058Y-005575
X0058575Y-0058075
X0060025Y-005795
X0060925Y-00586
X0062025Y-00594
X00624999Y-0061
X00594999
X00609999Y-0064
X00579999
X00594999Y-0067
X00624999
X0065875Y-006495
X00669999Y-0064
X00699999
X0073025Y-006495
X00714999Y-0061
X00684999
X00650645Y-00585885
X006355Y-005785
X0054825Y-0055375
X00543Y-0052775
X00545Y-00511
X00535Y-0049
X0051825Y-0046325
X0049825Y-0047525
X0049525Y-00485
X0049425Y-0049525
X0049125Y-0050525
X00482Y-0051225
X0050125Y-00519
X0052Y-0052
X0049925Y-005555
X00434Y-0055275
X0042825Y-005195
X004305Y-005035
X0041925Y-005075
X0040925Y-0051825
X00374609Y-00521271
X00385Y-0049
X00391Y-0048175
X003775Y-0048025
X003665Y-00472
X0033975Y-0047025
X0033775Y-0049
X00352Y-0048625
X00434Y-0049175
X0059125Y-0048725
X0053525Y-006125
X0051975Y-0062075
X0052Y-0064
X00535Y-0067
X00565
X00579999Y-007
X0051925Y-00692
X0052Y-0076
X0055
X00549Y-007715
X00535Y-0079
X006175Y-007655
X00669999Y-0076
X007035Y-007655
X0064075Y-007125
X0043Y-007
X004
X00447Y-0066325
X0035275Y-00602
X00342Y-0059975
X0037Y-0076
X0029375Y-007755
X00265Y-0079
X002775Y-0062425
X0028375Y-00604
X0031875
X003225Y-005875
X0033125Y-0059575
X003055Y-0058475
X0027375Y-005775
X00271Y-005505
X002625Y-00541
X002555Y-005285
X002655Y-0051475
X00296Y-005175
X0028475Y-00532
X00291Y-0048
X002695Y-00469
X00224748Y-0049736
X00333016Y-00481484
X0033275Y-0051975
X0025125Y-0062075
X0023975Y-006215
X0013Y-0064
X001
X00115Y-0061
X001Y-0058
Y-0052
X00145Y-0055
X00115Y-0067
X0013Y-007
X001
X00115Y-0073
X00085
X001Y-0046
Y-004
X00145Y-0043
X0022Y-0046
X0025Y-004
X00274Y-0040275
X0027475Y-00414
X00287Y-0042575
X0028625Y-003935
X0028225Y-0038075
X0024025Y-00373
X00265Y-0031
X0025Y-0028
X00265Y-0025
X002855Y-00236
X0031275Y-001975
X00295Y-00130001
X0029225Y-00094
X0028Y-00100001
X0025
X002465Y-001285
X00246Y-0014875
X00224011Y-00148757
X0022475Y-00129
X001925Y-0014625
X0019Y-00160001
X001565Y-00151
Y-0011875
X0015925Y-00096
X0019Y-00100001
X00115Y-00130001
X0013Y-00160001
X001075Y-0018725
X001Y-00220001
X0016
X0016675Y-002025
X0019Y-00220001
X002185Y-0021125
X00235Y-00190001
X003115Y-0010025
X001Y-0028
X00349Y-0027775
X00372Y-0027075
X00379Y-0023575
X003655Y-00232
X0036775Y-002105
X003915Y-0021675
X00385Y-00190001
X00346Y-001795
X00385Y-00130001
X0039625Y-001395
X0041775Y-00139
X0043Y-00100001
X00445Y-00070001
X00475
X00505
X00594999
X00609999Y-00160001
X00576Y-0016
X00594999Y-00190001
X00624999
X00609999Y-00220001
X00669999
X0069825Y-002295
X0072725
X0072625Y-002815
X0073Y-0035975
X00721756Y-00371328
X0070075Y-00371
X0066025
X0064025Y-0035975
X006155Y-00371
X0058725Y-003825
X0059875Y-0042225
X0060875Y-004355
X00624999Y-0043
X0058875Y-004475
X0059175Y-00457
X00552Y-00447
X005455Y-00437
Y-0041125
X00528Y-00411
X005295Y-004475
X00472Y-0041
X0046875Y-0038475
X004455Y-00393
X00445Y-0037
X0046Y-0034
X004585Y-003235
X004415Y-0032475
X004515Y-0029475
X004595Y-00286
X00472Y-0031175
X00481Y-003315
X00505Y-0031
X00535
X00537Y-003355
X0055Y-0034
X00565Y-0031
X00594999
X0063Y-0031675
X00645Y-0031975
X00654999Y-0031
X00639999Y-0028
X00609999
X00516Y-0025825
X005265Y-00225
X0055075Y-00221
X0049Y-00220001
X0045325Y-002375
X0041475Y-0029475
X00355Y-0031
X00384Y-0034625
X0040275Y-0036075
X0039425Y-004285
X0038075Y-0043075
X0036275Y-00444
X0036625Y-0045775
X00339Y-004515
X0035175Y-0043775
X004135Y-004515
X00431271Y-00430021
X00714999Y-0043
X0073Y-0039325
X00729999Y-00160001
X00699999
X006795Y-0015425
X00669999Y-00160001
X00684999Y-00190001
X0063325Y-001395
X0052Y-00160001
X0049975Y-0016175
X0048875Y-00153
X00385Y-00070001
X00355
X00714999
X00761583Y-00102
X00784833Y-0008425
X00804999Y-00130001
X00834999
X0082475Y-00164
X00819999Y-00220001
X0079725Y-00224
X00804999Y-0025
X00834999
X00864999
X00879999Y-00220001
X00849999
Y-0028
X00879999
X00894999Y-0031
X00834999
X00804999
X00789999Y-0034
X007795Y-003375
X0076675Y-0039225
X0075325Y-0039125
X007425Y-0043725
X0076Y-0045725
X0081475Y-004535
X0080825Y-0043475
X00818Y-0041825
X008295Y-004075
X0082925Y-0039125
X00834999Y-0037
X00849999Y-0034
X00879999Y-004
X00894999Y-0043
X0093475Y-00441
X0095525Y-0042975
X00963Y-00451
X01014999Y-0043
X0094425Y-0039525
X0092525
X00939999Y-0028
X0095125Y-002355
X00999999Y-00220001
Y-0028
X01014999Y-0031
X0104875Y-0032875
X01061179Y-00284579
X011235Y-002835
X011165Y-003215
X011155Y-002455
X00984052Y-00152018
X00984999Y-00130001
X00961338Y-001645
X00942417Y-0008425
X00919348Y-00101544
X00894999Y-00130001
X00863333Y-0008425
X01022228
X00744999Y-00130001
X00849999Y-0046
X0113975Y-00433
X01185Y-003905
X0119725Y-00388
X011785Y-0037675
X0125525Y-0038175
X012455Y-0040425
X01238Y-00413
X012415Y-004235
X01245Y-00434
X012485Y-0044525
X0124925Y-0045775
X01269999Y-0034
X01284999Y-0031
X01269999Y-0028
X01239999
X01209999
X012065Y-002655
X012065Y-0030125
X01209999Y-00220001
X01239999
X01269999
X012655Y-00177
X012995Y-00156
X01254999Y-00130001
X01259Y-0011375
X0134925Y-0010225
X01351Y-0034625
X01415Y-003735
X01374999Y-0043
X01179999Y-00220001
X011815Y-00197
X013435Y-00058
X00729999Y-00040001
X00669999
X00639999
X00579999
X0055
X0049
X004
X0034
X0025
X0022
X0016
T04
X01395Y-00819
X0139Y-00805
X01395Y-00791
X0141Y-00785
X01425Y-00791
X0143Y-00805
X01425Y-00819
X0141Y-00825
X00125Y-00819
X0013Y-00805
X00125Y-00791
X0011Y-00785
X00095Y-00791
X0009Y-00805
X00095Y-00819
X0011Y-00825
X01395Y-00044
X0139Y-0003
X01395Y-00016
X0141Y-0001
X01425Y-00016
X0143Y-0003
X01425Y-00044
X0141Y-0005
T05
X003545Y-0079675
X00472Y-00632
Y-00567
X0051875Y-0037075
X0045525Y-002625
X00678Y-0027975
X0109725Y-000945
T06
X011515Y-0080025
X01151429Y-00774921
X0115175Y-0074575
X01151429Y-00720546
X0115225Y-0069275
X01151429Y-00666171
X01152Y-0063675
X0115225Y-00583
X01151429Y-00557421
X01152Y-0052775
X01151429Y-00503046
X0115325Y-0047425
X01057Y-00474
Y-00502875
Y-00528375
Y-0055725
Y-0058275
Y-00611625
Y-00637125
Y-00663
Y-006885
Y-00720375
Y-00745875
Y-0077475
Y-0080025
X00984Y-0080025
X0098325Y-0077475
X00984Y-0074575
X00983375Y-007205
X0098375Y-006905
X0098425Y-00667
X0098375Y-00637
X0098325Y-00611625
X0098325Y-0058275
Y-0055725
Y-00528375
X00983958Y-00503583
X0098325Y-00474
X00313Y-0033725
X0028925
X0098325Y-003935
Y-00419
X0098375Y-00449
X01057Y-004485
X0105675Y-00419171
X0115225Y-004185
X0115175Y-0039225
X01151429Y-00448671
T07
X0024825Y-0030625
X0024825Y-00255751
X001164Y-0009545
Y-0007005
X00091Y-0008275
Y-0010815
Y-0005735
X001164Y-0004465
T08
X0026737Y-0016122
Y-0013622
Y-0011122
X01078Y-0011825
X012305
X01299Y-0006775
X012305Y-0003125
X01078
T09
X0125158Y-00808
X0127698
X0130238
X0132778
X013778Y-0074655
Y-0072115
Y-0069575
Y-0067035
X014032
Y-0064495
X013778
X014032Y-0069575
Y-0072115
Y-0074655
X0050105Y-007593
Y-007847
X0047565
X0045025
X0042485
X0039945
Y-007593
X0042485
X0045025
X0047565
X00228Y-007633
Y-007379
Y-007887
Y-008141
X001854Y-007218
X0016
Y-006964
Y-00671
Y-006456
Y-006202
Y-005948
Y-005694
Y-00544
Y-005186
Y-00493441
Y-00468
X001854
Y-004932
Y-005186
Y-00544
Y-005694
Y-005948
Y-006202
Y-006456
Y-00671
Y-006964
Y-004424
Y-00417
Y-003916
Y-003662
Y-003409
X0016
Y-003155
Y-0029
Y-002646
Y-002392
X001854
Y-002646
Y-002901
Y-003154
X0016Y-003663
Y-003917
Y-004172
Y-004426
T10
X0138925Y-0031225
Y-0026225
X0138875Y-0020425
Y-0015425
T11
X00321Y-00082
X00346
X00371
X00396
X00421
X004635
X004885
X005135
X005385
X005635
X00606
X00631
X00656
X00681
X00706
X00656Y-00032
X005135
X00371
T12
X0135485Y-0057665
X0140565
Y-0052585
X0135485
T13
X0138025Y-0055125
T14
X00421Y-00032
X004635
X005635
X00606
X00706
X00321
T15
X0067775Y-00449821
T16
X0141Y-00805
X0011
X0141Y-0003
T17
X000269Y-0012645
Y-0002645
M30
