M48
;Layer_Color=9474304
;FILE_FORMAT=4:4
METRIC,LZ
;TYPE=PLATED
T1F00S00C0.4000
T2F00S00C0.6000
T3F00S00C1.1000
T4F00S00C1.2000
T5F00S00C3.1000
T6F00S00C7.5000
T7F00S00C10.7000
%
T01
X0115Y0003
X0119
X0123
X0127
X0131
X0111
X00949043Y0011075
X0093Y0015
X0091Y0019
X0095
X0093Y0023
X0089
X0087Y0027
X0091
X0095
X0093Y0031
X0089
X0085
X0081
X0083Y0027
X0075
X0077Y0023
X00752Y00187687
X00791068Y00180688
X00778445Y00142955
X0079Y0011
X00802258Y00111241
X00790408Y00054527
X0073875Y0011775
X00841943Y00180688
X00854523Y00187687
X0088725Y0009775
X0073Y0007
X0071Y0011
X0069Y0023
X0065
X00646312Y0026425
X00655Y0029275
X00674156Y00306632
X00686133Y00323814
X0068225Y003315
X0064475Y003275
X0061459Y00331385
X00606317Y00306402
X00551384Y0032393
X00519592Y00315748
X0051225Y0030475
X0052275Y00291
X00543Y0026975
X0049Y0023
X00487413Y00152733
X0043Y0019
X00423068Y00323022
X00411404
X00397905
X00385855
X00436958
X00510177Y00337006
X00726856Y00330226
X00266849Y00235809
X00210002Y00248874
X0023Y0019
X0025Y0015
X0021
X0019Y0011
X0027
X0015Y0027
X0013Y0031
X0005
X0009Y0023
X0011Y0035
X0015
Y0043
X0013Y0047
X0009
X0005
X00075235Y00518775
X0007Y0059
X0011
X0015
X0019
X0023
X0027
X0031
Y0051
X0033Y0047
X0031Y0043
X0033Y0039
X0009
X0003Y0035
X0015Y0051
X0035
X0039
X0043
X00427Y0049025
X0042326Y00464849
X00457955Y00464834
X00469397Y00436353
X00456596Y00421908
X00397918Y00421733
X00385926Y00436353
X0035Y0043
X0037Y0047
X0035Y0059
X0039
X0043
X0047
X0051
X0055
X0051Y0051
X0057Y0047
X0059425Y004375
X00651Y00446
X0064975Y004595
X0066058Y00469895
X00677055Y00480273
X0067Y0051
X0071
Y0059
X0072251Y00432247
X00722347Y0035067
X00672748Y00352758
X00667574Y003615
X00658905Y00366618
X00665083Y00344076
X00564027Y0033881
X00537957Y00338385
X005495Y00372
X0054225Y003805
X0053092Y0037914
X005325Y00402
X005365Y0041
X005375Y0042125
X00543786Y0041525
X00531Y004275
X0052225Y00396
X0051168Y00362703
X0049Y00360709
X00477Y00369
X00483055Y00379195
X00449156Y0033902
X0043Y0035
X00562954Y0036761
X0075Y0035
X0083
X0087
X0091
X0095
X0093Y0039
X0089
X0085
X0081
X0083Y0043
X0087
X0091
X008955Y004785
X00913152Y00496233
X00933261Y00488779
X00957683Y00480869
X00976085Y0047513
X0099853
X0103Y0051
X0107
X0111
X0109Y0055
X0105
X0111Y0059
X0109Y0047
Y0039
X0113
X0105
X0103Y0043
X009475Y005255
X009335Y0052275
X0095Y0059
X0091
X0087
X0083
X0079
X0081Y0047
X0085
X0075Y0043
X0123Y004305
X0127Y0043
X0133Y0047
X0135425Y0046375
X0137Y0047
Y0055
X0133
X0131Y0059
X0135
X0127
X0123
X0119
X011355Y00621
X0133Y0039
X013545Y00405
X0137Y0039
T02
X00531Y0021475
X005675Y0020375
X001985Y0018525
X0016525Y0023375
X00171Y0026225
X00170928Y00304201
X0025025Y0029525
X002335Y0008875
T03
X011792Y00401
X012046
X0123
X012554
X012808
T04
X00269485Y00508749
X00472515
X01147505Y00508634
Y00483634
Y00533634
X01312505Y00533634
Y00483634
T05
X01371727Y0003126
X000285Y00617
X01371727
T06
X01231755Y00508634
T07
X01231685Y00227257
M30
