M48
;Layer_Color=9474304
;FILE_FORMAT=4:4
METRIC,LZ
;TYPE=PLATED
T1F00S00C0.4000
T2F00S00C0.6000
T3F00S00C0.8000
T4F00S00C1.1000
T5F00S00C1.2000
T6F00S00C3.0000
T7F00S00C3.1000
T8F00S00C7.5000
T9F00S00C10.7000
%
T01
X0115Y0005
X012
X0125
X013
X01325Y001
X01375
X0135Y0015
X013
X01325Y002
X01375
X0135Y0025
X01375Y003
X01325
X01275
X01175
X0115Y0025
Y0015
X012
X01225Y001
X01275
X01175
X01075
X011Y0005
X01075Y002
X00975
X00925
X00875
X00829512Y00219376
X0085Y0025
X009
X0095
X01
X00975Y003
X00925
X00875
X00825
X00766225Y00229318
X00778635Y001835
X00791654Y0017725
X00778884Y00126273
X00775Y001
X0081175Y0005375
X00846Y0007725
X008419Y00160923
X009Y0015
X0095
X01
X00975Y001
X00925
X007275Y0010775
X00675Y001
X00676997Y00177351
X007Y0025
X00646312Y0026425
X00646465Y00311516
X0066227Y0032585
X00675Y003
X00725
X00606317Y00306402
X0061459Y00331385
X00551384Y0032393
X0054575Y00307
X0052975Y00296
X00519592Y00315748
X00510177Y00337006
X00436958Y00323022
X00423068
X00411404
X00397905
X00385855
X0055Y0025
X00586Y0021075
X006Y0015
X0058925Y00071
X005925Y000235
X006095Y0003125
X0055625Y0002225
X005Y0005
X00487413Y00152733
X003Y0015
X0025
X002
X002335Y0008875
X00275Y001
X00325
Y002
Y003
X0025Y0025
X002
X0015
X0010275Y003135
X00075Y003
X0005Y0035
X00075Y004
X00125
X00175
X002Y0045
X0025
X003
X00325Y004
X003Y0035
X0025
X002
X0015
Y0045
X0010275Y00452
X0005Y0045
X00075Y005
X00175
X002Y0055
X0025
X003
X0015
X00125Y006
X00075
X0035Y0055
X00375Y005
X00425
X00427Y0049025
X0042326Y00464849
X00457955Y00464834
X00469397Y00436353
X00456596Y00421908
X00475Y004
X00477Y00369
X0049Y00360709
X0051168Y00362703
X0053092Y0037914
X00525Y004
X00537957Y00338385
X00564027Y0033881
X00611237Y00341714
X007Y0035
X006755Y0047175
X00660045Y00472008
X006Y0045
X0055
X00525Y005
X004Y0045
X00385926Y00436353
X00397918Y00421733
X00375Y004
X0035Y0045
X0045392Y0037914
X00449156Y0033902
X0075Y0035
X0085
X009
X00924Y00356085
X00957978Y0035598
X00975Y0039425
X0097175Y00425
X00940267Y00417857
X00954452Y00468011
X00973153Y00477392
X0097753Y00518772
X00980017Y00531354
X00940312Y00540225
X00918283Y00545546
X0090003Y00544522
X00873426Y00543241
X0085Y0045
X00875Y004
X00825
X0095503Y00506522
X01075Y005
X01107Y00547
X01075Y004
X0113175Y0043275
X0115Y0045
X012
X0123Y004305
X0125Y0045
Y0035
X013
X0135
X013545Y00405
X0135425Y0046375
X01375Y005
X01325
X013Y0055
X01275Y006
X01225
X011355Y00621
X01175Y005
X012Y0035
X0115
T02
X00531Y0021475
X005675Y0020375
X0028425Y002145
X001985Y0018525
X0016525Y0023375
X00171Y0026225
T03
X00531Y0019075
Y0024425
X0029475Y0023825
T04
X0102325Y001531
X0104865
Y001785
X0102325
Y002039
X0104865
Y002293
X0102325
Y002547
X0104865
Y002801
X0102325
Y003055
X0104865
Y003309
X0102325
Y003563
X0104865
Y003817
X0102325
Y004071
X0104865
Y004325
X0102325
Y004579
X0104865
Y004833
X0102325
Y005087
X0104865
Y005341
X0102325
Y005595
X0104865
Y005849
X0102325
X011792Y00401
X012046
X0123
X012554
X012808
T05
X00042Y0051775
Y0056275
X00107
Y0051775
X00269485Y00508749
X00472515
X01147505Y00508634
Y00533634
Y00483634
X01312505
Y00533634
T06
X0103719Y0011627
X0017819
Y0062046
X0103719
T07
X01371727Y0003126
X000285Y00617
X01371727
T08
X01231755Y00508634
T09
X01231685Y00227257
M30
