G04*
G04 #@! TF.GenerationSoftware,Altium Limited,Altium Designer,21.2.1 (34)*
G04*
G04 Layer_Color=16711935*
%FSLAX44Y44*%
%MOMM*%
G71*
G04*
G04 #@! TF.SameCoordinates,F245D831-B60A-471C-B086-0F040D8F8951*
G04*
G04*
G04 #@! TF.FilePolarity,Negative*
G04*
G01*
G75*
%ADD24R,0.7500X1.1500*%
%ADD25R,1.1500X1.4000*%
%ADD26R,1.1500X0.7500*%
%ADD29R,1.4000X1.1500*%
%ADD33R,2.1500X2.1500*%
%ADD37R,2.5500X1.5500*%
%ADD42O,2.0000X0.7500*%
%ADD55R,1.7500X1.3500*%
%ADD58R,2.1500X1.9500*%
%ADD59O,2.1500X1.9500*%
%ADD60R,5.7032X5.7032*%
%ADD61C,0.8500*%
%ADD62C,1.6500*%
%ADD63C,2.1500*%
%ADD64P,2.3272X8X112.5*%
%ADD65R,1.7500X2.1500*%
%ADD66O,1.9500X2.1500*%
%ADD67O,1.8500X2.1500*%
%ADD68R,2.1500X2.1500*%
%ADD69C,3.1500*%
%ADD70C,2.6500*%
%ADD71P,1.7860X8X112.5*%
%ADD72C,1.6740*%
%ADD73C,5.1500*%
%ADD74C,1.4500*%
%ADD75C,1.7740*%
%ADD76C,1.9500*%
%ADD77C,0.6500*%
%ADD78C,3.5500*%
%ADD79C,1.3500*%
%ADD80C,1.1500*%
%ADD158R,3.2750X2.3750*%
%ADD159R,1.1500X2.5500*%
%ADD160R,7.1500X4.1500*%
G04:AMPARAMS|DCode=161|XSize=1.7mm|YSize=0.75mm|CornerRadius=0.375mm|HoleSize=0mm|Usage=FLASHONLY|Rotation=0.000|XOffset=0mm|YOffset=0mm|HoleType=Round|Shape=RoundedRectangle|*
%AMROUNDEDRECTD161*
21,1,1.7000,0.0000,0,0,0.0*
21,1,0.9500,0.7500,0,0,0.0*
1,1,0.7500,0.4750,0.0000*
1,1,0.7500,-0.4750,0.0000*
1,1,0.7500,-0.4750,0.0000*
1,1,0.7500,0.4750,0.0000*
%
%ADD161ROUNDEDRECTD161*%
%ADD162O,2.1500X0.7500*%
%ADD163O,0.5000X1.5500*%
%ADD164R,1.7000X1.5000*%
%ADD165R,1.5000X1.7000*%
%ADD166R,1.3500X1.7500*%
%ADD167R,4.1500X7.1500*%
%ADD168R,2.5500X1.1500*%
D24*
X1360490Y-442250D02*
D03*
X1369990Y-418250D02*
D03*
X1350990D02*
D03*
D25*
X1258250Y-591922D02*
D03*
X1238250D02*
D03*
X275250Y-210000D02*
D03*
X255250D02*
D03*
X275250Y-187500D02*
D03*
X255250D02*
D03*
X319250Y-642500D02*
D03*
X299250D02*
D03*
X783500Y-410750D02*
D03*
X763500D02*
D03*
X1203750Y-363500D02*
D03*
X1223750D02*
D03*
X1203250Y-341500D02*
D03*
X1223250D02*
D03*
X319250Y-621250D02*
D03*
X299250D02*
D03*
X1363250Y-488500D02*
D03*
X1383250D02*
D03*
X1319500Y-695250D02*
D03*
X1339500D02*
D03*
X885000Y-506750D02*
D03*
X905000D02*
D03*
X885000Y-484167D02*
D03*
X905000D02*
D03*
Y-461583D02*
D03*
X885000D02*
D03*
Y-439000D02*
D03*
X905000D02*
D03*
X1114750Y-541500D02*
D03*
X1134750D02*
D03*
X1019750Y-486000D02*
D03*
X999750D02*
D03*
X1258250Y-526417D02*
D03*
X1238250D02*
D03*
Y-570250D02*
D03*
X1258250D02*
D03*
X1238250Y-504500D02*
D03*
X1258250D02*
D03*
X1238250Y-548333D02*
D03*
X1258250D02*
D03*
X1291250Y-137000D02*
D03*
X1311250D02*
D03*
X1123750Y-306329D02*
D03*
X1143750D02*
D03*
X1123750Y-260162D02*
D03*
X1143750D02*
D03*
X1123750Y-283412D02*
D03*
X1143750D02*
D03*
X310500Y-278250D02*
D03*
X290500D02*
D03*
X433250Y-677500D02*
D03*
X453250D02*
D03*
X1096000Y-295778D02*
D03*
X1076000D02*
D03*
Y-273305D02*
D03*
X1096000D02*
D03*
X1076000Y-318250D02*
D03*
X1096000D02*
D03*
X1076000Y-250833D02*
D03*
X1096000D02*
D03*
X741500Y-454250D02*
D03*
X721500D02*
D03*
X616750D02*
D03*
X636750D02*
D03*
X741500Y-410750D02*
D03*
X721500D02*
D03*
X616750Y-476250D02*
D03*
X636750D02*
D03*
X741250D02*
D03*
X721250D02*
D03*
X290500Y-301250D02*
D03*
X310500D02*
D03*
D26*
X1196981Y-218143D02*
D03*
X1220981Y-227643D02*
D03*
Y-208643D02*
D03*
X1109516Y-218303D02*
D03*
X1133515Y-227803D02*
D03*
Y-208803D02*
D03*
D29*
X1265750Y-157000D02*
D03*
Y-177000D02*
D03*
X1242038Y-228303D02*
D03*
Y-208303D02*
D03*
X1265750Y-228303D02*
D03*
Y-208303D02*
D03*
X1180407Y-228303D02*
D03*
Y-208303D02*
D03*
X1157500D02*
D03*
Y-228303D02*
D03*
X543047Y-791728D02*
D03*
Y-771728D02*
D03*
X564531Y-791728D02*
D03*
Y-771728D02*
D03*
X586016D02*
D03*
Y-791728D02*
D03*
X607500Y-771728D02*
D03*
Y-791728D02*
D03*
X543047Y-729747D02*
D03*
Y-749747D02*
D03*
X564531Y-729747D02*
D03*
Y-749747D02*
D03*
X586016D02*
D03*
Y-729747D02*
D03*
X642559D02*
D03*
Y-749747D02*
D03*
X622109D02*
D03*
Y-729747D02*
D03*
X248250Y-328500D02*
D03*
Y-348500D02*
D03*
X417417Y-180000D02*
D03*
Y-200000D02*
D03*
X642750Y-565000D02*
D03*
Y-545000D02*
D03*
X711750Y-331250D02*
D03*
Y-351250D02*
D03*
X290250Y-550000D02*
D03*
Y-570000D02*
D03*
X333000D02*
D03*
Y-550000D02*
D03*
X749500Y-351250D02*
D03*
Y-331250D02*
D03*
X617000Y-545000D02*
D03*
Y-565000D02*
D03*
X312000Y-532750D02*
D03*
Y-512750D02*
D03*
X311625Y-570000D02*
D03*
Y-550000D02*
D03*
X873500Y-530250D02*
D03*
Y-550250D02*
D03*
X851500Y-530250D02*
D03*
Y-550250D02*
D03*
X255500Y-426750D02*
D03*
Y-446750D02*
D03*
X215000Y-552500D02*
D03*
Y-532500D02*
D03*
X224500Y-148500D02*
D03*
Y-128500D02*
D03*
X246000Y-148500D02*
D03*
Y-128500D02*
D03*
X1393500Y-440000D02*
D03*
Y-420000D02*
D03*
X1306130Y-439500D02*
D03*
Y-419500D02*
D03*
X176480Y-116000D02*
D03*
Y-96000D02*
D03*
X1320250Y-716750D02*
D03*
Y-736750D02*
D03*
X1328821Y-439751D02*
D03*
Y-419751D02*
D03*
X841000Y-163750D02*
D03*
Y-143750D02*
D03*
X863250Y-163750D02*
D03*
Y-143750D02*
D03*
X1006000Y-387250D02*
D03*
Y-367250D02*
D03*
X1027000Y-387250D02*
D03*
Y-367250D02*
D03*
X1050000Y-387250D02*
D03*
Y-367250D02*
D03*
X1111000Y-398750D02*
D03*
Y-418750D02*
D03*
X1071250Y-367250D02*
D03*
Y-387250D02*
D03*
X1132750Y-398750D02*
D03*
Y-418750D02*
D03*
X1270000Y-20500D02*
D03*
Y-40500D02*
D03*
X1325000Y-20500D02*
D03*
Y-40500D02*
D03*
X635687Y-496250D02*
D03*
Y-516250D02*
D03*
X292000Y-93750D02*
D03*
Y-113750D02*
D03*
X1000000Y-163750D02*
D03*
Y-143750D02*
D03*
X1023000D02*
D03*
Y-163750D02*
D03*
X779375Y-710500D02*
D03*
Y-690500D02*
D03*
X780250Y-669250D02*
D03*
Y-649250D02*
D03*
X758250D02*
D03*
Y-669250D02*
D03*
X802250Y-649250D02*
D03*
Y-669250D02*
D03*
X825250D02*
D03*
Y-649250D02*
D03*
X801438Y-690500D02*
D03*
Y-710500D02*
D03*
X823500Y-690500D02*
D03*
Y-710500D02*
D03*
X735500Y-690500D02*
D03*
Y-710500D02*
D03*
X757312Y-690500D02*
D03*
Y-710500D02*
D03*
X703750Y-724000D02*
D03*
Y-704000D02*
D03*
X920111Y-143750D02*
D03*
Y-163750D02*
D03*
X942361D02*
D03*
Y-143750D02*
D03*
X685750Y-351250D02*
D03*
Y-331250D02*
D03*
X657500Y-391500D02*
D03*
Y-411500D02*
D03*
X386250Y-706250D02*
D03*
Y-686250D02*
D03*
X678562Y-516750D02*
D03*
Y-496750D02*
D03*
X321500Y-706250D02*
D03*
Y-686250D02*
D03*
X529750Y-426750D02*
D03*
Y-446750D02*
D03*
X506750Y-426750D02*
D03*
Y-446750D02*
D03*
X351750Y-405750D02*
D03*
Y-385750D02*
D03*
X394917Y-405750D02*
D03*
Y-385750D02*
D03*
X416500Y-405750D02*
D03*
Y-385750D02*
D03*
X349000Y-264250D02*
D03*
Y-244250D02*
D03*
X396000Y-118750D02*
D03*
Y-138750D02*
D03*
X417417Y-118750D02*
D03*
Y-138750D02*
D03*
X438833Y-118750D02*
D03*
Y-138750D02*
D03*
X460250Y-118750D02*
D03*
Y-138750D02*
D03*
X511250Y-124750D02*
D03*
Y-104750D02*
D03*
X533750Y-124750D02*
D03*
Y-104750D02*
D03*
X607500Y-104750D02*
D03*
Y-124750D02*
D03*
X629500D02*
D03*
Y-104750D02*
D03*
X703000D02*
D03*
Y-124750D02*
D03*
X726000D02*
D03*
Y-104750D02*
D03*
X784500Y-143750D02*
D03*
Y-163750D02*
D03*
X760625Y-143750D02*
D03*
Y-163750D02*
D03*
X635687Y-391500D02*
D03*
Y-411500D02*
D03*
X678562Y-391500D02*
D03*
Y-411500D02*
D03*
X700000Y-391500D02*
D03*
Y-411500D02*
D03*
X808375Y-143750D02*
D03*
Y-163750D02*
D03*
X614250Y-391500D02*
D03*
Y-411500D02*
D03*
X885750Y-143750D02*
D03*
Y-163750D02*
D03*
X657500Y-516250D02*
D03*
Y-496250D02*
D03*
X721750Y-516750D02*
D03*
Y-496750D02*
D03*
X700000Y-516750D02*
D03*
Y-496750D02*
D03*
X353500Y-706250D02*
D03*
Y-686250D02*
D03*
X662500Y-351250D02*
D03*
Y-331250D02*
D03*
X461250Y-426750D02*
D03*
Y-446750D02*
D03*
X373333Y-405750D02*
D03*
Y-385750D02*
D03*
X483250Y-426750D02*
D03*
Y-446750D02*
D03*
X584000Y-124750D02*
D03*
Y-104750D02*
D03*
X392250Y-244250D02*
D03*
Y-264250D02*
D03*
X414500Y-244250D02*
D03*
Y-264250D02*
D03*
X391500Y-200000D02*
D03*
Y-180000D02*
D03*
X224750Y-256000D02*
D03*
Y-276000D02*
D03*
X224750Y-306000D02*
D03*
Y-326000D02*
D03*
D33*
X228000Y-737900D02*
D03*
D37*
X466750Y-182500D02*
D03*
Y-217500D02*
D03*
X349000Y-295000D02*
D03*
Y-330000D02*
D03*
X382000D02*
D03*
Y-295000D02*
D03*
X415250Y-330000D02*
D03*
Y-295000D02*
D03*
D42*
X1235000Y-721420D02*
D03*
Y-708720D02*
D03*
Y-696020D02*
D03*
Y-683320D02*
D03*
Y-670620D02*
D03*
Y-657920D02*
D03*
Y-645220D02*
D03*
Y-632520D02*
D03*
X1293000Y-721420D02*
D03*
Y-708720D02*
D03*
Y-696020D02*
D03*
Y-683320D02*
D03*
Y-670620D02*
D03*
Y-657920D02*
D03*
Y-645220D02*
D03*
Y-632520D02*
D03*
D55*
X454250Y-515250D02*
D03*
Y-483250D02*
D03*
X847750Y-723250D02*
D03*
Y-691250D02*
D03*
X369750Y-137750D02*
D03*
Y-105750D02*
D03*
X486500Y-105750D02*
D03*
Y-137750D02*
D03*
X560000Y-105750D02*
D03*
Y-137750D02*
D03*
X652750Y-137750D02*
D03*
Y-105750D02*
D03*
X678500Y-137750D02*
D03*
Y-105750D02*
D03*
D58*
X1377800Y-644950D02*
D03*
D59*
X1403200Y-746550D02*
D03*
Y-695750D02*
D03*
Y-721150D02*
D03*
X1377800Y-746550D02*
D03*
Y-721150D02*
D03*
X1403200Y-644950D02*
D03*
X1377800Y-670350D02*
D03*
X1403200D02*
D03*
X1377800Y-695750D02*
D03*
X185400Y-239200D02*
D03*
Y-264600D02*
D03*
Y-290100D02*
D03*
Y-315400D02*
D03*
Y-340900D02*
D03*
Y-366200D02*
D03*
Y-391600D02*
D03*
Y-417000D02*
D03*
Y-442400D02*
D03*
Y-468000D02*
D03*
X160000Y-544000D02*
D03*
Y-569400D02*
D03*
Y-594800D02*
D03*
Y-620200D02*
D03*
X185400Y-493200D02*
D03*
Y-518600D02*
D03*
Y-544000D02*
D03*
Y-569400D02*
D03*
Y-594800D02*
D03*
Y-620200D02*
D03*
Y-645600D02*
D03*
Y-671000D02*
D03*
Y-696400D02*
D03*
Y-721800D02*
D03*
D60*
X677750Y-449821D02*
D03*
D61*
X1286500Y-418000D02*
D03*
X1276500Y-428000D02*
D03*
X876250Y-645000D02*
D03*
D62*
X116400Y-44650D02*
D03*
X91000Y-57350D02*
D03*
X116400Y-70050D02*
D03*
X91000Y-82750D02*
D03*
X116400Y-95450D02*
D03*
X91000Y-108150D02*
D03*
X267370Y-136220D02*
D03*
Y-111220D02*
D03*
D63*
X1230500Y-118250D02*
D03*
Y-31250D02*
D03*
X1078000D02*
D03*
Y-118250D02*
D03*
X1389250Y-262250D02*
D03*
X399450Y-784700D02*
D03*
X450250D02*
D03*
X424850D02*
D03*
X399450Y-759300D02*
D03*
X424850D02*
D03*
X501050Y-784700D02*
D03*
X475650D02*
D03*
X1302380Y-808000D02*
D03*
X1276980D02*
D03*
X1327780D02*
D03*
X160000Y-239200D02*
D03*
Y-264600D02*
D03*
Y-290000D02*
D03*
Y-315500D02*
D03*
Y-340900D02*
D03*
Y-366300D02*
D03*
Y-391700D02*
D03*
Y-417200D02*
D03*
Y-442600D02*
D03*
Y-468000D02*
D03*
Y-493441D02*
D03*
Y-518600D02*
D03*
Y-645600D02*
D03*
Y-671000D02*
D03*
Y-696400D02*
D03*
Y-721800D02*
D03*
X1388750Y-154250D02*
D03*
X228000Y-814100D02*
D03*
Y-763300D02*
D03*
Y-788700D02*
D03*
X656000Y-32000D02*
D03*
X371000D02*
D03*
X513500D02*
D03*
D64*
X1389250Y-312250D02*
D03*
X1388750Y-204250D02*
D03*
D65*
X501050Y-759300D02*
D03*
D66*
X475650D02*
D03*
D67*
X450250D02*
D03*
D68*
X1251580Y-808000D02*
D03*
D69*
X1380250Y-551250D02*
D03*
D70*
X1405650Y-525850D02*
D03*
Y-576650D02*
D03*
X1354850D02*
D03*
Y-525850D02*
D03*
D71*
X267370Y-161220D02*
D03*
D72*
X248250Y-306250D02*
D03*
X248250Y-255751D02*
D03*
D73*
X1410000Y-30000D02*
D03*
Y-805000D02*
D03*
X110000D02*
D03*
X677750Y-449821D02*
D03*
D74*
X313000Y-337250D02*
D03*
X289250D02*
D03*
X1151429Y-666171D02*
D03*
Y-720546D02*
D03*
Y-774921D02*
D03*
X1057000Y-800250D02*
D03*
Y-774750D02*
D03*
Y-745875D02*
D03*
Y-720375D02*
D03*
Y-688500D02*
D03*
Y-663000D02*
D03*
Y-637125D02*
D03*
Y-611625D02*
D03*
X983250D02*
D03*
X984250Y-667000D02*
D03*
X983375Y-720500D02*
D03*
X983250Y-774750D02*
D03*
X1151500Y-800250D02*
D03*
X1151750Y-745750D02*
D03*
X1152250Y-692750D02*
D03*
X1152000Y-636750D02*
D03*
X984000Y-800250D02*
D03*
Y-745750D02*
D03*
X983750Y-690500D02*
D03*
X983750Y-637000D02*
D03*
D75*
X631000Y-82000D02*
D03*
X606000D02*
D03*
X681000D02*
D03*
X706000D02*
D03*
X656000D02*
D03*
X346000D02*
D03*
X321000D02*
D03*
X396000D02*
D03*
X421000D02*
D03*
X371000D02*
D03*
X488500D02*
D03*
X463500D02*
D03*
X538500D02*
D03*
X563500D02*
D03*
X513500D02*
D03*
D76*
X606000Y-32000D02*
D03*
X706000D02*
D03*
X321000D02*
D03*
X421000D02*
D03*
X463500D02*
D03*
X563500D02*
D03*
D77*
X699750Y-471821D02*
D03*
X688750D02*
D03*
X677750D02*
D03*
X666750D02*
D03*
X655750D02*
D03*
X699750Y-460821D02*
D03*
X655750D02*
D03*
X699750Y-449821D02*
D03*
X655750D02*
D03*
X699750Y-438821D02*
D03*
X655750D02*
D03*
X699750Y-427821D02*
D03*
X688750D02*
D03*
X677750D02*
D03*
X666750D02*
D03*
X655750D02*
D03*
D78*
X26900Y-126450D02*
D03*
Y-26450D02*
D03*
D79*
X983250Y-582750D02*
D03*
X1057000D02*
D03*
X1151429Y-557421D02*
D03*
X1057000Y-557250D02*
D03*
X983250D02*
D03*
X1152250Y-583000D02*
D03*
D80*
X1151750Y-392250D02*
D03*
X983958Y-503583D02*
D03*
X983250Y-474000D02*
D03*
X983750Y-449000D02*
D03*
X983250Y-419000D02*
D03*
Y-393500D02*
D03*
X1151429Y-448671D02*
D03*
Y-503046D02*
D03*
X1057000Y-528375D02*
D03*
Y-502875D02*
D03*
Y-474000D02*
D03*
Y-448500D02*
D03*
X1056750Y-419171D02*
D03*
X983250Y-528375D02*
D03*
X1152250Y-418500D02*
D03*
X1153250Y-474250D02*
D03*
X1152000Y-527750D02*
D03*
D158*
X298875Y-448375D02*
D03*
D159*
X965111Y-101000D02*
D03*
X942111D02*
D03*
X919111D02*
D03*
X840083D02*
D03*
X863083D02*
D03*
X886083D02*
D03*
X999250D02*
D03*
X1022250D02*
D03*
X1045250D02*
D03*
X802750Y-749750D02*
D03*
X779750D02*
D03*
X756750D02*
D03*
X726667D02*
D03*
X703667D02*
D03*
X680667D02*
D03*
X807500Y-101000D02*
D03*
X784500D02*
D03*
X761500D02*
D03*
D160*
X942111Y-43000D02*
D03*
X863083D02*
D03*
X1022250D02*
D03*
X779750Y-807749D02*
D03*
X703667D02*
D03*
X784500Y-43000D02*
D03*
D161*
X482850Y-384400D02*
D03*
Y-371700D02*
D03*
Y-359000D02*
D03*
Y-346300D02*
D03*
X536850D02*
D03*
Y-359000D02*
D03*
Y-371700D02*
D03*
Y-384400D02*
D03*
D162*
X503250Y-608200D02*
D03*
Y-620900D02*
D03*
Y-633600D02*
D03*
Y-646300D02*
D03*
X433250Y-608200D02*
D03*
Y-620900D02*
D03*
Y-633600D02*
D03*
Y-646300D02*
D03*
D163*
X918775Y-410250D02*
D03*
X925125D02*
D03*
X931475D02*
D03*
X937825D02*
D03*
X944175D02*
D03*
X950525D02*
D03*
X956875D02*
D03*
X963225D02*
D03*
X918775Y-466250D02*
D03*
X925125D02*
D03*
X931475D02*
D03*
X937825D02*
D03*
X944175D02*
D03*
X950525D02*
D03*
X956875D02*
D03*
X963225D02*
D03*
X1217475Y-562750D02*
D03*
X1211125D02*
D03*
X1204775D02*
D03*
X1198425D02*
D03*
X1192075D02*
D03*
X1185725D02*
D03*
X1179375D02*
D03*
X1173025D02*
D03*
X1217475Y-506750D02*
D03*
X1211125D02*
D03*
X1204775D02*
D03*
X1198425D02*
D03*
X1192075D02*
D03*
X1185725D02*
D03*
X1179375D02*
D03*
X1173025D02*
D03*
X1217475Y-466250D02*
D03*
X1211125D02*
D03*
X1204775D02*
D03*
X1198425D02*
D03*
X1192075D02*
D03*
X1185725D02*
D03*
X1179375D02*
D03*
X1173025D02*
D03*
X1217475Y-410250D02*
D03*
X1211125D02*
D03*
X1204775D02*
D03*
X1198425D02*
D03*
X1192075D02*
D03*
X1185725D02*
D03*
X1179375D02*
D03*
X1173025D02*
D03*
X963225Y-562750D02*
D03*
X956875D02*
D03*
X950525D02*
D03*
X944175D02*
D03*
X937825D02*
D03*
X931475D02*
D03*
X925125D02*
D03*
X918775D02*
D03*
X963225Y-506750D02*
D03*
X956875D02*
D03*
X950525D02*
D03*
X944175D02*
D03*
X937825D02*
D03*
X931475D02*
D03*
X925125D02*
D03*
X918775D02*
D03*
D164*
X1414750Y-454250D02*
D03*
Y-420750D02*
D03*
X1326500Y-58000D02*
D03*
Y-91500D02*
D03*
D165*
X1292000Y-114500D02*
D03*
X1325500D02*
D03*
D166*
X696500Y-668250D02*
D03*
X728500D02*
D03*
D167*
X296250Y-773500D02*
D03*
D168*
X354250Y-796500D02*
D03*
Y-773500D02*
D03*
Y-750500D02*
D03*
M02*
