%TF.GenerationSoftware,Altium Limited,Altium Designer,21.5.1 (32)*%
G04 Layer_Color=8388736*
%FSLAX44Y44*%
%MOMM*%
%TF.SameCoordinates,B0397303-8537-4BFB-9E0B-8F0BB310BE14*%
%TF.FilePolarity,Negative*%
%TF.FileFunction,Soldermask,Top*%
%TF.Part,Single*%
G01*
G75*
%TA.AperFunction,SMDPad,CuDef*%
%ADD48R,1.4532X1.2032*%
%ADD49R,1.2032X1.4532*%
%ADD52R,4.3532X2.6032*%
%ADD53R,1.4532X0.5032*%
%TA.AperFunction,ViaPad*%
%ADD58C,6.7032*%
%ADD59C,0.3032*%
%TA.AperFunction,ComponentPad*%
%ADD60C,10.2032*%
G04:AMPARAMS|DCode=61|XSize=2.0032mm|YSize=2.2032mm|CornerRadius=0.5516mm|HoleSize=0mm|Usage=FLASHONLY|Rotation=270.000|XOffset=0mm|YOffset=0mm|HoleType=Round|Shape=RoundedRectangle|*
%AMROUNDEDRECTD61*
21,1,2.0032,1.1000,0,0,270.0*
21,1,0.9000,2.2032,0,0,270.0*
1,1,1.1032,-0.5500,-0.4500*
1,1,1.1032,-0.5500,0.4500*
1,1,1.1032,0.5500,0.4500*
1,1,1.1032,0.5500,-0.4500*
%
%ADD61ROUNDEDRECTD61*%
%ADD62C,2.2032*%
%ADD63R,2.2032X2.2032*%
G04:AMPARAMS|DCode=64|XSize=3.2032mm|YSize=3.2032mm|CornerRadius=0mm|HoleSize=0mm|Usage=FLASHONLY|Rotation=180.000|XOffset=0mm|YOffset=0mm|HoleType=Round|Shape=Octagon|*
%AMOCTAGOND64*
4,1,8,-1.6016,0.8008,-1.6016,-0.8008,-0.8008,-1.6016,0.8008,-1.6016,1.6016,-0.8008,1.6016,0.8008,0.8008,1.6016,-0.8008,1.6016,-1.6016,0.8008,0.0*
%
%ADD64OCTAGOND64*%

%ADD65C,3.2032*%
%TA.AperFunction,ViaPad*%
%ADD66C,5.2032*%
%TA.AperFunction,SMDPad,CuDef*%
%ADD68R,3.2032X2.2032*%
D48*
X174946Y43254D02*
D03*
Y23254D02*
D03*
X75000Y339881D02*
D03*
Y319881D02*
D03*
X98424D02*
D03*
Y339881D02*
D03*
D49*
X969000Y24125D02*
D03*
X949000D02*
D03*
X633272D02*
D03*
X653272D02*
D03*
X476398D02*
D03*
X496398D02*
D03*
D52*
X730943Y490123D02*
D03*
Y246123D02*
D03*
D53*
X703943Y465623D02*
D03*
Y460623D02*
D03*
Y455623D02*
D03*
Y450623D02*
D03*
Y445623D02*
D03*
Y440623D02*
D03*
Y435623D02*
D03*
Y430623D02*
D03*
Y425623D02*
D03*
Y420623D02*
D03*
Y415623D02*
D03*
Y410623D02*
D03*
Y405623D02*
D03*
Y400623D02*
D03*
Y395623D02*
D03*
Y390623D02*
D03*
Y385623D02*
D03*
Y380623D02*
D03*
Y375623D02*
D03*
Y370623D02*
D03*
Y365623D02*
D03*
Y360623D02*
D03*
Y355623D02*
D03*
Y350623D02*
D03*
Y345623D02*
D03*
Y340623D02*
D03*
Y335623D02*
D03*
Y330623D02*
D03*
Y325623D02*
D03*
Y320623D02*
D03*
Y315623D02*
D03*
Y310623D02*
D03*
Y305623D02*
D03*
Y300623D02*
D03*
Y295623D02*
D03*
Y290623D02*
D03*
Y285623D02*
D03*
Y280623D02*
D03*
Y275623D02*
D03*
Y270623D02*
D03*
D58*
X1231500Y339000D02*
D03*
X1351250Y130750D02*
D03*
X1111500Y131000D02*
D03*
D59*
X1231750Y200000D02*
D03*
D60*
X1231755Y508634D02*
D03*
D61*
X1312505Y483634D02*
D03*
Y533634D02*
D03*
X1147505Y483634D02*
D03*
Y508634D02*
D03*
Y533634D02*
D03*
D62*
X1280800Y401000D02*
D03*
X1255400D02*
D03*
X1204600D02*
D03*
X1230000D02*
D03*
D63*
X1179200D02*
D03*
D64*
X472515Y508749D02*
D03*
D65*
X269485D02*
D03*
D66*
X1371727Y31260D02*
D03*
Y617000D02*
D03*
X28500D02*
D03*
D68*
X1078000Y24250D02*
D03*
Y65750D02*
D03*
X996000Y24250D02*
D03*
Y65750D02*
D03*
X920500Y24250D02*
D03*
Y65750D02*
D03*
X838500Y24250D02*
D03*
Y65750D02*
D03*
X448000Y24250D02*
D03*
Y65750D02*
D03*
X366000Y24250D02*
D03*
Y65750D02*
D03*
X605500Y24250D02*
D03*
Y65750D02*
D03*
X523500Y24250D02*
D03*
Y65750D02*
D03*
X763000Y24250D02*
D03*
Y65750D02*
D03*
X681000Y24250D02*
D03*
Y65750D02*
D03*
X290500Y24250D02*
D03*
Y65750D02*
D03*
X208500Y24250D02*
D03*
Y65750D02*
D03*
X115500Y519500D02*
D03*
Y561000D02*
D03*
X33500Y519500D02*
D03*
Y561000D02*
D03*
X115500Y239250D02*
D03*
Y280750D02*
D03*
X33500Y239250D02*
D03*
Y280750D02*
D03*
X34500Y420750D02*
D03*
Y379250D02*
D03*
X116500Y420750D02*
D03*
Y379250D02*
D03*
%TF.MD5,3f77273a370c145f860a0625ed7a4053*%
M02*
