%TF.GenerationSoftware,Altium Limited,Altium Designer,21.5.1 (32)*%
G04 Layer_Color=16711935*
%FSLAX44Y44*%
%MOMM*%
%TF.SameCoordinates,B0397303-8537-4BFB-9E0B-8F0BB310BE14*%
%TF.FilePolarity,Negative*%
%TF.FileFunction,Soldermask,Bot*%
%TF.Part,Single*%
G01*
G75*
%TA.AperFunction,SMDPad,CuDef*%
%ADD48R,1.4532X1.2032*%
%ADD49R,1.2032X1.4532*%
%ADD50R,0.8032X1.2032*%
%ADD51O,0.8032X2.0532*%
%ADD52R,4.3532X2.6032*%
%ADD53R,1.4532X0.5032*%
G04:AMPARAMS|DCode=54|XSize=1.4032mm|YSize=3.2032mm|CornerRadius=0.4016mm|HoleSize=0mm|Usage=FLASHONLY|Rotation=0.000|XOffset=0mm|YOffset=0mm|HoleType=Round|Shape=RoundedRectangle|*
%AMROUNDEDRECTD54*
21,1,1.4032,2.4000,0,0,0.0*
21,1,0.6000,3.2032,0,0,0.0*
1,1,0.8032,0.3000,-1.2000*
1,1,0.8032,-0.3000,-1.2000*
1,1,0.8032,-0.3000,1.2000*
1,1,0.8032,0.3000,1.2000*
%
%ADD54ROUNDEDRECTD54*%
%ADD55R,9.2032X4.2032*%
%ADD56R,1.2032X2.6032*%
%ADD57R,2.6032X1.6032*%
%TA.AperFunction,ViaPad*%
%ADD58C,6.7032*%
%ADD59C,0.3032*%
%TA.AperFunction,ComponentPad*%
%ADD60C,10.2032*%
G04:AMPARAMS|DCode=61|XSize=2.0032mm|YSize=2.2032mm|CornerRadius=0.5516mm|HoleSize=0mm|Usage=FLASHONLY|Rotation=270.000|XOffset=0mm|YOffset=0mm|HoleType=Round|Shape=RoundedRectangle|*
%AMROUNDEDRECTD61*
21,1,2.0032,1.1000,0,0,270.0*
21,1,0.9000,2.2032,0,0,270.0*
1,1,1.1032,-0.5500,-0.4500*
1,1,1.1032,-0.5500,0.4500*
1,1,1.1032,0.5500,0.4500*
1,1,1.1032,0.5500,-0.4500*
%
%ADD61ROUNDEDRECTD61*%
%ADD62C,2.2032*%
%ADD63R,2.2032X2.2032*%
G04:AMPARAMS|DCode=64|XSize=3.2032mm|YSize=3.2032mm|CornerRadius=0mm|HoleSize=0mm|Usage=FLASHONLY|Rotation=180.000|XOffset=0mm|YOffset=0mm|HoleType=Round|Shape=Octagon|*
%AMOCTAGOND64*
4,1,8,-1.6016,0.8008,-1.6016,-0.8008,-0.8008,-1.6016,0.8008,-1.6016,1.6016,-0.8008,1.6016,0.8008,0.8008,1.6016,-0.8008,1.6016,-1.6016,0.8008,0.0*
%
%ADD64OCTAGOND64*%

%ADD65C,3.2032*%
%TA.AperFunction,ViaPad*%
%ADD66C,5.2032*%
D48*
X1123250Y621250D02*
D03*
Y601250D02*
D03*
X1310750Y425750D02*
D03*
Y405750D02*
D03*
X1354083Y484250D02*
D03*
Y464250D02*
D03*
X1332417Y405750D02*
D03*
Y425750D02*
D03*
X751500Y595000D02*
D03*
Y615000D02*
D03*
X534253Y488281D02*
D03*
Y468281D02*
D03*
X865850Y111759D02*
D03*
Y131759D02*
D03*
X930015Y111759D02*
D03*
Y131759D02*
D03*
X277273Y394288D02*
D03*
Y374288D02*
D03*
X691500Y530561D02*
D03*
Y550561D02*
D03*
X887238Y111759D02*
D03*
Y131759D02*
D03*
X908627Y111759D02*
D03*
Y131759D02*
D03*
X727500Y615000D02*
D03*
Y595000D02*
D03*
X1354083Y405750D02*
D03*
Y425750D02*
D03*
X1375750Y405750D02*
D03*
Y425750D02*
D03*
X1100500Y621250D02*
D03*
Y601250D02*
D03*
X1147500Y621250D02*
D03*
Y601250D02*
D03*
X1170000Y621250D02*
D03*
Y601250D02*
D03*
D49*
X810300Y130759D02*
D03*
X830300D02*
D03*
X267773Y254882D02*
D03*
X287773D02*
D03*
X267773Y295270D02*
D03*
X287773D02*
D03*
X701502Y214272D02*
D03*
X721502D02*
D03*
D50*
X286731Y320739D02*
D03*
X267731D02*
D03*
X277231Y344739D02*
D03*
D51*
X867272Y161408D02*
D03*
X854572D02*
D03*
X841872D02*
D03*
X829172D02*
D03*
X816472D02*
D03*
X803772D02*
D03*
X791072D02*
D03*
X778372D02*
D03*
X867272Y219408D02*
D03*
X854572D02*
D03*
X841872D02*
D03*
X829172D02*
D03*
X816472D02*
D03*
X803772D02*
D03*
X791072D02*
D03*
X778372D02*
D03*
D52*
X607250Y486000D02*
D03*
Y242000D02*
D03*
D53*
X580250Y461500D02*
D03*
Y456500D02*
D03*
Y451500D02*
D03*
Y446500D02*
D03*
Y441500D02*
D03*
Y436500D02*
D03*
Y431500D02*
D03*
Y426500D02*
D03*
Y421500D02*
D03*
Y416500D02*
D03*
Y411500D02*
D03*
Y406500D02*
D03*
Y401500D02*
D03*
Y396500D02*
D03*
Y391500D02*
D03*
Y386500D02*
D03*
Y381500D02*
D03*
Y376500D02*
D03*
Y371500D02*
D03*
Y366500D02*
D03*
Y361500D02*
D03*
Y356500D02*
D03*
Y351500D02*
D03*
Y346500D02*
D03*
Y341500D02*
D03*
Y336500D02*
D03*
Y331500D02*
D03*
Y326500D02*
D03*
Y321500D02*
D03*
Y316500D02*
D03*
Y311500D02*
D03*
Y306500D02*
D03*
Y301500D02*
D03*
Y296500D02*
D03*
Y291500D02*
D03*
Y286500D02*
D03*
Y281500D02*
D03*
Y276500D02*
D03*
Y271500D02*
D03*
Y266500D02*
D03*
D54*
X462189Y63100D02*
D03*
X487589D02*
D03*
X512989D02*
D03*
X538389D02*
D03*
X563789D02*
D03*
X589189D02*
D03*
X614589D02*
D03*
X639989D02*
D03*
X665389D02*
D03*
X690789D02*
D03*
Y118500D02*
D03*
X665389D02*
D03*
X639989D02*
D03*
X614589D02*
D03*
X589189D02*
D03*
X563789D02*
D03*
X538389D02*
D03*
X512989D02*
D03*
X487589D02*
D03*
X462189D02*
D03*
X208150Y63100D02*
D03*
X233550D02*
D03*
X258950D02*
D03*
X284350D02*
D03*
X309750D02*
D03*
X335150D02*
D03*
X360550D02*
D03*
X385950D02*
D03*
X411350D02*
D03*
X436750D02*
D03*
Y118500D02*
D03*
X411350D02*
D03*
X385950D02*
D03*
X360550D02*
D03*
X335150D02*
D03*
X309750D02*
D03*
X284350D02*
D03*
X258950D02*
D03*
X233550D02*
D03*
X208150D02*
D03*
D55*
X632750Y603750D02*
D03*
D56*
X609750Y545750D02*
D03*
X632750D02*
D03*
X655750D02*
D03*
D57*
X564458Y577500D02*
D03*
Y612500D02*
D03*
X698000Y612500D02*
D03*
Y577500D02*
D03*
D58*
X1231500Y339000D02*
D03*
X1351250Y130750D02*
D03*
X1111500Y131000D02*
D03*
D59*
X1231750Y200000D02*
D03*
D60*
X1231755Y508634D02*
D03*
D61*
X1312505Y483634D02*
D03*
Y533634D02*
D03*
X1147505Y483634D02*
D03*
Y508634D02*
D03*
Y533634D02*
D03*
D62*
X1280800Y401000D02*
D03*
X1255400D02*
D03*
X1204600D02*
D03*
X1230000D02*
D03*
D63*
X1179200D02*
D03*
D64*
X472515Y508749D02*
D03*
D65*
X269485D02*
D03*
D66*
X1371727Y31260D02*
D03*
Y617000D02*
D03*
X28500D02*
D03*
%TF.MD5,7e6e8187025750d6c7ed3c660b1dabd1*%
M02*
